<?xml version="1.0" encoding="utf-8" standalone="no"?>
<!DOCTYPE svg PUBLIC "-//W3C//DTD SVG 1.1//EN"
  "http://www.w3.org/Graphics/SVG/1.1/DTD/svg11.dtd">
<!-- Created with matplotlib (https://matplotlib.org/) -->
<svg height="1440pt" version="1.1" viewBox="0 0 1440 1440" width="1440pt" xmlns="http://www.w3.org/2000/svg" xmlns:xlink="http://www.w3.org/1999/xlink">
 <defs>
  <style type="text/css">
*{stroke-linecap:butt;stroke-linejoin:round;}
  </style>
 </defs>
 <g id="figure_1">
  <g id="patch_1">
   <path d="M 0 1440 
L 1440 1440 
L 1440 0 
L 0 0 
z
" style="fill:#ffffff;"/>
  </g>
  <g id="axes_1">
   <g id="patch_2">
    <path d="M 180 492.564706 
L 1296 492.564706 
L 1296 172.8 
L 180 172.8 
z
" style="fill:#ffffff;"/>
   </g>
   <g id="matplotlib.axis_1">
    <g id="xtick_1">
     <g id="line2d_1">
      <defs>
       <path d="M 0 0 
L 0 3.5 
" id="m4464cf9b10" style="stroke:#000000;stroke-width:0.8;"/>
      </defs>
      <g>
       <use style="stroke:#000000;stroke-width:0.8;" x="230.727273" xlink:href="#m4464cf9b10" y="492.564706"/>
      </g>
     </g>
     <g id="text_1">
      <!-- 0 -->
      <defs>
       <path d="M 31.78125 66.40625 
Q 24.171875 66.40625 20.328125 58.90625 
Q 16.5 51.421875 16.5 36.375 
Q 16.5 21.390625 20.328125 13.890625 
Q 24.171875 6.390625 31.78125 6.390625 
Q 39.453125 6.390625 43.28125 13.890625 
Q 47.125 21.390625 47.125 36.375 
Q 47.125 51.421875 43.28125 58.90625 
Q 39.453125 66.40625 31.78125 66.40625 
z
M 31.78125 74.21875 
Q 44.046875 74.21875 50.515625 64.515625 
Q 56.984375 54.828125 56.984375 36.375 
Q 56.984375 17.96875 50.515625 8.265625 
Q 44.046875 -1.421875 31.78125 -1.421875 
Q 19.53125 -1.421875 13.0625 8.265625 
Q 6.59375 17.96875 6.59375 36.375 
Q 6.59375 54.828125 13.0625 64.515625 
Q 19.53125 74.21875 31.78125 74.21875 
z
" id="DejaVuSans-48"/>
      </defs>
      <g transform="translate(226.273523 510.202518)scale(0.14 -0.14)">
       <use xlink:href="#DejaVuSans-48"/>
      </g>
     </g>
    </g>
    <g id="xtick_2">
     <g id="line2d_2">
      <g>
       <use style="stroke:#000000;stroke-width:0.8;" x="376.495298" xlink:href="#m4464cf9b10" y="492.564706"/>
      </g>
     </g>
     <g id="text_2">
      <!-- 50 -->
      <defs>
       <path d="M 10.796875 72.90625 
L 49.515625 72.90625 
L 49.515625 64.59375 
L 19.828125 64.59375 
L 19.828125 46.734375 
Q 21.96875 47.46875 24.109375 47.828125 
Q 26.265625 48.1875 28.421875 48.1875 
Q 40.625 48.1875 47.75 41.5 
Q 54.890625 34.8125 54.890625 23.390625 
Q 54.890625 11.625 47.5625 5.09375 
Q 40.234375 -1.421875 26.90625 -1.421875 
Q 22.3125 -1.421875 17.546875 -0.640625 
Q 12.796875 0.140625 7.71875 1.703125 
L 7.71875 11.625 
Q 12.109375 9.234375 16.796875 8.0625 
Q 21.484375 6.890625 26.703125 6.890625 
Q 35.15625 6.890625 40.078125 11.328125 
Q 45.015625 15.765625 45.015625 23.390625 
Q 45.015625 31 40.078125 35.4375 
Q 35.15625 39.890625 26.703125 39.890625 
Q 22.75 39.890625 18.8125 39.015625 
Q 14.890625 38.140625 10.796875 36.28125 
z
" id="DejaVuSans-53"/>
      </defs>
      <g transform="translate(367.587798 510.202518)scale(0.14 -0.14)">
       <use xlink:href="#DejaVuSans-53"/>
       <use x="63.623047" xlink:href="#DejaVuSans-48"/>
      </g>
     </g>
    </g>
    <g id="xtick_3">
     <g id="line2d_3">
      <g>
       <use style="stroke:#000000;stroke-width:0.8;" x="522.263323" xlink:href="#m4464cf9b10" y="492.564706"/>
      </g>
     </g>
     <g id="text_3">
      <!-- 100 -->
      <defs>
       <path d="M 12.40625 8.296875 
L 28.515625 8.296875 
L 28.515625 63.921875 
L 10.984375 60.40625 
L 10.984375 69.390625 
L 28.421875 72.90625 
L 38.28125 72.90625 
L 38.28125 8.296875 
L 54.390625 8.296875 
L 54.390625 0 
L 12.40625 0 
z
" id="DejaVuSans-49"/>
      </defs>
      <g transform="translate(508.902073 510.202518)scale(0.14 -0.14)">
       <use xlink:href="#DejaVuSans-49"/>
       <use x="63.623047" xlink:href="#DejaVuSans-48"/>
       <use x="127.246094" xlink:href="#DejaVuSans-48"/>
      </g>
     </g>
    </g>
    <g id="xtick_4">
     <g id="line2d_4">
      <g>
       <use style="stroke:#000000;stroke-width:0.8;" x="668.031348" xlink:href="#m4464cf9b10" y="492.564706"/>
      </g>
     </g>
     <g id="text_4">
      <!-- 150 -->
      <g transform="translate(654.670098 510.202518)scale(0.14 -0.14)">
       <use xlink:href="#DejaVuSans-49"/>
       <use x="63.623047" xlink:href="#DejaVuSans-53"/>
       <use x="127.246094" xlink:href="#DejaVuSans-48"/>
      </g>
     </g>
    </g>
    <g id="xtick_5">
     <g id="line2d_5">
      <g>
       <use style="stroke:#000000;stroke-width:0.8;" x="813.799373" xlink:href="#m4464cf9b10" y="492.564706"/>
      </g>
     </g>
     <g id="text_5">
      <!-- 200 -->
      <defs>
       <path d="M 19.1875 8.296875 
L 53.609375 8.296875 
L 53.609375 0 
L 7.328125 0 
L 7.328125 8.296875 
Q 12.9375 14.109375 22.625 23.890625 
Q 32.328125 33.6875 34.8125 36.53125 
Q 39.546875 41.84375 41.421875 45.53125 
Q 43.3125 49.21875 43.3125 52.78125 
Q 43.3125 58.59375 39.234375 62.25 
Q 35.15625 65.921875 28.609375 65.921875 
Q 23.96875 65.921875 18.8125 64.3125 
Q 13.671875 62.703125 7.8125 59.421875 
L 7.8125 69.390625 
Q 13.765625 71.78125 18.9375 73 
Q 24.125 74.21875 28.421875 74.21875 
Q 39.75 74.21875 46.484375 68.546875 
Q 53.21875 62.890625 53.21875 53.421875 
Q 53.21875 48.921875 51.53125 44.890625 
Q 49.859375 40.875 45.40625 35.40625 
Q 44.1875 33.984375 37.640625 27.21875 
Q 31.109375 20.453125 19.1875 8.296875 
z
" id="DejaVuSans-50"/>
      </defs>
      <g transform="translate(800.438123 510.202518)scale(0.14 -0.14)">
       <use xlink:href="#DejaVuSans-50"/>
       <use x="63.623047" xlink:href="#DejaVuSans-48"/>
       <use x="127.246094" xlink:href="#DejaVuSans-48"/>
      </g>
     </g>
    </g>
    <g id="xtick_6">
     <g id="line2d_6">
      <g>
       <use style="stroke:#000000;stroke-width:0.8;" x="959.567398" xlink:href="#m4464cf9b10" y="492.564706"/>
      </g>
     </g>
     <g id="text_6">
      <!-- 250 -->
      <g transform="translate(946.206148 510.202518)scale(0.14 -0.14)">
       <use xlink:href="#DejaVuSans-50"/>
       <use x="63.623047" xlink:href="#DejaVuSans-53"/>
       <use x="127.246094" xlink:href="#DejaVuSans-48"/>
      </g>
     </g>
    </g>
    <g id="xtick_7">
     <g id="line2d_7">
      <g>
       <use style="stroke:#000000;stroke-width:0.8;" x="1105.335423" xlink:href="#m4464cf9b10" y="492.564706"/>
      </g>
     </g>
     <g id="text_7">
      <!-- 300 -->
      <defs>
       <path d="M 40.578125 39.3125 
Q 47.65625 37.796875 51.625 33 
Q 55.609375 28.21875 55.609375 21.1875 
Q 55.609375 10.40625 48.1875 4.484375 
Q 40.765625 -1.421875 27.09375 -1.421875 
Q 22.515625 -1.421875 17.65625 -0.515625 
Q 12.796875 0.390625 7.625 2.203125 
L 7.625 11.71875 
Q 11.71875 9.328125 16.59375 8.109375 
Q 21.484375 6.890625 26.8125 6.890625 
Q 36.078125 6.890625 40.9375 10.546875 
Q 45.796875 14.203125 45.796875 21.1875 
Q 45.796875 27.640625 41.28125 31.265625 
Q 36.765625 34.90625 28.71875 34.90625 
L 20.21875 34.90625 
L 20.21875 43.015625 
L 29.109375 43.015625 
Q 36.375 43.015625 40.234375 45.921875 
Q 44.09375 48.828125 44.09375 54.296875 
Q 44.09375 59.90625 40.109375 62.90625 
Q 36.140625 65.921875 28.71875 65.921875 
Q 24.65625 65.921875 20.015625 65.03125 
Q 15.375 64.15625 9.8125 62.3125 
L 9.8125 71.09375 
Q 15.4375 72.65625 20.34375 73.4375 
Q 25.25 74.21875 29.59375 74.21875 
Q 40.828125 74.21875 47.359375 69.109375 
Q 53.90625 64.015625 53.90625 55.328125 
Q 53.90625 49.265625 50.4375 45.09375 
Q 46.96875 40.921875 40.578125 39.3125 
z
" id="DejaVuSans-51"/>
      </defs>
      <g transform="translate(1091.974173 510.202518)scale(0.14 -0.14)">
       <use xlink:href="#DejaVuSans-51"/>
       <use x="63.623047" xlink:href="#DejaVuSans-48"/>
       <use x="127.246094" xlink:href="#DejaVuSans-48"/>
      </g>
     </g>
    </g>
    <g id="xtick_8">
     <g id="line2d_8">
      <g>
       <use style="stroke:#000000;stroke-width:0.8;" x="1251.103448" xlink:href="#m4464cf9b10" y="492.564706"/>
      </g>
     </g>
     <g id="text_8">
      <!-- 350 -->
      <g transform="translate(1237.742198 510.202518)scale(0.14 -0.14)">
       <use xlink:href="#DejaVuSans-51"/>
       <use x="63.623047" xlink:href="#DejaVuSans-53"/>
       <use x="127.246094" xlink:href="#DejaVuSans-48"/>
      </g>
     </g>
    </g>
   </g>
   <g id="matplotlib.axis_2">
    <g id="ytick_1">
     <g id="line2d_9">
      <defs>
       <path d="M 0 0 
L -3.5 0 
" id="m9041997f35" style="stroke:#000000;stroke-width:0.8;"/>
      </defs>
      <g>
       <use style="stroke:#000000;stroke-width:0.8;" x="180" xlink:href="#m9041997f35" y="492.564706"/>
      </g>
     </g>
     <g id="text_9">
      <!-- −180 -->
      <defs>
       <path d="M 10.59375 35.5 
L 73.1875 35.5 
L 73.1875 27.203125 
L 10.59375 27.203125 
z
" id="DejaVuSans-8722"/>
       <path d="M 31.78125 34.625 
Q 24.75 34.625 20.71875 30.859375 
Q 16.703125 27.09375 16.703125 20.515625 
Q 16.703125 13.921875 20.71875 10.15625 
Q 24.75 6.390625 31.78125 6.390625 
Q 38.8125 6.390625 42.859375 10.171875 
Q 46.921875 13.96875 46.921875 20.515625 
Q 46.921875 27.09375 42.890625 30.859375 
Q 38.875 34.625 31.78125 34.625 
z
M 21.921875 38.8125 
Q 15.578125 40.375 12.03125 44.71875 
Q 8.5 49.078125 8.5 55.328125 
Q 8.5 64.0625 14.71875 69.140625 
Q 20.953125 74.21875 31.78125 74.21875 
Q 42.671875 74.21875 48.875 69.140625 
Q 55.078125 64.0625 55.078125 55.328125 
Q 55.078125 49.078125 51.53125 44.71875 
Q 48 40.375 41.703125 38.8125 
Q 48.828125 37.15625 52.796875 32.3125 
Q 56.78125 27.484375 56.78125 20.515625 
Q 56.78125 9.90625 50.3125 4.234375 
Q 43.84375 -1.421875 31.78125 -1.421875 
Q 19.734375 -1.421875 13.25 4.234375 
Q 6.78125 9.90625 6.78125 20.515625 
Q 6.78125 27.484375 10.78125 32.3125 
Q 14.796875 37.15625 21.921875 38.8125 
z
M 18.3125 54.390625 
Q 18.3125 48.734375 21.84375 45.5625 
Q 25.390625 42.390625 31.78125 42.390625 
Q 38.140625 42.390625 41.71875 45.5625 
Q 45.3125 48.734375 45.3125 54.390625 
Q 45.3125 60.0625 41.71875 63.234375 
Q 38.140625 66.40625 31.78125 66.40625 
Q 25.390625 66.40625 21.84375 63.234375 
Q 18.3125 60.0625 18.3125 54.390625 
z
" id="DejaVuSans-56"/>
      </defs>
      <g transform="translate(134.545937 497.883612)scale(0.14 -0.14)">
       <use xlink:href="#DejaVuSans-8722"/>
       <use x="83.789062" xlink:href="#DejaVuSans-49"/>
       <use x="147.412109" xlink:href="#DejaVuSans-56"/>
       <use x="211.035156" xlink:href="#DejaVuSans-48"/>
      </g>
     </g>
    </g>
    <g id="ytick_2">
     <g id="line2d_10">
      <g>
       <use style="stroke:#000000;stroke-width:0.8;" x="180" xlink:href="#m9041997f35" y="428.611765"/>
      </g>
     </g>
     <g id="text_10">
      <!-- −160 -->
      <defs>
       <path d="M 33.015625 40.375 
Q 26.375 40.375 22.484375 35.828125 
Q 18.609375 31.296875 18.609375 23.390625 
Q 18.609375 15.53125 22.484375 10.953125 
Q 26.375 6.390625 33.015625 6.390625 
Q 39.65625 6.390625 43.53125 10.953125 
Q 47.40625 15.53125 47.40625 23.390625 
Q 47.40625 31.296875 43.53125 35.828125 
Q 39.65625 40.375 33.015625 40.375 
z
M 52.59375 71.296875 
L 52.59375 62.3125 
Q 48.875 64.0625 45.09375 64.984375 
Q 41.3125 65.921875 37.59375 65.921875 
Q 27.828125 65.921875 22.671875 59.328125 
Q 17.53125 52.734375 16.796875 39.40625 
Q 19.671875 43.65625 24.015625 45.921875 
Q 28.375 48.1875 33.59375 48.1875 
Q 44.578125 48.1875 50.953125 41.515625 
Q 57.328125 34.859375 57.328125 23.390625 
Q 57.328125 12.15625 50.6875 5.359375 
Q 44.046875 -1.421875 33.015625 -1.421875 
Q 20.359375 -1.421875 13.671875 8.265625 
Q 6.984375 17.96875 6.984375 36.375 
Q 6.984375 53.65625 15.1875 63.9375 
Q 23.390625 74.21875 37.203125 74.21875 
Q 40.921875 74.21875 44.703125 73.484375 
Q 48.484375 72.75 52.59375 71.296875 
z
" id="DejaVuSans-54"/>
      </defs>
      <g transform="translate(134.545937 433.930671)scale(0.14 -0.14)">
       <use xlink:href="#DejaVuSans-8722"/>
       <use x="83.789062" xlink:href="#DejaVuSans-49"/>
       <use x="147.412109" xlink:href="#DejaVuSans-54"/>
       <use x="211.035156" xlink:href="#DejaVuSans-48"/>
      </g>
     </g>
    </g>
    <g id="ytick_3">
     <g id="line2d_11">
      <g>
       <use style="stroke:#000000;stroke-width:0.8;" x="180" xlink:href="#m9041997f35" y="364.658824"/>
      </g>
     </g>
     <g id="text_11">
      <!-- −140 -->
      <defs>
       <path d="M 37.796875 64.3125 
L 12.890625 25.390625 
L 37.796875 25.390625 
z
M 35.203125 72.90625 
L 47.609375 72.90625 
L 47.609375 25.390625 
L 58.015625 25.390625 
L 58.015625 17.1875 
L 47.609375 17.1875 
L 47.609375 0 
L 37.796875 0 
L 37.796875 17.1875 
L 4.890625 17.1875 
L 4.890625 26.703125 
z
" id="DejaVuSans-52"/>
      </defs>
      <g transform="translate(134.545937 369.97773)scale(0.14 -0.14)">
       <use xlink:href="#DejaVuSans-8722"/>
       <use x="83.789062" xlink:href="#DejaVuSans-49"/>
       <use x="147.412109" xlink:href="#DejaVuSans-52"/>
       <use x="211.035156" xlink:href="#DejaVuSans-48"/>
      </g>
     </g>
    </g>
    <g id="ytick_4">
     <g id="line2d_12">
      <g>
       <use style="stroke:#000000;stroke-width:0.8;" x="180" xlink:href="#m9041997f35" y="300.705882"/>
      </g>
     </g>
     <g id="text_12">
      <!-- −120 -->
      <g transform="translate(134.545937 306.024789)scale(0.14 -0.14)">
       <use xlink:href="#DejaVuSans-8722"/>
       <use x="83.789062" xlink:href="#DejaVuSans-49"/>
       <use x="147.412109" xlink:href="#DejaVuSans-50"/>
       <use x="211.035156" xlink:href="#DejaVuSans-48"/>
      </g>
     </g>
    </g>
    <g id="ytick_5">
     <g id="line2d_13">
      <g>
       <use style="stroke:#000000;stroke-width:0.8;" x="180" xlink:href="#m9041997f35" y="236.752941"/>
      </g>
     </g>
     <g id="text_13">
      <!-- −100 -->
      <g transform="translate(134.545937 242.071847)scale(0.14 -0.14)">
       <use xlink:href="#DejaVuSans-8722"/>
       <use x="83.789062" xlink:href="#DejaVuSans-49"/>
       <use x="147.412109" xlink:href="#DejaVuSans-48"/>
       <use x="211.035156" xlink:href="#DejaVuSans-48"/>
      </g>
     </g>
    </g>
    <g id="ytick_6">
     <g id="line2d_14">
      <g>
       <use style="stroke:#000000;stroke-width:0.8;" x="180" xlink:href="#m9041997f35" y="172.8"/>
      </g>
     </g>
     <g id="text_14">
      <!-- −80 -->
      <g transform="translate(143.453438 178.118906)scale(0.14 -0.14)">
       <use xlink:href="#DejaVuSans-8722"/>
       <use x="83.789062" xlink:href="#DejaVuSans-56"/>
       <use x="147.412109" xlink:href="#DejaVuSans-48"/>
      </g>
     </g>
    </g>
   </g>
   <g id="line2d_15">
    <path clip-path="url(#p8837620688)" d="M 230.727273 484.263148 
L 233.642633 342.774761 
L 236.557994 283.362004 
L 239.473354 279.083731 
L 242.388715 276.52678 
L 245.304075 275.955701 
L 248.219436 276.069801 
L 251.134796 276.982138 
L 254.050157 277.255291 
L 256.965517 277.413417 
L 262.796238 277.588655 
L 265.711599 277.973611 
L 268.626959 278.230824 
L 271.54232 278.369233 
L 274.45768 278.233175 
L 277.373041 278.521376 
L 280.288401 278.44712 
L 283.203762 278.525109 
L 286.119122 278.813783 
L 294.865204 278.695984 
L 300.695925 279.070562 
L 309.442006 279.100521 
L 312.357367 279.213006 
L 315.272727 279.081721 
L 332.76489 279.365892 
L 341.510972 279.466892 
L 344.426332 279.582563 
L 347.341693 279.507687 
L 364.833856 279.781011 
L 370.664577 279.611204 
L 373.579937 279.878156 
L 376.495298 279.684481 
L 379.410658 279.640153 
L 385.241379 279.847203 
L 391.0721 279.723544 
L 402.733542 280.067329 
L 405.648903 279.961303 
L 411.479624 280.193544 
L 414.394984 280.072345 
L 420.225705 280.214842 
L 428.971787 280.13495 
L 437.717868 280.05939 
L 443.548589 280.407259 
L 449.37931 280.292236 
L 452.294671 280.43411 
L 458.125392 280.315008 
L 469.786834 280.510972 
L 472.702194 280.3531 
L 475.617555 280.486361 
L 478.532915 280.353632 
L 496.025078 280.542677 
L 498.940439 280.421897 
L 501.855799 280.583941 
L 504.77116 280.404317 
L 510.601881 280.45228 
L 513.517241 280.662896 
L 519.347962 280.450704 
L 528.094044 280.683477 
L 533.924765 280.671835 
L 539.755486 280.729283 
L 548.501567 280.920773 
L 551.416928 280.826199 
L 560.163009 280.872947 
L 577.655172 280.753513 
L 583.485893 280.88655 
L 598.062696 280.980485 
L 600.978056 280.872971 
L 606.808777 281.017552 
L 612.639498 281.020987 
L 624.30094 281.116781 
L 633.047022 281.073327 
L 638.877743 281.186393 
L 644.708464 281.215053 
L 659.285266 281.138664 
L 662.200627 281.214902 
L 668.031348 281.126627 
L 673.862069 281.22894 
L 682.60815 281.205319 
L 688.438871 281.324265 
L 691.354232 281.168164 
L 694.269592 281.406343 
L 705.931034 281.441591 
L 708.846395 281.264319 
L 717.592476 281.346207 
L 743.830721 281.415326 
L 749.661442 281.262338 
L 752.576803 281.34183 
L 755.492163 281.145759 
L 758.407524 281.293941 
L 778.815047 281.496043 
L 781.730408 281.381347 
L 790.476489 281.539229 
L 799.222571 281.637135 
L 819.630094 281.564869 
L 825.460815 281.580483 
L 828.376176 281.474721 
L 831.291536 281.608192 
L 840.037618 281.668646 
L 842.952978 281.56121 
L 863.360502 281.598243 
L 895.429467 281.58342 
L 898.344828 281.423791 
L 907.090909 281.604786 
L 912.92163 281.541386 
L 921.667712 281.483557 
L 942.075235 281.708382 
L 947.905956 281.597526 
L 953.736677 281.534843 
L 968.31348 281.615896 
L 977.059561 281.581595 
L 985.805643 281.649221 
L 991.636364 281.626704 
L 997.467085 281.67836 
L 1047.028213 281.641088 
L 1061.605016 281.731978 
L 1067.435737 281.643034 
L 1079.097179 281.755418 
L 1087.84326 281.683947 
L 1093.673981 281.742663 
L 1114.081505 281.729109 
L 1119.912226 281.732134 
L 1122.827586 281.625225 
L 1125.742947 281.714164 
L 1134.489028 281.616926 
L 1143.23511 281.72463 
L 1149.065831 281.54809 
L 1154.896552 281.744722 
L 1189.880878 281.590446 
L 1195.711599 281.539088 
L 1201.54232 281.518385 
L 1224.865204 281.73534 
L 1227.780564 281.704674 
L 1233.611285 281.783219 
L 1245.272727 281.755906 
L 1245.272727 281.755906 
" style="fill:none;stroke:#ff0000;stroke-linecap:square;stroke-width:1.5;"/>
   </g>
   <g id="line2d_16">
    <path clip-path="url(#p8837620688)" d="M 230.727273 1101.088534 
L 233.642633 1330.440296 
L 236.557994 506.265659 
L 239.473354 330.23795 
L 242.388715 312.520304 
L 245.304075 302.665905 
L 248.219436 299.820074 
L 251.134796 294.436741 
L 254.050157 293.219604 
L 256.965517 291.752851 
L 259.880878 291.49073 
L 268.626959 289.202638 
L 271.54232 289.070206 
L 277.373041 288.564162 
L 280.288401 288.329213 
L 283.203762 288.220665 
L 289.034483 287.652665 
L 291.949843 287.716041 
L 294.865204 287.457574 
L 300.695925 287.275921 
L 303.611285 286.947739 
L 306.526646 286.897035 
L 309.442006 287.029613 
L 312.357367 286.775235 
L 318.188088 286.848047 
L 321.103448 286.559129 
L 324.018809 286.552074 
L 329.84953 286.290269 
L 332.76489 286.45649 
L 335.680251 286.278993 
L 341.510972 286.160248 
L 347.341693 286.009836 
L 350.257053 286.135739 
L 356.087774 285.772149 
L 359.003135 285.871495 
L 361.918495 285.82364 
L 364.833856 285.60489 
L 367.749216 285.693936 
L 370.664577 285.984015 
L 373.579937 285.459079 
L 379.410658 285.9018 
L 382.326019 285.564343 
L 385.241379 285.387598 
L 388.15674 285.627559 
L 391.0721 285.392619 
L 396.902821 285.313449 
L 402.733542 285.088575 
L 408.564263 284.95566 
L 411.479624 284.856895 
L 414.394984 285.076148 
L 417.310345 284.901999 
L 420.225705 284.845995 
L 423.141066 284.960027 
L 426.056426 284.761477 
L 428.971787 285.042403 
L 431.887147 284.826947 
L 440.633229 284.677603 
L 443.548589 284.442186 
L 449.37931 284.565869 
L 452.294671 284.491456 
L 458.125392 284.602683 
L 461.040752 284.457424 
L 463.956113 284.557565 
L 466.871473 284.344611 
L 469.786834 284.349822 
L 472.702194 284.484025 
L 475.617555 284.320981 
L 478.532915 284.50747 
L 481.448276 284.475677 
L 484.363636 284.241357 
L 490.194357 284.444362 
L 493.109718 284.279064 
L 501.855799 284.140864 
L 507.68652 284.334926 
L 516.432602 284.129559 
L 519.347962 284.293989 
L 522.263323 284.20789 
L 525.178683 283.944954 
L 528.094044 284.111087 
L 531.009404 283.916723 
L 533.924765 284.1065 
L 539.755486 283.929126 
L 548.501567 283.653162 
L 577.655172 283.814166 
L 598.062696 283.584228 
L 603.893417 283.602794 
L 606.808777 283.501984 
L 612.639498 283.497417 
L 618.470219 283.449074 
L 630.131661 283.381765 
L 635.962382 283.278725 
L 641.793103 283.240341 
L 653.454545 283.275037 
L 656.369906 283.348576 
L 665.115987 283.298023 
L 670.946708 283.20362 
L 676.777429 283.169958 
L 682.60815 283.191046 
L 688.438871 283.06341 
L 691.354232 283.250153 
L 694.269592 282.926348 
L 700.100313 282.969758 
L 705.931034 282.917795 
L 708.846395 283.081629 
L 729.253918 282.882742 
L 735.084639 282.86364 
L 738 282.943698 
L 740.915361 282.825812 
L 746.746082 283.065235 
L 749.661442 283.124786 
L 752.576803 283.005289 
L 755.492163 283.277706 
L 758.407524 283.03353 
L 761.322884 283.075072 
L 767.153605 282.961283 
L 775.899687 282.733345 
L 781.730408 282.933247 
L 787.561129 282.780752 
L 805.053292 282.739157 
L 810.884013 282.823923 
L 816.714734 282.694365 
L 819.630094 282.776839 
L 822.545455 282.686837 
L 828.376176 282.835804 
L 831.291536 282.704773 
L 895.429467 282.730325 
L 901.260188 282.853716 
L 912.92163 282.747817 
L 918.752351 282.866514 
L 942.075235 282.565573 
L 962.482759 282.796385 
L 979.974922 282.68709 
L 991.636364 282.677722 
L 1000.382445 282.613683 
L 1006.213166 282.635546 
L 1009.128527 282.755019 
L 1017.874608 282.581714 
L 1029.53605 282.623153 
L 1119.912226 282.500226 
L 1122.827586 282.680621 
L 1125.742947 282.57623 
L 1151.981191 282.632824 
L 1160.727273 282.539484 
L 1181.134796 282.62589 
L 1186.965517 282.549023 
L 1192.796238 282.774746 
L 1207.373041 282.639459 
L 1216.119122 282.579201 
L 1245.272727 282.532092 
L 1245.272727 282.532092 
" style="fill:none;stroke:#0000ff;stroke-linecap:square;stroke-width:1.5;"/>
   </g>
   <g id="patch_3">
    <path d="M 180 492.564706 
L 180 172.8 
" style="fill:none;stroke:#000000;stroke-linecap:square;stroke-linejoin:miter;stroke-width:0.8;"/>
   </g>
   <g id="patch_4">
    <path d="M 1296 492.564706 
L 1296 172.8 
" style="fill:none;stroke:#000000;stroke-linecap:square;stroke-linejoin:miter;stroke-width:0.8;"/>
   </g>
   <g id="patch_5">
    <path d="M 180 492.564706 
L 1296 492.564706 
" style="fill:none;stroke:#000000;stroke-linecap:square;stroke-linejoin:miter;stroke-width:0.8;"/>
   </g>
   <g id="patch_6">
    <path d="M 180 172.8 
L 1296 172.8 
" style="fill:none;stroke:#000000;stroke-linecap:square;stroke-linejoin:miter;stroke-width:0.8;"/>
   </g>
   <g id="text_15">
    <!-- epoch=10000, lr=0, samples=100 -->
    <defs>
     <path d="M 56.203125 29.59375 
L 56.203125 25.203125 
L 14.890625 25.203125 
Q 15.484375 15.921875 20.484375 11.0625 
Q 25.484375 6.203125 34.421875 6.203125 
Q 39.59375 6.203125 44.453125 7.46875 
Q 49.3125 8.734375 54.109375 11.28125 
L 54.109375 2.78125 
Q 49.265625 0.734375 44.1875 -0.34375 
Q 39.109375 -1.421875 33.890625 -1.421875 
Q 20.796875 -1.421875 13.15625 6.1875 
Q 5.515625 13.8125 5.515625 26.8125 
Q 5.515625 40.234375 12.765625 48.109375 
Q 20.015625 56 32.328125 56 
Q 43.359375 56 49.78125 48.890625 
Q 56.203125 41.796875 56.203125 29.59375 
z
M 47.21875 32.234375 
Q 47.125 39.59375 43.09375 43.984375 
Q 39.0625 48.390625 32.421875 48.390625 
Q 24.90625 48.390625 20.390625 44.140625 
Q 15.875 39.890625 15.1875 32.171875 
z
" id="DejaVuSans-101"/>
     <path d="M 18.109375 8.203125 
L 18.109375 -20.796875 
L 9.078125 -20.796875 
L 9.078125 54.6875 
L 18.109375 54.6875 
L 18.109375 46.390625 
Q 20.953125 51.265625 25.265625 53.625 
Q 29.59375 56 35.59375 56 
Q 45.5625 56 51.78125 48.09375 
Q 58.015625 40.1875 58.015625 27.296875 
Q 58.015625 14.40625 51.78125 6.484375 
Q 45.5625 -1.421875 35.59375 -1.421875 
Q 29.59375 -1.421875 25.265625 0.953125 
Q 20.953125 3.328125 18.109375 8.203125 
z
M 48.6875 27.296875 
Q 48.6875 37.203125 44.609375 42.84375 
Q 40.53125 48.484375 33.40625 48.484375 
Q 26.265625 48.484375 22.1875 42.84375 
Q 18.109375 37.203125 18.109375 27.296875 
Q 18.109375 17.390625 22.1875 11.75 
Q 26.265625 6.109375 33.40625 6.109375 
Q 40.53125 6.109375 44.609375 11.75 
Q 48.6875 17.390625 48.6875 27.296875 
z
" id="DejaVuSans-112"/>
     <path d="M 30.609375 48.390625 
Q 23.390625 48.390625 19.1875 42.75 
Q 14.984375 37.109375 14.984375 27.296875 
Q 14.984375 17.484375 19.15625 11.84375 
Q 23.34375 6.203125 30.609375 6.203125 
Q 37.796875 6.203125 41.984375 11.859375 
Q 46.1875 17.53125 46.1875 27.296875 
Q 46.1875 37.015625 41.984375 42.703125 
Q 37.796875 48.390625 30.609375 48.390625 
z
M 30.609375 56 
Q 42.328125 56 49.015625 48.375 
Q 55.71875 40.765625 55.71875 27.296875 
Q 55.71875 13.875 49.015625 6.21875 
Q 42.328125 -1.421875 30.609375 -1.421875 
Q 18.84375 -1.421875 12.171875 6.21875 
Q 5.515625 13.875 5.515625 27.296875 
Q 5.515625 40.765625 12.171875 48.375 
Q 18.84375 56 30.609375 56 
z
" id="DejaVuSans-111"/>
     <path d="M 48.78125 52.59375 
L 48.78125 44.1875 
Q 44.96875 46.296875 41.140625 47.34375 
Q 37.3125 48.390625 33.40625 48.390625 
Q 24.65625 48.390625 19.8125 42.84375 
Q 14.984375 37.3125 14.984375 27.296875 
Q 14.984375 17.28125 19.8125 11.734375 
Q 24.65625 6.203125 33.40625 6.203125 
Q 37.3125 6.203125 41.140625 7.25 
Q 44.96875 8.296875 48.78125 10.40625 
L 48.78125 2.09375 
Q 45.015625 0.34375 40.984375 -0.53125 
Q 36.96875 -1.421875 32.421875 -1.421875 
Q 20.0625 -1.421875 12.78125 6.34375 
Q 5.515625 14.109375 5.515625 27.296875 
Q 5.515625 40.671875 12.859375 48.328125 
Q 20.21875 56 33.015625 56 
Q 37.15625 56 41.109375 55.140625 
Q 45.0625 54.296875 48.78125 52.59375 
z
" id="DejaVuSans-99"/>
     <path d="M 54.890625 33.015625 
L 54.890625 0 
L 45.90625 0 
L 45.90625 32.71875 
Q 45.90625 40.484375 42.875 44.328125 
Q 39.84375 48.1875 33.796875 48.1875 
Q 26.515625 48.1875 22.3125 43.546875 
Q 18.109375 38.921875 18.109375 30.90625 
L 18.109375 0 
L 9.078125 0 
L 9.078125 75.984375 
L 18.109375 75.984375 
L 18.109375 46.1875 
Q 21.34375 51.125 25.703125 53.5625 
Q 30.078125 56 35.796875 56 
Q 45.21875 56 50.046875 50.171875 
Q 54.890625 44.34375 54.890625 33.015625 
z
" id="DejaVuSans-104"/>
     <path d="M 10.59375 45.40625 
L 73.1875 45.40625 
L 73.1875 37.203125 
L 10.59375 37.203125 
z
M 10.59375 25.484375 
L 73.1875 25.484375 
L 73.1875 17.1875 
L 10.59375 17.1875 
z
" id="DejaVuSans-61"/>
     <path d="M 11.71875 12.40625 
L 22.015625 12.40625 
L 22.015625 4 
L 14.015625 -11.625 
L 7.71875 -11.625 
L 11.71875 4 
z
" id="DejaVuSans-44"/>
     <path id="DejaVuSans-32"/>
     <path d="M 9.421875 75.984375 
L 18.40625 75.984375 
L 18.40625 0 
L 9.421875 0 
z
" id="DejaVuSans-108"/>
     <path d="M 41.109375 46.296875 
Q 39.59375 47.171875 37.8125 47.578125 
Q 36.03125 48 33.890625 48 
Q 26.265625 48 22.1875 43.046875 
Q 18.109375 38.09375 18.109375 28.8125 
L 18.109375 0 
L 9.078125 0 
L 9.078125 54.6875 
L 18.109375 54.6875 
L 18.109375 46.1875 
Q 20.953125 51.171875 25.484375 53.578125 
Q 30.03125 56 36.53125 56 
Q 37.453125 56 38.578125 55.875 
Q 39.703125 55.765625 41.0625 55.515625 
z
" id="DejaVuSans-114"/>
     <path d="M 44.28125 53.078125 
L 44.28125 44.578125 
Q 40.484375 46.53125 36.375 47.5 
Q 32.28125 48.484375 27.875 48.484375 
Q 21.1875 48.484375 17.84375 46.4375 
Q 14.5 44.390625 14.5 40.28125 
Q 14.5 37.15625 16.890625 35.375 
Q 19.28125 33.59375 26.515625 31.984375 
L 29.59375 31.296875 
Q 39.15625 29.25 43.1875 25.515625 
Q 47.21875 21.78125 47.21875 15.09375 
Q 47.21875 7.46875 41.1875 3.015625 
Q 35.15625 -1.421875 24.609375 -1.421875 
Q 20.21875 -1.421875 15.453125 -0.5625 
Q 10.6875 0.296875 5.421875 2 
L 5.421875 11.28125 
Q 10.40625 8.6875 15.234375 7.390625 
Q 20.0625 6.109375 24.8125 6.109375 
Q 31.15625 6.109375 34.5625 8.28125 
Q 37.984375 10.453125 37.984375 14.40625 
Q 37.984375 18.0625 35.515625 20.015625 
Q 33.0625 21.96875 24.703125 23.78125 
L 21.578125 24.515625 
Q 13.234375 26.265625 9.515625 29.90625 
Q 5.8125 33.546875 5.8125 39.890625 
Q 5.8125 47.609375 11.28125 51.796875 
Q 16.75 56 26.8125 56 
Q 31.78125 56 36.171875 55.265625 
Q 40.578125 54.546875 44.28125 53.078125 
z
" id="DejaVuSans-115"/>
     <path d="M 34.28125 27.484375 
Q 23.390625 27.484375 19.1875 25 
Q 14.984375 22.515625 14.984375 16.5 
Q 14.984375 11.71875 18.140625 8.90625 
Q 21.296875 6.109375 26.703125 6.109375 
Q 34.1875 6.109375 38.703125 11.40625 
Q 43.21875 16.703125 43.21875 25.484375 
L 43.21875 27.484375 
z
M 52.203125 31.203125 
L 52.203125 0 
L 43.21875 0 
L 43.21875 8.296875 
Q 40.140625 3.328125 35.546875 0.953125 
Q 30.953125 -1.421875 24.3125 -1.421875 
Q 15.921875 -1.421875 10.953125 3.296875 
Q 6 8.015625 6 15.921875 
Q 6 25.140625 12.171875 29.828125 
Q 18.359375 34.515625 30.609375 34.515625 
L 43.21875 34.515625 
L 43.21875 35.40625 
Q 43.21875 41.609375 39.140625 45 
Q 35.0625 48.390625 27.6875 48.390625 
Q 23 48.390625 18.546875 47.265625 
Q 14.109375 46.140625 10.015625 43.890625 
L 10.015625 52.203125 
Q 14.9375 54.109375 19.578125 55.046875 
Q 24.21875 56 28.609375 56 
Q 40.484375 56 46.34375 49.84375 
Q 52.203125 43.703125 52.203125 31.203125 
z
" id="DejaVuSans-97"/>
     <path d="M 52 44.1875 
Q 55.375 50.25 60.0625 53.125 
Q 64.75 56 71.09375 56 
Q 79.640625 56 84.28125 50.015625 
Q 88.921875 44.046875 88.921875 33.015625 
L 88.921875 0 
L 79.890625 0 
L 79.890625 32.71875 
Q 79.890625 40.578125 77.09375 44.375 
Q 74.3125 48.1875 68.609375 48.1875 
Q 61.625 48.1875 57.5625 43.546875 
Q 53.515625 38.921875 53.515625 30.90625 
L 53.515625 0 
L 44.484375 0 
L 44.484375 32.71875 
Q 44.484375 40.625 41.703125 44.40625 
Q 38.921875 48.1875 33.109375 48.1875 
Q 26.21875 48.1875 22.15625 43.53125 
Q 18.109375 38.875 18.109375 30.90625 
L 18.109375 0 
L 9.078125 0 
L 9.078125 54.6875 
L 18.109375 54.6875 
L 18.109375 46.1875 
Q 21.1875 51.21875 25.484375 53.609375 
Q 29.78125 56 35.6875 56 
Q 41.65625 56 45.828125 52.96875 
Q 50 49.953125 52 44.1875 
z
" id="DejaVuSans-109"/>
    </defs>
    <g transform="translate(616.181406 166.8)scale(0.14 -0.14)">
     <use xlink:href="#DejaVuSans-101"/>
     <use x="61.523438" xlink:href="#DejaVuSans-112"/>
     <use x="125" xlink:href="#DejaVuSans-111"/>
     <use x="186.181641" xlink:href="#DejaVuSans-99"/>
     <use x="241.162109" xlink:href="#DejaVuSans-104"/>
     <use x="304.541016" xlink:href="#DejaVuSans-61"/>
     <use x="388.330078" xlink:href="#DejaVuSans-49"/>
     <use x="451.953125" xlink:href="#DejaVuSans-48"/>
     <use x="515.576172" xlink:href="#DejaVuSans-48"/>
     <use x="579.199219" xlink:href="#DejaVuSans-48"/>
     <use x="642.822266" xlink:href="#DejaVuSans-48"/>
     <use x="706.445312" xlink:href="#DejaVuSans-44"/>
     <use x="738.232422" xlink:href="#DejaVuSans-32"/>
     <use x="770.019531" xlink:href="#DejaVuSans-108"/>
     <use x="797.802734" xlink:href="#DejaVuSans-114"/>
     <use x="838.916016" xlink:href="#DejaVuSans-61"/>
     <use x="922.705078" xlink:href="#DejaVuSans-48"/>
     <use x="986.328125" xlink:href="#DejaVuSans-44"/>
     <use x="1018.115234" xlink:href="#DejaVuSans-32"/>
     <use x="1049.902344" xlink:href="#DejaVuSans-115"/>
     <use x="1102.001953" xlink:href="#DejaVuSans-97"/>
     <use x="1163.28125" xlink:href="#DejaVuSans-109"/>
     <use x="1260.693359" xlink:href="#DejaVuSans-112"/>
     <use x="1324.169922" xlink:href="#DejaVuSans-108"/>
     <use x="1351.953125" xlink:href="#DejaVuSans-101"/>
     <use x="1413.476562" xlink:href="#DejaVuSans-115"/>
     <use x="1465.576172" xlink:href="#DejaVuSans-61"/>
     <use x="1549.365234" xlink:href="#DejaVuSans-49"/>
     <use x="1612.988281" xlink:href="#DejaVuSans-48"/>
     <use x="1676.611328" xlink:href="#DejaVuSans-48"/>
    </g>
   </g>
   <g id="legend_1">
    <g id="patch_7">
     <path d="M 1223.421875 210.15625 
L 1289 210.15625 
Q 1291 210.15625 1291 208.15625 
L 1291 179.8 
Q 1291 177.8 1289 177.8 
L 1223.421875 177.8 
Q 1221.421875 177.8 1221.421875 179.8 
L 1221.421875 208.15625 
Q 1221.421875 210.15625 1223.421875 210.15625 
z
" style="fill:#ffffff;opacity:0.8;stroke:#cccccc;stroke-linejoin:miter;"/>
    </g>
    <g id="line2d_17">
     <path d="M 1225.421875 185.898438 
L 1245.421875 185.898438 
" style="fill:none;stroke:#ff0000;stroke-linecap:square;stroke-width:1.5;"/>
    </g>
    <g id="line2d_18"/>
    <g id="text_16">
     <!-- EUBOs -->
     <defs>
      <path d="M 9.8125 72.90625 
L 55.90625 72.90625 
L 55.90625 64.59375 
L 19.671875 64.59375 
L 19.671875 43.015625 
L 54.390625 43.015625 
L 54.390625 34.71875 
L 19.671875 34.71875 
L 19.671875 8.296875 
L 56.78125 8.296875 
L 56.78125 0 
L 9.8125 0 
z
" id="DejaVuSans-69"/>
      <path d="M 8.6875 72.90625 
L 18.609375 72.90625 
L 18.609375 28.609375 
Q 18.609375 16.890625 22.84375 11.734375 
Q 27.09375 6.59375 36.625 6.59375 
Q 46.09375 6.59375 50.34375 11.734375 
Q 54.59375 16.890625 54.59375 28.609375 
L 54.59375 72.90625 
L 64.5 72.90625 
L 64.5 27.390625 
Q 64.5 13.140625 57.4375 5.859375 
Q 50.390625 -1.421875 36.625 -1.421875 
Q 22.796875 -1.421875 15.734375 5.859375 
Q 8.6875 13.140625 8.6875 27.390625 
z
" id="DejaVuSans-85"/>
      <path d="M 19.671875 34.8125 
L 19.671875 8.109375 
L 35.5 8.109375 
Q 43.453125 8.109375 47.28125 11.40625 
Q 51.125 14.703125 51.125 21.484375 
Q 51.125 28.328125 47.28125 31.5625 
Q 43.453125 34.8125 35.5 34.8125 
z
M 19.671875 64.796875 
L 19.671875 42.828125 
L 34.28125 42.828125 
Q 41.5 42.828125 45.03125 45.53125 
Q 48.578125 48.25 48.578125 53.8125 
Q 48.578125 59.328125 45.03125 62.0625 
Q 41.5 64.796875 34.28125 64.796875 
z
M 9.8125 72.90625 
L 35.015625 72.90625 
Q 46.296875 72.90625 52.390625 68.21875 
Q 58.5 63.53125 58.5 54.890625 
Q 58.5 48.1875 55.375 44.234375 
Q 52.25 40.28125 46.1875 39.3125 
Q 53.46875 37.75 57.5 32.78125 
Q 61.53125 27.828125 61.53125 20.40625 
Q 61.53125 10.640625 54.890625 5.3125 
Q 48.25 0 35.984375 0 
L 9.8125 0 
z
" id="DejaVuSans-66"/>
      <path d="M 39.40625 66.21875 
Q 28.65625 66.21875 22.328125 58.203125 
Q 16.015625 50.203125 16.015625 36.375 
Q 16.015625 22.609375 22.328125 14.59375 
Q 28.65625 6.59375 39.40625 6.59375 
Q 50.140625 6.59375 56.421875 14.59375 
Q 62.703125 22.609375 62.703125 36.375 
Q 62.703125 50.203125 56.421875 58.203125 
Q 50.140625 66.21875 39.40625 66.21875 
z
M 39.40625 74.21875 
Q 54.734375 74.21875 63.90625 63.9375 
Q 73.09375 53.65625 73.09375 36.375 
Q 73.09375 19.140625 63.90625 8.859375 
Q 54.734375 -1.421875 39.40625 -1.421875 
Q 24.03125 -1.421875 14.8125 8.828125 
Q 5.609375 19.09375 5.609375 36.375 
Q 5.609375 53.65625 14.8125 63.9375 
Q 24.03125 74.21875 39.40625 74.21875 
z
" id="DejaVuSans-79"/>
     </defs>
     <g transform="translate(1253.421875 189.398438)scale(0.1 -0.1)">
      <use xlink:href="#DejaVuSans-69"/>
      <use x="63.183594" xlink:href="#DejaVuSans-85"/>
      <use x="136.376953" xlink:href="#DejaVuSans-66"/>
      <use x="204.964844" xlink:href="#DejaVuSans-79"/>
      <use x="283.675781" xlink:href="#DejaVuSans-115"/>
     </g>
    </g>
    <g id="line2d_19">
     <path d="M 1225.421875 200.576562 
L 1245.421875 200.576562 
" style="fill:none;stroke:#0000ff;stroke-linecap:square;stroke-width:1.5;"/>
    </g>
    <g id="line2d_20"/>
    <g id="text_17">
     <!-- ELBOs -->
     <defs>
      <path d="M 9.8125 72.90625 
L 19.671875 72.90625 
L 19.671875 8.296875 
L 55.171875 8.296875 
L 55.171875 0 
L 9.8125 0 
z
" id="DejaVuSans-76"/>
     </defs>
     <g transform="translate(1253.421875 204.076562)scale(0.1 -0.1)">
      <use xlink:href="#DejaVuSans-69"/>
      <use x="63.183594" xlink:href="#DejaVuSans-76"/>
      <use x="118.896484" xlink:href="#DejaVuSans-66"/>
      <use x="187.484375" xlink:href="#DejaVuSans-79"/>
      <use x="266.195312" xlink:href="#DejaVuSans-115"/>
     </g>
    </g>
   </g>
  </g>
  <g id="axes_2">
   <g id="patch_8">
    <path d="M 180 876.282353 
L 1296 876.282353 
L 1296 556.517647 
L 180 556.517647 
z
" style="fill:#ffffff;"/>
   </g>
   <g id="matplotlib.axis_3">
    <g id="xtick_9">
     <g id="line2d_21">
      <g>
       <use style="stroke:#000000;stroke-width:0.8;" x="230.727273" xlink:href="#m4464cf9b10" y="876.282353"/>
      </g>
     </g>
     <g id="text_18">
      <!-- 0 -->
      <g transform="translate(227.546023 890.88079)scale(0.1 -0.1)">
       <use xlink:href="#DejaVuSans-48"/>
      </g>
     </g>
    </g>
    <g id="xtick_10">
     <g id="line2d_22">
      <g>
       <use style="stroke:#000000;stroke-width:0.8;" x="376.495298" xlink:href="#m4464cf9b10" y="876.282353"/>
      </g>
     </g>
     <g id="text_19">
      <!-- 50 -->
      <g transform="translate(370.132798 890.88079)scale(0.1 -0.1)">
       <use xlink:href="#DejaVuSans-53"/>
       <use x="63.623047" xlink:href="#DejaVuSans-48"/>
      </g>
     </g>
    </g>
    <g id="xtick_11">
     <g id="line2d_23">
      <g>
       <use style="stroke:#000000;stroke-width:0.8;" x="522.263323" xlink:href="#m4464cf9b10" y="876.282353"/>
      </g>
     </g>
     <g id="text_20">
      <!-- 100 -->
      <g transform="translate(512.719573 890.88079)scale(0.1 -0.1)">
       <use xlink:href="#DejaVuSans-49"/>
       <use x="63.623047" xlink:href="#DejaVuSans-48"/>
       <use x="127.246094" xlink:href="#DejaVuSans-48"/>
      </g>
     </g>
    </g>
    <g id="xtick_12">
     <g id="line2d_24">
      <g>
       <use style="stroke:#000000;stroke-width:0.8;" x="668.031348" xlink:href="#m4464cf9b10" y="876.282353"/>
      </g>
     </g>
     <g id="text_21">
      <!-- 150 -->
      <g transform="translate(658.487598 890.88079)scale(0.1 -0.1)">
       <use xlink:href="#DejaVuSans-49"/>
       <use x="63.623047" xlink:href="#DejaVuSans-53"/>
       <use x="127.246094" xlink:href="#DejaVuSans-48"/>
      </g>
     </g>
    </g>
    <g id="xtick_13">
     <g id="line2d_25">
      <g>
       <use style="stroke:#000000;stroke-width:0.8;" x="813.799373" xlink:href="#m4464cf9b10" y="876.282353"/>
      </g>
     </g>
     <g id="text_22">
      <!-- 200 -->
      <g transform="translate(804.255623 890.88079)scale(0.1 -0.1)">
       <use xlink:href="#DejaVuSans-50"/>
       <use x="63.623047" xlink:href="#DejaVuSans-48"/>
       <use x="127.246094" xlink:href="#DejaVuSans-48"/>
      </g>
     </g>
    </g>
    <g id="xtick_14">
     <g id="line2d_26">
      <g>
       <use style="stroke:#000000;stroke-width:0.8;" x="959.567398" xlink:href="#m4464cf9b10" y="876.282353"/>
      </g>
     </g>
     <g id="text_23">
      <!-- 250 -->
      <g transform="translate(950.023648 890.88079)scale(0.1 -0.1)">
       <use xlink:href="#DejaVuSans-50"/>
       <use x="63.623047" xlink:href="#DejaVuSans-53"/>
       <use x="127.246094" xlink:href="#DejaVuSans-48"/>
      </g>
     </g>
    </g>
    <g id="xtick_15">
     <g id="line2d_27">
      <g>
       <use style="stroke:#000000;stroke-width:0.8;" x="1105.335423" xlink:href="#m4464cf9b10" y="876.282353"/>
      </g>
     </g>
     <g id="text_24">
      <!-- 300 -->
      <g transform="translate(1095.791673 890.88079)scale(0.1 -0.1)">
       <use xlink:href="#DejaVuSans-51"/>
       <use x="63.623047" xlink:href="#DejaVuSans-48"/>
       <use x="127.246094" xlink:href="#DejaVuSans-48"/>
      </g>
     </g>
    </g>
    <g id="xtick_16">
     <g id="line2d_28">
      <g>
       <use style="stroke:#000000;stroke-width:0.8;" x="1251.103448" xlink:href="#m4464cf9b10" y="876.282353"/>
      </g>
     </g>
     <g id="text_25">
      <!-- 350 -->
      <g transform="translate(1241.559698 890.88079)scale(0.1 -0.1)">
       <use xlink:href="#DejaVuSans-51"/>
       <use x="63.623047" xlink:href="#DejaVuSans-53"/>
       <use x="127.246094" xlink:href="#DejaVuSans-48"/>
      </g>
     </g>
    </g>
   </g>
   <g id="matplotlib.axis_4">
    <g id="ytick_7">
     <g id="line2d_29">
      <g>
       <use style="stroke:#000000;stroke-width:0.8;" x="180" xlink:href="#m9041997f35" y="873.116366"/>
      </g>
     </g>
     <g id="text_26">
      <!-- 0 -->
      <g transform="translate(166.6375 876.915585)scale(0.1 -0.1)">
       <use xlink:href="#DejaVuSans-48"/>
      </g>
     </g>
    </g>
    <g id="ytick_8">
     <g id="line2d_30">
      <g>
       <use style="stroke:#000000;stroke-width:0.8;" x="180" xlink:href="#m9041997f35" y="809.796622"/>
      </g>
     </g>
     <g id="text_27">
      <!-- 10 -->
      <g transform="translate(160.275 813.595841)scale(0.1 -0.1)">
       <use xlink:href="#DejaVuSans-49"/>
       <use x="63.623047" xlink:href="#DejaVuSans-48"/>
      </g>
     </g>
    </g>
    <g id="ytick_9">
     <g id="line2d_31">
      <g>
       <use style="stroke:#000000;stroke-width:0.8;" x="180" xlink:href="#m9041997f35" y="746.476878"/>
      </g>
     </g>
     <g id="text_28">
      <!-- 20 -->
      <g transform="translate(160.275 750.276097)scale(0.1 -0.1)">
       <use xlink:href="#DejaVuSans-50"/>
       <use x="63.623047" xlink:href="#DejaVuSans-48"/>
      </g>
     </g>
    </g>
    <g id="ytick_10">
     <g id="line2d_32">
      <g>
       <use style="stroke:#000000;stroke-width:0.8;" x="180" xlink:href="#m9041997f35" y="683.157135"/>
      </g>
     </g>
     <g id="text_29">
      <!-- 30 -->
      <g transform="translate(160.275 686.956353)scale(0.1 -0.1)">
       <use xlink:href="#DejaVuSans-51"/>
       <use x="63.623047" xlink:href="#DejaVuSans-48"/>
      </g>
     </g>
    </g>
    <g id="ytick_11">
     <g id="line2d_33">
      <g>
       <use style="stroke:#000000;stroke-width:0.8;" x="180" xlink:href="#m9041997f35" y="619.837391"/>
      </g>
     </g>
     <g id="text_30">
      <!-- 40 -->
      <g transform="translate(160.275 623.63661)scale(0.1 -0.1)">
       <use xlink:href="#DejaVuSans-52"/>
       <use x="63.623047" xlink:href="#DejaVuSans-48"/>
      </g>
     </g>
    </g>
    <g id="ytick_12">
     <g id="line2d_34">
      <g>
       <use style="stroke:#000000;stroke-width:0.8;" x="180" xlink:href="#m9041997f35" y="556.517647"/>
      </g>
     </g>
     <g id="text_31">
      <!-- 50 -->
      <g transform="translate(160.275 560.316866)scale(0.1 -0.1)">
       <use xlink:href="#DejaVuSans-53"/>
       <use x="63.623047" xlink:href="#DejaVuSans-48"/>
      </g>
     </g>
    </g>
   </g>
   <g id="line2d_35">
    <path clip-path="url(#p342abcb124)" d="M 230.727273 604.090972 
L 233.642633 528.448293 
L 236.557994 799.163888 
L 239.473354 857.226903 
L 242.388715 863.073554 
L 245.304075 866.334074 
L 248.219436 867.276559 
L 251.134796 869.093402 
L 254.050157 869.452159 
L 256.965517 869.928034 
L 259.880878 870.016655 
L 268.626959 870.757026 
L 289.034483 871.28801 
L 291.949843 871.251943 
L 303.611285 871.50718 
L 367.749216 871.927963 
L 370.664577 871.851888 
L 373.579937 872.015991 
L 379.410658 871.864143 
L 385.241379 872.042014 
L 388.15674 871.966728 
L 399.818182 872.103742 
L 420.225705 872.231723 
L 428.971787 872.16691 
L 443.548589 872.347493 
L 458.125392 872.305835 
L 469.786834 872.383336 
L 481.448276 872.340045 
L 484.363636 872.422049 
L 490.194357 872.346457 
L 496.025078 872.420742 
L 510.601881 872.420637 
L 516.432602 872.453598 
L 522.263323 872.419932 
L 525.178683 872.500201 
L 533.924765 872.463248 
L 557.247649 872.606234 
L 568.909091 872.570463 
L 746.746082 872.807526 
L 758.407524 872.814488 
L 772.984326 872.879595 
L 778.815047 872.881118 
L 784.645768 872.875453 
L 802.137931 872.931795 
L 819.630094 872.901747 
L 831.291536 872.92313 
L 869.191223 872.935763 
L 912.92163 872.907037 
L 921.667712 872.881631 
L 942.075235 872.969813 
L 979.974922 872.932717 
L 1070.351097 872.956616 
L 1093.673981 872.981807 
L 1134.489028 872.942942 
L 1163.642633 872.972669 
L 1207.373041 872.943895 
L 1224.865204 872.975393 
L 1245.272727 872.981976 
L 1245.272727 872.981976 
" style="fill:none;stroke:#000000;stroke-linecap:square;stroke-width:1.5;"/>
   </g>
   <g id="line2d_36">
    <path clip-path="url(#p342abcb124)" d="M 235.789382 -1 
L 236.557994 429.2713 
L 239.473354 777.841035 
L 242.388715 812.925538 
L 245.304075 832.439157 
L 248.219436 838.074467 
L 251.134796 848.734567 
L 254.050157 851.144779 
L 256.965517 854.049171 
L 259.880878 854.568221 
L 268.626959 859.099064 
L 271.54232 859.361345 
L 274.45768 859.936182 
L 280.288401 860.828655 
L 283.203762 861.043596 
L 289.034483 862.168347 
L 291.949843 862.042836 
L 294.865204 862.554681 
L 300.695925 862.914391 
L 303.611285 863.564306 
L 306.526646 863.664669 
L 309.442006 863.402126 
L 312.357367 863.905871 
L 318.188088 863.76163 
L 321.103448 864.333722 
L 324.018809 864.34777 
L 329.84953 864.866166 
L 332.76489 864.537048 
L 335.680251 864.888507 
L 338.595611 864.911392 
L 341.510972 865.123658 
L 347.341693 865.421517 
L 350.257053 865.172168 
L 356.087774 865.892122 
L 359.003135 865.695453 
L 361.918495 865.790189 
L 364.833856 866.22342 
L 367.749216 866.046982 
L 370.664577 865.472621 
L 373.579937 866.512059 
L 376.495298 865.994267 
L 379.410658 865.635418 
L 382.326019 866.303632 
L 385.241379 866.653595 
L 388.15674 866.178446 
L 391.0721 866.643667 
L 393.987461 866.660676 
L 396.902821 866.800439 
L 399.818182 867.098189 
L 411.479624 867.704517 
L 414.394984 867.270435 
L 417.310345 867.61521 
L 420.225705 867.726126 
L 423.141066 867.500369 
L 426.056426 867.893477 
L 428.971787 867.337125 
L 431.887147 867.763839 
L 434.802508 867.803154 
L 437.717868 867.707236 
L 440.633229 868.059538 
L 443.548589 868.525704 
L 446.46395 868.33894 
L 449.37931 868.280857 
L 452.294671 868.428203 
L 455.210031 868.230874 
L 458.125392 868.207927 
L 461.040752 868.49554 
L 463.956113 868.297251 
L 466.871473 868.718944 
L 469.786834 868.708624 
L 472.702194 868.442906 
L 475.617555 868.765704 
L 478.532915 868.396463 
L 481.448276 868.459438 
L 484.363636 868.923438 
L 490.194357 868.52145 
L 493.109718 868.848735 
L 501.855799 869.122405 
L 504.77116 868.865658 
L 507.68652 868.738161 
L 516.432602 869.144779 
L 519.347962 868.819217 
L 522.263323 868.989727 
L 525.178683 869.510336 
L 528.094044 869.181384 
L 531.009404 869.566224 
L 533.924765 869.190452 
L 536.840125 869.302669 
L 542.670846 869.790118 
L 545.586207 869.834126 
L 548.501567 870.088175 
L 560.163009 869.862929 
L 563.07837 870.030064 
L 565.99373 869.624639 
L 571.824451 869.899321 
L 580.570533 869.863094 
L 583.485893 870.140504 
L 586.401254 870.027548 
L 592.231975 870.0948 
L 600.978056 870.190467 
L 603.893417 870.187883 
L 606.808777 870.387537 
L 609.724138 870.324815 
L 618.470219 870.492336 
L 621.38558 870.477335 
L 624.30094 870.656233 
L 630.131661 870.625604 
L 633.047022 870.64622 
L 638.877743 870.94234 
L 659.285266 870.774182 
L 662.200627 870.94567 
L 665.115987 870.791445 
L 668.031348 870.778143 
L 673.862069 871.114802 
L 682.60815 871.003219 
L 688.438871 871.255956 
L 691.354232 870.886164 
L 694.269592 871.527396 
L 697.184953 871.421329 
L 705.931034 871.544341 
L 708.846395 871.219935 
L 711.761755 871.247165 
L 714.677116 871.475067 
L 720.507837 871.389693 
L 723.423197 871.572569 
L 726.338558 871.372233 
L 729.253918 871.613762 
L 732.169279 871.715072 
L 738 871.493056 
L 740.915361 871.726486 
L 743.830721 871.41209 
L 749.661442 871.134447 
L 752.576803 871.371059 
L 755.492163 870.831651 
L 758.407524 871.315156 
L 761.322884 871.232874 
L 764.238245 871.433379 
L 767.153605 871.45826 
L 775.899687 871.909591 
L 781.730408 871.513737 
L 784.645768 871.74114 
L 799.222571 872.022693 
L 805.053292 871.898128 
L 807.968652 871.706765 
L 810.884013 871.73023 
L 813.799373 871.952527 
L 816.714734 871.986767 
L 819.630094 871.823457 
L 822.545455 872.001661 
L 825.460815 871.910235 
L 828.376176 871.706685 
L 831.291536 871.966171 
L 837.122257 872.010209 
L 840.037618 872.101597 
L 842.952978 871.920399 
L 860.445141 872.090835 
L 863.360502 871.919432 
L 872.106583 872.070354 
L 875.021944 871.967079 
L 889.598746 872.062444 
L 895.429467 871.915517 
L 898.344828 871.69791 
L 901.260188 871.671247 
L 910.00627 871.978777 
L 912.92163 871.880954 
L 915.836991 871.669864 
L 918.752351 871.645892 
L 933.329154 872.163455 
L 936.244514 872.075798 
L 942.075235 872.241806 
L 944.990596 872.153416 
L 950.821317 871.766742 
L 953.736677 871.750103 
L 956.652038 871.882243 
L 962.482759 871.784746 
L 968.31348 871.95435 
L 971.22884 871.834602 
L 974.144201 871.954534 
L 979.974922 872.001171 
L 988.721003 871.946872 
L 1000.382445 872.146533 
L 1006.213166 872.103255 
L 1009.128527 871.866621 
L 1017.874608 872.209879 
L 1020.789969 872.138423 
L 1023.705329 871.930355 
L 1026.62069 872.1568 
L 1041.197492 872.10396 
L 1044.112853 872.211839 
L 1049.943574 872.071084 
L 1061.605016 872.184835 
L 1067.435737 872.106681 
L 1079.097179 872.299248 
L 1082.012539 872.15297 
L 1087.84326 872.117759 
L 1090.758621 872.328624 
L 1105.335423 872.298213 
L 1108.250784 872.344874 
L 1111.166144 872.224019 
L 1119.912226 872.371216 
L 1122.827586 872.013954 
L 1125.742947 872.220708 
L 1137.404389 872.166406 
L 1143.23511 872.253345 
L 1149.065831 871.85858 
L 1151.981191 872.108629 
L 1157.811912 872.322642 
L 1181.134796 872.122343 
L 1186.965517 872.274579 
L 1192.796238 871.827652 
L 1195.711599 871.840629 
L 1201.54232 871.719575 
L 1207.373041 872.095478 
L 1210.288401 872.194946 
L 1213.203762 872.129131 
L 1219.034483 872.224403 
L 1224.865204 872.26564 
L 1227.780564 872.163262 
L 1230.695925 872.412516 
L 1245.272727 872.308091 
L 1245.272727 872.308091 
" style="fill:none;stroke:#ffa500;stroke-linecap:square;stroke-width:1.5;"/>
   </g>
   <g id="patch_9">
    <path d="M 180 876.282353 
L 180 556.517647 
" style="fill:none;stroke:#000000;stroke-linecap:square;stroke-linejoin:miter;stroke-width:0.8;"/>
   </g>
   <g id="patch_10">
    <path d="M 1296 876.282353 
L 1296 556.517647 
" style="fill:none;stroke:#000000;stroke-linecap:square;stroke-linejoin:miter;stroke-width:0.8;"/>
   </g>
   <g id="patch_11">
    <path d="M 180 876.282353 
L 1296 876.282353 
" style="fill:none;stroke:#000000;stroke-linecap:square;stroke-linejoin:miter;stroke-width:0.8;"/>
   </g>
   <g id="patch_12">
    <path d="M 180 556.517647 
L 1296 556.517647 
" style="fill:none;stroke:#000000;stroke-linecap:square;stroke-linejoin:miter;stroke-width:0.8;"/>
   </g>
   <g id="legend_2">
    <g id="patch_13">
     <path d="M 1221.170312 593.873897 
L 1289 593.873897 
Q 1291 593.873897 1291 591.873897 
L 1291 563.517647 
Q 1291 561.517647 1289 561.517647 
L 1221.170312 561.517647 
Q 1219.170312 561.517647 1219.170312 563.517647 
L 1219.170312 591.873897 
Q 1219.170312 593.873897 1221.170312 593.873897 
z
" style="fill:#ffffff;opacity:0.8;stroke:#cccccc;stroke-linejoin:miter;"/>
    </g>
    <g id="line2d_37">
     <path d="M 1223.170312 569.616085 
L 1243.170312 569.616085 
" style="fill:none;stroke:#000000;stroke-linecap:square;stroke-width:1.5;"/>
    </g>
    <g id="line2d_38"/>
    <g id="text_32">
     <!-- true KL -->
     <defs>
      <path d="M 18.3125 70.21875 
L 18.3125 54.6875 
L 36.8125 54.6875 
L 36.8125 47.703125 
L 18.3125 47.703125 
L 18.3125 18.015625 
Q 18.3125 11.328125 20.140625 9.421875 
Q 21.96875 7.515625 27.59375 7.515625 
L 36.8125 7.515625 
L 36.8125 0 
L 27.59375 0 
Q 17.1875 0 13.234375 3.875 
Q 9.28125 7.765625 9.28125 18.015625 
L 9.28125 47.703125 
L 2.6875 47.703125 
L 2.6875 54.6875 
L 9.28125 54.6875 
L 9.28125 70.21875 
z
" id="DejaVuSans-116"/>
      <path d="M 8.5 21.578125 
L 8.5 54.6875 
L 17.484375 54.6875 
L 17.484375 21.921875 
Q 17.484375 14.15625 20.5 10.265625 
Q 23.53125 6.390625 29.59375 6.390625 
Q 36.859375 6.390625 41.078125 11.03125 
Q 45.3125 15.671875 45.3125 23.6875 
L 45.3125 54.6875 
L 54.296875 54.6875 
L 54.296875 0 
L 45.3125 0 
L 45.3125 8.40625 
Q 42.046875 3.421875 37.71875 1 
Q 33.40625 -1.421875 27.6875 -1.421875 
Q 18.265625 -1.421875 13.375 4.4375 
Q 8.5 10.296875 8.5 21.578125 
z
M 31.109375 56 
z
" id="DejaVuSans-117"/>
      <path d="M 9.8125 72.90625 
L 19.671875 72.90625 
L 19.671875 42.09375 
L 52.390625 72.90625 
L 65.09375 72.90625 
L 28.90625 38.921875 
L 67.671875 0 
L 54.6875 0 
L 19.671875 35.109375 
L 19.671875 0 
L 9.8125 0 
z
" id="DejaVuSans-75"/>
     </defs>
     <g transform="translate(1251.170312 573.116085)scale(0.1 -0.1)">
      <use xlink:href="#DejaVuSans-116"/>
      <use x="39.208984" xlink:href="#DejaVuSans-114"/>
      <use x="80.322266" xlink:href="#DejaVuSans-117"/>
      <use x="143.701172" xlink:href="#DejaVuSans-101"/>
      <use x="205.224609" xlink:href="#DejaVuSans-32"/>
      <use x="237.011719" xlink:href="#DejaVuSans-75"/>
      <use x="302.587891" xlink:href="#DejaVuSans-76"/>
     </g>
    </g>
    <g id="line2d_39">
     <path d="M 1223.170312 584.29421 
L 1243.170312 584.29421 
" style="fill:none;stroke:#ffa500;stroke-linecap:square;stroke-width:1.5;"/>
    </g>
    <g id="line2d_40"/>
    <g id="text_33">
     <!-- est KL -->
     <g transform="translate(1251.170312 587.79421)scale(0.1 -0.1)">
      <use xlink:href="#DejaVuSans-101"/>
      <use x="61.523438" xlink:href="#DejaVuSans-115"/>
      <use x="113.623047" xlink:href="#DejaVuSans-116"/>
      <use x="152.832031" xlink:href="#DejaVuSans-32"/>
      <use x="184.619141" xlink:href="#DejaVuSans-75"/>
      <use x="250.195312" xlink:href="#DejaVuSans-76"/>
     </g>
    </g>
   </g>
  </g>
  <g id="axes_3">
   <g id="patch_14">
    <path d="M 180 1260 
L 1296 1260 
L 1296 940.235294 
L 180 940.235294 
z
" style="fill:#ffffff;"/>
   </g>
   <g id="matplotlib.axis_5">
    <g id="xtick_17">
     <g id="line2d_41">
      <g>
       <use style="stroke:#000000;stroke-width:0.8;" x="230.727273" xlink:href="#m4464cf9b10" y="1260"/>
      </g>
     </g>
     <g id="text_34">
      <!-- 0 -->
      <g transform="translate(227.546023 1274.598438)scale(0.1 -0.1)">
       <use xlink:href="#DejaVuSans-48"/>
      </g>
     </g>
    </g>
    <g id="xtick_18">
     <g id="line2d_42">
      <g>
       <use style="stroke:#000000;stroke-width:0.8;" x="376.495298" xlink:href="#m4464cf9b10" y="1260"/>
      </g>
     </g>
     <g id="text_35">
      <!-- 50 -->
      <g transform="translate(370.132798 1274.598438)scale(0.1 -0.1)">
       <use xlink:href="#DejaVuSans-53"/>
       <use x="63.623047" xlink:href="#DejaVuSans-48"/>
      </g>
     </g>
    </g>
    <g id="xtick_19">
     <g id="line2d_43">
      <g>
       <use style="stroke:#000000;stroke-width:0.8;" x="522.263323" xlink:href="#m4464cf9b10" y="1260"/>
      </g>
     </g>
     <g id="text_36">
      <!-- 100 -->
      <g transform="translate(512.719573 1274.598438)scale(0.1 -0.1)">
       <use xlink:href="#DejaVuSans-49"/>
       <use x="63.623047" xlink:href="#DejaVuSans-48"/>
       <use x="127.246094" xlink:href="#DejaVuSans-48"/>
      </g>
     </g>
    </g>
    <g id="xtick_20">
     <g id="line2d_44">
      <g>
       <use style="stroke:#000000;stroke-width:0.8;" x="668.031348" xlink:href="#m4464cf9b10" y="1260"/>
      </g>
     </g>
     <g id="text_37">
      <!-- 150 -->
      <g transform="translate(658.487598 1274.598438)scale(0.1 -0.1)">
       <use xlink:href="#DejaVuSans-49"/>
       <use x="63.623047" xlink:href="#DejaVuSans-53"/>
       <use x="127.246094" xlink:href="#DejaVuSans-48"/>
      </g>
     </g>
    </g>
    <g id="xtick_21">
     <g id="line2d_45">
      <g>
       <use style="stroke:#000000;stroke-width:0.8;" x="813.799373" xlink:href="#m4464cf9b10" y="1260"/>
      </g>
     </g>
     <g id="text_38">
      <!-- 200 -->
      <g transform="translate(804.255623 1274.598438)scale(0.1 -0.1)">
       <use xlink:href="#DejaVuSans-50"/>
       <use x="63.623047" xlink:href="#DejaVuSans-48"/>
       <use x="127.246094" xlink:href="#DejaVuSans-48"/>
      </g>
     </g>
    </g>
    <g id="xtick_22">
     <g id="line2d_46">
      <g>
       <use style="stroke:#000000;stroke-width:0.8;" x="959.567398" xlink:href="#m4464cf9b10" y="1260"/>
      </g>
     </g>
     <g id="text_39">
      <!-- 250 -->
      <g transform="translate(950.023648 1274.598438)scale(0.1 -0.1)">
       <use xlink:href="#DejaVuSans-50"/>
       <use x="63.623047" xlink:href="#DejaVuSans-53"/>
       <use x="127.246094" xlink:href="#DejaVuSans-48"/>
      </g>
     </g>
    </g>
    <g id="xtick_23">
     <g id="line2d_47">
      <g>
       <use style="stroke:#000000;stroke-width:0.8;" x="1105.335423" xlink:href="#m4464cf9b10" y="1260"/>
      </g>
     </g>
     <g id="text_40">
      <!-- 300 -->
      <g transform="translate(1095.791673 1274.598438)scale(0.1 -0.1)">
       <use xlink:href="#DejaVuSans-51"/>
       <use x="63.623047" xlink:href="#DejaVuSans-48"/>
       <use x="127.246094" xlink:href="#DejaVuSans-48"/>
      </g>
     </g>
    </g>
    <g id="xtick_24">
     <g id="line2d_48">
      <g>
       <use style="stroke:#000000;stroke-width:0.8;" x="1251.103448" xlink:href="#m4464cf9b10" y="1260"/>
      </g>
     </g>
     <g id="text_41">
      <!-- 350 -->
      <g transform="translate(1241.559698 1274.598438)scale(0.1 -0.1)">
       <use xlink:href="#DejaVuSans-51"/>
       <use x="63.623047" xlink:href="#DejaVuSans-53"/>
       <use x="127.246094" xlink:href="#DejaVuSans-48"/>
      </g>
     </g>
    </g>
   </g>
   <g id="matplotlib.axis_6">
    <g id="ytick_13">
     <g id="line2d_49">
      <g>
       <use style="stroke:#000000;stroke-width:0.8;" x="180" xlink:href="#m9041997f35" y="1249.456727"/>
      </g>
     </g>
     <g id="text_42">
      <!-- 0.0 -->
      <defs>
       <path d="M 10.6875 12.40625 
L 21 12.40625 
L 21 0 
L 10.6875 0 
z
" id="DejaVuSans-46"/>
      </defs>
      <g transform="translate(157.096875 1253.255946)scale(0.1 -0.1)">
       <use xlink:href="#DejaVuSans-48"/>
       <use x="63.623047" xlink:href="#DejaVuSans-46"/>
       <use x="95.410156" xlink:href="#DejaVuSans-48"/>
      </g>
     </g>
    </g>
    <g id="ytick_14">
     <g id="line2d_50">
      <g>
       <use style="stroke:#000000;stroke-width:0.8;" x="180" xlink:href="#m9041997f35" y="1213.920396"/>
      </g>
     </g>
     <g id="text_43">
      <!-- 0.1 -->
      <g transform="translate(157.096875 1217.719614)scale(0.1 -0.1)">
       <use xlink:href="#DejaVuSans-48"/>
       <use x="63.623047" xlink:href="#DejaVuSans-46"/>
       <use x="95.410156" xlink:href="#DejaVuSans-49"/>
      </g>
     </g>
    </g>
    <g id="ytick_15">
     <g id="line2d_51">
      <g>
       <use style="stroke:#000000;stroke-width:0.8;" x="180" xlink:href="#m9041997f35" y="1178.384064"/>
      </g>
     </g>
     <g id="text_44">
      <!-- 0.2 -->
      <g transform="translate(157.096875 1182.183283)scale(0.1 -0.1)">
       <use xlink:href="#DejaVuSans-48"/>
       <use x="63.623047" xlink:href="#DejaVuSans-46"/>
       <use x="95.410156" xlink:href="#DejaVuSans-50"/>
      </g>
     </g>
    </g>
    <g id="ytick_16">
     <g id="line2d_52">
      <g>
       <use style="stroke:#000000;stroke-width:0.8;" x="180" xlink:href="#m9041997f35" y="1142.847732"/>
      </g>
     </g>
     <g id="text_45">
      <!-- 0.3 -->
      <g transform="translate(157.096875 1146.646951)scale(0.1 -0.1)">
       <use xlink:href="#DejaVuSans-48"/>
       <use x="63.623047" xlink:href="#DejaVuSans-46"/>
       <use x="95.410156" xlink:href="#DejaVuSans-51"/>
      </g>
     </g>
    </g>
    <g id="ytick_17">
     <g id="line2d_53">
      <g>
       <use style="stroke:#000000;stroke-width:0.8;" x="180" xlink:href="#m9041997f35" y="1107.3114"/>
      </g>
     </g>
     <g id="text_46">
      <!-- 0.4 -->
      <g transform="translate(157.096875 1111.110619)scale(0.1 -0.1)">
       <use xlink:href="#DejaVuSans-48"/>
       <use x="63.623047" xlink:href="#DejaVuSans-46"/>
       <use x="95.410156" xlink:href="#DejaVuSans-52"/>
      </g>
     </g>
    </g>
    <g id="ytick_18">
     <g id="line2d_54">
      <g>
       <use style="stroke:#000000;stroke-width:0.8;" x="180" xlink:href="#m9041997f35" y="1071.775069"/>
      </g>
     </g>
     <g id="text_47">
      <!-- 0.5 -->
      <g transform="translate(157.096875 1075.574287)scale(0.1 -0.1)">
       <use xlink:href="#DejaVuSans-48"/>
       <use x="63.623047" xlink:href="#DejaVuSans-46"/>
       <use x="95.410156" xlink:href="#DejaVuSans-53"/>
      </g>
     </g>
    </g>
    <g id="ytick_19">
     <g id="line2d_55">
      <g>
       <use style="stroke:#000000;stroke-width:0.8;" x="180" xlink:href="#m9041997f35" y="1036.238737"/>
      </g>
     </g>
     <g id="text_48">
      <!-- 0.6 -->
      <g transform="translate(157.096875 1040.037956)scale(0.1 -0.1)">
       <use xlink:href="#DejaVuSans-48"/>
       <use x="63.623047" xlink:href="#DejaVuSans-46"/>
       <use x="95.410156" xlink:href="#DejaVuSans-54"/>
      </g>
     </g>
    </g>
    <g id="ytick_20">
     <g id="line2d_56">
      <g>
       <use style="stroke:#000000;stroke-width:0.8;" x="180" xlink:href="#m9041997f35" y="1000.702405"/>
      </g>
     </g>
     <g id="text_49">
      <!-- 0.7 -->
      <defs>
       <path d="M 8.203125 72.90625 
L 55.078125 72.90625 
L 55.078125 68.703125 
L 28.609375 0 
L 18.3125 0 
L 43.21875 64.59375 
L 8.203125 64.59375 
z
" id="DejaVuSans-55"/>
      </defs>
      <g transform="translate(157.096875 1004.501624)scale(0.1 -0.1)">
       <use xlink:href="#DejaVuSans-48"/>
       <use x="63.623047" xlink:href="#DejaVuSans-46"/>
       <use x="95.410156" xlink:href="#DejaVuSans-55"/>
      </g>
     </g>
    </g>
    <g id="ytick_21">
     <g id="line2d_57">
      <g>
       <use style="stroke:#000000;stroke-width:0.8;" x="180" xlink:href="#m9041997f35" y="965.166073"/>
      </g>
     </g>
     <g id="text_50">
      <!-- 0.8 -->
      <g transform="translate(157.096875 968.965292)scale(0.1 -0.1)">
       <use xlink:href="#DejaVuSans-48"/>
       <use x="63.623047" xlink:href="#DejaVuSans-46"/>
       <use x="95.410156" xlink:href="#DejaVuSans-56"/>
      </g>
     </g>
    </g>
   </g>
   <g id="line2d_58">
    <path clip-path="url(#p1a3656fe17)" d="M 230.727273 1245.465241 
L 233.642633 1245.210039 
L 236.557994 1242.619151 
L 239.473354 1233.665692 
L 242.388715 1226.688925 
L 245.304075 1218.673883 
L 248.219436 1217.01905 
L 251.134796 1203.896769 
L 256.965517 1194.672313 
L 259.880878 1194.221787 
L 262.796238 1188.065985 
L 265.711599 1182.690815 
L 268.626959 1176.259549 
L 271.54232 1173.610365 
L 274.45768 1172.521495 
L 277.373041 1170.206283 
L 280.288401 1168.65887 
L 283.203762 1165.311231 
L 286.119122 1159.72356 
L 289.034483 1160.087722 
L 291.949843 1159.971887 
L 294.865204 1157.515783 
L 297.780564 1155.748833 
L 300.695925 1150.661756 
L 303.611285 1148.759156 
L 306.526646 1148.497055 
L 309.442006 1147.798243 
L 312.357367 1144.369867 
L 315.272727 1146.139886 
L 321.103448 1141.853417 
L 324.018809 1138.523814 
L 326.934169 1137.258575 
L 329.84953 1134.624129 
L 332.76489 1136.366752 
L 335.680251 1135.36657 
L 338.595611 1133.844215 
L 341.510972 1130.878129 
L 344.426332 1126.880761 
L 347.341693 1130.934088 
L 350.257053 1131.297602 
L 353.172414 1128.702178 
L 356.087774 1121.037124 
L 359.003135 1125.084807 
L 361.918495 1125.942465 
L 364.833856 1116.681267 
L 367.749216 1125.160747 
L 370.664577 1127.741455 
L 373.579937 1116.86548 
L 376.495298 1122.725337 
L 379.410658 1126.602093 
L 382.326019 1121.347522 
L 385.241379 1114.370448 
L 388.15674 1120.449692 
L 391.0721 1116.60753 
L 393.987461 1115.600245 
L 396.902821 1111.013822 
L 399.818182 1110.077474 
L 402.733542 1106.205442 
L 405.648903 1106.506812 
L 408.564263 1099.555958 
L 411.479624 1097.992285 
L 414.394984 1102.313147 
L 420.225705 1097.235823 
L 423.141066 1098.607146 
L 426.056426 1094.125969 
L 428.971787 1100.617775 
L 431.887147 1102.871672 
L 434.802508 1096.753402 
L 437.717868 1099.121067 
L 440.633229 1088.936846 
L 443.548589 1084.08526 
L 446.46395 1084.697904 
L 449.37931 1089.35201 
L 452.294671 1085.32297 
L 455.210031 1088.452326 
L 458.125392 1088.937958 
L 461.040752 1085.69193 
L 463.956113 1088.107095 
L 466.871473 1081.661344 
L 469.786834 1075.557663 
L 472.702194 1085.728802 
L 475.617555 1079.914353 
L 478.532915 1090.575738 
L 481.448276 1083.41277 
L 484.363636 1077.560432 
L 487.278997 1083.200176 
L 490.194357 1084.185315 
L 493.109718 1078.664067 
L 496.025078 1073.683414 
L 498.940439 1079.103504 
L 501.855799 1070.331581 
L 504.77116 1082.264211 
L 507.68652 1080.691496 
L 510.601881 1080.258023 
L 513.517241 1068.764477 
L 516.432602 1074.367961 
L 519.347962 1077.839662 
L 522.263323 1076.246638 
L 525.178683 1067.794003 
L 528.094044 1066.849906 
L 531.009404 1062.77898 
L 533.924765 1067.712734 
L 536.840125 1070.805175 
L 539.755486 1060.720947 
L 542.670846 1052.833623 
L 545.586207 1050.71213 
L 548.501567 1041.987176 
L 551.416928 1049.413939 
L 554.332288 1048.83572 
L 557.247649 1047.424263 
L 560.163009 1048.465152 
L 563.07837 1048.857971 
L 565.99373 1055.549425 
L 568.909091 1051.618698 
L 571.824451 1052.986212 
L 574.739812 1050.69165 
L 577.655172 1061.590995 
L 580.570533 1051.638116 
L 583.485893 1049.02711 
L 586.401254 1046.105673 
L 589.316614 1051.414363 
L 592.231975 1049.355006 
L 595.147335 1047.662687 
L 598.062696 1039.561427 
L 600.978056 1044.688018 
L 603.893417 1040.764937 
L 606.808777 1037.736625 
L 609.724138 1040.007754 
L 612.639498 1039.222051 
L 615.554859 1035.481077 
L 618.470219 1032.278908 
L 621.38558 1036.570049 
L 624.30094 1026.741295 
L 627.216301 1031.434985 
L 630.131661 1031.494632 
L 633.047022 1032.155524 
L 635.962382 1025.161822 
L 638.877743 1021.649578 
L 641.793103 1019.979867 
L 644.708464 1022.898219 
L 647.623824 1020.991671 
L 650.539185 1025.164457 
L 653.454545 1029.728362 
L 656.369906 1031.915509 
L 659.285266 1028.412342 
L 662.200627 1025.09822 
L 665.115987 1029.801074 
L 668.031348 1033.284652 
L 670.946708 1022.499647 
L 673.862069 1022.247657 
L 676.777429 1023.122064 
L 679.69279 1029.923552 
L 682.60815 1025.67014 
L 685.523511 1014.915927 
L 688.438871 1016.698808 
L 691.354232 1029.032216 
L 694.269592 1002.975741 
L 697.184953 1004.91689 
L 700.100313 1002.592447 
L 703.015674 1005.140749 
L 705.931034 1000.537358 
L 708.846395 1022.676759 
L 711.761755 1016.727588 
L 714.677116 1004.965822 
L 717.592476 1015.576829 
L 720.507837 1009.809599 
L 723.423197 1008.132007 
L 726.338558 1008.475989 
L 729.253918 1001.878836 
L 732.169279 991.573121 
L 735.084639 1000.054356 
L 738 1006.577737 
L 740.915361 996.148445 
L 743.830721 1007.320055 
L 746.746082 1015.432268 
L 749.661442 1019.923222 
L 752.576803 1016.012518 
L 755.492163 1034.669607 
L 758.407524 1018.959589 
L 761.322884 1016.623372 
L 764.238245 1012.556295 
L 767.153605 1010.921223 
L 770.068966 999.88676 
L 772.984326 998.286199 
L 775.899687 984.964679 
L 778.815047 996.659909 
L 781.730408 1007.179007 
L 784.645768 994.831975 
L 787.561129 994.022214 
L 790.476489 987.324632 
L 793.39185 983.992326 
L 796.30721 982.169657 
L 799.222571 978.660135 
L 802.137931 980.121151 
L 805.053292 987.269969 
L 807.968652 996.203038 
L 810.884013 995.922114 
L 813.799373 980.092813 
L 816.714734 983.855307 
L 819.630094 986.759893 
L 822.545455 982.581555 
L 825.460815 984.310703 
L 828.376176 1000.58572 
L 831.291536 980.140514 
L 834.206897 981.92759 
L 837.122257 976.120082 
L 840.037618 974.46611 
L 842.952978 985.864658 
L 845.868339 984.981672 
L 848.783699 974.123435 
L 851.69906 974.901828 
L 854.61442 977.140309 
L 857.529781 980.901892 
L 860.445141 977.164059 
L 863.360502 983.385704 
L 866.275862 982.76506 
L 869.191223 976.559742 
L 872.106583 978.859447 
L 875.021944 980.399407 
L 877.937304 982.36693 
L 880.852665 980.906278 
L 883.768025 974.498829 
L 886.683386 973.827561 
L 889.598746 975.324977 
L 892.514107 978.878821 
L 895.429467 985.621815 
L 898.344828 1001.812091 
L 901.260188 996.939104 
L 904.175549 996.533502 
L 907.090909 982.880514 
L 910.00627 982.187394 
L 912.92163 990.469302 
L 915.836991 996.497508 
L 918.752351 1003.095566 
L 921.667712 995.463952 
L 924.583072 992.028723 
L 927.498433 980.565566 
L 930.413793 977.757678 
L 933.329154 971.502771 
L 936.244514 978.592155 
L 939.159875 970.746372 
L 942.075235 966.642684 
L 944.990596 969.898426 
L 947.905956 983.508153 
L 950.821317 994.889686 
L 953.736677 992.931557 
L 956.652038 987.534908 
L 959.567398 990.757796 
L 962.482759 992.584401 
L 965.398119 991.398774 
L 968.31348 981.680512 
L 971.22884 990.121692 
L 974.144201 985.068393 
L 977.059561 984.423603 
L 979.974922 979.321312 
L 982.890282 982.167201 
L 985.805643 977.458594 
L 988.721003 985.582779 
L 991.636364 978.074737 
L 994.551724 971.796558 
L 997.467085 972.447882 
L 1000.382445 972.385969 
L 1003.297806 969.877397 
L 1006.213166 975.274857 
L 1009.128527 986.854433 
L 1012.043887 982.464111 
L 1014.959248 971.001513 
L 1017.874608 967.194013 
L 1020.789969 974.234627 
L 1023.705329 983.414562 
L 1026.62069 971.297858 
L 1029.53605 972.885379 
L 1032.451411 972.031533 
L 1035.366771 972.94791 
L 1038.282132 979.076859 
L 1041.197492 976.0087 
L 1044.112853 967.810276 
L 1047.028213 976.582022 
L 1049.943574 974.010952 
L 1052.858934 973.548524 
L 1055.774295 972.477087 
L 1058.689655 969.103299 
L 1061.605016 965.299134 
L 1064.520376 975.565038 
L 1067.435737 976.255897 
L 1073.266458 966.060175 
L 1076.181818 959.313706 
L 1079.097179 961.518942 
L 1082.012539 968.986403 
L 1084.9279 974.242392 
L 1087.84326 972.393327 
L 1090.758621 961.003623 
L 1093.673981 961.734938 
L 1096.589342 964.941293 
L 1099.504702 964.20835 
L 1102.420063 961.997025 
L 1105.335423 960.684074 
L 1108.250784 958.264187 
L 1111.166144 965.936631 
L 1114.081505 966.426091 
L 1116.996865 962.2069 
L 1119.912226 959.812042 
L 1122.827586 980.016005 
L 1125.742947 967.702424 
L 1128.658307 970.960595 
L 1131.573668 978.829819 
L 1134.489028 979.497682 
L 1137.404389 971.921783 
L 1140.319749 969.800681 
L 1143.23511 964.757261 
L 1146.15047 977.477279 
L 1149.065831 989.390713 
L 1151.981191 974.459131 
L 1154.896552 964.675513 
L 1157.811912 962.37552 
L 1160.727273 960.734047 
L 1163.642633 965.624349 
L 1166.557994 968.63978 
L 1169.473354 963.932745 
L 1172.388715 966.05112 
L 1175.304075 968.694086 
L 1178.219436 974.241606 
L 1181.134796 975.06065 
L 1184.050157 968.599188 
L 1186.965517 964.882747 
L 1189.880878 984.08538 
L 1192.796238 992.262461 
L 1195.711599 990.758913 
L 1198.626959 997.646791 
L 1201.54232 998.11137 
L 1204.45768 987.76991 
L 1207.373041 976.863462 
L 1210.288401 969.909818 
L 1213.203762 971.661345 
L 1216.119122 969.322603 
L 1219.034483 967.790538 
L 1221.949843 964.335869 
L 1224.865204 964.757289 
L 1227.780564 970.918045 
L 1230.695925 954.770053 
L 1233.611285 956.967367 
L 1236.526646 956.923733 
L 1239.442006 961.087448 
L 1242.357367 960.348291 
L 1245.272727 960.526499 
L 1245.272727 960.526499 
" style="fill:none;stroke:#bf00bf;stroke-linecap:square;stroke-width:1.5;"/>
   </g>
   <g id="patch_15">
    <path d="M 180 1260 
L 180 940.235294 
" style="fill:none;stroke:#000000;stroke-linecap:square;stroke-linejoin:miter;stroke-width:0.8;"/>
   </g>
   <g id="patch_16">
    <path d="M 1296 1260 
L 1296 940.235294 
" style="fill:none;stroke:#000000;stroke-linecap:square;stroke-linejoin:miter;stroke-width:0.8;"/>
   </g>
   <g id="patch_17">
    <path d="M 180 1260 
L 1296 1260 
" style="fill:none;stroke:#000000;stroke-linecap:square;stroke-linejoin:miter;stroke-width:0.8;"/>
   </g>
   <g id="patch_18">
    <path d="M 180 940.235294 
L 1296 940.235294 
" style="fill:none;stroke:#000000;stroke-linecap:square;stroke-linejoin:miter;stroke-width:0.8;"/>
   </g>
  </g>
 </g>
 <defs>
  <clipPath id="p8837620688">
   <rect height="319.764706" width="1116" x="180" y="172.8"/>
  </clipPath>
  <clipPath id="p342abcb124">
   <rect height="319.764706" width="1116" x="180" y="556.517647"/>
  </clipPath>
  <clipPath id="p1a3656fe17">
   <rect height="319.764706" width="1116" x="180" y="940.235294"/>
  </clipPath>
 </defs>
</svg>
