<?xml version="1.0" encoding="utf-8" standalone="no"?>
<!DOCTYPE svg PUBLIC "-//W3C//DTD SVG 1.1//EN"
  "http://www.w3.org/Graphics/SVG/1.1/DTD/svg11.dtd">
<!-- Created with matplotlib (https://matplotlib.org/) -->
<svg height="432pt" version="1.1" viewBox="0 0 576 432" width="576pt" xmlns="http://www.w3.org/2000/svg" xmlns:xlink="http://www.w3.org/1999/xlink">
 <defs>
  <style type="text/css">
*{stroke-linecap:butt;stroke-linejoin:round;}
  </style>
 </defs>
 <g id="figure_1">
  <g id="patch_1">
   <path d="M 0 432 
L 576 432 
L 576 0 
L 0 0 
z
" style="fill:#ffffff;"/>
  </g>
  <g id="axes_1">
   <g id="patch_2">
    <path d="M 72 378 
L 518.4 378 
L 518.4 51.84 
L 72 51.84 
z
" style="fill:#ffffff;"/>
   </g>
   <g id="PathCollection_1">
    <defs>
     <path d="M 0 3 
C 0.795609 3 1.55874 2.683901 2.12132 2.12132 
C 2.683901 1.55874 3 0.795609 3 0 
C 3 -0.795609 2.683901 -1.55874 2.12132 -2.12132 
C 1.55874 -2.683901 0.795609 -3 0 -3 
C -0.795609 -3 -1.55874 -2.683901 -2.12132 -2.12132 
C -2.683901 -1.55874 -3 -0.795609 -3 0 
C -3 0.795609 -2.683901 1.55874 -2.12132 2.12132 
C -1.55874 2.683901 -0.795609 3 0 3 
z
" id="m137c6b21aa" style="stroke:#aa3377;"/>
    </defs>
    <g clip-path="url(#p132fe2bda1)">
     <use style="fill:#aa3377;stroke:#aa3377;" x="95.290909" xlink:href="#m137c6b21aa" y="216.350361"/>
     <use style="fill:#aa3377;stroke:#aa3377;" x="139.715152" xlink:href="#m137c6b21aa" y="281.181004"/>
     <use style="fill:#aa3377;stroke:#aa3377;" x="184.139394" xlink:href="#m137c6b21aa" y="316.53709"/>
     <use style="fill:#aa3377;stroke:#aa3377;" x="228.563636" xlink:href="#m137c6b21aa" y="332.71845"/>
     <use style="fill:#aa3377;stroke:#aa3377;" x="272.987879" xlink:href="#m137c6b21aa" y="339.753633"/>
     <use style="fill:#aa3377;stroke:#aa3377;" x="317.412121" xlink:href="#m137c6b21aa" y="343.775415"/>
     <use style="fill:#aa3377;stroke:#aa3377;" x="361.836364" xlink:href="#m137c6b21aa" y="346.334065"/>
     <use style="fill:#aa3377;stroke:#aa3377;" x="406.260606" xlink:href="#m137c6b21aa" y="347.899589"/>
     <use style="fill:#aa3377;stroke:#aa3377;" x="450.684848" xlink:href="#m137c6b21aa" y="348.490204"/>
     <use style="fill:#aa3377;stroke:#aa3377;" x="495.109091" xlink:href="#m137c6b21aa" y="348.869149"/>
    </g>
   </g>
   <g id="PolyCollection_1">
    <defs>
     <path d="M 95.290909 -215.836569 
L 95.290909 -215.462489 
L 139.715152 -148.085164 
L 184.139394 -110.764126 
L 228.563636 -93.874375 
L 272.987879 -87.199156 
L 317.412121 -83.860879 
L 361.836364 -82.501887 
L 406.260606 -82.236727 
L 450.684848 -82.421652 
L 495.109091 -82.102888 
L 495.109091 -84.152157 
L 495.109091 -84.152157 
L 450.684848 -84.590483 
L 406.260606 -85.942327 
L 361.836364 -88.767747 
L 317.412121 -92.470786 
L 272.987879 -97.137037 
L 228.563636 -104.509454 
L 184.139394 -120.02573 
L 139.715152 -153.506242 
L 95.290909 -215.836569 
z
" id="m0142c4993a" style="stroke:#aa3377;stroke-opacity:0.1;"/>
    </defs>
    <g clip-path="url(#p132fe2bda1)">
     <use style="fill:#aa3377;fill-opacity:0.1;stroke:#aa3377;stroke-opacity:0.1;" x="0" xlink:href="#m0142c4993a" y="432"/>
    </g>
   </g>
   <g id="PathCollection_2">
    <defs>
     <path d="M 0 3 
C 0.795609 3 1.55874 2.683901 2.12132 2.12132 
C 2.683901 1.55874 3 0.795609 3 0 
C 3 -0.795609 2.683901 -1.55874 2.12132 -2.12132 
C 1.55874 -2.683901 0.795609 -3 0 -3 
C -0.795609 -3 -1.55874 -2.683901 -2.12132 -2.12132 
C -2.683901 -1.55874 -3 -0.795609 -3 0 
C -3 0.795609 -2.683901 1.55874 -2.12132 2.12132 
C -1.55874 2.683901 -0.795609 3 0 3 
z
" id="mac75970f28" style="stroke:#ee7733;"/>
    </defs>
    <g clip-path="url(#p132fe2bda1)">
     <use style="fill:#ee7733;stroke:#ee7733;" x="95.290909" xlink:href="#mac75970f28" y="141.503676"/>
     <use style="fill:#ee7733;stroke:#ee7733;" x="139.715152" xlink:href="#mac75970f28" y="201.878042"/>
     <use style="fill:#ee7733;stroke:#ee7733;" x="184.139394" xlink:href="#mac75970f28" y="248.585"/>
     <use style="fill:#ee7733;stroke:#ee7733;" x="228.563636" xlink:href="#mac75970f28" y="263.992038"/>
     <use style="fill:#ee7733;stroke:#ee7733;" x="272.987879" xlink:href="#mac75970f28" y="272.410913"/>
     <use style="fill:#ee7733;stroke:#ee7733;" x="317.412121" xlink:href="#mac75970f28" y="278.181865"/>
     <use style="fill:#ee7733;stroke:#ee7733;" x="361.836364" xlink:href="#mac75970f28" y="282.098589"/>
     <use style="fill:#ee7733;stroke:#ee7733;" x="406.260606" xlink:href="#mac75970f28" y="285.466771"/>
     <use style="fill:#ee7733;stroke:#ee7733;" x="450.684848" xlink:href="#mac75970f28" y="287.541267"/>
     <use style="fill:#ee7733;stroke:#ee7733;" x="495.109091" xlink:href="#mac75970f28" y="289.060357"/>
    </g>
   </g>
   <g id="PolyCollection_2">
    <defs>
     <path d="M 95.290909 -290.651455 
L 95.290909 -290.341039 
L 139.715152 -226.544928 
L 184.139394 -178.983496 
L 228.563636 -162.673871 
L 272.987879 -154.776461 
L 317.412121 -149.820389 
L 361.836364 -146.666081 
L 406.260606 -144.278875 
L 450.684848 -142.559391 
L 495.109091 -141.209346 
L 495.109091 -144.65116 
L 495.109091 -144.65116 
L 450.684848 -146.335471 
L 406.260606 -148.75581 
L 361.836364 -153.071697 
L 317.412121 -157.717036 
L 272.987879 -164.259181 
L 228.563636 -173.167516 
L 184.139394 -187.725369 
L 139.715152 -233.619648 
L 95.290909 -290.651455 
z
" id="mda892842da" style="stroke:#ee7733;stroke-opacity:0.1;"/>
    </defs>
    <g clip-path="url(#p132fe2bda1)">
     <use style="fill:#ee7733;fill-opacity:0.1;stroke:#ee7733;stroke-opacity:0.1;" x="0" xlink:href="#mda892842da" y="432"/>
    </g>
   </g>
   <g id="PathCollection_3">
    <defs>
     <path d="M 0 3 
C 0.795609 3 1.55874 2.683901 2.12132 2.12132 
C 2.683901 1.55874 3 0.795609 3 0 
C 3 -0.795609 2.683901 -1.55874 2.12132 -2.12132 
C 1.55874 -2.683901 0.795609 -3 0 -3 
C -0.795609 -3 -1.55874 -2.683901 -2.12132 -2.12132 
C -2.683901 -1.55874 -3 -0.795609 -3 0 
C -3 0.795609 -2.683901 1.55874 -2.12132 2.12132 
C -1.55874 2.683901 -0.795609 3 0 3 
z
" id="m39304596c4" style="stroke:#0077bb;"/>
    </defs>
    <g clip-path="url(#p132fe2bda1)">
     <use style="fill:#0077bb;stroke:#0077bb;" x="95.290909" xlink:href="#m39304596c4" y="67.990235"/>
     <use style="fill:#0077bb;stroke:#0077bb;" x="139.715152" xlink:href="#m39304596c4" y="136.103734"/>
     <use style="fill:#0077bb;stroke:#0077bb;" x="184.139394" xlink:href="#m39304596c4" y="178.306205"/>
     <use style="fill:#0077bb;stroke:#0077bb;" x="228.563636" xlink:href="#m39304596c4" y="195.098131"/>
     <use style="fill:#0077bb;stroke:#0077bb;" x="272.987879" xlink:href="#m39304596c4" y="205.028226"/>
     <use style="fill:#0077bb;stroke:#0077bb;" x="317.412121" xlink:href="#m39304596c4" y="214.292761"/>
     <use style="fill:#0077bb;stroke:#0077bb;" x="361.836364" xlink:href="#m39304596c4" y="222.199241"/>
     <use style="fill:#0077bb;stroke:#0077bb;" x="406.260606" xlink:href="#m39304596c4" y="227.451391"/>
     <use style="fill:#0077bb;stroke:#0077bb;" x="450.684848" xlink:href="#m39304596c4" y="230.577724"/>
     <use style="fill:#0077bb;stroke:#0077bb;" x="495.109091" xlink:href="#m39304596c4" y="232.498051"/>
    </g>
   </g>
   <g id="PolyCollection_3">
    <defs>
     <path d="M 95.290909 -364.151475 
L 95.290909 -363.867928 
L 139.715152 -293.406744 
L 184.139394 -249.935581 
L 228.563636 -232.58373 
L 272.987879 -222.249516 
L 317.412121 -213.252009 
L 361.836364 -205.466508 
L 406.260606 -201.000289 
L 450.684848 -198.291219 
L 495.109091 -196.722829 
L 495.109091 -202.23294 
L 495.109091 -202.23294 
L 450.684848 -204.492375 
L 406.260606 -208.018842 
L 361.836364 -214.019065 
L 317.412121 -222.040051 
L 272.987879 -231.556726 
L 228.563636 -241.104911 
L 184.139394 -257.364526 
L 139.715152 -298.347096 
L 95.290909 -364.151475 
z
" id="m52b8c6363f" style="stroke:#0077bb;stroke-opacity:0.1;"/>
    </defs>
    <g clip-path="url(#p132fe2bda1)">
     <use style="fill:#0077bb;fill-opacity:0.1;stroke:#0077bb;stroke-opacity:0.1;" x="0" xlink:href="#m52b8c6363f" y="432"/>
    </g>
   </g>
   <g id="PathCollection_4">
    <defs>
     <path d="M 0 3 
C 0.795609 3 1.55874 2.683901 2.12132 2.12132 
C 2.683901 1.55874 3 0.795609 3 0 
C 3 -0.795609 2.683901 -1.55874 2.12132 -2.12132 
C 1.55874 -2.683901 0.795609 -3 0 -3 
C -0.795609 -3 -1.55874 -2.683901 -2.12132 -2.12132 
C -2.683901 -1.55874 -3 -0.795609 -3 0 
C -3 0.795609 -2.683901 1.55874 -2.12132 2.12132 
C -1.55874 2.683901 -0.795609 3 0 3 
z
" id="mf08df5e35f" style="stroke:#009988;"/>
    </defs>
    <g clip-path="url(#p132fe2bda1)">
     <use style="fill:#009988;stroke:#009988;" x="95.290909" xlink:href="#mf08df5e35f" y="201.982081"/>
     <use style="fill:#009988;stroke:#009988;" x="139.715152" xlink:href="#mf08df5e35f" y="321.235137"/>
     <use style="fill:#009988;stroke:#009988;" x="184.139394" xlink:href="#mf08df5e35f" y="342.885187"/>
     <use style="fill:#009988;stroke:#009988;" x="228.563636" xlink:href="#mf08df5e35f" y="350.934965"/>
     <use style="fill:#009988;stroke:#009988;" x="272.987879" xlink:href="#mf08df5e35f" y="353.382794"/>
     <use style="fill:#009988;stroke:#009988;" x="317.412121" xlink:href="#mf08df5e35f" y="353.739175"/>
     <use style="fill:#009988;stroke:#009988;" x="361.836364" xlink:href="#mf08df5e35f" y="353.984942"/>
     <use style="fill:#009988;stroke:#009988;" x="406.260606" xlink:href="#mf08df5e35f" y="354.287193"/>
     <use style="fill:#009988;stroke:#009988;" x="450.684848" xlink:href="#mf08df5e35f" y="354.505249"/>
     <use style="fill:#009988;stroke:#009988;" x="495.109091" xlink:href="#mf08df5e35f" y="354.635441"/>
    </g>
   </g>
   <g id="PolyCollection_4">
    <defs>
     <path d="M 95.290909 -230.258097 
L 95.290909 -229.777374 
L 139.715152 -109.174378 
L 184.139394 -87.016738 
L 228.563636 -79.283327 
L 272.987879 -77.332692 
L 317.412121 -77.151626 
L 361.836364 -77.127034 
L 406.260606 -76.798603 
L 450.684848 -76.658063 
L 495.109091 -76.525416 
L 495.109091 -78.19926 
L 495.109091 -78.19926 
L 450.684848 -78.327024 
L 406.260606 -78.621742 
L 361.836364 -78.89811 
L 317.412121 -79.362277 
L 272.987879 -79.891342 
L 228.563636 -82.826837 
L 184.139394 -91.185341 
L 139.715152 -112.339468 
L 95.290909 -230.258097 
z
" id="m680a1abe5d" style="stroke:#009988;stroke-opacity:0.1;"/>
    </defs>
    <g clip-path="url(#p132fe2bda1)">
     <use style="fill:#009988;fill-opacity:0.1;stroke:#009988;stroke-opacity:0.1;" x="0" xlink:href="#m680a1abe5d" y="432"/>
    </g>
   </g>
   <g id="PathCollection_5">
    <defs>
     <path d="M 0 3 
C 0.795609 3 1.55874 2.683901 2.12132 2.12132 
C 2.683901 1.55874 3 0.795609 3 0 
C 3 -0.795609 2.683901 -1.55874 2.12132 -2.12132 
C 1.55874 -2.683901 0.795609 -3 0 -3 
C -0.795609 -3 -1.55874 -2.683901 -2.12132 -2.12132 
C -2.683901 -1.55874 -3 -0.795609 -3 0 
C -3 0.795609 -2.683901 1.55874 -2.12132 2.12132 
C -1.55874 2.683901 -0.795609 3 0 3 
z
" id="md76d7e1847" style="stroke:#555555;"/>
    </defs>
    <g clip-path="url(#p132fe2bda1)">
     <use style="fill:#555555;stroke:#555555;" x="95.290909" xlink:href="#md76d7e1847" y="87.612292"/>
     <use style="fill:#555555;stroke:#555555;" x="139.715152" xlink:href="#md76d7e1847" y="168.849041"/>
     <use style="fill:#555555;stroke:#555555;" x="184.139394" xlink:href="#md76d7e1847" y="260.051332"/>
     <use style="fill:#555555;stroke:#555555;" x="228.563636" xlink:href="#md76d7e1847" y="310.160505"/>
     <use style="fill:#555555;stroke:#555555;" x="272.987879" xlink:href="#md76d7e1847" y="322.821733"/>
     <use style="fill:#555555;stroke:#555555;" x="317.412121" xlink:href="#md76d7e1847" y="325.766943"/>
     <use style="fill:#555555;stroke:#555555;" x="361.836364" xlink:href="#md76d7e1847" y="327.372474"/>
     <use style="fill:#555555;stroke:#555555;" x="406.260606" xlink:href="#md76d7e1847" y="328.508531"/>
     <use style="fill:#555555;stroke:#555555;" x="450.684848" xlink:href="#md76d7e1847" y="329.459787"/>
     <use style="fill:#555555;stroke:#555555;" x="495.109091" xlink:href="#md76d7e1847" y="330.07176"/>
    </g>
   </g>
   <g id="PolyCollection_5">
    <defs>
     <path d="M 95.290909 -344.586787 
L 95.290909 -344.188377 
L 139.715152 -258.618491 
L 184.139394 -164.816844 
L 228.563636 -118.735403 
L 272.987879 -107.64728 
L 317.412121 -104.83872 
L 361.836364 -103.265252 
L 406.260606 -102.240539 
L 450.684848 -101.435092 
L 495.109091 -100.96169 
L 495.109091 -102.888902 
L 495.109091 -102.888902 
L 450.684848 -103.637643 
L 406.260606 -104.732553 
L 361.836364 -105.978133 
L 317.412121 -107.615173 
L 272.987879 -110.694533 
L 228.563636 -124.883665 
L 184.139394 -178.771867 
L 139.715152 -267.55679 
L 95.290909 -344.586787 
z
" id="ma98757af73" style="stroke:#555555;stroke-opacity:0.1;"/>
    </defs>
    <g clip-path="url(#p132fe2bda1)">
     <use style="fill:#555555;fill-opacity:0.1;stroke:#555555;stroke-opacity:0.1;" x="0" xlink:href="#ma98757af73" y="432"/>
    </g>
   </g>
   <g id="PathCollection_6">
    <defs>
     <path d="M 0 3 
C 0.795609 3 1.55874 2.683901 2.12132 2.12132 
C 2.683901 1.55874 3 0.795609 3 0 
C 3 -0.795609 2.683901 -1.55874 2.12132 -2.12132 
C 1.55874 -2.683901 0.795609 -3 0 -3 
C -0.795609 -3 -1.55874 -2.683901 -2.12132 -2.12132 
C -2.683901 -1.55874 -3 -0.795609 -3 0 
C -3 0.795609 -2.683901 1.55874 -2.12132 2.12132 
C -1.55874 2.683901 -0.795609 3 0 3 
z
" id="mc1c39ce4f0" style="stroke:#999933;"/>
    </defs>
    <g clip-path="url(#p132fe2bda1)">
     <use style="fill:#999933;stroke:#999933;" x="95.290909" xlink:href="#mc1c39ce4f0" y="94.606752"/>
     <use style="fill:#999933;stroke:#999933;" x="139.715152" xlink:href="#mc1c39ce4f0" y="115.088633"/>
     <use style="fill:#999933;stroke:#999933;" x="184.139394" xlink:href="#mc1c39ce4f0" y="133.852702"/>
     <use style="fill:#999933;stroke:#999933;" x="228.563636" xlink:href="#mc1c39ce4f0" y="154.363521"/>
     <use style="fill:#999933;stroke:#999933;" x="272.987879" xlink:href="#mc1c39ce4f0" y="177.518959"/>
     <use style="fill:#999933;stroke:#999933;" x="317.412121" xlink:href="#mc1c39ce4f0" y="196.396636"/>
     <use style="fill:#999933;stroke:#999933;" x="361.836364" xlink:href="#mc1c39ce4f0" y="214.670012"/>
     <use style="fill:#999933;stroke:#999933;" x="406.260606" xlink:href="#mc1c39ce4f0" y="231.6477"/>
     <use style="fill:#999933;stroke:#999933;" x="450.684848" xlink:href="#mc1c39ce4f0" y="245.589242"/>
     <use style="fill:#999933;stroke:#999933;" x="495.109091" xlink:href="#mc1c39ce4f0" y="255.376149"/>
    </g>
   </g>
   <g id="PolyCollection_6">
    <defs>
     <path d="M 95.290909 -339.710834 
L 95.290909 -335.041094 
L 139.715152 -309.679993 
L 184.139394 -286.552264 
L 228.563636 -263.439429 
L 272.987879 -237.998489 
L 317.412121 -217.80215 
L 361.836364 -199.599587 
L 406.260606 -182.671971 
L 450.684848 -170.760463 
L 495.109091 -162.73733 
L 495.109091 -189.385909 
L 495.109091 -189.385909 
L 450.684848 -200.647149 
L 406.260606 -216.248723 
L 361.836364 -233.266869 
L 317.412121 -251.597422 
L 272.987879 -269.402702 
L 228.563636 -290.66031 
L 184.139394 -308.947868 
L 139.715152 -323.825629 
L 95.290909 -339.710834 
z
" id="m7b87a4a691" style="stroke:#999933;stroke-opacity:0.1;"/>
    </defs>
    <g clip-path="url(#p132fe2bda1)">
     <use style="fill:#999933;fill-opacity:0.1;stroke:#999933;stroke-opacity:0.1;" x="0" xlink:href="#m7b87a4a691" y="432"/>
    </g>
   </g>
   <g id="matplotlib.axis_1">
    <g id="xtick_1">
     <g id="line2d_1">
      <path clip-path="url(#p132fe2bda1)" d="M 95.290909 378 
L 95.290909 51.84 
" style="fill:none;stroke:#b0b0b0;stroke-linecap:square;stroke-opacity:0.4;stroke-width:0.8;"/>
     </g>
     <g id="line2d_2">
      <defs>
       <path d="M 0 0 
L 0 3.5 
" id="md62be16e20" style="stroke:#000000;stroke-width:0.8;"/>
      </defs>
      <g>
       <use style="stroke:#000000;stroke-width:0.8;" x="95.290909" xlink:href="#md62be16e20" y="378"/>
      </g>
     </g>
     <g id="text_1">
      <!-- 1 -->
      <defs>
       <path d="M 12.40625 8.296875 
L 28.515625 8.296875 
L 28.515625 63.921875 
L 10.984375 60.40625 
L 10.984375 69.390625 
L 28.421875 72.90625 
L 38.28125 72.90625 
L 38.28125 8.296875 
L 54.390625 8.296875 
L 54.390625 0 
L 12.40625 0 
z
" id="DejaVuSans-49"/>
      </defs>
      <g transform="translate(91.473409 394.118125)scale(0.12 -0.12)">
       <use xlink:href="#DejaVuSans-49"/>
      </g>
     </g>
    </g>
    <g id="xtick_2">
     <g id="line2d_3">
      <path clip-path="url(#p132fe2bda1)" d="M 139.715152 378 
L 139.715152 51.84 
" style="fill:none;stroke:#b0b0b0;stroke-linecap:square;stroke-opacity:0.4;stroke-width:0.8;"/>
     </g>
     <g id="line2d_4">
      <g>
       <use style="stroke:#000000;stroke-width:0.8;" x="139.715152" xlink:href="#md62be16e20" y="378"/>
      </g>
     </g>
     <g id="text_2">
      <!-- 2 -->
      <defs>
       <path d="M 19.1875 8.296875 
L 53.609375 8.296875 
L 53.609375 0 
L 7.328125 0 
L 7.328125 8.296875 
Q 12.9375 14.109375 22.625 23.890625 
Q 32.328125 33.6875 34.8125 36.53125 
Q 39.546875 41.84375 41.421875 45.53125 
Q 43.3125 49.21875 43.3125 52.78125 
Q 43.3125 58.59375 39.234375 62.25 
Q 35.15625 65.921875 28.609375 65.921875 
Q 23.96875 65.921875 18.8125 64.3125 
Q 13.671875 62.703125 7.8125 59.421875 
L 7.8125 69.390625 
Q 13.765625 71.78125 18.9375 73 
Q 24.125 74.21875 28.421875 74.21875 
Q 39.75 74.21875 46.484375 68.546875 
Q 53.21875 62.890625 53.21875 53.421875 
Q 53.21875 48.921875 51.53125 44.890625 
Q 49.859375 40.875 45.40625 35.40625 
Q 44.1875 33.984375 37.640625 27.21875 
Q 31.109375 20.453125 19.1875 8.296875 
z
" id="DejaVuSans-50"/>
      </defs>
      <g transform="translate(135.897652 394.118125)scale(0.12 -0.12)">
       <use xlink:href="#DejaVuSans-50"/>
      </g>
     </g>
    </g>
    <g id="xtick_3">
     <g id="line2d_5">
      <path clip-path="url(#p132fe2bda1)" d="M 184.139394 378 
L 184.139394 51.84 
" style="fill:none;stroke:#b0b0b0;stroke-linecap:square;stroke-opacity:0.4;stroke-width:0.8;"/>
     </g>
     <g id="line2d_6">
      <g>
       <use style="stroke:#000000;stroke-width:0.8;" x="184.139394" xlink:href="#md62be16e20" y="378"/>
      </g>
     </g>
     <g id="text_3">
      <!-- 3 -->
      <defs>
       <path d="M 40.578125 39.3125 
Q 47.65625 37.796875 51.625 33 
Q 55.609375 28.21875 55.609375 21.1875 
Q 55.609375 10.40625 48.1875 4.484375 
Q 40.765625 -1.421875 27.09375 -1.421875 
Q 22.515625 -1.421875 17.65625 -0.515625 
Q 12.796875 0.390625 7.625 2.203125 
L 7.625 11.71875 
Q 11.71875 9.328125 16.59375 8.109375 
Q 21.484375 6.890625 26.8125 6.890625 
Q 36.078125 6.890625 40.9375 10.546875 
Q 45.796875 14.203125 45.796875 21.1875 
Q 45.796875 27.640625 41.28125 31.265625 
Q 36.765625 34.90625 28.71875 34.90625 
L 20.21875 34.90625 
L 20.21875 43.015625 
L 29.109375 43.015625 
Q 36.375 43.015625 40.234375 45.921875 
Q 44.09375 48.828125 44.09375 54.296875 
Q 44.09375 59.90625 40.109375 62.90625 
Q 36.140625 65.921875 28.71875 65.921875 
Q 24.65625 65.921875 20.015625 65.03125 
Q 15.375 64.15625 9.8125 62.3125 
L 9.8125 71.09375 
Q 15.4375 72.65625 20.34375 73.4375 
Q 25.25 74.21875 29.59375 74.21875 
Q 40.828125 74.21875 47.359375 69.109375 
Q 53.90625 64.015625 53.90625 55.328125 
Q 53.90625 49.265625 50.4375 45.09375 
Q 46.96875 40.921875 40.578125 39.3125 
z
" id="DejaVuSans-51"/>
      </defs>
      <g transform="translate(180.321894 394.118125)scale(0.12 -0.12)">
       <use xlink:href="#DejaVuSans-51"/>
      </g>
     </g>
    </g>
    <g id="xtick_4">
     <g id="line2d_7">
      <path clip-path="url(#p132fe2bda1)" d="M 228.563636 378 
L 228.563636 51.84 
" style="fill:none;stroke:#b0b0b0;stroke-linecap:square;stroke-opacity:0.4;stroke-width:0.8;"/>
     </g>
     <g id="line2d_8">
      <g>
       <use style="stroke:#000000;stroke-width:0.8;" x="228.563636" xlink:href="#md62be16e20" y="378"/>
      </g>
     </g>
     <g id="text_4">
      <!-- 4 -->
      <defs>
       <path d="M 37.796875 64.3125 
L 12.890625 25.390625 
L 37.796875 25.390625 
z
M 35.203125 72.90625 
L 47.609375 72.90625 
L 47.609375 25.390625 
L 58.015625 25.390625 
L 58.015625 17.1875 
L 47.609375 17.1875 
L 47.609375 0 
L 37.796875 0 
L 37.796875 17.1875 
L 4.890625 17.1875 
L 4.890625 26.703125 
z
" id="DejaVuSans-52"/>
      </defs>
      <g transform="translate(224.746136 394.118125)scale(0.12 -0.12)">
       <use xlink:href="#DejaVuSans-52"/>
      </g>
     </g>
    </g>
    <g id="xtick_5">
     <g id="line2d_9">
      <path clip-path="url(#p132fe2bda1)" d="M 272.987879 378 
L 272.987879 51.84 
" style="fill:none;stroke:#b0b0b0;stroke-linecap:square;stroke-opacity:0.4;stroke-width:0.8;"/>
     </g>
     <g id="line2d_10">
      <g>
       <use style="stroke:#000000;stroke-width:0.8;" x="272.987879" xlink:href="#md62be16e20" y="378"/>
      </g>
     </g>
     <g id="text_5">
      <!-- 5 -->
      <defs>
       <path d="M 10.796875 72.90625 
L 49.515625 72.90625 
L 49.515625 64.59375 
L 19.828125 64.59375 
L 19.828125 46.734375 
Q 21.96875 47.46875 24.109375 47.828125 
Q 26.265625 48.1875 28.421875 48.1875 
Q 40.625 48.1875 47.75 41.5 
Q 54.890625 34.8125 54.890625 23.390625 
Q 54.890625 11.625 47.5625 5.09375 
Q 40.234375 -1.421875 26.90625 -1.421875 
Q 22.3125 -1.421875 17.546875 -0.640625 
Q 12.796875 0.140625 7.71875 1.703125 
L 7.71875 11.625 
Q 12.109375 9.234375 16.796875 8.0625 
Q 21.484375 6.890625 26.703125 6.890625 
Q 35.15625 6.890625 40.078125 11.328125 
Q 45.015625 15.765625 45.015625 23.390625 
Q 45.015625 31 40.078125 35.4375 
Q 35.15625 39.890625 26.703125 39.890625 
Q 22.75 39.890625 18.8125 39.015625 
Q 14.890625 38.140625 10.796875 36.28125 
z
" id="DejaVuSans-53"/>
      </defs>
      <g transform="translate(269.170379 394.118125)scale(0.12 -0.12)">
       <use xlink:href="#DejaVuSans-53"/>
      </g>
     </g>
    </g>
    <g id="xtick_6">
     <g id="line2d_11">
      <path clip-path="url(#p132fe2bda1)" d="M 317.412121 378 
L 317.412121 51.84 
" style="fill:none;stroke:#b0b0b0;stroke-linecap:square;stroke-opacity:0.4;stroke-width:0.8;"/>
     </g>
     <g id="line2d_12">
      <g>
       <use style="stroke:#000000;stroke-width:0.8;" x="317.412121" xlink:href="#md62be16e20" y="378"/>
      </g>
     </g>
     <g id="text_6">
      <!-- 6 -->
      <defs>
       <path d="M 33.015625 40.375 
Q 26.375 40.375 22.484375 35.828125 
Q 18.609375 31.296875 18.609375 23.390625 
Q 18.609375 15.53125 22.484375 10.953125 
Q 26.375 6.390625 33.015625 6.390625 
Q 39.65625 6.390625 43.53125 10.953125 
Q 47.40625 15.53125 47.40625 23.390625 
Q 47.40625 31.296875 43.53125 35.828125 
Q 39.65625 40.375 33.015625 40.375 
z
M 52.59375 71.296875 
L 52.59375 62.3125 
Q 48.875 64.0625 45.09375 64.984375 
Q 41.3125 65.921875 37.59375 65.921875 
Q 27.828125 65.921875 22.671875 59.328125 
Q 17.53125 52.734375 16.796875 39.40625 
Q 19.671875 43.65625 24.015625 45.921875 
Q 28.375 48.1875 33.59375 48.1875 
Q 44.578125 48.1875 50.953125 41.515625 
Q 57.328125 34.859375 57.328125 23.390625 
Q 57.328125 12.15625 50.6875 5.359375 
Q 44.046875 -1.421875 33.015625 -1.421875 
Q 20.359375 -1.421875 13.671875 8.265625 
Q 6.984375 17.96875 6.984375 36.375 
Q 6.984375 53.65625 15.1875 63.9375 
Q 23.390625 74.21875 37.203125 74.21875 
Q 40.921875 74.21875 44.703125 73.484375 
Q 48.484375 72.75 52.59375 71.296875 
z
" id="DejaVuSans-54"/>
      </defs>
      <g transform="translate(313.594621 394.118125)scale(0.12 -0.12)">
       <use xlink:href="#DejaVuSans-54"/>
      </g>
     </g>
    </g>
    <g id="xtick_7">
     <g id="line2d_13">
      <path clip-path="url(#p132fe2bda1)" d="M 361.836364 378 
L 361.836364 51.84 
" style="fill:none;stroke:#b0b0b0;stroke-linecap:square;stroke-opacity:0.4;stroke-width:0.8;"/>
     </g>
     <g id="line2d_14">
      <g>
       <use style="stroke:#000000;stroke-width:0.8;" x="361.836364" xlink:href="#md62be16e20" y="378"/>
      </g>
     </g>
     <g id="text_7">
      <!-- 7 -->
      <defs>
       <path d="M 8.203125 72.90625 
L 55.078125 72.90625 
L 55.078125 68.703125 
L 28.609375 0 
L 18.3125 0 
L 43.21875 64.59375 
L 8.203125 64.59375 
z
" id="DejaVuSans-55"/>
      </defs>
      <g transform="translate(358.018864 394.118125)scale(0.12 -0.12)">
       <use xlink:href="#DejaVuSans-55"/>
      </g>
     </g>
    </g>
    <g id="xtick_8">
     <g id="line2d_15">
      <path clip-path="url(#p132fe2bda1)" d="M 406.260606 378 
L 406.260606 51.84 
" style="fill:none;stroke:#b0b0b0;stroke-linecap:square;stroke-opacity:0.4;stroke-width:0.8;"/>
     </g>
     <g id="line2d_16">
      <g>
       <use style="stroke:#000000;stroke-width:0.8;" x="406.260606" xlink:href="#md62be16e20" y="378"/>
      </g>
     </g>
     <g id="text_8">
      <!-- 8 -->
      <defs>
       <path d="M 31.78125 34.625 
Q 24.75 34.625 20.71875 30.859375 
Q 16.703125 27.09375 16.703125 20.515625 
Q 16.703125 13.921875 20.71875 10.15625 
Q 24.75 6.390625 31.78125 6.390625 
Q 38.8125 6.390625 42.859375 10.171875 
Q 46.921875 13.96875 46.921875 20.515625 
Q 46.921875 27.09375 42.890625 30.859375 
Q 38.875 34.625 31.78125 34.625 
z
M 21.921875 38.8125 
Q 15.578125 40.375 12.03125 44.71875 
Q 8.5 49.078125 8.5 55.328125 
Q 8.5 64.0625 14.71875 69.140625 
Q 20.953125 74.21875 31.78125 74.21875 
Q 42.671875 74.21875 48.875 69.140625 
Q 55.078125 64.0625 55.078125 55.328125 
Q 55.078125 49.078125 51.53125 44.71875 
Q 48 40.375 41.703125 38.8125 
Q 48.828125 37.15625 52.796875 32.3125 
Q 56.78125 27.484375 56.78125 20.515625 
Q 56.78125 9.90625 50.3125 4.234375 
Q 43.84375 -1.421875 31.78125 -1.421875 
Q 19.734375 -1.421875 13.25 4.234375 
Q 6.78125 9.90625 6.78125 20.515625 
Q 6.78125 27.484375 10.78125 32.3125 
Q 14.796875 37.15625 21.921875 38.8125 
z
M 18.3125 54.390625 
Q 18.3125 48.734375 21.84375 45.5625 
Q 25.390625 42.390625 31.78125 42.390625 
Q 38.140625 42.390625 41.71875 45.5625 
Q 45.3125 48.734375 45.3125 54.390625 
Q 45.3125 60.0625 41.71875 63.234375 
Q 38.140625 66.40625 31.78125 66.40625 
Q 25.390625 66.40625 21.84375 63.234375 
Q 18.3125 60.0625 18.3125 54.390625 
z
" id="DejaVuSans-56"/>
      </defs>
      <g transform="translate(402.443106 394.118125)scale(0.12 -0.12)">
       <use xlink:href="#DejaVuSans-56"/>
      </g>
     </g>
    </g>
    <g id="xtick_9">
     <g id="line2d_17">
      <path clip-path="url(#p132fe2bda1)" d="M 450.684848 378 
L 450.684848 51.84 
" style="fill:none;stroke:#b0b0b0;stroke-linecap:square;stroke-opacity:0.4;stroke-width:0.8;"/>
     </g>
     <g id="line2d_18">
      <g>
       <use style="stroke:#000000;stroke-width:0.8;" x="450.684848" xlink:href="#md62be16e20" y="378"/>
      </g>
     </g>
     <g id="text_9">
      <!-- 9 -->
      <defs>
       <path d="M 10.984375 1.515625 
L 10.984375 10.5 
Q 14.703125 8.734375 18.5 7.8125 
Q 22.3125 6.890625 25.984375 6.890625 
Q 35.75 6.890625 40.890625 13.453125 
Q 46.046875 20.015625 46.78125 33.40625 
Q 43.953125 29.203125 39.59375 26.953125 
Q 35.25 24.703125 29.984375 24.703125 
Q 19.046875 24.703125 12.671875 31.3125 
Q 6.296875 37.9375 6.296875 49.421875 
Q 6.296875 60.640625 12.9375 67.421875 
Q 19.578125 74.21875 30.609375 74.21875 
Q 43.265625 74.21875 49.921875 64.515625 
Q 56.59375 54.828125 56.59375 36.375 
Q 56.59375 19.140625 48.40625 8.859375 
Q 40.234375 -1.421875 26.421875 -1.421875 
Q 22.703125 -1.421875 18.890625 -0.6875 
Q 15.09375 0.046875 10.984375 1.515625 
z
M 30.609375 32.421875 
Q 37.25 32.421875 41.125 36.953125 
Q 45.015625 41.5 45.015625 49.421875 
Q 45.015625 57.28125 41.125 61.84375 
Q 37.25 66.40625 30.609375 66.40625 
Q 23.96875 66.40625 20.09375 61.84375 
Q 16.21875 57.28125 16.21875 49.421875 
Q 16.21875 41.5 20.09375 36.953125 
Q 23.96875 32.421875 30.609375 32.421875 
z
" id="DejaVuSans-57"/>
      </defs>
      <g transform="translate(446.867348 394.118125)scale(0.12 -0.12)">
       <use xlink:href="#DejaVuSans-57"/>
      </g>
     </g>
    </g>
    <g id="xtick_10">
     <g id="line2d_19">
      <path clip-path="url(#p132fe2bda1)" d="M 495.109091 378 
L 495.109091 51.84 
" style="fill:none;stroke:#b0b0b0;stroke-linecap:square;stroke-opacity:0.4;stroke-width:0.8;"/>
     </g>
     <g id="line2d_20">
      <g>
       <use style="stroke:#000000;stroke-width:0.8;" x="495.109091" xlink:href="#md62be16e20" y="378"/>
      </g>
     </g>
     <g id="text_10">
      <!-- 10 -->
      <defs>
       <path d="M 31.78125 66.40625 
Q 24.171875 66.40625 20.328125 58.90625 
Q 16.5 51.421875 16.5 36.375 
Q 16.5 21.390625 20.328125 13.890625 
Q 24.171875 6.390625 31.78125 6.390625 
Q 39.453125 6.390625 43.28125 13.890625 
Q 47.125 21.390625 47.125 36.375 
Q 47.125 51.421875 43.28125 58.90625 
Q 39.453125 66.40625 31.78125 66.40625 
z
M 31.78125 74.21875 
Q 44.046875 74.21875 50.515625 64.515625 
Q 56.984375 54.828125 56.984375 36.375 
Q 56.984375 17.96875 50.515625 8.265625 
Q 44.046875 -1.421875 31.78125 -1.421875 
Q 19.53125 -1.421875 13.0625 8.265625 
Q 6.59375 17.96875 6.59375 36.375 
Q 6.59375 54.828125 13.0625 64.515625 
Q 19.53125 74.21875 31.78125 74.21875 
z
" id="DejaVuSans-48"/>
      </defs>
      <g transform="translate(487.474091 394.118125)scale(0.12 -0.12)">
       <use xlink:href="#DejaVuSans-49"/>
       <use x="63.623047" xlink:href="#DejaVuSans-48"/>
      </g>
     </g>
    </g>
   </g>
   <g id="matplotlib.axis_2">
    <g id="ytick_1">
     <g id="line2d_21">
      <path clip-path="url(#p132fe2bda1)" d="M 72 250.156165 
L 518.4 250.156165 
" style="fill:none;stroke:#b0b0b0;stroke-linecap:square;stroke-opacity:0.4;stroke-width:0.8;"/>
     </g>
     <g id="line2d_22">
      <defs>
       <path d="M 0 0 
L -3.5 0 
" id="m0b65bac89e" style="stroke:#000000;stroke-width:0.8;"/>
      </defs>
      <g>
       <use style="stroke:#000000;stroke-width:0.8;" x="72" xlink:href="#m0b65bac89e" y="250.156165"/>
      </g>
     </g>
     <g id="text_11">
      <!-- $\mathdefault{10^{-2}}$ -->
      <defs>
       <path d="M 10.59375 35.5 
L 73.1875 35.5 
L 73.1875 27.203125 
L 10.59375 27.203125 
z
" id="DejaVuSans-8722"/>
      </defs>
      <g transform="translate(36.8 254.715227)scale(0.12 -0.12)">
       <use transform="translate(0 0.765625)" xlink:href="#DejaVuSans-49"/>
       <use transform="translate(63.623047 0.765625)" xlink:href="#DejaVuSans-48"/>
       <use transform="translate(128.203125 39.046875)scale(0.7)" xlink:href="#DejaVuSans-8722"/>
       <use transform="translate(186.855469 39.046875)scale(0.7)" xlink:href="#DejaVuSans-50"/>
      </g>
     </g>
    </g>
    <g id="ytick_2">
     <g id="line2d_23">
      <defs>
       <path d="M 0 0 
L -2 0 
" id="m689022bc30" style="stroke:#000000;stroke-width:0.6;"/>
      </defs>
      <g>
       <use style="stroke:#000000;stroke-width:0.6;" x="72" xlink:href="#m689022bc30" y="359.464256"/>
      </g>
     </g>
    </g>
    <g id="ytick_3">
     <g id="line2d_24">
      <g>
       <use style="stroke:#000000;stroke-width:0.6;" x="72" xlink:href="#m689022bc30" y="330.712467"/>
      </g>
     </g>
     <g id="text_12">
      <!-- $\mathdefault{6\times10^{-3}}$ -->
      <defs>
       <path d="M 70.125 53.71875 
L 47.796875 31.296875 
L 70.125 8.984375 
L 64.3125 3.078125 
L 41.890625 25.484375 
L 19.484375 3.078125 
L 13.71875 8.984375 
L 35.984375 31.296875 
L 13.71875 53.71875 
L 19.484375 59.625 
L 41.890625 37.203125 
L 64.3125 59.625 
z
" id="DejaVuSans-215"/>
      </defs>
      <g transform="translate(24.5 334.511686)scale(0.1 -0.1)">
       <use transform="translate(0 0.765625)" xlink:href="#DejaVuSans-54"/>
       <use transform="translate(83.105469 0.765625)" xlink:href="#DejaVuSans-215"/>
       <use transform="translate(186.376953 0.765625)" xlink:href="#DejaVuSans-49"/>
       <use transform="translate(250 0.765625)" xlink:href="#DejaVuSans-48"/>
       <use transform="translate(314.580078 39.046875)scale(0.7)" xlink:href="#DejaVuSans-8722"/>
       <use transform="translate(373.232422 39.046875)scale(0.7)" xlink:href="#DejaVuSans-51"/>
      </g>
     </g>
    </g>
    <g id="ytick_4">
     <g id="line2d_25">
      <g>
       <use style="stroke:#000000;stroke-width:0.6;" x="72" xlink:href="#m689022bc30" y="306.403176"/>
      </g>
     </g>
    </g>
    <g id="ytick_5">
     <g id="line2d_26">
      <g>
       <use style="stroke:#000000;stroke-width:0.6;" x="72" xlink:href="#m689022bc30" y="285.34551"/>
      </g>
     </g>
    </g>
    <g id="ytick_6">
     <g id="line2d_27">
      <g>
       <use style="stroke:#000000;stroke-width:0.6;" x="72" xlink:href="#m689022bc30" y="266.771333"/>
      </g>
     </g>
    </g>
    <g id="ytick_7">
     <g id="line2d_28">
      <g>
       <use style="stroke:#000000;stroke-width:0.6;" x="72" xlink:href="#m689022bc30" y="140.848074"/>
      </g>
     </g>
     <g id="text_13">
      <!-- $\mathdefault{2\times10^{-2}}$ -->
      <g transform="translate(24.5 144.647293)scale(0.1 -0.1)">
       <use transform="translate(0 0.765625)" xlink:href="#DejaVuSans-50"/>
       <use transform="translate(83.105469 0.765625)" xlink:href="#DejaVuSans-215"/>
       <use transform="translate(186.376953 0.765625)" xlink:href="#DejaVuSans-49"/>
       <use transform="translate(250 0.765625)" xlink:href="#DejaVuSans-48"/>
       <use transform="translate(314.580078 39.046875)scale(0.7)" xlink:href="#DejaVuSans-8722"/>
       <use transform="translate(373.232422 39.046875)scale(0.7)" xlink:href="#DejaVuSans-50"/>
      </g>
     </g>
    </g>
    <g id="ytick_8">
     <g id="line2d_29">
      <g>
       <use style="stroke:#000000;stroke-width:0.6;" x="72" xlink:href="#m689022bc30" y="76.90694"/>
      </g>
     </g>
     <g id="text_14">
      <!-- $\mathdefault{3\times10^{-2}}$ -->
      <g transform="translate(24.5 80.706159)scale(0.1 -0.1)">
       <use transform="translate(0 0.765625)" xlink:href="#DejaVuSans-51"/>
       <use transform="translate(83.105469 0.765625)" xlink:href="#DejaVuSans-215"/>
       <use transform="translate(186.376953 0.765625)" xlink:href="#DejaVuSans-49"/>
       <use transform="translate(250 0.765625)" xlink:href="#DejaVuSans-48"/>
       <use transform="translate(314.580078 39.046875)scale(0.7)" xlink:href="#DejaVuSans-8722"/>
       <use transform="translate(373.232422 39.046875)scale(0.7)" xlink:href="#DejaVuSans-50"/>
      </g>
     </g>
    </g>
   </g>
   <g id="line2d_30">
    <path clip-path="url(#p132fe2bda1)" d="M 95.290909 216.350361 
L 139.715152 281.181004 
L 184.139394 316.53709 
L 228.563636 332.71845 
L 272.987879 339.753633 
L 317.412121 343.775415 
L 361.836364 346.334065 
L 406.260606 347.899589 
L 450.684848 348.490204 
L 495.109091 348.869149 
" style="fill:none;stroke:#aa3377;stroke-linecap:square;stroke-width:1.5;"/>
   </g>
   <g id="line2d_31">
    <path clip-path="url(#p132fe2bda1)" d="M 95.290909 141.503676 
L 139.715152 201.878042 
L 184.139394 248.585 
L 228.563636 263.992038 
L 272.987879 272.410913 
L 317.412121 278.181865 
L 361.836364 282.098589 
L 406.260606 285.466771 
L 450.684848 287.541267 
L 495.109091 289.060357 
" style="fill:none;stroke:#ee7733;stroke-linecap:square;stroke-width:1.5;"/>
   </g>
   <g id="line2d_32">
    <path clip-path="url(#p132fe2bda1)" d="M 95.290909 67.990235 
L 139.715152 136.103734 
L 184.139394 178.306205 
L 228.563636 195.098131 
L 272.987879 205.028226 
L 317.412121 214.292761 
L 361.836364 222.199241 
L 406.260606 227.451391 
L 450.684848 230.577724 
L 495.109091 232.498051 
" style="fill:none;stroke:#0077bb;stroke-linecap:square;stroke-width:1.5;"/>
   </g>
   <g id="line2d_33">
    <path clip-path="url(#p132fe2bda1)" d="M 95.290909 201.982081 
L 139.715152 321.235137 
L 184.139394 342.885187 
L 228.563636 350.934965 
L 272.987879 353.382794 
L 317.412121 353.739175 
L 361.836364 353.984942 
L 406.260606 354.287193 
L 450.684848 354.505249 
L 495.109091 354.635441 
" style="fill:none;stroke:#009988;stroke-linecap:square;stroke-width:1.5;"/>
   </g>
   <g id="line2d_34">
    <path clip-path="url(#p132fe2bda1)" d="M 95.290909 87.612292 
L 139.715152 168.849041 
L 184.139394 260.051332 
L 228.563636 310.160505 
L 272.987879 322.821733 
L 317.412121 325.766943 
L 361.836364 327.372474 
L 406.260606 328.508531 
L 450.684848 329.459787 
L 495.109091 330.07176 
" style="fill:none;stroke:#555555;stroke-linecap:square;stroke-width:1.5;"/>
   </g>
   <g id="line2d_35">
    <path clip-path="url(#p132fe2bda1)" d="M 95.290909 94.606752 
L 139.715152 115.088633 
L 184.139394 133.852702 
L 228.563636 154.363521 
L 272.987879 177.518959 
L 317.412121 196.396636 
L 361.836364 214.670012 
L 406.260606 231.6477 
L 450.684848 245.589242 
L 495.109091 255.376149 
" style="fill:none;stroke:#999933;stroke-linecap:square;stroke-width:1.5;"/>
   </g>
   <g id="patch_3">
    <path d="M 72 378 
L 72 51.84 
" style="fill:none;stroke:#000000;stroke-linecap:square;stroke-linejoin:miter;stroke-width:0.8;"/>
   </g>
   <g id="patch_4">
    <path d="M 518.4 378 
L 518.4 51.84 
" style="fill:none;stroke:#000000;stroke-linecap:square;stroke-linejoin:miter;stroke-width:0.8;"/>
   </g>
   <g id="patch_5">
    <path d="M 72 378 
L 518.4 378 
" style="fill:none;stroke:#000000;stroke-linecap:square;stroke-linejoin:miter;stroke-width:0.8;"/>
   </g>
   <g id="patch_6">
    <path d="M 72 51.84 
L 518.4 51.84 
" style="fill:none;stroke:#000000;stroke-linecap:square;stroke-linejoin:miter;stroke-width:0.8;"/>
   </g>
   <g id="legend_1">
    <g id="patch_7">
     <path d="M 396.751875 167.1225 
L 510 167.1225 
Q 512.4 167.1225 512.4 164.7225 
L 512.4 60.24 
Q 512.4 57.84 510 57.84 
L 396.751875 57.84 
Q 394.351875 57.84 394.351875 60.24 
L 394.351875 164.7225 
Q 394.351875 167.1225 396.751875 167.1225 
z
" style="fill:#ffffff;opacity:0.8;stroke:#cccccc;stroke-linejoin:miter;"/>
    </g>
    <g id="line2d_36">
     <path d="M 399.151875 67.558125 
L 423.151875 67.558125 
" style="fill:none;stroke:#aa3377;stroke-linecap:square;stroke-width:1.5;"/>
    </g>
    <g id="line2d_37"/>
    <g id="text_15">
     <!-- T=20, D=3 -->
     <defs>
      <path d="M -0.296875 72.90625 
L 61.375 72.90625 
L 61.375 64.59375 
L 35.5 64.59375 
L 35.5 0 
L 25.59375 0 
L 25.59375 64.59375 
L -0.296875 64.59375 
z
" id="DejaVuSans-84"/>
      <path d="M 10.59375 45.40625 
L 73.1875 45.40625 
L 73.1875 37.203125 
L 10.59375 37.203125 
z
M 10.59375 25.484375 
L 73.1875 25.484375 
L 73.1875 17.1875 
L 10.59375 17.1875 
z
" id="DejaVuSans-61"/>
      <path d="M 11.71875 12.40625 
L 22.015625 12.40625 
L 22.015625 4 
L 14.015625 -11.625 
L 7.71875 -11.625 
L 11.71875 4 
z
" id="DejaVuSans-44"/>
      <path id="DejaVuSans-32"/>
      <path d="M 19.671875 64.796875 
L 19.671875 8.109375 
L 31.59375 8.109375 
Q 46.6875 8.109375 53.6875 14.9375 
Q 60.6875 21.78125 60.6875 36.53125 
Q 60.6875 51.171875 53.6875 57.984375 
Q 46.6875 64.796875 31.59375 64.796875 
z
M 9.8125 72.90625 
L 30.078125 72.90625 
Q 51.265625 72.90625 61.171875 64.09375 
Q 71.09375 55.28125 71.09375 36.53125 
Q 71.09375 17.671875 61.125 8.828125 
Q 51.171875 0 30.078125 0 
L 9.8125 0 
z
" id="DejaVuSans-68"/>
     </defs>
     <g transform="translate(432.751875 71.758125)scale(0.12 -0.12)">
      <use xlink:href="#DejaVuSans-84"/>
      <use x="61.083984" xlink:href="#DejaVuSans-61"/>
      <use x="144.873047" xlink:href="#DejaVuSans-50"/>
      <use x="208.496094" xlink:href="#DejaVuSans-48"/>
      <use x="272.119141" xlink:href="#DejaVuSans-44"/>
      <use x="303.90625" xlink:href="#DejaVuSans-32"/>
      <use x="335.693359" xlink:href="#DejaVuSans-68"/>
      <use x="412.695312" xlink:href="#DejaVuSans-61"/>
      <use x="496.484375" xlink:href="#DejaVuSans-51"/>
     </g>
    </g>
    <g id="line2d_38">
     <path d="M 399.151875 85.171875 
L 423.151875 85.171875 
" style="fill:none;stroke:#ee7733;stroke-linecap:square;stroke-width:1.5;"/>
    </g>
    <g id="line2d_39"/>
    <g id="text_16">
     <!-- T=20, D=4 -->
     <g transform="translate(432.751875 89.371875)scale(0.12 -0.12)">
      <use xlink:href="#DejaVuSans-84"/>
      <use x="61.083984" xlink:href="#DejaVuSans-61"/>
      <use x="144.873047" xlink:href="#DejaVuSans-50"/>
      <use x="208.496094" xlink:href="#DejaVuSans-48"/>
      <use x="272.119141" xlink:href="#DejaVuSans-44"/>
      <use x="303.90625" xlink:href="#DejaVuSans-32"/>
      <use x="335.693359" xlink:href="#DejaVuSans-68"/>
      <use x="412.695312" xlink:href="#DejaVuSans-61"/>
      <use x="496.484375" xlink:href="#DejaVuSans-52"/>
     </g>
    </g>
    <g id="line2d_40">
     <path d="M 399.151875 102.785625 
L 423.151875 102.785625 
" style="fill:none;stroke:#0077bb;stroke-linecap:square;stroke-width:1.5;"/>
    </g>
    <g id="line2d_41"/>
    <g id="text_17">
     <!-- T=20, D=5 -->
     <g transform="translate(432.751875 106.985625)scale(0.12 -0.12)">
      <use xlink:href="#DejaVuSans-84"/>
      <use x="61.083984" xlink:href="#DejaVuSans-61"/>
      <use x="144.873047" xlink:href="#DejaVuSans-50"/>
      <use x="208.496094" xlink:href="#DejaVuSans-48"/>
      <use x="272.119141" xlink:href="#DejaVuSans-44"/>
      <use x="303.90625" xlink:href="#DejaVuSans-32"/>
      <use x="335.693359" xlink:href="#DejaVuSans-68"/>
      <use x="412.695312" xlink:href="#DejaVuSans-61"/>
      <use x="496.484375" xlink:href="#DejaVuSans-53"/>
     </g>
    </g>
    <g id="line2d_42">
     <path d="M 399.151875 120.399375 
L 423.151875 120.399375 
" style="fill:none;stroke:#009988;stroke-linecap:square;stroke-width:1.5;"/>
    </g>
    <g id="line2d_43"/>
    <g id="text_18">
     <!-- T=100, D=3 -->
     <g transform="translate(432.751875 124.599375)scale(0.12 -0.12)">
      <use xlink:href="#DejaVuSans-84"/>
      <use x="61.083984" xlink:href="#DejaVuSans-61"/>
      <use x="144.873047" xlink:href="#DejaVuSans-49"/>
      <use x="208.496094" xlink:href="#DejaVuSans-48"/>
      <use x="272.119141" xlink:href="#DejaVuSans-48"/>
      <use x="335.742188" xlink:href="#DejaVuSans-44"/>
      <use x="367.529297" xlink:href="#DejaVuSans-32"/>
      <use x="399.316406" xlink:href="#DejaVuSans-68"/>
      <use x="476.318359" xlink:href="#DejaVuSans-61"/>
      <use x="560.107422" xlink:href="#DejaVuSans-51"/>
     </g>
    </g>
    <g id="line2d_44">
     <path d="M 399.151875 138.013125 
L 423.151875 138.013125 
" style="fill:none;stroke:#555555;stroke-linecap:square;stroke-width:1.5;"/>
    </g>
    <g id="line2d_45"/>
    <g id="text_19">
     <!-- T=100, D=4 -->
     <g transform="translate(432.751875 142.213125)scale(0.12 -0.12)">
      <use xlink:href="#DejaVuSans-84"/>
      <use x="61.083984" xlink:href="#DejaVuSans-61"/>
      <use x="144.873047" xlink:href="#DejaVuSans-49"/>
      <use x="208.496094" xlink:href="#DejaVuSans-48"/>
      <use x="272.119141" xlink:href="#DejaVuSans-48"/>
      <use x="335.742188" xlink:href="#DejaVuSans-44"/>
      <use x="367.529297" xlink:href="#DejaVuSans-32"/>
      <use x="399.316406" xlink:href="#DejaVuSans-68"/>
      <use x="476.318359" xlink:href="#DejaVuSans-61"/>
      <use x="560.107422" xlink:href="#DejaVuSans-52"/>
     </g>
    </g>
    <g id="line2d_46">
     <path d="M 399.151875 155.626875 
L 423.151875 155.626875 
" style="fill:none;stroke:#999933;stroke-linecap:square;stroke-width:1.5;"/>
    </g>
    <g id="line2d_47"/>
    <g id="text_20">
     <!-- T=100, D=5 -->
     <g transform="translate(432.751875 159.826875)scale(0.12 -0.12)">
      <use xlink:href="#DejaVuSans-84"/>
      <use x="61.083984" xlink:href="#DejaVuSans-61"/>
      <use x="144.873047" xlink:href="#DejaVuSans-49"/>
      <use x="208.496094" xlink:href="#DejaVuSans-48"/>
      <use x="272.119141" xlink:href="#DejaVuSans-48"/>
      <use x="335.742188" xlink:href="#DejaVuSans-44"/>
      <use x="367.529297" xlink:href="#DejaVuSans-32"/>
      <use x="399.316406" xlink:href="#DejaVuSans-68"/>
      <use x="476.318359" xlink:href="#DejaVuSans-61"/>
      <use x="560.107422" xlink:href="#DejaVuSans-53"/>
     </g>
    </g>
   </g>
  </g>
 </g>
 <defs>
  <clipPath id="p132fe2bda1">
   <rect height="326.16" width="446.4" x="72" y="51.84"/>
  </clipPath>
 </defs>
</svg>
