<?xml version="1.0" encoding="utf-8" standalone="no"?>
<!DOCTYPE svg PUBLIC "-//W3C//DTD SVG 1.1//EN"
  "http://www.w3.org/Graphics/SVG/1.1/DTD/svg11.dtd">
<!-- Created with matplotlib (https://matplotlib.org/) -->
<svg height="720pt" version="1.1" viewBox="0 0 2160 720" width="2160pt" xmlns="http://www.w3.org/2000/svg" xmlns:xlink="http://www.w3.org/1999/xlink">
 <defs>
  <style type="text/css">
*{stroke-linecap:butt;stroke-linejoin:round;}
  </style>
 </defs>
 <g id="figure_1">
  <g id="patch_1">
   <path d="M 0 720 
L 2160 720 
L 2160 0 
L 0 0 
z
" style="fill:#ffffff;"/>
  </g>
  <g id="axes_1">
   <g id="patch_2">
    <path d="M 270 630 
L 762.352941 630 
L 762.352941 86.4 
L 270 86.4 
z
" style="fill:#eeeeee;"/>
   </g>
   <g id="matplotlib.axis_1">
    <g id="xtick_1">
     <g id="line2d_1">
      <path clip-path="url(#p87cf867c93)" d="M 292.379679 630 
L 292.379679 86.4 
" style="fill:none;stroke:#ffffff;stroke-linecap:square;stroke-width:3;"/>
     </g>
     <g id="line2d_2">
      <defs>
       <path d="M 0 0 
L 0 -3.5 
" id="m98c3dda426" style="stroke:#000000;stroke-width:0.8;"/>
      </defs>
      <g>
       <use style="stroke:#000000;stroke-width:0.8;" x="292.379679" xlink:href="#m98c3dda426" y="630"/>
      </g>
     </g>
     <g id="text_1">
      <!-- 0 -->
      <defs>
       <path d="M 31.78125 66.40625 
Q 24.171875 66.40625 20.328125 58.90625 
Q 16.5 51.421875 16.5 36.375 
Q 16.5 21.390625 20.328125 13.890625 
Q 24.171875 6.390625 31.78125 6.390625 
Q 39.453125 6.390625 43.28125 13.890625 
Q 47.125 21.390625 47.125 36.375 
Q 47.125 51.421875 43.28125 58.90625 
Q 39.453125 66.40625 31.78125 66.40625 
z
M 31.78125 74.21875 
Q 44.046875 74.21875 50.515625 64.515625 
Q 56.984375 54.828125 56.984375 36.375 
Q 56.984375 17.96875 50.515625 8.265625 
Q 44.046875 -1.421875 31.78125 -1.421875 
Q 19.53125 -1.421875 13.0625 8.265625 
Q 6.59375 17.96875 6.59375 36.375 
Q 6.59375 54.828125 13.0625 64.515625 
Q 19.53125 74.21875 31.78125 74.21875 
z
" id="DejaVuSans-48"/>
      </defs>
      <g transform="translate(287.925929 644.137812)scale(0.14 -0.14)">
       <use xlink:href="#DejaVuSans-48"/>
      </g>
     </g>
    </g>
    <g id="xtick_2">
     <g id="line2d_3">
      <path clip-path="url(#p87cf867c93)" d="M 382.257909 630 
L 382.257909 86.4 
" style="fill:none;stroke:#ffffff;stroke-linecap:square;stroke-width:3;"/>
     </g>
     <g id="line2d_4">
      <g>
       <use style="stroke:#000000;stroke-width:0.8;" x="382.257909" xlink:href="#m98c3dda426" y="630"/>
      </g>
     </g>
     <g id="text_2">
      <!-- 50 -->
      <defs>
       <path d="M 10.796875 72.90625 
L 49.515625 72.90625 
L 49.515625 64.59375 
L 19.828125 64.59375 
L 19.828125 46.734375 
Q 21.96875 47.46875 24.109375 47.828125 
Q 26.265625 48.1875 28.421875 48.1875 
Q 40.625 48.1875 47.75 41.5 
Q 54.890625 34.8125 54.890625 23.390625 
Q 54.890625 11.625 47.5625 5.09375 
Q 40.234375 -1.421875 26.90625 -1.421875 
Q 22.3125 -1.421875 17.546875 -0.640625 
Q 12.796875 0.140625 7.71875 1.703125 
L 7.71875 11.625 
Q 12.109375 9.234375 16.796875 8.0625 
Q 21.484375 6.890625 26.703125 6.890625 
Q 35.15625 6.890625 40.078125 11.328125 
Q 45.015625 15.765625 45.015625 23.390625 
Q 45.015625 31 40.078125 35.4375 
Q 35.15625 39.890625 26.703125 39.890625 
Q 22.75 39.890625 18.8125 39.015625 
Q 14.890625 38.140625 10.796875 36.28125 
z
" id="DejaVuSans-53"/>
      </defs>
      <g transform="translate(373.350409 644.137812)scale(0.14 -0.14)">
       <use xlink:href="#DejaVuSans-53"/>
       <use x="63.623047" xlink:href="#DejaVuSans-48"/>
      </g>
     </g>
    </g>
    <g id="xtick_3">
     <g id="line2d_5">
      <path clip-path="url(#p87cf867c93)" d="M 472.136138 630 
L 472.136138 86.4 
" style="fill:none;stroke:#ffffff;stroke-linecap:square;stroke-width:3;"/>
     </g>
     <g id="line2d_6">
      <g>
       <use style="stroke:#000000;stroke-width:0.8;" x="472.136138" xlink:href="#m98c3dda426" y="630"/>
      </g>
     </g>
     <g id="text_3">
      <!-- 100 -->
      <defs>
       <path d="M 12.40625 8.296875 
L 28.515625 8.296875 
L 28.515625 63.921875 
L 10.984375 60.40625 
L 10.984375 69.390625 
L 28.421875 72.90625 
L 38.28125 72.90625 
L 38.28125 8.296875 
L 54.390625 8.296875 
L 54.390625 0 
L 12.40625 0 
z
" id="DejaVuSans-49"/>
      </defs>
      <g transform="translate(458.774888 644.137812)scale(0.14 -0.14)">
       <use xlink:href="#DejaVuSans-49"/>
       <use x="63.623047" xlink:href="#DejaVuSans-48"/>
       <use x="127.246094" xlink:href="#DejaVuSans-48"/>
      </g>
     </g>
    </g>
    <g id="xtick_4">
     <g id="line2d_7">
      <path clip-path="url(#p87cf867c93)" d="M 562.014368 630 
L 562.014368 86.4 
" style="fill:none;stroke:#ffffff;stroke-linecap:square;stroke-width:3;"/>
     </g>
     <g id="line2d_8">
      <g>
       <use style="stroke:#000000;stroke-width:0.8;" x="562.014368" xlink:href="#m98c3dda426" y="630"/>
      </g>
     </g>
     <g id="text_4">
      <!-- 150 -->
      <g transform="translate(548.653118 644.137812)scale(0.14 -0.14)">
       <use xlink:href="#DejaVuSans-49"/>
       <use x="63.623047" xlink:href="#DejaVuSans-53"/>
       <use x="127.246094" xlink:href="#DejaVuSans-48"/>
      </g>
     </g>
    </g>
    <g id="xtick_5">
     <g id="line2d_9">
      <path clip-path="url(#p87cf867c93)" d="M 651.892597 630 
L 651.892597 86.4 
" style="fill:none;stroke:#ffffff;stroke-linecap:square;stroke-width:3;"/>
     </g>
     <g id="line2d_10">
      <g>
       <use style="stroke:#000000;stroke-width:0.8;" x="651.892597" xlink:href="#m98c3dda426" y="630"/>
      </g>
     </g>
     <g id="text_5">
      <!-- 200 -->
      <defs>
       <path d="M 19.1875 8.296875 
L 53.609375 8.296875 
L 53.609375 0 
L 7.328125 0 
L 7.328125 8.296875 
Q 12.9375 14.109375 22.625 23.890625 
Q 32.328125 33.6875 34.8125 36.53125 
Q 39.546875 41.84375 41.421875 45.53125 
Q 43.3125 49.21875 43.3125 52.78125 
Q 43.3125 58.59375 39.234375 62.25 
Q 35.15625 65.921875 28.609375 65.921875 
Q 23.96875 65.921875 18.8125 64.3125 
Q 13.671875 62.703125 7.8125 59.421875 
L 7.8125 69.390625 
Q 13.765625 71.78125 18.9375 73 
Q 24.125 74.21875 28.421875 74.21875 
Q 39.75 74.21875 46.484375 68.546875 
Q 53.21875 62.890625 53.21875 53.421875 
Q 53.21875 48.921875 51.53125 44.890625 
Q 49.859375 40.875 45.40625 35.40625 
Q 44.1875 33.984375 37.640625 27.21875 
Q 31.109375 20.453125 19.1875 8.296875 
z
" id="DejaVuSans-50"/>
      </defs>
      <g transform="translate(638.531347 644.137812)scale(0.14 -0.14)">
       <use xlink:href="#DejaVuSans-50"/>
       <use x="63.623047" xlink:href="#DejaVuSans-48"/>
       <use x="127.246094" xlink:href="#DejaVuSans-48"/>
      </g>
     </g>
    </g>
    <g id="xtick_6">
     <g id="line2d_11">
      <path clip-path="url(#p87cf867c93)" d="M 741.770827 630 
L 741.770827 86.4 
" style="fill:none;stroke:#ffffff;stroke-linecap:square;stroke-width:3;"/>
     </g>
     <g id="line2d_12">
      <g>
       <use style="stroke:#000000;stroke-width:0.8;" x="741.770827" xlink:href="#m98c3dda426" y="630"/>
      </g>
     </g>
     <g id="text_6">
      <!-- 250 -->
      <g transform="translate(728.409577 644.137812)scale(0.14 -0.14)">
       <use xlink:href="#DejaVuSans-50"/>
       <use x="63.623047" xlink:href="#DejaVuSans-53"/>
       <use x="127.246094" xlink:href="#DejaVuSans-48"/>
      </g>
     </g>
    </g>
    <g id="text_7">
     <!-- Gradient Steps (thousands) -->
     <defs>
      <path d="M 59.515625 10.40625 
L 59.515625 29.984375 
L 43.40625 29.984375 
L 43.40625 38.09375 
L 69.28125 38.09375 
L 69.28125 6.78125 
Q 63.578125 2.734375 56.6875 0.65625 
Q 49.8125 -1.421875 42 -1.421875 
Q 24.90625 -1.421875 15.25 8.5625 
Q 5.609375 18.5625 5.609375 36.375 
Q 5.609375 54.25 15.25 64.234375 
Q 24.90625 74.21875 42 74.21875 
Q 49.125 74.21875 55.546875 72.453125 
Q 61.96875 70.703125 67.390625 67.28125 
L 67.390625 56.78125 
Q 61.921875 61.421875 55.765625 63.765625 
Q 49.609375 66.109375 42.828125 66.109375 
Q 29.4375 66.109375 22.71875 58.640625 
Q 16.015625 51.171875 16.015625 36.375 
Q 16.015625 21.625 22.71875 14.15625 
Q 29.4375 6.6875 42.828125 6.6875 
Q 48.046875 6.6875 52.140625 7.59375 
Q 56.25 8.5 59.515625 10.40625 
z
" id="DejaVuSans-71"/>
      <path d="M 41.109375 46.296875 
Q 39.59375 47.171875 37.8125 47.578125 
Q 36.03125 48 33.890625 48 
Q 26.265625 48 22.1875 43.046875 
Q 18.109375 38.09375 18.109375 28.8125 
L 18.109375 0 
L 9.078125 0 
L 9.078125 54.6875 
L 18.109375 54.6875 
L 18.109375 46.1875 
Q 20.953125 51.171875 25.484375 53.578125 
Q 30.03125 56 36.53125 56 
Q 37.453125 56 38.578125 55.875 
Q 39.703125 55.765625 41.0625 55.515625 
z
" id="DejaVuSans-114"/>
      <path d="M 34.28125 27.484375 
Q 23.390625 27.484375 19.1875 25 
Q 14.984375 22.515625 14.984375 16.5 
Q 14.984375 11.71875 18.140625 8.90625 
Q 21.296875 6.109375 26.703125 6.109375 
Q 34.1875 6.109375 38.703125 11.40625 
Q 43.21875 16.703125 43.21875 25.484375 
L 43.21875 27.484375 
z
M 52.203125 31.203125 
L 52.203125 0 
L 43.21875 0 
L 43.21875 8.296875 
Q 40.140625 3.328125 35.546875 0.953125 
Q 30.953125 -1.421875 24.3125 -1.421875 
Q 15.921875 -1.421875 10.953125 3.296875 
Q 6 8.015625 6 15.921875 
Q 6 25.140625 12.171875 29.828125 
Q 18.359375 34.515625 30.609375 34.515625 
L 43.21875 34.515625 
L 43.21875 35.40625 
Q 43.21875 41.609375 39.140625 45 
Q 35.0625 48.390625 27.6875 48.390625 
Q 23 48.390625 18.546875 47.265625 
Q 14.109375 46.140625 10.015625 43.890625 
L 10.015625 52.203125 
Q 14.9375 54.109375 19.578125 55.046875 
Q 24.21875 56 28.609375 56 
Q 40.484375 56 46.34375 49.84375 
Q 52.203125 43.703125 52.203125 31.203125 
z
" id="DejaVuSans-97"/>
      <path d="M 45.40625 46.390625 
L 45.40625 75.984375 
L 54.390625 75.984375 
L 54.390625 0 
L 45.40625 0 
L 45.40625 8.203125 
Q 42.578125 3.328125 38.25 0.953125 
Q 33.9375 -1.421875 27.875 -1.421875 
Q 17.96875 -1.421875 11.734375 6.484375 
Q 5.515625 14.40625 5.515625 27.296875 
Q 5.515625 40.1875 11.734375 48.09375 
Q 17.96875 56 27.875 56 
Q 33.9375 56 38.25 53.625 
Q 42.578125 51.265625 45.40625 46.390625 
z
M 14.796875 27.296875 
Q 14.796875 17.390625 18.875 11.75 
Q 22.953125 6.109375 30.078125 6.109375 
Q 37.203125 6.109375 41.296875 11.75 
Q 45.40625 17.390625 45.40625 27.296875 
Q 45.40625 37.203125 41.296875 42.84375 
Q 37.203125 48.484375 30.078125 48.484375 
Q 22.953125 48.484375 18.875 42.84375 
Q 14.796875 37.203125 14.796875 27.296875 
z
" id="DejaVuSans-100"/>
      <path d="M 9.421875 54.6875 
L 18.40625 54.6875 
L 18.40625 0 
L 9.421875 0 
z
M 9.421875 75.984375 
L 18.40625 75.984375 
L 18.40625 64.59375 
L 9.421875 64.59375 
z
" id="DejaVuSans-105"/>
      <path d="M 56.203125 29.59375 
L 56.203125 25.203125 
L 14.890625 25.203125 
Q 15.484375 15.921875 20.484375 11.0625 
Q 25.484375 6.203125 34.421875 6.203125 
Q 39.59375 6.203125 44.453125 7.46875 
Q 49.3125 8.734375 54.109375 11.28125 
L 54.109375 2.78125 
Q 49.265625 0.734375 44.1875 -0.34375 
Q 39.109375 -1.421875 33.890625 -1.421875 
Q 20.796875 -1.421875 13.15625 6.1875 
Q 5.515625 13.8125 5.515625 26.8125 
Q 5.515625 40.234375 12.765625 48.109375 
Q 20.015625 56 32.328125 56 
Q 43.359375 56 49.78125 48.890625 
Q 56.203125 41.796875 56.203125 29.59375 
z
M 47.21875 32.234375 
Q 47.125 39.59375 43.09375 43.984375 
Q 39.0625 48.390625 32.421875 48.390625 
Q 24.90625 48.390625 20.390625 44.140625 
Q 15.875 39.890625 15.1875 32.171875 
z
" id="DejaVuSans-101"/>
      <path d="M 54.890625 33.015625 
L 54.890625 0 
L 45.90625 0 
L 45.90625 32.71875 
Q 45.90625 40.484375 42.875 44.328125 
Q 39.84375 48.1875 33.796875 48.1875 
Q 26.515625 48.1875 22.3125 43.546875 
Q 18.109375 38.921875 18.109375 30.90625 
L 18.109375 0 
L 9.078125 0 
L 9.078125 54.6875 
L 18.109375 54.6875 
L 18.109375 46.1875 
Q 21.34375 51.125 25.703125 53.5625 
Q 30.078125 56 35.796875 56 
Q 45.21875 56 50.046875 50.171875 
Q 54.890625 44.34375 54.890625 33.015625 
z
" id="DejaVuSans-110"/>
      <path d="M 18.3125 70.21875 
L 18.3125 54.6875 
L 36.8125 54.6875 
L 36.8125 47.703125 
L 18.3125 47.703125 
L 18.3125 18.015625 
Q 18.3125 11.328125 20.140625 9.421875 
Q 21.96875 7.515625 27.59375 7.515625 
L 36.8125 7.515625 
L 36.8125 0 
L 27.59375 0 
Q 17.1875 0 13.234375 3.875 
Q 9.28125 7.765625 9.28125 18.015625 
L 9.28125 47.703125 
L 2.6875 47.703125 
L 2.6875 54.6875 
L 9.28125 54.6875 
L 9.28125 70.21875 
z
" id="DejaVuSans-116"/>
      <path id="DejaVuSans-32"/>
      <path d="M 53.515625 70.515625 
L 53.515625 60.890625 
Q 47.90625 63.578125 42.921875 64.890625 
Q 37.9375 66.21875 33.296875 66.21875 
Q 25.25 66.21875 20.875 63.09375 
Q 16.5 59.96875 16.5 54.203125 
Q 16.5 49.359375 19.40625 46.890625 
Q 22.3125 44.4375 30.421875 42.921875 
L 36.375 41.703125 
Q 47.40625 39.59375 52.65625 34.296875 
Q 57.90625 29 57.90625 20.125 
Q 57.90625 9.515625 50.796875 4.046875 
Q 43.703125 -1.421875 29.984375 -1.421875 
Q 24.8125 -1.421875 18.96875 -0.25 
Q 13.140625 0.921875 6.890625 3.21875 
L 6.890625 13.375 
Q 12.890625 10.015625 18.65625 8.296875 
Q 24.421875 6.59375 29.984375 6.59375 
Q 38.421875 6.59375 43.015625 9.90625 
Q 47.609375 13.234375 47.609375 19.390625 
Q 47.609375 24.75 44.3125 27.78125 
Q 41.015625 30.8125 33.5 32.328125 
L 27.484375 33.5 
Q 16.453125 35.6875 11.515625 40.375 
Q 6.59375 45.0625 6.59375 53.421875 
Q 6.59375 63.09375 13.40625 68.65625 
Q 20.21875 74.21875 32.171875 74.21875 
Q 37.3125 74.21875 42.625 73.28125 
Q 47.953125 72.359375 53.515625 70.515625 
z
" id="DejaVuSans-83"/>
      <path d="M 18.109375 8.203125 
L 18.109375 -20.796875 
L 9.078125 -20.796875 
L 9.078125 54.6875 
L 18.109375 54.6875 
L 18.109375 46.390625 
Q 20.953125 51.265625 25.265625 53.625 
Q 29.59375 56 35.59375 56 
Q 45.5625 56 51.78125 48.09375 
Q 58.015625 40.1875 58.015625 27.296875 
Q 58.015625 14.40625 51.78125 6.484375 
Q 45.5625 -1.421875 35.59375 -1.421875 
Q 29.59375 -1.421875 25.265625 0.953125 
Q 20.953125 3.328125 18.109375 8.203125 
z
M 48.6875 27.296875 
Q 48.6875 37.203125 44.609375 42.84375 
Q 40.53125 48.484375 33.40625 48.484375 
Q 26.265625 48.484375 22.1875 42.84375 
Q 18.109375 37.203125 18.109375 27.296875 
Q 18.109375 17.390625 22.1875 11.75 
Q 26.265625 6.109375 33.40625 6.109375 
Q 40.53125 6.109375 44.609375 11.75 
Q 48.6875 17.390625 48.6875 27.296875 
z
" id="DejaVuSans-112"/>
      <path d="M 44.28125 53.078125 
L 44.28125 44.578125 
Q 40.484375 46.53125 36.375 47.5 
Q 32.28125 48.484375 27.875 48.484375 
Q 21.1875 48.484375 17.84375 46.4375 
Q 14.5 44.390625 14.5 40.28125 
Q 14.5 37.15625 16.890625 35.375 
Q 19.28125 33.59375 26.515625 31.984375 
L 29.59375 31.296875 
Q 39.15625 29.25 43.1875 25.515625 
Q 47.21875 21.78125 47.21875 15.09375 
Q 47.21875 7.46875 41.1875 3.015625 
Q 35.15625 -1.421875 24.609375 -1.421875 
Q 20.21875 -1.421875 15.453125 -0.5625 
Q 10.6875 0.296875 5.421875 2 
L 5.421875 11.28125 
Q 10.40625 8.6875 15.234375 7.390625 
Q 20.0625 6.109375 24.8125 6.109375 
Q 31.15625 6.109375 34.5625 8.28125 
Q 37.984375 10.453125 37.984375 14.40625 
Q 37.984375 18.0625 35.515625 20.015625 
Q 33.0625 21.96875 24.703125 23.78125 
L 21.578125 24.515625 
Q 13.234375 26.265625 9.515625 29.90625 
Q 5.8125 33.546875 5.8125 39.890625 
Q 5.8125 47.609375 11.28125 51.796875 
Q 16.75 56 26.8125 56 
Q 31.78125 56 36.171875 55.265625 
Q 40.578125 54.546875 44.28125 53.078125 
z
" id="DejaVuSans-115"/>
      <path d="M 31 75.875 
Q 24.46875 64.65625 21.28125 53.65625 
Q 18.109375 42.671875 18.109375 31.390625 
Q 18.109375 20.125 21.3125 9.0625 
Q 24.515625 -2 31 -13.1875 
L 23.1875 -13.1875 
Q 15.875 -1.703125 12.234375 9.375 
Q 8.59375 20.453125 8.59375 31.390625 
Q 8.59375 42.28125 12.203125 53.3125 
Q 15.828125 64.359375 23.1875 75.875 
z
" id="DejaVuSans-40"/>
      <path d="M 54.890625 33.015625 
L 54.890625 0 
L 45.90625 0 
L 45.90625 32.71875 
Q 45.90625 40.484375 42.875 44.328125 
Q 39.84375 48.1875 33.796875 48.1875 
Q 26.515625 48.1875 22.3125 43.546875 
Q 18.109375 38.921875 18.109375 30.90625 
L 18.109375 0 
L 9.078125 0 
L 9.078125 75.984375 
L 18.109375 75.984375 
L 18.109375 46.1875 
Q 21.34375 51.125 25.703125 53.5625 
Q 30.078125 56 35.796875 56 
Q 45.21875 56 50.046875 50.171875 
Q 54.890625 44.34375 54.890625 33.015625 
z
" id="DejaVuSans-104"/>
      <path d="M 30.609375 48.390625 
Q 23.390625 48.390625 19.1875 42.75 
Q 14.984375 37.109375 14.984375 27.296875 
Q 14.984375 17.484375 19.15625 11.84375 
Q 23.34375 6.203125 30.609375 6.203125 
Q 37.796875 6.203125 41.984375 11.859375 
Q 46.1875 17.53125 46.1875 27.296875 
Q 46.1875 37.015625 41.984375 42.703125 
Q 37.796875 48.390625 30.609375 48.390625 
z
M 30.609375 56 
Q 42.328125 56 49.015625 48.375 
Q 55.71875 40.765625 55.71875 27.296875 
Q 55.71875 13.875 49.015625 6.21875 
Q 42.328125 -1.421875 30.609375 -1.421875 
Q 18.84375 -1.421875 12.171875 6.21875 
Q 5.515625 13.875 5.515625 27.296875 
Q 5.515625 40.765625 12.171875 48.375 
Q 18.84375 56 30.609375 56 
z
" id="DejaVuSans-111"/>
      <path d="M 8.5 21.578125 
L 8.5 54.6875 
L 17.484375 54.6875 
L 17.484375 21.921875 
Q 17.484375 14.15625 20.5 10.265625 
Q 23.53125 6.390625 29.59375 6.390625 
Q 36.859375 6.390625 41.078125 11.03125 
Q 45.3125 15.671875 45.3125 23.6875 
L 45.3125 54.6875 
L 54.296875 54.6875 
L 54.296875 0 
L 45.3125 0 
L 45.3125 8.40625 
Q 42.046875 3.421875 37.71875 1 
Q 33.40625 -1.421875 27.6875 -1.421875 
Q 18.265625 -1.421875 13.375 4.4375 
Q 8.5 10.296875 8.5 21.578125 
z
M 31.109375 56 
z
" id="DejaVuSans-117"/>
      <path d="M 8.015625 75.875 
L 15.828125 75.875 
Q 23.140625 64.359375 26.78125 53.3125 
Q 30.421875 42.28125 30.421875 31.390625 
Q 30.421875 20.453125 26.78125 9.375 
Q 23.140625 -1.703125 15.828125 -13.1875 
L 8.015625 -13.1875 
Q 14.5 -2 17.703125 9.0625 
Q 20.90625 20.125 20.90625 31.390625 
Q 20.90625 42.671875 17.703125 53.65625 
Q 14.5 64.65625 8.015625 75.875 
z
" id="DejaVuSans-41"/>
     </defs>
     <g transform="translate(378.565533 666.24625)scale(0.2 -0.2)">
      <use xlink:href="#DejaVuSans-71"/>
      <use x="77.490234" xlink:href="#DejaVuSans-114"/>
      <use x="118.603516" xlink:href="#DejaVuSans-97"/>
      <use x="179.882812" xlink:href="#DejaVuSans-100"/>
      <use x="243.359375" xlink:href="#DejaVuSans-105"/>
      <use x="271.142578" xlink:href="#DejaVuSans-101"/>
      <use x="332.666016" xlink:href="#DejaVuSans-110"/>
      <use x="396.044922" xlink:href="#DejaVuSans-116"/>
      <use x="435.253906" xlink:href="#DejaVuSans-32"/>
      <use x="467.041016" xlink:href="#DejaVuSans-83"/>
      <use x="530.517578" xlink:href="#DejaVuSans-116"/>
      <use x="569.726562" xlink:href="#DejaVuSans-101"/>
      <use x="631.25" xlink:href="#DejaVuSans-112"/>
      <use x="694.726562" xlink:href="#DejaVuSans-115"/>
      <use x="746.826172" xlink:href="#DejaVuSans-32"/>
      <use x="778.613281" xlink:href="#DejaVuSans-40"/>
      <use x="817.626953" xlink:href="#DejaVuSans-116"/>
      <use x="856.835938" xlink:href="#DejaVuSans-104"/>
      <use x="920.214844" xlink:href="#DejaVuSans-111"/>
      <use x="981.396484" xlink:href="#DejaVuSans-117"/>
      <use x="1044.775391" xlink:href="#DejaVuSans-115"/>
      <use x="1096.875" xlink:href="#DejaVuSans-97"/>
      <use x="1158.154297" xlink:href="#DejaVuSans-110"/>
      <use x="1221.533203" xlink:href="#DejaVuSans-100"/>
      <use x="1285.009766" xlink:href="#DejaVuSans-115"/>
      <use x="1337.109375" xlink:href="#DejaVuSans-41"/>
     </g>
    </g>
   </g>
   <g id="matplotlib.axis_2">
    <g id="ytick_1">
     <g id="line2d_13">
      <path clip-path="url(#p87cf867c93)" d="M 270 551.766506 
L 762.352941 551.766506 
" style="fill:none;stroke:#ffffff;stroke-linecap:square;stroke-width:3;"/>
     </g>
     <g id="line2d_14">
      <defs>
       <path d="M 0 0 
L 3.5 0 
" id="m4deee8dc8a" style="stroke:#000000;stroke-width:0.8;"/>
      </defs>
      <g>
       <use style="stroke:#000000;stroke-width:0.8;" x="270" xlink:href="#m4deee8dc8a" y="551.766506"/>
      </g>
     </g>
     <g id="text_8">
      <!-- $\mathdefault{10^{-2}}$ -->
      <defs>
       <path d="M 4.890625 31.390625 
L 31.203125 31.390625 
L 31.203125 23.390625 
L 4.890625 23.390625 
z
" id="DejaVuSans-45"/>
      </defs>
      <g transform="translate(238.36 557.085412)scale(0.14 -0.14)">
       <use transform="translate(0 0.765625)" xlink:href="#DejaVuSans-49"/>
       <use transform="translate(63.623047 0.765625)" xlink:href="#DejaVuSans-48"/>
       <use transform="translate(128.203125 39.046875)scale(0.7)" xlink:href="#DejaVuSans-45"/>
       <use transform="translate(153.461914 39.046875)scale(0.7)" xlink:href="#DejaVuSans-50"/>
      </g>
     </g>
    </g>
    <g id="ytick_2">
     <g id="line2d_15">
      <path clip-path="url(#p87cf867c93)" d="M 270 458.523495 
L 762.352941 458.523495 
" style="fill:none;stroke:#ffffff;stroke-linecap:square;stroke-width:3;"/>
     </g>
     <g id="line2d_16">
      <g>
       <use style="stroke:#000000;stroke-width:0.8;" x="270" xlink:href="#m4deee8dc8a" y="458.523495"/>
      </g>
     </g>
     <g id="text_9">
      <!-- $\mathdefault{10^{-1}}$ -->
      <g transform="translate(238.36 463.842402)scale(0.14 -0.14)">
       <use transform="translate(0 0.684375)" xlink:href="#DejaVuSans-49"/>
       <use transform="translate(63.623047 0.684375)" xlink:href="#DejaVuSans-48"/>
       <use transform="translate(128.203125 38.965625)scale(0.7)" xlink:href="#DejaVuSans-45"/>
       <use transform="translate(153.461914 38.965625)scale(0.7)" xlink:href="#DejaVuSans-49"/>
      </g>
     </g>
    </g>
    <g id="ytick_3">
     <g id="line2d_17">
      <path clip-path="url(#p87cf867c93)" d="M 270 365.280485 
L 762.352941 365.280485 
" style="fill:none;stroke:#ffffff;stroke-linecap:square;stroke-width:3;"/>
     </g>
     <g id="line2d_18">
      <g>
       <use style="stroke:#000000;stroke-width:0.8;" x="270" xlink:href="#m4deee8dc8a" y="365.280485"/>
      </g>
     </g>
     <g id="text_10">
      <!-- $\mathdefault{10^{0}}$ -->
      <g transform="translate(241.86 370.599391)scale(0.14 -0.14)">
       <use transform="translate(0 0.765625)" xlink:href="#DejaVuSans-49"/>
       <use transform="translate(63.623047 0.765625)" xlink:href="#DejaVuSans-48"/>
       <use transform="translate(128.203125 39.046875)scale(0.7)" xlink:href="#DejaVuSans-48"/>
      </g>
     </g>
    </g>
    <g id="ytick_4">
     <g id="line2d_19">
      <path clip-path="url(#p87cf867c93)" d="M 270 272.037475 
L 762.352941 272.037475 
" style="fill:none;stroke:#ffffff;stroke-linecap:square;stroke-width:3;"/>
     </g>
     <g id="line2d_20">
      <g>
       <use style="stroke:#000000;stroke-width:0.8;" x="270" xlink:href="#m4deee8dc8a" y="272.037475"/>
      </g>
     </g>
     <g id="text_11">
      <!-- $\mathdefault{10^{1}}$ -->
      <g transform="translate(241.86 277.356381)scale(0.14 -0.14)">
       <use transform="translate(0 0.684375)" xlink:href="#DejaVuSans-49"/>
       <use transform="translate(63.623047 0.684375)" xlink:href="#DejaVuSans-48"/>
       <use transform="translate(128.203125 38.965625)scale(0.7)" xlink:href="#DejaVuSans-49"/>
      </g>
     </g>
    </g>
    <g id="ytick_5">
     <g id="line2d_21">
      <path clip-path="url(#p87cf867c93)" d="M 270 178.794465 
L 762.352941 178.794465 
" style="fill:none;stroke:#ffffff;stroke-linecap:square;stroke-width:3;"/>
     </g>
     <g id="line2d_22">
      <g>
       <use style="stroke:#000000;stroke-width:0.8;" x="270" xlink:href="#m4deee8dc8a" y="178.794465"/>
      </g>
     </g>
     <g id="text_12">
      <!-- $\mathdefault{10^{2}}$ -->
      <g transform="translate(241.86 184.113371)scale(0.14 -0.14)">
       <use transform="translate(0 0.765625)" xlink:href="#DejaVuSans-49"/>
       <use transform="translate(63.623047 0.765625)" xlink:href="#DejaVuSans-48"/>
       <use transform="translate(128.203125 39.046875)scale(0.7)" xlink:href="#DejaVuSans-50"/>
      </g>
     </g>
    </g>
    <g id="ytick_6">
     <g id="line2d_23">
      <defs>
       <path d="M 0 0 
L 2 0 
" id="mf23eef5f9e" style="stroke:#000000;stroke-width:0.6;"/>
      </defs>
      <g>
       <use style="stroke:#000000;stroke-width:0.6;" x="270" xlink:href="#mf23eef5f9e" y="616.940573"/>
      </g>
     </g>
    </g>
    <g id="ytick_7">
     <g id="line2d_24">
      <g>
       <use style="stroke:#000000;stroke-width:0.6;" x="270" xlink:href="#mf23eef5f9e" y="600.521294"/>
      </g>
     </g>
    </g>
    <g id="ytick_8">
     <g id="line2d_25">
      <g>
       <use style="stroke:#000000;stroke-width:0.6;" x="270" xlink:href="#mf23eef5f9e" y="588.87163"/>
      </g>
     </g>
    </g>
    <g id="ytick_9">
     <g id="line2d_26">
      <g>
       <use style="stroke:#000000;stroke-width:0.6;" x="270" xlink:href="#mf23eef5f9e" y="579.835449"/>
      </g>
     </g>
    </g>
    <g id="ytick_10">
     <g id="line2d_27">
      <g>
       <use style="stroke:#000000;stroke-width:0.6;" x="270" xlink:href="#mf23eef5f9e" y="572.452351"/>
      </g>
     </g>
    </g>
    <g id="ytick_11">
     <g id="line2d_28">
      <g>
       <use style="stroke:#000000;stroke-width:0.6;" x="270" xlink:href="#mf23eef5f9e" y="566.210031"/>
      </g>
     </g>
    </g>
    <g id="ytick_12">
     <g id="line2d_29">
      <g>
       <use style="stroke:#000000;stroke-width:0.6;" x="270" xlink:href="#mf23eef5f9e" y="560.802687"/>
      </g>
     </g>
    </g>
    <g id="ytick_13">
     <g id="line2d_30">
      <g>
       <use style="stroke:#000000;stroke-width:0.6;" x="270" xlink:href="#mf23eef5f9e" y="556.033072"/>
      </g>
     </g>
    </g>
    <g id="ytick_14">
     <g id="line2d_31">
      <g>
       <use style="stroke:#000000;stroke-width:0.6;" x="270" xlink:href="#mf23eef5f9e" y="523.697563"/>
      </g>
     </g>
    </g>
    <g id="ytick_15">
     <g id="line2d_32">
      <g>
       <use style="stroke:#000000;stroke-width:0.6;" x="270" xlink:href="#mf23eef5f9e" y="507.278284"/>
      </g>
     </g>
    </g>
    <g id="ytick_16">
     <g id="line2d_33">
      <g>
       <use style="stroke:#000000;stroke-width:0.6;" x="270" xlink:href="#mf23eef5f9e" y="495.62862"/>
      </g>
     </g>
    </g>
    <g id="ytick_17">
     <g id="line2d_34">
      <g>
       <use style="stroke:#000000;stroke-width:0.6;" x="270" xlink:href="#mf23eef5f9e" y="486.592438"/>
      </g>
     </g>
    </g>
    <g id="ytick_18">
     <g id="line2d_35">
      <g>
       <use style="stroke:#000000;stroke-width:0.6;" x="270" xlink:href="#mf23eef5f9e" y="479.209341"/>
      </g>
     </g>
    </g>
    <g id="ytick_19">
     <g id="line2d_36">
      <g>
       <use style="stroke:#000000;stroke-width:0.6;" x="270" xlink:href="#mf23eef5f9e" y="472.967021"/>
      </g>
     </g>
    </g>
    <g id="ytick_20">
     <g id="line2d_37">
      <g>
       <use style="stroke:#000000;stroke-width:0.6;" x="270" xlink:href="#mf23eef5f9e" y="467.559677"/>
      </g>
     </g>
    </g>
    <g id="ytick_21">
     <g id="line2d_38">
      <g>
       <use style="stroke:#000000;stroke-width:0.6;" x="270" xlink:href="#mf23eef5f9e" y="462.790062"/>
      </g>
     </g>
    </g>
    <g id="ytick_22">
     <g id="line2d_39">
      <g>
       <use style="stroke:#000000;stroke-width:0.6;" x="270" xlink:href="#mf23eef5f9e" y="430.454553"/>
      </g>
     </g>
    </g>
    <g id="ytick_23">
     <g id="line2d_40">
      <g>
       <use style="stroke:#000000;stroke-width:0.6;" x="270" xlink:href="#mf23eef5f9e" y="414.035273"/>
      </g>
     </g>
    </g>
    <g id="ytick_24">
     <g id="line2d_41">
      <g>
       <use style="stroke:#000000;stroke-width:0.6;" x="270" xlink:href="#mf23eef5f9e" y="402.38561"/>
      </g>
     </g>
    </g>
    <g id="ytick_25">
     <g id="line2d_42">
      <g>
       <use style="stroke:#000000;stroke-width:0.6;" x="270" xlink:href="#mf23eef5f9e" y="393.349428"/>
      </g>
     </g>
    </g>
    <g id="ytick_26">
     <g id="line2d_43">
      <g>
       <use style="stroke:#000000;stroke-width:0.6;" x="270" xlink:href="#mf23eef5f9e" y="385.96633"/>
      </g>
     </g>
    </g>
    <g id="ytick_27">
     <g id="line2d_44">
      <g>
       <use style="stroke:#000000;stroke-width:0.6;" x="270" xlink:href="#mf23eef5f9e" y="379.72401"/>
      </g>
     </g>
    </g>
    <g id="ytick_28">
     <g id="line2d_45">
      <g>
       <use style="stroke:#000000;stroke-width:0.6;" x="270" xlink:href="#mf23eef5f9e" y="374.316667"/>
      </g>
     </g>
    </g>
    <g id="ytick_29">
     <g id="line2d_46">
      <g>
       <use style="stroke:#000000;stroke-width:0.6;" x="270" xlink:href="#mf23eef5f9e" y="369.547051"/>
      </g>
     </g>
    </g>
    <g id="ytick_30">
     <g id="line2d_47">
      <g>
       <use style="stroke:#000000;stroke-width:0.6;" x="270" xlink:href="#mf23eef5f9e" y="337.211542"/>
      </g>
     </g>
    </g>
    <g id="ytick_31">
     <g id="line2d_48">
      <g>
       <use style="stroke:#000000;stroke-width:0.6;" x="270" xlink:href="#mf23eef5f9e" y="320.792263"/>
      </g>
     </g>
    </g>
    <g id="ytick_32">
     <g id="line2d_49">
      <g>
       <use style="stroke:#000000;stroke-width:0.6;" x="270" xlink:href="#mf23eef5f9e" y="309.142599"/>
      </g>
     </g>
    </g>
    <g id="ytick_33">
     <g id="line2d_50">
      <g>
       <use style="stroke:#000000;stroke-width:0.6;" x="270" xlink:href="#mf23eef5f9e" y="300.106418"/>
      </g>
     </g>
    </g>
    <g id="ytick_34">
     <g id="line2d_51">
      <g>
       <use style="stroke:#000000;stroke-width:0.6;" x="270" xlink:href="#mf23eef5f9e" y="292.72332"/>
      </g>
     </g>
    </g>
    <g id="ytick_35">
     <g id="line2d_52">
      <g>
       <use style="stroke:#000000;stroke-width:0.6;" x="270" xlink:href="#mf23eef5f9e" y="286.481"/>
      </g>
     </g>
    </g>
    <g id="ytick_36">
     <g id="line2d_53">
      <g>
       <use style="stroke:#000000;stroke-width:0.6;" x="270" xlink:href="#mf23eef5f9e" y="281.073656"/>
      </g>
     </g>
    </g>
    <g id="ytick_37">
     <g id="line2d_54">
      <g>
       <use style="stroke:#000000;stroke-width:0.6;" x="270" xlink:href="#mf23eef5f9e" y="276.304041"/>
      </g>
     </g>
    </g>
    <g id="ytick_38">
     <g id="line2d_55">
      <g>
       <use style="stroke:#000000;stroke-width:0.6;" x="270" xlink:href="#mf23eef5f9e" y="243.968532"/>
      </g>
     </g>
    </g>
    <g id="ytick_39">
     <g id="line2d_56">
      <g>
       <use style="stroke:#000000;stroke-width:0.6;" x="270" xlink:href="#mf23eef5f9e" y="227.549253"/>
      </g>
     </g>
    </g>
    <g id="ytick_40">
     <g id="line2d_57">
      <g>
       <use style="stroke:#000000;stroke-width:0.6;" x="270" xlink:href="#mf23eef5f9e" y="215.899589"/>
      </g>
     </g>
    </g>
    <g id="ytick_41">
     <g id="line2d_58">
      <g>
       <use style="stroke:#000000;stroke-width:0.6;" x="270" xlink:href="#mf23eef5f9e" y="206.863408"/>
      </g>
     </g>
    </g>
    <g id="ytick_42">
     <g id="line2d_59">
      <g>
       <use style="stroke:#000000;stroke-width:0.6;" x="270" xlink:href="#mf23eef5f9e" y="199.48031"/>
      </g>
     </g>
    </g>
    <g id="ytick_43">
     <g id="line2d_60">
      <g>
       <use style="stroke:#000000;stroke-width:0.6;" x="270" xlink:href="#mf23eef5f9e" y="193.23799"/>
      </g>
     </g>
    </g>
    <g id="ytick_44">
     <g id="line2d_61">
      <g>
       <use style="stroke:#000000;stroke-width:0.6;" x="270" xlink:href="#mf23eef5f9e" y="187.830646"/>
      </g>
     </g>
    </g>
    <g id="ytick_45">
     <g id="line2d_62">
      <g>
       <use style="stroke:#000000;stroke-width:0.6;" x="270" xlink:href="#mf23eef5f9e" y="183.061031"/>
      </g>
     </g>
    </g>
    <g id="ytick_46">
     <g id="line2d_63">
      <g>
       <use style="stroke:#000000;stroke-width:0.6;" x="270" xlink:href="#mf23eef5f9e" y="150.725522"/>
      </g>
     </g>
    </g>
    <g id="ytick_47">
     <g id="line2d_64">
      <g>
       <use style="stroke:#000000;stroke-width:0.6;" x="270" xlink:href="#mf23eef5f9e" y="134.306243"/>
      </g>
     </g>
    </g>
    <g id="ytick_48">
     <g id="line2d_65">
      <g>
       <use style="stroke:#000000;stroke-width:0.6;" x="270" xlink:href="#mf23eef5f9e" y="122.656579"/>
      </g>
     </g>
    </g>
    <g id="ytick_49">
     <g id="line2d_66">
      <g>
       <use style="stroke:#000000;stroke-width:0.6;" x="270" xlink:href="#mf23eef5f9e" y="113.620397"/>
      </g>
     </g>
    </g>
    <g id="ytick_50">
     <g id="line2d_67">
      <g>
       <use style="stroke:#000000;stroke-width:0.6;" x="270" xlink:href="#mf23eef5f9e" y="106.2373"/>
      </g>
     </g>
    </g>
    <g id="ytick_51">
     <g id="line2d_68">
      <g>
       <use style="stroke:#000000;stroke-width:0.6;" x="270" xlink:href="#mf23eef5f9e" y="99.99498"/>
      </g>
     </g>
    </g>
    <g id="ytick_52">
     <g id="line2d_69">
      <g>
       <use style="stroke:#000000;stroke-width:0.6;" x="270" xlink:href="#mf23eef5f9e" y="94.587636"/>
      </g>
     </g>
    </g>
    <g id="ytick_53">
     <g id="line2d_70">
      <g>
       <use style="stroke:#000000;stroke-width:0.6;" x="270" xlink:href="#mf23eef5f9e" y="89.818021"/>
      </g>
     </g>
    </g>
    <g id="text_13">
     <!-- Symmetric KL -->
     <defs>
      <path d="M 32.171875 -5.078125 
Q 28.375 -14.84375 24.75 -17.8125 
Q 21.140625 -20.796875 15.09375 -20.796875 
L 7.90625 -20.796875 
L 7.90625 -13.28125 
L 13.1875 -13.28125 
Q 16.890625 -13.28125 18.9375 -11.515625 
Q 21 -9.765625 23.484375 -3.21875 
L 25.09375 0.875 
L 2.984375 54.6875 
L 12.5 54.6875 
L 29.59375 11.921875 
L 46.6875 54.6875 
L 56.203125 54.6875 
z
" id="DejaVuSans-121"/>
      <path d="M 52 44.1875 
Q 55.375 50.25 60.0625 53.125 
Q 64.75 56 71.09375 56 
Q 79.640625 56 84.28125 50.015625 
Q 88.921875 44.046875 88.921875 33.015625 
L 88.921875 0 
L 79.890625 0 
L 79.890625 32.71875 
Q 79.890625 40.578125 77.09375 44.375 
Q 74.3125 48.1875 68.609375 48.1875 
Q 61.625 48.1875 57.5625 43.546875 
Q 53.515625 38.921875 53.515625 30.90625 
L 53.515625 0 
L 44.484375 0 
L 44.484375 32.71875 
Q 44.484375 40.625 41.703125 44.40625 
Q 38.921875 48.1875 33.109375 48.1875 
Q 26.21875 48.1875 22.15625 43.53125 
Q 18.109375 38.875 18.109375 30.90625 
L 18.109375 0 
L 9.078125 0 
L 9.078125 54.6875 
L 18.109375 54.6875 
L 18.109375 46.1875 
Q 21.1875 51.21875 25.484375 53.609375 
Q 29.78125 56 35.6875 56 
Q 41.65625 56 45.828125 52.96875 
Q 50 49.953125 52 44.1875 
z
" id="DejaVuSans-109"/>
      <path d="M 48.78125 52.59375 
L 48.78125 44.1875 
Q 44.96875 46.296875 41.140625 47.34375 
Q 37.3125 48.390625 33.40625 48.390625 
Q 24.65625 48.390625 19.8125 42.84375 
Q 14.984375 37.3125 14.984375 27.296875 
Q 14.984375 17.28125 19.8125 11.734375 
Q 24.65625 6.203125 33.40625 6.203125 
Q 37.3125 6.203125 41.140625 7.25 
Q 44.96875 8.296875 48.78125 10.40625 
L 48.78125 2.09375 
Q 45.015625 0.34375 40.984375 -0.53125 
Q 36.96875 -1.421875 32.421875 -1.421875 
Q 20.0625 -1.421875 12.78125 6.34375 
Q 5.515625 14.109375 5.515625 27.296875 
Q 5.515625 40.671875 12.859375 48.328125 
Q 20.21875 56 33.015625 56 
Q 37.15625 56 41.109375 55.140625 
Q 45.0625 54.296875 48.78125 52.59375 
z
" id="DejaVuSans-99"/>
      <path d="M 9.8125 72.90625 
L 19.671875 72.90625 
L 19.671875 42.09375 
L 52.390625 72.90625 
L 65.09375 72.90625 
L 28.90625 38.921875 
L 67.671875 0 
L 54.6875 0 
L 19.671875 35.109375 
L 19.671875 0 
L 9.8125 0 
z
" id="DejaVuSans-75"/>
      <path d="M 9.8125 72.90625 
L 19.671875 72.90625 
L 19.671875 8.296875 
L 55.171875 8.296875 
L 55.171875 0 
L 9.8125 0 
z
" id="DejaVuSans-76"/>
     </defs>
     <g transform="translate(230.200625 427.717188)rotate(-90)scale(0.2 -0.2)">
      <use xlink:href="#DejaVuSans-83"/>
      <use x="63.476562" xlink:href="#DejaVuSans-121"/>
      <use x="122.65625" xlink:href="#DejaVuSans-109"/>
      <use x="220.068359" xlink:href="#DejaVuSans-109"/>
      <use x="317.480469" xlink:href="#DejaVuSans-101"/>
      <use x="379.003906" xlink:href="#DejaVuSans-116"/>
      <use x="418.212891" xlink:href="#DejaVuSans-114"/>
      <use x="459.326172" xlink:href="#DejaVuSans-105"/>
      <use x="487.109375" xlink:href="#DejaVuSans-99"/>
      <use x="542.089844" xlink:href="#DejaVuSans-32"/>
      <use x="573.876953" xlink:href="#DejaVuSans-75"/>
      <use x="639.453125" xlink:href="#DejaVuSans-76"/>
     </g>
    </g>
   </g>
   <g id="line2d_71">
    <path clip-path="url(#p87cf867c93)" d="M 292.379679 111.109091 
L 294.177244 126.057914 
L 295.974808 137.522579 
L 297.772373 145.809849 
L 299.569938 150.899483 
L 301.367502 153.138431 
L 303.165067 153.070363 
L 304.962631 151.480869 
L 306.760196 149.255825 
L 308.55776 147.775561 
L 310.355325 146.816153 
L 313.950454 145.539666 
L 315.748019 145.119196 
L 317.545583 144.836991 
L 324.735842 144.364148 
L 335.521229 144.521227 
L 339.116358 144.810505 
L 340.913923 144.819254 
L 342.711488 144.990294 
L 348.104181 145.231359 
L 349.901746 145.64407 
L 351.699311 145.708237 
L 355.29444 147.310071 
L 357.092004 147.97686 
L 360.687134 150.232473 
L 362.484698 151.708907 
L 364.282263 152.963732 
L 367.877392 156.519367 
L 371.472521 160.647875 
L 373.270086 162.882649 
L 375.06765 165.381914 
L 376.865215 167.609607 
L 380.460344 171.357971 
L 382.257909 173.026504 
L 384.055473 174.493331 
L 385.853038 175.513662 
L 389.448167 177.171585 
L 391.245732 177.456064 
L 394.840861 178.33063 
L 396.638425 178.548867 
L 398.43599 179.404298 
L 400.233555 180.831108 
L 402.031119 182.91312 
L 403.828684 186.630061 
L 405.626248 191.974975 
L 407.423813 198.042475 
L 409.221377 204.680439 
L 411.018942 210.623518 
L 412.816507 214.853269 
L 414.614071 214.55838 
L 416.411636 214.484341 
L 420.006765 217.469448 
L 421.80433 219.556224 
L 425.399459 224.34117 
L 427.197023 226.969841 
L 428.994588 229.199524 
L 430.792153 231.761862 
L 432.589717 233.811976 
L 434.387282 236.22707 
L 436.184846 238.402893 
L 437.982411 240.868252 
L 439.779976 242.732909 
L 441.57754 244.274749 
L 443.375105 244.813507 
L 445.172669 245.518401 
L 446.970234 246.755886 
L 448.767798 248.717146 
L 450.565363 250.993622 
L 452.362928 255.125369 
L 454.160492 260.260453 
L 457.755621 274.630805 
L 459.553186 283.300242 
L 461.350751 294.028726 
L 463.148315 305.804826 
L 464.94588 319.687122 
L 466.743444 334.922046 
L 468.541009 353.52971 
L 470.338574 373.697133 
L 472.136138 391.450881 
L 475.731267 417.119422 
L 477.528832 428.866313 
L 479.326396 441.745852 
L 481.123961 452.746639 
L 482.921526 465.263803 
L 484.71909 476.385494 
L 486.516655 488.811894 
L 488.314219 498.785667 
L 490.111784 510.072145 
L 493.706913 531.08066 
L 497.302042 549.153023 
L 499.099607 557.561364 
L 500.897172 562.526135 
L 502.694736 568.185785 
L 504.492301 574.766977 
L 506.289865 579.835449 
L 508.08743 585.630307 
L 509.884995 588.87163 
L 511.682559 588.87163 
L 513.480124 600.521294 
L 515.277688 596.254728 
L 518.872817 596.254728 
L 520.670382 605.290909 
L 522.467947 600.521294 
L 524.265511 600.521294 
L 526.063076 592.395149 
L 527.86064 605.290909 
L 531.45577 605.290909 
L 533.253334 600.521294 
L 535.050899 600.521294 
L 536.848463 605.290909 
L 538.646028 600.521294 
L 540.443593 596.254728 
L 542.241157 600.521294 
L 544.038722 600.521294 
L 545.836286 596.254728 
L 547.633851 600.521294 
L 549.431416 596.254728 
L 551.22898 600.521294 
L 553.026545 600.521294 
L 554.824109 596.254728 
L 556.621674 600.521294 
L 558.419238 596.254728 
L 562.014368 596.254728 
L 563.811932 600.521294 
L 565.609497 592.395149 
L 567.407061 600.521294 
L 569.204626 596.254728 
L 571.002191 596.254728 
L 572.799755 592.395149 
L 574.59732 596.254728 
L 576.394884 596.254728 
L 578.192449 592.395149 
L 581.787578 592.395149 
L 583.585143 596.254728 
L 585.382707 585.630307 
L 587.180272 592.395149 
L 588.977836 596.254728 
L 590.775401 596.254728 
L 592.572966 588.87163 
L 594.37053 588.87163 
L 596.168095 592.395149 
L 597.965659 585.630307 
L 599.763224 592.395149 
L 601.560789 585.630307 
L 603.358353 585.630307 
L 605.155918 592.395149 
L 606.953482 592.395149 
L 608.751047 596.254728 
L 610.548612 585.630307 
L 612.346176 596.254728 
L 614.143741 592.395149 
L 615.941305 588.87163 
L 617.73887 596.254728 
L 619.536435 596.254728 
L 621.333999 585.630307 
L 624.929128 585.630307 
L 626.726693 592.395149 
L 628.524257 592.395149 
L 630.321822 596.254728 
L 632.119387 592.395149 
L 633.916951 592.395149 
L 635.714516 588.87163 
L 637.51208 588.87163 
L 639.309645 585.630307 
L 641.10721 592.395149 
L 642.904774 596.254728 
L 644.702339 588.87163 
L 646.499903 588.87163 
L 648.297468 585.630307 
L 650.095033 592.395149 
L 651.892597 588.87163 
L 653.690162 588.87163 
L 655.487726 596.254728 
L 657.285291 588.87163 
L 659.082855 588.87163 
L 660.88042 592.395149 
L 662.677985 588.87163 
L 664.475549 585.630307 
L 668.070678 585.630307 
L 669.868243 588.87163 
L 671.665808 585.630307 
L 673.463372 592.395149 
L 675.260937 588.87163 
L 677.058501 585.630307 
L 678.856066 588.87163 
L 680.653631 596.254728 
L 682.451195 585.630307 
L 684.24876 588.87163 
L 686.046324 585.630307 
L 687.843889 588.87163 
L 689.641454 585.630307 
L 691.439018 588.87163 
L 693.236583 588.87163 
L 695.034147 596.254728 
L 696.831712 596.254728 
L 698.629276 588.87163 
L 700.426841 596.254728 
L 702.224406 592.395149 
L 705.819535 592.395149 
L 707.617099 588.87163 
L 709.414664 592.395149 
L 711.212229 588.87163 
L 713.009793 585.630307 
L 714.807358 596.254728 
L 716.604922 579.835449 
L 718.402487 588.87163 
L 720.200052 596.254728 
L 721.997616 588.87163 
L 723.795181 596.254728 
L 725.592745 592.395149 
L 727.39031 592.395149 
L 729.187874 585.630307 
L 730.985439 592.395149 
L 732.783004 588.87163 
L 734.580568 585.630307 
L 736.378133 588.87163 
L 738.175697 596.254728 
L 739.973262 585.630307 
L 739.973262 585.630307 
" style="fill:none;stroke:#ff0000;stroke-linecap:square;stroke-width:2;"/>
   </g>
   <g id="line2d_72">
    <path clip-path="url(#p87cf867c93)" d="M 292.379679 287.978009 
L 294.177244 310.138952 
L 295.974808 328.151881 
L 297.772373 342.785063 
L 299.569938 356.007965 
L 301.367502 367.429421 
L 303.165067 375.362681 
L 304.962631 378.692115 
L 306.760196 378.517669 
L 308.55776 379.303893 
L 310.355325 380.981316 
L 312.15289 382.071998 
L 313.950454 383.440471 
L 315.748019 384.28518 
L 317.545583 385.393351 
L 319.343148 387.239221 
L 324.735842 391.510173 
L 326.533406 392.891732 
L 328.330971 394.564785 
L 331.9261 397.647503 
L 333.723665 399.482111 
L 340.913923 407.48559 
L 342.711488 409.795038 
L 348.104181 415.580701 
L 351.699311 420.11407 
L 355.29444 424.047695 
L 358.889569 429.04843 
L 360.687134 431.670605 
L 362.484698 433.967029 
L 364.282263 436.577813 
L 366.079827 439.931822 
L 367.877392 442.497572 
L 369.674957 445.261263 
L 371.472521 447.728111 
L 373.270086 449.927038 
L 375.06765 452.9167 
L 376.865215 455.488285 
L 378.662779 458.254425 
L 380.460344 460.338601 
L 382.257909 462.887667 
L 384.055473 465.13646 
L 387.650602 470.45309 
L 389.448167 471.8075 
L 391.245732 472.506846 
L 393.043296 474.670352 
L 394.840861 475.503443 
L 396.638425 475.5548 
L 398.43599 474.690469 
L 400.233555 475.822911 
L 402.031119 475.288453 
L 403.828684 478.672976 
L 405.626248 486.741193 
L 407.423813 494.17038 
L 409.221377 500.690343 
L 411.018942 503.521094 
L 412.816507 505.409801 
L 414.614071 501.559989 
L 418.2092 501.11317 
L 420.006765 501.736181 
L 421.80433 502.588738 
L 425.399459 504.749254 
L 427.197023 506.808578 
L 428.994588 508.534927 
L 430.792153 510.50836 
L 432.589717 512.711347 
L 434.387282 515.15026 
L 437.982411 519.198818 
L 439.779976 521.465511 
L 441.57754 523.495593 
L 443.375105 524.792087 
L 445.172669 526.636307 
L 446.970234 527.294776 
L 448.767798 528.152041 
L 450.565363 529.453502 
L 452.362928 530.318475 
L 454.160492 532.272378 
L 455.958057 533.802274 
L 457.755621 535.799689 
L 459.553186 537.614239 
L 463.148315 541.664607 
L 464.94588 543.001194 
L 466.743444 545.351007 
L 468.541009 546.996891 
L 470.338574 548.338713 
L 472.136138 549.984045 
L 473.933703 551.097153 
L 475.731267 552.65354 
L 477.528832 552.999949 
L 479.326396 554.057318 
L 481.123961 555.511511 
L 482.921526 556.183332 
L 486.516655 557.952622 
L 488.314219 558.506813 
L 493.706913 560.71841 
L 495.504478 561.226722 
L 499.099607 562.614264 
L 500.897172 562.791098 
L 502.694736 563.147099 
L 504.492301 564.603254 
L 506.289865 564.142555 
L 508.08743 566.017655 
L 509.884995 566.210031 
L 511.682559 567.883206 
L 513.480124 568.490641 
L 515.277688 568.695162 
L 517.075253 570.691425 
L 518.872817 571.233533 
L 520.670382 571.233533 
L 522.467947 572.228002 
L 524.265511 572.67795 
L 526.063076 572.904813 
L 527.86064 572.340021 
L 529.658205 574.058593 
L 531.45577 572.904813 
L 533.253334 574.529469 
L 535.050899 574.058593 
L 536.848463 574.529469 
L 538.646028 575.246212 
L 540.443593 575.005885 
L 542.241157 575.487974 
L 544.038722 575.731187 
L 545.836286 576.469717 
L 547.633851 575.609398 
L 549.431416 576.222041 
L 551.22898 577.348711 
L 553.026545 577.221966 
L 554.824109 576.594125 
L 556.621674 577.731343 
L 558.419238 577.731343 
L 560.216803 577.348711 
L 562.014368 578.507627 
L 563.811932 577.859695 
L 565.609497 577.988454 
L 567.407061 578.507627 
L 569.204626 578.901422 
L 571.002191 578.769731 
L 572.799755 580.106319 
L 574.59732 579.835449 
L 576.394884 580.516052 
L 578.192449 579.70069 
L 581.787578 579.970657 
L 583.585143 580.516052 
L 585.382707 579.970657 
L 587.180272 581.912567 
L 588.977836 581.208289 
L 590.775401 581.068892 
L 592.572966 582.62931 
L 594.37053 581.068892 
L 596.168095 583.803158 
L 597.965659 584.102015 
L 599.763224 582.484943 
L 601.560789 583.506491 
L 603.358353 583.654553 
L 605.155918 583.065525 
L 606.953482 584.554477 
L 608.751047 584.252274 
L 610.548612 584.252274 
L 612.346176 585.786357 
L 614.143741 585.786357 
L 617.73887 585.474856 
L 619.536435 586.100272 
L 621.333999 585.474856 
L 623.131564 586.895876 
L 624.929128 585.474856 
L 626.726693 586.575756 
L 628.524257 587.05689 
L 630.321822 587.380851 
L 632.119387 586.100272 
L 633.916951 587.543809 
L 635.714516 588.535571 
L 637.51208 588.036654 
L 639.309645 586.416641 
L 641.10721 588.87163 
L 642.904774 588.703252 
L 644.702339 588.368581 
L 646.499903 588.87163 
L 648.297468 589.896873 
L 650.095033 589.896873 
L 651.892597 589.724186 
L 653.690162 589.040711 
L 655.487726 589.896873 
L 657.285291 589.896873 
L 659.082855 589.552233 
L 660.88042 589.896873 
L 662.677985 590.948748 
L 664.475549 590.595078 
L 666.273114 591.126748 
L 668.070678 590.244471 
L 669.868243 592.579637 
L 671.665808 592.395149 
L 673.463372 590.948748 
L 675.260937 592.764968 
L 677.058501 591.665491 
L 678.856066 592.028677 
L 680.653631 592.764968 
L 682.451195 592.028677 
L 684.24876 592.764968 
L 686.046324 592.579637 
L 687.843889 593.138196 
L 691.439018 594.666488 
L 693.236583 594.278974 
L 695.034147 592.211498 
L 696.831712 592.951152 
L 698.629276 595.651815 
L 700.426841 594.086598 
L 702.224406 592.951152 
L 704.02197 595.452822 
L 705.819535 594.861645 
L 707.617099 595.452822 
L 709.414664 594.861645 
L 711.212229 595.452822 
L 713.009793 594.861645 
L 714.807358 595.254802 
L 716.604922 595.85179 
L 718.402487 596.052758 
L 720.200052 596.661715 
L 721.997616 594.861645 
L 723.795181 596.45771 
L 725.592745 597.072835 
L 727.39031 596.661715 
L 729.187874 596.661715 
L 730.985439 596.45771 
L 732.783004 596.866753 
L 734.580568 596.866753 
L 736.378133 598.119274 
L 738.175697 598.976341 
L 739.973262 598.54554 
L 739.973262 598.54554 
" style="fill:none;stroke:#0000ff;stroke-linecap:square;stroke-width:2;"/>
   </g>
   <g id="patch_3">
    <path d="M 270 630 
L 270 86.4 
" style="fill:none;stroke:#bcbcbc;stroke-linecap:square;stroke-linejoin:miter;stroke-width:0.8;"/>
   </g>
   <g id="patch_4">
    <path d="M 762.352941 630 
L 762.352941 86.4 
" style="fill:none;stroke:#bcbcbc;stroke-linecap:square;stroke-linejoin:miter;stroke-width:0.8;"/>
   </g>
   <g id="patch_5">
    <path d="M 270 630 
L 762.352941 630 
" style="fill:none;stroke:#bcbcbc;stroke-linecap:square;stroke-linejoin:miter;stroke-width:0.8;"/>
   </g>
   <g id="patch_6">
    <path d="M 270 86.4 
L 762.352941 86.4 
" style="fill:none;stroke:#bcbcbc;stroke-linecap:square;stroke-linejoin:miter;stroke-width:0.8;"/>
   </g>
   <g id="text_14">
    <!-- Difference between Gibbs Sampler and Neural Gibbs Sampler -->
    <defs>
     <path d="M 19.671875 64.796875 
L 19.671875 8.109375 
L 31.59375 8.109375 
Q 46.6875 8.109375 53.6875 14.9375 
Q 60.6875 21.78125 60.6875 36.53125 
Q 60.6875 51.171875 53.6875 57.984375 
Q 46.6875 64.796875 31.59375 64.796875 
z
M 9.8125 72.90625 
L 30.078125 72.90625 
Q 51.265625 72.90625 61.171875 64.09375 
Q 71.09375 55.28125 71.09375 36.53125 
Q 71.09375 17.671875 61.125 8.828125 
Q 51.171875 0 30.078125 0 
L 9.8125 0 
z
" id="DejaVuSans-68"/>
     <path d="M 37.109375 75.984375 
L 37.109375 68.5 
L 28.515625 68.5 
Q 23.6875 68.5 21.796875 66.546875 
Q 19.921875 64.59375 19.921875 59.515625 
L 19.921875 54.6875 
L 34.71875 54.6875 
L 34.71875 47.703125 
L 19.921875 47.703125 
L 19.921875 0 
L 10.890625 0 
L 10.890625 47.703125 
L 2.296875 47.703125 
L 2.296875 54.6875 
L 10.890625 54.6875 
L 10.890625 58.5 
Q 10.890625 67.625 15.140625 71.796875 
Q 19.390625 75.984375 28.609375 75.984375 
z
" id="DejaVuSans-102"/>
     <path d="M 48.6875 27.296875 
Q 48.6875 37.203125 44.609375 42.84375 
Q 40.53125 48.484375 33.40625 48.484375 
Q 26.265625 48.484375 22.1875 42.84375 
Q 18.109375 37.203125 18.109375 27.296875 
Q 18.109375 17.390625 22.1875 11.75 
Q 26.265625 6.109375 33.40625 6.109375 
Q 40.53125 6.109375 44.609375 11.75 
Q 48.6875 17.390625 48.6875 27.296875 
z
M 18.109375 46.390625 
Q 20.953125 51.265625 25.265625 53.625 
Q 29.59375 56 35.59375 56 
Q 45.5625 56 51.78125 48.09375 
Q 58.015625 40.1875 58.015625 27.296875 
Q 58.015625 14.40625 51.78125 6.484375 
Q 45.5625 -1.421875 35.59375 -1.421875 
Q 29.59375 -1.421875 25.265625 0.953125 
Q 20.953125 3.328125 18.109375 8.203125 
L 18.109375 0 
L 9.078125 0 
L 9.078125 75.984375 
L 18.109375 75.984375 
z
" id="DejaVuSans-98"/>
     <path d="M 4.203125 54.6875 
L 13.1875 54.6875 
L 24.421875 12.015625 
L 35.59375 54.6875 
L 46.1875 54.6875 
L 57.421875 12.015625 
L 68.609375 54.6875 
L 77.59375 54.6875 
L 63.28125 0 
L 52.6875 0 
L 40.921875 44.828125 
L 29.109375 0 
L 18.5 0 
z
" id="DejaVuSans-119"/>
     <path d="M 9.421875 75.984375 
L 18.40625 75.984375 
L 18.40625 0 
L 9.421875 0 
z
" id="DejaVuSans-108"/>
     <path d="M 9.8125 72.90625 
L 23.09375 72.90625 
L 55.421875 11.921875 
L 55.421875 72.90625 
L 64.984375 72.90625 
L 64.984375 0 
L 51.703125 0 
L 19.390625 60.984375 
L 19.390625 0 
L 9.8125 0 
z
" id="DejaVuSans-78"/>
    </defs>
    <g transform="translate(268.738971 80.4)scale(0.16 -0.16)">
     <use xlink:href="#DejaVuSans-68"/>
     <use x="77.001953" xlink:href="#DejaVuSans-105"/>
     <use x="104.785156" xlink:href="#DejaVuSans-102"/>
     <use x="139.990234" xlink:href="#DejaVuSans-102"/>
     <use x="175.195312" xlink:href="#DejaVuSans-101"/>
     <use x="236.71875" xlink:href="#DejaVuSans-114"/>
     <use x="277.800781" xlink:href="#DejaVuSans-101"/>
     <use x="339.324219" xlink:href="#DejaVuSans-110"/>
     <use x="402.703125" xlink:href="#DejaVuSans-99"/>
     <use x="457.683594" xlink:href="#DejaVuSans-101"/>
     <use x="519.207031" xlink:href="#DejaVuSans-32"/>
     <use x="550.994141" xlink:href="#DejaVuSans-98"/>
     <use x="614.470703" xlink:href="#DejaVuSans-101"/>
     <use x="675.994141" xlink:href="#DejaVuSans-116"/>
     <use x="715.203125" xlink:href="#DejaVuSans-119"/>
     <use x="796.990234" xlink:href="#DejaVuSans-101"/>
     <use x="858.513672" xlink:href="#DejaVuSans-101"/>
     <use x="920.037109" xlink:href="#DejaVuSans-110"/>
     <use x="983.416016" xlink:href="#DejaVuSans-32"/>
     <use x="1015.203125" xlink:href="#DejaVuSans-71"/>
     <use x="1092.693359" xlink:href="#DejaVuSans-105"/>
     <use x="1120.476562" xlink:href="#DejaVuSans-98"/>
     <use x="1183.953125" xlink:href="#DejaVuSans-98"/>
     <use x="1247.429688" xlink:href="#DejaVuSans-115"/>
     <use x="1299.529297" xlink:href="#DejaVuSans-32"/>
     <use x="1331.316406" xlink:href="#DejaVuSans-83"/>
     <use x="1394.792969" xlink:href="#DejaVuSans-97"/>
     <use x="1456.072266" xlink:href="#DejaVuSans-109"/>
     <use x="1553.484375" xlink:href="#DejaVuSans-112"/>
     <use x="1616.960938" xlink:href="#DejaVuSans-108"/>
     <use x="1644.744141" xlink:href="#DejaVuSans-101"/>
     <use x="1706.267578" xlink:href="#DejaVuSans-114"/>
     <use x="1747.380859" xlink:href="#DejaVuSans-32"/>
     <use x="1779.167969" xlink:href="#DejaVuSans-97"/>
     <use x="1840.447266" xlink:href="#DejaVuSans-110"/>
     <use x="1903.826172" xlink:href="#DejaVuSans-100"/>
     <use x="1967.302734" xlink:href="#DejaVuSans-32"/>
     <use x="1999.089844" xlink:href="#DejaVuSans-78"/>
     <use x="2073.894531" xlink:href="#DejaVuSans-101"/>
     <use x="2135.417969" xlink:href="#DejaVuSans-117"/>
     <use x="2198.796875" xlink:href="#DejaVuSans-114"/>
     <use x="2239.910156" xlink:href="#DejaVuSans-97"/>
     <use x="2301.189453" xlink:href="#DejaVuSans-108"/>
     <use x="2328.972656" xlink:href="#DejaVuSans-32"/>
     <use x="2360.759766" xlink:href="#DejaVuSans-71"/>
     <use x="2438.25" xlink:href="#DejaVuSans-105"/>
     <use x="2466.033203" xlink:href="#DejaVuSans-98"/>
     <use x="2529.509766" xlink:href="#DejaVuSans-98"/>
     <use x="2592.986328" xlink:href="#DejaVuSans-115"/>
     <use x="2645.085938" xlink:href="#DejaVuSans-32"/>
     <use x="2676.873047" xlink:href="#DejaVuSans-83"/>
     <use x="2740.349609" xlink:href="#DejaVuSans-97"/>
     <use x="2801.628906" xlink:href="#DejaVuSans-109"/>
     <use x="2899.041016" xlink:href="#DejaVuSans-112"/>
     <use x="2962.517578" xlink:href="#DejaVuSans-108"/>
     <use x="2990.300781" xlink:href="#DejaVuSans-101"/>
     <use x="3051.824219" xlink:href="#DejaVuSans-114"/>
    </g>
   </g>
   <g id="legend_1">
    <g id="patch_7">
     <path d="M 556.272941 138.69875 
L 752.552941 138.69875 
Q 755.352941 138.69875 755.352941 135.89875 
L 755.352941 96.2 
Q 755.352941 93.4 752.552941 93.4 
L 556.272941 93.4 
Q 553.472941 93.4 553.472941 96.2 
L 553.472941 135.89875 
Q 553.472941 138.69875 556.272941 138.69875 
z
" style="fill:#eeeeee;opacity:0.8;stroke:#cccccc;stroke-linejoin:miter;stroke-width:0.5;"/>
    </g>
    <g id="line2d_73">
     <path d="M 559.072941 104.737812 
L 587.072941 104.737812 
" style="fill:none;stroke:#ff0000;stroke-linecap:square;stroke-width:2;"/>
    </g>
    <g id="line2d_74"/>
    <g id="text_15">
     <!-- mean and covariance -->
     <defs>
      <path d="M 2.984375 54.6875 
L 12.5 54.6875 
L 29.59375 8.796875 
L 46.6875 54.6875 
L 56.203125 54.6875 
L 35.6875 0 
L 23.484375 0 
z
" id="DejaVuSans-118"/>
     </defs>
     <g transform="translate(598.272941 109.637812)scale(0.14 -0.14)">
      <use xlink:href="#DejaVuSans-109"/>
      <use x="97.412109" xlink:href="#DejaVuSans-101"/>
      <use x="158.935547" xlink:href="#DejaVuSans-97"/>
      <use x="220.214844" xlink:href="#DejaVuSans-110"/>
      <use x="283.59375" xlink:href="#DejaVuSans-32"/>
      <use x="315.380859" xlink:href="#DejaVuSans-97"/>
      <use x="376.660156" xlink:href="#DejaVuSans-110"/>
      <use x="440.039062" xlink:href="#DejaVuSans-100"/>
      <use x="503.515625" xlink:href="#DejaVuSans-32"/>
      <use x="535.302734" xlink:href="#DejaVuSans-99"/>
      <use x="590.283203" xlink:href="#DejaVuSans-111"/>
      <use x="651.464844" xlink:href="#DejaVuSans-118"/>
      <use x="710.644531" xlink:href="#DejaVuSans-97"/>
      <use x="771.923828" xlink:href="#DejaVuSans-114"/>
      <use x="813.037109" xlink:href="#DejaVuSans-105"/>
      <use x="840.820312" xlink:href="#DejaVuSans-97"/>
      <use x="902.099609" xlink:href="#DejaVuSans-110"/>
      <use x="965.478516" xlink:href="#DejaVuSans-99"/>
      <use x="1020.458984" xlink:href="#DejaVuSans-101"/>
     </g>
    </g>
    <g id="line2d_75">
     <path d="M 559.072941 125.287187 
L 587.072941 125.287187 
" style="fill:none;stroke:#0000ff;stroke-linecap:square;stroke-width:2;"/>
    </g>
    <g id="line2d_76"/>
    <g id="text_16">
     <!-- cluster assignment -->
     <defs>
      <path d="M 45.40625 27.984375 
Q 45.40625 37.75 41.375 43.109375 
Q 37.359375 48.484375 30.078125 48.484375 
Q 22.859375 48.484375 18.828125 43.109375 
Q 14.796875 37.75 14.796875 27.984375 
Q 14.796875 18.265625 18.828125 12.890625 
Q 22.859375 7.515625 30.078125 7.515625 
Q 37.359375 7.515625 41.375 12.890625 
Q 45.40625 18.265625 45.40625 27.984375 
z
M 54.390625 6.78125 
Q 54.390625 -7.171875 48.1875 -13.984375 
Q 42 -20.796875 29.203125 -20.796875 
Q 24.46875 -20.796875 20.265625 -20.09375 
Q 16.0625 -19.390625 12.109375 -17.921875 
L 12.109375 -9.1875 
Q 16.0625 -11.328125 19.921875 -12.34375 
Q 23.78125 -13.375 27.78125 -13.375 
Q 36.625 -13.375 41.015625 -8.765625 
Q 45.40625 -4.15625 45.40625 5.171875 
L 45.40625 9.625 
Q 42.625 4.78125 38.28125 2.390625 
Q 33.9375 0 27.875 0 
Q 17.828125 0 11.671875 7.65625 
Q 5.515625 15.328125 5.515625 27.984375 
Q 5.515625 40.671875 11.671875 48.328125 
Q 17.828125 56 27.875 56 
Q 33.9375 56 38.28125 53.609375 
Q 42.625 51.21875 45.40625 46.390625 
L 45.40625 54.6875 
L 54.390625 54.6875 
z
" id="DejaVuSans-103"/>
     </defs>
     <g transform="translate(598.272941 130.187187)scale(0.14 -0.14)">
      <use xlink:href="#DejaVuSans-99"/>
      <use x="54.980469" xlink:href="#DejaVuSans-108"/>
      <use x="82.763672" xlink:href="#DejaVuSans-117"/>
      <use x="146.142578" xlink:href="#DejaVuSans-115"/>
      <use x="198.242188" xlink:href="#DejaVuSans-116"/>
      <use x="237.451172" xlink:href="#DejaVuSans-101"/>
      <use x="298.974609" xlink:href="#DejaVuSans-114"/>
      <use x="340.087891" xlink:href="#DejaVuSans-32"/>
      <use x="371.875" xlink:href="#DejaVuSans-97"/>
      <use x="433.154297" xlink:href="#DejaVuSans-115"/>
      <use x="485.253906" xlink:href="#DejaVuSans-115"/>
      <use x="537.353516" xlink:href="#DejaVuSans-105"/>
      <use x="565.136719" xlink:href="#DejaVuSans-103"/>
      <use x="628.613281" xlink:href="#DejaVuSans-110"/>
      <use x="691.992188" xlink:href="#DejaVuSans-109"/>
      <use x="789.404297" xlink:href="#DejaVuSans-101"/>
      <use x="850.927734" xlink:href="#DejaVuSans-110"/>
      <use x="914.306641" xlink:href="#DejaVuSans-116"/>
     </g>
    </g>
   </g>
  </g>
  <g id="axes_2">
   <g id="patch_8">
    <path d="M 860.823529 630 
L 1353.176471 630 
L 1353.176471 86.4 
L 860.823529 86.4 
z
" style="fill:#eeeeee;"/>
   </g>
   <g id="matplotlib.axis_3">
    <g id="xtick_7">
     <g id="line2d_77">
      <path clip-path="url(#p980531b169)" d="M 932.935829 630 
L 932.935829 86.4 
" style="fill:none;stroke:#b2b2b2;stroke-dasharray:1.85,0.8;stroke-dashoffset:0;stroke-width:0.5;"/>
     </g>
     <g id="line2d_78">
      <g>
       <use style="stroke:#000000;stroke-width:0.8;" x="932.935829" xlink:href="#m98c3dda426" y="630"/>
      </g>
     </g>
     <g id="text_17">
      <!-- 2 -->
      <g transform="translate(928.482079 644.137812)scale(0.14 -0.14)">
       <use xlink:href="#DejaVuSans-50"/>
      </g>
     </g>
    </g>
    <g id="xtick_8">
     <g id="line2d_79">
      <path clip-path="url(#p980531b169)" d="M 1032.40107 630 
L 1032.40107 86.4 
" style="fill:none;stroke:#b2b2b2;stroke-dasharray:1.85,0.8;stroke-dashoffset:0;stroke-width:0.5;"/>
     </g>
     <g id="line2d_80">
      <g>
       <use style="stroke:#000000;stroke-width:0.8;" x="1032.40107" xlink:href="#m98c3dda426" y="630"/>
      </g>
     </g>
     <g id="text_18">
      <!-- 4 -->
      <defs>
       <path d="M 37.796875 64.3125 
L 12.890625 25.390625 
L 37.796875 25.390625 
z
M 35.203125 72.90625 
L 47.609375 72.90625 
L 47.609375 25.390625 
L 58.015625 25.390625 
L 58.015625 17.1875 
L 47.609375 17.1875 
L 47.609375 0 
L 37.796875 0 
L 37.796875 17.1875 
L 4.890625 17.1875 
L 4.890625 26.703125 
z
" id="DejaVuSans-52"/>
      </defs>
      <g transform="translate(1027.94732 644.137812)scale(0.14 -0.14)">
       <use xlink:href="#DejaVuSans-52"/>
      </g>
     </g>
    </g>
    <g id="xtick_9">
     <g id="line2d_81">
      <path clip-path="url(#p980531b169)" d="M 1131.86631 630 
L 1131.86631 86.4 
" style="fill:none;stroke:#b2b2b2;stroke-dasharray:1.85,0.8;stroke-dashoffset:0;stroke-width:0.5;"/>
     </g>
     <g id="line2d_82">
      <g>
       <use style="stroke:#000000;stroke-width:0.8;" x="1131.86631" xlink:href="#m98c3dda426" y="630"/>
      </g>
     </g>
     <g id="text_19">
      <!-- 6 -->
      <defs>
       <path d="M 33.015625 40.375 
Q 26.375 40.375 22.484375 35.828125 
Q 18.609375 31.296875 18.609375 23.390625 
Q 18.609375 15.53125 22.484375 10.953125 
Q 26.375 6.390625 33.015625 6.390625 
Q 39.65625 6.390625 43.53125 10.953125 
Q 47.40625 15.53125 47.40625 23.390625 
Q 47.40625 31.296875 43.53125 35.828125 
Q 39.65625 40.375 33.015625 40.375 
z
M 52.59375 71.296875 
L 52.59375 62.3125 
Q 48.875 64.0625 45.09375 64.984375 
Q 41.3125 65.921875 37.59375 65.921875 
Q 27.828125 65.921875 22.671875 59.328125 
Q 17.53125 52.734375 16.796875 39.40625 
Q 19.671875 43.65625 24.015625 45.921875 
Q 28.375 48.1875 33.59375 48.1875 
Q 44.578125 48.1875 50.953125 41.515625 
Q 57.328125 34.859375 57.328125 23.390625 
Q 57.328125 12.15625 50.6875 5.359375 
Q 44.046875 -1.421875 33.015625 -1.421875 
Q 20.359375 -1.421875 13.671875 8.265625 
Q 6.984375 17.96875 6.984375 36.375 
Q 6.984375 53.65625 15.1875 63.9375 
Q 23.390625 74.21875 37.203125 74.21875 
Q 40.921875 74.21875 44.703125 73.484375 
Q 48.484375 72.75 52.59375 71.296875 
z
" id="DejaVuSans-54"/>
      </defs>
      <g transform="translate(1127.41256 644.137812)scale(0.14 -0.14)">
       <use xlink:href="#DejaVuSans-54"/>
      </g>
     </g>
    </g>
    <g id="xtick_10">
     <g id="line2d_83">
      <path clip-path="url(#p980531b169)" d="M 1231.331551 630 
L 1231.331551 86.4 
" style="fill:none;stroke:#b2b2b2;stroke-dasharray:1.85,0.8;stroke-dashoffset:0;stroke-width:0.5;"/>
     </g>
     <g id="line2d_84">
      <g>
       <use style="stroke:#000000;stroke-width:0.8;" x="1231.331551" xlink:href="#m98c3dda426" y="630"/>
      </g>
     </g>
     <g id="text_20">
      <!-- 8 -->
      <defs>
       <path d="M 31.78125 34.625 
Q 24.75 34.625 20.71875 30.859375 
Q 16.703125 27.09375 16.703125 20.515625 
Q 16.703125 13.921875 20.71875 10.15625 
Q 24.75 6.390625 31.78125 6.390625 
Q 38.8125 6.390625 42.859375 10.171875 
Q 46.921875 13.96875 46.921875 20.515625 
Q 46.921875 27.09375 42.890625 30.859375 
Q 38.875 34.625 31.78125 34.625 
z
M 21.921875 38.8125 
Q 15.578125 40.375 12.03125 44.71875 
Q 8.5 49.078125 8.5 55.328125 
Q 8.5 64.0625 14.71875 69.140625 
Q 20.953125 74.21875 31.78125 74.21875 
Q 42.671875 74.21875 48.875 69.140625 
Q 55.078125 64.0625 55.078125 55.328125 
Q 55.078125 49.078125 51.53125 44.71875 
Q 48 40.375 41.703125 38.8125 
Q 48.828125 37.15625 52.796875 32.3125 
Q 56.78125 27.484375 56.78125 20.515625 
Q 56.78125 9.90625 50.3125 4.234375 
Q 43.84375 -1.421875 31.78125 -1.421875 
Q 19.734375 -1.421875 13.25 4.234375 
Q 6.78125 9.90625 6.78125 20.515625 
Q 6.78125 27.484375 10.78125 32.3125 
Q 14.796875 37.15625 21.921875 38.8125 
z
M 18.3125 54.390625 
Q 18.3125 48.734375 21.84375 45.5625 
Q 25.390625 42.390625 31.78125 42.390625 
Q 38.140625 42.390625 41.71875 45.5625 
Q 45.3125 48.734375 45.3125 54.390625 
Q 45.3125 60.0625 41.71875 63.234375 
Q 38.140625 66.40625 31.78125 66.40625 
Q 25.390625 66.40625 21.84375 63.234375 
Q 18.3125 60.0625 18.3125 54.390625 
z
" id="DejaVuSans-56"/>
      </defs>
      <g transform="translate(1226.877801 644.137812)scale(0.14 -0.14)">
       <use xlink:href="#DejaVuSans-56"/>
      </g>
     </g>
    </g>
    <g id="xtick_11">
     <g id="line2d_85">
      <path clip-path="url(#p980531b169)" d="M 1330.796791 630 
L 1330.796791 86.4 
" style="fill:none;stroke:#b2b2b2;stroke-dasharray:1.85,0.8;stroke-dashoffset:0;stroke-width:0.5;"/>
     </g>
     <g id="line2d_86">
      <g>
       <use style="stroke:#000000;stroke-width:0.8;" x="1330.796791" xlink:href="#m98c3dda426" y="630"/>
      </g>
     </g>
     <g id="text_21">
      <!-- 10 -->
      <g transform="translate(1321.889291 644.137812)scale(0.14 -0.14)">
       <use xlink:href="#DejaVuSans-49"/>
       <use x="63.623047" xlink:href="#DejaVuSans-48"/>
      </g>
     </g>
    </g>
    <g id="text_22">
     <!-- Update Steps -->
     <defs>
      <path d="M 8.6875 72.90625 
L 18.609375 72.90625 
L 18.609375 28.609375 
Q 18.609375 16.890625 22.84375 11.734375 
Q 27.09375 6.59375 36.625 6.59375 
Q 46.09375 6.59375 50.34375 11.734375 
Q 54.59375 16.890625 54.59375 28.609375 
L 54.59375 72.90625 
L 64.5 72.90625 
L 64.5 27.390625 
Q 64.5 13.140625 57.4375 5.859375 
Q 50.390625 -1.421875 36.625 -1.421875 
Q 22.796875 -1.421875 15.734375 5.859375 
Q 8.6875 13.140625 8.6875 27.390625 
z
" id="DejaVuSans-85"/>
     </defs>
     <g transform="translate(1039.625 666.24625)scale(0.2 -0.2)">
      <use xlink:href="#DejaVuSans-85"/>
      <use x="73.193359" xlink:href="#DejaVuSans-112"/>
      <use x="136.669922" xlink:href="#DejaVuSans-100"/>
      <use x="200.146484" xlink:href="#DejaVuSans-97"/>
      <use x="261.425781" xlink:href="#DejaVuSans-116"/>
      <use x="300.634766" xlink:href="#DejaVuSans-101"/>
      <use x="362.158203" xlink:href="#DejaVuSans-32"/>
      <use x="393.945312" xlink:href="#DejaVuSans-83"/>
      <use x="457.421875" xlink:href="#DejaVuSans-116"/>
      <use x="496.630859" xlink:href="#DejaVuSans-101"/>
      <use x="558.154297" xlink:href="#DejaVuSans-112"/>
      <use x="621.630859" xlink:href="#DejaVuSans-115"/>
     </g>
    </g>
   </g>
   <g id="matplotlib.axis_4">
    <g id="ytick_54">
     <g id="line2d_87">
      <path clip-path="url(#p980531b169)" d="M 860.823529 502.799921 
L 1353.176471 502.799921 
" style="fill:none;stroke:#b2b2b2;stroke-dasharray:1.85,0.8;stroke-dashoffset:0;stroke-width:0.5;"/>
     </g>
     <g id="line2d_88">
      <g>
       <use style="stroke:#000000;stroke-width:0.8;" x="860.823529" xlink:href="#m4deee8dc8a" y="502.799921"/>
      </g>
     </g>
     <g id="text_23">
      <!-- $\mathdefault{10^{-1}}$ -->
      <g transform="translate(829.183529 508.118827)scale(0.14 -0.14)">
       <use transform="translate(0 0.684375)" xlink:href="#DejaVuSans-49"/>
       <use transform="translate(63.623047 0.684375)" xlink:href="#DejaVuSans-48"/>
       <use transform="translate(128.203125 38.965625)scale(0.7)" xlink:href="#DejaVuSans-45"/>
       <use transform="translate(153.461914 38.965625)scale(0.7)" xlink:href="#DejaVuSans-49"/>
      </g>
     </g>
    </g>
    <g id="ytick_55">
     <g id="line2d_89">
      <path clip-path="url(#p980531b169)" d="M 860.823529 372.615816 
L 1353.176471 372.615816 
" style="fill:none;stroke:#b2b2b2;stroke-dasharray:1.85,0.8;stroke-dashoffset:0;stroke-width:0.5;"/>
     </g>
     <g id="line2d_90">
      <g>
       <use style="stroke:#000000;stroke-width:0.8;" x="860.823529" xlink:href="#m4deee8dc8a" y="372.615816"/>
      </g>
     </g>
     <g id="text_24">
      <!-- $\mathdefault{10^{0}}$ -->
      <g transform="translate(832.683529 377.934722)scale(0.14 -0.14)">
       <use transform="translate(0 0.765625)" xlink:href="#DejaVuSans-49"/>
       <use transform="translate(63.623047 0.765625)" xlink:href="#DejaVuSans-48"/>
       <use transform="translate(128.203125 39.046875)scale(0.7)" xlink:href="#DejaVuSans-48"/>
      </g>
     </g>
    </g>
    <g id="ytick_56">
     <g id="line2d_91">
      <path clip-path="url(#p980531b169)" d="M 860.823529 242.43171 
L 1353.176471 242.43171 
" style="fill:none;stroke:#b2b2b2;stroke-dasharray:1.85,0.8;stroke-dashoffset:0;stroke-width:0.5;"/>
     </g>
     <g id="line2d_92">
      <g>
       <use style="stroke:#000000;stroke-width:0.8;" x="860.823529" xlink:href="#m4deee8dc8a" y="242.43171"/>
      </g>
     </g>
     <g id="text_25">
      <!-- $\mathdefault{10^{1}}$ -->
      <g transform="translate(832.683529 247.750617)scale(0.14 -0.14)">
       <use transform="translate(0 0.684375)" xlink:href="#DejaVuSans-49"/>
       <use transform="translate(63.623047 0.684375)" xlink:href="#DejaVuSans-48"/>
       <use transform="translate(128.203125 38.965625)scale(0.7)" xlink:href="#DejaVuSans-49"/>
      </g>
     </g>
    </g>
    <g id="ytick_57">
     <g id="line2d_93">
      <path clip-path="url(#p980531b169)" d="M 860.823529 112.247605 
L 1353.176471 112.247605 
" style="fill:none;stroke:#b2b2b2;stroke-dasharray:1.85,0.8;stroke-dashoffset:0;stroke-width:0.5;"/>
     </g>
     <g id="line2d_94">
      <g>
       <use style="stroke:#000000;stroke-width:0.8;" x="860.823529" xlink:href="#m4deee8dc8a" y="112.247605"/>
      </g>
     </g>
     <g id="text_26">
      <!-- $\mathdefault{10^{2}}$ -->
      <g transform="translate(832.683529 117.566512)scale(0.14 -0.14)">
       <use transform="translate(0 0.765625)" xlink:href="#DejaVuSans-49"/>
       <use transform="translate(63.623047 0.765625)" xlink:href="#DejaVuSans-48"/>
       <use transform="translate(128.203125 39.046875)scale(0.7)" xlink:href="#DejaVuSans-50"/>
      </g>
     </g>
    </g>
    <g id="ytick_58">
     <g id="line2d_95">
      <g>
       <use style="stroke:#000000;stroke-width:0.6;" x="860.823529" xlink:href="#mf23eef5f9e" y="593.794705"/>
      </g>
     </g>
    </g>
    <g id="ytick_59">
     <g id="line2d_96">
      <g>
       <use style="stroke:#000000;stroke-width:0.6;" x="860.823529" xlink:href="#mf23eef5f9e" y="570.870422"/>
      </g>
     </g>
    </g>
    <g id="ytick_60">
     <g id="line2d_97">
      <g>
       <use style="stroke:#000000;stroke-width:0.6;" x="860.823529" xlink:href="#mf23eef5f9e" y="554.605385"/>
      </g>
     </g>
    </g>
    <g id="ytick_61">
     <g id="line2d_98">
      <g>
       <use style="stroke:#000000;stroke-width:0.6;" x="860.823529" xlink:href="#mf23eef5f9e" y="541.989241"/>
      </g>
     </g>
    </g>
    <g id="ytick_62">
     <g id="line2d_99">
      <g>
       <use style="stroke:#000000;stroke-width:0.6;" x="860.823529" xlink:href="#mf23eef5f9e" y="531.681102"/>
      </g>
     </g>
    </g>
    <g id="ytick_63">
     <g id="line2d_100">
      <g>
       <use style="stroke:#000000;stroke-width:0.6;" x="860.823529" xlink:href="#mf23eef5f9e" y="522.965694"/>
      </g>
     </g>
    </g>
    <g id="ytick_64">
     <g id="line2d_101">
      <g>
       <use style="stroke:#000000;stroke-width:0.6;" x="860.823529" xlink:href="#mf23eef5f9e" y="515.416064"/>
      </g>
     </g>
    </g>
    <g id="ytick_65">
     <g id="line2d_102">
      <g>
       <use style="stroke:#000000;stroke-width:0.6;" x="860.823529" xlink:href="#mf23eef5f9e" y="508.756819"/>
      </g>
     </g>
    </g>
    <g id="ytick_66">
     <g id="line2d_103">
      <g>
       <use style="stroke:#000000;stroke-width:0.6;" x="860.823529" xlink:href="#mf23eef5f9e" y="463.6106"/>
      </g>
     </g>
    </g>
    <g id="ytick_67">
     <g id="line2d_104">
      <g>
       <use style="stroke:#000000;stroke-width:0.6;" x="860.823529" xlink:href="#mf23eef5f9e" y="440.686317"/>
      </g>
     </g>
    </g>
    <g id="ytick_68">
     <g id="line2d_105">
      <g>
       <use style="stroke:#000000;stroke-width:0.6;" x="860.823529" xlink:href="#mf23eef5f9e" y="424.421279"/>
      </g>
     </g>
    </g>
    <g id="ytick_69">
     <g id="line2d_106">
      <g>
       <use style="stroke:#000000;stroke-width:0.6;" x="860.823529" xlink:href="#mf23eef5f9e" y="411.805136"/>
      </g>
     </g>
    </g>
    <g id="ytick_70">
     <g id="line2d_107">
      <g>
       <use style="stroke:#000000;stroke-width:0.6;" x="860.823529" xlink:href="#mf23eef5f9e" y="401.496996"/>
      </g>
     </g>
    </g>
    <g id="ytick_71">
     <g id="line2d_108">
      <g>
       <use style="stroke:#000000;stroke-width:0.6;" x="860.823529" xlink:href="#mf23eef5f9e" y="392.781589"/>
      </g>
     </g>
    </g>
    <g id="ytick_72">
     <g id="line2d_109">
      <g>
       <use style="stroke:#000000;stroke-width:0.6;" x="860.823529" xlink:href="#mf23eef5f9e" y="385.231959"/>
      </g>
     </g>
    </g>
    <g id="ytick_73">
     <g id="line2d_110">
      <g>
       <use style="stroke:#000000;stroke-width:0.6;" x="860.823529" xlink:href="#mf23eef5f9e" y="378.572713"/>
      </g>
     </g>
    </g>
    <g id="ytick_74">
     <g id="line2d_111">
      <g>
       <use style="stroke:#000000;stroke-width:0.6;" x="860.823529" xlink:href="#mf23eef5f9e" y="333.426495"/>
      </g>
     </g>
    </g>
    <g id="ytick_75">
     <g id="line2d_112">
      <g>
       <use style="stroke:#000000;stroke-width:0.6;" x="860.823529" xlink:href="#mf23eef5f9e" y="310.502212"/>
      </g>
     </g>
    </g>
    <g id="ytick_76">
     <g id="line2d_113">
      <g>
       <use style="stroke:#000000;stroke-width:0.6;" x="860.823529" xlink:href="#mf23eef5f9e" y="294.237174"/>
      </g>
     </g>
    </g>
    <g id="ytick_77">
     <g id="line2d_114">
      <g>
       <use style="stroke:#000000;stroke-width:0.6;" x="860.823529" xlink:href="#mf23eef5f9e" y="281.621031"/>
      </g>
     </g>
    </g>
    <g id="ytick_78">
     <g id="line2d_115">
      <g>
       <use style="stroke:#000000;stroke-width:0.6;" x="860.823529" xlink:href="#mf23eef5f9e" y="271.312891"/>
      </g>
     </g>
    </g>
    <g id="ytick_79">
     <g id="line2d_116">
      <g>
       <use style="stroke:#000000;stroke-width:0.6;" x="860.823529" xlink:href="#mf23eef5f9e" y="262.597483"/>
      </g>
     </g>
    </g>
    <g id="ytick_80">
     <g id="line2d_117">
      <g>
       <use style="stroke:#000000;stroke-width:0.6;" x="860.823529" xlink:href="#mf23eef5f9e" y="255.047854"/>
      </g>
     </g>
    </g>
    <g id="ytick_81">
     <g id="line2d_118">
      <g>
       <use style="stroke:#000000;stroke-width:0.6;" x="860.823529" xlink:href="#mf23eef5f9e" y="248.388608"/>
      </g>
     </g>
    </g>
    <g id="ytick_82">
     <g id="line2d_119">
      <g>
       <use style="stroke:#000000;stroke-width:0.6;" x="860.823529" xlink:href="#mf23eef5f9e" y="203.24239"/>
      </g>
     </g>
    </g>
    <g id="ytick_83">
     <g id="line2d_120">
      <g>
       <use style="stroke:#000000;stroke-width:0.6;" x="860.823529" xlink:href="#mf23eef5f9e" y="180.318107"/>
      </g>
     </g>
    </g>
    <g id="ytick_84">
     <g id="line2d_121">
      <g>
       <use style="stroke:#000000;stroke-width:0.6;" x="860.823529" xlink:href="#mf23eef5f9e" y="164.053069"/>
      </g>
     </g>
    </g>
    <g id="ytick_85">
     <g id="line2d_122">
      <g>
       <use style="stroke:#000000;stroke-width:0.6;" x="860.823529" xlink:href="#mf23eef5f9e" y="151.436926"/>
      </g>
     </g>
    </g>
    <g id="ytick_86">
     <g id="line2d_123">
      <g>
       <use style="stroke:#000000;stroke-width:0.6;" x="860.823529" xlink:href="#mf23eef5f9e" y="141.128786"/>
      </g>
     </g>
    </g>
    <g id="ytick_87">
     <g id="line2d_124">
      <g>
       <use style="stroke:#000000;stroke-width:0.6;" x="860.823529" xlink:href="#mf23eef5f9e" y="132.413378"/>
      </g>
     </g>
    </g>
    <g id="ytick_88">
     <g id="line2d_125">
      <g>
       <use style="stroke:#000000;stroke-width:0.6;" x="860.823529" xlink:href="#mf23eef5f9e" y="124.863749"/>
      </g>
     </g>
    </g>
    <g id="ytick_89">
     <g id="line2d_126">
      <g>
       <use style="stroke:#000000;stroke-width:0.6;" x="860.823529" xlink:href="#mf23eef5f9e" y="118.204503"/>
      </g>
     </g>
    </g>
    <g id="text_27">
     <!-- Symmetric KL -->
     <g transform="translate(821.024154 427.717188)rotate(-90)scale(0.2 -0.2)">
      <use xlink:href="#DejaVuSans-83"/>
      <use x="63.476562" xlink:href="#DejaVuSans-121"/>
      <use x="122.65625" xlink:href="#DejaVuSans-109"/>
      <use x="220.068359" xlink:href="#DejaVuSans-109"/>
      <use x="317.480469" xlink:href="#DejaVuSans-101"/>
      <use x="379.003906" xlink:href="#DejaVuSans-116"/>
      <use x="418.212891" xlink:href="#DejaVuSans-114"/>
      <use x="459.326172" xlink:href="#DejaVuSans-105"/>
      <use x="487.109375" xlink:href="#DejaVuSans-99"/>
      <use x="542.089844" xlink:href="#DejaVuSans-32"/>
      <use x="573.876953" xlink:href="#DejaVuSans-75"/>
      <use x="639.453125" xlink:href="#DejaVuSans-76"/>
     </g>
    </g>
   </g>
   <g id="line2d_127">
    <path clip-path="url(#p980531b169)" d="M 883.203209 111.109091 
L 932.935829 277.692598 
L 982.668449 350.991911 
L 1032.40107 370.906877 
L 1082.13369 379.221952 
L 1131.86631 383.790259 
L 1181.59893 385.075372 
L 1231.331551 389.648347 
L 1281.064171 390.590243 
L 1330.796791 391.156611 
" style="fill:none;stroke:#ff0000;stroke-linecap:square;stroke-width:2;"/>
   </g>
   <g id="line2d_128">
    <path clip-path="url(#p980531b169)" d="M 883.203209 460.144517 
L 932.935829 436.726503 
L 982.668449 485.195565 
L 1032.40107 526.120839 
L 1082.13369 553.016496 
L 1131.86631 574.002384 
L 1181.59893 587.020505 
L 1231.331551 599.624358 
L 1281.064171 605.290909 
L 1330.796791 605.102749 
" style="fill:none;stroke:#0000ff;stroke-linecap:square;stroke-width:2;"/>
   </g>
   <g id="patch_9">
    <path d="M 860.823529 630 
L 860.823529 86.4 
" style="fill:none;stroke:#bcbcbc;stroke-linecap:square;stroke-linejoin:miter;stroke-width:0.8;"/>
   </g>
   <g id="patch_10">
    <path d="M 1353.176471 630 
L 1353.176471 86.4 
" style="fill:none;stroke:#bcbcbc;stroke-linecap:square;stroke-linejoin:miter;stroke-width:0.8;"/>
   </g>
   <g id="patch_11">
    <path d="M 860.823529 630 
L 1353.176471 630 
" style="fill:none;stroke:#bcbcbc;stroke-linecap:square;stroke-linejoin:miter;stroke-width:0.8;"/>
   </g>
   <g id="patch_12">
    <path d="M 860.823529 86.4 
L 1353.176471 86.4 
" style="fill:none;stroke:#bcbcbc;stroke-linecap:square;stroke-linejoin:miter;stroke-width:0.8;"/>
   </g>
   <g id="text_28">
    <!-- Detailed Balance -->
    <defs>
     <path d="M 19.671875 34.8125 
L 19.671875 8.109375 
L 35.5 8.109375 
Q 43.453125 8.109375 47.28125 11.40625 
Q 51.125 14.703125 51.125 21.484375 
Q 51.125 28.328125 47.28125 31.5625 
Q 43.453125 34.8125 35.5 34.8125 
z
M 19.671875 64.796875 
L 19.671875 42.828125 
L 34.28125 42.828125 
Q 41.5 42.828125 45.03125 45.53125 
Q 48.578125 48.25 48.578125 53.8125 
Q 48.578125 59.328125 45.03125 62.0625 
Q 41.5 64.796875 34.28125 64.796875 
z
M 9.8125 72.90625 
L 35.015625 72.90625 
Q 46.296875 72.90625 52.390625 68.21875 
Q 58.5 63.53125 58.5 54.890625 
Q 58.5 48.1875 55.375 44.234375 
Q 52.25 40.28125 46.1875 39.3125 
Q 53.46875 37.75 57.5 32.78125 
Q 61.53125 27.828125 61.53125 20.40625 
Q 61.53125 10.640625 54.890625 5.3125 
Q 48.25 0 35.984375 0 
L 9.8125 0 
z
" id="DejaVuSans-66"/>
    </defs>
    <g transform="translate(1021.978125 80.4)scale(0.2 -0.2)">
     <use xlink:href="#DejaVuSans-68"/>
     <use x="77.001953" xlink:href="#DejaVuSans-101"/>
     <use x="138.525391" xlink:href="#DejaVuSans-116"/>
     <use x="177.734375" xlink:href="#DejaVuSans-97"/>
     <use x="239.013672" xlink:href="#DejaVuSans-105"/>
     <use x="266.796875" xlink:href="#DejaVuSans-108"/>
     <use x="294.580078" xlink:href="#DejaVuSans-101"/>
     <use x="356.103516" xlink:href="#DejaVuSans-100"/>
     <use x="419.580078" xlink:href="#DejaVuSans-32"/>
     <use x="451.367188" xlink:href="#DejaVuSans-66"/>
     <use x="519.970703" xlink:href="#DejaVuSans-97"/>
     <use x="581.25" xlink:href="#DejaVuSans-108"/>
     <use x="609.033203" xlink:href="#DejaVuSans-97"/>
     <use x="670.3125" xlink:href="#DejaVuSans-110"/>
     <use x="733.691406" xlink:href="#DejaVuSans-99"/>
     <use x="788.671875" xlink:href="#DejaVuSans-101"/>
    </g>
   </g>
   <g id="legend_2">
    <g id="patch_13">
     <path d="M 1147.096471 138.69875 
L 1343.376471 138.69875 
Q 1346.176471 138.69875 1346.176471 135.89875 
L 1346.176471 96.2 
Q 1346.176471 93.4 1343.376471 93.4 
L 1147.096471 93.4 
Q 1144.296471 93.4 1144.296471 96.2 
L 1144.296471 135.89875 
Q 1144.296471 138.69875 1147.096471 138.69875 
z
" style="fill:#eeeeee;opacity:0.8;stroke:#cccccc;stroke-linejoin:miter;stroke-width:0.5;"/>
    </g>
    <g id="line2d_129">
     <path d="M 1149.896471 104.737812 
L 1177.896471 104.737812 
" style="fill:none;stroke:#ff0000;stroke-linecap:square;stroke-width:2;"/>
    </g>
    <g id="line2d_130"/>
    <g id="text_29">
     <!-- mean and covariance -->
     <g transform="translate(1189.096471 109.637812)scale(0.14 -0.14)">
      <use xlink:href="#DejaVuSans-109"/>
      <use x="97.412109" xlink:href="#DejaVuSans-101"/>
      <use x="158.935547" xlink:href="#DejaVuSans-97"/>
      <use x="220.214844" xlink:href="#DejaVuSans-110"/>
      <use x="283.59375" xlink:href="#DejaVuSans-32"/>
      <use x="315.380859" xlink:href="#DejaVuSans-97"/>
      <use x="376.660156" xlink:href="#DejaVuSans-110"/>
      <use x="440.039062" xlink:href="#DejaVuSans-100"/>
      <use x="503.515625" xlink:href="#DejaVuSans-32"/>
      <use x="535.302734" xlink:href="#DejaVuSans-99"/>
      <use x="590.283203" xlink:href="#DejaVuSans-111"/>
      <use x="651.464844" xlink:href="#DejaVuSans-118"/>
      <use x="710.644531" xlink:href="#DejaVuSans-97"/>
      <use x="771.923828" xlink:href="#DejaVuSans-114"/>
      <use x="813.037109" xlink:href="#DejaVuSans-105"/>
      <use x="840.820312" xlink:href="#DejaVuSans-97"/>
      <use x="902.099609" xlink:href="#DejaVuSans-110"/>
      <use x="965.478516" xlink:href="#DejaVuSans-99"/>
      <use x="1020.458984" xlink:href="#DejaVuSans-101"/>
     </g>
    </g>
    <g id="line2d_131">
     <path d="M 1149.896471 125.287187 
L 1177.896471 125.287187 
" style="fill:none;stroke:#0000ff;stroke-linecap:square;stroke-width:2;"/>
    </g>
    <g id="line2d_132"/>
    <g id="text_30">
     <!-- cluster assignment -->
     <g transform="translate(1189.096471 130.187187)scale(0.14 -0.14)">
      <use xlink:href="#DejaVuSans-99"/>
      <use x="54.980469" xlink:href="#DejaVuSans-108"/>
      <use x="82.763672" xlink:href="#DejaVuSans-117"/>
      <use x="146.142578" xlink:href="#DejaVuSans-115"/>
      <use x="198.242188" xlink:href="#DejaVuSans-116"/>
      <use x="237.451172" xlink:href="#DejaVuSans-101"/>
      <use x="298.974609" xlink:href="#DejaVuSans-114"/>
      <use x="340.087891" xlink:href="#DejaVuSans-32"/>
      <use x="371.875" xlink:href="#DejaVuSans-97"/>
      <use x="433.154297" xlink:href="#DejaVuSans-115"/>
      <use x="485.253906" xlink:href="#DejaVuSans-115"/>
      <use x="537.353516" xlink:href="#DejaVuSans-105"/>
      <use x="565.136719" xlink:href="#DejaVuSans-103"/>
      <use x="628.613281" xlink:href="#DejaVuSans-110"/>
      <use x="691.992188" xlink:href="#DejaVuSans-109"/>
      <use x="789.404297" xlink:href="#DejaVuSans-101"/>
      <use x="850.927734" xlink:href="#DejaVuSans-110"/>
      <use x="914.306641" xlink:href="#DejaVuSans-116"/>
     </g>
    </g>
   </g>
  </g>
  <g id="axes_3">
   <g id="patch_14">
    <path d="M 1451.647059 630 
L 1944 630 
L 1944 86.4 
L 1451.647059 86.4 
z
" style="fill:#eeeeee;"/>
   </g>
   <g id="matplotlib.axis_5">
    <g id="xtick_12">
     <g id="line2d_133">
      <path clip-path="url(#p43dd8d3050)" d="M 1523.759358 630 
L 1523.759358 86.4 
" style="fill:none;stroke:#ffffff;stroke-linecap:square;stroke-width:3;"/>
     </g>
     <g id="line2d_134">
      <g>
       <use style="stroke:#000000;stroke-width:0.8;" x="1523.759358" xlink:href="#m98c3dda426" y="630"/>
      </g>
     </g>
     <g id="text_31">
      <!-- 2 -->
      <g transform="translate(1519.305608 644.137812)scale(0.14 -0.14)">
       <use xlink:href="#DejaVuSans-50"/>
      </g>
     </g>
    </g>
    <g id="xtick_13">
     <g id="line2d_135">
      <path clip-path="url(#p43dd8d3050)" d="M 1623.224599 630 
L 1623.224599 86.4 
" style="fill:none;stroke:#ffffff;stroke-linecap:square;stroke-width:3;"/>
     </g>
     <g id="line2d_136">
      <g>
       <use style="stroke:#000000;stroke-width:0.8;" x="1623.224599" xlink:href="#m98c3dda426" y="630"/>
      </g>
     </g>
     <g id="text_32">
      <!-- 4 -->
      <g transform="translate(1618.770849 644.137812)scale(0.14 -0.14)">
       <use xlink:href="#DejaVuSans-52"/>
      </g>
     </g>
    </g>
    <g id="xtick_14">
     <g id="line2d_137">
      <path clip-path="url(#p43dd8d3050)" d="M 1722.68984 630 
L 1722.68984 86.4 
" style="fill:none;stroke:#ffffff;stroke-linecap:square;stroke-width:3;"/>
     </g>
     <g id="line2d_138">
      <g>
       <use style="stroke:#000000;stroke-width:0.8;" x="1722.68984" xlink:href="#m98c3dda426" y="630"/>
      </g>
     </g>
     <g id="text_33">
      <!-- 6 -->
      <g transform="translate(1718.23609 644.137812)scale(0.14 -0.14)">
       <use xlink:href="#DejaVuSans-54"/>
      </g>
     </g>
    </g>
    <g id="xtick_15">
     <g id="line2d_139">
      <path clip-path="url(#p43dd8d3050)" d="M 1822.15508 630 
L 1822.15508 86.4 
" style="fill:none;stroke:#ffffff;stroke-linecap:square;stroke-width:3;"/>
     </g>
     <g id="line2d_140">
      <g>
       <use style="stroke:#000000;stroke-width:0.8;" x="1822.15508" xlink:href="#m98c3dda426" y="630"/>
      </g>
     </g>
     <g id="text_34">
      <!-- 8 -->
      <g transform="translate(1817.70133 644.137812)scale(0.14 -0.14)">
       <use xlink:href="#DejaVuSans-56"/>
      </g>
     </g>
    </g>
    <g id="xtick_16">
     <g id="line2d_141">
      <path clip-path="url(#p43dd8d3050)" d="M 1921.620321 630 
L 1921.620321 86.4 
" style="fill:none;stroke:#ffffff;stroke-linecap:square;stroke-width:3;"/>
     </g>
     <g id="line2d_142">
      <g>
       <use style="stroke:#000000;stroke-width:0.8;" x="1921.620321" xlink:href="#m98c3dda426" y="630"/>
      </g>
     </g>
     <g id="text_35">
      <!-- 10 -->
      <g transform="translate(1912.712821 644.137812)scale(0.14 -0.14)">
       <use xlink:href="#DejaVuSans-49"/>
       <use x="63.623047" xlink:href="#DejaVuSans-48"/>
      </g>
     </g>
    </g>
    <g id="text_36">
     <!-- Update Steps -->
     <g transform="translate(1630.448529 666.24625)scale(0.2 -0.2)">
      <use xlink:href="#DejaVuSans-85"/>
      <use x="73.193359" xlink:href="#DejaVuSans-112"/>
      <use x="136.669922" xlink:href="#DejaVuSans-100"/>
      <use x="200.146484" xlink:href="#DejaVuSans-97"/>
      <use x="261.425781" xlink:href="#DejaVuSans-116"/>
      <use x="300.634766" xlink:href="#DejaVuSans-101"/>
      <use x="362.158203" xlink:href="#DejaVuSans-32"/>
      <use x="393.945312" xlink:href="#DejaVuSans-83"/>
      <use x="457.421875" xlink:href="#DejaVuSans-116"/>
      <use x="496.630859" xlink:href="#DejaVuSans-101"/>
      <use x="558.154297" xlink:href="#DejaVuSans-112"/>
      <use x="621.630859" xlink:href="#DejaVuSans-115"/>
     </g>
    </g>
   </g>
   <g id="matplotlib.axis_6">
    <g id="ytick_90">
     <g id="line2d_143">
      <path clip-path="url(#p43dd8d3050)" d="M 1451.647059 565.284579 
L 1944 565.284579 
" style="fill:none;stroke:#ffffff;stroke-linecap:square;stroke-width:3;"/>
     </g>
     <g id="line2d_144">
      <g>
       <use style="stroke:#000000;stroke-width:0.8;" x="1451.647059" xlink:href="#m4deee8dc8a" y="565.284579"/>
      </g>
     </g>
     <g id="text_37">
      <!-- 0.60 -->
      <defs>
       <path d="M 10.6875 12.40625 
L 21 12.40625 
L 21 0 
L 10.6875 0 
z
" id="DejaVuSans-46"/>
      </defs>
      <g transform="translate(1416.975184 570.603485)scale(0.14 -0.14)">
       <use xlink:href="#DejaVuSans-48"/>
       <use x="63.623047" xlink:href="#DejaVuSans-46"/>
       <use x="95.410156" xlink:href="#DejaVuSans-54"/>
       <use x="159.033203" xlink:href="#DejaVuSans-48"/>
      </g>
     </g>
    </g>
    <g id="ytick_91">
     <g id="line2d_145">
      <path clip-path="url(#p43dd8d3050)" d="M 1451.647059 473.467265 
L 1944 473.467265 
" style="fill:none;stroke:#ffffff;stroke-linecap:square;stroke-width:3;"/>
     </g>
     <g id="line2d_146">
      <g>
       <use style="stroke:#000000;stroke-width:0.8;" x="1451.647059" xlink:href="#m4deee8dc8a" y="473.467265"/>
      </g>
     </g>
     <g id="text_38">
      <!-- 0.65 -->
      <g transform="translate(1416.975184 478.786171)scale(0.14 -0.14)">
       <use xlink:href="#DejaVuSans-48"/>
       <use x="63.623047" xlink:href="#DejaVuSans-46"/>
       <use x="95.410156" xlink:href="#DejaVuSans-54"/>
       <use x="159.033203" xlink:href="#DejaVuSans-53"/>
      </g>
     </g>
    </g>
    <g id="ytick_92">
     <g id="line2d_147">
      <path clip-path="url(#p43dd8d3050)" d="M 1451.647059 381.649951 
L 1944 381.649951 
" style="fill:none;stroke:#ffffff;stroke-linecap:square;stroke-width:3;"/>
     </g>
     <g id="line2d_148">
      <g>
       <use style="stroke:#000000;stroke-width:0.8;" x="1451.647059" xlink:href="#m4deee8dc8a" y="381.649951"/>
      </g>
     </g>
     <g id="text_39">
      <!-- 0.70 -->
      <defs>
       <path d="M 8.203125 72.90625 
L 55.078125 72.90625 
L 55.078125 68.703125 
L 28.609375 0 
L 18.3125 0 
L 43.21875 64.59375 
L 8.203125 64.59375 
z
" id="DejaVuSans-55"/>
      </defs>
      <g transform="translate(1416.975184 386.968857)scale(0.14 -0.14)">
       <use xlink:href="#DejaVuSans-48"/>
       <use x="63.623047" xlink:href="#DejaVuSans-46"/>
       <use x="95.410156" xlink:href="#DejaVuSans-55"/>
       <use x="159.033203" xlink:href="#DejaVuSans-48"/>
      </g>
     </g>
    </g>
    <g id="ytick_93">
     <g id="line2d_149">
      <path clip-path="url(#p43dd8d3050)" d="M 1451.647059 289.832637 
L 1944 289.832637 
" style="fill:none;stroke:#ffffff;stroke-linecap:square;stroke-width:3;"/>
     </g>
     <g id="line2d_150">
      <g>
       <use style="stroke:#000000;stroke-width:0.8;" x="1451.647059" xlink:href="#m4deee8dc8a" y="289.832637"/>
      </g>
     </g>
     <g id="text_40">
      <!-- 0.75 -->
      <g transform="translate(1416.975184 295.151543)scale(0.14 -0.14)">
       <use xlink:href="#DejaVuSans-48"/>
       <use x="63.623047" xlink:href="#DejaVuSans-46"/>
       <use x="95.410156" xlink:href="#DejaVuSans-55"/>
       <use x="159.033203" xlink:href="#DejaVuSans-53"/>
      </g>
     </g>
    </g>
    <g id="ytick_94">
     <g id="line2d_151">
      <path clip-path="url(#p43dd8d3050)" d="M 1451.647059 198.015323 
L 1944 198.015323 
" style="fill:none;stroke:#ffffff;stroke-linecap:square;stroke-width:3;"/>
     </g>
     <g id="line2d_152">
      <g>
       <use style="stroke:#000000;stroke-width:0.8;" x="1451.647059" xlink:href="#m4deee8dc8a" y="198.015323"/>
      </g>
     </g>
     <g id="text_41">
      <!-- 0.80 -->
      <g transform="translate(1416.975184 203.334229)scale(0.14 -0.14)">
       <use xlink:href="#DejaVuSans-48"/>
       <use x="63.623047" xlink:href="#DejaVuSans-46"/>
       <use x="95.410156" xlink:href="#DejaVuSans-56"/>
       <use x="159.033203" xlink:href="#DejaVuSans-48"/>
      </g>
     </g>
    </g>
    <g id="ytick_95">
     <g id="line2d_153">
      <path clip-path="url(#p43dd8d3050)" d="M 1451.647059 106.198009 
L 1944 106.198009 
" style="fill:none;stroke:#ffffff;stroke-linecap:square;stroke-width:3;"/>
     </g>
     <g id="line2d_154">
      <g>
       <use style="stroke:#000000;stroke-width:0.8;" x="1451.647059" xlink:href="#m4deee8dc8a" y="106.198009"/>
      </g>
     </g>
     <g id="text_42">
      <!-- 0.85 -->
      <g transform="translate(1416.975184 111.516915)scale(0.14 -0.14)">
       <use xlink:href="#DejaVuSans-48"/>
       <use x="63.623047" xlink:href="#DejaVuSans-46"/>
       <use x="95.410156" xlink:href="#DejaVuSans-56"/>
       <use x="159.033203" xlink:href="#DejaVuSans-53"/>
      </g>
     </g>
    </g>
    <g id="text_43">
     <!-- ESS / Total Number of Samples -->
     <defs>
      <path d="M 9.8125 72.90625 
L 55.90625 72.90625 
L 55.90625 64.59375 
L 19.671875 64.59375 
L 19.671875 43.015625 
L 54.390625 43.015625 
L 54.390625 34.71875 
L 19.671875 34.71875 
L 19.671875 8.296875 
L 56.78125 8.296875 
L 56.78125 0 
L 9.8125 0 
z
" id="DejaVuSans-69"/>
      <path d="M 25.390625 72.90625 
L 33.6875 72.90625 
L 8.296875 -9.28125 
L 0 -9.28125 
z
" id="DejaVuSans-47"/>
      <path d="M -0.296875 72.90625 
L 61.375 72.90625 
L 61.375 64.59375 
L 35.5 64.59375 
L 35.5 0 
L 25.59375 0 
L 25.59375 64.59375 
L -0.296875 64.59375 
z
" id="DejaVuSans-84"/>
     </defs>
     <g transform="translate(1408.815809 514.01875)rotate(-90)scale(0.2 -0.2)">
      <use xlink:href="#DejaVuSans-69"/>
      <use x="63.183594" xlink:href="#DejaVuSans-83"/>
      <use x="126.660156" xlink:href="#DejaVuSans-83"/>
      <use x="190.136719" xlink:href="#DejaVuSans-32"/>
      <use x="221.923828" xlink:href="#DejaVuSans-47"/>
      <use x="255.615234" xlink:href="#DejaVuSans-32"/>
      <use x="287.402344" xlink:href="#DejaVuSans-84"/>
      <use x="348.220703" xlink:href="#DejaVuSans-111"/>
      <use x="409.402344" xlink:href="#DejaVuSans-116"/>
      <use x="448.611328" xlink:href="#DejaVuSans-97"/>
      <use x="509.890625" xlink:href="#DejaVuSans-108"/>
      <use x="537.673828" xlink:href="#DejaVuSans-32"/>
      <use x="569.460938" xlink:href="#DejaVuSans-78"/>
      <use x="644.265625" xlink:href="#DejaVuSans-117"/>
      <use x="707.644531" xlink:href="#DejaVuSans-109"/>
      <use x="805.056641" xlink:href="#DejaVuSans-98"/>
      <use x="868.533203" xlink:href="#DejaVuSans-101"/>
      <use x="930.056641" xlink:href="#DejaVuSans-114"/>
      <use x="971.169922" xlink:href="#DejaVuSans-32"/>
      <use x="1002.957031" xlink:href="#DejaVuSans-111"/>
      <use x="1064.138672" xlink:href="#DejaVuSans-102"/>
      <use x="1099.34375" xlink:href="#DejaVuSans-32"/>
      <use x="1131.130859" xlink:href="#DejaVuSans-83"/>
      <use x="1194.607422" xlink:href="#DejaVuSans-97"/>
      <use x="1255.886719" xlink:href="#DejaVuSans-109"/>
      <use x="1353.298828" xlink:href="#DejaVuSans-112"/>
      <use x="1416.775391" xlink:href="#DejaVuSans-108"/>
      <use x="1444.558594" xlink:href="#DejaVuSans-101"/>
      <use x="1506.082031" xlink:href="#DejaVuSans-115"/>
     </g>
    </g>
   </g>
   <g id="line2d_155">
    <path clip-path="url(#p43dd8d3050)" d="M 1474.026738 605.290909 
L 1523.759358 328.091894 
L 1573.491979 146.619939 
L 1623.224599 124.700965 
L 1672.957219 117.816479 
L 1722.68984 113.606411 
L 1772.42246 112.065507 
L 1822.15508 112.262854 
L 1871.887701 112.040113 
L 1921.620321 111.109091 
" style="fill:none;stroke:#ff0000;stroke-linecap:square;stroke-width:2;"/>
   </g>
   <g id="patch_15">
    <path d="M 1451.647059 630 
L 1451.647059 86.4 
" style="fill:none;stroke:#bcbcbc;stroke-linecap:square;stroke-linejoin:miter;stroke-width:0.8;"/>
   </g>
   <g id="patch_16">
    <path d="M 1944 630 
L 1944 86.4 
" style="fill:none;stroke:#bcbcbc;stroke-linecap:square;stroke-linejoin:miter;stroke-width:0.8;"/>
   </g>
   <g id="patch_17">
    <path d="M 1451.647059 630 
L 1944 630 
" style="fill:none;stroke:#bcbcbc;stroke-linecap:square;stroke-linejoin:miter;stroke-width:0.8;"/>
   </g>
   <g id="patch_18">
    <path d="M 1451.647059 86.4 
L 1944 86.4 
" style="fill:none;stroke:#bcbcbc;stroke-linecap:square;stroke-linejoin:miter;stroke-width:0.8;"/>
   </g>
   <g id="text_44">
    <!-- Effectice Sample Size (ESS) -->
    <defs>
     <path d="M 5.515625 54.6875 
L 48.1875 54.6875 
L 48.1875 46.484375 
L 14.40625 7.171875 
L 48.1875 7.171875 
L 48.1875 0 
L 4.296875 0 
L 4.296875 8.203125 
L 38.09375 47.515625 
L 5.515625 47.515625 
z
" id="DejaVuSans-122"/>
    </defs>
    <g transform="translate(1560.084467 80.4)scale(0.2 -0.2)">
     <use xlink:href="#DejaVuSans-69"/>
     <use x="63.183594" xlink:href="#DejaVuSans-102"/>
     <use x="98.388672" xlink:href="#DejaVuSans-102"/>
     <use x="133.59375" xlink:href="#DejaVuSans-101"/>
     <use x="195.117188" xlink:href="#DejaVuSans-99"/>
     <use x="250.097656" xlink:href="#DejaVuSans-116"/>
     <use x="289.306641" xlink:href="#DejaVuSans-105"/>
     <use x="317.089844" xlink:href="#DejaVuSans-99"/>
     <use x="372.070312" xlink:href="#DejaVuSans-101"/>
     <use x="433.59375" xlink:href="#DejaVuSans-32"/>
     <use x="465.380859" xlink:href="#DejaVuSans-83"/>
     <use x="528.857422" xlink:href="#DejaVuSans-97"/>
     <use x="590.136719" xlink:href="#DejaVuSans-109"/>
     <use x="687.548828" xlink:href="#DejaVuSans-112"/>
     <use x="751.025391" xlink:href="#DejaVuSans-108"/>
     <use x="778.808594" xlink:href="#DejaVuSans-101"/>
     <use x="840.332031" xlink:href="#DejaVuSans-32"/>
     <use x="872.119141" xlink:href="#DejaVuSans-83"/>
     <use x="935.595703" xlink:href="#DejaVuSans-105"/>
     <use x="963.378906" xlink:href="#DejaVuSans-122"/>
     <use x="1015.869141" xlink:href="#DejaVuSans-101"/>
     <use x="1077.392578" xlink:href="#DejaVuSans-32"/>
     <use x="1109.179688" xlink:href="#DejaVuSans-40"/>
     <use x="1148.193359" xlink:href="#DejaVuSans-69"/>
     <use x="1211.376953" xlink:href="#DejaVuSans-83"/>
     <use x="1274.853516" xlink:href="#DejaVuSans-83"/>
     <use x="1338.330078" xlink:href="#DejaVuSans-41"/>
    </g>
   </g>
   <g id="legend_3">
    <g id="patch_19">
     <path d="M 1461.447059 118.149375 
L 1528.756434 118.149375 
Q 1531.556434 118.149375 1531.556434 115.349375 
L 1531.556434 96.2 
Q 1531.556434 93.4 1528.756434 93.4 
L 1461.447059 93.4 
Q 1458.647059 93.4 1458.647059 96.2 
L 1458.647059 115.349375 
Q 1458.647059 118.149375 1461.447059 118.149375 
z
" style="fill:#eeeeee;opacity:0.8;stroke:#cccccc;stroke-linejoin:miter;stroke-width:0.5;"/>
    </g>
    <g id="line2d_156">
     <path d="M 1464.247059 104.737812 
L 1492.247059 104.737812 
" style="fill:none;stroke:#ff0000;stroke-linecap:square;stroke-width:2;"/>
    </g>
    <g id="line2d_157"/>
    <g id="text_45">
     <!-- mu -->
     <g transform="translate(1503.447059 109.637812)scale(0.14 -0.14)">
      <use xlink:href="#DejaVuSans-109"/>
      <use x="97.412109" xlink:href="#DejaVuSans-117"/>
     </g>
    </g>
   </g>
  </g>
 </g>
 <defs>
  <clipPath id="p87cf867c93">
   <rect height="543.6" width="492.352941" x="270" y="86.4"/>
  </clipPath>
  <clipPath id="p980531b169">
   <rect height="543.6" width="492.352941" x="860.823529" y="86.4"/>
  </clipPath>
  <clipPath id="p43dd8d3050">
   <rect height="543.6" width="492.352941" x="1451.647059" y="86.4"/>
  </clipPath>
 </defs>
</svg>
