<?xml version="1.0" encoding="utf-8" standalone="no"?>
<!DOCTYPE svg PUBLIC "-//W3C//DTD SVG 1.1//EN"
  "http://www.w3.org/Graphics/SVG/1.1/DTD/svg11.dtd">
<!-- Created with matplotlib (https://matplotlib.org/) -->
<svg height="576pt" version="1.1" viewBox="0 0 1440 576" width="1440pt" xmlns="http://www.w3.org/2000/svg" xmlns:xlink="http://www.w3.org/1999/xlink">
 <defs>
  <style type="text/css">
*{stroke-linecap:butt;stroke-linejoin:round;}
  </style>
 </defs>
 <g id="figure_1">
  <g id="patch_1">
   <path d="M 0 576 
L 1440 576 
L 1440 0 
L 0 0 
z
" style="fill:#ffffff;"/>
  </g>
  <g id="axes_1">
   <g id="patch_2">
    <path d="M 180 504 
L 1296 504 
L 1296 69.12 
L 180 69.12 
z
" style="fill:#ffffff;"/>
   </g>
   <g id="matplotlib.axis_1">
    <g id="xtick_1">
     <g id="line2d_1">
      <path clip-path="url(#p8e2a5ede28)" d="M 230.727273 504 
L 230.727273 69.12 
" style="fill:none;stroke:#b0b0b0;stroke-linecap:square;stroke-opacity:0.4;stroke-width:0.8;"/>
     </g>
     <g id="line2d_2">
      <defs>
       <path d="M 0 0 
L 0 3.5 
" id="m13fd64414e" style="stroke:#000000;stroke-width:0.8;"/>
      </defs>
      <g>
       <use style="stroke:#000000;stroke-width:0.8;" x="230.727273" xlink:href="#m13fd64414e" y="504"/>
      </g>
     </g>
     <g id="text_1">
      <!-- 0 -->
      <defs>
       <path d="M 31.78125 66.40625 
Q 24.171875 66.40625 20.328125 58.90625 
Q 16.5 51.421875 16.5 36.375 
Q 16.5 21.390625 20.328125 13.890625 
Q 24.171875 6.390625 31.78125 6.390625 
Q 39.453125 6.390625 43.28125 13.890625 
Q 47.125 21.390625 47.125 36.375 
Q 47.125 51.421875 43.28125 58.90625 
Q 39.453125 66.40625 31.78125 66.40625 
z
M 31.78125 74.21875 
Q 44.046875 74.21875 50.515625 64.515625 
Q 56.984375 54.828125 56.984375 36.375 
Q 56.984375 17.96875 50.515625 8.265625 
Q 44.046875 -1.421875 31.78125 -1.421875 
Q 19.53125 -1.421875 13.0625 8.265625 
Q 6.59375 17.96875 6.59375 36.375 
Q 6.59375 54.828125 13.0625 64.515625 
Q 19.53125 74.21875 31.78125 74.21875 
z
" id="DejaVuSans-48"/>
      </defs>
      <g transform="translate(224.364773 526.196875)scale(0.2 -0.2)">
       <use xlink:href="#DejaVuSans-48"/>
      </g>
     </g>
    </g>
    <g id="xtick_2">
     <g id="line2d_3">
      <path clip-path="url(#p8e2a5ede28)" d="M 358.826446 504 
L 358.826446 69.12 
" style="fill:none;stroke:#b0b0b0;stroke-linecap:square;stroke-opacity:0.4;stroke-width:0.8;"/>
     </g>
     <g id="line2d_4">
      <g>
       <use style="stroke:#000000;stroke-width:0.8;" x="358.826446" xlink:href="#m13fd64414e" y="504"/>
      </g>
     </g>
     <g id="text_2">
      <!-- 25 -->
      <defs>
       <path d="M 19.1875 8.296875 
L 53.609375 8.296875 
L 53.609375 0 
L 7.328125 0 
L 7.328125 8.296875 
Q 12.9375 14.109375 22.625 23.890625 
Q 32.328125 33.6875 34.8125 36.53125 
Q 39.546875 41.84375 41.421875 45.53125 
Q 43.3125 49.21875 43.3125 52.78125 
Q 43.3125 58.59375 39.234375 62.25 
Q 35.15625 65.921875 28.609375 65.921875 
Q 23.96875 65.921875 18.8125 64.3125 
Q 13.671875 62.703125 7.8125 59.421875 
L 7.8125 69.390625 
Q 13.765625 71.78125 18.9375 73 
Q 24.125 74.21875 28.421875 74.21875 
Q 39.75 74.21875 46.484375 68.546875 
Q 53.21875 62.890625 53.21875 53.421875 
Q 53.21875 48.921875 51.53125 44.890625 
Q 49.859375 40.875 45.40625 35.40625 
Q 44.1875 33.984375 37.640625 27.21875 
Q 31.109375 20.453125 19.1875 8.296875 
z
" id="DejaVuSans-50"/>
       <path d="M 10.796875 72.90625 
L 49.515625 72.90625 
L 49.515625 64.59375 
L 19.828125 64.59375 
L 19.828125 46.734375 
Q 21.96875 47.46875 24.109375 47.828125 
Q 26.265625 48.1875 28.421875 48.1875 
Q 40.625 48.1875 47.75 41.5 
Q 54.890625 34.8125 54.890625 23.390625 
Q 54.890625 11.625 47.5625 5.09375 
Q 40.234375 -1.421875 26.90625 -1.421875 
Q 22.3125 -1.421875 17.546875 -0.640625 
Q 12.796875 0.140625 7.71875 1.703125 
L 7.71875 11.625 
Q 12.109375 9.234375 16.796875 8.0625 
Q 21.484375 6.890625 26.703125 6.890625 
Q 35.15625 6.890625 40.078125 11.328125 
Q 45.015625 15.765625 45.015625 23.390625 
Q 45.015625 31 40.078125 35.4375 
Q 35.15625 39.890625 26.703125 39.890625 
Q 22.75 39.890625 18.8125 39.015625 
Q 14.890625 38.140625 10.796875 36.28125 
z
" id="DejaVuSans-53"/>
      </defs>
      <g transform="translate(346.101446 526.196875)scale(0.2 -0.2)">
       <use xlink:href="#DejaVuSans-50"/>
       <use x="63.623047" xlink:href="#DejaVuSans-53"/>
      </g>
     </g>
    </g>
    <g id="xtick_3">
     <g id="line2d_5">
      <path clip-path="url(#p8e2a5ede28)" d="M 486.92562 504 
L 486.92562 69.12 
" style="fill:none;stroke:#b0b0b0;stroke-linecap:square;stroke-opacity:0.4;stroke-width:0.8;"/>
     </g>
     <g id="line2d_6">
      <g>
       <use style="stroke:#000000;stroke-width:0.8;" x="486.92562" xlink:href="#m13fd64414e" y="504"/>
      </g>
     </g>
     <g id="text_3">
      <!-- 50 -->
      <g transform="translate(474.20062 526.196875)scale(0.2 -0.2)">
       <use xlink:href="#DejaVuSans-53"/>
       <use x="63.623047" xlink:href="#DejaVuSans-48"/>
      </g>
     </g>
    </g>
    <g id="xtick_4">
     <g id="line2d_7">
      <path clip-path="url(#p8e2a5ede28)" d="M 615.024793 504 
L 615.024793 69.12 
" style="fill:none;stroke:#b0b0b0;stroke-linecap:square;stroke-opacity:0.4;stroke-width:0.8;"/>
     </g>
     <g id="line2d_8">
      <g>
       <use style="stroke:#000000;stroke-width:0.8;" x="615.024793" xlink:href="#m13fd64414e" y="504"/>
      </g>
     </g>
     <g id="text_4">
      <!-- 75 -->
      <defs>
       <path d="M 8.203125 72.90625 
L 55.078125 72.90625 
L 55.078125 68.703125 
L 28.609375 0 
L 18.3125 0 
L 43.21875 64.59375 
L 8.203125 64.59375 
z
" id="DejaVuSans-55"/>
      </defs>
      <g transform="translate(602.299793 526.196875)scale(0.2 -0.2)">
       <use xlink:href="#DejaVuSans-55"/>
       <use x="63.623047" xlink:href="#DejaVuSans-53"/>
      </g>
     </g>
    </g>
    <g id="xtick_5">
     <g id="line2d_9">
      <path clip-path="url(#p8e2a5ede28)" d="M 743.123967 504 
L 743.123967 69.12 
" style="fill:none;stroke:#b0b0b0;stroke-linecap:square;stroke-opacity:0.4;stroke-width:0.8;"/>
     </g>
     <g id="line2d_10">
      <g>
       <use style="stroke:#000000;stroke-width:0.8;" x="743.123967" xlink:href="#m13fd64414e" y="504"/>
      </g>
     </g>
     <g id="text_5">
      <!-- 100 -->
      <defs>
       <path d="M 12.40625 8.296875 
L 28.515625 8.296875 
L 28.515625 63.921875 
L 10.984375 60.40625 
L 10.984375 69.390625 
L 28.421875 72.90625 
L 38.28125 72.90625 
L 38.28125 8.296875 
L 54.390625 8.296875 
L 54.390625 0 
L 12.40625 0 
z
" id="DejaVuSans-49"/>
      </defs>
      <g transform="translate(724.036467 526.196875)scale(0.2 -0.2)">
       <use xlink:href="#DejaVuSans-49"/>
       <use x="63.623047" xlink:href="#DejaVuSans-48"/>
       <use x="127.246094" xlink:href="#DejaVuSans-48"/>
      </g>
     </g>
    </g>
    <g id="xtick_6">
     <g id="line2d_11">
      <path clip-path="url(#p8e2a5ede28)" d="M 871.22314 504 
L 871.22314 69.12 
" style="fill:none;stroke:#b0b0b0;stroke-linecap:square;stroke-opacity:0.4;stroke-width:0.8;"/>
     </g>
     <g id="line2d_12">
      <g>
       <use style="stroke:#000000;stroke-width:0.8;" x="871.22314" xlink:href="#m13fd64414e" y="504"/>
      </g>
     </g>
     <g id="text_6">
      <!-- 125 -->
      <g transform="translate(852.13564 526.196875)scale(0.2 -0.2)">
       <use xlink:href="#DejaVuSans-49"/>
       <use x="63.623047" xlink:href="#DejaVuSans-50"/>
       <use x="127.246094" xlink:href="#DejaVuSans-53"/>
      </g>
     </g>
    </g>
    <g id="xtick_7">
     <g id="line2d_13">
      <path clip-path="url(#p8e2a5ede28)" d="M 999.322314 504 
L 999.322314 69.12 
" style="fill:none;stroke:#b0b0b0;stroke-linecap:square;stroke-opacity:0.4;stroke-width:0.8;"/>
     </g>
     <g id="line2d_14">
      <g>
       <use style="stroke:#000000;stroke-width:0.8;" x="999.322314" xlink:href="#m13fd64414e" y="504"/>
      </g>
     </g>
     <g id="text_7">
      <!-- 150 -->
      <g transform="translate(980.234814 526.196875)scale(0.2 -0.2)">
       <use xlink:href="#DejaVuSans-49"/>
       <use x="63.623047" xlink:href="#DejaVuSans-53"/>
       <use x="127.246094" xlink:href="#DejaVuSans-48"/>
      </g>
     </g>
    </g>
    <g id="xtick_8">
     <g id="line2d_15">
      <path clip-path="url(#p8e2a5ede28)" d="M 1127.421488 504 
L 1127.421488 69.12 
" style="fill:none;stroke:#b0b0b0;stroke-linecap:square;stroke-opacity:0.4;stroke-width:0.8;"/>
     </g>
     <g id="line2d_16">
      <g>
       <use style="stroke:#000000;stroke-width:0.8;" x="1127.421488" xlink:href="#m13fd64414e" y="504"/>
      </g>
     </g>
     <g id="text_8">
      <!-- 175 -->
      <g transform="translate(1108.333988 526.196875)scale(0.2 -0.2)">
       <use xlink:href="#DejaVuSans-49"/>
       <use x="63.623047" xlink:href="#DejaVuSans-55"/>
       <use x="127.246094" xlink:href="#DejaVuSans-53"/>
      </g>
     </g>
    </g>
    <g id="xtick_9">
     <g id="line2d_17">
      <path clip-path="url(#p8e2a5ede28)" d="M 1255.520661 504 
L 1255.520661 69.12 
" style="fill:none;stroke:#b0b0b0;stroke-linecap:square;stroke-opacity:0.4;stroke-width:0.8;"/>
     </g>
     <g id="line2d_18">
      <g>
       <use style="stroke:#000000;stroke-width:0.8;" x="1255.520661" xlink:href="#m13fd64414e" y="504"/>
      </g>
     </g>
     <g id="text_9">
      <!-- 200 -->
      <g transform="translate(1236.433161 526.196875)scale(0.2 -0.2)">
       <use xlink:href="#DejaVuSans-50"/>
       <use x="63.623047" xlink:href="#DejaVuSans-48"/>
       <use x="127.246094" xlink:href="#DejaVuSans-48"/>
      </g>
     </g>
    </g>
    <g id="text_10">
     <!-- Gradient Steps (thousands) -->
     <defs>
      <path d="M 59.515625 10.40625 
L 59.515625 29.984375 
L 43.40625 29.984375 
L 43.40625 38.09375 
L 69.28125 38.09375 
L 69.28125 6.78125 
Q 63.578125 2.734375 56.6875 0.65625 
Q 49.8125 -1.421875 42 -1.421875 
Q 24.90625 -1.421875 15.25 8.5625 
Q 5.609375 18.5625 5.609375 36.375 
Q 5.609375 54.25 15.25 64.234375 
Q 24.90625 74.21875 42 74.21875 
Q 49.125 74.21875 55.546875 72.453125 
Q 61.96875 70.703125 67.390625 67.28125 
L 67.390625 56.78125 
Q 61.921875 61.421875 55.765625 63.765625 
Q 49.609375 66.109375 42.828125 66.109375 
Q 29.4375 66.109375 22.71875 58.640625 
Q 16.015625 51.171875 16.015625 36.375 
Q 16.015625 21.625 22.71875 14.15625 
Q 29.4375 6.6875 42.828125 6.6875 
Q 48.046875 6.6875 52.140625 7.59375 
Q 56.25 8.5 59.515625 10.40625 
z
" id="DejaVuSans-71"/>
      <path d="M 41.109375 46.296875 
Q 39.59375 47.171875 37.8125 47.578125 
Q 36.03125 48 33.890625 48 
Q 26.265625 48 22.1875 43.046875 
Q 18.109375 38.09375 18.109375 28.8125 
L 18.109375 0 
L 9.078125 0 
L 9.078125 54.6875 
L 18.109375 54.6875 
L 18.109375 46.1875 
Q 20.953125 51.171875 25.484375 53.578125 
Q 30.03125 56 36.53125 56 
Q 37.453125 56 38.578125 55.875 
Q 39.703125 55.765625 41.0625 55.515625 
z
" id="DejaVuSans-114"/>
      <path d="M 34.28125 27.484375 
Q 23.390625 27.484375 19.1875 25 
Q 14.984375 22.515625 14.984375 16.5 
Q 14.984375 11.71875 18.140625 8.90625 
Q 21.296875 6.109375 26.703125 6.109375 
Q 34.1875 6.109375 38.703125 11.40625 
Q 43.21875 16.703125 43.21875 25.484375 
L 43.21875 27.484375 
z
M 52.203125 31.203125 
L 52.203125 0 
L 43.21875 0 
L 43.21875 8.296875 
Q 40.140625 3.328125 35.546875 0.953125 
Q 30.953125 -1.421875 24.3125 -1.421875 
Q 15.921875 -1.421875 10.953125 3.296875 
Q 6 8.015625 6 15.921875 
Q 6 25.140625 12.171875 29.828125 
Q 18.359375 34.515625 30.609375 34.515625 
L 43.21875 34.515625 
L 43.21875 35.40625 
Q 43.21875 41.609375 39.140625 45 
Q 35.0625 48.390625 27.6875 48.390625 
Q 23 48.390625 18.546875 47.265625 
Q 14.109375 46.140625 10.015625 43.890625 
L 10.015625 52.203125 
Q 14.9375 54.109375 19.578125 55.046875 
Q 24.21875 56 28.609375 56 
Q 40.484375 56 46.34375 49.84375 
Q 52.203125 43.703125 52.203125 31.203125 
z
" id="DejaVuSans-97"/>
      <path d="M 45.40625 46.390625 
L 45.40625 75.984375 
L 54.390625 75.984375 
L 54.390625 0 
L 45.40625 0 
L 45.40625 8.203125 
Q 42.578125 3.328125 38.25 0.953125 
Q 33.9375 -1.421875 27.875 -1.421875 
Q 17.96875 -1.421875 11.734375 6.484375 
Q 5.515625 14.40625 5.515625 27.296875 
Q 5.515625 40.1875 11.734375 48.09375 
Q 17.96875 56 27.875 56 
Q 33.9375 56 38.25 53.625 
Q 42.578125 51.265625 45.40625 46.390625 
z
M 14.796875 27.296875 
Q 14.796875 17.390625 18.875 11.75 
Q 22.953125 6.109375 30.078125 6.109375 
Q 37.203125 6.109375 41.296875 11.75 
Q 45.40625 17.390625 45.40625 27.296875 
Q 45.40625 37.203125 41.296875 42.84375 
Q 37.203125 48.484375 30.078125 48.484375 
Q 22.953125 48.484375 18.875 42.84375 
Q 14.796875 37.203125 14.796875 27.296875 
z
" id="DejaVuSans-100"/>
      <path d="M 9.421875 54.6875 
L 18.40625 54.6875 
L 18.40625 0 
L 9.421875 0 
z
M 9.421875 75.984375 
L 18.40625 75.984375 
L 18.40625 64.59375 
L 9.421875 64.59375 
z
" id="DejaVuSans-105"/>
      <path d="M 56.203125 29.59375 
L 56.203125 25.203125 
L 14.890625 25.203125 
Q 15.484375 15.921875 20.484375 11.0625 
Q 25.484375 6.203125 34.421875 6.203125 
Q 39.59375 6.203125 44.453125 7.46875 
Q 49.3125 8.734375 54.109375 11.28125 
L 54.109375 2.78125 
Q 49.265625 0.734375 44.1875 -0.34375 
Q 39.109375 -1.421875 33.890625 -1.421875 
Q 20.796875 -1.421875 13.15625 6.1875 
Q 5.515625 13.8125 5.515625 26.8125 
Q 5.515625 40.234375 12.765625 48.109375 
Q 20.015625 56 32.328125 56 
Q 43.359375 56 49.78125 48.890625 
Q 56.203125 41.796875 56.203125 29.59375 
z
M 47.21875 32.234375 
Q 47.125 39.59375 43.09375 43.984375 
Q 39.0625 48.390625 32.421875 48.390625 
Q 24.90625 48.390625 20.390625 44.140625 
Q 15.875 39.890625 15.1875 32.171875 
z
" id="DejaVuSans-101"/>
      <path d="M 54.890625 33.015625 
L 54.890625 0 
L 45.90625 0 
L 45.90625 32.71875 
Q 45.90625 40.484375 42.875 44.328125 
Q 39.84375 48.1875 33.796875 48.1875 
Q 26.515625 48.1875 22.3125 43.546875 
Q 18.109375 38.921875 18.109375 30.90625 
L 18.109375 0 
L 9.078125 0 
L 9.078125 54.6875 
L 18.109375 54.6875 
L 18.109375 46.1875 
Q 21.34375 51.125 25.703125 53.5625 
Q 30.078125 56 35.796875 56 
Q 45.21875 56 50.046875 50.171875 
Q 54.890625 44.34375 54.890625 33.015625 
z
" id="DejaVuSans-110"/>
      <path d="M 18.3125 70.21875 
L 18.3125 54.6875 
L 36.8125 54.6875 
L 36.8125 47.703125 
L 18.3125 47.703125 
L 18.3125 18.015625 
Q 18.3125 11.328125 20.140625 9.421875 
Q 21.96875 7.515625 27.59375 7.515625 
L 36.8125 7.515625 
L 36.8125 0 
L 27.59375 0 
Q 17.1875 0 13.234375 3.875 
Q 9.28125 7.765625 9.28125 18.015625 
L 9.28125 47.703125 
L 2.6875 47.703125 
L 2.6875 54.6875 
L 9.28125 54.6875 
L 9.28125 70.21875 
z
" id="DejaVuSans-116"/>
      <path id="DejaVuSans-32"/>
      <path d="M 53.515625 70.515625 
L 53.515625 60.890625 
Q 47.90625 63.578125 42.921875 64.890625 
Q 37.9375 66.21875 33.296875 66.21875 
Q 25.25 66.21875 20.875 63.09375 
Q 16.5 59.96875 16.5 54.203125 
Q 16.5 49.359375 19.40625 46.890625 
Q 22.3125 44.4375 30.421875 42.921875 
L 36.375 41.703125 
Q 47.40625 39.59375 52.65625 34.296875 
Q 57.90625 29 57.90625 20.125 
Q 57.90625 9.515625 50.796875 4.046875 
Q 43.703125 -1.421875 29.984375 -1.421875 
Q 24.8125 -1.421875 18.96875 -0.25 
Q 13.140625 0.921875 6.890625 3.21875 
L 6.890625 13.375 
Q 12.890625 10.015625 18.65625 8.296875 
Q 24.421875 6.59375 29.984375 6.59375 
Q 38.421875 6.59375 43.015625 9.90625 
Q 47.609375 13.234375 47.609375 19.390625 
Q 47.609375 24.75 44.3125 27.78125 
Q 41.015625 30.8125 33.5 32.328125 
L 27.484375 33.5 
Q 16.453125 35.6875 11.515625 40.375 
Q 6.59375 45.0625 6.59375 53.421875 
Q 6.59375 63.09375 13.40625 68.65625 
Q 20.21875 74.21875 32.171875 74.21875 
Q 37.3125 74.21875 42.625 73.28125 
Q 47.953125 72.359375 53.515625 70.515625 
z
" id="DejaVuSans-83"/>
      <path d="M 18.109375 8.203125 
L 18.109375 -20.796875 
L 9.078125 -20.796875 
L 9.078125 54.6875 
L 18.109375 54.6875 
L 18.109375 46.390625 
Q 20.953125 51.265625 25.265625 53.625 
Q 29.59375 56 35.59375 56 
Q 45.5625 56 51.78125 48.09375 
Q 58.015625 40.1875 58.015625 27.296875 
Q 58.015625 14.40625 51.78125 6.484375 
Q 45.5625 -1.421875 35.59375 -1.421875 
Q 29.59375 -1.421875 25.265625 0.953125 
Q 20.953125 3.328125 18.109375 8.203125 
z
M 48.6875 27.296875 
Q 48.6875 37.203125 44.609375 42.84375 
Q 40.53125 48.484375 33.40625 48.484375 
Q 26.265625 48.484375 22.1875 42.84375 
Q 18.109375 37.203125 18.109375 27.296875 
Q 18.109375 17.390625 22.1875 11.75 
Q 26.265625 6.109375 33.40625 6.109375 
Q 40.53125 6.109375 44.609375 11.75 
Q 48.6875 17.390625 48.6875 27.296875 
z
" id="DejaVuSans-112"/>
      <path d="M 44.28125 53.078125 
L 44.28125 44.578125 
Q 40.484375 46.53125 36.375 47.5 
Q 32.28125 48.484375 27.875 48.484375 
Q 21.1875 48.484375 17.84375 46.4375 
Q 14.5 44.390625 14.5 40.28125 
Q 14.5 37.15625 16.890625 35.375 
Q 19.28125 33.59375 26.515625 31.984375 
L 29.59375 31.296875 
Q 39.15625 29.25 43.1875 25.515625 
Q 47.21875 21.78125 47.21875 15.09375 
Q 47.21875 7.46875 41.1875 3.015625 
Q 35.15625 -1.421875 24.609375 -1.421875 
Q 20.21875 -1.421875 15.453125 -0.5625 
Q 10.6875 0.296875 5.421875 2 
L 5.421875 11.28125 
Q 10.40625 8.6875 15.234375 7.390625 
Q 20.0625 6.109375 24.8125 6.109375 
Q 31.15625 6.109375 34.5625 8.28125 
Q 37.984375 10.453125 37.984375 14.40625 
Q 37.984375 18.0625 35.515625 20.015625 
Q 33.0625 21.96875 24.703125 23.78125 
L 21.578125 24.515625 
Q 13.234375 26.265625 9.515625 29.90625 
Q 5.8125 33.546875 5.8125 39.890625 
Q 5.8125 47.609375 11.28125 51.796875 
Q 16.75 56 26.8125 56 
Q 31.78125 56 36.171875 55.265625 
Q 40.578125 54.546875 44.28125 53.078125 
z
" id="DejaVuSans-115"/>
      <path d="M 31 75.875 
Q 24.46875 64.65625 21.28125 53.65625 
Q 18.109375 42.671875 18.109375 31.390625 
Q 18.109375 20.125 21.3125 9.0625 
Q 24.515625 -2 31 -13.1875 
L 23.1875 -13.1875 
Q 15.875 -1.703125 12.234375 9.375 
Q 8.59375 20.453125 8.59375 31.390625 
Q 8.59375 42.28125 12.203125 53.3125 
Q 15.828125 64.359375 23.1875 75.875 
z
" id="DejaVuSans-40"/>
      <path d="M 54.890625 33.015625 
L 54.890625 0 
L 45.90625 0 
L 45.90625 32.71875 
Q 45.90625 40.484375 42.875 44.328125 
Q 39.84375 48.1875 33.796875 48.1875 
Q 26.515625 48.1875 22.3125 43.546875 
Q 18.109375 38.921875 18.109375 30.90625 
L 18.109375 0 
L 9.078125 0 
L 9.078125 75.984375 
L 18.109375 75.984375 
L 18.109375 46.1875 
Q 21.34375 51.125 25.703125 53.5625 
Q 30.078125 56 35.796875 56 
Q 45.21875 56 50.046875 50.171875 
Q 54.890625 44.34375 54.890625 33.015625 
z
" id="DejaVuSans-104"/>
      <path d="M 30.609375 48.390625 
Q 23.390625 48.390625 19.1875 42.75 
Q 14.984375 37.109375 14.984375 27.296875 
Q 14.984375 17.484375 19.15625 11.84375 
Q 23.34375 6.203125 30.609375 6.203125 
Q 37.796875 6.203125 41.984375 11.859375 
Q 46.1875 17.53125 46.1875 27.296875 
Q 46.1875 37.015625 41.984375 42.703125 
Q 37.796875 48.390625 30.609375 48.390625 
z
M 30.609375 56 
Q 42.328125 56 49.015625 48.375 
Q 55.71875 40.765625 55.71875 27.296875 
Q 55.71875 13.875 49.015625 6.21875 
Q 42.328125 -1.421875 30.609375 -1.421875 
Q 18.84375 -1.421875 12.171875 6.21875 
Q 5.515625 13.875 5.515625 27.296875 
Q 5.515625 40.765625 12.171875 48.375 
Q 18.84375 56 30.609375 56 
z
" id="DejaVuSans-111"/>
      <path d="M 8.5 21.578125 
L 8.5 54.6875 
L 17.484375 54.6875 
L 17.484375 21.921875 
Q 17.484375 14.15625 20.5 10.265625 
Q 23.53125 6.390625 29.59375 6.390625 
Q 36.859375 6.390625 41.078125 11.03125 
Q 45.3125 15.671875 45.3125 23.6875 
L 45.3125 54.6875 
L 54.296875 54.6875 
L 54.296875 0 
L 45.3125 0 
L 45.3125 8.40625 
Q 42.046875 3.421875 37.71875 1 
Q 33.40625 -1.421875 27.6875 -1.421875 
Q 18.265625 -1.421875 13.375 4.4375 
Q 8.5 10.296875 8.5 21.578125 
z
M 31.109375 56 
z
" id="DejaVuSans-117"/>
      <path d="M 8.015625 75.875 
L 15.828125 75.875 
Q 23.140625 64.359375 26.78125 53.3125 
Q 30.421875 42.28125 30.421875 31.390625 
Q 30.421875 20.453125 26.78125 9.375 
Q 23.140625 -1.703125 15.828125 -13.1875 
L 8.015625 -13.1875 
Q 14.5 -2 17.703125 9.0625 
Q 20.90625 20.125 20.90625 31.390625 
Q 20.90625 42.671875 17.703125 53.65625 
Q 14.5 64.65625 8.015625 75.875 
z
" id="DejaVuSans-41"/>
     </defs>
     <g transform="translate(600.389063 549.553125)scale(0.2 -0.2)">
      <use xlink:href="#DejaVuSans-71"/>
      <use x="77.490234" xlink:href="#DejaVuSans-114"/>
      <use x="118.603516" xlink:href="#DejaVuSans-97"/>
      <use x="179.882812" xlink:href="#DejaVuSans-100"/>
      <use x="243.359375" xlink:href="#DejaVuSans-105"/>
      <use x="271.142578" xlink:href="#DejaVuSans-101"/>
      <use x="332.666016" xlink:href="#DejaVuSans-110"/>
      <use x="396.044922" xlink:href="#DejaVuSans-116"/>
      <use x="435.253906" xlink:href="#DejaVuSans-32"/>
      <use x="467.041016" xlink:href="#DejaVuSans-83"/>
      <use x="530.517578" xlink:href="#DejaVuSans-116"/>
      <use x="569.726562" xlink:href="#DejaVuSans-101"/>
      <use x="631.25" xlink:href="#DejaVuSans-112"/>
      <use x="694.726562" xlink:href="#DejaVuSans-115"/>
      <use x="746.826172" xlink:href="#DejaVuSans-32"/>
      <use x="778.613281" xlink:href="#DejaVuSans-40"/>
      <use x="817.626953" xlink:href="#DejaVuSans-116"/>
      <use x="856.835938" xlink:href="#DejaVuSans-104"/>
      <use x="920.214844" xlink:href="#DejaVuSans-111"/>
      <use x="981.396484" xlink:href="#DejaVuSans-117"/>
      <use x="1044.775391" xlink:href="#DejaVuSans-115"/>
      <use x="1096.875" xlink:href="#DejaVuSans-97"/>
      <use x="1158.154297" xlink:href="#DejaVuSans-110"/>
      <use x="1221.533203" xlink:href="#DejaVuSans-100"/>
      <use x="1285.009766" xlink:href="#DejaVuSans-115"/>
      <use x="1337.109375" xlink:href="#DejaVuSans-41"/>
     </g>
    </g>
   </g>
   <g id="matplotlib.axis_2">
    <g id="ytick_1">
     <g id="line2d_19">
      <path clip-path="url(#p8e2a5ede28)" d="M 180 498.836934 
L 1296 498.836934 
" style="fill:none;stroke:#b0b0b0;stroke-linecap:square;stroke-opacity:0.4;stroke-width:0.8;"/>
     </g>
     <g id="line2d_20">
      <defs>
       <path d="M 0 0 
L -3.5 0 
" id="me29eaa32db" style="stroke:#000000;stroke-width:0.8;"/>
      </defs>
      <g>
       <use style="stroke:#000000;stroke-width:0.8;" x="180" xlink:href="#me29eaa32db" y="498.836934"/>
      </g>
     </g>
     <g id="text_11">
      <!-- $\mathdefault{10^{-4}}$ -->
      <defs>
       <path d="M 10.59375 35.5 
L 73.1875 35.5 
L 73.1875 27.203125 
L 10.59375 27.203125 
z
" id="DejaVuSans-8722"/>
       <path d="M 37.796875 64.3125 
L 12.890625 25.390625 
L 37.796875 25.390625 
z
M 35.203125 72.90625 
L 47.609375 72.90625 
L 47.609375 25.390625 
L 58.015625 25.390625 
L 58.015625 17.1875 
L 47.609375 17.1875 
L 47.609375 0 
L 37.796875 0 
L 37.796875 17.1875 
L 4.890625 17.1875 
L 4.890625 26.703125 
z
" id="DejaVuSans-52"/>
      </defs>
      <g transform="translate(126 506.435372)scale(0.2 -0.2)">
       <use transform="translate(0 0.684375)" xlink:href="#DejaVuSans-49"/>
       <use transform="translate(63.623047 0.684375)" xlink:href="#DejaVuSans-48"/>
       <use transform="translate(128.203125 38.965625)scale(0.7)" xlink:href="#DejaVuSans-8722"/>
       <use transform="translate(186.855469 38.965625)scale(0.7)" xlink:href="#DejaVuSans-52"/>
      </g>
     </g>
    </g>
    <g id="ytick_2">
     <g id="line2d_21">
      <path clip-path="url(#p8e2a5ede28)" d="M 180 434.509513 
L 1296 434.509513 
" style="fill:none;stroke:#b0b0b0;stroke-linecap:square;stroke-opacity:0.4;stroke-width:0.8;"/>
     </g>
     <g id="line2d_22">
      <g>
       <use style="stroke:#000000;stroke-width:0.8;" x="180" xlink:href="#me29eaa32db" y="434.509513"/>
      </g>
     </g>
     <g id="text_12">
      <!-- $\mathdefault{10^{-3}}$ -->
      <defs>
       <path d="M 40.578125 39.3125 
Q 47.65625 37.796875 51.625 33 
Q 55.609375 28.21875 55.609375 21.1875 
Q 55.609375 10.40625 48.1875 4.484375 
Q 40.765625 -1.421875 27.09375 -1.421875 
Q 22.515625 -1.421875 17.65625 -0.515625 
Q 12.796875 0.390625 7.625 2.203125 
L 7.625 11.71875 
Q 11.71875 9.328125 16.59375 8.109375 
Q 21.484375 6.890625 26.8125 6.890625 
Q 36.078125 6.890625 40.9375 10.546875 
Q 45.796875 14.203125 45.796875 21.1875 
Q 45.796875 27.640625 41.28125 31.265625 
Q 36.765625 34.90625 28.71875 34.90625 
L 20.21875 34.90625 
L 20.21875 43.015625 
L 29.109375 43.015625 
Q 36.375 43.015625 40.234375 45.921875 
Q 44.09375 48.828125 44.09375 54.296875 
Q 44.09375 59.90625 40.109375 62.90625 
Q 36.140625 65.921875 28.71875 65.921875 
Q 24.65625 65.921875 20.015625 65.03125 
Q 15.375 64.15625 9.8125 62.3125 
L 9.8125 71.09375 
Q 15.4375 72.65625 20.34375 73.4375 
Q 25.25 74.21875 29.59375 74.21875 
Q 40.828125 74.21875 47.359375 69.109375 
Q 53.90625 64.015625 53.90625 55.328125 
Q 53.90625 49.265625 50.4375 45.09375 
Q 46.96875 40.921875 40.578125 39.3125 
z
" id="DejaVuSans-51"/>
      </defs>
      <g transform="translate(126 442.107951)scale(0.2 -0.2)">
       <use transform="translate(0 0.765625)" xlink:href="#DejaVuSans-49"/>
       <use transform="translate(63.623047 0.765625)" xlink:href="#DejaVuSans-48"/>
       <use transform="translate(128.203125 39.046875)scale(0.7)" xlink:href="#DejaVuSans-8722"/>
       <use transform="translate(186.855469 39.046875)scale(0.7)" xlink:href="#DejaVuSans-51"/>
      </g>
     </g>
    </g>
    <g id="ytick_3">
     <g id="line2d_23">
      <path clip-path="url(#p8e2a5ede28)" d="M 180 370.182093 
L 1296 370.182093 
" style="fill:none;stroke:#b0b0b0;stroke-linecap:square;stroke-opacity:0.4;stroke-width:0.8;"/>
     </g>
     <g id="line2d_24">
      <g>
       <use style="stroke:#000000;stroke-width:0.8;" x="180" xlink:href="#me29eaa32db" y="370.182093"/>
      </g>
     </g>
     <g id="text_13">
      <!-- $\mathdefault{10^{-2}}$ -->
      <g transform="translate(126 377.78053)scale(0.2 -0.2)">
       <use transform="translate(0 0.765625)" xlink:href="#DejaVuSans-49"/>
       <use transform="translate(63.623047 0.765625)" xlink:href="#DejaVuSans-48"/>
       <use transform="translate(128.203125 39.046875)scale(0.7)" xlink:href="#DejaVuSans-8722"/>
       <use transform="translate(186.855469 39.046875)scale(0.7)" xlink:href="#DejaVuSans-50"/>
      </g>
     </g>
    </g>
    <g id="ytick_4">
     <g id="line2d_25">
      <path clip-path="url(#p8e2a5ede28)" d="M 180 305.854672 
L 1296 305.854672 
" style="fill:none;stroke:#b0b0b0;stroke-linecap:square;stroke-opacity:0.4;stroke-width:0.8;"/>
     </g>
     <g id="line2d_26">
      <g>
       <use style="stroke:#000000;stroke-width:0.8;" x="180" xlink:href="#me29eaa32db" y="305.854672"/>
      </g>
     </g>
     <g id="text_14">
      <!-- $\mathdefault{10^{-1}}$ -->
      <g transform="translate(126 313.453109)scale(0.2 -0.2)">
       <use transform="translate(0 0.684375)" xlink:href="#DejaVuSans-49"/>
       <use transform="translate(63.623047 0.684375)" xlink:href="#DejaVuSans-48"/>
       <use transform="translate(128.203125 38.965625)scale(0.7)" xlink:href="#DejaVuSans-8722"/>
       <use transform="translate(186.855469 38.965625)scale(0.7)" xlink:href="#DejaVuSans-49"/>
      </g>
     </g>
    </g>
    <g id="ytick_5">
     <g id="line2d_27">
      <path clip-path="url(#p8e2a5ede28)" d="M 180 241.527251 
L 1296 241.527251 
" style="fill:none;stroke:#b0b0b0;stroke-linecap:square;stroke-opacity:0.4;stroke-width:0.8;"/>
     </g>
     <g id="line2d_28">
      <g>
       <use style="stroke:#000000;stroke-width:0.8;" x="180" xlink:href="#me29eaa32db" y="241.527251"/>
      </g>
     </g>
     <g id="text_15">
      <!-- $\mathdefault{10^{0}}$ -->
      <g transform="translate(137.8 249.125688)scale(0.2 -0.2)">
       <use transform="translate(0 0.765625)" xlink:href="#DejaVuSans-49"/>
       <use transform="translate(63.623047 0.765625)" xlink:href="#DejaVuSans-48"/>
       <use transform="translate(128.203125 39.046875)scale(0.7)" xlink:href="#DejaVuSans-48"/>
      </g>
     </g>
    </g>
    <g id="ytick_6">
     <g id="line2d_29">
      <path clip-path="url(#p8e2a5ede28)" d="M 180 177.19983 
L 1296 177.19983 
" style="fill:none;stroke:#b0b0b0;stroke-linecap:square;stroke-opacity:0.4;stroke-width:0.8;"/>
     </g>
     <g id="line2d_30">
      <g>
       <use style="stroke:#000000;stroke-width:0.8;" x="180" xlink:href="#me29eaa32db" y="177.19983"/>
      </g>
     </g>
     <g id="text_16">
      <!-- $\mathdefault{10^{1}}$ -->
      <g transform="translate(137.8 184.798268)scale(0.2 -0.2)">
       <use transform="translate(0 0.684375)" xlink:href="#DejaVuSans-49"/>
       <use transform="translate(63.623047 0.684375)" xlink:href="#DejaVuSans-48"/>
       <use transform="translate(128.203125 38.965625)scale(0.7)" xlink:href="#DejaVuSans-49"/>
      </g>
     </g>
    </g>
    <g id="ytick_7">
     <g id="line2d_31">
      <path clip-path="url(#p8e2a5ede28)" d="M 180 112.872409 
L 1296 112.872409 
" style="fill:none;stroke:#b0b0b0;stroke-linecap:square;stroke-opacity:0.4;stroke-width:0.8;"/>
     </g>
     <g id="line2d_32">
      <g>
       <use style="stroke:#000000;stroke-width:0.8;" x="180" xlink:href="#me29eaa32db" y="112.872409"/>
      </g>
     </g>
     <g id="text_17">
      <!-- $\mathdefault{10^{2}}$ -->
      <g transform="translate(137.8 120.470847)scale(0.2 -0.2)">
       <use transform="translate(0 0.765625)" xlink:href="#DejaVuSans-49"/>
       <use transform="translate(63.623047 0.765625)" xlink:href="#DejaVuSans-48"/>
       <use transform="translate(128.203125 39.046875)scale(0.7)" xlink:href="#DejaVuSans-50"/>
      </g>
     </g>
    </g>
    <g id="ytick_8">
     <g id="line2d_33">
      <defs>
       <path d="M 0 0 
L -2 0 
" id="m40fe923dc3" style="stroke:#000000;stroke-width:0.6;"/>
      </defs>
      <g>
       <use style="stroke:#000000;stroke-width:0.6;" x="180" xlink:href="#m40fe923dc3" y="501.780395"/>
      </g>
     </g>
    </g>
    <g id="ytick_9">
     <g id="line2d_34">
      <g>
       <use style="stroke:#000000;stroke-width:0.6;" x="180" xlink:href="#m40fe923dc3" y="479.472451"/>
      </g>
     </g>
    </g>
    <g id="ytick_10">
     <g id="line2d_35">
      <g>
       <use style="stroke:#000000;stroke-width:0.6;" x="180" xlink:href="#m40fe923dc3" y="468.144954"/>
      </g>
     </g>
    </g>
    <g id="ytick_11">
     <g id="line2d_36">
      <g>
       <use style="stroke:#000000;stroke-width:0.6;" x="180" xlink:href="#m40fe923dc3" y="460.107968"/>
      </g>
     </g>
    </g>
    <g id="ytick_12">
     <g id="line2d_37">
      <g>
       <use style="stroke:#000000;stroke-width:0.6;" x="180" xlink:href="#m40fe923dc3" y="453.873997"/>
      </g>
     </g>
    </g>
    <g id="ytick_13">
     <g id="line2d_38">
      <g>
       <use style="stroke:#000000;stroke-width:0.6;" x="180" xlink:href="#m40fe923dc3" y="448.780471"/>
      </g>
     </g>
    </g>
    <g id="ytick_14">
     <g id="line2d_39">
      <g>
       <use style="stroke:#000000;stroke-width:0.6;" x="180" xlink:href="#m40fe923dc3" y="444.473957"/>
      </g>
     </g>
    </g>
    <g id="ytick_15">
     <g id="line2d_40">
      <g>
       <use style="stroke:#000000;stroke-width:0.6;" x="180" xlink:href="#m40fe923dc3" y="440.743485"/>
      </g>
     </g>
    </g>
    <g id="ytick_16">
     <g id="line2d_41">
      <g>
       <use style="stroke:#000000;stroke-width:0.6;" x="180" xlink:href="#m40fe923dc3" y="437.452975"/>
      </g>
     </g>
    </g>
    <g id="ytick_17">
     <g id="line2d_42">
      <g>
       <use style="stroke:#000000;stroke-width:0.6;" x="180" xlink:href="#m40fe923dc3" y="415.14503"/>
      </g>
     </g>
    </g>
    <g id="ytick_18">
     <g id="line2d_43">
      <g>
       <use style="stroke:#000000;stroke-width:0.6;" x="180" xlink:href="#m40fe923dc3" y="403.817534"/>
      </g>
     </g>
    </g>
    <g id="ytick_19">
     <g id="line2d_44">
      <g>
       <use style="stroke:#000000;stroke-width:0.6;" x="180" xlink:href="#m40fe923dc3" y="395.780547"/>
      </g>
     </g>
    </g>
    <g id="ytick_20">
     <g id="line2d_45">
      <g>
       <use style="stroke:#000000;stroke-width:0.6;" x="180" xlink:href="#m40fe923dc3" y="389.546576"/>
      </g>
     </g>
    </g>
    <g id="ytick_21">
     <g id="line2d_46">
      <g>
       <use style="stroke:#000000;stroke-width:0.6;" x="180" xlink:href="#m40fe923dc3" y="384.45305"/>
      </g>
     </g>
    </g>
    <g id="ytick_22">
     <g id="line2d_47">
      <g>
       <use style="stroke:#000000;stroke-width:0.6;" x="180" xlink:href="#m40fe923dc3" y="380.146536"/>
      </g>
     </g>
    </g>
    <g id="ytick_23">
     <g id="line2d_48">
      <g>
       <use style="stroke:#000000;stroke-width:0.6;" x="180" xlink:href="#m40fe923dc3" y="376.416064"/>
      </g>
     </g>
    </g>
    <g id="ytick_24">
     <g id="line2d_49">
      <g>
       <use style="stroke:#000000;stroke-width:0.6;" x="180" xlink:href="#m40fe923dc3" y="373.125554"/>
      </g>
     </g>
    </g>
    <g id="ytick_25">
     <g id="line2d_50">
      <g>
       <use style="stroke:#000000;stroke-width:0.6;" x="180" xlink:href="#m40fe923dc3" y="350.817609"/>
      </g>
     </g>
    </g>
    <g id="ytick_26">
     <g id="line2d_51">
      <g>
       <use style="stroke:#000000;stroke-width:0.6;" x="180" xlink:href="#m40fe923dc3" y="339.490113"/>
      </g>
     </g>
    </g>
    <g id="ytick_27">
     <g id="line2d_52">
      <g>
       <use style="stroke:#000000;stroke-width:0.6;" x="180" xlink:href="#m40fe923dc3" y="331.453126"/>
      </g>
     </g>
    </g>
    <g id="ytick_28">
     <g id="line2d_53">
      <g>
       <use style="stroke:#000000;stroke-width:0.6;" x="180" xlink:href="#m40fe923dc3" y="325.219155"/>
      </g>
     </g>
    </g>
    <g id="ytick_29">
     <g id="line2d_54">
      <g>
       <use style="stroke:#000000;stroke-width:0.6;" x="180" xlink:href="#m40fe923dc3" y="320.12563"/>
      </g>
     </g>
    </g>
    <g id="ytick_30">
     <g id="line2d_55">
      <g>
       <use style="stroke:#000000;stroke-width:0.6;" x="180" xlink:href="#m40fe923dc3" y="315.819115"/>
      </g>
     </g>
    </g>
    <g id="ytick_31">
     <g id="line2d_56">
      <g>
       <use style="stroke:#000000;stroke-width:0.6;" x="180" xlink:href="#m40fe923dc3" y="312.088643"/>
      </g>
     </g>
    </g>
    <g id="ytick_32">
     <g id="line2d_57">
      <g>
       <use style="stroke:#000000;stroke-width:0.6;" x="180" xlink:href="#m40fe923dc3" y="308.798133"/>
      </g>
     </g>
    </g>
    <g id="ytick_33">
     <g id="line2d_58">
      <g>
       <use style="stroke:#000000;stroke-width:0.6;" x="180" xlink:href="#m40fe923dc3" y="286.490189"/>
      </g>
     </g>
    </g>
    <g id="ytick_34">
     <g id="line2d_59">
      <g>
       <use style="stroke:#000000;stroke-width:0.6;" x="180" xlink:href="#m40fe923dc3" y="275.162692"/>
      </g>
     </g>
    </g>
    <g id="ytick_35">
     <g id="line2d_60">
      <g>
       <use style="stroke:#000000;stroke-width:0.6;" x="180" xlink:href="#m40fe923dc3" y="267.125705"/>
      </g>
     </g>
    </g>
    <g id="ytick_36">
     <g id="line2d_61">
      <g>
       <use style="stroke:#000000;stroke-width:0.6;" x="180" xlink:href="#m40fe923dc3" y="260.891734"/>
      </g>
     </g>
    </g>
    <g id="ytick_37">
     <g id="line2d_62">
      <g>
       <use style="stroke:#000000;stroke-width:0.6;" x="180" xlink:href="#m40fe923dc3" y="255.798209"/>
      </g>
     </g>
    </g>
    <g id="ytick_38">
     <g id="line2d_63">
      <g>
       <use style="stroke:#000000;stroke-width:0.6;" x="180" xlink:href="#m40fe923dc3" y="251.491695"/>
      </g>
     </g>
    </g>
    <g id="ytick_39">
     <g id="line2d_64">
      <g>
       <use style="stroke:#000000;stroke-width:0.6;" x="180" xlink:href="#m40fe923dc3" y="247.761222"/>
      </g>
     </g>
    </g>
    <g id="ytick_40">
     <g id="line2d_65">
      <g>
       <use style="stroke:#000000;stroke-width:0.6;" x="180" xlink:href="#m40fe923dc3" y="244.470712"/>
      </g>
     </g>
    </g>
    <g id="ytick_41">
     <g id="line2d_66">
      <g>
       <use style="stroke:#000000;stroke-width:0.6;" x="180" xlink:href="#m40fe923dc3" y="222.162768"/>
      </g>
     </g>
    </g>
    <g id="ytick_42">
     <g id="line2d_67">
      <g>
       <use style="stroke:#000000;stroke-width:0.6;" x="180" xlink:href="#m40fe923dc3" y="210.835271"/>
      </g>
     </g>
    </g>
    <g id="ytick_43">
     <g id="line2d_68">
      <g>
       <use style="stroke:#000000;stroke-width:0.6;" x="180" xlink:href="#m40fe923dc3" y="202.798285"/>
      </g>
     </g>
    </g>
    <g id="ytick_44">
     <g id="line2d_69">
      <g>
       <use style="stroke:#000000;stroke-width:0.6;" x="180" xlink:href="#m40fe923dc3" y="196.564313"/>
      </g>
     </g>
    </g>
    <g id="ytick_45">
     <g id="line2d_70">
      <g>
       <use style="stroke:#000000;stroke-width:0.6;" x="180" xlink:href="#m40fe923dc3" y="191.470788"/>
      </g>
     </g>
    </g>
    <g id="ytick_46">
     <g id="line2d_71">
      <g>
       <use style="stroke:#000000;stroke-width:0.6;" x="180" xlink:href="#m40fe923dc3" y="187.164274"/>
      </g>
     </g>
    </g>
    <g id="ytick_47">
     <g id="line2d_72">
      <g>
       <use style="stroke:#000000;stroke-width:0.6;" x="180" xlink:href="#m40fe923dc3" y="183.433801"/>
      </g>
     </g>
    </g>
    <g id="ytick_48">
     <g id="line2d_73">
      <g>
       <use style="stroke:#000000;stroke-width:0.6;" x="180" xlink:href="#m40fe923dc3" y="180.143292"/>
      </g>
     </g>
    </g>
    <g id="ytick_49">
     <g id="line2d_74">
      <g>
       <use style="stroke:#000000;stroke-width:0.6;" x="180" xlink:href="#m40fe923dc3" y="157.835347"/>
      </g>
     </g>
    </g>
    <g id="ytick_50">
     <g id="line2d_75">
      <g>
       <use style="stroke:#000000;stroke-width:0.6;" x="180" xlink:href="#m40fe923dc3" y="146.50785"/>
      </g>
     </g>
    </g>
    <g id="ytick_51">
     <g id="line2d_76">
      <g>
       <use style="stroke:#000000;stroke-width:0.6;" x="180" xlink:href="#m40fe923dc3" y="138.470864"/>
      </g>
     </g>
    </g>
    <g id="ytick_52">
     <g id="line2d_77">
      <g>
       <use style="stroke:#000000;stroke-width:0.6;" x="180" xlink:href="#m40fe923dc3" y="132.236893"/>
      </g>
     </g>
    </g>
    <g id="ytick_53">
     <g id="line2d_78">
      <g>
       <use style="stroke:#000000;stroke-width:0.6;" x="180" xlink:href="#m40fe923dc3" y="127.143367"/>
      </g>
     </g>
    </g>
    <g id="ytick_54">
     <g id="line2d_79">
      <g>
       <use style="stroke:#000000;stroke-width:0.6;" x="180" xlink:href="#m40fe923dc3" y="122.836853"/>
      </g>
     </g>
    </g>
    <g id="ytick_55">
     <g id="line2d_80">
      <g>
       <use style="stroke:#000000;stroke-width:0.6;" x="180" xlink:href="#m40fe923dc3" y="119.106381"/>
      </g>
     </g>
    </g>
    <g id="ytick_56">
     <g id="line2d_81">
      <g>
       <use style="stroke:#000000;stroke-width:0.6;" x="180" xlink:href="#m40fe923dc3" y="115.815871"/>
      </g>
     </g>
    </g>
    <g id="ytick_57">
     <g id="line2d_82">
      <g>
       <use style="stroke:#000000;stroke-width:0.6;" x="180" xlink:href="#m40fe923dc3" y="93.507926"/>
      </g>
     </g>
    </g>
    <g id="ytick_58">
     <g id="line2d_83">
      <g>
       <use style="stroke:#000000;stroke-width:0.6;" x="180" xlink:href="#m40fe923dc3" y="82.18043"/>
      </g>
     </g>
    </g>
    <g id="ytick_59">
     <g id="line2d_84">
      <g>
       <use style="stroke:#000000;stroke-width:0.6;" x="180" xlink:href="#m40fe923dc3" y="74.143443"/>
      </g>
     </g>
    </g>
    <g id="text_18">
     <!-- $\mathrm{KL} \:(\: p(\mu, \tau | x,\: c) \: || \: q_\phi(\mu, \tau | x, \: c) \:)$ -->
     <defs>
      <path d="M 9.8125 72.90625 
L 19.671875 72.90625 
L 19.671875 42.09375 
L 52.390625 72.90625 
L 65.09375 72.90625 
L 28.90625 38.921875 
L 67.671875 0 
L 54.6875 0 
L 19.671875 35.109375 
L 19.671875 0 
L 9.8125 0 
z
" id="DejaVuSans-75"/>
      <path d="M 9.8125 72.90625 
L 19.671875 72.90625 
L 19.671875 8.296875 
L 55.171875 8.296875 
L 55.171875 0 
L 9.8125 0 
z
" id="DejaVuSans-76"/>
      <path d="M 49.609375 33.6875 
Q 49.609375 40.875 46.484375 44.671875 
Q 43.359375 48.484375 37.5 48.484375 
Q 33.5 48.484375 29.859375 46.4375 
Q 26.21875 44.390625 23.390625 40.484375 
Q 20.609375 36.625 18.9375 31.15625 
Q 17.28125 25.6875 17.28125 20.3125 
Q 17.28125 13.484375 20.40625 9.796875 
Q 23.53125 6.109375 29.296875 6.109375 
Q 33.546875 6.109375 37.1875 8.109375 
Q 40.828125 10.109375 43.40625 13.921875 
Q 46.1875 17.921875 47.890625 23.34375 
Q 49.609375 28.765625 49.609375 33.6875 
z
M 21.78125 46.390625 
Q 25.390625 51.125 30.296875 53.5625 
Q 35.203125 56 41.21875 56 
Q 49.609375 56 54.25 50.5 
Q 58.890625 45.015625 58.890625 35.109375 
Q 58.890625 27 56 19.65625 
Q 53.125 12.3125 47.703125 6.5 
Q 44.09375 2.640625 39.546875 0.609375 
Q 35.015625 -1.421875 29.984375 -1.421875 
Q 24.171875 -1.421875 20.21875 1 
Q 16.265625 3.421875 14.3125 8.203125 
L 8.6875 -20.796875 
L -0.296875 -20.796875 
L 14.40625 54.6875 
L 23.390625 54.6875 
z
" id="DejaVuSans-Oblique-112"/>
      <path d="M -1.3125 -20.796875 
L 13.375 54.6875 
L 22.40625 54.6875 
L 15.765625 20.65625 
Q 15.578125 19.625 15.421875 18.359375 
Q 15.28125 17.09375 15.28125 15.828125 
Q 15.28125 11.28125 18.140625 8.828125 
Q 21 6.390625 26.3125 6.390625 
Q 33.546875 6.390625 37.984375 10.484375 
Q 42.4375 14.59375 44 22.796875 
L 50.203125 54.6875 
L 59.1875 54.6875 
L 51.03125 12.640625 
Q 50.828125 11.71875 50.75 11.03125 
Q 50.6875 10.359375 50.6875 9.8125 
Q 50.6875 8.296875 51.296875 7.59375 
Q 51.90625 6.890625 53.21875 6.890625 
Q 53.71875 6.890625 54.5625 7.125 
Q 55.421875 7.375 56.984375 8.015625 
L 55.609375 0.78125 
Q 53.46875 -0.296875 51.515625 -0.859375 
Q 49.5625 -1.421875 47.703125 -1.421875 
Q 44.484375 -1.421875 42.65625 0.625 
Q 40.828125 2.6875 40.828125 6.296875 
Q 38.09375 2.390625 34.296875 0.484375 
Q 30.515625 -1.421875 25.390625 -1.421875 
Q 20.84375 -1.421875 17.453125 0.671875 
Q 14.0625 2.78125 12.984375 6.203125 
L 7.71875 -20.796875 
z
" id="DejaVuSans-Oblique-956"/>
      <path d="M 11.71875 12.40625 
L 22.015625 12.40625 
L 22.015625 4 
L 14.015625 -11.625 
L 7.71875 -11.625 
L 11.71875 4 
z
" id="DejaVuSans-44"/>
      <path d="M 32.859375 9.96875 
Q 34.1875 7.625 39.453125 7.625 
L 43.75 7.625 
L 42.28125 0 
L 36.921875 0 
Q 28.125 0 25 4.6875 
Q 21.921875 9.46875 23.96875 19.828125 
L 29 45.703125 
L 8.453125 45.703125 
L 10.203125 54.6875 
L 60.640625 54.6875 
L 58.890625 45.703125 
L 38.1875 45.703125 
L 33.015625 19.28125 
Q 31.640625 12.203125 32.859375 9.96875 
z
" id="DejaVuSans-Oblique-964"/>
      <path d="M 21 76.421875 
L 21 -23.578125 
L 12.703125 -23.578125 
L 12.703125 76.421875 
z
" id="DejaVuSans-124"/>
      <path d="M 60.015625 54.6875 
L 34.90625 27.875 
L 50.296875 0 
L 39.984375 0 
L 28.421875 21.6875 
L 8.296875 0 
L -2.59375 0 
L 24.3125 28.8125 
L 10.015625 54.6875 
L 20.3125 54.6875 
L 30.8125 34.90625 
L 49.125 54.6875 
z
" id="DejaVuSans-Oblique-120"/>
      <path d="M 53.609375 52.59375 
L 51.8125 43.703125 
Q 48.578125 46.046875 44.9375 47.21875 
Q 41.3125 48.390625 37.40625 48.390625 
Q 33.109375 48.390625 29.21875 46.875 
Q 25.34375 45.359375 22.703125 42.578125 
Q 18.5 38.328125 16.203125 32.609375 
Q 13.921875 26.90625 13.921875 20.796875 
Q 13.921875 13.421875 17.609375 9.8125 
Q 21.296875 6.203125 28.8125 6.203125 
Q 32.515625 6.203125 36.6875 7.328125 
Q 40.875 8.453125 45.40625 10.6875 
L 43.703125 1.8125 
Q 39.796875 0.203125 35.671875 -0.609375 
Q 31.546875 -1.421875 27.203125 -1.421875 
Q 16.3125 -1.421875 10.453125 4.015625 
Q 4.59375 9.46875 4.59375 19.578125 
Q 4.59375 28.078125 7.640625 35.234375 
Q 10.6875 42.390625 16.703125 48.09375 
Q 20.796875 52 26.3125 54 
Q 31.84375 56 38.375 56 
Q 42.1875 56 45.9375 55.140625 
Q 49.703125 54.296875 53.609375 52.59375 
z
" id="DejaVuSans-Oblique-99"/>
      <path d="M 41.703125 8.203125 
Q 38.09375 3.46875 33.171875 1.015625 
Q 28.265625 -1.421875 22.3125 -1.421875 
Q 14.015625 -1.421875 9.296875 4.171875 
Q 4.59375 9.765625 4.59375 19.578125 
Q 4.59375 27.484375 7.5 34.859375 
Q 10.40625 42.234375 15.828125 48.09375 
Q 19.34375 51.90625 23.90625 53.953125 
Q 28.46875 56 33.5 56 
Q 39.546875 56 43.453125 53.609375 
Q 47.359375 51.21875 49.125 46.390625 
L 50.6875 54.59375 
L 59.71875 54.59375 
L 45.125 -20.609375 
L 36.078125 -20.609375 
z
M 13.921875 20.90625 
Q 13.921875 13.671875 16.9375 9.890625 
Q 19.96875 6.109375 25.6875 6.109375 
Q 34.1875 6.109375 40.1875 14.234375 
Q 46.1875 22.359375 46.1875 33.984375 
Q 46.1875 41.015625 43.078125 44.75 
Q 39.984375 48.484375 34.1875 48.484375 
Q 29.9375 48.484375 26.3125 46.5 
Q 22.703125 44.53125 20.015625 40.71875 
Q 17.1875 36.71875 15.546875 31.34375 
Q 13.921875 25.984375 13.921875 20.90625 
z
" id="DejaVuSans-Oblique-113"/>
      <path d="M 46.734375 75.984375 
L 42.78125 55.8125 
Q 52.546875 55.8125 57.5625 48.34375 
Q 62.75 40.71875 60.15625 27.296875 
Q 57.515625 13.875 49.359375 6.25 
Q 41.453125 -1.21875 31.6875 -1.21875 
L 27.875 -20.796875 
L 18.953125 -20.796875 
L 22.75 -1.21875 
Q 13.03125 -1.21875 7.953125 6.25 
Q 2.78125 13.875 5.421875 27.296875 
Q 8.015625 40.71875 16.15625 48.34375 
Q 24.125 55.8125 33.84375 55.8125 
L 37.796875 75.984375 
z
M 33.25 6.78125 
Q 38.765625 6.78125 43.5 11.8125 
Q 48.6875 17.4375 50.6875 27.296875 
Q 52.640625 37.0625 49.515625 42.78125 
Q 46.734375 47.796875 41.21875 47.796875 
z
M 24.3125 6.78125 
L 32.28125 47.796875 
Q 26.8125 47.796875 22.078125 42.78125 
Q 16.75 37.0625 14.890625 27.296875 
Q 13.03125 17.4375 16.0625 11.8125 
Q 18.796875 6.78125 24.3125 6.78125 
z
" id="DejaVuSans-Oblique-981"/>
     </defs>
     <g transform="translate(114.25 473.935)rotate(-90)scale(0.25 -0.25)">
      <use transform="translate(0 0.578125)" xlink:href="#DejaVuSans-75"/>
      <use transform="translate(65.576172 0.578125)" xlink:href="#DejaVuSans-76"/>
      <use transform="translate(142.935981 0.578125)" xlink:href="#DejaVuSans-40"/>
      <use transform="translate(203.596572 0.578125)" xlink:href="#DejaVuSans-Oblique-112"/>
      <use transform="translate(267.073135 0.578125)" xlink:href="#DejaVuSans-40"/>
      <use transform="translate(306.086807 0.578125)" xlink:href="#DejaVuSans-Oblique-956"/>
      <use transform="translate(369.709854 0.578125)" xlink:href="#DejaVuSans-44"/>
      <use transform="translate(420.979385 0.578125)" xlink:href="#DejaVuSans-Oblique-964"/>
      <use transform="translate(481.184463 0.578125)" xlink:href="#DejaVuSans-124"/>
      <use transform="translate(514.875869 0.578125)" xlink:href="#DejaVuSans-Oblique-120"/>
      <use transform="translate(574.055557 0.578125)" xlink:href="#DejaVuSans-44"/>
      <use transform="translate(646.972007 0.578125)" xlink:href="#DejaVuSans-Oblique-99"/>
      <use transform="translate(701.952476 0.578125)" xlink:href="#DejaVuSans-41"/>
      <use transform="translate(762.613066 0.578125)" xlink:href="#DejaVuSans-124"/>
      <use transform="translate(796.304473 0.578125)" xlink:href="#DejaVuSans-124"/>
      <use transform="translate(851.642798 0.578125)" xlink:href="#DejaVuSans-Oblique-113"/>
      <use transform="translate(915.11936 -15.828125)scale(0.7)" xlink:href="#DejaVuSans-Oblique-981"/>
      <use transform="translate(964.030493 0.578125)" xlink:href="#DejaVuSans-40"/>
      <use transform="translate(1003.044165 0.578125)" xlink:href="#DejaVuSans-Oblique-956"/>
      <use transform="translate(1066.667212 0.578125)" xlink:href="#DejaVuSans-44"/>
      <use transform="translate(1117.936743 0.578125)" xlink:href="#DejaVuSans-Oblique-964"/>
      <use transform="translate(1178.141821 0.578125)" xlink:href="#DejaVuSans-124"/>
      <use transform="translate(1211.833228 0.578125)" xlink:href="#DejaVuSans-Oblique-120"/>
      <use transform="translate(1271.012915 0.578125)" xlink:href="#DejaVuSans-44"/>
      <use transform="translate(1343.929365 0.578125)" xlink:href="#DejaVuSans-Oblique-99"/>
      <use transform="translate(1398.909834 0.578125)" xlink:href="#DejaVuSans-41"/>
      <use transform="translate(1459.570425 0.578125)" xlink:href="#DejaVuSans-41"/>
     </g>
    </g>
   </g>
   <g id="line2d_85">
    <path clip-path="url(#p8e2a5ede28)" d="M 230.727273 168.554107 
L 240.975207 97.875836 
L 251.22314 94.250314 
L 261.471074 98.345529 
L 271.719008 247.586893 
L 281.966942 102.14787 
L 292.214876 97.183005 
L 302.46281 100.738845 
L 312.710744 105.623779 
L 322.958678 108.792502 
L 333.206612 111.05604 
L 343.454545 113.741046 
L 353.702479 127.074095 
L 363.950413 174.176577 
L 374.198347 180.314591 
L 384.446281 156.847785 
L 394.694215 202.861034 
L 404.942149 163.287707 
L 415.190083 173.821057 
L 425.438017 217.120923 
L 435.68595 234.466265 
L 445.933884 278.19964 
L 456.181818 303.453445 
L 466.429752 337.137294 
L 476.677686 359.985343 
L 486.92562 396.552396 
L 497.173554 417.062511 
L 507.421488 442.410252 
L 517.669421 441.450789 
L 527.917355 461.272675 
L 538.165289 466.575723 
L 548.413223 467.591728 
L 558.661157 475.689646 
L 568.909091 475.08623 
L 579.157025 471.716241 
L 589.404959 475.893716 
L 599.652893 478.421547 
L 609.900826 472.3585 
L 620.14876 479.379482 
L 630.396694 478.646665 
L 640.644628 480.710069 
L 650.892562 479.894681 
L 661.140496 480.954489 
L 671.38843 477.236294 
L 681.636364 479.989383 
L 691.884298 476.809766 
L 702.132231 477.538787 
L 712.380165 464.402844 
L 722.628099 479.56573 
L 732.876033 480.516061 
L 743.123967 477.495372 
L 753.371901 480.179756 
L 763.619835 467.561312 
L 773.867769 479.753228 
L 784.115702 482.885453 
L 794.363636 479.706235 
L 804.61157 475.046462 
L 814.859504 476.683067 
L 825.107438 481.052859 
L 835.355372 479.010671 
L 845.603306 479.989383 
L 855.85124 477.322387 
L 866.099174 481.350065 
L 876.347107 480.084407 
L 886.595041 482.056093 
L 896.842975 482.056093 
L 907.090909 479.894681 
L 917.338843 469.2854 
L 927.586777 475.852782 
L 937.834711 482.312633 
L 948.082645 478.691908 
L 958.330579 484.232727 
L 968.578512 478.37674 
L 978.826446 482.312633 
L 989.07438 477.452025 
L 999.322314 480.807581 
L 1009.570248 470.541953 
L 1019.818182 480.905434 
L 1030.066116 483.096699 
L 1040.31405 481.052859 
L 1050.561983 478.020849 
L 1060.809917 478.691908 
L 1071.057851 480.905434 
L 1081.305785 480.036855 
L 1091.553719 480.467769 
L 1101.801653 480.516061 
L 1112.049587 450.01809 
L 1122.297521 477.582268 
L 1132.545455 482.209734 
L 1142.793388 404.470768 
L 1153.041322 427.605698 
L 1163.289256 479.425928 
L 1173.53719 478.332005 
L 1183.785124 481.903292 
L 1194.033058 478.691908 
L 1204.280992 482.056093 
L 1214.528926 481.102175 
L 1224.77686 480.227552 
L 1235.024793 481.052859 
L 1245.272727 479.894681 
" style="fill:none;stroke:#aa3377;stroke-linecap:square;stroke-width:3;"/>
   </g>
   <g id="line2d_86">
    <path clip-path="url(#p8e2a5ede28)" d="M 230.727273 163.589718 
L 240.975207 102.555794 
L 251.22314 136.146548 
L 261.471074 95.050166 
L 271.719008 93.487001 
L 281.966942 97.405391 
L 292.214876 100.365233 
L 302.46281 103.966185 
L 312.710744 108.406715 
L 322.958678 115.14277 
L 333.206612 126.374929 
L 343.454545 160.537941 
L 353.702479 144.946505 
L 363.950413 145.935257 
L 374.198347 191.298622 
L 384.446281 144.735394 
L 394.694215 156.38293 
L 404.942149 236.177588 
L 415.190083 205.129221 
L 425.438017 231.815858 
L 435.68595 310.521796 
L 445.933884 246.668578 
L 456.181818 208.30832 
L 466.429752 288.158241 
L 476.677686 295.881001 
L 486.92562 322.148535 
L 497.173554 371.151367 
L 507.421488 364.667272 
L 517.669421 393.343111 
L 527.917355 409.563022 
L 538.165289 323.03445 
L 548.413223 451.449365 
L 558.661157 447.969758 
L 568.909091 380.434032 
L 579.157025 471.435464 
L 589.404959 468.77278 
L 599.652893 473.126954 
L 609.900826 448.795996 
L 620.14876 461.960693 
L 630.396694 478.421547 
L 640.644628 476.937042 
L 650.892562 477.756875 
L 661.140496 478.242749 
L 671.38843 478.153778 
L 681.636364 476.809766 
L 691.884298 476.683067 
L 702.132231 461.910983 
L 712.380165 463.415944 
L 722.628099 471.157481 
L 732.876033 476.556941 
L 743.123967 479.286822 
L 753.371901 473.350452 
L 763.619835 413.246146 
L 773.867769 354.093107 
L 784.115702 426.852246 
L 794.363636 474.848467 
L 804.61157 469.643364 
L 814.859504 479.056507 
L 825.107438 480.371434 
L 835.355372 479.612487 
L 845.603306 347.915106 
L 855.85124 426.465543 
L 866.099174 453.559157 
L 876.347107 476.556941 
L 886.595041 469.253084 
L 896.842975 477.625818 
L 907.090909 467.591728 
L 917.338843 408.877555 
L 927.586777 370.248289 
L 937.834711 402.730778 
L 948.082645 459.101943 
L 958.330579 477.625818 
L 968.578512 477.538787 
L 978.826446 480.084407 
L 989.07438 477.582268 
L 999.322314 478.109398 
L 1009.570248 479.333114 
L 1019.818182 474.147082 
L 1030.066116 405.875 
L 1040.31405 435.026446 
L 1050.561983 423.638934 
L 1060.809917 478.873613 
L 1071.057851 481.499862 
L 1081.305785 478.5564 
L 1091.553719 475.126055 
L 1101.801653 478.37674 
L 1112.049587 478.020849 
L 1122.297521 479.612487 
L 1132.545455 479.941992 
L 1142.793388 420.524977 
L 1153.041322 426.451582 
L 1163.289256 480.807581 
L 1173.53719 474.691075 
L 1183.785124 476.347986 
L 1194.033058 477.669435 
L 1204.280992 476.347986 
L 1214.528926 479.425928 
L 1224.77686 480.179756 
L 1235.024793 476.640962 
L 1245.272727 476.306382 
" style="fill:none;stroke:#009988;stroke-linecap:square;stroke-width:3;"/>
   </g>
   <g id="line2d_87">
    <path clip-path="url(#p8e2a5ede28)" d="M 230.727273 159.764816 
L 240.975207 102.602454 
L 251.22314 90.620304 
L 261.471074 88.887273 
L 271.719008 89.143274 
L 281.966942 90.125544 
L 292.214876 182.649556 
L 302.46281 101.044625 
L 312.710744 97.718541 
L 322.958678 99.156944 
L 333.206612 100.598409 
L 343.454545 103.472445 
L 353.702479 102.400892 
L 363.950413 103.254425 
L 374.198347 103.916601 
L 384.446281 105.315156 
L 394.694215 107.853486 
L 404.942149 110.899299 
L 415.190083 117.403126 
L 425.438017 130.977143 
L 435.68595 149.580749 
L 445.933884 146.196399 
L 456.181818 141.546602 
L 466.429752 144.357108 
L 476.677686 144.147728 
L 486.92562 192.303257 
L 497.173554 166.522984 
L 507.421488 171.170989 
L 517.669421 213.851156 
L 527.917355 287.642374 
L 538.165289 273.647509 
L 548.413223 292.343331 
L 558.661157 310.776077 
L 568.909091 293.561303 
L 579.157025 329.117219 
L 589.404959 300.416934 
L 599.652893 369.749639 
L 609.900826 377.214252 
L 620.14876 358.977167 
L 630.396694 342.709126 
L 640.644628 412.814477 
L 650.892562 450.924948 
L 661.140496 449.937089 
L 671.38843 306.770009 
L 681.636364 350.880072 
L 691.884298 333.587634 
L 702.132231 460.294838 
L 712.380165 462.085357 
L 722.628099 458.722751 
L 732.876033 441.486629 
L 743.123967 462.691609 
L 753.371901 333.880411 
L 763.619835 372.827089 
L 773.867769 397.343716 
L 784.115702 461.006951 
L 794.363636 465.595375 
L 804.61157 331.575385 
L 814.859504 305.388312 
L 825.107438 357.743966 
L 835.355372 467.866972 
L 845.603306 463.415944 
L 855.85124 466.722838 
L 866.099174 409.796582 
L 876.347107 380.121271 
L 886.595041 379.844854 
L 896.842975 468.931965 
L 907.090909 467.349322 
L 917.338843 468.677702 
L 927.586777 469.840567 
L 937.834711 470.373352 
L 948.082645 470.406991 
L 958.330579 405.480182 
L 968.578512 393.51432 
L 978.826446 468.900056 
L 989.07438 469.906612 
L 999.322314 470.745626 
L 1009.570248 456.672973 
L 1019.818182 456.203432 
L 1030.066116 468.709358 
L 1040.31405 470.072411 
L 1050.561983 467.836255 
L 1060.809917 467.530929 
L 1071.057851 469.027914 
L 1081.305785 468.709358 
L 1091.553719 466.634476 
L 1101.801653 464.566219 
L 1112.049587 428.380036 
L 1122.297521 467.928507 
L 1132.545455 465.48227 
L 1142.793388 468.425731 
L 1153.041322 465.737404 
L 1163.289256 467.561312 
L 1173.53719 467.138929 
L 1183.785124 470.508151 
L 1194.033058 464.484412 
L 1204.280992 402.70392 
L 1214.528926 466.989613 
L 1224.77686 446.202573 
L 1235.024793 468.113931 
L 1245.272727 470.609679 
" style="fill:none;stroke:#ee7733;stroke-linecap:square;stroke-width:3;"/>
   </g>
   <g id="patch_3">
    <path d="M 180 504 
L 180 69.12 
" style="fill:none;stroke:#000000;stroke-linecap:square;stroke-linejoin:miter;stroke-width:0.8;"/>
   </g>
   <g id="patch_4">
    <path d="M 1296 504 
L 1296 69.12 
" style="fill:none;stroke:#000000;stroke-linecap:square;stroke-linejoin:miter;stroke-width:0.8;"/>
   </g>
   <g id="patch_5">
    <path d="M 180 504 
L 1296 504 
" style="fill:none;stroke:#000000;stroke-linecap:square;stroke-linejoin:miter;stroke-width:0.8;"/>
   </g>
   <g id="patch_6">
    <path d="M 180 69.12 
L 1296 69.12 
" style="fill:none;stroke:#000000;stroke-linecap:square;stroke-linejoin:miter;stroke-width:0.8;"/>
   </g>
   <g id="legend_1">
    <g id="patch_7">
     <path d="M 1083.4 173.18875 
L 1282 173.18875 
Q 1286 173.18875 1286 169.18875 
L 1286 83.12 
Q 1286 79.12 1282 79.12 
L 1083.4 79.12 
Q 1079.4 79.12 1079.4 83.12 
L 1079.4 169.18875 
Q 1079.4 173.18875 1083.4 173.18875 
z
" style="fill:#ffffff;opacity:0.8;stroke:#cccccc;stroke-linejoin:miter;"/>
    </g>
    <g id="line2d_88">
     <path d="M 1087.4 95.316875 
L 1127.4 95.316875 
" style="fill:none;stroke:#aa3377;stroke-linecap:square;stroke-width:3;"/>
    </g>
    <g id="line2d_89"/>
    <g id="text_19">
     <!-- $K=10, L=10$ -->
     <defs>
      <path d="M 16.890625 72.90625 
L 26.8125 72.90625 
L 20.796875 42.1875 
L 59.078125 72.90625 
L 72.21875 72.90625 
L 28.90625 38.09375 
L 60.59375 0 
L 48.578125 0 
L 19.484375 35.5 
L 12.59375 0 
L 2.6875 0 
z
" id="DejaVuSans-Oblique-75"/>
      <path d="M 10.59375 45.40625 
L 73.1875 45.40625 
L 73.1875 37.203125 
L 10.59375 37.203125 
z
M 10.59375 25.484375 
L 73.1875 25.484375 
L 73.1875 17.1875 
L 10.59375 17.1875 
z
" id="DejaVuSans-61"/>
      <path d="M 16.796875 72.90625 
L 26.703125 72.90625 
L 14.203125 8.203125 
L 49.703125 8.203125 
L 48.09375 0 
L 2.6875 0 
z
" id="DejaVuSans-Oblique-76"/>
     </defs>
     <g transform="translate(1143.4 102.316875)scale(0.2 -0.2)">
      <use transform="translate(0 0.78125)" xlink:href="#DejaVuSans-Oblique-75"/>
      <use transform="translate(85.058594 0.78125)" xlink:href="#DejaVuSans-61"/>
      <use transform="translate(188.330078 0.78125)" xlink:href="#DejaVuSans-49"/>
      <use transform="translate(251.953125 0.78125)" xlink:href="#DejaVuSans-48"/>
      <use transform="translate(315.576172 0.78125)" xlink:href="#DejaVuSans-44"/>
      <use transform="translate(366.845703 0.78125)" xlink:href="#DejaVuSans-Oblique-76"/>
      <use transform="translate(442.041016 0.78125)" xlink:href="#DejaVuSans-61"/>
      <use transform="translate(545.3125 0.78125)" xlink:href="#DejaVuSans-49"/>
      <use transform="translate(608.935547 0.78125)" xlink:href="#DejaVuSans-48"/>
     </g>
    </g>
    <g id="line2d_90">
     <path d="M 1087.4 124.673125 
L 1127.4 124.673125 
" style="fill:none;stroke:#009988;stroke-linecap:square;stroke-width:3;"/>
    </g>
    <g id="line2d_91"/>
    <g id="text_20">
     <!-- $K=5, L=20$ -->
     <g transform="translate(1143.4 131.673125)scale(0.2 -0.2)">
      <use transform="translate(0 0.78125)" xlink:href="#DejaVuSans-Oblique-75"/>
      <use transform="translate(85.058594 0.78125)" xlink:href="#DejaVuSans-61"/>
      <use transform="translate(188.330078 0.78125)" xlink:href="#DejaVuSans-53"/>
      <use transform="translate(251.953125 0.78125)" xlink:href="#DejaVuSans-44"/>
      <use transform="translate(303.222656 0.78125)" xlink:href="#DejaVuSans-Oblique-76"/>
      <use transform="translate(378.417969 0.78125)" xlink:href="#DejaVuSans-61"/>
      <use transform="translate(481.689453 0.78125)" xlink:href="#DejaVuSans-50"/>
      <use transform="translate(545.3125 0.78125)" xlink:href="#DejaVuSans-48"/>
     </g>
    </g>
    <g id="line2d_92">
     <path d="M 1087.4 154.029375 
L 1127.4 154.029375 
" style="fill:none;stroke:#ee7733;stroke-linecap:square;stroke-width:3;"/>
    </g>
    <g id="line2d_93"/>
    <g id="text_21">
     <!-- $K=2, L=50$ -->
     <g transform="translate(1143.4 161.029375)scale(0.2 -0.2)">
      <use transform="translate(0 0.78125)" xlink:href="#DejaVuSans-Oblique-75"/>
      <use transform="translate(85.058594 0.78125)" xlink:href="#DejaVuSans-61"/>
      <use transform="translate(188.330078 0.78125)" xlink:href="#DejaVuSans-50"/>
      <use transform="translate(251.953125 0.78125)" xlink:href="#DejaVuSans-44"/>
      <use transform="translate(303.222656 0.78125)" xlink:href="#DejaVuSans-Oblique-76"/>
      <use transform="translate(378.417969 0.78125)" xlink:href="#DejaVuSans-61"/>
      <use transform="translate(481.689453 0.78125)" xlink:href="#DejaVuSans-53"/>
      <use transform="translate(545.3125 0.78125)" xlink:href="#DejaVuSans-48"/>
     </g>
    </g>
   </g>
  </g>
 </g>
 <defs>
  <clipPath id="p8e2a5ede28">
   <rect height="434.88" width="1116" x="180" y="69.12"/>
  </clipPath>
 </defs>
</svg>
