<?xml version="1.0" encoding="utf-8" standalone="no"?>
<!DOCTYPE svg PUBLIC "-//W3C//DTD SVG 1.1//EN"
  "http://www.w3.org/Graphics/SVG/1.1/DTD/svg11.dtd">
<!-- Created with matplotlib (https://matplotlib.org/) -->
<svg height="1080pt" version="1.1" viewBox="0 0 1080 1080" width="1080pt" xmlns="http://www.w3.org/2000/svg" xmlns:xlink="http://www.w3.org/1999/xlink">
 <defs>
  <style type="text/css">
*{stroke-linecap:butt;stroke-linejoin:round;}
  </style>
 </defs>
 <g id="figure_1">
  <g id="patch_1">
   <path d="M 0 1080 
L 1080 1080 
L 1080 0 
L 0 0 
z
" style="fill:#ffffff;"/>
  </g>
  <g id="axes_1">
   <g id="patch_2">
    <path d="M 135 369.423529 
L 972 369.423529 
L 972 129.6 
L 135 129.6 
z
" style="fill:#ffffff;"/>
   </g>
   <g id="matplotlib.axis_1">
    <g id="xtick_1">
     <g id="line2d_1">
      <defs>
       <path d="M 0 0 
L 0 3.5 
" id="m38c5c23810" style="stroke:#000000;stroke-width:0.8;"/>
      </defs>
      <g>
       <use style="stroke:#000000;stroke-width:0.8;" x="173.045455" xlink:href="#m38c5c23810" y="369.423529"/>
      </g>
     </g>
     <g id="text_1">
      <!-- 0 -->
      <defs>
       <path d="M 31.78125 66.40625 
Q 24.171875 66.40625 20.328125 58.90625 
Q 16.5 51.421875 16.5 36.375 
Q 16.5 21.390625 20.328125 13.890625 
Q 24.171875 6.390625 31.78125 6.390625 
Q 39.453125 6.390625 43.28125 13.890625 
Q 47.125 21.390625 47.125 36.375 
Q 47.125 51.421875 43.28125 58.90625 
Q 39.453125 66.40625 31.78125 66.40625 
z
M 31.78125 74.21875 
Q 44.046875 74.21875 50.515625 64.515625 
Q 56.984375 54.828125 56.984375 36.375 
Q 56.984375 17.96875 50.515625 8.265625 
Q 44.046875 -1.421875 31.78125 -1.421875 
Q 19.53125 -1.421875 13.0625 8.265625 
Q 6.59375 17.96875 6.59375 36.375 
Q 6.59375 54.828125 13.0625 64.515625 
Q 19.53125 74.21875 31.78125 74.21875 
z
" id="DejaVuSans-48"/>
      </defs>
      <g transform="translate(167.319205 390.100717)scale(0.18 -0.18)">
       <use xlink:href="#DejaVuSans-48"/>
      </g>
     </g>
    </g>
    <g id="xtick_2">
     <g id="line2d_2">
      <g>
       <use style="stroke:#000000;stroke-width:0.8;" x="273.165072" xlink:href="#m38c5c23810" y="369.423529"/>
      </g>
     </g>
     <g id="text_2">
      <!-- 20 -->
      <defs>
       <path d="M 19.1875 8.296875 
L 53.609375 8.296875 
L 53.609375 0 
L 7.328125 0 
L 7.328125 8.296875 
Q 12.9375 14.109375 22.625 23.890625 
Q 32.328125 33.6875 34.8125 36.53125 
Q 39.546875 41.84375 41.421875 45.53125 
Q 43.3125 49.21875 43.3125 52.78125 
Q 43.3125 58.59375 39.234375 62.25 
Q 35.15625 65.921875 28.609375 65.921875 
Q 23.96875 65.921875 18.8125 64.3125 
Q 13.671875 62.703125 7.8125 59.421875 
L 7.8125 69.390625 
Q 13.765625 71.78125 18.9375 73 
Q 24.125 74.21875 28.421875 74.21875 
Q 39.75 74.21875 46.484375 68.546875 
Q 53.21875 62.890625 53.21875 53.421875 
Q 53.21875 48.921875 51.53125 44.890625 
Q 49.859375 40.875 45.40625 35.40625 
Q 44.1875 33.984375 37.640625 27.21875 
Q 31.109375 20.453125 19.1875 8.296875 
z
" id="DejaVuSans-50"/>
      </defs>
      <g transform="translate(261.712572 390.100717)scale(0.18 -0.18)">
       <use xlink:href="#DejaVuSans-50"/>
       <use x="63.623047" xlink:href="#DejaVuSans-48"/>
      </g>
     </g>
    </g>
    <g id="xtick_3">
     <g id="line2d_3">
      <g>
       <use style="stroke:#000000;stroke-width:0.8;" x="373.284689" xlink:href="#m38c5c23810" y="369.423529"/>
      </g>
     </g>
     <g id="text_3">
      <!-- 40 -->
      <defs>
       <path d="M 37.796875 64.3125 
L 12.890625 25.390625 
L 37.796875 25.390625 
z
M 35.203125 72.90625 
L 47.609375 72.90625 
L 47.609375 25.390625 
L 58.015625 25.390625 
L 58.015625 17.1875 
L 47.609375 17.1875 
L 47.609375 0 
L 37.796875 0 
L 37.796875 17.1875 
L 4.890625 17.1875 
L 4.890625 26.703125 
z
" id="DejaVuSans-52"/>
      </defs>
      <g transform="translate(361.832189 390.100717)scale(0.18 -0.18)">
       <use xlink:href="#DejaVuSans-52"/>
       <use x="63.623047" xlink:href="#DejaVuSans-48"/>
      </g>
     </g>
    </g>
    <g id="xtick_4">
     <g id="line2d_4">
      <g>
       <use style="stroke:#000000;stroke-width:0.8;" x="473.404306" xlink:href="#m38c5c23810" y="369.423529"/>
      </g>
     </g>
     <g id="text_4">
      <!-- 60 -->
      <defs>
       <path d="M 33.015625 40.375 
Q 26.375 40.375 22.484375 35.828125 
Q 18.609375 31.296875 18.609375 23.390625 
Q 18.609375 15.53125 22.484375 10.953125 
Q 26.375 6.390625 33.015625 6.390625 
Q 39.65625 6.390625 43.53125 10.953125 
Q 47.40625 15.53125 47.40625 23.390625 
Q 47.40625 31.296875 43.53125 35.828125 
Q 39.65625 40.375 33.015625 40.375 
z
M 52.59375 71.296875 
L 52.59375 62.3125 
Q 48.875 64.0625 45.09375 64.984375 
Q 41.3125 65.921875 37.59375 65.921875 
Q 27.828125 65.921875 22.671875 59.328125 
Q 17.53125 52.734375 16.796875 39.40625 
Q 19.671875 43.65625 24.015625 45.921875 
Q 28.375 48.1875 33.59375 48.1875 
Q 44.578125 48.1875 50.953125 41.515625 
Q 57.328125 34.859375 57.328125 23.390625 
Q 57.328125 12.15625 50.6875 5.359375 
Q 44.046875 -1.421875 33.015625 -1.421875 
Q 20.359375 -1.421875 13.671875 8.265625 
Q 6.984375 17.96875 6.984375 36.375 
Q 6.984375 53.65625 15.1875 63.9375 
Q 23.390625 74.21875 37.203125 74.21875 
Q 40.921875 74.21875 44.703125 73.484375 
Q 48.484375 72.75 52.59375 71.296875 
z
" id="DejaVuSans-54"/>
      </defs>
      <g transform="translate(461.951806 390.100717)scale(0.18 -0.18)">
       <use xlink:href="#DejaVuSans-54"/>
       <use x="63.623047" xlink:href="#DejaVuSans-48"/>
      </g>
     </g>
    </g>
    <g id="xtick_5">
     <g id="line2d_5">
      <g>
       <use style="stroke:#000000;stroke-width:0.8;" x="573.523923" xlink:href="#m38c5c23810" y="369.423529"/>
      </g>
     </g>
     <g id="text_5">
      <!-- 80 -->
      <defs>
       <path d="M 31.78125 34.625 
Q 24.75 34.625 20.71875 30.859375 
Q 16.703125 27.09375 16.703125 20.515625 
Q 16.703125 13.921875 20.71875 10.15625 
Q 24.75 6.390625 31.78125 6.390625 
Q 38.8125 6.390625 42.859375 10.171875 
Q 46.921875 13.96875 46.921875 20.515625 
Q 46.921875 27.09375 42.890625 30.859375 
Q 38.875 34.625 31.78125 34.625 
z
M 21.921875 38.8125 
Q 15.578125 40.375 12.03125 44.71875 
Q 8.5 49.078125 8.5 55.328125 
Q 8.5 64.0625 14.71875 69.140625 
Q 20.953125 74.21875 31.78125 74.21875 
Q 42.671875 74.21875 48.875 69.140625 
Q 55.078125 64.0625 55.078125 55.328125 
Q 55.078125 49.078125 51.53125 44.71875 
Q 48 40.375 41.703125 38.8125 
Q 48.828125 37.15625 52.796875 32.3125 
Q 56.78125 27.484375 56.78125 20.515625 
Q 56.78125 9.90625 50.3125 4.234375 
Q 43.84375 -1.421875 31.78125 -1.421875 
Q 19.734375 -1.421875 13.25 4.234375 
Q 6.78125 9.90625 6.78125 20.515625 
Q 6.78125 27.484375 10.78125 32.3125 
Q 14.796875 37.15625 21.921875 38.8125 
z
M 18.3125 54.390625 
Q 18.3125 48.734375 21.84375 45.5625 
Q 25.390625 42.390625 31.78125 42.390625 
Q 38.140625 42.390625 41.71875 45.5625 
Q 45.3125 48.734375 45.3125 54.390625 
Q 45.3125 60.0625 41.71875 63.234375 
Q 38.140625 66.40625 31.78125 66.40625 
Q 25.390625 66.40625 21.84375 63.234375 
Q 18.3125 60.0625 18.3125 54.390625 
z
" id="DejaVuSans-56"/>
      </defs>
      <g transform="translate(562.071423 390.100717)scale(0.18 -0.18)">
       <use xlink:href="#DejaVuSans-56"/>
       <use x="63.623047" xlink:href="#DejaVuSans-48"/>
      </g>
     </g>
    </g>
    <g id="xtick_6">
     <g id="line2d_6">
      <g>
       <use style="stroke:#000000;stroke-width:0.8;" x="673.643541" xlink:href="#m38c5c23810" y="369.423529"/>
      </g>
     </g>
     <g id="text_6">
      <!-- 100 -->
      <defs>
       <path d="M 12.40625 8.296875 
L 28.515625 8.296875 
L 28.515625 63.921875 
L 10.984375 60.40625 
L 10.984375 69.390625 
L 28.421875 72.90625 
L 38.28125 72.90625 
L 38.28125 8.296875 
L 54.390625 8.296875 
L 54.390625 0 
L 12.40625 0 
z
" id="DejaVuSans-49"/>
      </defs>
      <g transform="translate(656.464791 390.100717)scale(0.18 -0.18)">
       <use xlink:href="#DejaVuSans-49"/>
       <use x="63.623047" xlink:href="#DejaVuSans-48"/>
       <use x="127.246094" xlink:href="#DejaVuSans-48"/>
      </g>
     </g>
    </g>
    <g id="xtick_7">
     <g id="line2d_7">
      <g>
       <use style="stroke:#000000;stroke-width:0.8;" x="773.763158" xlink:href="#m38c5c23810" y="369.423529"/>
      </g>
     </g>
     <g id="text_7">
      <!-- 120 -->
      <g transform="translate(756.584408 390.100717)scale(0.18 -0.18)">
       <use xlink:href="#DejaVuSans-49"/>
       <use x="63.623047" xlink:href="#DejaVuSans-50"/>
       <use x="127.246094" xlink:href="#DejaVuSans-48"/>
      </g>
     </g>
    </g>
    <g id="xtick_8">
     <g id="line2d_8">
      <g>
       <use style="stroke:#000000;stroke-width:0.8;" x="873.882775" xlink:href="#m38c5c23810" y="369.423529"/>
      </g>
     </g>
     <g id="text_8">
      <!-- 140 -->
      <g transform="translate(856.704025 390.100717)scale(0.18 -0.18)">
       <use xlink:href="#DejaVuSans-49"/>
       <use x="63.623047" xlink:href="#DejaVuSans-52"/>
       <use x="127.246094" xlink:href="#DejaVuSans-48"/>
      </g>
     </g>
    </g>
   </g>
   <g id="matplotlib.axis_2">
    <g id="ytick_1">
     <g id="line2d_9">
      <defs>
       <path d="M 0 0 
L -3.5 0 
" id="m36c541aada" style="stroke:#000000;stroke-width:0.8;"/>
      </defs>
      <g>
       <use style="stroke:#000000;stroke-width:0.8;" x="135" xlink:href="#m36c541aada" y="369.423529"/>
      </g>
     </g>
     <g id="text_9">
      <!-- −300 -->
      <defs>
       <path d="M 10.59375 35.5 
L 73.1875 35.5 
L 73.1875 27.203125 
L 10.59375 27.203125 
z
" id="DejaVuSans-8722"/>
       <path d="M 40.578125 39.3125 
Q 47.65625 37.796875 51.625 33 
Q 55.609375 28.21875 55.609375 21.1875 
Q 55.609375 10.40625 48.1875 4.484375 
Q 40.765625 -1.421875 27.09375 -1.421875 
Q 22.515625 -1.421875 17.65625 -0.515625 
Q 12.796875 0.390625 7.625 2.203125 
L 7.625 11.71875 
Q 11.71875 9.328125 16.59375 8.109375 
Q 21.484375 6.890625 26.8125 6.890625 
Q 36.078125 6.890625 40.9375 10.546875 
Q 45.796875 14.203125 45.796875 21.1875 
Q 45.796875 27.640625 41.28125 31.265625 
Q 36.765625 34.90625 28.71875 34.90625 
L 20.21875 34.90625 
L 20.21875 43.015625 
L 29.109375 43.015625 
Q 36.375 43.015625 40.234375 45.921875 
Q 44.09375 48.828125 44.09375 54.296875 
Q 44.09375 59.90625 40.109375 62.90625 
Q 36.140625 65.921875 28.71875 65.921875 
Q 24.65625 65.921875 20.015625 65.03125 
Q 15.375 64.15625 9.8125 62.3125 
L 9.8125 71.09375 
Q 15.4375 72.65625 20.34375 73.4375 
Q 25.25 74.21875 29.59375 74.21875 
Q 40.828125 74.21875 47.359375 69.109375 
Q 53.90625 64.015625 53.90625 55.328125 
Q 53.90625 49.265625 50.4375 45.09375 
Q 46.96875 40.921875 40.578125 39.3125 
z
" id="DejaVuSans-51"/>
      </defs>
      <g transform="translate(78.559063 376.262123)scale(0.18 -0.18)">
       <use xlink:href="#DejaVuSans-8722"/>
       <use x="83.789062" xlink:href="#DejaVuSans-51"/>
       <use x="147.412109" xlink:href="#DejaVuSans-48"/>
       <use x="211.035156" xlink:href="#DejaVuSans-48"/>
      </g>
     </g>
    </g>
    <g id="ytick_2">
     <g id="line2d_10">
      <g>
       <use style="stroke:#000000;stroke-width:0.8;" x="135" xlink:href="#m36c541aada" y="329.452941"/>
      </g>
     </g>
     <g id="text_10">
      <!-- −275 -->
      <defs>
       <path d="M 8.203125 72.90625 
L 55.078125 72.90625 
L 55.078125 68.703125 
L 28.609375 0 
L 18.3125 0 
L 43.21875 64.59375 
L 8.203125 64.59375 
z
" id="DejaVuSans-55"/>
       <path d="M 10.796875 72.90625 
L 49.515625 72.90625 
L 49.515625 64.59375 
L 19.828125 64.59375 
L 19.828125 46.734375 
Q 21.96875 47.46875 24.109375 47.828125 
Q 26.265625 48.1875 28.421875 48.1875 
Q 40.625 48.1875 47.75 41.5 
Q 54.890625 34.8125 54.890625 23.390625 
Q 54.890625 11.625 47.5625 5.09375 
Q 40.234375 -1.421875 26.90625 -1.421875 
Q 22.3125 -1.421875 17.546875 -0.640625 
Q 12.796875 0.140625 7.71875 1.703125 
L 7.71875 11.625 
Q 12.109375 9.234375 16.796875 8.0625 
Q 21.484375 6.890625 26.703125 6.890625 
Q 35.15625 6.890625 40.078125 11.328125 
Q 45.015625 15.765625 45.015625 23.390625 
Q 45.015625 31 40.078125 35.4375 
Q 35.15625 39.890625 26.703125 39.890625 
Q 22.75 39.890625 18.8125 39.015625 
Q 14.890625 38.140625 10.796875 36.28125 
z
" id="DejaVuSans-53"/>
      </defs>
      <g transform="translate(78.559063 336.291535)scale(0.18 -0.18)">
       <use xlink:href="#DejaVuSans-8722"/>
       <use x="83.789062" xlink:href="#DejaVuSans-50"/>
       <use x="147.412109" xlink:href="#DejaVuSans-55"/>
       <use x="211.035156" xlink:href="#DejaVuSans-53"/>
      </g>
     </g>
    </g>
    <g id="ytick_3">
     <g id="line2d_11">
      <g>
       <use style="stroke:#000000;stroke-width:0.8;" x="135" xlink:href="#m36c541aada" y="289.482353"/>
      </g>
     </g>
     <g id="text_11">
      <!-- −250 -->
      <g transform="translate(78.559063 296.320947)scale(0.18 -0.18)">
       <use xlink:href="#DejaVuSans-8722"/>
       <use x="83.789062" xlink:href="#DejaVuSans-50"/>
       <use x="147.412109" xlink:href="#DejaVuSans-53"/>
       <use x="211.035156" xlink:href="#DejaVuSans-48"/>
      </g>
     </g>
    </g>
    <g id="ytick_4">
     <g id="line2d_12">
      <g>
       <use style="stroke:#000000;stroke-width:0.8;" x="135" xlink:href="#m36c541aada" y="249.511765"/>
      </g>
     </g>
     <g id="text_12">
      <!-- −225 -->
      <g transform="translate(78.559063 256.350358)scale(0.18 -0.18)">
       <use xlink:href="#DejaVuSans-8722"/>
       <use x="83.789062" xlink:href="#DejaVuSans-50"/>
       <use x="147.412109" xlink:href="#DejaVuSans-50"/>
       <use x="211.035156" xlink:href="#DejaVuSans-53"/>
      </g>
     </g>
    </g>
    <g id="ytick_5">
     <g id="line2d_13">
      <g>
       <use style="stroke:#000000;stroke-width:0.8;" x="135" xlink:href="#m36c541aada" y="209.541176"/>
      </g>
     </g>
     <g id="text_13">
      <!-- −200 -->
      <g transform="translate(78.559063 216.37977)scale(0.18 -0.18)">
       <use xlink:href="#DejaVuSans-8722"/>
       <use x="83.789062" xlink:href="#DejaVuSans-50"/>
       <use x="147.412109" xlink:href="#DejaVuSans-48"/>
       <use x="211.035156" xlink:href="#DejaVuSans-48"/>
      </g>
     </g>
    </g>
    <g id="ytick_6">
     <g id="line2d_14">
      <g>
       <use style="stroke:#000000;stroke-width:0.8;" x="135" xlink:href="#m36c541aada" y="169.570588"/>
      </g>
     </g>
     <g id="text_14">
      <!-- −175 -->
      <g transform="translate(78.559063 176.409182)scale(0.18 -0.18)">
       <use xlink:href="#DejaVuSans-8722"/>
       <use x="83.789062" xlink:href="#DejaVuSans-49"/>
       <use x="147.412109" xlink:href="#DejaVuSans-55"/>
       <use x="211.035156" xlink:href="#DejaVuSans-53"/>
      </g>
     </g>
    </g>
    <g id="ytick_7">
     <g id="line2d_15">
      <g>
       <use style="stroke:#000000;stroke-width:0.8;" x="135" xlink:href="#m36c541aada" y="129.6"/>
      </g>
     </g>
     <g id="text_15">
      <!-- −150 -->
      <g transform="translate(78.559063 136.438594)scale(0.18 -0.18)">
       <use xlink:href="#DejaVuSans-8722"/>
       <use x="83.789062" xlink:href="#DejaVuSans-49"/>
       <use x="147.412109" xlink:href="#DejaVuSans-53"/>
       <use x="211.035156" xlink:href="#DejaVuSans-48"/>
      </g>
     </g>
    </g>
   </g>
   <g id="line2d_16">
    <path clip-path="url(#pc72708b45a)" d="M 173.045455 376.00789 
L 178.051435 231.710482 
L 183.057416 207.015153 
L 188.063397 195.899196 
L 193.069378 188.947396 
L 203.08134 177.804778 
L 213.093301 171.305396 
L 238.123206 159.954932 
L 243.129187 158.916392 
L 258.147129 154.835193 
L 268.159091 152.510645 
L 273.165072 151.984494 
L 283.177033 149.886077 
L 288.183014 149.233921 
L 293.188995 148.097716 
L 298.194976 148.512925 
L 303.200957 147.606762 
L 308.206938 147.237466 
L 323.22488 145.162562 
L 328.230861 144.911248 
L 333.236842 144.996325 
L 338.242823 144.010406 
L 343.248804 143.959556 
L 353.260766 142.86466 
L 358.266746 142.540393 
L 363.272727 142.410631 
L 368.278708 142.564468 
L 373.284689 141.261222 
L 378.29067 141.350655 
L 383.296651 141.647385 
L 398.314593 140.564112 
L 403.320574 140.108069 
L 413.332536 139.586833 
L 418.338517 139.131411 
L 423.344498 138.843267 
L 428.350478 138.809711 
L 433.356459 138.224108 
L 438.36244 138.073033 
L 443.368421 137.675002 
L 448.374402 137.560578 
L 453.380383 137.749997 
L 468.398325 137.010659 
L 473.404306 137.323684 
L 478.410287 136.460103 
L 483.416268 135.814321 
L 488.422249 135.996436 
L 493.42823 135.968228 
L 498.434211 135.558724 
L 503.440191 135.452381 
L 508.446172 135.471711 
L 513.452153 135.120526 
L 518.458134 135.193696 
L 523.464115 134.632732 
L 528.470096 134.682933 
L 538.482057 134.542894 
L 548.494019 133.785917 
L 553.5 133.914175 
L 558.505981 134.258095 
L 563.511962 133.63232 
L 583.535885 133.051762 
L 588.541866 133.414253 
L 593.547847 133.094895 
L 598.553828 132.093345 
L 603.559809 132.520943 
L 608.565789 132.323269 
L 613.57177 132.380094 
L 618.577751 132.7204 
L 623.583732 132.487119 
L 628.589713 132.13522 
L 633.595694 132.137021 
L 638.601675 131.475471 
L 643.607656 131.546302 
L 648.613636 131.729596 
L 653.619617 131.372967 
L 658.625598 131.240319 
L 663.631579 131.558483 
L 668.63756 131.091513 
L 673.643541 131.336643 
L 678.649522 131.231176 
L 683.655502 130.937463 
L 688.661483 131.153421 
L 693.667464 130.618127 
L 698.673445 130.60503 
L 703.679426 130.459534 
L 708.685407 130.675629 
L 713.691388 130.69918 
L 718.697368 130.493596 
L 723.703349 129.890428 
L 728.70933 130.424516 
L 733.715311 130.525674 
L 738.721292 130.278926 
L 743.727273 129.663235 
L 748.733254 130.04467 
L 753.739234 129.683942 
L 758.745215 130.133006 
L 763.751196 129.689034 
L 768.757177 130.007222 
L 773.763158 129.960267 
L 778.769139 130.216387 
L 783.77512 129.681019 
L 798.793062 129.366558 
L 803.799043 129.774237 
L 808.805024 128.648235 
L 813.811005 128.971823 
L 818.816986 129.124742 
L 823.822967 128.917714 
L 833.834928 129.102475 
L 838.840909 128.927014 
L 843.84689 128.54363 
L 853.858852 128.387394 
L 858.864833 128.680131 
L 868.876794 128.323558 
L 873.882775 128.416919 
L 878.888756 128.136716 
L 883.894737 128.430302 
L 888.900718 128.238602 
L 893.906699 128.173586 
L 898.912679 127.963655 
L 903.91866 128.432464 
L 908.924641 128.294931 
L 913.930622 128.816571 
L 918.936603 127.876836 
L 928.948565 128.130394 
L 933.954545 127.598224 
L 933.954545 127.598224 
" style="fill:none;stroke:#ff0000;stroke-linecap:square;stroke-width:1.5;"/>
   </g>
   <g id="line2d_17">
    <path clip-path="url(#pc72708b45a)" d="M 173.045455 798.838082 
L 178.051435 380.064771 
L 183.057416 301.935553 
L 188.063397 261.723192 
L 193.069378 243.472859 
L 198.075359 229.329838 
L 203.08134 220.45362 
L 208.087321 212.991851 
L 213.093301 209.87834 
L 218.099282 205.872291 
L 223.105263 204.942774 
L 228.111244 201.137854 
L 233.117225 198.437356 
L 238.123206 195.610331 
L 243.129187 193.898717 
L 248.135167 191.896566 
L 253.141148 189.461645 
L 258.147129 188.248368 
L 263.15311 187.366115 
L 268.159091 184.784211 
L 273.165072 183.556898 
L 278.171053 181.970414 
L 283.177033 181.015608 
L 288.183014 180.450135 
L 293.188995 179.117209 
L 303.200957 178.134433 
L 308.206938 177.395609 
L 313.212919 176.244276 
L 318.2189 175.734758 
L 323.22488 174.404243 
L 328.230861 174.425167 
L 333.236842 174.096497 
L 338.242823 172.189208 
L 348.254785 171.67006 
L 363.272727 169.443728 
L 368.278708 168.966286 
L 373.284689 168.68623 
L 378.29067 169.554153 
L 383.296651 168.029282 
L 398.314593 165.939851 
L 403.320574 166.442932 
L 408.326555 166.596901 
L 413.332536 165.111846 
L 418.338517 164.748013 
L 423.344498 164.638518 
L 428.350478 163.089151 
L 433.356459 163.391094 
L 438.36244 163.244747 
L 443.368421 162.585631 
L 448.374402 163.589574 
L 453.380383 162.425375 
L 458.386364 163.344424 
L 463.392344 162.64655 
L 468.398325 161.005573 
L 473.404306 162.060861 
L 478.410287 161.706495 
L 483.416268 160.894797 
L 488.422249 161.126109 
L 493.42823 160.870425 
L 498.434211 161.225501 
L 503.440191 161.221744 
L 508.446172 160.374627 
L 513.452153 160.074254 
L 518.458134 160.192408 
L 523.464115 159.40447 
L 528.470096 159.800555 
L 533.476077 159.397165 
L 538.482057 158.842935 
L 543.488038 158.897257 
L 548.494019 158.385249 
L 558.505981 158.710154 
L 563.511962 157.348463 
L 568.517943 158.051018 
L 573.523923 158.513139 
L 578.529904 158.844636 
L 583.535885 157.440196 
L 588.541866 158.439433 
L 593.547847 157.642181 
L 598.553828 156.317784 
L 603.559809 156.627456 
L 608.565789 156.041833 
L 613.57177 156.849333 
L 618.577751 156.92344 
L 623.583732 157.345094 
L 628.589713 156.715189 
L 633.595694 155.970064 
L 638.601675 156.223192 
L 643.607656 156.623749 
L 648.613636 155.650692 
L 653.619617 155.122255 
L 658.625598 155.651832 
L 663.631579 155.600329 
L 668.63756 155.215682 
L 673.643541 154.976258 
L 678.649522 155.030445 
L 683.655502 154.529119 
L 688.661483 155.156877 
L 693.667464 154.346167 
L 698.673445 154.595017 
L 703.679426 154.575058 
L 708.685407 154.906259 
L 713.691388 154.477748 
L 718.697368 154.350058 
L 723.703349 153.331473 
L 728.70933 154.703256 
L 733.715311 154.030799 
L 738.721292 155.230697 
L 748.733254 153.859268 
L 753.739234 154.459242 
L 758.745215 154.153331 
L 763.751196 153.314864 
L 768.757177 154.1208 
L 773.763158 154.000351 
L 778.769139 153.627541 
L 788.7811 153.523209 
L 803.799043 152.606706 
L 808.805024 151.70992 
L 818.816986 153.276665 
L 823.822967 153.158663 
L 828.828947 152.586015 
L 833.834928 152.987361 
L 838.840909 152.102407 
L 843.84689 151.396591 
L 848.852871 151.354135 
L 863.870813 152.505845 
L 868.876794 152.055716 
L 873.882775 152.633126 
L 878.888756 150.961484 
L 883.894737 152.514565 
L 888.900718 151.277169 
L 893.906699 151.186424 
L 898.912679 151.393248 
L 903.91866 151.918321 
L 908.924641 152.125185 
L 913.930622 151.756825 
L 918.936603 151.013852 
L 923.942584 151.396336 
L 928.948565 153.118821 
L 933.954545 151.056898 
L 933.954545 151.056898 
" style="fill:none;stroke:#0000ff;stroke-linecap:square;stroke-width:1.5;"/>
   </g>
   <g id="patch_3">
    <path d="M 135 369.423529 
L 135 129.6 
" style="fill:none;stroke:#000000;stroke-linecap:square;stroke-linejoin:miter;stroke-width:0.8;"/>
   </g>
   <g id="patch_4">
    <path d="M 972 369.423529 
L 972 129.6 
" style="fill:none;stroke:#000000;stroke-linecap:square;stroke-linejoin:miter;stroke-width:0.8;"/>
   </g>
   <g id="patch_5">
    <path d="M 135 369.423529 
L 972 369.423529 
" style="fill:none;stroke:#000000;stroke-linecap:square;stroke-linejoin:miter;stroke-width:0.8;"/>
   </g>
   <g id="patch_6">
    <path d="M 135 129.6 
L 972 129.6 
" style="fill:none;stroke:#000000;stroke-linecap:square;stroke-linejoin:miter;stroke-width:0.8;"/>
   </g>
   <g id="text_16">
    <!-- epoch=2000, batch_size=50, lr=1.0E-03, samples=10 -->
    <defs>
     <path d="M 56.203125 29.59375 
L 56.203125 25.203125 
L 14.890625 25.203125 
Q 15.484375 15.921875 20.484375 11.0625 
Q 25.484375 6.203125 34.421875 6.203125 
Q 39.59375 6.203125 44.453125 7.46875 
Q 49.3125 8.734375 54.109375 11.28125 
L 54.109375 2.78125 
Q 49.265625 0.734375 44.1875 -0.34375 
Q 39.109375 -1.421875 33.890625 -1.421875 
Q 20.796875 -1.421875 13.15625 6.1875 
Q 5.515625 13.8125 5.515625 26.8125 
Q 5.515625 40.234375 12.765625 48.109375 
Q 20.015625 56 32.328125 56 
Q 43.359375 56 49.78125 48.890625 
Q 56.203125 41.796875 56.203125 29.59375 
z
M 47.21875 32.234375 
Q 47.125 39.59375 43.09375 43.984375 
Q 39.0625 48.390625 32.421875 48.390625 
Q 24.90625 48.390625 20.390625 44.140625 
Q 15.875 39.890625 15.1875 32.171875 
z
" id="DejaVuSans-101"/>
     <path d="M 18.109375 8.203125 
L 18.109375 -20.796875 
L 9.078125 -20.796875 
L 9.078125 54.6875 
L 18.109375 54.6875 
L 18.109375 46.390625 
Q 20.953125 51.265625 25.265625 53.625 
Q 29.59375 56 35.59375 56 
Q 45.5625 56 51.78125 48.09375 
Q 58.015625 40.1875 58.015625 27.296875 
Q 58.015625 14.40625 51.78125 6.484375 
Q 45.5625 -1.421875 35.59375 -1.421875 
Q 29.59375 -1.421875 25.265625 0.953125 
Q 20.953125 3.328125 18.109375 8.203125 
z
M 48.6875 27.296875 
Q 48.6875 37.203125 44.609375 42.84375 
Q 40.53125 48.484375 33.40625 48.484375 
Q 26.265625 48.484375 22.1875 42.84375 
Q 18.109375 37.203125 18.109375 27.296875 
Q 18.109375 17.390625 22.1875 11.75 
Q 26.265625 6.109375 33.40625 6.109375 
Q 40.53125 6.109375 44.609375 11.75 
Q 48.6875 17.390625 48.6875 27.296875 
z
" id="DejaVuSans-112"/>
     <path d="M 30.609375 48.390625 
Q 23.390625 48.390625 19.1875 42.75 
Q 14.984375 37.109375 14.984375 27.296875 
Q 14.984375 17.484375 19.15625 11.84375 
Q 23.34375 6.203125 30.609375 6.203125 
Q 37.796875 6.203125 41.984375 11.859375 
Q 46.1875 17.53125 46.1875 27.296875 
Q 46.1875 37.015625 41.984375 42.703125 
Q 37.796875 48.390625 30.609375 48.390625 
z
M 30.609375 56 
Q 42.328125 56 49.015625 48.375 
Q 55.71875 40.765625 55.71875 27.296875 
Q 55.71875 13.875 49.015625 6.21875 
Q 42.328125 -1.421875 30.609375 -1.421875 
Q 18.84375 -1.421875 12.171875 6.21875 
Q 5.515625 13.875 5.515625 27.296875 
Q 5.515625 40.765625 12.171875 48.375 
Q 18.84375 56 30.609375 56 
z
" id="DejaVuSans-111"/>
     <path d="M 48.78125 52.59375 
L 48.78125 44.1875 
Q 44.96875 46.296875 41.140625 47.34375 
Q 37.3125 48.390625 33.40625 48.390625 
Q 24.65625 48.390625 19.8125 42.84375 
Q 14.984375 37.3125 14.984375 27.296875 
Q 14.984375 17.28125 19.8125 11.734375 
Q 24.65625 6.203125 33.40625 6.203125 
Q 37.3125 6.203125 41.140625 7.25 
Q 44.96875 8.296875 48.78125 10.40625 
L 48.78125 2.09375 
Q 45.015625 0.34375 40.984375 -0.53125 
Q 36.96875 -1.421875 32.421875 -1.421875 
Q 20.0625 -1.421875 12.78125 6.34375 
Q 5.515625 14.109375 5.515625 27.296875 
Q 5.515625 40.671875 12.859375 48.328125 
Q 20.21875 56 33.015625 56 
Q 37.15625 56 41.109375 55.140625 
Q 45.0625 54.296875 48.78125 52.59375 
z
" id="DejaVuSans-99"/>
     <path d="M 54.890625 33.015625 
L 54.890625 0 
L 45.90625 0 
L 45.90625 32.71875 
Q 45.90625 40.484375 42.875 44.328125 
Q 39.84375 48.1875 33.796875 48.1875 
Q 26.515625 48.1875 22.3125 43.546875 
Q 18.109375 38.921875 18.109375 30.90625 
L 18.109375 0 
L 9.078125 0 
L 9.078125 75.984375 
L 18.109375 75.984375 
L 18.109375 46.1875 
Q 21.34375 51.125 25.703125 53.5625 
Q 30.078125 56 35.796875 56 
Q 45.21875 56 50.046875 50.171875 
Q 54.890625 44.34375 54.890625 33.015625 
z
" id="DejaVuSans-104"/>
     <path d="M 10.59375 45.40625 
L 73.1875 45.40625 
L 73.1875 37.203125 
L 10.59375 37.203125 
z
M 10.59375 25.484375 
L 73.1875 25.484375 
L 73.1875 17.1875 
L 10.59375 17.1875 
z
" id="DejaVuSans-61"/>
     <path d="M 11.71875 12.40625 
L 22.015625 12.40625 
L 22.015625 4 
L 14.015625 -11.625 
L 7.71875 -11.625 
L 11.71875 4 
z
" id="DejaVuSans-44"/>
     <path id="DejaVuSans-32"/>
     <path d="M 48.6875 27.296875 
Q 48.6875 37.203125 44.609375 42.84375 
Q 40.53125 48.484375 33.40625 48.484375 
Q 26.265625 48.484375 22.1875 42.84375 
Q 18.109375 37.203125 18.109375 27.296875 
Q 18.109375 17.390625 22.1875 11.75 
Q 26.265625 6.109375 33.40625 6.109375 
Q 40.53125 6.109375 44.609375 11.75 
Q 48.6875 17.390625 48.6875 27.296875 
z
M 18.109375 46.390625 
Q 20.953125 51.265625 25.265625 53.625 
Q 29.59375 56 35.59375 56 
Q 45.5625 56 51.78125 48.09375 
Q 58.015625 40.1875 58.015625 27.296875 
Q 58.015625 14.40625 51.78125 6.484375 
Q 45.5625 -1.421875 35.59375 -1.421875 
Q 29.59375 -1.421875 25.265625 0.953125 
Q 20.953125 3.328125 18.109375 8.203125 
L 18.109375 0 
L 9.078125 0 
L 9.078125 75.984375 
L 18.109375 75.984375 
z
" id="DejaVuSans-98"/>
     <path d="M 34.28125 27.484375 
Q 23.390625 27.484375 19.1875 25 
Q 14.984375 22.515625 14.984375 16.5 
Q 14.984375 11.71875 18.140625 8.90625 
Q 21.296875 6.109375 26.703125 6.109375 
Q 34.1875 6.109375 38.703125 11.40625 
Q 43.21875 16.703125 43.21875 25.484375 
L 43.21875 27.484375 
z
M 52.203125 31.203125 
L 52.203125 0 
L 43.21875 0 
L 43.21875 8.296875 
Q 40.140625 3.328125 35.546875 0.953125 
Q 30.953125 -1.421875 24.3125 -1.421875 
Q 15.921875 -1.421875 10.953125 3.296875 
Q 6 8.015625 6 15.921875 
Q 6 25.140625 12.171875 29.828125 
Q 18.359375 34.515625 30.609375 34.515625 
L 43.21875 34.515625 
L 43.21875 35.40625 
Q 43.21875 41.609375 39.140625 45 
Q 35.0625 48.390625 27.6875 48.390625 
Q 23 48.390625 18.546875 47.265625 
Q 14.109375 46.140625 10.015625 43.890625 
L 10.015625 52.203125 
Q 14.9375 54.109375 19.578125 55.046875 
Q 24.21875 56 28.609375 56 
Q 40.484375 56 46.34375 49.84375 
Q 52.203125 43.703125 52.203125 31.203125 
z
" id="DejaVuSans-97"/>
     <path d="M 18.3125 70.21875 
L 18.3125 54.6875 
L 36.8125 54.6875 
L 36.8125 47.703125 
L 18.3125 47.703125 
L 18.3125 18.015625 
Q 18.3125 11.328125 20.140625 9.421875 
Q 21.96875 7.515625 27.59375 7.515625 
L 36.8125 7.515625 
L 36.8125 0 
L 27.59375 0 
Q 17.1875 0 13.234375 3.875 
Q 9.28125 7.765625 9.28125 18.015625 
L 9.28125 47.703125 
L 2.6875 47.703125 
L 2.6875 54.6875 
L 9.28125 54.6875 
L 9.28125 70.21875 
z
" id="DejaVuSans-116"/>
     <path d="M 50.984375 -16.609375 
L 50.984375 -23.578125 
L -0.984375 -23.578125 
L -0.984375 -16.609375 
z
" id="DejaVuSans-95"/>
     <path d="M 44.28125 53.078125 
L 44.28125 44.578125 
Q 40.484375 46.53125 36.375 47.5 
Q 32.28125 48.484375 27.875 48.484375 
Q 21.1875 48.484375 17.84375 46.4375 
Q 14.5 44.390625 14.5 40.28125 
Q 14.5 37.15625 16.890625 35.375 
Q 19.28125 33.59375 26.515625 31.984375 
L 29.59375 31.296875 
Q 39.15625 29.25 43.1875 25.515625 
Q 47.21875 21.78125 47.21875 15.09375 
Q 47.21875 7.46875 41.1875 3.015625 
Q 35.15625 -1.421875 24.609375 -1.421875 
Q 20.21875 -1.421875 15.453125 -0.5625 
Q 10.6875 0.296875 5.421875 2 
L 5.421875 11.28125 
Q 10.40625 8.6875 15.234375 7.390625 
Q 20.0625 6.109375 24.8125 6.109375 
Q 31.15625 6.109375 34.5625 8.28125 
Q 37.984375 10.453125 37.984375 14.40625 
Q 37.984375 18.0625 35.515625 20.015625 
Q 33.0625 21.96875 24.703125 23.78125 
L 21.578125 24.515625 
Q 13.234375 26.265625 9.515625 29.90625 
Q 5.8125 33.546875 5.8125 39.890625 
Q 5.8125 47.609375 11.28125 51.796875 
Q 16.75 56 26.8125 56 
Q 31.78125 56 36.171875 55.265625 
Q 40.578125 54.546875 44.28125 53.078125 
z
" id="DejaVuSans-115"/>
     <path d="M 9.421875 54.6875 
L 18.40625 54.6875 
L 18.40625 0 
L 9.421875 0 
z
M 9.421875 75.984375 
L 18.40625 75.984375 
L 18.40625 64.59375 
L 9.421875 64.59375 
z
" id="DejaVuSans-105"/>
     <path d="M 5.515625 54.6875 
L 48.1875 54.6875 
L 48.1875 46.484375 
L 14.40625 7.171875 
L 48.1875 7.171875 
L 48.1875 0 
L 4.296875 0 
L 4.296875 8.203125 
L 38.09375 47.515625 
L 5.515625 47.515625 
z
" id="DejaVuSans-122"/>
     <path d="M 9.421875 75.984375 
L 18.40625 75.984375 
L 18.40625 0 
L 9.421875 0 
z
" id="DejaVuSans-108"/>
     <path d="M 41.109375 46.296875 
Q 39.59375 47.171875 37.8125 47.578125 
Q 36.03125 48 33.890625 48 
Q 26.265625 48 22.1875 43.046875 
Q 18.109375 38.09375 18.109375 28.8125 
L 18.109375 0 
L 9.078125 0 
L 9.078125 54.6875 
L 18.109375 54.6875 
L 18.109375 46.1875 
Q 20.953125 51.171875 25.484375 53.578125 
Q 30.03125 56 36.53125 56 
Q 37.453125 56 38.578125 55.875 
Q 39.703125 55.765625 41.0625 55.515625 
z
" id="DejaVuSans-114"/>
     <path d="M 10.6875 12.40625 
L 21 12.40625 
L 21 0 
L 10.6875 0 
z
" id="DejaVuSans-46"/>
     <path d="M 9.8125 72.90625 
L 55.90625 72.90625 
L 55.90625 64.59375 
L 19.671875 64.59375 
L 19.671875 43.015625 
L 54.390625 43.015625 
L 54.390625 34.71875 
L 19.671875 34.71875 
L 19.671875 8.296875 
L 56.78125 8.296875 
L 56.78125 0 
L 9.8125 0 
z
" id="DejaVuSans-69"/>
     <path d="M 4.890625 31.390625 
L 31.203125 31.390625 
L 31.203125 23.390625 
L 4.890625 23.390625 
z
" id="DejaVuSans-45"/>
     <path d="M 52 44.1875 
Q 55.375 50.25 60.0625 53.125 
Q 64.75 56 71.09375 56 
Q 79.640625 56 84.28125 50.015625 
Q 88.921875 44.046875 88.921875 33.015625 
L 88.921875 0 
L 79.890625 0 
L 79.890625 32.71875 
Q 79.890625 40.578125 77.09375 44.375 
Q 74.3125 48.1875 68.609375 48.1875 
Q 61.625 48.1875 57.5625 43.546875 
Q 53.515625 38.921875 53.515625 30.90625 
L 53.515625 0 
L 44.484375 0 
L 44.484375 32.71875 
Q 44.484375 40.625 41.703125 44.40625 
Q 38.921875 48.1875 33.109375 48.1875 
Q 26.21875 48.1875 22.15625 43.53125 
Q 18.109375 38.875 18.109375 30.90625 
L 18.109375 0 
L 9.078125 0 
L 9.078125 54.6875 
L 18.109375 54.6875 
L 18.109375 46.1875 
Q 21.1875 51.21875 25.484375 53.609375 
Q 29.78125 56 35.6875 56 
Q 41.65625 56 45.828125 52.96875 
Q 50 49.953125 52 44.1875 
z
" id="DejaVuSans-109"/>
    </defs>
    <g transform="translate(307.281094 123.6)scale(0.18 -0.18)">
     <use xlink:href="#DejaVuSans-101"/>
     <use x="61.523438" xlink:href="#DejaVuSans-112"/>
     <use x="125" xlink:href="#DejaVuSans-111"/>
     <use x="186.181641" xlink:href="#DejaVuSans-99"/>
     <use x="241.162109" xlink:href="#DejaVuSans-104"/>
     <use x="304.541016" xlink:href="#DejaVuSans-61"/>
     <use x="388.330078" xlink:href="#DejaVuSans-50"/>
     <use x="451.953125" xlink:href="#DejaVuSans-48"/>
     <use x="515.576172" xlink:href="#DejaVuSans-48"/>
     <use x="579.199219" xlink:href="#DejaVuSans-48"/>
     <use x="642.822266" xlink:href="#DejaVuSans-44"/>
     <use x="674.609375" xlink:href="#DejaVuSans-32"/>
     <use x="706.396484" xlink:href="#DejaVuSans-98"/>
     <use x="769.873047" xlink:href="#DejaVuSans-97"/>
     <use x="831.152344" xlink:href="#DejaVuSans-116"/>
     <use x="870.361328" xlink:href="#DejaVuSans-99"/>
     <use x="925.341797" xlink:href="#DejaVuSans-104"/>
     <use x="988.720703" xlink:href="#DejaVuSans-95"/>
     <use x="1038.720703" xlink:href="#DejaVuSans-115"/>
     <use x="1090.820312" xlink:href="#DejaVuSans-105"/>
     <use x="1118.603516" xlink:href="#DejaVuSans-122"/>
     <use x="1171.09375" xlink:href="#DejaVuSans-101"/>
     <use x="1232.617188" xlink:href="#DejaVuSans-61"/>
     <use x="1316.40625" xlink:href="#DejaVuSans-53"/>
     <use x="1380.029297" xlink:href="#DejaVuSans-48"/>
     <use x="1443.652344" xlink:href="#DejaVuSans-44"/>
     <use x="1475.439453" xlink:href="#DejaVuSans-32"/>
     <use x="1507.226562" xlink:href="#DejaVuSans-108"/>
     <use x="1535.009766" xlink:href="#DejaVuSans-114"/>
     <use x="1576.123047" xlink:href="#DejaVuSans-61"/>
     <use x="1659.912109" xlink:href="#DejaVuSans-49"/>
     <use x="1723.535156" xlink:href="#DejaVuSans-46"/>
     <use x="1755.322266" xlink:href="#DejaVuSans-48"/>
     <use x="1818.945312" xlink:href="#DejaVuSans-69"/>
     <use x="1882.128906" xlink:href="#DejaVuSans-45"/>
     <use x="1918.212891" xlink:href="#DejaVuSans-48"/>
     <use x="1981.835938" xlink:href="#DejaVuSans-51"/>
     <use x="2045.458984" xlink:href="#DejaVuSans-44"/>
     <use x="2077.246094" xlink:href="#DejaVuSans-32"/>
     <use x="2109.033203" xlink:href="#DejaVuSans-115"/>
     <use x="2161.132812" xlink:href="#DejaVuSans-97"/>
     <use x="2222.412109" xlink:href="#DejaVuSans-109"/>
     <use x="2319.824219" xlink:href="#DejaVuSans-112"/>
     <use x="2383.300781" xlink:href="#DejaVuSans-108"/>
     <use x="2411.083984" xlink:href="#DejaVuSans-101"/>
     <use x="2472.607422" xlink:href="#DejaVuSans-115"/>
     <use x="2524.707031" xlink:href="#DejaVuSans-61"/>
     <use x="2608.496094" xlink:href="#DejaVuSans-49"/>
     <use x="2672.119141" xlink:href="#DejaVuSans-48"/>
    </g>
   </g>
   <g id="legend_1">
    <g id="patch_7">
     <path d="M 142 166.95625 
L 207.578125 166.95625 
Q 209.578125 166.95625 209.578125 164.95625 
L 209.578125 136.6 
Q 209.578125 134.6 207.578125 134.6 
L 142 134.6 
Q 140 134.6 140 136.6 
L 140 164.95625 
Q 140 166.95625 142 166.95625 
z
" style="fill:#ffffff;opacity:0.8;stroke:#cccccc;stroke-linejoin:miter;"/>
    </g>
    <g id="line2d_18">
     <path d="M 144 142.698437 
L 164 142.698437 
" style="fill:none;stroke:#ff0000;stroke-linecap:square;stroke-width:1.5;"/>
    </g>
    <g id="line2d_19"/>
    <g id="text_17">
     <!-- EUBOs -->
     <defs>
      <path d="M 8.6875 72.90625 
L 18.609375 72.90625 
L 18.609375 28.609375 
Q 18.609375 16.890625 22.84375 11.734375 
Q 27.09375 6.59375 36.625 6.59375 
Q 46.09375 6.59375 50.34375 11.734375 
Q 54.59375 16.890625 54.59375 28.609375 
L 54.59375 72.90625 
L 64.5 72.90625 
L 64.5 27.390625 
Q 64.5 13.140625 57.4375 5.859375 
Q 50.390625 -1.421875 36.625 -1.421875 
Q 22.796875 -1.421875 15.734375 5.859375 
Q 8.6875 13.140625 8.6875 27.390625 
z
" id="DejaVuSans-85"/>
      <path d="M 19.671875 34.8125 
L 19.671875 8.109375 
L 35.5 8.109375 
Q 43.453125 8.109375 47.28125 11.40625 
Q 51.125 14.703125 51.125 21.484375 
Q 51.125 28.328125 47.28125 31.5625 
Q 43.453125 34.8125 35.5 34.8125 
z
M 19.671875 64.796875 
L 19.671875 42.828125 
L 34.28125 42.828125 
Q 41.5 42.828125 45.03125 45.53125 
Q 48.578125 48.25 48.578125 53.8125 
Q 48.578125 59.328125 45.03125 62.0625 
Q 41.5 64.796875 34.28125 64.796875 
z
M 9.8125 72.90625 
L 35.015625 72.90625 
Q 46.296875 72.90625 52.390625 68.21875 
Q 58.5 63.53125 58.5 54.890625 
Q 58.5 48.1875 55.375 44.234375 
Q 52.25 40.28125 46.1875 39.3125 
Q 53.46875 37.75 57.5 32.78125 
Q 61.53125 27.828125 61.53125 20.40625 
Q 61.53125 10.640625 54.890625 5.3125 
Q 48.25 0 35.984375 0 
L 9.8125 0 
z
" id="DejaVuSans-66"/>
      <path d="M 39.40625 66.21875 
Q 28.65625 66.21875 22.328125 58.203125 
Q 16.015625 50.203125 16.015625 36.375 
Q 16.015625 22.609375 22.328125 14.59375 
Q 28.65625 6.59375 39.40625 6.59375 
Q 50.140625 6.59375 56.421875 14.59375 
Q 62.703125 22.609375 62.703125 36.375 
Q 62.703125 50.203125 56.421875 58.203125 
Q 50.140625 66.21875 39.40625 66.21875 
z
M 39.40625 74.21875 
Q 54.734375 74.21875 63.90625 63.9375 
Q 73.09375 53.65625 73.09375 36.375 
Q 73.09375 19.140625 63.90625 8.859375 
Q 54.734375 -1.421875 39.40625 -1.421875 
Q 24.03125 -1.421875 14.8125 8.828125 
Q 5.609375 19.09375 5.609375 36.375 
Q 5.609375 53.65625 14.8125 63.9375 
Q 24.03125 74.21875 39.40625 74.21875 
z
" id="DejaVuSans-79"/>
     </defs>
     <g transform="translate(172 146.198437)scale(0.1 -0.1)">
      <use xlink:href="#DejaVuSans-69"/>
      <use x="63.183594" xlink:href="#DejaVuSans-85"/>
      <use x="136.376953" xlink:href="#DejaVuSans-66"/>
      <use x="204.964844" xlink:href="#DejaVuSans-79"/>
      <use x="283.675781" xlink:href="#DejaVuSans-115"/>
     </g>
    </g>
    <g id="line2d_20">
     <path d="M 144 157.376562 
L 164 157.376562 
" style="fill:none;stroke:#0000ff;stroke-linecap:square;stroke-width:1.5;"/>
    </g>
    <g id="line2d_21"/>
    <g id="text_18">
     <!-- ELBOs -->
     <defs>
      <path d="M 9.8125 72.90625 
L 19.671875 72.90625 
L 19.671875 8.296875 
L 55.171875 8.296875 
L 55.171875 0 
L 9.8125 0 
z
" id="DejaVuSans-76"/>
     </defs>
     <g transform="translate(172 160.876562)scale(0.1 -0.1)">
      <use xlink:href="#DejaVuSans-69"/>
      <use x="63.183594" xlink:href="#DejaVuSans-76"/>
      <use x="118.896484" xlink:href="#DejaVuSans-66"/>
      <use x="187.484375" xlink:href="#DejaVuSans-79"/>
      <use x="266.195312" xlink:href="#DejaVuSans-115"/>
     </g>
    </g>
   </g>
  </g>
  <g id="axes_2">
   <g id="patch_8">
    <path d="M 135 657.211765 
L 972 657.211765 
L 972 417.388235 
L 135 417.388235 
z
" style="fill:#ffffff;"/>
   </g>
   <g id="matplotlib.axis_3">
    <g id="xtick_9">
     <g id="line2d_22">
      <g>
       <use style="stroke:#000000;stroke-width:0.8;" x="173.045455" xlink:href="#m38c5c23810" y="657.211765"/>
      </g>
     </g>
     <g id="text_19">
      <!-- 0 -->
      <g transform="translate(167.319205 677.888952)scale(0.18 -0.18)">
       <use xlink:href="#DejaVuSans-48"/>
      </g>
     </g>
    </g>
    <g id="xtick_10">
     <g id="line2d_23">
      <g>
       <use style="stroke:#000000;stroke-width:0.8;" x="273.165072" xlink:href="#m38c5c23810" y="657.211765"/>
      </g>
     </g>
     <g id="text_20">
      <!-- 20 -->
      <g transform="translate(261.712572 677.888952)scale(0.18 -0.18)">
       <use xlink:href="#DejaVuSans-50"/>
       <use x="63.623047" xlink:href="#DejaVuSans-48"/>
      </g>
     </g>
    </g>
    <g id="xtick_11">
     <g id="line2d_24">
      <g>
       <use style="stroke:#000000;stroke-width:0.8;" x="373.284689" xlink:href="#m38c5c23810" y="657.211765"/>
      </g>
     </g>
     <g id="text_21">
      <!-- 40 -->
      <g transform="translate(361.832189 677.888952)scale(0.18 -0.18)">
       <use xlink:href="#DejaVuSans-52"/>
       <use x="63.623047" xlink:href="#DejaVuSans-48"/>
      </g>
     </g>
    </g>
    <g id="xtick_12">
     <g id="line2d_25">
      <g>
       <use style="stroke:#000000;stroke-width:0.8;" x="473.404306" xlink:href="#m38c5c23810" y="657.211765"/>
      </g>
     </g>
     <g id="text_22">
      <!-- 60 -->
      <g transform="translate(461.951806 677.888952)scale(0.18 -0.18)">
       <use xlink:href="#DejaVuSans-54"/>
       <use x="63.623047" xlink:href="#DejaVuSans-48"/>
      </g>
     </g>
    </g>
    <g id="xtick_13">
     <g id="line2d_26">
      <g>
       <use style="stroke:#000000;stroke-width:0.8;" x="573.523923" xlink:href="#m38c5c23810" y="657.211765"/>
      </g>
     </g>
     <g id="text_23">
      <!-- 80 -->
      <g transform="translate(562.071423 677.888952)scale(0.18 -0.18)">
       <use xlink:href="#DejaVuSans-56"/>
       <use x="63.623047" xlink:href="#DejaVuSans-48"/>
      </g>
     </g>
    </g>
    <g id="xtick_14">
     <g id="line2d_27">
      <g>
       <use style="stroke:#000000;stroke-width:0.8;" x="673.643541" xlink:href="#m38c5c23810" y="657.211765"/>
      </g>
     </g>
     <g id="text_24">
      <!-- 100 -->
      <g transform="translate(656.464791 677.888952)scale(0.18 -0.18)">
       <use xlink:href="#DejaVuSans-49"/>
       <use x="63.623047" xlink:href="#DejaVuSans-48"/>
       <use x="127.246094" xlink:href="#DejaVuSans-48"/>
      </g>
     </g>
    </g>
    <g id="xtick_15">
     <g id="line2d_28">
      <g>
       <use style="stroke:#000000;stroke-width:0.8;" x="773.763158" xlink:href="#m38c5c23810" y="657.211765"/>
      </g>
     </g>
     <g id="text_25">
      <!-- 120 -->
      <g transform="translate(756.584408 677.888952)scale(0.18 -0.18)">
       <use xlink:href="#DejaVuSans-49"/>
       <use x="63.623047" xlink:href="#DejaVuSans-50"/>
       <use x="127.246094" xlink:href="#DejaVuSans-48"/>
      </g>
     </g>
    </g>
    <g id="xtick_16">
     <g id="line2d_29">
      <g>
       <use style="stroke:#000000;stroke-width:0.8;" x="873.882775" xlink:href="#m38c5c23810" y="657.211765"/>
      </g>
     </g>
     <g id="text_26">
      <!-- 140 -->
      <g transform="translate(856.704025 677.888952)scale(0.18 -0.18)">
       <use xlink:href="#DejaVuSans-49"/>
       <use x="63.623047" xlink:href="#DejaVuSans-52"/>
       <use x="127.246094" xlink:href="#DejaVuSans-48"/>
      </g>
     </g>
    </g>
   </g>
   <g id="matplotlib.axis_4">
    <g id="ytick_8">
     <g id="line2d_30">
      <g>
       <use style="stroke:#000000;stroke-width:0.8;" x="135" xlink:href="#m36c541aada" y="647.332724"/>
      </g>
     </g>
     <g id="text_27">
      <!-- 0 -->
      <g transform="translate(116.5475 654.171318)scale(0.18 -0.18)">
       <use xlink:href="#DejaVuSans-48"/>
      </g>
     </g>
    </g>
    <g id="ytick_9">
     <g id="line2d_31">
      <g>
       <use style="stroke:#000000;stroke-width:0.8;" x="135" xlink:href="#m36c541aada" y="589.993756"/>
      </g>
     </g>
     <g id="text_28">
      <!-- 100 -->
      <g transform="translate(93.6425 596.83235)scale(0.18 -0.18)">
       <use xlink:href="#DejaVuSans-49"/>
       <use x="63.623047" xlink:href="#DejaVuSans-48"/>
       <use x="127.246094" xlink:href="#DejaVuSans-48"/>
      </g>
     </g>
    </g>
    <g id="ytick_10">
     <g id="line2d_32">
      <g>
       <use style="stroke:#000000;stroke-width:0.8;" x="135" xlink:href="#m36c541aada" y="532.654789"/>
      </g>
     </g>
     <g id="text_29">
      <!-- 200 -->
      <g transform="translate(93.6425 539.493383)scale(0.18 -0.18)">
       <use xlink:href="#DejaVuSans-50"/>
       <use x="63.623047" xlink:href="#DejaVuSans-48"/>
       <use x="127.246094" xlink:href="#DejaVuSans-48"/>
      </g>
     </g>
    </g>
    <g id="ytick_11">
     <g id="line2d_33">
      <g>
       <use style="stroke:#000000;stroke-width:0.8;" x="135" xlink:href="#m36c541aada" y="475.315822"/>
      </g>
     </g>
     <g id="text_30">
      <!-- 300 -->
      <g transform="translate(93.6425 482.154416)scale(0.18 -0.18)">
       <use xlink:href="#DejaVuSans-51"/>
       <use x="63.623047" xlink:href="#DejaVuSans-48"/>
       <use x="127.246094" xlink:href="#DejaVuSans-48"/>
      </g>
     </g>
    </g>
    <g id="ytick_12">
     <g id="line2d_34">
      <g>
       <use style="stroke:#000000;stroke-width:0.8;" x="135" xlink:href="#m36c541aada" y="417.976854"/>
      </g>
     </g>
     <g id="text_31">
      <!-- 400 -->
      <g transform="translate(93.6425 424.815448)scale(0.18 -0.18)">
       <use xlink:href="#DejaVuSans-52"/>
       <use x="63.623047" xlink:href="#DejaVuSans-48"/>
       <use x="127.246094" xlink:href="#DejaVuSans-48"/>
      </g>
     </g>
    </g>
   </g>
   <g id="line2d_35">
    <path clip-path="url(#p5fe07ae640)" d="M 173.045455 428.289305 
L 178.051435 572.334723 
L 183.057416 601.437382 
L 188.063397 613.611273 
L 193.069378 620.098325 
L 198.075359 623.767207 
L 203.08134 624.982032 
L 208.087321 626.398522 
L 218.099282 626.697314 
L 223.105263 625.795975 
L 233.117225 625.977084 
L 258.147129 627.518774 
L 263.15311 627.493858 
L 268.159091 628.137232 
L 273.165072 628.445776 
L 278.171053 629.042287 
L 283.177033 629.244782 
L 288.183014 629.275426 
L 298.194976 629.565498 
L 303.200957 629.626057 
L 308.206938 629.854196 
L 323.22488 630.209063 
L 328.230861 630.646175 
L 333.236842 630.77699 
L 338.242823 631.406089 
L 348.254785 631.45677 
L 353.260766 631.502336 
L 358.266746 631.674452 
L 363.272727 631.696276 
L 368.278708 632.186141 
L 373.284689 631.91684 
L 378.29067 631.780505 
L 383.296651 631.938852 
L 388.302632 632.487388 
L 393.308612 632.41092 
L 398.314593 632.550903 
L 408.326555 632.176029 
L 413.332536 632.634404 
L 418.338517 632.615725 
L 423.344498 632.779742 
L 428.350478 633.134531 
L 438.36244 633.002786 
L 443.368421 633.049831 
L 448.374402 632.588125 
L 453.380383 633.009035 
L 458.386364 632.616878 
L 463.392344 632.815347 
L 468.398325 633.521583 
L 473.404306 633.312056 
L 478.410287 632.834055 
L 483.416268 633.186082 
L 493.42823 632.935503 
L 503.440191 632.696011 
L 508.446172 633.089084 
L 513.452153 633.065034 
L 518.458134 633.323947 
L 528.470096 632.86212 
L 533.476077 632.988921 
L 538.482057 633.296226 
L 543.488038 633.106106 
L 548.494019 633.412536 
L 553.5 633.02656 
L 558.505981 632.948142 
L 563.511962 633.307978 
L 573.523923 632.9634 
L 578.529904 632.533122 
L 583.535885 633.135318 
L 588.541866 632.9659 
L 598.553828 633.221068 
L 618.577751 633.043535 
L 623.583732 632.769293 
L 633.595694 633.307686 
L 638.601675 632.839176 
L 643.607656 632.519566 
L 648.613636 632.943965 
L 653.619617 633.147271 
L 658.625598 632.857479 
L 663.631579 632.91778 
L 668.63756 633.274513 
L 673.643541 633.143052 
L 678.649522 633.608301 
L 683.655502 633.285705 
L 688.661483 632.800873 
L 693.667464 633.120486 
L 708.685407 632.96133 
L 713.691388 633.24805 
L 718.697368 633.320359 
L 723.703349 633.699044 
L 728.70933 632.85181 
L 733.715311 633.33197 
L 738.721292 633.08954 
L 743.727273 633.343094 
L 748.733254 632.953337 
L 753.739234 632.916467 
L 758.745215 632.713094 
L 763.751196 633.240586 
L 768.757177 632.49787 
L 773.763158 633.167888 
L 778.769139 633.22712 
L 783.77512 632.903383 
L 798.793062 632.752897 
L 803.799043 633.068326 
L 813.811005 633.342936 
L 818.816986 632.998757 
L 823.822967 632.809741 
L 828.828947 633.030194 
L 833.834928 632.944127 
L 843.84689 633.778487 
L 848.852871 633.66268 
L 853.858852 633.161303 
L 858.864833 633.315657 
L 863.870813 632.89981 
L 868.876794 632.636663 
L 873.882775 632.657754 
L 878.888756 633.610082 
L 883.894737 633.025032 
L 898.912679 633.384041 
L 903.91866 633.243215 
L 908.924641 632.96556 
L 913.930622 633.538491 
L 918.936603 633.545672 
L 923.942584 633.337313 
L 928.948565 632.848269 
L 933.954545 633.835557 
L 933.954545 633.835557 
" style="fill:none;stroke:#66b3ff;stroke-linecap:square;stroke-width:1.5;"/>
   </g>
   <g id="line2d_36">
    <path clip-path="url(#p5fe07ae640)" d="M 173.045455 637.489338 
L 178.051435 639.269217 
L 183.057416 639.796743 
L 188.063397 639.253989 
L 193.069378 638.910648 
L 198.075359 638.770862 
L 203.08134 638.261042 
L 208.087321 637.629363 
L 213.093301 637.210538 
L 218.099282 637.144288 
L 223.105263 636.834343 
L 228.111244 636.251839 
L 238.123206 636.280713 
L 243.129187 636.009958 
L 253.141148 635.841057 
L 258.147129 636.511886 
L 263.15311 636.409617 
L 268.159091 636.567192 
L 278.171053 636.696569 
L 298.194976 637.378668 
L 303.200957 637.478031 
L 308.206938 637.386091 
L 318.2189 637.558767 
L 323.22488 637.999197 
L 333.236842 638.410316 
L 338.242823 638.324062 
L 348.254785 638.674422 
L 353.260766 638.321079 
L 363.272727 638.810797 
L 368.278708 638.673764 
L 373.284689 638.827975 
L 378.29067 639.243454 
L 383.296651 638.657549 
L 388.302632 638.769612 
L 393.308612 639.021601 
L 398.314593 638.964041 
L 413.332536 639.449436 
L 418.338517 639.290695 
L 423.344498 639.389746 
L 428.350478 639.113785 
L 433.356459 639.561524 
L 453.380383 639.727593 
L 463.392344 639.470295 
L 473.404306 639.808232 
L 478.410287 639.957955 
L 488.422249 639.792704 
L 493.42823 639.895201 
L 498.434211 640.2274 
L 503.440191 640.133585 
L 518.458134 640.225195 
L 523.464115 640.041017 
L 528.470096 640.317648 
L 533.476077 640.069491 
L 538.482057 640.330702 
L 543.488038 640.190226 
L 548.494019 640.278588 
L 553.5 640.200303 
L 558.505981 639.970465 
L 563.511962 640.132934 
L 573.523923 640.161248 
L 578.529904 640.477534 
L 583.535885 640.540103 
L 588.541866 640.239851 
L 593.547847 640.19632 
L 598.553828 640.473728 
L 608.565789 640.283333 
L 613.57177 640.473612 
L 618.577751 640.106621 
L 623.583732 640.197819 
L 628.589713 640.146803 
L 633.595694 640.376538 
L 643.607656 640.485444 
L 648.613636 640.36176 
L 653.619617 640.547294 
L 658.625598 640.324012 
L 663.631579 640.553897 
L 668.63756 640.456145 
L 673.643541 640.195326 
L 678.649522 640.536159 
L 683.655502 640.392171 
L 713.691388 640.64418 
L 718.697368 640.748402 
L 723.703349 640.735001 
L 728.70933 640.46501 
L 733.715311 640.512632 
L 743.727273 640.822944 
L 748.733254 640.699006 
L 753.739234 640.885748 
L 758.745215 640.403116 
L 763.751196 640.62836 
L 768.757177 640.675264 
L 788.7811 640.506159 
L 793.787081 640.624284 
L 798.793062 640.549668 
L 803.799043 640.658851 
L 808.805024 640.477877 
L 818.816986 640.556801 
L 828.828947 640.57281 
L 838.840909 640.698383 
L 843.84689 640.515768 
L 848.852871 640.701728 
L 863.870813 640.805954 
L 878.888756 640.665451 
L 898.912679 641.015597 
L 903.91866 640.781876 
L 913.930622 640.536832 
L 918.936603 640.862749 
L 933.954545 640.933312 
L 933.954545 640.933312 
" style="fill:none;stroke:#ff9999;stroke-linecap:square;stroke-width:1.5;"/>
   </g>
   <g id="line2d_37">
    <path clip-path="url(#p5fe07ae640)" d="M 173.045455 582.15388 
L 178.051435 629.663273 
L 183.057416 635.05479 
L 193.069378 640.087695 
L 198.075359 641.158455 
L 203.08134 641.800332 
L 208.087321 642.572697 
L 213.093301 642.948618 
L 223.105263 643.387742 
L 228.111244 643.745836 
L 233.117225 643.936482 
L 238.123206 644.243104 
L 243.129187 644.389447 
L 258.147129 644.443112 
L 268.159091 644.794594 
L 283.177033 644.890638 
L 288.183014 644.805108 
L 298.194976 644.995174 
L 308.206938 645.057465 
L 318.2189 645.07217 
L 323.22488 645.029477 
L 328.230861 645.150144 
L 338.242823 645.037187 
L 348.254785 645.183715 
L 368.278708 645.260904 
L 378.29067 645.120935 
L 383.296651 645.328334 
L 388.302632 645.35193 
L 393.308612 645.244797 
L 403.320574 645.271711 
L 413.332536 645.329014 
L 423.344498 645.38106 
L 433.356459 645.431626 
L 438.36244 645.365255 
L 443.368421 645.486888 
L 453.380383 645.456348 
L 493.42823 645.572021 
L 508.446172 645.467678 
L 513.452153 645.601621 
L 528.470096 645.593028 
L 533.476077 645.673633 
L 543.488038 645.644625 
L 598.553828 645.804651 
L 603.559809 645.737828 
L 618.577751 645.776594 
L 638.601675 645.809759 
L 643.607656 645.641271 
L 648.613636 645.813758 
L 673.643541 645.830868 
L 678.649522 645.92446 
L 683.655502 645.797382 
L 703.679426 645.839409 
L 708.685407 645.421516 
L 713.691388 645.882788 
L 768.757177 645.913258 
L 778.769139 646.030965 
L 783.77512 645.887448 
L 788.7811 645.989115 
L 793.787081 645.833367 
L 813.811005 645.962655 
L 823.822967 645.710338 
L 828.828947 646.0417 
L 833.834928 645.856911 
L 843.84689 645.706154 
L 848.852871 646.028265 
L 853.858852 645.948269 
L 858.864833 645.58423 
L 863.870813 645.953055 
L 868.876794 645.803449 
L 923.942584 645.975231 
L 928.948565 645.864777 
L 933.954545 646.055296 
L 933.954545 646.055296 
" style="fill:none;stroke:#99ff99;stroke-linecap:square;stroke-width:1.5;"/>
   </g>
   <g id="line2d_38">
    <path clip-path="url(#p5fe07ae640)" d="M 173.045455 637.427431 
L 178.051435 641.043418 
L 183.057416 642.362887 
L 188.063397 643.207125 
L 193.069378 643.714864 
L 198.075359 644.098957 
L 208.087321 644.430046 
L 213.093301 644.578235 
L 238.123206 644.724872 
L 248.135167 644.931155 
L 263.15311 644.873448 
L 268.159091 645.073267 
L 278.171053 644.906672 
L 283.177033 645.057787 
L 288.183014 645.022965 
L 293.188995 645.108018 
L 298.194976 645.065424 
L 303.200957 645.178687 
L 308.206938 645.080952 
L 313.212919 645.203373 
L 333.236842 645.150647 
L 338.242823 645.26209 
L 343.248804 645.224973 
L 353.260766 645.346464 
L 458.386364 645.684387 
L 468.398325 645.706721 
L 503.440191 645.737026 
L 508.446172 645.844534 
L 523.464115 645.759086 
L 528.470096 645.906714 
L 538.482057 645.833592 
L 558.505981 645.850256 
L 563.511962 646.001633 
L 568.517943 645.924291 
L 573.523923 646.013991 
L 578.529904 645.919464 
L 598.553828 646.014441 
L 613.57177 645.99787 
L 623.583732 645.98454 
L 643.607656 646.075936 
L 648.613636 646.007257 
L 658.625598 646.113208 
L 663.631579 646.039864 
L 668.63756 646.1375 
L 673.643541 645.993007 
L 678.649522 646.14631 
L 693.667464 646.139558 
L 758.745215 646.136289 
L 768.757177 646.180758 
L 853.858852 646.184413 
L 863.870813 646.242166 
L 868.876794 646.187048 
L 878.888756 646.211243 
L 928.948565 646.281105 
L 933.954545 646.310695 
L 933.954545 646.310695 
" style="fill:none;stroke:#ffd700;stroke-linecap:square;stroke-width:1.5;"/>
   </g>
   <g id="patch_9">
    <path d="M 135 657.211765 
L 135 417.388235 
" style="fill:none;stroke:#000000;stroke-linecap:square;stroke-linejoin:miter;stroke-width:0.8;"/>
   </g>
   <g id="patch_10">
    <path d="M 972 657.211765 
L 972 417.388235 
" style="fill:none;stroke:#000000;stroke-linecap:square;stroke-linejoin:miter;stroke-width:0.8;"/>
   </g>
   <g id="patch_11">
    <path d="M 135 657.211765 
L 972 657.211765 
" style="fill:none;stroke:#000000;stroke-linecap:square;stroke-linejoin:miter;stroke-width:0.8;"/>
   </g>
   <g id="patch_12">
    <path d="M 135 417.388235 
L 972 417.388235 
" style="fill:none;stroke:#000000;stroke-linecap:square;stroke-linejoin:miter;stroke-width:0.8;"/>
   </g>
   <g id="legend_2">
    <g id="patch_13">
     <path d="M 841.176563 484.100735 
L 965 484.100735 
Q 967 484.100735 967 482.100735 
L 967 424.388235 
Q 967 422.388235 965 422.388235 
L 841.176563 422.388235 
Q 839.176563 422.388235 839.176563 424.388235 
L 839.176563 482.100735 
Q 839.176563 484.100735 841.176563 484.100735 
z
" style="fill:#ffffff;opacity:0.8;stroke:#cccccc;stroke-linejoin:miter;"/>
    </g>
    <g id="line2d_39">
     <path d="M 843.176563 430.486673 
L 863.176563 430.486673 
" style="fill:none;stroke:#66b3ff;stroke-linecap:square;stroke-width:1.5;"/>
    </g>
    <g id="line2d_40"/>
    <g id="text_32">
     <!-- exclusive KL - - eta -->
     <defs>
      <path d="M 54.890625 54.6875 
L 35.109375 28.078125 
L 55.90625 0 
L 45.3125 0 
L 29.390625 21.484375 
L 13.484375 0 
L 2.875 0 
L 24.125 28.609375 
L 4.6875 54.6875 
L 15.28125 54.6875 
L 29.78125 35.203125 
L 44.28125 54.6875 
z
" id="DejaVuSans-120"/>
      <path d="M 8.5 21.578125 
L 8.5 54.6875 
L 17.484375 54.6875 
L 17.484375 21.921875 
Q 17.484375 14.15625 20.5 10.265625 
Q 23.53125 6.390625 29.59375 6.390625 
Q 36.859375 6.390625 41.078125 11.03125 
Q 45.3125 15.671875 45.3125 23.6875 
L 45.3125 54.6875 
L 54.296875 54.6875 
L 54.296875 0 
L 45.3125 0 
L 45.3125 8.40625 
Q 42.046875 3.421875 37.71875 1 
Q 33.40625 -1.421875 27.6875 -1.421875 
Q 18.265625 -1.421875 13.375 4.4375 
Q 8.5 10.296875 8.5 21.578125 
z
M 31.109375 56 
z
" id="DejaVuSans-117"/>
      <path d="M 2.984375 54.6875 
L 12.5 54.6875 
L 29.59375 8.796875 
L 46.6875 54.6875 
L 56.203125 54.6875 
L 35.6875 0 
L 23.484375 0 
z
" id="DejaVuSans-118"/>
      <path d="M 9.8125 72.90625 
L 19.671875 72.90625 
L 19.671875 42.09375 
L 52.390625 72.90625 
L 65.09375 72.90625 
L 28.90625 38.921875 
L 67.671875 0 
L 54.6875 0 
L 19.671875 35.109375 
L 19.671875 0 
L 9.8125 0 
z
" id="DejaVuSans-75"/>
     </defs>
     <g transform="translate(871.176563 433.986673)scale(0.1 -0.1)">
      <use xlink:href="#DejaVuSans-101"/>
      <use x="61.507812" xlink:href="#DejaVuSans-120"/>
      <use x="120.671875" xlink:href="#DejaVuSans-99"/>
      <use x="175.652344" xlink:href="#DejaVuSans-108"/>
      <use x="203.435547" xlink:href="#DejaVuSans-117"/>
      <use x="266.814453" xlink:href="#DejaVuSans-115"/>
      <use x="318.914062" xlink:href="#DejaVuSans-105"/>
      <use x="346.697266" xlink:href="#DejaVuSans-118"/>
      <use x="405.876953" xlink:href="#DejaVuSans-101"/>
      <use x="467.400391" xlink:href="#DejaVuSans-32"/>
      <use x="499.1875" xlink:href="#DejaVuSans-75"/>
      <use x="564.763672" xlink:href="#DejaVuSans-76"/>
      <use x="620.476562" xlink:href="#DejaVuSans-32"/>
      <use x="652.263672" xlink:href="#DejaVuSans-45"/>
      <use x="688.347656" xlink:href="#DejaVuSans-45"/>
      <use x="724.431641" xlink:href="#DejaVuSans-32"/>
      <use x="756.21875" xlink:href="#DejaVuSans-101"/>
      <use x="817.742188" xlink:href="#DejaVuSans-116"/>
      <use x="856.951172" xlink:href="#DejaVuSans-97"/>
     </g>
    </g>
    <g id="line2d_41">
     <path d="M 843.176563 445.164798 
L 863.176563 445.164798 
" style="fill:none;stroke:#ff9999;stroke-linecap:square;stroke-width:1.5;"/>
    </g>
    <g id="line2d_42"/>
    <g id="text_33">
     <!-- inclusive KL - - eta -->
     <defs>
      <path d="M 54.890625 33.015625 
L 54.890625 0 
L 45.90625 0 
L 45.90625 32.71875 
Q 45.90625 40.484375 42.875 44.328125 
Q 39.84375 48.1875 33.796875 48.1875 
Q 26.515625 48.1875 22.3125 43.546875 
Q 18.109375 38.921875 18.109375 30.90625 
L 18.109375 0 
L 9.078125 0 
L 9.078125 54.6875 
L 18.109375 54.6875 
L 18.109375 46.1875 
Q 21.34375 51.125 25.703125 53.5625 
Q 30.078125 56 35.796875 56 
Q 45.21875 56 50.046875 50.171875 
Q 54.890625 44.34375 54.890625 33.015625 
z
" id="DejaVuSans-110"/>
     </defs>
     <g transform="translate(871.176563 448.664798)scale(0.1 -0.1)">
      <use xlink:href="#DejaVuSans-105"/>
      <use x="27.783203" xlink:href="#DejaVuSans-110"/>
      <use x="91.162109" xlink:href="#DejaVuSans-99"/>
      <use x="146.142578" xlink:href="#DejaVuSans-108"/>
      <use x="173.925781" xlink:href="#DejaVuSans-117"/>
      <use x="237.304688" xlink:href="#DejaVuSans-115"/>
      <use x="289.404297" xlink:href="#DejaVuSans-105"/>
      <use x="317.1875" xlink:href="#DejaVuSans-118"/>
      <use x="376.367188" xlink:href="#DejaVuSans-101"/>
      <use x="437.890625" xlink:href="#DejaVuSans-32"/>
      <use x="469.677734" xlink:href="#DejaVuSans-75"/>
      <use x="535.253906" xlink:href="#DejaVuSans-76"/>
      <use x="590.966797" xlink:href="#DejaVuSans-32"/>
      <use x="622.753906" xlink:href="#DejaVuSans-45"/>
      <use x="658.837891" xlink:href="#DejaVuSans-45"/>
      <use x="694.921875" xlink:href="#DejaVuSans-32"/>
      <use x="726.708984" xlink:href="#DejaVuSans-101"/>
      <use x="788.232422" xlink:href="#DejaVuSans-116"/>
      <use x="827.441406" xlink:href="#DejaVuSans-97"/>
     </g>
    </g>
    <g id="line2d_43">
     <path d="M 843.176563 459.842923 
L 863.176563 459.842923 
" style="fill:none;stroke:#99ff99;stroke-linecap:square;stroke-width:1.5;"/>
    </g>
    <g id="line2d_44"/>
    <g id="text_34">
     <!-- exclusive KL - - z -->
     <g transform="translate(871.176563 463.342923)scale(0.1 -0.1)">
      <use xlink:href="#DejaVuSans-101"/>
      <use x="61.507812" xlink:href="#DejaVuSans-120"/>
      <use x="120.671875" xlink:href="#DejaVuSans-99"/>
      <use x="175.652344" xlink:href="#DejaVuSans-108"/>
      <use x="203.435547" xlink:href="#DejaVuSans-117"/>
      <use x="266.814453" xlink:href="#DejaVuSans-115"/>
      <use x="318.914062" xlink:href="#DejaVuSans-105"/>
      <use x="346.697266" xlink:href="#DejaVuSans-118"/>
      <use x="405.876953" xlink:href="#DejaVuSans-101"/>
      <use x="467.400391" xlink:href="#DejaVuSans-32"/>
      <use x="499.1875" xlink:href="#DejaVuSans-75"/>
      <use x="564.763672" xlink:href="#DejaVuSans-76"/>
      <use x="620.476562" xlink:href="#DejaVuSans-32"/>
      <use x="652.263672" xlink:href="#DejaVuSans-45"/>
      <use x="688.347656" xlink:href="#DejaVuSans-45"/>
      <use x="724.431641" xlink:href="#DejaVuSans-32"/>
      <use x="756.21875" xlink:href="#DejaVuSans-122"/>
     </g>
    </g>
    <g id="line2d_45">
     <path d="M 843.176563 474.521048 
L 863.176563 474.521048 
" style="fill:none;stroke:#ffd700;stroke-linecap:square;stroke-width:1.5;"/>
    </g>
    <g id="line2d_46"/>
    <g id="text_35">
     <!-- inclusive KL - - z -->
     <g transform="translate(871.176563 478.021048)scale(0.1 -0.1)">
      <use xlink:href="#DejaVuSans-105"/>
      <use x="27.783203" xlink:href="#DejaVuSans-110"/>
      <use x="91.162109" xlink:href="#DejaVuSans-99"/>
      <use x="146.142578" xlink:href="#DejaVuSans-108"/>
      <use x="173.925781" xlink:href="#DejaVuSans-117"/>
      <use x="237.304688" xlink:href="#DejaVuSans-115"/>
      <use x="289.404297" xlink:href="#DejaVuSans-105"/>
      <use x="317.1875" xlink:href="#DejaVuSans-118"/>
      <use x="376.367188" xlink:href="#DejaVuSans-101"/>
      <use x="437.890625" xlink:href="#DejaVuSans-32"/>
      <use x="469.677734" xlink:href="#DejaVuSans-75"/>
      <use x="535.253906" xlink:href="#DejaVuSans-76"/>
      <use x="590.966797" xlink:href="#DejaVuSans-32"/>
      <use x="622.753906" xlink:href="#DejaVuSans-45"/>
      <use x="658.837891" xlink:href="#DejaVuSans-45"/>
      <use x="694.921875" xlink:href="#DejaVuSans-32"/>
      <use x="726.708984" xlink:href="#DejaVuSans-122"/>
     </g>
    </g>
   </g>
  </g>
  <g id="axes_3">
   <g id="patch_14">
    <path d="M 135 945 
L 972 945 
L 972 705.176471 
L 135 705.176471 
z
" style="fill:#ffffff;"/>
   </g>
   <g id="matplotlib.axis_5">
    <g id="xtick_17">
     <g id="line2d_47">
      <g>
       <use style="stroke:#000000;stroke-width:0.8;" x="173.045455" xlink:href="#m38c5c23810" y="945"/>
      </g>
     </g>
     <g id="text_36">
      <!-- 0 -->
      <g transform="translate(167.319205 965.677187)scale(0.18 -0.18)">
       <use xlink:href="#DejaVuSans-48"/>
      </g>
     </g>
    </g>
    <g id="xtick_18">
     <g id="line2d_48">
      <g>
       <use style="stroke:#000000;stroke-width:0.8;" x="273.165072" xlink:href="#m38c5c23810" y="945"/>
      </g>
     </g>
     <g id="text_37">
      <!-- 20 -->
      <g transform="translate(261.712572 965.677187)scale(0.18 -0.18)">
       <use xlink:href="#DejaVuSans-50"/>
       <use x="63.623047" xlink:href="#DejaVuSans-48"/>
      </g>
     </g>
    </g>
    <g id="xtick_19">
     <g id="line2d_49">
      <g>
       <use style="stroke:#000000;stroke-width:0.8;" x="373.284689" xlink:href="#m38c5c23810" y="945"/>
      </g>
     </g>
     <g id="text_38">
      <!-- 40 -->
      <g transform="translate(361.832189 965.677187)scale(0.18 -0.18)">
       <use xlink:href="#DejaVuSans-52"/>
       <use x="63.623047" xlink:href="#DejaVuSans-48"/>
      </g>
     </g>
    </g>
    <g id="xtick_20">
     <g id="line2d_50">
      <g>
       <use style="stroke:#000000;stroke-width:0.8;" x="473.404306" xlink:href="#m38c5c23810" y="945"/>
      </g>
     </g>
     <g id="text_39">
      <!-- 60 -->
      <g transform="translate(461.951806 965.677187)scale(0.18 -0.18)">
       <use xlink:href="#DejaVuSans-54"/>
       <use x="63.623047" xlink:href="#DejaVuSans-48"/>
      </g>
     </g>
    </g>
    <g id="xtick_21">
     <g id="line2d_51">
      <g>
       <use style="stroke:#000000;stroke-width:0.8;" x="573.523923" xlink:href="#m38c5c23810" y="945"/>
      </g>
     </g>
     <g id="text_40">
      <!-- 80 -->
      <g transform="translate(562.071423 965.677187)scale(0.18 -0.18)">
       <use xlink:href="#DejaVuSans-56"/>
       <use x="63.623047" xlink:href="#DejaVuSans-48"/>
      </g>
     </g>
    </g>
    <g id="xtick_22">
     <g id="line2d_52">
      <g>
       <use style="stroke:#000000;stroke-width:0.8;" x="673.643541" xlink:href="#m38c5c23810" y="945"/>
      </g>
     </g>
     <g id="text_41">
      <!-- 100 -->
      <g transform="translate(656.464791 965.677187)scale(0.18 -0.18)">
       <use xlink:href="#DejaVuSans-49"/>
       <use x="63.623047" xlink:href="#DejaVuSans-48"/>
       <use x="127.246094" xlink:href="#DejaVuSans-48"/>
      </g>
     </g>
    </g>
    <g id="xtick_23">
     <g id="line2d_53">
      <g>
       <use style="stroke:#000000;stroke-width:0.8;" x="773.763158" xlink:href="#m38c5c23810" y="945"/>
      </g>
     </g>
     <g id="text_42">
      <!-- 120 -->
      <g transform="translate(756.584408 965.677187)scale(0.18 -0.18)">
       <use xlink:href="#DejaVuSans-49"/>
       <use x="63.623047" xlink:href="#DejaVuSans-50"/>
       <use x="127.246094" xlink:href="#DejaVuSans-48"/>
      </g>
     </g>
    </g>
    <g id="xtick_24">
     <g id="line2d_54">
      <g>
       <use style="stroke:#000000;stroke-width:0.8;" x="873.882775" xlink:href="#m38c5c23810" y="945"/>
      </g>
     </g>
     <g id="text_43">
      <!-- 140 -->
      <g transform="translate(856.704025 965.677187)scale(0.18 -0.18)">
       <use xlink:href="#DejaVuSans-49"/>
       <use x="63.623047" xlink:href="#DejaVuSans-52"/>
       <use x="127.246094" xlink:href="#DejaVuSans-48"/>
      </g>
     </g>
    </g>
   </g>
   <g id="matplotlib.axis_6">
    <g id="ytick_13">
     <g id="line2d_55">
      <g>
       <use style="stroke:#000000;stroke-width:0.8;" x="135" xlink:href="#m36c541aada" y="910.95011"/>
      </g>
     </g>
     <g id="text_44">
      <!-- 0.11 -->
      <g transform="translate(87.921875 917.788704)scale(0.18 -0.18)">
       <use xlink:href="#DejaVuSans-48"/>
       <use x="63.623047" xlink:href="#DejaVuSans-46"/>
       <use x="95.410156" xlink:href="#DejaVuSans-49"/>
       <use x="159.033203" xlink:href="#DejaVuSans-49"/>
      </g>
     </g>
    </g>
    <g id="ytick_14">
     <g id="line2d_56">
      <g>
       <use style="stroke:#000000;stroke-width:0.8;" x="135" xlink:href="#m36c541aada" y="867.217036"/>
      </g>
     </g>
     <g id="text_45">
      <!-- 0.12 -->
      <g transform="translate(87.921875 874.05563)scale(0.18 -0.18)">
       <use xlink:href="#DejaVuSans-48"/>
       <use x="63.623047" xlink:href="#DejaVuSans-46"/>
       <use x="95.410156" xlink:href="#DejaVuSans-49"/>
       <use x="159.033203" xlink:href="#DejaVuSans-50"/>
      </g>
     </g>
    </g>
    <g id="ytick_15">
     <g id="line2d_57">
      <g>
       <use style="stroke:#000000;stroke-width:0.8;" x="135" xlink:href="#m36c541aada" y="823.483962"/>
      </g>
     </g>
     <g id="text_46">
      <!-- 0.13 -->
      <g transform="translate(87.921875 830.322556)scale(0.18 -0.18)">
       <use xlink:href="#DejaVuSans-48"/>
       <use x="63.623047" xlink:href="#DejaVuSans-46"/>
       <use x="95.410156" xlink:href="#DejaVuSans-49"/>
       <use x="159.033203" xlink:href="#DejaVuSans-51"/>
      </g>
     </g>
    </g>
    <g id="ytick_16">
     <g id="line2d_58">
      <g>
       <use style="stroke:#000000;stroke-width:0.8;" x="135" xlink:href="#m36c541aada" y="779.750888"/>
      </g>
     </g>
     <g id="text_47">
      <!-- 0.14 -->
      <g transform="translate(87.921875 786.589482)scale(0.18 -0.18)">
       <use xlink:href="#DejaVuSans-48"/>
       <use x="63.623047" xlink:href="#DejaVuSans-46"/>
       <use x="95.410156" xlink:href="#DejaVuSans-49"/>
       <use x="159.033203" xlink:href="#DejaVuSans-52"/>
      </g>
     </g>
    </g>
    <g id="ytick_17">
     <g id="line2d_59">
      <g>
       <use style="stroke:#000000;stroke-width:0.8;" x="135" xlink:href="#m36c541aada" y="736.017815"/>
      </g>
     </g>
     <g id="text_48">
      <!-- 0.15 -->
      <g transform="translate(87.921875 742.856408)scale(0.18 -0.18)">
       <use xlink:href="#DejaVuSans-48"/>
       <use x="63.623047" xlink:href="#DejaVuSans-46"/>
       <use x="95.410156" xlink:href="#DejaVuSans-49"/>
       <use x="159.033203" xlink:href="#DejaVuSans-53"/>
      </g>
     </g>
    </g>
   </g>
   <g id="line2d_60">
    <path clip-path="url(#pf7aaf7ece4)" d="M 173.045455 934.09893 
L 178.051435 914.106572 
L 183.057416 888.775576 
L 188.063397 857.86518 
L 193.069378 844.8309 
L 198.075359 832.381732 
L 203.08134 822.292425 
L 208.087321 816.204195 
L 213.093301 816.279926 
L 218.099282 810.036533 
L 223.105263 822.392942 
L 228.111244 820.051867 
L 233.117225 816.052485 
L 238.123206 810.42232 
L 243.129187 808.917701 
L 248.135167 806.455496 
L 253.141148 802.517312 
L 258.147129 800.499282 
L 263.15311 804.80064 
L 268.159091 788.967182 
L 273.165072 790.611975 
L 278.171053 797.984515 
L 283.177033 797.912064 
L 288.183014 792.521359 
L 293.188995 791.187732 
L 298.194976 789.508621 
L 303.200957 791.746296 
L 308.206938 784.413232 
L 313.212919 787.807472 
L 318.2189 780.488167 
L 323.22488 778.955205 
L 328.230861 785.515334 
L 333.236842 774.903013 
L 338.242823 772.927433 
L 343.248804 782.082414 
L 348.254785 775.450034 
L 353.260766 778.149805 
L 358.266746 774.212922 
L 363.272727 777.049369 
L 368.278708 761.236061 
L 373.284689 778.817581 
L 378.29067 781.648017 
L 383.296651 754.624095 
L 388.302632 767.58652 
L 393.308612 766.703554 
L 398.314593 769.13991 
L 403.320574 773.32008 
L 408.326555 770.286323 
L 413.332536 758.623641 
L 418.338517 766.301575 
L 423.344498 760.396137 
L 428.350478 757.773537 
L 433.356459 761.707275 
L 438.36244 754.676039 
L 443.368421 756.835536 
L 448.374402 769.957879 
L 453.380383 760.215466 
L 458.386364 759.941591 
L 463.392344 758.293941 
L 468.398325 750.461486 
L 473.404306 750.912879 
L 478.410287 762.90607 
L 483.416268 754.085883 
L 488.422249 767.807045 
L 493.42823 758.597551 
L 498.434211 766.42727 
L 503.440191 769.461 
L 508.446172 747.201547 
L 513.452153 751.450617 
L 518.458134 757.150411 
L 523.464115 742.321689 
L 528.470096 758.002922 
L 533.476077 755.193535 
L 538.482057 756.396787 
L 543.488038 747.982175 
L 548.494019 748.341317 
L 553.5 757.129167 
L 558.505981 746.996034 
L 563.511962 737.554278 
L 568.517943 741.024736 
L 573.523923 751.772802 
L 578.529904 763.422416 
L 583.535885 739.119562 
L 588.541866 751.161454 
L 593.547847 738.117967 
L 598.553828 748.011059 
L 603.559809 751.607481 
L 608.565789 748.553903 
L 613.57177 754.881201 
L 618.577751 744.729924 
L 623.583732 739.741063 
L 628.589713 752.195128 
L 633.595694 742.571512 
L 638.601675 755.406681 
L 643.607656 752.60038 
L 648.613636 747.367147 
L 653.619617 737.586609 
L 658.625598 742.717831 
L 663.631579 744.861874 
L 668.63756 740.509188 
L 673.643541 743.449121 
L 678.649522 736.412669 
L 683.655502 743.100937 
L 688.661483 735.632365 
L 693.667464 738.026194 
L 698.673445 751.616959 
L 703.679426 735.233812 
L 708.685407 745.204069 
L 713.691388 747.169027 
L 718.697368 747.602435 
L 723.703349 738.320896 
L 728.70933 745.24848 
L 733.715311 725.359545 
L 738.721292 750.480022 
L 743.727273 746.052256 
L 748.733254 747.775669 
L 753.739234 752.429629 
L 758.745215 744.484793 
L 763.751196 735.664885 
L 768.757177 740.794204 
L 773.763158 727.112149 
L 778.769139 734.744224 
L 783.77512 749.629155 
L 788.7811 743.823861 
L 793.787081 739.830074 
L 798.793062 732.394979 
L 803.799043 734.209579 
L 808.805024 740.899239 
L 813.811005 734.230365 
L 818.816986 738.764585 
L 823.822967 753.586966 
L 828.828947 728.289297 
L 833.834928 745.619048 
L 838.840909 738.455284 
L 843.84689 723.271932 
L 848.852871 716.07754 
L 853.858852 732.81541 
L 858.864833 733.577291 
L 863.870813 743.421378 
L 868.876794 737.399903 
L 873.882775 735.381489 
L 878.888756 726.21781 
L 883.894737 740.098502 
L 888.900718 721.917372 
L 893.906699 736.690617 
L 898.912679 736.298222 
L 903.91866 739.701961 
L 908.924641 746.055277 
L 913.930622 733.490014 
L 918.936603 722.986 
L 923.942584 730.841522 
L 928.948565 742.411904 
L 933.954545 737.417776 
L 933.954545 737.417776 
" style="fill:none;stroke:#bf00bf;stroke-linecap:square;stroke-width:1.5;"/>
   </g>
   <g id="patch_15">
    <path d="M 135 945 
L 135 705.176471 
" style="fill:none;stroke:#000000;stroke-linecap:square;stroke-linejoin:miter;stroke-width:0.8;"/>
   </g>
   <g id="patch_16">
    <path d="M 972 945 
L 972 705.176471 
" style="fill:none;stroke:#000000;stroke-linecap:square;stroke-linejoin:miter;stroke-width:0.8;"/>
   </g>
   <g id="patch_17">
    <path d="M 135 945 
L 972 945 
" style="fill:none;stroke:#000000;stroke-linecap:square;stroke-linejoin:miter;stroke-width:0.8;"/>
   </g>
   <g id="patch_18">
    <path d="M 135 705.176471 
L 972 705.176471 
" style="fill:none;stroke:#000000;stroke-linecap:square;stroke-linejoin:miter;stroke-width:0.8;"/>
   </g>
   <g id="legend_3">
    <g id="patch_19">
     <path d="M 142 727.854596 
L 193.015625 727.854596 
Q 195.015625 727.854596 195.015625 725.854596 
L 195.015625 712.176471 
Q 195.015625 710.176471 193.015625 710.176471 
L 142 710.176471 
Q 140 710.176471 140 712.176471 
L 140 725.854596 
Q 140 727.854596 142 727.854596 
z
" style="fill:#ffffff;opacity:0.8;stroke:#cccccc;stroke-linejoin:miter;"/>
    </g>
    <g id="line2d_61">
     <path d="M 144 718.274908 
L 164 718.274908 
" style="fill:none;stroke:#bf00bf;stroke-linecap:square;stroke-width:1.5;"/>
    </g>
    <g id="line2d_62"/>
    <g id="text_49">
     <!-- ESS -->
     <defs>
      <path d="M 53.515625 70.515625 
L 53.515625 60.890625 
Q 47.90625 63.578125 42.921875 64.890625 
Q 37.9375 66.21875 33.296875 66.21875 
Q 25.25 66.21875 20.875 63.09375 
Q 16.5 59.96875 16.5 54.203125 
Q 16.5 49.359375 19.40625 46.890625 
Q 22.3125 44.4375 30.421875 42.921875 
L 36.375 41.703125 
Q 47.40625 39.59375 52.65625 34.296875 
Q 57.90625 29 57.90625 20.125 
Q 57.90625 9.515625 50.796875 4.046875 
Q 43.703125 -1.421875 29.984375 -1.421875 
Q 24.8125 -1.421875 18.96875 -0.25 
Q 13.140625 0.921875 6.890625 3.21875 
L 6.890625 13.375 
Q 12.890625 10.015625 18.65625 8.296875 
Q 24.421875 6.59375 29.984375 6.59375 
Q 38.421875 6.59375 43.015625 9.90625 
Q 47.609375 13.234375 47.609375 19.390625 
Q 47.609375 24.75 44.3125 27.78125 
Q 41.015625 30.8125 33.5 32.328125 
L 27.484375 33.5 
Q 16.453125 35.6875 11.515625 40.375 
Q 6.59375 45.0625 6.59375 53.421875 
Q 6.59375 63.09375 13.40625 68.65625 
Q 20.21875 74.21875 32.171875 74.21875 
Q 37.3125 74.21875 42.625 73.28125 
Q 47.953125 72.359375 53.515625 70.515625 
z
" id="DejaVuSans-83"/>
     </defs>
     <g transform="translate(172 721.774908)scale(0.1 -0.1)">
      <use xlink:href="#DejaVuSans-69"/>
      <use x="63.183594" xlink:href="#DejaVuSans-83"/>
      <use x="126.660156" xlink:href="#DejaVuSans-83"/>
     </g>
    </g>
   </g>
  </g>
 </g>
 <defs>
  <clipPath id="pc72708b45a">
   <rect height="239.823529" width="837" x="135" y="129.6"/>
  </clipPath>
  <clipPath id="p5fe07ae640">
   <rect height="239.823529" width="837" x="135" y="417.388235"/>
  </clipPath>
  <clipPath id="pf7aaf7ece4">
   <rect height="239.823529" width="837" x="135" y="705.176471"/>
  </clipPath>
 </defs>
</svg>
