<?xml version="1.0" encoding="utf-8" standalone="no"?>
<!DOCTYPE svg PUBLIC "-//W3C//DTD SVG 1.1//EN"
  "http://www.w3.org/Graphics/SVG/1.1/DTD/svg11.dtd">
<!-- Created with matplotlib (https://matplotlib.org/) -->
<svg height="576pt" version="1.1" viewBox="0 0 1440 576" width="1440pt" xmlns="http://www.w3.org/2000/svg" xmlns:xlink="http://www.w3.org/1999/xlink">
 <defs>
  <style type="text/css">
*{stroke-linecap:butt;stroke-linejoin:round;}
  </style>
 </defs>
 <g id="figure_1">
  <g id="patch_1">
   <path d="M 0 576 
L 1440 576 
L 1440 0 
L 0 0 
z
" style="fill:#ffffff;"/>
  </g>
  <g id="axes_1">
   <g id="patch_2">
    <path d="M 180 504 
L 1296 504 
L 1296 69.12 
L 180 69.12 
z
" style="fill:#ffffff;"/>
   </g>
   <g id="PolyCollection_1">
    <defs>
     <path d="M 230.727273 -100.592569 
L 230.727273 -97.802983 
L 264.545455 -246.897332 
L 298.363636 -341.394966 
L 332.181818 -392.394385 
L 366 -424.907832 
L 399.818182 -447.636295 
L 433.636364 -461.876075 
L 467.454545 -469.675203 
L 501.272727 -475.481598 
L 535.090909 -479.495498 
L 568.909091 -480.662866 
L 602.727273 -481.500337 
L 636.545455 -481.91111 
L 670.363636 -482.58518 
L 704.181818 -482.958753 
L 738 -483.118051 
L 771.818182 -483.23854 
L 805.636364 -482.903575 
L 839.454545 -482.989036 
L 873.272727 -482.565555 
L 907.090909 -482.628252 
L 940.909091 -482.439717 
L 974.727273 -482.982842 
L 1008.545455 -483.430011 
L 1042.363636 -482.855476 
L 1076.181818 -483.051291 
L 1110 -483.573343 
L 1143.818182 -483.660452 
L 1177.636364 -483.508956 
L 1211.454545 -483.538194 
L 1245.272727 -483.513501 
L 1245.272727 -488.757507 
L 1245.272727 -488.757507 
L 1211.454545 -488.74142 
L 1177.636364 -488.53539 
L 1143.818182 -488.504222 
L 1110 -488.567684 
L 1076.181818 -488.56515 
L 1042.363636 -488.558193 
L 1008.545455 -488.413574 
L 974.727273 -488.917931 
L 940.909091 -489.321263 
L 907.090909 -489.137473 
L 873.272727 -489.248592 
L 839.454545 -488.895651 
L 805.636364 -488.323167 
L 771.818182 -488.490026 
L 738 -488.486969 
L 704.181818 -488.327993 
L 670.363636 -488.53901 
L 636.545455 -488.152246 
L 602.727273 -487.548595 
L 568.909091 -486.836922 
L 535.090909 -486.140169 
L 501.272727 -485.341587 
L 467.454545 -482.25657 
L 433.636364 -476.815744 
L 399.818182 -467.615911 
L 366 -450.389645 
L 332.181818 -424.757583 
L 298.363636 -384.416453 
L 264.545455 -290.879031 
L 230.727273 -100.592569 
z
" id="m8cb6e4854e" style="stroke:#0077bb;stroke-opacity:0.1;"/>
    </defs>
    <g clip-path="url(#p23de6d729a)">
     <use style="fill:#0077bb;fill-opacity:0.1;stroke:#0077bb;stroke-opacity:0.1;" x="0" xlink:href="#m8cb6e4854e" y="576"/>
    </g>
   </g>
   <g id="PolyCollection_2">
    <defs>
     <path d="M 230.727273 -101.987361 
L 230.727273 -96.40819 
L 264.545455 -157.66896 
L 298.363636 -247.778639 
L 332.181818 -334.364457 
L 366 -388.188933 
L 399.818182 -421.919536 
L 433.636364 -443.439208 
L 467.454545 -457.743978 
L 501.272727 -466.318644 
L 535.090909 -471.633833 
L 568.909091 -475.551093 
L 602.727273 -477.363173 
L 636.545455 -478.358012 
L 670.363636 -479.075516 
L 704.181818 -479.606175 
L 738 -479.660346 
L 771.818182 -479.768449 
L 805.636364 -480.253381 
L 839.454545 -480.188873 
L 873.272727 -479.906351 
L 907.090909 -480.016827 
L 940.909091 -480.698981 
L 974.727273 -480.710322 
L 1008.545455 -480.145439 
L 1042.363636 -480.655949 
L 1076.181818 -480.041962 
L 1110 -479.790849 
L 1143.818182 -480.411754 
L 1177.636364 -480.160159 
L 1211.454545 -480.690736 
L 1245.272727 -480.654662 
L 1245.272727 -485.682785 
L 1245.272727 -485.682785 
L 1211.454545 -485.507481 
L 1177.636364 -486.222975 
L 1143.818182 -485.799976 
L 1110 -486.080648 
L 1076.181818 -485.812886 
L 1042.363636 -485.590046 
L 1008.545455 -485.60018 
L 974.727273 -485.239518 
L 940.909091 -485.644821 
L 907.090909 -486.070956 
L 873.272727 -485.899191 
L 839.454545 -485.624551 
L 805.636364 -485.563503 
L 771.818182 -485.814213 
L 738 -485.814615 
L 704.181818 -486.152716 
L 670.363636 -485.518058 
L 636.545455 -485.370423 
L 602.727273 -484.314696 
L 568.909091 -482.772148 
L 535.090909 -481.256222 
L 501.272727 -476.881056 
L 467.454545 -469.731989 
L 433.636364 -457.623127 
L 399.818182 -435.520556 
L 366 -401.004521 
L 332.181818 -349.729136 
L 298.363636 -272.121919 
L 264.545455 -175.361055 
L 230.727273 -101.987361 
z
" id="m75a808ae05" style="stroke:#009988;stroke-opacity:0.1;"/>
    </defs>
    <g clip-path="url(#p23de6d729a)">
     <use style="fill:#009988;fill-opacity:0.1;stroke:#009988;stroke-opacity:0.1;" x="0" xlink:href="#m75a808ae05" y="576"/>
    </g>
   </g>
   <g id="PolyCollection_3">
    <defs>
     <path d="M 230.727273 -99.161822 
L 230.727273 -97.114314 
L 264.545455 55.602185 
L 298.363636 -144.915466 
L 332.181818 -223.271998 
L 366 -280.086097 
L 399.818182 -237.11295 
L 433.636364 -259.806384 
L 467.454545 -287.086121 
L 501.272727 -268.005507 
L 535.090909 -285.887425 
L 568.909091 -267.132565 
L 602.727273 -264.04047 
L 636.545455 -252.529911 
L 670.363636 -217.127382 
L 704.181818 -258.66005 
L 738 -222.007588 
L 771.818182 -226.187864 
L 805.636364 -272.345765 
L 839.454545 -230.995761 
L 873.272727 -263.879684 
L 907.090909 -267.538592 
L 940.909091 -264.355849 
L 974.727273 -267.304451 
L 1008.545455 -284.430537 
L 1042.363636 -276.575025 
L 1076.181818 -264.246379 
L 1110 -298.305593 
L 1143.818182 -296.192773 
L 1177.636364 -263.176054 
L 1211.454545 -287.961878 
L 1245.272727 -279.344824 
L 1245.272727 -328.558223 
L 1245.272727 -328.558223 
L 1211.454545 -395.391086 
L 1177.636364 -360.77262 
L 1143.818182 -390.97333 
L 1110 -397.18165 
L 1076.181818 -369.177813 
L 1042.363636 -349.576715 
L 1008.545455 -391.682631 
L 974.727273 -383.603353 
L 940.909091 -381.015736 
L 907.090909 -342.435933 
L 873.272727 -343.4843 
L 839.454545 -384.82626 
L 805.636364 -355.879544 
L 771.818182 -329.379366 
L 738 -356.361178 
L 704.181818 -367.40611 
L 670.363636 -380.036381 
L 636.545455 -303.987558 
L 602.727273 -340.308876 
L 568.909091 -353.377588 
L 535.090909 -351.996308 
L 501.272727 -354.780585 
L 467.454545 -362.650414 
L 433.636364 -372.057725 
L 399.818182 -313.911732 
L 366 -353.900163 
L 332.181818 -349.511001 
L 298.363636 -322.91744 
L 264.545455 -250.244078 
L 230.727273 -99.161822 
z
" id="m089d9d45fc" style="stroke:#555555;stroke-opacity:0.1;"/>
    </defs>
    <g clip-path="url(#p23de6d729a)">
     <use style="fill:#555555;fill-opacity:0.1;stroke:#555555;stroke-opacity:0.1;" x="0" xlink:href="#m089d9d45fc" y="576"/>
    </g>
   </g>
   <g id="PolyCollection_4">
    <defs>
     <path d="M 230.727273 -102.399421 
L 230.727273 -97.31974 
L 264.545455 -102.18941 
L 298.363636 -103.075945 
L 332.181818 -104.048061 
L 366 -104.958726 
L 399.818182 -106.534815 
L 433.636364 -108.186834 
L 467.454545 -109.715467 
L 501.272727 -110.638439 
L 535.090909 -112.066853 
L 568.909091 -113.803004 
L 602.727273 -114.293245 
L 636.545455 -116.896869 
L 670.363636 -117.972502 
L 704.181818 -118.756807 
L 738 -120.949658 
L 771.818182 -121.994969 
L 805.636364 -123.500196 
L 839.454545 -125.311633 
L 873.272727 -127.277422 
L 907.090909 -127.905123 
L 940.909091 -130.518801 
L 974.727273 -132.069553 
L 1008.545455 -133.165295 
L 1042.363636 -135.234199 
L 1076.181818 -137.066951 
L 1110 -137.639073 
L 1143.818182 -140.471047 
L 1177.636364 -140.862354 
L 1211.454545 -143.049495 
L 1245.272727 -145.842861 
L 1245.272727 -159.372536 
L 1245.272727 -159.372536 
L 1211.454545 -157.965035 
L 1177.636364 -155.479969 
L 1143.818182 -152.652339 
L 1110 -151.456538 
L 1076.181818 -148.5829 
L 1042.363636 -146.811438 
L 1008.545455 -145.766932 
L 974.727273 -143.946486 
L 940.909091 -141.510807 
L 907.090909 -140.53845 
L 873.272727 -138.32557 
L 839.454545 -136.044966 
L 805.636364 -134.657573 
L 771.818182 -132.082905 
L 738 -130.835064 
L 704.181818 -128.423273 
L 670.363636 -126.016631 
L 636.545455 -124.353995 
L 602.727273 -123.617709 
L 568.909091 -120.913302 
L 535.090909 -119.145943 
L 501.272727 -117.919416 
L 467.454545 -116.779758 
L 433.636364 -114.610876 
L 399.818182 -112.925397 
L 366 -111.261957 
L 332.181818 -109.319173 
L 298.363636 -108.183455 
L 264.545455 -106.141095 
L 230.727273 -102.399421 
z
" id="mded8eb188c" style="stroke:#999933;stroke-opacity:0.1;"/>
    </defs>
    <g clip-path="url(#p23de6d729a)">
     <use style="fill:#999933;fill-opacity:0.1;stroke:#999933;stroke-opacity:0.1;" x="0" xlink:href="#mded8eb188c" y="576"/>
    </g>
   </g>
   <g id="PolyCollection_5">
    <defs>
     <path d="M 230.727273 -101.987361 
L 230.727273 -96.40819 
L 264.545455 -119.948506 
L 298.363636 -148.063301 
L 332.181818 -180.897436 
L 366 -212.590384 
L 399.818182 -248.428057 
L 433.636364 -282.822194 
L 467.454545 -317.968061 
L 501.272727 -350.225168 
L 535.090909 -377.647996 
L 568.909091 -401.149261 
L 602.727273 -421.796112 
L 636.545455 -435.993584 
L 670.363636 -448.170492 
L 704.181818 -455.629469 
L 738 -461.66916 
L 771.818182 -466.707177 
L 805.636364 -470.86827 
L 839.454545 -474.221732 
L 873.272727 -475.755112 
L 907.090909 -477.898215 
L 940.909091 -478.725551 
L 974.727273 -479.697949 
L 1008.545455 -480.985082 
L 1042.363636 -482.171915 
L 1076.181818 -482.256048 
L 1110 -482.412289 
L 1143.818182 -482.584658 
L 1177.636364 -483.321466 
L 1211.454545 -483.572378 
L 1245.272727 -483.499867 
L 1245.272727 -486.455065 
L 1245.272727 -486.455065 
L 1211.454545 -486.40958 
L 1177.636364 -485.790525 
L 1143.818182 -486.599 
L 1110 -486.310084 
L 1076.181818 -485.644941 
L 1042.363636 -484.95225 
L 1008.545455 -484.449181 
L 974.727273 -484.386885 
L 940.909091 -484.162677 
L 907.090909 -483.50594 
L 873.272727 -482.714195 
L 839.454545 -479.970215 
L 805.636364 -479.129567 
L 771.818182 -476.433566 
L 738 -472.835948 
L 704.181818 -466.785881 
L 670.363636 -458.306206 
L 636.545455 -448.74555 
L 602.727273 -435.680015 
L 568.909091 -420.514689 
L 535.090909 -401.034805 
L 501.272727 -374.531771 
L 467.454545 -345.19793 
L 433.636364 -314.81918 
L 399.818182 -281.398607 
L 366 -247.076296 
L 332.181818 -208.442924 
L 298.363636 -170.905858 
L 264.545455 -133.851391 
L 230.727273 -101.987361 
z
" id="md1a3e4a113" style="stroke:#ee7733;stroke-opacity:0.1;"/>
    </defs>
    <g clip-path="url(#p23de6d729a)">
     <use style="fill:#ee7733;fill-opacity:0.1;stroke:#ee7733;stroke-opacity:0.1;" x="0" xlink:href="#md1a3e4a113" y="576"/>
    </g>
   </g>
   <g id="PolyCollection_6">
    <defs>
     <path d="M 230.727273 -106.303409 
L 230.727273 -92.822476 
L 264.545455 -152.146333 
L 298.363636 -256.367783 
L 332.181818 -338.650825 
L 366 -393.536617 
L 399.818182 -420.715451 
L 433.636364 -446.491006 
L 467.454545 -460.513777 
L 501.272727 -468.105549 
L 535.090909 -472.618296 
L 568.909091 -475.506171 
L 602.727273 -476.510943 
L 636.545455 -476.915482 
L 670.363636 -477.703124 
L 704.181818 -477.754119 
L 738 -478.602046 
L 771.818182 -478.468205 
L 805.636364 -478.580208 
L 839.454545 -479.690509 
L 873.272727 -479.233849 
L 907.090909 -479.912022 
L 940.909091 -479.758395 
L 974.727273 -479.471047 
L 1008.545455 -480.631578 
L 1042.363636 -479.778704 
L 1076.181818 -479.640158 
L 1110 -479.604968 
L 1143.818182 -480.344592 
L 1177.636364 -479.498515 
L 1211.454545 -479.7816 
L 1245.272727 -480.368159 
L 1245.272727 -488.48331 
L 1245.272727 -488.48331 
L 1211.454545 -488.998444 
L 1177.636364 -489.548567 
L 1143.818182 -488.81204 
L 1110 -489.421523 
L 1076.181818 -489.16474 
L 1042.363636 -489.314467 
L 1008.545455 -488.274344 
L 974.727273 -488.977853 
L 940.909091 -488.465293 
L 907.090909 -488.584897 
L 873.272727 -488.853101 
L 839.454545 -488.503981 
L 805.636364 -488.768526 
L 771.818182 -488.789157 
L 738 -488.65612 
L 704.181818 -488.523245 
L 670.363636 -488.04893 
L 636.545455 -487.790136 
L 602.727273 -486.707786 
L 568.909091 -486.11998 
L 535.090909 -484.356079 
L 501.272727 -484.309468 
L 467.454545 -479.63871 
L 433.636364 -474.901232 
L 399.818182 -463.547035 
L 366 -434.494026 
L 332.181818 -391.867265 
L 298.363636 -322.100721 
L 264.545455 -214.012524 
L 230.727273 -106.303409 
z
" id="m9c149e6a30" style="stroke:#aa3377;stroke-opacity:0.1;"/>
    </defs>
    <g clip-path="url(#p23de6d729a)">
     <use style="fill:#aa3377;fill-opacity:0.1;stroke:#aa3377;stroke-opacity:0.1;" x="0" xlink:href="#m9c149e6a30" y="576"/>
    </g>
   </g>
   <g id="matplotlib.axis_1">
    <g id="xtick_1">
     <g id="line2d_1">
      <path clip-path="url(#p23de6d729a)" d="M 230.727273 504 
L 230.727273 69.12 
" style="fill:none;stroke:#b0b0b0;stroke-linecap:square;stroke-opacity:0.4;stroke-width:0.8;"/>
     </g>
     <g id="line2d_2">
      <defs>
       <path d="M 0 0 
L 0 3.5 
" id="m7ca1f9fc49" style="stroke:#000000;stroke-width:0.8;"/>
      </defs>
      <g>
       <use style="stroke:#000000;stroke-width:0.8;" x="230.727273" xlink:href="#m7ca1f9fc49" y="504"/>
      </g>
     </g>
     <g id="text_1">
      <!-- 0 -->
      <defs>
       <path d="M 31.78125 66.40625 
Q 24.171875 66.40625 20.328125 58.90625 
Q 16.5 51.421875 16.5 36.375 
Q 16.5 21.390625 20.328125 13.890625 
Q 24.171875 6.390625 31.78125 6.390625 
Q 39.453125 6.390625 43.28125 13.890625 
Q 47.125 21.390625 47.125 36.375 
Q 47.125 51.421875 43.28125 58.90625 
Q 39.453125 66.40625 31.78125 66.40625 
z
M 31.78125 74.21875 
Q 44.046875 74.21875 50.515625 64.515625 
Q 56.984375 54.828125 56.984375 36.375 
Q 56.984375 17.96875 50.515625 8.265625 
Q 44.046875 -1.421875 31.78125 -1.421875 
Q 19.53125 -1.421875 13.0625 8.265625 
Q 6.59375 17.96875 6.59375 36.375 
Q 6.59375 54.828125 13.0625 64.515625 
Q 19.53125 74.21875 31.78125 74.21875 
z
" id="DejaVuSans-48"/>
      </defs>
      <g transform="translate(222.774148 529.996094)scale(0.25 -0.25)">
       <use xlink:href="#DejaVuSans-48"/>
      </g>
     </g>
    </g>
    <g id="xtick_2">
     <g id="line2d_3">
      <path clip-path="url(#p23de6d729a)" d="M 399.818182 504 
L 399.818182 69.12 
" style="fill:none;stroke:#b0b0b0;stroke-linecap:square;stroke-opacity:0.4;stroke-width:0.8;"/>
     </g>
     <g id="line2d_4">
      <g>
       <use style="stroke:#000000;stroke-width:0.8;" x="399.818182" xlink:href="#m7ca1f9fc49" y="504"/>
      </g>
     </g>
     <g id="text_2">
      <!-- 5 -->
      <defs>
       <path d="M 10.796875 72.90625 
L 49.515625 72.90625 
L 49.515625 64.59375 
L 19.828125 64.59375 
L 19.828125 46.734375 
Q 21.96875 47.46875 24.109375 47.828125 
Q 26.265625 48.1875 28.421875 48.1875 
Q 40.625 48.1875 47.75 41.5 
Q 54.890625 34.8125 54.890625 23.390625 
Q 54.890625 11.625 47.5625 5.09375 
Q 40.234375 -1.421875 26.90625 -1.421875 
Q 22.3125 -1.421875 17.546875 -0.640625 
Q 12.796875 0.140625 7.71875 1.703125 
L 7.71875 11.625 
Q 12.109375 9.234375 16.796875 8.0625 
Q 21.484375 6.890625 26.703125 6.890625 
Q 35.15625 6.890625 40.078125 11.328125 
Q 45.015625 15.765625 45.015625 23.390625 
Q 45.015625 31 40.078125 35.4375 
Q 35.15625 39.890625 26.703125 39.890625 
Q 22.75 39.890625 18.8125 39.015625 
Q 14.890625 38.140625 10.796875 36.28125 
z
" id="DejaVuSans-53"/>
      </defs>
      <g transform="translate(391.865057 529.996094)scale(0.25 -0.25)">
       <use xlink:href="#DejaVuSans-53"/>
      </g>
     </g>
    </g>
    <g id="xtick_3">
     <g id="line2d_5">
      <path clip-path="url(#p23de6d729a)" d="M 568.909091 504 
L 568.909091 69.12 
" style="fill:none;stroke:#b0b0b0;stroke-linecap:square;stroke-opacity:0.4;stroke-width:0.8;"/>
     </g>
     <g id="line2d_6">
      <g>
       <use style="stroke:#000000;stroke-width:0.8;" x="568.909091" xlink:href="#m7ca1f9fc49" y="504"/>
      </g>
     </g>
     <g id="text_3">
      <!-- 10 -->
      <defs>
       <path d="M 12.40625 8.296875 
L 28.515625 8.296875 
L 28.515625 63.921875 
L 10.984375 60.40625 
L 10.984375 69.390625 
L 28.421875 72.90625 
L 38.28125 72.90625 
L 38.28125 8.296875 
L 54.390625 8.296875 
L 54.390625 0 
L 12.40625 0 
z
" id="DejaVuSans-49"/>
      </defs>
      <g transform="translate(553.002841 529.996094)scale(0.25 -0.25)">
       <use xlink:href="#DejaVuSans-49"/>
       <use x="63.623047" xlink:href="#DejaVuSans-48"/>
      </g>
     </g>
    </g>
    <g id="xtick_4">
     <g id="line2d_7">
      <path clip-path="url(#p23de6d729a)" d="M 738 504 
L 738 69.12 
" style="fill:none;stroke:#b0b0b0;stroke-linecap:square;stroke-opacity:0.4;stroke-width:0.8;"/>
     </g>
     <g id="line2d_8">
      <g>
       <use style="stroke:#000000;stroke-width:0.8;" x="738" xlink:href="#m7ca1f9fc49" y="504"/>
      </g>
     </g>
     <g id="text_4">
      <!-- 15 -->
      <g transform="translate(722.09375 529.996094)scale(0.25 -0.25)">
       <use xlink:href="#DejaVuSans-49"/>
       <use x="63.623047" xlink:href="#DejaVuSans-53"/>
      </g>
     </g>
    </g>
    <g id="xtick_5">
     <g id="line2d_9">
      <path clip-path="url(#p23de6d729a)" d="M 907.090909 504 
L 907.090909 69.12 
" style="fill:none;stroke:#b0b0b0;stroke-linecap:square;stroke-opacity:0.4;stroke-width:0.8;"/>
     </g>
     <g id="line2d_10">
      <g>
       <use style="stroke:#000000;stroke-width:0.8;" x="907.090909" xlink:href="#m7ca1f9fc49" y="504"/>
      </g>
     </g>
     <g id="text_5">
      <!-- 20 -->
      <defs>
       <path d="M 19.1875 8.296875 
L 53.609375 8.296875 
L 53.609375 0 
L 7.328125 0 
L 7.328125 8.296875 
Q 12.9375 14.109375 22.625 23.890625 
Q 32.328125 33.6875 34.8125 36.53125 
Q 39.546875 41.84375 41.421875 45.53125 
Q 43.3125 49.21875 43.3125 52.78125 
Q 43.3125 58.59375 39.234375 62.25 
Q 35.15625 65.921875 28.609375 65.921875 
Q 23.96875 65.921875 18.8125 64.3125 
Q 13.671875 62.703125 7.8125 59.421875 
L 7.8125 69.390625 
Q 13.765625 71.78125 18.9375 73 
Q 24.125 74.21875 28.421875 74.21875 
Q 39.75 74.21875 46.484375 68.546875 
Q 53.21875 62.890625 53.21875 53.421875 
Q 53.21875 48.921875 51.53125 44.890625 
Q 49.859375 40.875 45.40625 35.40625 
Q 44.1875 33.984375 37.640625 27.21875 
Q 31.109375 20.453125 19.1875 8.296875 
z
" id="DejaVuSans-50"/>
      </defs>
      <g transform="translate(891.184659 529.996094)scale(0.25 -0.25)">
       <use xlink:href="#DejaVuSans-50"/>
       <use x="63.623047" xlink:href="#DejaVuSans-48"/>
      </g>
     </g>
    </g>
    <g id="xtick_6">
     <g id="line2d_11">
      <path clip-path="url(#p23de6d729a)" d="M 1076.181818 504 
L 1076.181818 69.12 
" style="fill:none;stroke:#b0b0b0;stroke-linecap:square;stroke-opacity:0.4;stroke-width:0.8;"/>
     </g>
     <g id="line2d_12">
      <g>
       <use style="stroke:#000000;stroke-width:0.8;" x="1076.181818" xlink:href="#m7ca1f9fc49" y="504"/>
      </g>
     </g>
     <g id="text_6">
      <!-- 25 -->
      <g transform="translate(1060.275568 529.996094)scale(0.25 -0.25)">
       <use xlink:href="#DejaVuSans-50"/>
       <use x="63.623047" xlink:href="#DejaVuSans-53"/>
      </g>
     </g>
    </g>
    <g id="xtick_7">
     <g id="line2d_13">
      <path clip-path="url(#p23de6d729a)" d="M 1245.272727 504 
L 1245.272727 69.12 
" style="fill:none;stroke:#b0b0b0;stroke-linecap:square;stroke-opacity:0.4;stroke-width:0.8;"/>
     </g>
     <g id="line2d_14">
      <g>
       <use style="stroke:#000000;stroke-width:0.8;" x="1245.272727" xlink:href="#m7ca1f9fc49" y="504"/>
      </g>
     </g>
     <g id="text_7">
      <!-- 30 -->
      <defs>
       <path d="M 40.578125 39.3125 
Q 47.65625 37.796875 51.625 33 
Q 55.609375 28.21875 55.609375 21.1875 
Q 55.609375 10.40625 48.1875 4.484375 
Q 40.765625 -1.421875 27.09375 -1.421875 
Q 22.515625 -1.421875 17.65625 -0.515625 
Q 12.796875 0.390625 7.625 2.203125 
L 7.625 11.71875 
Q 11.71875 9.328125 16.59375 8.109375 
Q 21.484375 6.890625 26.8125 6.890625 
Q 36.078125 6.890625 40.9375 10.546875 
Q 45.796875 14.203125 45.796875 21.1875 
Q 45.796875 27.640625 41.28125 31.265625 
Q 36.765625 34.90625 28.71875 34.90625 
L 20.21875 34.90625 
L 20.21875 43.015625 
L 29.109375 43.015625 
Q 36.375 43.015625 40.234375 45.921875 
Q 44.09375 48.828125 44.09375 54.296875 
Q 44.09375 59.90625 40.109375 62.90625 
Q 36.140625 65.921875 28.71875 65.921875 
Q 24.65625 65.921875 20.015625 65.03125 
Q 15.375 64.15625 9.8125 62.3125 
L 9.8125 71.09375 
Q 15.4375 72.65625 20.34375 73.4375 
Q 25.25 74.21875 29.59375 74.21875 
Q 40.828125 74.21875 47.359375 69.109375 
Q 53.90625 64.015625 53.90625 55.328125 
Q 53.90625 49.265625 50.4375 45.09375 
Q 46.96875 40.921875 40.578125 39.3125 
z
" id="DejaVuSans-51"/>
      </defs>
      <g transform="translate(1229.366477 529.996094)scale(0.25 -0.25)">
       <use xlink:href="#DejaVuSans-51"/>
       <use x="63.623047" xlink:href="#DejaVuSans-48"/>
      </g>
     </g>
    </g>
    <g id="text_8">
     <!-- Sweeps -->
     <defs>
      <path d="M 53.515625 70.515625 
L 53.515625 60.890625 
Q 47.90625 63.578125 42.921875 64.890625 
Q 37.9375 66.21875 33.296875 66.21875 
Q 25.25 66.21875 20.875 63.09375 
Q 16.5 59.96875 16.5 54.203125 
Q 16.5 49.359375 19.40625 46.890625 
Q 22.3125 44.4375 30.421875 42.921875 
L 36.375 41.703125 
Q 47.40625 39.59375 52.65625 34.296875 
Q 57.90625 29 57.90625 20.125 
Q 57.90625 9.515625 50.796875 4.046875 
Q 43.703125 -1.421875 29.984375 -1.421875 
Q 24.8125 -1.421875 18.96875 -0.25 
Q 13.140625 0.921875 6.890625 3.21875 
L 6.890625 13.375 
Q 12.890625 10.015625 18.65625 8.296875 
Q 24.421875 6.59375 29.984375 6.59375 
Q 38.421875 6.59375 43.015625 9.90625 
Q 47.609375 13.234375 47.609375 19.390625 
Q 47.609375 24.75 44.3125 27.78125 
Q 41.015625 30.8125 33.5 32.328125 
L 27.484375 33.5 
Q 16.453125 35.6875 11.515625 40.375 
Q 6.59375 45.0625 6.59375 53.421875 
Q 6.59375 63.09375 13.40625 68.65625 
Q 20.21875 74.21875 32.171875 74.21875 
Q 37.3125 74.21875 42.625 73.28125 
Q 47.953125 72.359375 53.515625 70.515625 
z
" id="DejaVuSans-83"/>
      <path d="M 4.203125 54.6875 
L 13.1875 54.6875 
L 24.421875 12.015625 
L 35.59375 54.6875 
L 46.1875 54.6875 
L 57.421875 12.015625 
L 68.609375 54.6875 
L 77.59375 54.6875 
L 63.28125 0 
L 52.6875 0 
L 40.921875 44.828125 
L 29.109375 0 
L 18.5 0 
z
" id="DejaVuSans-119"/>
      <path d="M 56.203125 29.59375 
L 56.203125 25.203125 
L 14.890625 25.203125 
Q 15.484375 15.921875 20.484375 11.0625 
Q 25.484375 6.203125 34.421875 6.203125 
Q 39.59375 6.203125 44.453125 7.46875 
Q 49.3125 8.734375 54.109375 11.28125 
L 54.109375 2.78125 
Q 49.265625 0.734375 44.1875 -0.34375 
Q 39.109375 -1.421875 33.890625 -1.421875 
Q 20.796875 -1.421875 13.15625 6.1875 
Q 5.515625 13.8125 5.515625 26.8125 
Q 5.515625 40.234375 12.765625 48.109375 
Q 20.015625 56 32.328125 56 
Q 43.359375 56 49.78125 48.890625 
Q 56.203125 41.796875 56.203125 29.59375 
z
M 47.21875 32.234375 
Q 47.125 39.59375 43.09375 43.984375 
Q 39.0625 48.390625 32.421875 48.390625 
Q 24.90625 48.390625 20.390625 44.140625 
Q 15.875 39.890625 15.1875 32.171875 
z
" id="DejaVuSans-101"/>
      <path d="M 18.109375 8.203125 
L 18.109375 -20.796875 
L 9.078125 -20.796875 
L 9.078125 54.6875 
L 18.109375 54.6875 
L 18.109375 46.390625 
Q 20.953125 51.265625 25.265625 53.625 
Q 29.59375 56 35.59375 56 
Q 45.5625 56 51.78125 48.09375 
Q 58.015625 40.1875 58.015625 27.296875 
Q 58.015625 14.40625 51.78125 6.484375 
Q 45.5625 -1.421875 35.59375 -1.421875 
Q 29.59375 -1.421875 25.265625 0.953125 
Q 20.953125 3.328125 18.109375 8.203125 
z
M 48.6875 27.296875 
Q 48.6875 37.203125 44.609375 42.84375 
Q 40.53125 48.484375 33.40625 48.484375 
Q 26.265625 48.484375 22.1875 42.84375 
Q 18.109375 37.203125 18.109375 27.296875 
Q 18.109375 17.390625 22.1875 11.75 
Q 26.265625 6.109375 33.40625 6.109375 
Q 40.53125 6.109375 44.609375 11.75 
Q 48.6875 17.390625 48.6875 27.296875 
z
" id="DejaVuSans-112"/>
      <path d="M 44.28125 53.078125 
L 44.28125 44.578125 
Q 40.484375 46.53125 36.375 47.5 
Q 32.28125 48.484375 27.875 48.484375 
Q 21.1875 48.484375 17.84375 46.4375 
Q 14.5 44.390625 14.5 40.28125 
Q 14.5 37.15625 16.890625 35.375 
Q 19.28125 33.59375 26.515625 31.984375 
L 29.59375 31.296875 
Q 39.15625 29.25 43.1875 25.515625 
Q 47.21875 21.78125 47.21875 15.09375 
Q 47.21875 7.46875 41.1875 3.015625 
Q 35.15625 -1.421875 24.609375 -1.421875 
Q 20.21875 -1.421875 15.453125 -0.5625 
Q 10.6875 0.296875 5.421875 2 
L 5.421875 11.28125 
Q 10.40625 8.6875 15.234375 7.390625 
Q 20.0625 6.109375 24.8125 6.109375 
Q 31.15625 6.109375 34.5625 8.28125 
Q 37.984375 10.453125 37.984375 14.40625 
Q 37.984375 18.0625 35.515625 20.015625 
Q 33.0625 21.96875 24.703125 23.78125 
L 21.578125 24.515625 
Q 13.234375 26.265625 9.515625 29.90625 
Q 5.8125 33.546875 5.8125 39.890625 
Q 5.8125 47.609375 11.28125 51.796875 
Q 16.75 56 26.8125 56 
Q 31.78125 56 36.171875 55.265625 
Q 40.578125 54.546875 44.28125 53.078125 
z
" id="DejaVuSans-115"/>
     </defs>
     <g transform="translate(670.816406 565.789844)scale(0.35 -0.35)">
      <use xlink:href="#DejaVuSans-83"/>
      <use x="63.476562" xlink:href="#DejaVuSans-119"/>
      <use x="145.263672" xlink:href="#DejaVuSans-101"/>
      <use x="206.787109" xlink:href="#DejaVuSans-101"/>
      <use x="268.310547" xlink:href="#DejaVuSans-112"/>
      <use x="331.787109" xlink:href="#DejaVuSans-115"/>
     </g>
    </g>
   </g>
   <g id="matplotlib.axis_2">
    <g id="ytick_1">
     <g id="line2d_15">
      <path clip-path="url(#p23de6d729a)" d="M 180 504 
L 1296 504 
" style="fill:none;stroke:#b0b0b0;stroke-linecap:square;stroke-opacity:0.4;stroke-width:0.8;"/>
     </g>
     <g id="line2d_16">
      <defs>
       <path d="M 0 0 
L -3.5 0 
" id="m0d7b23fc8b" style="stroke:#000000;stroke-width:0.8;"/>
      </defs>
      <g>
       <use style="stroke:#000000;stroke-width:0.8;" x="180" xlink:href="#m0d7b23fc8b" y="504"/>
      </g>
     </g>
     <g id="text_9">
      <!-- −750 -->
      <defs>
       <path d="M 10.59375 35.5 
L 73.1875 35.5 
L 73.1875 27.203125 
L 10.59375 27.203125 
z
" id="DejaVuSans-8722"/>
       <path d="M 8.203125 72.90625 
L 55.078125 72.90625 
L 55.078125 68.703125 
L 28.609375 0 
L 18.3125 0 
L 43.21875 64.59375 
L 8.203125 64.59375 
z
" id="DejaVuSans-55"/>
      </defs>
      <g transform="translate(104.332031 513.498047)scale(0.25 -0.25)">
       <use xlink:href="#DejaVuSans-8722"/>
       <use x="83.789062" xlink:href="#DejaVuSans-55"/>
       <use x="147.412109" xlink:href="#DejaVuSans-53"/>
       <use x="211.035156" xlink:href="#DejaVuSans-48"/>
      </g>
     </g>
    </g>
    <g id="ytick_2">
     <g id="line2d_17">
      <path clip-path="url(#p23de6d729a)" d="M 180 438.109091 
L 1296 438.109091 
" style="fill:none;stroke:#b0b0b0;stroke-linecap:square;stroke-opacity:0.4;stroke-width:0.8;"/>
     </g>
     <g id="line2d_18">
      <g>
       <use style="stroke:#000000;stroke-width:0.8;" x="180" xlink:href="#m0d7b23fc8b" y="438.109091"/>
      </g>
     </g>
     <g id="text_10">
      <!-- −700 -->
      <g transform="translate(104.332031 447.607138)scale(0.25 -0.25)">
       <use xlink:href="#DejaVuSans-8722"/>
       <use x="83.789062" xlink:href="#DejaVuSans-55"/>
       <use x="147.412109" xlink:href="#DejaVuSans-48"/>
       <use x="211.035156" xlink:href="#DejaVuSans-48"/>
      </g>
     </g>
    </g>
    <g id="ytick_3">
     <g id="line2d_19">
      <path clip-path="url(#p23de6d729a)" d="M 180 372.218182 
L 1296 372.218182 
" style="fill:none;stroke:#b0b0b0;stroke-linecap:square;stroke-opacity:0.4;stroke-width:0.8;"/>
     </g>
     <g id="line2d_20">
      <g>
       <use style="stroke:#000000;stroke-width:0.8;" x="180" xlink:href="#m0d7b23fc8b" y="372.218182"/>
      </g>
     </g>
     <g id="text_11">
      <!-- −650 -->
      <defs>
       <path d="M 33.015625 40.375 
Q 26.375 40.375 22.484375 35.828125 
Q 18.609375 31.296875 18.609375 23.390625 
Q 18.609375 15.53125 22.484375 10.953125 
Q 26.375 6.390625 33.015625 6.390625 
Q 39.65625 6.390625 43.53125 10.953125 
Q 47.40625 15.53125 47.40625 23.390625 
Q 47.40625 31.296875 43.53125 35.828125 
Q 39.65625 40.375 33.015625 40.375 
z
M 52.59375 71.296875 
L 52.59375 62.3125 
Q 48.875 64.0625 45.09375 64.984375 
Q 41.3125 65.921875 37.59375 65.921875 
Q 27.828125 65.921875 22.671875 59.328125 
Q 17.53125 52.734375 16.796875 39.40625 
Q 19.671875 43.65625 24.015625 45.921875 
Q 28.375 48.1875 33.59375 48.1875 
Q 44.578125 48.1875 50.953125 41.515625 
Q 57.328125 34.859375 57.328125 23.390625 
Q 57.328125 12.15625 50.6875 5.359375 
Q 44.046875 -1.421875 33.015625 -1.421875 
Q 20.359375 -1.421875 13.671875 8.265625 
Q 6.984375 17.96875 6.984375 36.375 
Q 6.984375 53.65625 15.1875 63.9375 
Q 23.390625 74.21875 37.203125 74.21875 
Q 40.921875 74.21875 44.703125 73.484375 
Q 48.484375 72.75 52.59375 71.296875 
z
" id="DejaVuSans-54"/>
      </defs>
      <g transform="translate(104.332031 381.716229)scale(0.25 -0.25)">
       <use xlink:href="#DejaVuSans-8722"/>
       <use x="83.789062" xlink:href="#DejaVuSans-54"/>
       <use x="147.412109" xlink:href="#DejaVuSans-53"/>
       <use x="211.035156" xlink:href="#DejaVuSans-48"/>
      </g>
     </g>
    </g>
    <g id="ytick_4">
     <g id="line2d_21">
      <path clip-path="url(#p23de6d729a)" d="M 180 306.327273 
L 1296 306.327273 
" style="fill:none;stroke:#b0b0b0;stroke-linecap:square;stroke-opacity:0.4;stroke-width:0.8;"/>
     </g>
     <g id="line2d_22">
      <g>
       <use style="stroke:#000000;stroke-width:0.8;" x="180" xlink:href="#m0d7b23fc8b" y="306.327273"/>
      </g>
     </g>
     <g id="text_12">
      <!-- −600 -->
      <g transform="translate(104.332031 315.82532)scale(0.25 -0.25)">
       <use xlink:href="#DejaVuSans-8722"/>
       <use x="83.789062" xlink:href="#DejaVuSans-54"/>
       <use x="147.412109" xlink:href="#DejaVuSans-48"/>
       <use x="211.035156" xlink:href="#DejaVuSans-48"/>
      </g>
     </g>
    </g>
    <g id="ytick_5">
     <g id="line2d_23">
      <path clip-path="url(#p23de6d729a)" d="M 180 240.436364 
L 1296 240.436364 
" style="fill:none;stroke:#b0b0b0;stroke-linecap:square;stroke-opacity:0.4;stroke-width:0.8;"/>
     </g>
     <g id="line2d_24">
      <g>
       <use style="stroke:#000000;stroke-width:0.8;" x="180" xlink:href="#m0d7b23fc8b" y="240.436364"/>
      </g>
     </g>
     <g id="text_13">
      <!-- −550 -->
      <g transform="translate(104.332031 249.934411)scale(0.25 -0.25)">
       <use xlink:href="#DejaVuSans-8722"/>
       <use x="83.789062" xlink:href="#DejaVuSans-53"/>
       <use x="147.412109" xlink:href="#DejaVuSans-53"/>
       <use x="211.035156" xlink:href="#DejaVuSans-48"/>
      </g>
     </g>
    </g>
    <g id="ytick_6">
     <g id="line2d_25">
      <path clip-path="url(#p23de6d729a)" d="M 180 174.545455 
L 1296 174.545455 
" style="fill:none;stroke:#b0b0b0;stroke-linecap:square;stroke-opacity:0.4;stroke-width:0.8;"/>
     </g>
     <g id="line2d_26">
      <g>
       <use style="stroke:#000000;stroke-width:0.8;" x="180" xlink:href="#m0d7b23fc8b" y="174.545455"/>
      </g>
     </g>
     <g id="text_14">
      <!-- −500 -->
      <g transform="translate(104.332031 184.043501)scale(0.25 -0.25)">
       <use xlink:href="#DejaVuSans-8722"/>
       <use x="83.789062" xlink:href="#DejaVuSans-53"/>
       <use x="147.412109" xlink:href="#DejaVuSans-48"/>
       <use x="211.035156" xlink:href="#DejaVuSans-48"/>
      </g>
     </g>
    </g>
    <g id="ytick_7">
     <g id="line2d_27">
      <path clip-path="url(#p23de6d729a)" d="M 180 108.654545 
L 1296 108.654545 
" style="fill:none;stroke:#b0b0b0;stroke-linecap:square;stroke-opacity:0.4;stroke-width:0.8;"/>
     </g>
     <g id="line2d_28">
      <g>
       <use style="stroke:#000000;stroke-width:0.8;" x="180" xlink:href="#m0d7b23fc8b" y="108.654545"/>
      </g>
     </g>
     <g id="text_15">
      <!-- −450 -->
      <defs>
       <path d="M 37.796875 64.3125 
L 12.890625 25.390625 
L 37.796875 25.390625 
z
M 35.203125 72.90625 
L 47.609375 72.90625 
L 47.609375 25.390625 
L 58.015625 25.390625 
L 58.015625 17.1875 
L 47.609375 17.1875 
L 47.609375 0 
L 37.796875 0 
L 37.796875 17.1875 
L 4.890625 17.1875 
L 4.890625 26.703125 
z
" id="DejaVuSans-52"/>
      </defs>
      <g transform="translate(104.332031 118.152592)scale(0.25 -0.25)">
       <use xlink:href="#DejaVuSans-8722"/>
       <use x="83.789062" xlink:href="#DejaVuSans-52"/>
       <use x="147.412109" xlink:href="#DejaVuSans-53"/>
       <use x="211.035156" xlink:href="#DejaVuSans-48"/>
      </g>
     </g>
    </g>
    <g id="text_16">
     <!-- $\log \: p_\theta(x, z)$ -->
     <defs>
      <path d="M 9.421875 75.984375 
L 18.40625 75.984375 
L 18.40625 0 
L 9.421875 0 
z
" id="DejaVuSans-108"/>
      <path d="M 30.609375 48.390625 
Q 23.390625 48.390625 19.1875 42.75 
Q 14.984375 37.109375 14.984375 27.296875 
Q 14.984375 17.484375 19.15625 11.84375 
Q 23.34375 6.203125 30.609375 6.203125 
Q 37.796875 6.203125 41.984375 11.859375 
Q 46.1875 17.53125 46.1875 27.296875 
Q 46.1875 37.015625 41.984375 42.703125 
Q 37.796875 48.390625 30.609375 48.390625 
z
M 30.609375 56 
Q 42.328125 56 49.015625 48.375 
Q 55.71875 40.765625 55.71875 27.296875 
Q 55.71875 13.875 49.015625 6.21875 
Q 42.328125 -1.421875 30.609375 -1.421875 
Q 18.84375 -1.421875 12.171875 6.21875 
Q 5.515625 13.875 5.515625 27.296875 
Q 5.515625 40.765625 12.171875 48.375 
Q 18.84375 56 30.609375 56 
z
" id="DejaVuSans-111"/>
      <path d="M 45.40625 27.984375 
Q 45.40625 37.75 41.375 43.109375 
Q 37.359375 48.484375 30.078125 48.484375 
Q 22.859375 48.484375 18.828125 43.109375 
Q 14.796875 37.75 14.796875 27.984375 
Q 14.796875 18.265625 18.828125 12.890625 
Q 22.859375 7.515625 30.078125 7.515625 
Q 37.359375 7.515625 41.375 12.890625 
Q 45.40625 18.265625 45.40625 27.984375 
z
M 54.390625 6.78125 
Q 54.390625 -7.171875 48.1875 -13.984375 
Q 42 -20.796875 29.203125 -20.796875 
Q 24.46875 -20.796875 20.265625 -20.09375 
Q 16.0625 -19.390625 12.109375 -17.921875 
L 12.109375 -9.1875 
Q 16.0625 -11.328125 19.921875 -12.34375 
Q 23.78125 -13.375 27.78125 -13.375 
Q 36.625 -13.375 41.015625 -8.765625 
Q 45.40625 -4.15625 45.40625 5.171875 
L 45.40625 9.625 
Q 42.625 4.78125 38.28125 2.390625 
Q 33.9375 0 27.875 0 
Q 17.828125 0 11.671875 7.65625 
Q 5.515625 15.328125 5.515625 27.984375 
Q 5.515625 40.671875 11.671875 48.328125 
Q 17.828125 56 27.875 56 
Q 33.9375 56 38.28125 53.609375 
Q 42.625 51.21875 45.40625 46.390625 
L 45.40625 54.6875 
L 54.390625 54.6875 
z
" id="DejaVuSans-103"/>
      <path d="M 49.609375 33.6875 
Q 49.609375 40.875 46.484375 44.671875 
Q 43.359375 48.484375 37.5 48.484375 
Q 33.5 48.484375 29.859375 46.4375 
Q 26.21875 44.390625 23.390625 40.484375 
Q 20.609375 36.625 18.9375 31.15625 
Q 17.28125 25.6875 17.28125 20.3125 
Q 17.28125 13.484375 20.40625 9.796875 
Q 23.53125 6.109375 29.296875 6.109375 
Q 33.546875 6.109375 37.1875 8.109375 
Q 40.828125 10.109375 43.40625 13.921875 
Q 46.1875 17.921875 47.890625 23.34375 
Q 49.609375 28.765625 49.609375 33.6875 
z
M 21.78125 46.390625 
Q 25.390625 51.125 30.296875 53.5625 
Q 35.203125 56 41.21875 56 
Q 49.609375 56 54.25 50.5 
Q 58.890625 45.015625 58.890625 35.109375 
Q 58.890625 27 56 19.65625 
Q 53.125 12.3125 47.703125 6.5 
Q 44.09375 2.640625 39.546875 0.609375 
Q 35.015625 -1.421875 29.984375 -1.421875 
Q 24.171875 -1.421875 20.21875 1 
Q 16.265625 3.421875 14.3125 8.203125 
L 8.6875 -20.796875 
L -0.296875 -20.796875 
L 14.40625 54.6875 
L 23.390625 54.6875 
z
" id="DejaVuSans-Oblique-112"/>
      <path d="M 45.515625 34.671875 
L 14.453125 34.671875 
Q 12.359375 20.0625 14.5 13.875 
Q 17.1875 6.25 24.46875 6.25 
Q 31.78125 6.25 37.359375 13.921875 
Q 42.234375 20.65625 45.515625 34.671875 
z
M 47.015625 42.96875 
Q 48.34375 56.84375 46.625 61.71875 
Q 43.953125 69.4375 36.765625 69.4375 
Q 29.296875 69.4375 23.828125 61.8125 
Q 19.53125 55.671875 16.15625 42.96875 
z
M 38.1875 76.765625 
Q 49.90625 76.765625 54.59375 66.40625 
Q 59.28125 56.109375 55.71875 37.84375 
Q 52.203125 19.625 43.453125 9.28125 
Q 34.765625 -1.125 23.046875 -1.125 
Q 11.28125 -1.125 6.640625 9.28125 
Q 2 19.625 5.515625 37.84375 
Q 9.078125 56.109375 17.71875 66.40625 
Q 26.421875 76.765625 38.1875 76.765625 
z
" id="DejaVuSans-Oblique-952"/>
      <path d="M 31 75.875 
Q 24.46875 64.65625 21.28125 53.65625 
Q 18.109375 42.671875 18.109375 31.390625 
Q 18.109375 20.125 21.3125 9.0625 
Q 24.515625 -2 31 -13.1875 
L 23.1875 -13.1875 
Q 15.875 -1.703125 12.234375 9.375 
Q 8.59375 20.453125 8.59375 31.390625 
Q 8.59375 42.28125 12.203125 53.3125 
Q 15.828125 64.359375 23.1875 75.875 
z
" id="DejaVuSans-40"/>
      <path d="M 60.015625 54.6875 
L 34.90625 27.875 
L 50.296875 0 
L 39.984375 0 
L 28.421875 21.6875 
L 8.296875 0 
L -2.59375 0 
L 24.3125 28.8125 
L 10.015625 54.6875 
L 20.3125 54.6875 
L 30.8125 34.90625 
L 49.125 54.6875 
z
" id="DejaVuSans-Oblique-120"/>
      <path d="M 11.71875 12.40625 
L 22.015625 12.40625 
L 22.015625 4 
L 14.015625 -11.625 
L 7.71875 -11.625 
L 11.71875 4 
z
" id="DejaVuSans-44"/>
      <path d="M 11.625 54.6875 
L 54.296875 54.6875 
L 52.6875 46.484375 
L 11.53125 7.171875 
L 45.515625 7.171875 
L 44.09375 0 
L -0.296875 0 
L 1.3125 8.203125 
L 42.484375 47.515625 
L 10.203125 47.515625 
z
" id="DejaVuSans-Oblique-122"/>
      <path d="M 8.015625 75.875 
L 15.828125 75.875 
Q 23.140625 64.359375 26.78125 53.3125 
Q 30.421875 42.28125 30.421875 31.390625 
Q 30.421875 20.453125 26.78125 9.375 
Q 23.140625 -1.703125 15.828125 -13.1875 
L 8.015625 -13.1875 
Q 14.5 -2 17.703125 9.0625 
Q 20.90625 20.125 20.90625 31.390625 
Q 20.90625 42.671875 17.703125 53.65625 
Q 14.5 64.65625 8.015625 75.875 
z
" id="DejaVuSans-41"/>
     </defs>
     <g transform="translate(92.982031 378.435)rotate(-90)scale(0.35 -0.35)">
      <use transform="translate(0 0.015625)" xlink:href="#DejaVuSans-108"/>
      <use transform="translate(27.783203 0.015625)" xlink:href="#DejaVuSans-111"/>
      <use transform="translate(88.964844 0.015625)" xlink:href="#DejaVuSans-103"/>
      <use transform="translate(174.088325 0.015625)" xlink:href="#DejaVuSans-Oblique-112"/>
      <use transform="translate(237.564888 -16.390625)scale(0.7)" xlink:href="#DejaVuSans-Oblique-952"/>
      <use transform="translate(283.126411 0.015625)" xlink:href="#DejaVuSans-40"/>
      <use transform="translate(322.140083 0.015625)" xlink:href="#DejaVuSans-Oblique-120"/>
      <use transform="translate(381.319771 0.015625)" xlink:href="#DejaVuSans-44"/>
      <use transform="translate(432.589302 0.015625)" xlink:href="#DejaVuSans-Oblique-122"/>
      <use transform="translate(485.079536 0.015625)" xlink:href="#DejaVuSans-41"/>
     </g>
    </g>
   </g>
   <g id="line2d_29">
    <path clip-path="url(#p23de6d729a)" d="M 230.727273 476.802224 
L 264.545455 307.111819 
L 298.363636 213.094291 
L 332.181818 167.424016 
L 366 138.351261 
L 399.818182 118.373897 
L 433.636364 106.65409 
L 467.454545 100.034113 
L 501.272727 95.588407 
L 535.090909 93.182166 
L 568.909091 92.250106 
L 602.727273 91.475534 
L 636.545455 90.968322 
L 670.363636 90.437905 
L 704.181818 90.356627 
L 738 90.19749 
L 771.818182 90.135717 
L 805.636364 90.386629 
L 839.454545 90.057657 
L 873.272727 90.092927 
L 907.090909 90.117137 
L 940.909091 90.11951 
L 974.727273 90.049613 
L 1008.545455 90.078207 
L 1042.363636 90.293165 
L 1076.181818 90.191779 
L 1110 89.929486 
L 1143.818182 89.917663 
L 1177.636364 89.977827 
L 1211.454545 89.860193 
L 1245.272727 89.864496 
" style="fill:none;stroke:#0077bb;stroke-linecap:square;stroke-width:3;"/>
   </g>
   <g id="line2d_30">
    <path clip-path="url(#p23de6d729a)" d="M 230.727273 476.802224 
L 264.545455 409.484993 
L 298.363636 316.049721 
L 332.181818 233.953203 
L 366 181.403273 
L 399.818182 147.279954 
L 433.636364 125.468832 
L 467.454545 112.262016 
L 501.272727 104.40015 
L 535.090909 99.554972 
L 568.909091 96.83838 
L 602.727273 95.161065 
L 636.545455 94.135783 
L 670.363636 93.703213 
L 704.181818 93.120555 
L 738 93.262519 
L 771.818182 93.208669 
L 805.636364 93.091558 
L 839.454545 93.093288 
L 873.272727 93.097229 
L 907.090909 92.956109 
L 940.909091 92.828099 
L 974.727273 93.02508 
L 1008.545455 93.12719 
L 1042.363636 92.877003 
L 1076.181818 93.072576 
L 1110 93.064251 
L 1143.818182 92.894135 
L 1177.636364 92.808433 
L 1211.454545 92.900891 
L 1245.272727 92.831276 
" style="fill:none;stroke:#009988;stroke-linecap:square;stroke-width:3;"/>
   </g>
   <g id="line2d_31">
    <path clip-path="url(#p23de6d729a)" d="M 230.727273 477.861932 
L 264.545455 478.679053 
L 298.363636 342.083547 
L 332.181818 289.6085 
L 366 259.00687 
L 399.818182 300.487659 
L 433.636364 260.067945 
L 467.454545 251.131732 
L 501.272727 264.606954 
L 535.090909 257.058134 
L 568.909091 265.744923 
L 602.727273 273.825327 
L 636.545455 297.741266 
L 670.363636 277.418119 
L 704.181818 262.96692 
L 738 286.815617 
L 771.818182 298.216385 
L 805.636364 261.887345 
L 839.454545 268.088989 
L 873.272727 272.318008 
L 907.090909 271.012738 
L 940.909091 253.314208 
L 974.727273 250.546098 
L 1008.545455 237.943416 
L 1042.363636 262.92413 
L 1076.181818 259.287904 
L 1110 228.256358 
L 1143.818182 232.416928 
L 1177.636364 264.025663 
L 1211.454545 234.323518 
L 1245.272727 272.048476 
" style="fill:none;stroke:#555555;stroke-linecap:square;stroke-width:3;"/>
   </g>
   <g id="line2d_32">
    <path clip-path="url(#p23de6d729a)" d="M 230.727273 476.14042 
L 264.545455 471.834748 
L 298.363636 470.3703 
L 332.181818 469.316383 
L 366 467.889658 
L 399.818182 466.269894 
L 433.636364 464.601145 
L 467.454545 462.752387 
L 501.272727 461.721072 
L 535.090909 460.393602 
L 568.909091 458.641847 
L 602.727273 457.044523 
L 636.545455 455.374568 
L 670.363636 454.005434 
L 704.181818 452.40996 
L 738 450.107639 
L 771.818182 448.961063 
L 805.636364 446.921115 
L 839.454545 445.3217 
L 873.272727 443.198504 
L 907.090909 441.778214 
L 940.909091 439.985196 
L 974.727273 437.99198 
L 1008.545455 436.533886 
L 1042.363636 434.977181 
L 1076.181818 433.175075 
L 1110 431.452195 
L 1143.818182 429.438307 
L 1177.636364 427.828838 
L 1211.454545 425.492735 
L 1245.272727 423.392302 
" style="fill:none;stroke:#999933;stroke-linecap:square;stroke-width:3;"/>
   </g>
   <g id="line2d_33">
    <path clip-path="url(#p23de6d729a)" d="M 230.727273 476.802224 
L 264.545455 449.100052 
L 298.363636 416.515421 
L 332.181818 381.32982 
L 366 346.16666 
L 399.818182 311.086668 
L 433.636364 277.179313 
L 467.454545 244.417005 
L 501.272727 213.621531 
L 535.090909 186.65862 
L 568.909091 165.168025 
L 602.727273 147.261937 
L 636.545455 133.630433 
L 670.363636 122.761651 
L 704.181818 114.792325 
L 738 108.747446 
L 771.818182 104.429629 
L 805.636364 101.001081 
L 839.454545 98.904026 
L 873.272727 96.765347 
L 907.090909 95.297922 
L 940.909091 94.555886 
L 974.727273 93.957583 
L 1008.545455 93.282869 
L 1042.363636 92.437918 
L 1076.181818 92.049506 
L 1110 91.638813 
L 1143.818182 91.408171 
L 1177.636364 91.444004 
L 1211.454545 91.009021 
L 1245.272727 91.022534 
" style="fill:none;stroke:#ee7733;stroke-linecap:square;stroke-width:3;"/>
   </g>
   <g id="line2d_34">
    <path clip-path="url(#p23de6d729a)" d="M 230.727273 476.437057 
L 264.545455 392.920571 
L 298.363636 286.765748 
L 332.181818 210.740975 
L 366 161.984678 
L 399.818182 133.868757 
L 433.636364 115.303881 
L 467.454545 105.923757 
L 501.272727 99.792492 
L 535.090909 97.512813 
L 568.909091 95.186925 
L 602.727273 94.390636 
L 636.545455 93.647191 
L 670.363636 93.123973 
L 704.181818 92.861318 
L 738 92.370917 
L 771.818182 92.371319 
L 805.636364 92.325633 
L 839.454545 91.902755 
L 873.272727 91.956525 
L 907.090909 91.751541 
L 940.909091 91.888156 
L 974.727273 91.77555 
L 1008.545455 91.547039 
L 1042.363636 91.453415 
L 1076.181818 91.597551 
L 1110 91.486754 
L 1143.818182 91.421684 
L 1177.636364 91.476459 
L 1211.454545 91.609978 
L 1245.272727 91.574266 
" style="fill:none;stroke:#aa3377;stroke-linecap:square;stroke-width:3;"/>
   </g>
   <g id="patch_3">
    <path d="M 180 504 
L 180 69.12 
" style="fill:none;stroke:#000000;stroke-linecap:square;stroke-linejoin:miter;stroke-width:0.8;"/>
   </g>
   <g id="patch_4">
    <path d="M 1296 504 
L 1296 69.12 
" style="fill:none;stroke:#000000;stroke-linecap:square;stroke-linejoin:miter;stroke-width:0.8;"/>
   </g>
   <g id="patch_5">
    <path d="M 180 504 
L 1296 504 
" style="fill:none;stroke:#000000;stroke-linecap:square;stroke-linejoin:miter;stroke-width:0.8;"/>
   </g>
   <g id="patch_6">
    <path d="M 180 69.12 
L 1296 69.12 
" style="fill:none;stroke:#000000;stroke-linecap:square;stroke-linejoin:miter;stroke-width:0.8;"/>
   </g>
   <g id="legend_1">
    <g id="patch_7">
     <path d="M 958.9125 494 
L 1282 494 
Q 1286 494 1286 490 
L 1286 315.8625 
Q 1286 311.8625 1282 311.8625 
L 958.9125 311.8625 
Q 954.9125 311.8625 954.9125 315.8625 
L 954.9125 490 
Q 954.9125 494 958.9125 494 
z
" style="fill:#ffffff;opacity:0.8;stroke:#cccccc;stroke-linejoin:miter;"/>
    </g>
    <g id="line2d_35">
     <path d="M 962.9125 328.059375 
L 1002.9125 328.059375 
" style="fill:none;stroke:#0077bb;stroke-linecap:square;stroke-width:3;"/>
    </g>
    <g id="line2d_36"/>
    <g id="text_17">
     <!-- APG(L=100) -->
     <defs>
      <path d="M 34.1875 63.1875 
L 20.796875 26.90625 
L 47.609375 26.90625 
z
M 28.609375 72.90625 
L 39.796875 72.90625 
L 67.578125 0 
L 57.328125 0 
L 50.6875 18.703125 
L 17.828125 18.703125 
L 11.1875 0 
L 0.78125 0 
z
" id="DejaVuSans-65"/>
      <path d="M 19.671875 64.796875 
L 19.671875 37.40625 
L 32.078125 37.40625 
Q 38.96875 37.40625 42.71875 40.96875 
Q 46.484375 44.53125 46.484375 51.125 
Q 46.484375 57.671875 42.71875 61.234375 
Q 38.96875 64.796875 32.078125 64.796875 
z
M 9.8125 72.90625 
L 32.078125 72.90625 
Q 44.34375 72.90625 50.609375 67.359375 
Q 56.890625 61.8125 56.890625 51.125 
Q 56.890625 40.328125 50.609375 34.8125 
Q 44.34375 29.296875 32.078125 29.296875 
L 19.671875 29.296875 
L 19.671875 0 
L 9.8125 0 
z
" id="DejaVuSans-80"/>
      <path d="M 59.515625 10.40625 
L 59.515625 29.984375 
L 43.40625 29.984375 
L 43.40625 38.09375 
L 69.28125 38.09375 
L 69.28125 6.78125 
Q 63.578125 2.734375 56.6875 0.65625 
Q 49.8125 -1.421875 42 -1.421875 
Q 24.90625 -1.421875 15.25 8.5625 
Q 5.609375 18.5625 5.609375 36.375 
Q 5.609375 54.25 15.25 64.234375 
Q 24.90625 74.21875 42 74.21875 
Q 49.125 74.21875 55.546875 72.453125 
Q 61.96875 70.703125 67.390625 67.28125 
L 67.390625 56.78125 
Q 61.921875 61.421875 55.765625 63.765625 
Q 49.609375 66.109375 42.828125 66.109375 
Q 29.4375 66.109375 22.71875 58.640625 
Q 16.015625 51.171875 16.015625 36.375 
Q 16.015625 21.625 22.71875 14.15625 
Q 29.4375 6.6875 42.828125 6.6875 
Q 48.046875 6.6875 52.140625 7.59375 
Q 56.25 8.5 59.515625 10.40625 
z
" id="DejaVuSans-71"/>
      <path d="M 9.8125 72.90625 
L 19.671875 72.90625 
L 19.671875 8.296875 
L 55.171875 8.296875 
L 55.171875 0 
L 9.8125 0 
z
" id="DejaVuSans-76"/>
      <path d="M 10.59375 45.40625 
L 73.1875 45.40625 
L 73.1875 37.203125 
L 10.59375 37.203125 
z
M 10.59375 25.484375 
L 73.1875 25.484375 
L 73.1875 17.1875 
L 10.59375 17.1875 
z
" id="DejaVuSans-61"/>
     </defs>
     <g transform="translate(1018.9125 335.059375)scale(0.2 -0.2)">
      <use xlink:href="#DejaVuSans-65"/>
      <use x="68.408203" xlink:href="#DejaVuSans-80"/>
      <use x="128.710938" xlink:href="#DejaVuSans-71"/>
      <use x="206.201172" xlink:href="#DejaVuSans-40"/>
      <use x="245.214844" xlink:href="#DejaVuSans-76"/>
      <use x="300.927734" xlink:href="#DejaVuSans-61"/>
      <use x="384.716797" xlink:href="#DejaVuSans-49"/>
      <use x="448.339844" xlink:href="#DejaVuSans-48"/>
      <use x="511.962891" xlink:href="#DejaVuSans-48"/>
      <use x="575.585938" xlink:href="#DejaVuSans-41"/>
     </g>
    </g>
    <g id="line2d_37">
     <path d="M 962.9125 357.415625 
L 1002.9125 357.415625 
" style="fill:none;stroke:#009988;stroke-linecap:square;stroke-width:3;"/>
    </g>
    <g id="line2d_38"/>
    <g id="text_18">
     <!-- GIBBS(L=100) -->
     <defs>
      <path d="M 9.8125 72.90625 
L 19.671875 72.90625 
L 19.671875 0 
L 9.8125 0 
z
" id="DejaVuSans-73"/>
      <path d="M 19.671875 34.8125 
L 19.671875 8.109375 
L 35.5 8.109375 
Q 43.453125 8.109375 47.28125 11.40625 
Q 51.125 14.703125 51.125 21.484375 
Q 51.125 28.328125 47.28125 31.5625 
Q 43.453125 34.8125 35.5 34.8125 
z
M 19.671875 64.796875 
L 19.671875 42.828125 
L 34.28125 42.828125 
Q 41.5 42.828125 45.03125 45.53125 
Q 48.578125 48.25 48.578125 53.8125 
Q 48.578125 59.328125 45.03125 62.0625 
Q 41.5 64.796875 34.28125 64.796875 
z
M 9.8125 72.90625 
L 35.015625 72.90625 
Q 46.296875 72.90625 52.390625 68.21875 
Q 58.5 63.53125 58.5 54.890625 
Q 58.5 48.1875 55.375 44.234375 
Q 52.25 40.28125 46.1875 39.3125 
Q 53.46875 37.75 57.5 32.78125 
Q 61.53125 27.828125 61.53125 20.40625 
Q 61.53125 10.640625 54.890625 5.3125 
Q 48.25 0 35.984375 0 
L 9.8125 0 
z
" id="DejaVuSans-66"/>
     </defs>
     <g transform="translate(1018.9125 364.415625)scale(0.2 -0.2)">
      <use xlink:href="#DejaVuSans-71"/>
      <use x="77.490234" xlink:href="#DejaVuSans-73"/>
      <use x="106.982422" xlink:href="#DejaVuSans-66"/>
      <use x="175.585938" xlink:href="#DejaVuSans-66"/>
      <use x="244.173828" xlink:href="#DejaVuSans-83"/>
      <use x="307.650391" xlink:href="#DejaVuSans-40"/>
      <use x="346.664062" xlink:href="#DejaVuSans-76"/>
      <use x="402.376953" xlink:href="#DejaVuSans-61"/>
      <use x="486.166016" xlink:href="#DejaVuSans-49"/>
      <use x="549.789062" xlink:href="#DejaVuSans-48"/>
      <use x="613.412109" xlink:href="#DejaVuSans-48"/>
      <use x="677.035156" xlink:href="#DejaVuSans-41"/>
     </g>
    </g>
    <g id="line2d_39">
     <path d="M 962.9125 386.771875 
L 1002.9125 386.771875 
" style="fill:none;stroke:#555555;stroke-linecap:square;stroke-width:3;"/>
    </g>
    <g id="line2d_40"/>
    <g id="text_19">
     <!-- BPG(L=10000) -->
     <g transform="translate(1018.9125 393.771875)scale(0.2 -0.2)">
      <use xlink:href="#DejaVuSans-66"/>
      <use x="68.603516" xlink:href="#DejaVuSans-80"/>
      <use x="128.90625" xlink:href="#DejaVuSans-71"/>
      <use x="206.396484" xlink:href="#DejaVuSans-40"/>
      <use x="245.410156" xlink:href="#DejaVuSans-76"/>
      <use x="301.123047" xlink:href="#DejaVuSans-61"/>
      <use x="384.912109" xlink:href="#DejaVuSans-49"/>
      <use x="448.535156" xlink:href="#DejaVuSans-48"/>
      <use x="512.158203" xlink:href="#DejaVuSans-48"/>
      <use x="575.78125" xlink:href="#DejaVuSans-48"/>
      <use x="639.404297" xlink:href="#DejaVuSans-48"/>
      <use x="703.027344" xlink:href="#DejaVuSans-41"/>
     </g>
    </g>
    <g id="line2d_41">
     <path d="M 962.9125 416.128125 
L 1002.9125 416.128125 
" style="fill:none;stroke:#999933;stroke-linecap:square;stroke-width:3;"/>
    </g>
    <g id="line2d_42"/>
    <g id="text_20">
     <!-- HMC-RWS(L=100, LF=1) -->
     <defs>
      <path d="M 9.8125 72.90625 
L 19.671875 72.90625 
L 19.671875 43.015625 
L 55.515625 43.015625 
L 55.515625 72.90625 
L 65.375 72.90625 
L 65.375 0 
L 55.515625 0 
L 55.515625 34.71875 
L 19.671875 34.71875 
L 19.671875 0 
L 9.8125 0 
z
" id="DejaVuSans-72"/>
      <path d="M 9.8125 72.90625 
L 24.515625 72.90625 
L 43.109375 23.296875 
L 61.8125 72.90625 
L 76.515625 72.90625 
L 76.515625 0 
L 66.890625 0 
L 66.890625 64.015625 
L 48.09375 14.015625 
L 38.1875 14.015625 
L 19.390625 64.015625 
L 19.390625 0 
L 9.8125 0 
z
" id="DejaVuSans-77"/>
      <path d="M 64.40625 67.28125 
L 64.40625 56.890625 
Q 59.421875 61.53125 53.78125 63.8125 
Q 48.140625 66.109375 41.796875 66.109375 
Q 29.296875 66.109375 22.65625 58.46875 
Q 16.015625 50.828125 16.015625 36.375 
Q 16.015625 21.96875 22.65625 14.328125 
Q 29.296875 6.6875 41.796875 6.6875 
Q 48.140625 6.6875 53.78125 8.984375 
Q 59.421875 11.28125 64.40625 15.921875 
L 64.40625 5.609375 
Q 59.234375 2.09375 53.4375 0.328125 
Q 47.65625 -1.421875 41.21875 -1.421875 
Q 24.65625 -1.421875 15.125 8.703125 
Q 5.609375 18.84375 5.609375 36.375 
Q 5.609375 53.953125 15.125 64.078125 
Q 24.65625 74.21875 41.21875 74.21875 
Q 47.75 74.21875 53.53125 72.484375 
Q 59.328125 70.75 64.40625 67.28125 
z
" id="DejaVuSans-67"/>
      <path d="M 4.890625 31.390625 
L 31.203125 31.390625 
L 31.203125 23.390625 
L 4.890625 23.390625 
z
" id="DejaVuSans-45"/>
      <path d="M 44.390625 34.1875 
Q 47.5625 33.109375 50.5625 29.59375 
Q 53.5625 26.078125 56.59375 19.921875 
L 66.609375 0 
L 56 0 
L 46.6875 18.703125 
Q 43.0625 26.03125 39.671875 28.421875 
Q 36.28125 30.8125 30.421875 30.8125 
L 19.671875 30.8125 
L 19.671875 0 
L 9.8125 0 
L 9.8125 72.90625 
L 32.078125 72.90625 
Q 44.578125 72.90625 50.734375 67.671875 
Q 56.890625 62.453125 56.890625 51.90625 
Q 56.890625 45.015625 53.6875 40.46875 
Q 50.484375 35.9375 44.390625 34.1875 
z
M 19.671875 64.796875 
L 19.671875 38.921875 
L 32.078125 38.921875 
Q 39.203125 38.921875 42.84375 42.21875 
Q 46.484375 45.515625 46.484375 51.90625 
Q 46.484375 58.296875 42.84375 61.546875 
Q 39.203125 64.796875 32.078125 64.796875 
z
" id="DejaVuSans-82"/>
      <path d="M 3.328125 72.90625 
L 13.28125 72.90625 
L 28.609375 11.28125 
L 43.890625 72.90625 
L 54.984375 72.90625 
L 70.3125 11.28125 
L 85.59375 72.90625 
L 95.609375 72.90625 
L 77.296875 0 
L 64.890625 0 
L 49.515625 63.28125 
L 33.984375 0 
L 21.578125 0 
z
" id="DejaVuSans-87"/>
      <path id="DejaVuSans-32"/>
      <path d="M 9.8125 72.90625 
L 51.703125 72.90625 
L 51.703125 64.59375 
L 19.671875 64.59375 
L 19.671875 43.109375 
L 48.578125 43.109375 
L 48.578125 34.8125 
L 19.671875 34.8125 
L 19.671875 0 
L 9.8125 0 
z
" id="DejaVuSans-70"/>
     </defs>
     <g transform="translate(1018.9125 423.128125)scale(0.2 -0.2)">
      <use xlink:href="#DejaVuSans-72"/>
      <use x="75.195312" xlink:href="#DejaVuSans-77"/>
      <use x="161.474609" xlink:href="#DejaVuSans-67"/>
      <use x="231.298828" xlink:href="#DejaVuSans-45"/>
      <use x="267.382812" xlink:href="#DejaVuSans-82"/>
      <use x="336.802734" xlink:href="#DejaVuSans-87"/>
      <use x="435.679688" xlink:href="#DejaVuSans-83"/>
      <use x="499.15625" xlink:href="#DejaVuSans-40"/>
      <use x="538.169922" xlink:href="#DejaVuSans-76"/>
      <use x="593.882812" xlink:href="#DejaVuSans-61"/>
      <use x="677.671875" xlink:href="#DejaVuSans-49"/>
      <use x="741.294922" xlink:href="#DejaVuSans-48"/>
      <use x="804.917969" xlink:href="#DejaVuSans-48"/>
      <use x="868.541016" xlink:href="#DejaVuSans-44"/>
      <use x="900.328125" xlink:href="#DejaVuSans-32"/>
      <use x="932.115234" xlink:href="#DejaVuSans-76"/>
      <use x="987.828125" xlink:href="#DejaVuSans-70"/>
      <use x="1045.347656" xlink:href="#DejaVuSans-61"/>
      <use x="1129.136719" xlink:href="#DejaVuSans-49"/>
      <use x="1192.759766" xlink:href="#DejaVuSans-41"/>
     </g>
    </g>
    <g id="line2d_43">
     <path d="M 962.9125 445.484375 
L 1002.9125 445.484375 
" style="fill:none;stroke:#ee7733;stroke-linecap:square;stroke-width:3;"/>
    </g>
    <g id="line2d_44"/>
    <g id="text_21">
     <!-- HMC-RWS(L=100, LF=5) -->
     <g transform="translate(1018.9125 452.484375)scale(0.2 -0.2)">
      <use xlink:href="#DejaVuSans-72"/>
      <use x="75.195312" xlink:href="#DejaVuSans-77"/>
      <use x="161.474609" xlink:href="#DejaVuSans-67"/>
      <use x="231.298828" xlink:href="#DejaVuSans-45"/>
      <use x="267.382812" xlink:href="#DejaVuSans-82"/>
      <use x="336.802734" xlink:href="#DejaVuSans-87"/>
      <use x="435.679688" xlink:href="#DejaVuSans-83"/>
      <use x="499.15625" xlink:href="#DejaVuSans-40"/>
      <use x="538.169922" xlink:href="#DejaVuSans-76"/>
      <use x="593.882812" xlink:href="#DejaVuSans-61"/>
      <use x="677.671875" xlink:href="#DejaVuSans-49"/>
      <use x="741.294922" xlink:href="#DejaVuSans-48"/>
      <use x="804.917969" xlink:href="#DejaVuSans-48"/>
      <use x="868.541016" xlink:href="#DejaVuSans-44"/>
      <use x="900.328125" xlink:href="#DejaVuSans-32"/>
      <use x="932.115234" xlink:href="#DejaVuSans-76"/>
      <use x="987.828125" xlink:href="#DejaVuSans-70"/>
      <use x="1045.347656" xlink:href="#DejaVuSans-61"/>
      <use x="1129.136719" xlink:href="#DejaVuSans-53"/>
      <use x="1192.759766" xlink:href="#DejaVuSans-41"/>
     </g>
    </g>
    <g id="line2d_45">
     <path d="M 962.9125 474.840625 
L 1002.9125 474.840625 
" style="fill:none;stroke:#aa3377;stroke-linecap:square;stroke-width:3;"/>
    </g>
    <g id="line2d_46"/>
    <g id="text_22">
     <!-- HMC-RWS(L=100, LF=10) -->
     <g transform="translate(1018.9125 481.840625)scale(0.2 -0.2)">
      <use xlink:href="#DejaVuSans-72"/>
      <use x="75.195312" xlink:href="#DejaVuSans-77"/>
      <use x="161.474609" xlink:href="#DejaVuSans-67"/>
      <use x="231.298828" xlink:href="#DejaVuSans-45"/>
      <use x="267.382812" xlink:href="#DejaVuSans-82"/>
      <use x="336.802734" xlink:href="#DejaVuSans-87"/>
      <use x="435.679688" xlink:href="#DejaVuSans-83"/>
      <use x="499.15625" xlink:href="#DejaVuSans-40"/>
      <use x="538.169922" xlink:href="#DejaVuSans-76"/>
      <use x="593.882812" xlink:href="#DejaVuSans-61"/>
      <use x="677.671875" xlink:href="#DejaVuSans-49"/>
      <use x="741.294922" xlink:href="#DejaVuSans-48"/>
      <use x="804.917969" xlink:href="#DejaVuSans-48"/>
      <use x="868.541016" xlink:href="#DejaVuSans-44"/>
      <use x="900.328125" xlink:href="#DejaVuSans-32"/>
      <use x="932.115234" xlink:href="#DejaVuSans-76"/>
      <use x="987.828125" xlink:href="#DejaVuSans-70"/>
      <use x="1045.347656" xlink:href="#DejaVuSans-61"/>
      <use x="1129.136719" xlink:href="#DejaVuSans-49"/>
      <use x="1192.759766" xlink:href="#DejaVuSans-48"/>
      <use x="1256.382812" xlink:href="#DejaVuSans-41"/>
     </g>
    </g>
   </g>
  </g>
 </g>
 <defs>
  <clipPath id="p23de6d729a">
   <rect height="434.88" width="1116" x="180" y="69.12"/>
  </clipPath>
 </defs>
</svg>
