<?xml version="1.0" encoding="utf-8" standalone="no"?>
<!DOCTYPE svg PUBLIC "-//W3C//DTD SVG 1.1//EN"
  "http://www.w3.org/Graphics/SVG/1.1/DTD/svg11.dtd">
<!-- Created with matplotlib (https://matplotlib.org/) -->
<svg height="1800pt" version="1.1" viewBox="0 0 360 1800" width="360pt" xmlns="http://www.w3.org/2000/svg" xmlns:xlink="http://www.w3.org/1999/xlink">
 <defs>
  <style type="text/css">
*{stroke-linecap:butt;stroke-linejoin:round;}
  </style>
 </defs>
 <g id="figure_1">
  <g id="patch_1">
   <path d="M 0 1800 
L 360 1800 
L 360 0 
L 0 0 
z
" style="fill:#ffffff;"/>
  </g>
  <g id="axes_1">
   <g id="patch_2">
    <path d="M 0 360 
L 360 360 
L 360 0 
L 0 0 
z
" style="fill:#ffffff;"/>
   </g>
   <g id="patch_3">
    <path clip-path="url(#pcbc35a0195)" d="M 194.810946 215.75517 
C 205.904194 215.75517 216.544584 212.35623 224.388695 206.306928 
C 232.232806 200.257626 236.6402 192.051859 236.6402 183.496854 
C 236.6402 174.941848 232.232806 166.736082 224.388695 160.68678 
C 216.544584 154.637477 205.904194 151.238538 194.810946 151.238538 
C 183.717699 151.238538 173.077308 154.637477 165.233198 160.68678 
C 157.389087 166.736082 152.981693 174.941848 152.981693 183.496854 
C 152.981693 192.051859 157.389087 200.257626 165.233198 206.306928 
C 173.077308 212.35623 183.717699 215.75517 194.810946 215.75517 
z
" style="fill:#0077bb;opacity:0.3;stroke:#0077bb;stroke-linejoin:miter;"/>
   </g>
   <g id="patch_4">
    <path clip-path="url(#pcbc35a0195)" d="M 188.919909 228.780147 
C 200.100739 228.780147 210.825137 225.117923 218.731178 218.600036 
C 226.637219 212.08215 231.07941 203.240758 231.07941 194.023074 
C 231.07941 184.805391 226.637219 175.963999 218.731178 169.446112 
C 210.825137 162.928226 200.100739 159.266001 188.919909 159.266001 
C 177.739078 159.266001 167.01468 162.928226 159.108639 169.446112 
C 151.202598 175.963999 146.760407 184.805391 146.760407 194.023074 
C 146.760407 203.240758 151.202598 212.08215 159.108639 218.600036 
C 167.01468 225.117923 177.739078 228.780147 188.919909 228.780147 
z
" style="fill:#009988;opacity:0.3;stroke:#009988;stroke-linejoin:miter;"/>
   </g>
   <g id="patch_5">
    <path clip-path="url(#pcbc35a0195)" d="M 201.812952 257.153978 
C 235.564118 257.153978 267.937468 250.405995 291.803146 238.396194 
C 315.668825 226.386392 329.078305 210.095319 329.078305 193.110895 
C 329.078305 176.126471 315.668825 159.835398 291.803146 147.825597 
C 267.937468 135.815795 235.564118 129.067812 201.812952 129.067812 
C 168.061786 129.067812 135.688436 135.815795 111.822758 147.825597 
C 87.957079 159.835398 74.547599 176.126471 74.547599 193.110895 
C 74.547599 210.095319 87.957079 226.386392 111.822758 238.396194 
C 135.688436 250.405995 168.061786 257.153978 201.812952 257.153978 
z
" style="fill:#ee7733;opacity:0.3;stroke:#ee7733;stroke-linejoin:miter;"/>
   </g>
   <g id="matplotlib.axis_1"/>
   <g id="matplotlib.axis_2"/>
   <g id="patch_6">
    <path d="M 0 360 
L 0 0 
" style="fill:none;stroke:#000000;stroke-linecap:square;stroke-linejoin:miter;stroke-width:0.8;"/>
   </g>
   <g id="patch_7">
    <path d="M 360 360 
L 360 0 
" style="fill:none;stroke:#000000;stroke-linecap:square;stroke-linejoin:miter;stroke-width:0.8;"/>
   </g>
   <g id="patch_8">
    <path d="M 0 360 
L 360 360 
" style="fill:none;stroke:#000000;stroke-linecap:square;stroke-linejoin:miter;stroke-width:0.8;"/>
   </g>
   <g id="patch_9">
    <path d="M 0 0 
L 360 0 
" style="fill:none;stroke:#000000;stroke-linecap:square;stroke-linejoin:miter;stroke-width:0.8;"/>
   </g>
   <g id="PathCollection_1">
    <defs>
     <path d="M 0 3 
C 0.795609 3 1.55874 2.683901 2.12132 2.12132 
C 2.683901 1.55874 3 0.795609 3 0 
C 3 -0.795609 2.683901 -1.55874 2.12132 -2.12132 
C 1.55874 -2.683901 0.795609 -3 0 -3 
C -0.795609 -3 -1.55874 -2.683901 -2.12132 -2.12132 
C -2.683901 -1.55874 -3 -0.795609 -3 0 
C -3 0.795609 -2.683901 1.55874 -2.12132 2.12132 
C -1.55874 2.683901 -0.795609 3 0 3 
z
" id="m1ea4847fee" style="stroke:#0077bb;"/>
    </defs>
    <g clip-path="url(#pcbc35a0195)">
     <use style="fill:#0077bb;stroke:#0077bb;" x="215.007126" xlink:href="#m1ea4847fee" y="187.67022"/>
     <use style="fill:#0077bb;stroke:#0077bb;" x="190.600664" xlink:href="#m1ea4847fee" y="218.701354"/>
     <use style="fill:#0077bb;stroke:#0077bb;" x="178.645749" xlink:href="#m1ea4847fee" y="213.551087"/>
     <use style="fill:#0077bb;stroke:#0077bb;" x="209.076655" xlink:href="#m1ea4847fee" y="209.634045"/>
     <use style="fill:#0077bb;stroke:#0077bb;" x="176.817543" xlink:href="#m1ea4847fee" y="246.748638"/>
     <use style="fill:#0077bb;stroke:#0077bb;" x="204.381314" xlink:href="#m1ea4847fee" y="199.759147"/>
     <use style="fill:#0077bb;stroke:#0077bb;" x="197.310809" xlink:href="#m1ea4847fee" y="183.060461"/>
     <use style="fill:#0077bb;stroke:#0077bb;" x="205.969793" xlink:href="#m1ea4847fee" y="249.271603"/>
     <use style="fill:#0077bb;stroke:#0077bb;" x="192.072497" xlink:href="#m1ea4847fee" y="209.887161"/>
     <use style="fill:#0077bb;stroke:#0077bb;" x="192.582058" xlink:href="#m1ea4847fee" y="251.703587"/>
     <use style="fill:#0077bb;stroke:#0077bb;" x="203.877282" xlink:href="#m1ea4847fee" y="175.756298"/>
     <use style="fill:#0077bb;stroke:#0077bb;" x="206.200885" xlink:href="#m1ea4847fee" y="207.733771"/>
     <use style="fill:#0077bb;stroke:#0077bb;" x="189.126383" xlink:href="#m1ea4847fee" y="252.576599"/>
     <use style="fill:#0077bb;stroke:#0077bb;" x="206.860834" xlink:href="#m1ea4847fee" y="222.458231"/>
     <use style="fill:#0077bb;stroke:#0077bb;" x="182.767215" xlink:href="#m1ea4847fee" y="224.79647"/>
     <use style="fill:#0077bb;stroke:#0077bb;" x="158.983269" xlink:href="#m1ea4847fee" y="213.992901"/>
     <use style="fill:#0077bb;stroke:#0077bb;" x="191.747283" xlink:href="#m1ea4847fee" y="188.092956"/>
     <use style="fill:#0077bb;stroke:#0077bb;" x="198.427455" xlink:href="#m1ea4847fee" y="223.772324"/>
     <use style="fill:#0077bb;stroke:#0077bb;" x="201.724523" xlink:href="#m1ea4847fee" y="177.484057"/>
    </g>
   </g>
   <g id="PathCollection_2">
    <defs>
     <path d="M 0 3 
C 0.795609 3 1.55874 2.683901 2.12132 2.12132 
C 2.683901 1.55874 3 0.795609 3 0 
C 3 -0.795609 2.683901 -1.55874 2.12132 -2.12132 
C 1.55874 -2.683901 0.795609 -3 0 -3 
C -0.795609 -3 -1.55874 -2.683901 -2.12132 -2.12132 
C -2.683901 -1.55874 -3 -0.795609 -3 0 
C -3 0.795609 -2.683901 1.55874 -2.12132 2.12132 
C -1.55874 2.683901 -0.795609 3 0 3 
z
" id="m060a97df31" style="stroke:#009988;"/>
    </defs>
    <g clip-path="url(#pcbc35a0195)">
     <use style="fill:#009988;stroke:#009988;" x="196.244352" xlink:href="#m060a97df31" y="182.665769"/>
     <use style="fill:#009988;stroke:#009988;" x="172.35561" xlink:href="#m060a97df31" y="176.466107"/>
     <use style="fill:#009988;stroke:#009988;" x="201.72349" xlink:href="#m060a97df31" y="174.727492"/>
    </g>
   </g>
   <g id="PathCollection_3">
    <defs>
     <path d="M 0 3 
C 0.795609 3 1.55874 2.683901 2.12132 2.12132 
C 2.683901 1.55874 3 0.795609 3 0 
C 3 -0.795609 2.683901 -1.55874 2.12132 -2.12132 
C 1.55874 -2.683901 0.795609 -3 0 -3 
C -0.795609 -3 -1.55874 -2.683901 -2.12132 -2.12132 
C -2.683901 -1.55874 -3 -0.795609 -3 0 
C -3 0.795609 -2.683901 1.55874 -2.12132 2.12132 
C -1.55874 2.683901 -0.795609 3 0 3 
z
" id="m6f5b531e8a" style="stroke:#ee7733;"/>
    </defs>
    <g clip-path="url(#pcbc35a0195)">
     <use style="fill:#ee7733;stroke:#ee7733;" x="232.377005" xlink:href="#m6f5b531e8a" y="168.403147"/>
     <use style="fill:#ee7733;stroke:#ee7733;" x="206.049703" xlink:href="#m6f5b531e8a" y="257.12117"/>
     <use style="fill:#ee7733;stroke:#ee7733;" x="93.855915" xlink:href="#m6f5b531e8a" y="205.472208"/>
     <use style="fill:#ee7733;stroke:#ee7733;" x="220.504067" xlink:href="#m6f5b531e8a" y="254.607496"/>
     <use style="fill:#ee7733;stroke:#ee7733;" x="218.907648" xlink:href="#m6f5b531e8a" y="171.590473"/>
     <use style="fill:#ee7733;stroke:#ee7733;" x="112.391682" xlink:href="#m6f5b531e8a" y="166.260764"/>
     <use style="fill:#ee7733;stroke:#ee7733;" x="109.285734" xlink:href="#m6f5b531e8a" y="177.032478"/>
     <use style="fill:#ee7733;stroke:#ee7733;" x="126.78659" xlink:href="#m6f5b531e8a" y="169.596485"/>
     <use style="fill:#ee7733;stroke:#ee7733;" x="204.097819" xlink:href="#m6f5b531e8a" y="257.937441"/>
     <use style="fill:#ee7733;stroke:#ee7733;" x="232.537365" xlink:href="#m6f5b531e8a" y="155.24685"/>
     <use style="fill:#ee7733;stroke:#ee7733;" x="109.174461" xlink:href="#m6f5b531e8a" y="183.524236"/>
     <use style="fill:#ee7733;stroke:#ee7733;" x="227.632456" xlink:href="#m6f5b531e8a" y="185.239495"/>
     <use style="fill:#ee7733;stroke:#ee7733;" x="107.547297" xlink:href="#m6f5b531e8a" y="180.606352"/>
     <use style="fill:#ee7733;stroke:#ee7733;" x="118.62304" xlink:href="#m6f5b531e8a" y="200.50547"/>
     <use style="fill:#ee7733;stroke:#ee7733;" x="89.257207" xlink:href="#m6f5b531e8a" y="197.225958"/>
     <use style="fill:#ee7733;stroke:#ee7733;" x="218.329568" xlink:href="#m6f5b531e8a" y="173.189776"/>
     <use style="fill:#ee7733;stroke:#ee7733;" x="126.940598" xlink:href="#m6f5b531e8a" y="154.354107"/>
     <use style="fill:#ee7733;stroke:#ee7733;" x="119.333482" xlink:href="#m6f5b531e8a" y="230.833451"/>
     <use style="fill:#ee7733;stroke:#ee7733;" x="88.910987" xlink:href="#m6f5b531e8a" y="209.832072"/>
     <use style="fill:#ee7733;stroke:#ee7733;" x="220.740484" xlink:href="#m6f5b531e8a" y="167.389315"/>
     <use style="fill:#ee7733;stroke:#ee7733;" x="98.46056" xlink:href="#m6f5b531e8a" y="164.839677"/>
     <use style="fill:#ee7733;stroke:#ee7733;" x="225.285748" xlink:href="#m6f5b531e8a" y="184.060405"/>
     <use style="fill:#ee7733;stroke:#ee7733;" x="78.945158" xlink:href="#m6f5b531e8a" y="171.409701"/>
     <use style="fill:#ee7733;stroke:#ee7733;" x="227.918608" xlink:href="#m6f5b531e8a" y="192.223699"/>
     <use style="fill:#ee7733;stroke:#ee7733;" x="102.352316" xlink:href="#m6f5b531e8a" y="176.54766"/>
     <use style="fill:#ee7733;stroke:#ee7733;" x="223.82614" xlink:href="#m6f5b531e8a" y="168.758253"/>
     <use style="fill:#ee7733;stroke:#ee7733;" x="82.62816" xlink:href="#m6f5b531e8a" y="164.726225"/>
     <use style="fill:#ee7733;stroke:#ee7733;" x="115.916433" xlink:href="#m6f5b531e8a" y="182.759432"/>
     <use style="fill:#ee7733;stroke:#ee7733;" x="111.522639" xlink:href="#m6f5b531e8a" y="183.609464"/>
     <use style="fill:#ee7733;stroke:#ee7733;" x="111.3729" xlink:href="#m6f5b531e8a" y="138.470049"/>
     <use style="fill:#ee7733;stroke:#ee7733;" x="102.771156" xlink:href="#m6f5b531e8a" y="178.682625"/>
     <use style="fill:#ee7733;stroke:#ee7733;" x="115.619559" xlink:href="#m6f5b531e8a" y="176.573816"/>
     <use style="fill:#ee7733;stroke:#ee7733;" x="233.004988" xlink:href="#m6f5b531e8a" y="172.128976"/>
     <use style="fill:#ee7733;stroke:#ee7733;" x="103.846879" xlink:href="#m6f5b531e8a" y="173.01931"/>
     <use style="fill:#ee7733;stroke:#ee7733;" x="86.202285" xlink:href="#m6f5b531e8a" y="172.867789"/>
     <use style="fill:#ee7733;stroke:#ee7733;" x="91.268005" xlink:href="#m6f5b531e8a" y="176.340685"/>
     <use style="fill:#ee7733;stroke:#ee7733;" x="102.745671" xlink:href="#m6f5b531e8a" y="160.434422"/>
     <use style="fill:#ee7733;stroke:#ee7733;" x="99.837799" xlink:href="#m6f5b531e8a" y="129.907265"/>
    </g>
   </g>
   <g id="text_1">
    <!-- Oneshot Encoder -->
    <defs>
     <path d="M 39.40625 66.21875 
Q 28.65625 66.21875 22.328125 58.203125 
Q 16.015625 50.203125 16.015625 36.375 
Q 16.015625 22.609375 22.328125 14.59375 
Q 28.65625 6.59375 39.40625 6.59375 
Q 50.140625 6.59375 56.421875 14.59375 
Q 62.703125 22.609375 62.703125 36.375 
Q 62.703125 50.203125 56.421875 58.203125 
Q 50.140625 66.21875 39.40625 66.21875 
z
M 39.40625 74.21875 
Q 54.734375 74.21875 63.90625 63.9375 
Q 73.09375 53.65625 73.09375 36.375 
Q 73.09375 19.140625 63.90625 8.859375 
Q 54.734375 -1.421875 39.40625 -1.421875 
Q 24.03125 -1.421875 14.8125 8.828125 
Q 5.609375 19.09375 5.609375 36.375 
Q 5.609375 53.65625 14.8125 63.9375 
Q 24.03125 74.21875 39.40625 74.21875 
z
" id="DejaVuSans-79"/>
     <path d="M 54.890625 33.015625 
L 54.890625 0 
L 45.90625 0 
L 45.90625 32.71875 
Q 45.90625 40.484375 42.875 44.328125 
Q 39.84375 48.1875 33.796875 48.1875 
Q 26.515625 48.1875 22.3125 43.546875 
Q 18.109375 38.921875 18.109375 30.90625 
L 18.109375 0 
L 9.078125 0 
L 9.078125 54.6875 
L 18.109375 54.6875 
L 18.109375 46.1875 
Q 21.34375 51.125 25.703125 53.5625 
Q 30.078125 56 35.796875 56 
Q 45.21875 56 50.046875 50.171875 
Q 54.890625 44.34375 54.890625 33.015625 
z
" id="DejaVuSans-110"/>
     <path d="M 56.203125 29.59375 
L 56.203125 25.203125 
L 14.890625 25.203125 
Q 15.484375 15.921875 20.484375 11.0625 
Q 25.484375 6.203125 34.421875 6.203125 
Q 39.59375 6.203125 44.453125 7.46875 
Q 49.3125 8.734375 54.109375 11.28125 
L 54.109375 2.78125 
Q 49.265625 0.734375 44.1875 -0.34375 
Q 39.109375 -1.421875 33.890625 -1.421875 
Q 20.796875 -1.421875 13.15625 6.1875 
Q 5.515625 13.8125 5.515625 26.8125 
Q 5.515625 40.234375 12.765625 48.109375 
Q 20.015625 56 32.328125 56 
Q 43.359375 56 49.78125 48.890625 
Q 56.203125 41.796875 56.203125 29.59375 
z
M 47.21875 32.234375 
Q 47.125 39.59375 43.09375 43.984375 
Q 39.0625 48.390625 32.421875 48.390625 
Q 24.90625 48.390625 20.390625 44.140625 
Q 15.875 39.890625 15.1875 32.171875 
z
" id="DejaVuSans-101"/>
     <path d="M 44.28125 53.078125 
L 44.28125 44.578125 
Q 40.484375 46.53125 36.375 47.5 
Q 32.28125 48.484375 27.875 48.484375 
Q 21.1875 48.484375 17.84375 46.4375 
Q 14.5 44.390625 14.5 40.28125 
Q 14.5 37.15625 16.890625 35.375 
Q 19.28125 33.59375 26.515625 31.984375 
L 29.59375 31.296875 
Q 39.15625 29.25 43.1875 25.515625 
Q 47.21875 21.78125 47.21875 15.09375 
Q 47.21875 7.46875 41.1875 3.015625 
Q 35.15625 -1.421875 24.609375 -1.421875 
Q 20.21875 -1.421875 15.453125 -0.5625 
Q 10.6875 0.296875 5.421875 2 
L 5.421875 11.28125 
Q 10.40625 8.6875 15.234375 7.390625 
Q 20.0625 6.109375 24.8125 6.109375 
Q 31.15625 6.109375 34.5625 8.28125 
Q 37.984375 10.453125 37.984375 14.40625 
Q 37.984375 18.0625 35.515625 20.015625 
Q 33.0625 21.96875 24.703125 23.78125 
L 21.578125 24.515625 
Q 13.234375 26.265625 9.515625 29.90625 
Q 5.8125 33.546875 5.8125 39.890625 
Q 5.8125 47.609375 11.28125 51.796875 
Q 16.75 56 26.8125 56 
Q 31.78125 56 36.171875 55.265625 
Q 40.578125 54.546875 44.28125 53.078125 
z
" id="DejaVuSans-115"/>
     <path d="M 54.890625 33.015625 
L 54.890625 0 
L 45.90625 0 
L 45.90625 32.71875 
Q 45.90625 40.484375 42.875 44.328125 
Q 39.84375 48.1875 33.796875 48.1875 
Q 26.515625 48.1875 22.3125 43.546875 
Q 18.109375 38.921875 18.109375 30.90625 
L 18.109375 0 
L 9.078125 0 
L 9.078125 75.984375 
L 18.109375 75.984375 
L 18.109375 46.1875 
Q 21.34375 51.125 25.703125 53.5625 
Q 30.078125 56 35.796875 56 
Q 45.21875 56 50.046875 50.171875 
Q 54.890625 44.34375 54.890625 33.015625 
z
" id="DejaVuSans-104"/>
     <path d="M 30.609375 48.390625 
Q 23.390625 48.390625 19.1875 42.75 
Q 14.984375 37.109375 14.984375 27.296875 
Q 14.984375 17.484375 19.15625 11.84375 
Q 23.34375 6.203125 30.609375 6.203125 
Q 37.796875 6.203125 41.984375 11.859375 
Q 46.1875 17.53125 46.1875 27.296875 
Q 46.1875 37.015625 41.984375 42.703125 
Q 37.796875 48.390625 30.609375 48.390625 
z
M 30.609375 56 
Q 42.328125 56 49.015625 48.375 
Q 55.71875 40.765625 55.71875 27.296875 
Q 55.71875 13.875 49.015625 6.21875 
Q 42.328125 -1.421875 30.609375 -1.421875 
Q 18.84375 -1.421875 12.171875 6.21875 
Q 5.515625 13.875 5.515625 27.296875 
Q 5.515625 40.765625 12.171875 48.375 
Q 18.84375 56 30.609375 56 
z
" id="DejaVuSans-111"/>
     <path d="M 18.3125 70.21875 
L 18.3125 54.6875 
L 36.8125 54.6875 
L 36.8125 47.703125 
L 18.3125 47.703125 
L 18.3125 18.015625 
Q 18.3125 11.328125 20.140625 9.421875 
Q 21.96875 7.515625 27.59375 7.515625 
L 36.8125 7.515625 
L 36.8125 0 
L 27.59375 0 
Q 17.1875 0 13.234375 3.875 
Q 9.28125 7.765625 9.28125 18.015625 
L 9.28125 47.703125 
L 2.6875 47.703125 
L 2.6875 54.6875 
L 9.28125 54.6875 
L 9.28125 70.21875 
z
" id="DejaVuSans-116"/>
     <path id="DejaVuSans-32"/>
     <path d="M 9.8125 72.90625 
L 55.90625 72.90625 
L 55.90625 64.59375 
L 19.671875 64.59375 
L 19.671875 43.015625 
L 54.390625 43.015625 
L 54.390625 34.71875 
L 19.671875 34.71875 
L 19.671875 8.296875 
L 56.78125 8.296875 
L 56.78125 0 
L 9.8125 0 
z
" id="DejaVuSans-69"/>
     <path d="M 48.78125 52.59375 
L 48.78125 44.1875 
Q 44.96875 46.296875 41.140625 47.34375 
Q 37.3125 48.390625 33.40625 48.390625 
Q 24.65625 48.390625 19.8125 42.84375 
Q 14.984375 37.3125 14.984375 27.296875 
Q 14.984375 17.28125 19.8125 11.734375 
Q 24.65625 6.203125 33.40625 6.203125 
Q 37.3125 6.203125 41.140625 7.25 
Q 44.96875 8.296875 48.78125 10.40625 
L 48.78125 2.09375 
Q 45.015625 0.34375 40.984375 -0.53125 
Q 36.96875 -1.421875 32.421875 -1.421875 
Q 20.0625 -1.421875 12.78125 6.34375 
Q 5.515625 14.109375 5.515625 27.296875 
Q 5.515625 40.671875 12.859375 48.328125 
Q 20.21875 56 33.015625 56 
Q 37.15625 56 41.109375 55.140625 
Q 45.0625 54.296875 48.78125 52.59375 
z
" id="DejaVuSans-99"/>
     <path d="M 45.40625 46.390625 
L 45.40625 75.984375 
L 54.390625 75.984375 
L 54.390625 0 
L 45.40625 0 
L 45.40625 8.203125 
Q 42.578125 3.328125 38.25 0.953125 
Q 33.9375 -1.421875 27.875 -1.421875 
Q 17.96875 -1.421875 11.734375 6.484375 
Q 5.515625 14.40625 5.515625 27.296875 
Q 5.515625 40.1875 11.734375 48.09375 
Q 17.96875 56 27.875 56 
Q 33.9375 56 38.25 53.625 
Q 42.578125 51.265625 45.40625 46.390625 
z
M 14.796875 27.296875 
Q 14.796875 17.390625 18.875 11.75 
Q 22.953125 6.109375 30.078125 6.109375 
Q 37.203125 6.109375 41.296875 11.75 
Q 45.40625 17.390625 45.40625 27.296875 
Q 45.40625 37.203125 41.296875 42.84375 
Q 37.203125 48.484375 30.078125 48.484375 
Q 22.953125 48.484375 18.875 42.84375 
Q 14.796875 37.203125 14.796875 27.296875 
z
" id="DejaVuSans-100"/>
     <path d="M 41.109375 46.296875 
Q 39.59375 47.171875 37.8125 47.578125 
Q 36.03125 48 33.890625 48 
Q 26.265625 48 22.1875 43.046875 
Q 18.109375 38.09375 18.109375 28.8125 
L 18.109375 0 
L 9.078125 0 
L 9.078125 54.6875 
L 18.109375 54.6875 
L 18.109375 46.1875 
Q 20.953125 51.171875 25.484375 53.578125 
Q 30.03125 56 36.53125 56 
Q 37.453125 56 38.578125 55.875 
Q 39.703125 55.765625 41.0625 55.515625 
z
" id="DejaVuSans-114"/>
    </defs>
    <g transform="translate(50.98125 -6)scale(0.3 -0.3)">
     <use xlink:href="#DejaVuSans-79"/>
     <use x="78.710938" xlink:href="#DejaVuSans-110"/>
     <use x="142.089844" xlink:href="#DejaVuSans-101"/>
     <use x="203.613281" xlink:href="#DejaVuSans-115"/>
     <use x="255.712891" xlink:href="#DejaVuSans-104"/>
     <use x="319.091797" xlink:href="#DejaVuSans-111"/>
     <use x="380.273438" xlink:href="#DejaVuSans-116"/>
     <use x="419.482422" xlink:href="#DejaVuSans-32"/>
     <use x="451.269531" xlink:href="#DejaVuSans-69"/>
     <use x="514.453125" xlink:href="#DejaVuSans-110"/>
     <use x="577.832031" xlink:href="#DejaVuSans-99"/>
     <use x="632.8125" xlink:href="#DejaVuSans-111"/>
     <use x="693.994141" xlink:href="#DejaVuSans-100"/>
     <use x="757.470703" xlink:href="#DejaVuSans-101"/>
     <use x="818.994141" xlink:href="#DejaVuSans-114"/>
    </g>
   </g>
  </g>
  <g id="axes_2">
   <g id="patch_10">
    <path d="M 0 720 
L 360 720 
L 360 360 
L 0 360 
z
" style="fill:#ffffff;"/>
   </g>
   <g id="patch_11">
    <path clip-path="url(#p320950c9dc)" d="M 133.486311 571.156884 
C 144.99957 571.156884 156.042826 567.574078 164.183929 561.197537 
C 172.325032 554.820996 176.899298 546.171337 176.899298 537.153547 
C 176.899298 528.135757 172.325032 519.486098 164.183929 513.109557 
C 156.042826 506.733017 144.99957 503.150211 133.486311 503.150211 
C 121.973053 503.150211 110.929797 506.733017 102.788694 513.109557 
C 94.647591 519.486098 90.073324 528.135757 90.073324 537.153547 
C 90.073324 546.171337 94.647591 554.820996 102.788694 561.197537 
C 110.929797 567.574078 121.973053 571.156884 133.486311 571.156884 
z
" style="fill:#0077bb;opacity:0.3;stroke:#0077bb;stroke-linejoin:miter;"/>
   </g>
   <g id="patch_12">
    <path clip-path="url(#p320950c9dc)" d="M 139.794595 587.244015 
C 150.975213 587.244015 161.699407 583.473884 169.605298 576.763951 
C 177.511189 570.054017 181.953295 560.952117 181.953295 551.462839 
C 181.953295 541.97356 177.511189 532.87166 169.605298 526.161726 
C 161.699407 519.451793 150.975213 515.681663 139.794595 515.681663 
C 128.613977 515.681663 117.889783 519.451793 109.983892 526.161726 
C 102.078002 532.87166 97.635895 541.97356 97.635895 551.462839 
C 97.635895 560.952117 102.078002 570.054017 109.983892 576.763951 
C 117.889783 583.473884 128.613977 587.244015 139.794595 587.244015 
z
" style="fill:#009988;opacity:0.3;stroke:#009988;stroke-linejoin:miter;"/>
   </g>
   <g id="patch_13">
    <path clip-path="url(#p320950c9dc)" d="M 105.375316 625.163656 
C 129.691215 625.163656 153.014472 616.785879 170.208409 601.875435 
C 187.402346 586.96499 197.063155 566.739248 197.063155 545.652695 
C 197.063155 524.566142 187.402346 504.340401 170.208409 489.429956 
C 153.014472 474.519511 129.691215 466.141735 105.375316 466.141735 
C 81.059417 466.141735 57.736161 474.519511 40.542223 489.429956 
C 23.348286 504.340401 13.687477 524.566142 13.687477 545.652695 
C 13.687477 566.739248 23.348286 586.96499 40.542223 601.875435 
C 57.736161 616.785879 81.059417 625.163656 105.375316 625.163656 
z
" style="fill:#ee7733;opacity:0.3;stroke:#ee7733;stroke-linejoin:miter;"/>
   </g>
   <g id="matplotlib.axis_3"/>
   <g id="matplotlib.axis_4"/>
   <g id="patch_14">
    <path d="M 0 720 
L 0 360 
" style="fill:none;stroke:#000000;stroke-linecap:square;stroke-linejoin:miter;stroke-width:0.8;"/>
   </g>
   <g id="patch_15">
    <path d="M 360 720 
L 360 360 
" style="fill:none;stroke:#000000;stroke-linecap:square;stroke-linejoin:miter;stroke-width:0.8;"/>
   </g>
   <g id="patch_16">
    <path d="M 0 720 
L 360 720 
" style="fill:none;stroke:#000000;stroke-linecap:square;stroke-linejoin:miter;stroke-width:0.8;"/>
   </g>
   <g id="patch_17">
    <path d="M 0 360 
L 360 360 
" style="fill:none;stroke:#000000;stroke-linecap:square;stroke-linejoin:miter;stroke-width:0.8;"/>
   </g>
   <g id="PathCollection_4">
    <g clip-path="url(#p320950c9dc)">
     <use style="fill:#0077bb;stroke:#0077bb;" x="226.459125" xlink:href="#m1ea4847fee" y="505.893255"/>
     <use style="fill:#0077bb;stroke:#0077bb;" x="188.381329" xlink:href="#m1ea4847fee" y="565.688122"/>
     <use style="fill:#0077bb;stroke:#0077bb;" x="239.996488" xlink:href="#m1ea4847fee" y="526.159707"/>
     <use style="fill:#0077bb;stroke:#0077bb;" x="216.264811" xlink:href="#m1ea4847fee" y="506.838455"/>
     <use style="fill:#0077bb;stroke:#0077bb;" x="217.27531" xlink:href="#m1ea4847fee" y="555.185668"/>
     <use style="fill:#0077bb;stroke:#0077bb;" x="221.008054" xlink:href="#m1ea4847fee" y="538.639577"/>
     <use style="fill:#0077bb;stroke:#0077bb;" x="238.733611" xlink:href="#m1ea4847fee" y="510.467507"/>
     <use style="fill:#0077bb;stroke:#0077bb;" x="181.411185" xlink:href="#m1ea4847fee" y="506.564745"/>
     <use style="fill:#0077bb;stroke:#0077bb;" x="220.30293" xlink:href="#m1ea4847fee" y="523.573855"/>
    </g>
   </g>
   <g id="PathCollection_5">
    <g clip-path="url(#p320950c9dc)">
     <use style="fill:#009988;stroke:#009988;" x="157.085338" xlink:href="#m060a97df31" y="569.847361"/>
    </g>
   </g>
   <g id="PathCollection_6">
    <g clip-path="url(#p320950c9dc)">
     <use style="fill:#ee7733;stroke:#ee7733;" x="213.095126" xlink:href="#m6f5b531e8a" y="565.547889"/>
     <use style="fill:#ee7733;stroke:#ee7733;" x="266.981785" xlink:href="#m6f5b531e8a" y="515.436805"/>
     <use style="fill:#ee7733;stroke:#ee7733;" x="192.433642" xlink:href="#m6f5b531e8a" y="601.520841"/>
     <use style="fill:#ee7733;stroke:#ee7733;" x="300.083628" xlink:href="#m6f5b531e8a" y="526.311446"/>
     <use style="fill:#ee7733;stroke:#ee7733;" x="252.382171" xlink:href="#m6f5b531e8a" y="534.511479"/>
     <use style="fill:#ee7733;stroke:#ee7733;" x="180.326267" xlink:href="#m6f5b531e8a" y="583.880868"/>
     <use style="fill:#ee7733;stroke:#ee7733;" x="247.787726" xlink:href="#m6f5b531e8a" y="509.818819"/>
     <use style="fill:#ee7733;stroke:#ee7733;" x="245.945334" xlink:href="#m6f5b531e8a" y="551.721649"/>
     <use style="fill:#ee7733;stroke:#ee7733;" x="262.979851" xlink:href="#m6f5b531e8a" y="521.167485"/>
     <use style="fill:#ee7733;stroke:#ee7733;" x="181.090827" xlink:href="#m6f5b531e8a" y="588.710754"/>
     <use style="fill:#ee7733;stroke:#ee7733;" x="250.567768" xlink:href="#m6f5b531e8a" y="481.459708"/>
     <use style="fill:#ee7733;stroke:#ee7733;" x="270.962663" xlink:href="#m6f5b531e8a" y="511.924319"/>
     <use style="fill:#ee7733;stroke:#ee7733;" x="251.413071" xlink:href="#m6f5b531e8a" y="509.262457"/>
     <use style="fill:#ee7733;stroke:#ee7733;" x="215.023878" xlink:href="#m6f5b531e8a" y="587.431415"/>
     <use style="fill:#ee7733;stroke:#ee7733;" x="260.928912" xlink:href="#m6f5b531e8a" y="511.474847"/>
     <use style="fill:#ee7733;stroke:#ee7733;" x="258.106163" xlink:href="#m6f5b531e8a" y="556.531793"/>
     <use style="fill:#ee7733;stroke:#ee7733;" x="187.890207" xlink:href="#m6f5b531e8a" y="586.730397"/>
     <use style="fill:#ee7733;stroke:#ee7733;" x="272.722149" xlink:href="#m6f5b531e8a" y="555.358515"/>
     <use style="fill:#ee7733;stroke:#ee7733;" x="307.721758" xlink:href="#m6f5b531e8a" y="486.301289"/>
     <use style="fill:#ee7733;stroke:#ee7733;" x="274.083595" xlink:href="#m6f5b531e8a" y="510.393376"/>
     <use style="fill:#ee7733;stroke:#ee7733;" x="197.290338" xlink:href="#m6f5b531e8a" y="582.971331"/>
     <use style="fill:#ee7733;stroke:#ee7733;" x="211.930922" xlink:href="#m6f5b531e8a" y="584.995451"/>
     <use style="fill:#ee7733;stroke:#ee7733;" x="243.231068" xlink:href="#m6f5b531e8a" y="501.197501"/>
     <use style="fill:#ee7733;stroke:#ee7733;" x="192.52381" xlink:href="#m6f5b531e8a" y="594.077203"/>
     <use style="fill:#ee7733;stroke:#ee7733;" x="213.394547" xlink:href="#m6f5b531e8a" y="582.482632"/>
     <use style="fill:#ee7733;stroke:#ee7733;" x="277.022345" xlink:href="#m6f5b531e8a" y="525.637701"/>
     <use style="fill:#ee7733;stroke:#ee7733;" x="170.687469" xlink:href="#m6f5b531e8a" y="582.912565"/>
     <use style="fill:#ee7733;stroke:#ee7733;" x="262.173579" xlink:href="#m6f5b531e8a" y="574.788387"/>
     <use style="fill:#ee7733;stroke:#ee7733;" x="258.633056" xlink:href="#m6f5b531e8a" y="521.418289"/>
     <use style="fill:#ee7733;stroke:#ee7733;" x="191.040602" xlink:href="#m6f5b531e8a" y="599.585881"/>
     <use style="fill:#ee7733;stroke:#ee7733;" x="265.874605" xlink:href="#m6f5b531e8a" y="507.554365"/>
     <use style="fill:#ee7733;stroke:#ee7733;" x="199.29076" xlink:href="#m6f5b531e8a" y="571.029003"/>
     <use style="fill:#ee7733;stroke:#ee7733;" x="253.948467" xlink:href="#m6f5b531e8a" y="571.315641"/>
     <use style="fill:#ee7733;stroke:#ee7733;" x="284.906895" xlink:href="#m6f5b531e8a" y="514.704015"/>
     <use style="fill:#ee7733;stroke:#ee7733;" x="258.727777" xlink:href="#m6f5b531e8a" y="552.170917"/>
     <use style="fill:#ee7733;stroke:#ee7733;" x="212.625339" xlink:href="#m6f5b531e8a" y="592.855833"/>
     <use style="fill:#ee7733;stroke:#ee7733;" x="218.039739" xlink:href="#m6f5b531e8a" y="582.912151"/>
     <use style="fill:#ee7733;stroke:#ee7733;" x="184.661677" xlink:href="#m6f5b531e8a" y="577.040988"/>
     <use style="fill:#ee7733;stroke:#ee7733;" x="235.072321" xlink:href="#m6f5b531e8a" y="598.19066"/>
     <use style="fill:#ee7733;stroke:#ee7733;" x="249.822614" xlink:href="#m6f5b531e8a" y="500.137378"/>
     <use style="fill:#ee7733;stroke:#ee7733;" x="227.044823" xlink:href="#m6f5b531e8a" y="612.460756"/>
     <use style="fill:#ee7733;stroke:#ee7733;" x="286.70969" xlink:href="#m6f5b531e8a" y="510.825863"/>
     <use style="fill:#ee7733;stroke:#ee7733;" x="252.985411" xlink:href="#m6f5b531e8a" y="514.56476"/>
     <use style="fill:#ee7733;stroke:#ee7733;" x="272.200627" xlink:href="#m6f5b531e8a" y="491.01119"/>
     <use style="fill:#ee7733;stroke:#ee7733;" x="272.087946" xlink:href="#m6f5b531e8a" y="512.31559"/>
     <use style="fill:#ee7733;stroke:#ee7733;" x="250.052977" xlink:href="#m6f5b531e8a" y="509.742208"/>
     <use style="fill:#ee7733;stroke:#ee7733;" x="318.590713" xlink:href="#m6f5b531e8a" y="502.511326"/>
     <use style="fill:#ee7733;stroke:#ee7733;" x="247.482419" xlink:href="#m6f5b531e8a" y="586.629928"/>
     <use style="fill:#ee7733;stroke:#ee7733;" x="286.261053" xlink:href="#m6f5b531e8a" y="550.331976"/>
     <use style="fill:#ee7733;stroke:#ee7733;" x="224.672738" xlink:href="#m6f5b531e8a" y="619.92322"/>
    </g>
   </g>
  </g>
  <g id="axes_3">
   <g id="patch_18">
    <path d="M 0 1080 
L 360 1080 
L 360 720 
L 0 720 
z
" style="fill:#ffffff;"/>
   </g>
   <g id="patch_19">
    <path clip-path="url(#p42b94fcddf)" d="M 147.843983 913.900632 
C 159.578927 913.900632 170.834817 910.586253 179.132675 904.687447 
C 187.430533 898.788642 192.092875 890.787022 192.092875 882.444851 
C 192.092875 874.10268 187.430533 866.10106 179.132675 860.202254 
C 170.834817 854.303449 159.578927 850.989069 147.843983 850.989069 
C 136.10904 850.989069 124.85315 854.303449 116.555292 860.202254 
C 108.257434 866.10106 103.595091 874.10268 103.595091 882.444851 
C 103.595091 890.787022 108.257434 898.788642 116.555292 904.687447 
C 124.85315 910.586253 136.10904 913.900632 147.843983 913.900632 
z
" style="fill:#0077bb;opacity:0.3;stroke:#0077bb;stroke-linejoin:miter;"/>
   </g>
   <g id="patch_20">
    <path clip-path="url(#p42b94fcddf)" d="M 154.426129 918.642325 
C 165.402162 918.642325 175.930123 915.369081 183.69135 909.543488 
C 191.452577 903.717896 195.813401 895.815587 195.813401 887.576955 
C 195.813401 879.338322 191.452577 871.436014 183.69135 865.610421 
C 175.930123 859.784828 165.402162 856.511585 154.426129 856.511585 
C 143.450097 856.511585 132.922136 859.784828 125.160909 865.610421 
C 117.399682 871.436014 113.038858 879.338322 113.038858 887.576955 
C 113.038858 895.815587 117.399682 903.717896 125.160909 909.543488 
C 132.922136 915.369081 143.450097 918.642325 154.426129 918.642325 
z
" style="fill:#009988;opacity:0.3;stroke:#009988;stroke-linejoin:miter;"/>
   </g>
   <g id="patch_21">
    <path clip-path="url(#p42b94fcddf)" d="M 130.185474 913.946496 
C 161.104865 913.946496 190.762041 909.718212 212.625352 902.192875 
C 234.488663 894.667538 246.773068 884.459557 246.773068 873.817123 
C 246.773068 863.174689 234.488663 852.966709 212.625352 845.441371 
C 190.762041 837.916034 161.104865 833.68775 130.185474 833.68775 
C 99.266083 833.68775 69.608907 837.916034 47.745596 845.441371 
C 25.882285 852.966709 13.597881 863.174689 13.597881 873.817123 
C 13.597881 884.459557 25.882285 894.667538 47.745596 902.192875 
C 69.608907 909.718212 99.266083 913.946496 130.185474 913.946496 
z
" style="fill:#ee7733;opacity:0.3;stroke:#ee7733;stroke-linejoin:miter;"/>
   </g>
   <g id="matplotlib.axis_5"/>
   <g id="matplotlib.axis_6"/>
   <g id="patch_22">
    <path d="M 0 1080 
L 0 720 
" style="fill:none;stroke:#000000;stroke-linecap:square;stroke-linejoin:miter;stroke-width:0.8;"/>
   </g>
   <g id="patch_23">
    <path d="M 360 1080 
L 360 720 
" style="fill:none;stroke:#000000;stroke-linecap:square;stroke-linejoin:miter;stroke-width:0.8;"/>
   </g>
   <g id="patch_24">
    <path d="M 0 1080 
L 360 1080 
" style="fill:none;stroke:#000000;stroke-linecap:square;stroke-linejoin:miter;stroke-width:0.8;"/>
   </g>
   <g id="patch_25">
    <path d="M 0 720 
L 360 720 
" style="fill:none;stroke:#000000;stroke-linecap:square;stroke-linejoin:miter;stroke-width:0.8;"/>
   </g>
   <g id="PathCollection_7">
    <g clip-path="url(#p42b94fcddf)">
     <use style="fill:#0077bb;stroke:#0077bb;" x="238.920754" xlink:href="#m1ea4847fee" y="928.458731"/>
    </g>
   </g>
   <g id="PathCollection_8">
    <g clip-path="url(#p42b94fcddf)">
     <use style="fill:#009988;stroke:#009988;" x="162.705578" xlink:href="#m060a97df31" y="887.952987"/>
     <use style="fill:#009988;stroke:#009988;" x="163.600008" xlink:href="#m060a97df31" y="887.8333"/>
     <use style="fill:#009988;stroke:#009988;" x="144.680218" xlink:href="#m060a97df31" y="890.359223"/>
     <use style="fill:#009988;stroke:#009988;" x="172.409298" xlink:href="#m060a97df31" y="904.851923"/>
     <use style="fill:#009988;stroke:#009988;" x="170.531829" xlink:href="#m060a97df31" y="899.891406"/>
     <use style="fill:#009988;stroke:#009988;" x="153.917089" xlink:href="#m060a97df31" y="898.941244"/>
     <use style="fill:#009988;stroke:#009988;" x="178.302648" xlink:href="#m060a97df31" y="891.491347"/>
     <use style="fill:#009988;stroke:#009988;" x="156.387082" xlink:href="#m060a97df31" y="878.98672"/>
     <use style="fill:#009988;stroke:#009988;" x="163.491479" xlink:href="#m060a97df31" y="902.301995"/>
     <use style="fill:#009988;stroke:#009988;" x="169.38728" xlink:href="#m060a97df31" y="878.647735"/>
     <use style="fill:#009988;stroke:#009988;" x="160.730006" xlink:href="#m060a97df31" y="887.787367"/>
     <use style="fill:#009988;stroke:#009988;" x="243.783996" xlink:href="#m060a97df31" y="897.255861"/>
     <use style="fill:#009988;stroke:#009988;" x="239.789622" xlink:href="#m060a97df31" y="878.418088"/>
     <use style="fill:#009988;stroke:#009988;" x="142.44392" xlink:href="#m060a97df31" y="890.540596"/>
     <use style="fill:#009988;stroke:#009988;" x="174.394601" xlink:href="#m060a97df31" y="889.591852"/>
     <use style="fill:#009988;stroke:#009988;" x="253.888557" xlink:href="#m060a97df31" y="915.981148"/>
     <use style="fill:#009988;stroke:#009988;" x="154.916131" xlink:href="#m060a97df31" y="903.878907"/>
     <use style="fill:#009988;stroke:#009988;" x="232.364573" xlink:href="#m060a97df31" y="890.662372"/>
     <use style="fill:#009988;stroke:#009988;" x="267.486291" xlink:href="#m060a97df31" y="895.719581"/>
     <use style="fill:#009988;stroke:#009988;" x="143.953264" xlink:href="#m060a97df31" y="889.539587"/>
     <use style="fill:#009988;stroke:#009988;" x="264.778597" xlink:href="#m060a97df31" y="893.886372"/>
     <use style="fill:#009988;stroke:#009988;" x="227.226198" xlink:href="#m060a97df31" y="878.218319"/>
     <use style="fill:#009988;stroke:#009988;" x="243.517063" xlink:href="#m060a97df31" y="881.012918"/>
     <use style="fill:#009988;stroke:#009988;" x="146.392833" xlink:href="#m060a97df31" y="913.970996"/>
    </g>
   </g>
   <g id="PathCollection_9">
    <g clip-path="url(#p42b94fcddf)">
     <use style="fill:#ee7733;stroke:#ee7733;" x="239.334183" xlink:href="#m6f5b531e8a" y="849.647248"/>
     <use style="fill:#ee7733;stroke:#ee7733;" x="252.01664" xlink:href="#m6f5b531e8a" y="869.993348"/>
     <use style="fill:#ee7733;stroke:#ee7733;" x="254.924111" xlink:href="#m6f5b531e8a" y="882.405961"/>
     <use style="fill:#ee7733;stroke:#ee7733;" x="259.354105" xlink:href="#m6f5b531e8a" y="866.849835"/>
     <use style="fill:#ee7733;stroke:#ee7733;" x="133.603828" xlink:href="#m6f5b531e8a" y="872.741582"/>
     <use style="fill:#ee7733;stroke:#ee7733;" x="170.551182" xlink:href="#m6f5b531e8a" y="863.165098"/>
     <use style="fill:#ee7733;stroke:#ee7733;" x="240.300736" xlink:href="#m6f5b531e8a" y="873.243166"/>
     <use style="fill:#ee7733;stroke:#ee7733;" x="227.747809" xlink:href="#m6f5b531e8a" y="858.83077"/>
     <use style="fill:#ee7733;stroke:#ee7733;" x="269.365346" xlink:href="#m6f5b531e8a" y="850.436686"/>
     <use style="fill:#ee7733;stroke:#ee7733;" x="272.184906" xlink:href="#m6f5b531e8a" y="856.017966"/>
     <use style="fill:#ee7733;stroke:#ee7733;" x="238.421263" xlink:href="#m6f5b531e8a" y="867.973913"/>
     <use style="fill:#ee7733;stroke:#ee7733;" x="250.705168" xlink:href="#m6f5b531e8a" y="857.331147"/>
     <use style="fill:#ee7733;stroke:#ee7733;" x="153.126025" xlink:href="#m6f5b531e8a" y="875.697402"/>
     <use style="fill:#ee7733;stroke:#ee7733;" x="256.144552" xlink:href="#m6f5b531e8a" y="869.918804"/>
     <use style="fill:#ee7733;stroke:#ee7733;" x="250.927684" xlink:href="#m6f5b531e8a" y="849.007212"/>
     <use style="fill:#ee7733;stroke:#ee7733;" x="226.07028" xlink:href="#m6f5b531e8a" y="858.287766"/>
     <use style="fill:#ee7733;stroke:#ee7733;" x="141.504328" xlink:href="#m6f5b531e8a" y="876.873702"/>
     <use style="fill:#ee7733;stroke:#ee7733;" x="279.145067" xlink:href="#m6f5b531e8a" y="868.775772"/>
     <use style="fill:#ee7733;stroke:#ee7733;" x="155.331699" xlink:href="#m6f5b531e8a" y="867.353933"/>
     <use style="fill:#ee7733;stroke:#ee7733;" x="255.631821" xlink:href="#m6f5b531e8a" y="873.628342"/>
     <use style="fill:#ee7733;stroke:#ee7733;" x="251.739492" xlink:href="#m6f5b531e8a" y="876.167221"/>
     <use style="fill:#ee7733;stroke:#ee7733;" x="261.792841" xlink:href="#m6f5b531e8a" y="869.989557"/>
     <use style="fill:#ee7733;stroke:#ee7733;" x="267.8983" xlink:href="#m6f5b531e8a" y="857.623086"/>
     <use style="fill:#ee7733;stroke:#ee7733;" x="253.817897" xlink:href="#m6f5b531e8a" y="883.742183"/>
     <use style="fill:#ee7733;stroke:#ee7733;" x="257.944357" xlink:href="#m6f5b531e8a" y="865.310515"/>
     <use style="fill:#ee7733;stroke:#ee7733;" x="243.740573" xlink:href="#m6f5b531e8a" y="865.911312"/>
     <use style="fill:#ee7733;stroke:#ee7733;" x="242.723837" xlink:href="#m6f5b531e8a" y="850.613505"/>
     <use style="fill:#ee7733;stroke:#ee7733;" x="155.740303" xlink:href="#m6f5b531e8a" y="858.347815"/>
     <use style="fill:#ee7733;stroke:#ee7733;" x="236.378742" xlink:href="#m6f5b531e8a" y="864.271806"/>
     <use style="fill:#ee7733;stroke:#ee7733;" x="286.96043" xlink:href="#m6f5b531e8a" y="857.864614"/>
     <use style="fill:#ee7733;stroke:#ee7733;" x="248.684685" xlink:href="#m6f5b531e8a" y="843.895698"/>
     <use style="fill:#ee7733;stroke:#ee7733;" x="250.502794" xlink:href="#m6f5b531e8a" y="858.944356"/>
     <use style="fill:#ee7733;stroke:#ee7733;" x="241.346269" xlink:href="#m6f5b531e8a" y="874.945643"/>
     <use style="fill:#ee7733;stroke:#ee7733;" x="262.89706" xlink:href="#m6f5b531e8a" y="852.317405"/>
     <use style="fill:#ee7733;stroke:#ee7733;" x="266.826732" xlink:href="#m6f5b531e8a" y="880.219402"/>
    </g>
   </g>
  </g>
  <g id="axes_4">
   <g id="patch_26">
    <path d="M 0 1440 
L 360 1440 
L 360 1080 
L 0 1080 
z
" style="fill:#ffffff;"/>
   </g>
   <g id="patch_27">
    <path clip-path="url(#p367854acba)" d="M 190.837319 1239.096705 
C 190.837318 1227.103737 187.010072 1215.600357 180.198487 1207.120048 
C 173.386902 1198.63974 164.147113 1193.874884 154.514077 1193.874884 
C 144.881041 1193.874885 135.641253 1198.639742 128.829669 1207.12005 
C 122.018084 1215.600359 118.190839 1227.103741 118.190839 1239.096708 
C 118.19084 1251.089676 122.018086 1262.593056 128.829671 1271.073365 
C 135.641257 1279.553673 144.881045 1284.318529 154.514081 1284.318529 
C 164.147117 1284.318528 173.386905 1279.553671 180.19849 1271.073363 
C 187.010074 1262.593054 190.837319 1251.089672 190.837319 1239.096705 
z
" style="fill:#0077bb;opacity:0.3;stroke:#0077bb;stroke-linejoin:miter;"/>
   </g>
   <g id="patch_28">
    <path clip-path="url(#p367854acba)" d="M 184.978777 1286.806551 
C 184.978777 1274.65707 181.092182 1263.003565 174.17497 1254.412585 
C 167.257758 1245.821605 157.874689 1240.994566 148.092275 1240.994566 
C 138.309861 1240.994567 128.926792 1245.821607 122.009581 1254.412588 
C 115.09237 1263.003568 111.205776 1274.657074 111.205777 1286.806555 
C 111.205777 1298.956036 115.092372 1310.609541 122.009584 1319.200521 
C 128.926796 1327.791501 138.309865 1332.61854 148.092279 1332.61854 
C 157.874693 1332.61854 167.257762 1327.791499 174.174973 1319.200518 
C 181.092184 1310.609538 184.978778 1298.956032 184.978777 1286.806551 
z
" style="fill:#009988;opacity:0.3;stroke:#009988;stroke-linejoin:miter;"/>
   </g>
   <g id="patch_29">
    <path clip-path="url(#p367854acba)" d="M 197.494755 1261.955765 
C 197.494753 1223.712558 190.434524 1187.030546 177.869002 1159.988516 
C 165.30348 1132.946486 148.258584 1117.7523 130.488253 1117.7523 
C 112.717923 1117.752301 95.673028 1132.946489 83.107508 1159.98852 
C 70.541989 1187.030551 63.481763 1223.712564 63.481765 1261.955771 
C 63.481766 1300.198977 70.541995 1336.880989 83.107517 1363.92302 
C 95.673039 1390.96505 112.717936 1406.159236 130.488266 1406.159235 
C 148.258596 1406.159234 165.303491 1390.965047 177.869011 1363.923015 
C 190.434531 1336.880984 197.494756 1300.198971 197.494755 1261.955765 
z
" style="fill:#ee7733;opacity:0.3;stroke:#ee7733;stroke-linejoin:miter;"/>
   </g>
   <g id="matplotlib.axis_7"/>
   <g id="matplotlib.axis_8"/>
   <g id="patch_30">
    <path d="M 0 1440 
L 0 1080 
" style="fill:none;stroke:#000000;stroke-linecap:square;stroke-linejoin:miter;stroke-width:0.8;"/>
   </g>
   <g id="patch_31">
    <path d="M 360 1440 
L 360 1080 
" style="fill:none;stroke:#000000;stroke-linecap:square;stroke-linejoin:miter;stroke-width:0.8;"/>
   </g>
   <g id="patch_32">
    <path d="M 0 1440 
L 360 1440 
" style="fill:none;stroke:#000000;stroke-linecap:square;stroke-linejoin:miter;stroke-width:0.8;"/>
   </g>
   <g id="patch_33">
    <path d="M 0 1080 
L 360 1080 
" style="fill:none;stroke:#000000;stroke-linecap:square;stroke-linejoin:miter;stroke-width:0.8;"/>
   </g>
   <g id="PathCollection_10">
    <g clip-path="url(#p367854acba)">
     <use style="fill:#0077bb;stroke:#0077bb;" x="189.622105" xlink:href="#m1ea4847fee" y="1203.21859"/>
     <use style="fill:#0077bb;stroke:#0077bb;" x="180.365653" xlink:href="#m1ea4847fee" y="1167.286849"/>
     <use style="fill:#0077bb;stroke:#0077bb;" x="157.232273" xlink:href="#m1ea4847fee" y="1163.37415"/>
     <use style="fill:#0077bb;stroke:#0077bb;" x="188.69911" xlink:href="#m1ea4847fee" y="1183.785381"/>
     <use style="fill:#0077bb;stroke:#0077bb;" x="207.423745" xlink:href="#m1ea4847fee" y="1180.73875"/>
     <use style="fill:#0077bb;stroke:#0077bb;" x="207.012112" xlink:href="#m1ea4847fee" y="1179.169028"/>
     <use style="fill:#0077bb;stroke:#0077bb;" x="184.946023" xlink:href="#m1ea4847fee" y="1154.134905"/>
     <use style="fill:#0077bb;stroke:#0077bb;" x="195.749931" xlink:href="#m1ea4847fee" y="1188.71835"/>
     <use style="fill:#0077bb;stroke:#0077bb;" x="190.354201" xlink:href="#m1ea4847fee" y="1166.949062"/>
     <use style="fill:#0077bb;stroke:#0077bb;" x="189.129254" xlink:href="#m1ea4847fee" y="1147.851748"/>
     <use style="fill:#0077bb;stroke:#0077bb;" x="191.571692" xlink:href="#m1ea4847fee" y="1185.362771"/>
     <use style="fill:#0077bb;stroke:#0077bb;" x="170.708608" xlink:href="#m1ea4847fee" y="1170.817165"/>
     <use style="fill:#0077bb;stroke:#0077bb;" x="155.173777" xlink:href="#m1ea4847fee" y="1194.088733"/>
     <use style="fill:#0077bb;stroke:#0077bb;" x="195.207489" xlink:href="#m1ea4847fee" y="1180.098331"/>
     <use style="fill:#0077bb;stroke:#0077bb;" x="201.493467" xlink:href="#m1ea4847fee" y="1195.608995"/>
     <use style="fill:#0077bb;stroke:#0077bb;" x="197.987323" xlink:href="#m1ea4847fee" y="1152.742553"/>
     <use style="fill:#0077bb;stroke:#0077bb;" x="191.904005" xlink:href="#m1ea4847fee" y="1148.620183"/>
    </g>
   </g>
   <g id="PathCollection_11">
    <g clip-path="url(#p367854acba)">
     <use style="fill:#009988;stroke:#009988;" x="191.621261" xlink:href="#m060a97df31" y="1336.626413"/>
     <use style="fill:#009988;stroke:#009988;" x="187.120934" xlink:href="#m060a97df31" y="1347.393909"/>
    </g>
   </g>
   <g id="PathCollection_12">
    <g clip-path="url(#p367854acba)">
     <use style="fill:#ee7733;stroke:#ee7733;" x="206.135901" xlink:href="#m6f5b531e8a" y="1369.001033"/>
     <use style="fill:#ee7733;stroke:#ee7733;" x="243.21888" xlink:href="#m6f5b531e8a" y="1279.258668"/>
     <use style="fill:#ee7733;stroke:#ee7733;" x="196.592499" xlink:href="#m6f5b531e8a" y="1353.936439"/>
     <use style="fill:#ee7733;stroke:#ee7733;" x="240.443115" xlink:href="#m6f5b531e8a" y="1330.872653"/>
     <use style="fill:#ee7733;stroke:#ee7733;" x="232.825971" xlink:href="#m6f5b531e8a" y="1288.125265"/>
     <use style="fill:#ee7733;stroke:#ee7733;" x="222.140132" xlink:href="#m6f5b531e8a" y="1167.55291"/>
     <use style="fill:#ee7733;stroke:#ee7733;" x="241.695921" xlink:href="#m6f5b531e8a" y="1257.569229"/>
     <use style="fill:#ee7733;stroke:#ee7733;" x="182.364489" xlink:href="#m6f5b531e8a" y="1361.263118"/>
     <use style="fill:#ee7733;stroke:#ee7733;" x="208.78451" xlink:href="#m6f5b531e8a" y="1346.573424"/>
     <use style="fill:#ee7733;stroke:#ee7733;" x="218.669221" xlink:href="#m6f5b531e8a" y="1333.767951"/>
     <use style="fill:#ee7733;stroke:#ee7733;" x="235.923657" xlink:href="#m6f5b531e8a" y="1259.660286"/>
     <use style="fill:#ee7733;stroke:#ee7733;" x="218.581481" xlink:href="#m6f5b531e8a" y="1328.708768"/>
     <use style="fill:#ee7733;stroke:#ee7733;" x="206.274015" xlink:href="#m6f5b531e8a" y="1337.93433"/>
     <use style="fill:#ee7733;stroke:#ee7733;" x="217.983806" xlink:href="#m6f5b531e8a" y="1268.153396"/>
     <use style="fill:#ee7733;stroke:#ee7733;" x="252.0662" xlink:href="#m6f5b531e8a" y="1272.168782"/>
     <use style="fill:#ee7733;stroke:#ee7733;" x="199.828341" xlink:href="#m6f5b531e8a" y="1362.157474"/>
     <use style="fill:#ee7733;stroke:#ee7733;" x="270.528617" xlink:href="#m6f5b531e8a" y="1254.716066"/>
     <use style="fill:#ee7733;stroke:#ee7733;" x="231.337581" xlink:href="#m6f5b531e8a" y="1337.674313"/>
     <use style="fill:#ee7733;stroke:#ee7733;" x="197.929605" xlink:href="#m6f5b531e8a" y="1347.996154"/>
     <use style="fill:#ee7733;stroke:#ee7733;" x="244.123199" xlink:href="#m6f5b531e8a" y="1288.27898"/>
     <use style="fill:#ee7733;stroke:#ee7733;" x="243.854041" xlink:href="#m6f5b531e8a" y="1286.48256"/>
     <use style="fill:#ee7733;stroke:#ee7733;" x="245.4196" xlink:href="#m6f5b531e8a" y="1279.60723"/>
     <use style="fill:#ee7733;stroke:#ee7733;" x="257.896707" xlink:href="#m6f5b531e8a" y="1257.401126"/>
     <use style="fill:#ee7733;stroke:#ee7733;" x="228.955947" xlink:href="#m6f5b531e8a" y="1275.584514"/>
     <use style="fill:#ee7733;stroke:#ee7733;" x="242.159193" xlink:href="#m6f5b531e8a" y="1340.403507"/>
     <use style="fill:#ee7733;stroke:#ee7733;" x="250.582917" xlink:href="#m6f5b531e8a" y="1285.311626"/>
     <use style="fill:#ee7733;stroke:#ee7733;" x="223.181427" xlink:href="#m6f5b531e8a" y="1243.322096"/>
     <use style="fill:#ee7733;stroke:#ee7733;" x="247.938344" xlink:href="#m6f5b531e8a" y="1249.819264"/>
     <use style="fill:#ee7733;stroke:#ee7733;" x="242.449329" xlink:href="#m6f5b531e8a" y="1268.479743"/>
     <use style="fill:#ee7733;stroke:#ee7733;" x="245.348425" xlink:href="#m6f5b531e8a" y="1263.236217"/>
     <use style="fill:#ee7733;stroke:#ee7733;" x="242.844043" xlink:href="#m6f5b531e8a" y="1272.923139"/>
     <use style="fill:#ee7733;stroke:#ee7733;" x="243.887322" xlink:href="#m6f5b531e8a" y="1269.972139"/>
     <use style="fill:#ee7733;stroke:#ee7733;" x="206.570061" xlink:href="#m6f5b531e8a" y="1361.376843"/>
     <use style="fill:#ee7733;stroke:#ee7733;" x="267.332983" xlink:href="#m6f5b531e8a" y="1234.698375"/>
     <use style="fill:#ee7733;stroke:#ee7733;" x="216.125443" xlink:href="#m6f5b531e8a" y="1333.91156"/>
     <use style="fill:#ee7733;stroke:#ee7733;" x="214.187772" xlink:href="#m6f5b531e8a" y="1266.084902"/>
     <use style="fill:#ee7733;stroke:#ee7733;" x="243.185241" xlink:href="#m6f5b531e8a" y="1238.319547"/>
     <use style="fill:#ee7733;stroke:#ee7733;" x="225.544721" xlink:href="#m6f5b531e8a" y="1327.567155"/>
     <use style="fill:#ee7733;stroke:#ee7733;" x="211.496336" xlink:href="#m6f5b531e8a" y="1359.693468"/>
     <use style="fill:#ee7733;stroke:#ee7733;" x="248.354859" xlink:href="#m6f5b531e8a" y="1260.428615"/>
     <use style="fill:#ee7733;stroke:#ee7733;" x="262.247114" xlink:href="#m6f5b531e8a" y="1268.167073"/>
    </g>
   </g>
  </g>
  <g id="axes_5">
   <g id="patch_34">
    <path d="M 0 1800 
L 360 1800 
L 360 1440 
L 0 1440 
z
" style="fill:#ffffff;"/>
   </g>
   <g id="patch_35">
    <path clip-path="url(#p7aae13364c)" d="M 186.593994 1652.875696 
C 196.254234 1652.875696 205.520117 1649.099981 212.350939 1642.38011 
C 219.181761 1635.660238 223.019815 1626.544857 223.019815 1617.041523 
C 223.019815 1607.538189 219.181761 1598.422808 212.350939 1591.702936 
C 205.520117 1584.983065 196.254234 1581.20735 186.593994 1581.20735 
C 176.933753 1581.20735 167.66787 1584.983065 160.837048 1591.702936 
C 154.006226 1598.422808 150.168172 1607.538189 150.168172 1617.041523 
C 150.168172 1626.544857 154.006226 1635.660238 160.837048 1642.38011 
C 167.66787 1649.099981 176.933753 1652.875696 186.593994 1652.875696 
z
" style="fill:#0077bb;opacity:0.3;stroke:#0077bb;stroke-linejoin:miter;"/>
   </g>
   <g id="patch_36">
    <path clip-path="url(#p7aae13364c)" d="M 191.321341 1667.756833 
C 202.032976 1667.756833 212.307332 1664.087882 219.881602 1657.558025 
C 227.455872 1651.028168 231.71165 1642.170539 231.71165 1632.935927 
C 231.71165 1623.701314 227.455872 1614.843685 219.881602 1608.313828 
C 212.307332 1601.783971 202.032976 1598.115021 191.321341 1598.115021 
C 180.609705 1598.115021 170.335349 1601.783971 162.761079 1608.313828 
C 155.186809 1614.843685 150.931031 1623.701314 150.931031 1632.935927 
C 150.931031 1642.170539 155.186809 1651.028168 162.761079 1657.558025 
C 170.335349 1664.087882 180.609705 1667.756833 191.321341 1667.756833 
z
" style="fill:#009988;opacity:0.3;stroke:#009988;stroke-linejoin:miter;"/>
   </g>
   <g id="patch_37">
    <path clip-path="url(#p7aae13364c)" d="M 195.465798 1712.57125 
C 223.001465 1712.57125 249.413051 1703.712268 268.883708 1687.945393 
C 288.354365 1672.178518 299.294402 1650.791045 299.294402 1628.493317 
C 299.294402 1606.195588 288.354365 1584.808115 268.883708 1569.04124 
C 249.413051 1553.274365 223.001465 1544.415384 195.465798 1544.415384 
C 167.93013 1544.415384 141.518545 1553.274365 122.047888 1569.04124 
C 102.57723 1584.808115 91.637194 1606.195588 91.637194 1628.493317 
C 91.637194 1650.791045 102.57723 1672.178518 122.047888 1687.945393 
C 141.518545 1703.712268 167.93013 1712.57125 195.465798 1712.57125 
z
" style="fill:#ee7733;opacity:0.3;stroke:#ee7733;stroke-linejoin:miter;"/>
   </g>
   <g id="matplotlib.axis_9"/>
   <g id="matplotlib.axis_10"/>
   <g id="patch_38">
    <path d="M 0 1800 
L 0 1440 
" style="fill:none;stroke:#000000;stroke-linecap:square;stroke-linejoin:miter;stroke-width:0.8;"/>
   </g>
   <g id="patch_39">
    <path d="M 360 1800 
L 360 1440 
" style="fill:none;stroke:#000000;stroke-linecap:square;stroke-linejoin:miter;stroke-width:0.8;"/>
   </g>
   <g id="patch_40">
    <path d="M 0 1800 
L 360 1800 
" style="fill:none;stroke:#000000;stroke-linecap:square;stroke-linejoin:miter;stroke-width:0.8;"/>
   </g>
   <g id="patch_41">
    <path d="M 0 1440 
L 360 1440 
" style="fill:none;stroke:#000000;stroke-linecap:square;stroke-linejoin:miter;stroke-width:0.8;"/>
   </g>
   <g id="PathCollection_13">
    <g clip-path="url(#p7aae13364c)">
     <use style="fill:#0077bb;stroke:#0077bb;" x="120.351237" xlink:href="#m1ea4847fee" y="1636.522937"/>
     <use style="fill:#0077bb;stroke:#0077bb;" x="128.476353" xlink:href="#m1ea4847fee" y="1637.738133"/>
     <use style="fill:#0077bb;stroke:#0077bb;" x="156.778421" xlink:href="#m1ea4847fee" y="1639.043623"/>
     <use style="fill:#0077bb;stroke:#0077bb;" x="144.835525" xlink:href="#m1ea4847fee" y="1631.197892"/>
     <use style="fill:#0077bb;stroke:#0077bb;" x="164.57289" xlink:href="#m1ea4847fee" y="1572.403293"/>
     <use style="fill:#0077bb;stroke:#0077bb;" x="184.926032" xlink:href="#m1ea4847fee" y="1592.134495"/>
     <use style="fill:#0077bb;stroke:#0077bb;" x="130.823454" xlink:href="#m1ea4847fee" y="1639.498551"/>
     <use style="fill:#0077bb;stroke:#0077bb;" x="175.782153" xlink:href="#m1ea4847fee" y="1571.425323"/>
     <use style="fill:#0077bb;stroke:#0077bb;" x="155.0733" xlink:href="#m1ea4847fee" y="1566.109622"/>
     <use style="fill:#0077bb;stroke:#0077bb;" x="182.08074" xlink:href="#m1ea4847fee" y="1630.741247"/>
     <use style="fill:#0077bb;stroke:#0077bb;" x="145.507976" xlink:href="#m1ea4847fee" y="1651.970508"/>
     <use style="fill:#0077bb;stroke:#0077bb;" x="164.11669" xlink:href="#m1ea4847fee" y="1586.353294"/>
     <use style="fill:#0077bb;stroke:#0077bb;" x="118.546078" xlink:href="#m1ea4847fee" y="1640.729392"/>
    </g>
   </g>
   <g id="PathCollection_14">
    <g clip-path="url(#p7aae13364c)">
     <use style="fill:#009988;stroke:#009988;" x="205.057729" xlink:href="#m060a97df31" y="1652.172804"/>
     <use style="fill:#009988;stroke:#009988;" x="241.304541" xlink:href="#m060a97df31" y="1643.919817"/>
     <use style="fill:#009988;stroke:#009988;" x="212.644447" xlink:href="#m060a97df31" y="1655.779073"/>
     <use style="fill:#009988;stroke:#009988;" x="221.101484" xlink:href="#m060a97df31" y="1655.262197"/>
     <use style="fill:#009988;stroke:#009988;" x="229.491792" xlink:href="#m060a97df31" y="1639.447235"/>
     <use style="fill:#009988;stroke:#009988;" x="178.210101" xlink:href="#m060a97df31" y="1650.565714"/>
     <use style="fill:#009988;stroke:#009988;" x="182.574922" xlink:href="#m060a97df31" y="1644.844308"/>
     <use style="fill:#009988;stroke:#009988;" x="228.868511" xlink:href="#m060a97df31" y="1651.159537"/>
     <use style="fill:#009988;stroke:#009988;" x="210.687114" xlink:href="#m060a97df31" y="1646.287968"/>
     <use style="fill:#009988;stroke:#009988;" x="194.559622" xlink:href="#m060a97df31" y="1628.990952"/>
     <use style="fill:#009988;stroke:#009988;" x="227.23114" xlink:href="#m060a97df31" y="1649.05306"/>
     <use style="fill:#009988;stroke:#009988;" x="199.339138" xlink:href="#m060a97df31" y="1643.180616"/>
     <use style="fill:#009988;stroke:#009988;" x="196.745603" xlink:href="#m060a97df31" y="1642.058154"/>
     <use style="fill:#009988;stroke:#009988;" x="217.574226" xlink:href="#m060a97df31" y="1629.573653"/>
     <use style="fill:#009988;stroke:#009988;" x="214.448383" xlink:href="#m060a97df31" y="1646.53681"/>
    </g>
   </g>
   <g id="PathCollection_15">
    <g clip-path="url(#p7aae13364c)">
     <use style="fill:#ee7733;stroke:#ee7733;" x="186.996681" xlink:href="#m6f5b531e8a" y="1562.439373"/>
     <use style="fill:#ee7733;stroke:#ee7733;" x="188.788447" xlink:href="#m6f5b531e8a" y="1560.863839"/>
     <use style="fill:#ee7733;stroke:#ee7733;" x="102.759361" xlink:href="#m6f5b531e8a" y="1658.701383"/>
     <use style="fill:#ee7733;stroke:#ee7733;" x="70.830116" xlink:href="#m6f5b531e8a" y="1676.933767"/>
     <use style="fill:#ee7733;stroke:#ee7733;" x="97.269201" xlink:href="#m6f5b531e8a" y="1652.602415"/>
     <use style="fill:#ee7733;stroke:#ee7733;" x="112.057643" xlink:href="#m6f5b531e8a" y="1658.428388"/>
     <use style="fill:#ee7733;stroke:#ee7733;" x="141.105992" xlink:href="#m6f5b531e8a" y="1662.496566"/>
     <use style="fill:#ee7733;stroke:#ee7733;" x="186.064426" xlink:href="#m6f5b531e8a" y="1564.988129"/>
     <use style="fill:#ee7733;stroke:#ee7733;" x="81.007626" xlink:href="#m6f5b531e8a" y="1662.664407"/>
     <use style="fill:#ee7733;stroke:#ee7733;" x="110.062859" xlink:href="#m6f5b531e8a" y="1661.433113"/>
     <use style="fill:#ee7733;stroke:#ee7733;" x="167.443624" xlink:href="#m6f5b531e8a" y="1561.180751"/>
     <use style="fill:#ee7733;stroke:#ee7733;" x="174.918443" xlink:href="#m6f5b531e8a" y="1558.528991"/>
     <use style="fill:#ee7733;stroke:#ee7733;" x="200.798113" xlink:href="#m6f5b531e8a" y="1658.774103"/>
     <use style="fill:#ee7733;stroke:#ee7733;" x="192.125553" xlink:href="#m6f5b531e8a" y="1573.115762"/>
     <use style="fill:#ee7733;stroke:#ee7733;" x="224.552071" xlink:href="#m6f5b531e8a" y="1672.886281"/>
     <use style="fill:#ee7733;stroke:#ee7733;" x="139.729486" xlink:href="#m6f5b531e8a" y="1654.243147"/>
     <use style="fill:#ee7733;stroke:#ee7733;" x="144.637413" xlink:href="#m6f5b531e8a" y="1672.214806"/>
     <use style="fill:#ee7733;stroke:#ee7733;" x="93.59127" xlink:href="#m6f5b531e8a" y="1656.578135"/>
     <use style="fill:#ee7733;stroke:#ee7733;" x="88.033705" xlink:href="#m6f5b531e8a" y="1663.259268"/>
     <use style="fill:#ee7733;stroke:#ee7733;" x="179.318154" xlink:href="#m6f5b531e8a" y="1663.631018"/>
     <use style="fill:#ee7733;stroke:#ee7733;" x="192.680546" xlink:href="#m6f5b531e8a" y="1558.71716"/>
     <use style="fill:#ee7733;stroke:#ee7733;" x="180.06668" xlink:href="#m6f5b531e8a" y="1566.765575"/>
     <use style="fill:#ee7733;stroke:#ee7733;" x="133.952408" xlink:href="#m6f5b531e8a" y="1665.663528"/>
     <use style="fill:#ee7733;stroke:#ee7733;" x="196.86695" xlink:href="#m6f5b531e8a" y="1572.759011"/>
     <use style="fill:#ee7733;stroke:#ee7733;" x="106.118767" xlink:href="#m6f5b531e8a" y="1647.433564"/>
     <use style="fill:#ee7733;stroke:#ee7733;" x="165.198744" xlink:href="#m6f5b531e8a" y="1559.788313"/>
     <use style="fill:#ee7733;stroke:#ee7733;" x="176.769808" xlink:href="#m6f5b531e8a" y="1566.179971"/>
     <use style="fill:#ee7733;stroke:#ee7733;" x="200.491295" xlink:href="#m6f5b531e8a" y="1560.446656"/>
     <use style="fill:#ee7733;stroke:#ee7733;" x="198.918511" xlink:href="#m6f5b531e8a" y="1666.668262"/>
     <use style="fill:#ee7733;stroke:#ee7733;" x="191.074937" xlink:href="#m6f5b531e8a" y="1670.342356"/>
     <use style="fill:#ee7733;stroke:#ee7733;" x="176.610425" xlink:href="#m6f5b531e8a" y="1657.03714"/>
     <use style="fill:#ee7733;stroke:#ee7733;" x="122.47319" xlink:href="#m6f5b531e8a" y="1653.377634"/>
    </g>
   </g>
  </g>
 </g>
 <defs>
  <clipPath id="pcbc35a0195">
   <rect height="360" width="360" x="0" y="0"/>
  </clipPath>
  <clipPath id="p320950c9dc">
   <rect height="360" width="360" x="0" y="360"/>
  </clipPath>
  <clipPath id="p42b94fcddf">
   <rect height="360" width="360" x="0" y="720"/>
  </clipPath>
  <clipPath id="p367854acba">
   <rect height="360" width="360" x="0" y="1080"/>
  </clipPath>
  <clipPath id="p7aae13364c">
   <rect height="360" width="360" x="0" y="1440"/>
  </clipPath>
 </defs>
</svg>
