<?xml version="1.0" encoding="utf-8" standalone="no"?>
<!DOCTYPE svg PUBLIC "-//W3C//DTD SVG 1.1//EN"
  "http://www.w3.org/Graphics/SVG/1.1/DTD/svg11.dtd">
<!-- Created with matplotlib (https://matplotlib.org/) -->
<svg height="1152pt" version="1.1" viewBox="0 0 1152 1152" width="1152pt" xmlns="http://www.w3.org/2000/svg" xmlns:xlink="http://www.w3.org/1999/xlink">
 <defs>
  <style type="text/css">
*{stroke-linecap:butt;stroke-linejoin:round;}
  </style>
 </defs>
 <g id="figure_1">
  <g id="patch_1">
   <path d="M 0 1152 
L 1152 1152 
L 1152 0 
L 0 0 
z
" style="fill:#ffffff;"/>
  </g>
  <g id="axes_1">
   <g id="patch_2">
    <path d="M 144 1008 
L 1036.8 1008 
L 1036.8 138.24 
L 144 138.24 
z
" style="fill:#ffffff;"/>
   </g>
   <g id="matplotlib.axis_1"/>
   <g id="matplotlib.axis_2"/>
   <g id="patch_3">
    <path d="M 144 1008 
L 144 138.24 
" style="fill:none;stroke:#000000;stroke-linecap:square;stroke-linejoin:miter;stroke-width:0.8;"/>
   </g>
   <g id="patch_4">
    <path d="M 1036.8 1008 
L 1036.8 138.24 
" style="fill:none;stroke:#000000;stroke-linecap:square;stroke-linejoin:miter;stroke-width:0.8;"/>
   </g>
   <g id="patch_5">
    <path d="M 144 1008 
L 1036.8 1008 
" style="fill:none;stroke:#000000;stroke-linecap:square;stroke-linejoin:miter;stroke-width:0.8;"/>
   </g>
   <g id="patch_6">
    <path d="M 144 138.24 
L 1036.8 138.24 
" style="fill:none;stroke:#000000;stroke-linecap:square;stroke-linejoin:miter;stroke-width:0.8;"/>
   </g>
  </g>
  <g id="axes_2">
   <g id="patch_7">
    <path d="M 144 1008 
L 1036.8 1008 
L 1036.8 138.24 
L 144 138.24 
z
" style="fill:#ffffff;"/>
   </g>
   <g id="matplotlib.axis_3">
    <g id="xtick_1">
     <g id="line2d_1">
      <defs>
       <path d="M 0 0 
L 0 3.5 
" id="m6cc6d39599" style="stroke:#000000;stroke-width:0.8;"/>
      </defs>
      <g>
       <use style="stroke:#000000;stroke-width:0.8;" x="184.581818" xlink:href="#m6cc6d39599" y="1008"/>
      </g>
     </g>
     <g id="text_1">
      <!-- 0 -->
      <defs>
       <path d="M 31.78125 66.40625 
Q 24.171875 66.40625 20.328125 58.90625 
Q 16.5 51.421875 16.5 36.375 
Q 16.5 21.390625 20.328125 13.890625 
Q 24.171875 6.390625 31.78125 6.390625 
Q 39.453125 6.390625 43.28125 13.890625 
Q 47.125 21.390625 47.125 36.375 
Q 47.125 51.421875 43.28125 58.90625 
Q 39.453125 66.40625 31.78125 66.40625 
z
M 31.78125 74.21875 
Q 44.046875 74.21875 50.515625 64.515625 
Q 56.984375 54.828125 56.984375 36.375 
Q 56.984375 17.96875 50.515625 8.265625 
Q 44.046875 -1.421875 31.78125 -1.421875 
Q 19.53125 -1.421875 13.0625 8.265625 
Q 6.59375 17.96875 6.59375 36.375 
Q 6.59375 54.828125 13.0625 64.515625 
Q 19.53125 74.21875 31.78125 74.21875 
z
" id="DejaVuSans-48"/>
      </defs>
      <g transform="translate(178.855568 1028.677187)scale(0.18 -0.18)">
       <use xlink:href="#DejaVuSans-48"/>
      </g>
     </g>
    </g>
    <g id="xtick_2">
     <g id="line2d_2">
      <g>
       <use style="stroke:#000000;stroke-width:0.8;" x="347.071581" xlink:href="#m6cc6d39599" y="1008"/>
      </g>
     </g>
     <g id="text_2">
      <!-- 200 -->
      <defs>
       <path d="M 19.1875 8.296875 
L 53.609375 8.296875 
L 53.609375 0 
L 7.328125 0 
L 7.328125 8.296875 
Q 12.9375 14.109375 22.625 23.890625 
Q 32.328125 33.6875 34.8125 36.53125 
Q 39.546875 41.84375 41.421875 45.53125 
Q 43.3125 49.21875 43.3125 52.78125 
Q 43.3125 58.59375 39.234375 62.25 
Q 35.15625 65.921875 28.609375 65.921875 
Q 23.96875 65.921875 18.8125 64.3125 
Q 13.671875 62.703125 7.8125 59.421875 
L 7.8125 69.390625 
Q 13.765625 71.78125 18.9375 73 
Q 24.125 74.21875 28.421875 74.21875 
Q 39.75 74.21875 46.484375 68.546875 
Q 53.21875 62.890625 53.21875 53.421875 
Q 53.21875 48.921875 51.53125 44.890625 
Q 49.859375 40.875 45.40625 35.40625 
Q 44.1875 33.984375 37.640625 27.21875 
Q 31.109375 20.453125 19.1875 8.296875 
z
" id="DejaVuSans-50"/>
      </defs>
      <g transform="translate(329.892831 1028.677187)scale(0.18 -0.18)">
       <use xlink:href="#DejaVuSans-50"/>
       <use x="63.623047" xlink:href="#DejaVuSans-48"/>
       <use x="127.246094" xlink:href="#DejaVuSans-48"/>
      </g>
     </g>
    </g>
    <g id="xtick_3">
     <g id="line2d_3">
      <g>
       <use style="stroke:#000000;stroke-width:0.8;" x="509.561343" xlink:href="#m6cc6d39599" y="1008"/>
      </g>
     </g>
     <g id="text_3">
      <!-- 400 -->
      <defs>
       <path d="M 37.796875 64.3125 
L 12.890625 25.390625 
L 37.796875 25.390625 
z
M 35.203125 72.90625 
L 47.609375 72.90625 
L 47.609375 25.390625 
L 58.015625 25.390625 
L 58.015625 17.1875 
L 47.609375 17.1875 
L 47.609375 0 
L 37.796875 0 
L 37.796875 17.1875 
L 4.890625 17.1875 
L 4.890625 26.703125 
z
" id="DejaVuSans-52"/>
      </defs>
      <g transform="translate(492.382593 1028.677187)scale(0.18 -0.18)">
       <use xlink:href="#DejaVuSans-52"/>
       <use x="63.623047" xlink:href="#DejaVuSans-48"/>
       <use x="127.246094" xlink:href="#DejaVuSans-48"/>
      </g>
     </g>
    </g>
    <g id="xtick_4">
     <g id="line2d_4">
      <g>
       <use style="stroke:#000000;stroke-width:0.8;" x="672.051106" xlink:href="#m6cc6d39599" y="1008"/>
      </g>
     </g>
     <g id="text_4">
      <!-- 600 -->
      <defs>
       <path d="M 33.015625 40.375 
Q 26.375 40.375 22.484375 35.828125 
Q 18.609375 31.296875 18.609375 23.390625 
Q 18.609375 15.53125 22.484375 10.953125 
Q 26.375 6.390625 33.015625 6.390625 
Q 39.65625 6.390625 43.53125 10.953125 
Q 47.40625 15.53125 47.40625 23.390625 
Q 47.40625 31.296875 43.53125 35.828125 
Q 39.65625 40.375 33.015625 40.375 
z
M 52.59375 71.296875 
L 52.59375 62.3125 
Q 48.875 64.0625 45.09375 64.984375 
Q 41.3125 65.921875 37.59375 65.921875 
Q 27.828125 65.921875 22.671875 59.328125 
Q 17.53125 52.734375 16.796875 39.40625 
Q 19.671875 43.65625 24.015625 45.921875 
Q 28.375 48.1875 33.59375 48.1875 
Q 44.578125 48.1875 50.953125 41.515625 
Q 57.328125 34.859375 57.328125 23.390625 
Q 57.328125 12.15625 50.6875 5.359375 
Q 44.046875 -1.421875 33.015625 -1.421875 
Q 20.359375 -1.421875 13.671875 8.265625 
Q 6.984375 17.96875 6.984375 36.375 
Q 6.984375 53.65625 15.1875 63.9375 
Q 23.390625 74.21875 37.203125 74.21875 
Q 40.921875 74.21875 44.703125 73.484375 
Q 48.484375 72.75 52.59375 71.296875 
z
" id="DejaVuSans-54"/>
      </defs>
      <g transform="translate(654.872356 1028.677187)scale(0.18 -0.18)">
       <use xlink:href="#DejaVuSans-54"/>
       <use x="63.623047" xlink:href="#DejaVuSans-48"/>
       <use x="127.246094" xlink:href="#DejaVuSans-48"/>
      </g>
     </g>
    </g>
    <g id="xtick_5">
     <g id="line2d_5">
      <g>
       <use style="stroke:#000000;stroke-width:0.8;" x="834.540868" xlink:href="#m6cc6d39599" y="1008"/>
      </g>
     </g>
     <g id="text_5">
      <!-- 800 -->
      <defs>
       <path d="M 31.78125 34.625 
Q 24.75 34.625 20.71875 30.859375 
Q 16.703125 27.09375 16.703125 20.515625 
Q 16.703125 13.921875 20.71875 10.15625 
Q 24.75 6.390625 31.78125 6.390625 
Q 38.8125 6.390625 42.859375 10.171875 
Q 46.921875 13.96875 46.921875 20.515625 
Q 46.921875 27.09375 42.890625 30.859375 
Q 38.875 34.625 31.78125 34.625 
z
M 21.921875 38.8125 
Q 15.578125 40.375 12.03125 44.71875 
Q 8.5 49.078125 8.5 55.328125 
Q 8.5 64.0625 14.71875 69.140625 
Q 20.953125 74.21875 31.78125 74.21875 
Q 42.671875 74.21875 48.875 69.140625 
Q 55.078125 64.0625 55.078125 55.328125 
Q 55.078125 49.078125 51.53125 44.71875 
Q 48 40.375 41.703125 38.8125 
Q 48.828125 37.15625 52.796875 32.3125 
Q 56.78125 27.484375 56.78125 20.515625 
Q 56.78125 9.90625 50.3125 4.234375 
Q 43.84375 -1.421875 31.78125 -1.421875 
Q 19.734375 -1.421875 13.25 4.234375 
Q 6.78125 9.90625 6.78125 20.515625 
Q 6.78125 27.484375 10.78125 32.3125 
Q 14.796875 37.15625 21.921875 38.8125 
z
M 18.3125 54.390625 
Q 18.3125 48.734375 21.84375 45.5625 
Q 25.390625 42.390625 31.78125 42.390625 
Q 38.140625 42.390625 41.71875 45.5625 
Q 45.3125 48.734375 45.3125 54.390625 
Q 45.3125 60.0625 41.71875 63.234375 
Q 38.140625 66.40625 31.78125 66.40625 
Q 25.390625 66.40625 21.84375 63.234375 
Q 18.3125 60.0625 18.3125 54.390625 
z
" id="DejaVuSans-56"/>
      </defs>
      <g transform="translate(817.362118 1028.677187)scale(0.18 -0.18)">
       <use xlink:href="#DejaVuSans-56"/>
       <use x="63.623047" xlink:href="#DejaVuSans-48"/>
       <use x="127.246094" xlink:href="#DejaVuSans-48"/>
      </g>
     </g>
    </g>
    <g id="xtick_6">
     <g id="line2d_6">
      <g>
       <use style="stroke:#000000;stroke-width:0.8;" x="997.030631" xlink:href="#m6cc6d39599" y="1008"/>
      </g>
     </g>
     <g id="text_6">
      <!-- 1000 -->
      <defs>
       <path d="M 12.40625 8.296875 
L 28.515625 8.296875 
L 28.515625 63.921875 
L 10.984375 60.40625 
L 10.984375 69.390625 
L 28.421875 72.90625 
L 38.28125 72.90625 
L 38.28125 8.296875 
L 54.390625 8.296875 
L 54.390625 0 
L 12.40625 0 
z
" id="DejaVuSans-49"/>
      </defs>
      <g transform="translate(974.125631 1028.677187)scale(0.18 -0.18)">
       <use xlink:href="#DejaVuSans-49"/>
       <use x="63.623047" xlink:href="#DejaVuSans-48"/>
       <use x="127.246094" xlink:href="#DejaVuSans-48"/>
       <use x="190.869141" xlink:href="#DejaVuSans-48"/>
      </g>
     </g>
    </g>
    <g id="text_7">
     <!-- epoch -->
     <defs>
      <path d="M 56.203125 29.59375 
L 56.203125 25.203125 
L 14.890625 25.203125 
Q 15.484375 15.921875 20.484375 11.0625 
Q 25.484375 6.203125 34.421875 6.203125 
Q 39.59375 6.203125 44.453125 7.46875 
Q 49.3125 8.734375 54.109375 11.28125 
L 54.109375 2.78125 
Q 49.265625 0.734375 44.1875 -0.34375 
Q 39.109375 -1.421875 33.890625 -1.421875 
Q 20.796875 -1.421875 13.15625 6.1875 
Q 5.515625 13.8125 5.515625 26.8125 
Q 5.515625 40.234375 12.765625 48.109375 
Q 20.015625 56 32.328125 56 
Q 43.359375 56 49.78125 48.890625 
Q 56.203125 41.796875 56.203125 29.59375 
z
M 47.21875 32.234375 
Q 47.125 39.59375 43.09375 43.984375 
Q 39.0625 48.390625 32.421875 48.390625 
Q 24.90625 48.390625 20.390625 44.140625 
Q 15.875 39.890625 15.1875 32.171875 
z
" id="DejaVuSans-101"/>
      <path d="M 18.109375 8.203125 
L 18.109375 -20.796875 
L 9.078125 -20.796875 
L 9.078125 54.6875 
L 18.109375 54.6875 
L 18.109375 46.390625 
Q 20.953125 51.265625 25.265625 53.625 
Q 29.59375 56 35.59375 56 
Q 45.5625 56 51.78125 48.09375 
Q 58.015625 40.1875 58.015625 27.296875 
Q 58.015625 14.40625 51.78125 6.484375 
Q 45.5625 -1.421875 35.59375 -1.421875 
Q 29.59375 -1.421875 25.265625 0.953125 
Q 20.953125 3.328125 18.109375 8.203125 
z
M 48.6875 27.296875 
Q 48.6875 37.203125 44.609375 42.84375 
Q 40.53125 48.484375 33.40625 48.484375 
Q 26.265625 48.484375 22.1875 42.84375 
Q 18.109375 37.203125 18.109375 27.296875 
Q 18.109375 17.390625 22.1875 11.75 
Q 26.265625 6.109375 33.40625 6.109375 
Q 40.53125 6.109375 44.609375 11.75 
Q 48.6875 17.390625 48.6875 27.296875 
z
" id="DejaVuSans-112"/>
      <path d="M 30.609375 48.390625 
Q 23.390625 48.390625 19.1875 42.75 
Q 14.984375 37.109375 14.984375 27.296875 
Q 14.984375 17.484375 19.15625 11.84375 
Q 23.34375 6.203125 30.609375 6.203125 
Q 37.796875 6.203125 41.984375 11.859375 
Q 46.1875 17.53125 46.1875 27.296875 
Q 46.1875 37.015625 41.984375 42.703125 
Q 37.796875 48.390625 30.609375 48.390625 
z
M 30.609375 56 
Q 42.328125 56 49.015625 48.375 
Q 55.71875 40.765625 55.71875 27.296875 
Q 55.71875 13.875 49.015625 6.21875 
Q 42.328125 -1.421875 30.609375 -1.421875 
Q 18.84375 -1.421875 12.171875 6.21875 
Q 5.515625 13.875 5.515625 27.296875 
Q 5.515625 40.765625 12.171875 48.375 
Q 18.84375 56 30.609375 56 
z
" id="DejaVuSans-111"/>
      <path d="M 48.78125 52.59375 
L 48.78125 44.1875 
Q 44.96875 46.296875 41.140625 47.34375 
Q 37.3125 48.390625 33.40625 48.390625 
Q 24.65625 48.390625 19.8125 42.84375 
Q 14.984375 37.3125 14.984375 27.296875 
Q 14.984375 17.28125 19.8125 11.734375 
Q 24.65625 6.203125 33.40625 6.203125 
Q 37.3125 6.203125 41.140625 7.25 
Q 44.96875 8.296875 48.78125 10.40625 
L 48.78125 2.09375 
Q 45.015625 0.34375 40.984375 -0.53125 
Q 36.96875 -1.421875 32.421875 -1.421875 
Q 20.0625 -1.421875 12.78125 6.34375 
Q 5.515625 14.109375 5.515625 27.296875 
Q 5.515625 40.671875 12.859375 48.328125 
Q 20.21875 56 33.015625 56 
Q 37.15625 56 41.109375 55.140625 
Q 45.0625 54.296875 48.78125 52.59375 
z
" id="DejaVuSans-99"/>
      <path d="M 54.890625 33.015625 
L 54.890625 0 
L 45.90625 0 
L 45.90625 32.71875 
Q 45.90625 40.484375 42.875 44.328125 
Q 39.84375 48.1875 33.796875 48.1875 
Q 26.515625 48.1875 22.3125 43.546875 
Q 18.109375 38.921875 18.109375 30.90625 
L 18.109375 0 
L 9.078125 0 
L 9.078125 75.984375 
L 18.109375 75.984375 
L 18.109375 46.1875 
Q 21.34375 51.125 25.703125 53.5625 
Q 30.078125 56 35.796875 56 
Q 45.21875 56 50.046875 50.171875 
Q 54.890625 44.34375 54.890625 33.015625 
z
" id="DejaVuSans-104"/>
     </defs>
     <g transform="translate(566.035 1048.578125)scale(0.16 -0.16)">
      <use xlink:href="#DejaVuSans-101"/>
      <use x="61.523438" xlink:href="#DejaVuSans-112"/>
      <use x="125" xlink:href="#DejaVuSans-111"/>
      <use x="186.181641" xlink:href="#DejaVuSans-99"/>
      <use x="241.162109" xlink:href="#DejaVuSans-104"/>
     </g>
    </g>
   </g>
   <g id="matplotlib.axis_4">
    <g id="ytick_1">
     <g id="line2d_7">
      <defs>
       <path d="M 0 0 
L -3.5 0 
" id="mf8e39a0c72" style="stroke:#000000;stroke-width:0.8;"/>
      </defs>
      <g>
       <use style="stroke:#000000;stroke-width:0.8;" x="144" xlink:href="#mf8e39a0c72" y="969.639937"/>
      </g>
     </g>
     <g id="text_8">
      <!-- 0 -->
      <g transform="translate(125.5475 976.478531)scale(0.18 -0.18)">
       <use xlink:href="#DejaVuSans-48"/>
      </g>
     </g>
    </g>
    <g id="ytick_2">
     <g id="line2d_8">
      <g>
       <use style="stroke:#000000;stroke-width:0.8;" x="144" xlink:href="#mf8e39a0c72" y="806.684952"/>
      </g>
     </g>
     <g id="text_9">
      <!-- 200 -->
      <g transform="translate(102.6425 813.523546)scale(0.18 -0.18)">
       <use xlink:href="#DejaVuSans-50"/>
       <use x="63.623047" xlink:href="#DejaVuSans-48"/>
       <use x="127.246094" xlink:href="#DejaVuSans-48"/>
      </g>
     </g>
    </g>
    <g id="ytick_3">
     <g id="line2d_9">
      <g>
       <use style="stroke:#000000;stroke-width:0.8;" x="144" xlink:href="#mf8e39a0c72" y="643.729967"/>
      </g>
     </g>
     <g id="text_10">
      <!-- 400 -->
      <g transform="translate(102.6425 650.568561)scale(0.18 -0.18)">
       <use xlink:href="#DejaVuSans-52"/>
       <use x="63.623047" xlink:href="#DejaVuSans-48"/>
       <use x="127.246094" xlink:href="#DejaVuSans-48"/>
      </g>
     </g>
    </g>
    <g id="ytick_4">
     <g id="line2d_10">
      <g>
       <use style="stroke:#000000;stroke-width:0.8;" x="144" xlink:href="#mf8e39a0c72" y="480.774983"/>
      </g>
     </g>
     <g id="text_11">
      <!-- 600 -->
      <g transform="translate(102.6425 487.613576)scale(0.18 -0.18)">
       <use xlink:href="#DejaVuSans-54"/>
       <use x="63.623047" xlink:href="#DejaVuSans-48"/>
       <use x="127.246094" xlink:href="#DejaVuSans-48"/>
      </g>
     </g>
    </g>
    <g id="ytick_5">
     <g id="line2d_11">
      <g>
       <use style="stroke:#000000;stroke-width:0.8;" x="144" xlink:href="#mf8e39a0c72" y="317.819998"/>
      </g>
     </g>
     <g id="text_12">
      <!-- 800 -->
      <g transform="translate(102.6425 324.658592)scale(0.18 -0.18)">
       <use xlink:href="#DejaVuSans-56"/>
       <use x="63.623047" xlink:href="#DejaVuSans-48"/>
       <use x="127.246094" xlink:href="#DejaVuSans-48"/>
      </g>
     </g>
    </g>
    <g id="ytick_6">
     <g id="line2d_12">
      <g>
       <use style="stroke:#000000;stroke-width:0.8;" x="144" xlink:href="#mf8e39a0c72" y="154.865013"/>
      </g>
     </g>
     <g id="text_13">
      <!-- 1000 -->
      <g transform="translate(91.19 161.703607)scale(0.18 -0.18)">
       <use xlink:href="#DejaVuSans-49"/>
       <use x="63.623047" xlink:href="#DejaVuSans-48"/>
       <use x="127.246094" xlink:href="#DejaVuSans-48"/>
       <use x="190.869141" xlink:href="#DejaVuSans-48"/>
      </g>
     </g>
    </g>
    <g id="text_14">
     <!-- Effective Sample Size -->
     <defs>
      <path d="M 9.8125 72.90625 
L 55.90625 72.90625 
L 55.90625 64.59375 
L 19.671875 64.59375 
L 19.671875 43.015625 
L 54.390625 43.015625 
L 54.390625 34.71875 
L 19.671875 34.71875 
L 19.671875 8.296875 
L 56.78125 8.296875 
L 56.78125 0 
L 9.8125 0 
z
" id="DejaVuSans-69"/>
      <path d="M 37.109375 75.984375 
L 37.109375 68.5 
L 28.515625 68.5 
Q 23.6875 68.5 21.796875 66.546875 
Q 19.921875 64.59375 19.921875 59.515625 
L 19.921875 54.6875 
L 34.71875 54.6875 
L 34.71875 47.703125 
L 19.921875 47.703125 
L 19.921875 0 
L 10.890625 0 
L 10.890625 47.703125 
L 2.296875 47.703125 
L 2.296875 54.6875 
L 10.890625 54.6875 
L 10.890625 58.5 
Q 10.890625 67.625 15.140625 71.796875 
Q 19.390625 75.984375 28.609375 75.984375 
z
" id="DejaVuSans-102"/>
      <path d="M 18.3125 70.21875 
L 18.3125 54.6875 
L 36.8125 54.6875 
L 36.8125 47.703125 
L 18.3125 47.703125 
L 18.3125 18.015625 
Q 18.3125 11.328125 20.140625 9.421875 
Q 21.96875 7.515625 27.59375 7.515625 
L 36.8125 7.515625 
L 36.8125 0 
L 27.59375 0 
Q 17.1875 0 13.234375 3.875 
Q 9.28125 7.765625 9.28125 18.015625 
L 9.28125 47.703125 
L 2.6875 47.703125 
L 2.6875 54.6875 
L 9.28125 54.6875 
L 9.28125 70.21875 
z
" id="DejaVuSans-116"/>
      <path d="M 9.421875 54.6875 
L 18.40625 54.6875 
L 18.40625 0 
L 9.421875 0 
z
M 9.421875 75.984375 
L 18.40625 75.984375 
L 18.40625 64.59375 
L 9.421875 64.59375 
z
" id="DejaVuSans-105"/>
      <path d="M 2.984375 54.6875 
L 12.5 54.6875 
L 29.59375 8.796875 
L 46.6875 54.6875 
L 56.203125 54.6875 
L 35.6875 0 
L 23.484375 0 
z
" id="DejaVuSans-118"/>
      <path id="DejaVuSans-32"/>
      <path d="M 53.515625 70.515625 
L 53.515625 60.890625 
Q 47.90625 63.578125 42.921875 64.890625 
Q 37.9375 66.21875 33.296875 66.21875 
Q 25.25 66.21875 20.875 63.09375 
Q 16.5 59.96875 16.5 54.203125 
Q 16.5 49.359375 19.40625 46.890625 
Q 22.3125 44.4375 30.421875 42.921875 
L 36.375 41.703125 
Q 47.40625 39.59375 52.65625 34.296875 
Q 57.90625 29 57.90625 20.125 
Q 57.90625 9.515625 50.796875 4.046875 
Q 43.703125 -1.421875 29.984375 -1.421875 
Q 24.8125 -1.421875 18.96875 -0.25 
Q 13.140625 0.921875 6.890625 3.21875 
L 6.890625 13.375 
Q 12.890625 10.015625 18.65625 8.296875 
Q 24.421875 6.59375 29.984375 6.59375 
Q 38.421875 6.59375 43.015625 9.90625 
Q 47.609375 13.234375 47.609375 19.390625 
Q 47.609375 24.75 44.3125 27.78125 
Q 41.015625 30.8125 33.5 32.328125 
L 27.484375 33.5 
Q 16.453125 35.6875 11.515625 40.375 
Q 6.59375 45.0625 6.59375 53.421875 
Q 6.59375 63.09375 13.40625 68.65625 
Q 20.21875 74.21875 32.171875 74.21875 
Q 37.3125 74.21875 42.625 73.28125 
Q 47.953125 72.359375 53.515625 70.515625 
z
" id="DejaVuSans-83"/>
      <path d="M 34.28125 27.484375 
Q 23.390625 27.484375 19.1875 25 
Q 14.984375 22.515625 14.984375 16.5 
Q 14.984375 11.71875 18.140625 8.90625 
Q 21.296875 6.109375 26.703125 6.109375 
Q 34.1875 6.109375 38.703125 11.40625 
Q 43.21875 16.703125 43.21875 25.484375 
L 43.21875 27.484375 
z
M 52.203125 31.203125 
L 52.203125 0 
L 43.21875 0 
L 43.21875 8.296875 
Q 40.140625 3.328125 35.546875 0.953125 
Q 30.953125 -1.421875 24.3125 -1.421875 
Q 15.921875 -1.421875 10.953125 3.296875 
Q 6 8.015625 6 15.921875 
Q 6 25.140625 12.171875 29.828125 
Q 18.359375 34.515625 30.609375 34.515625 
L 43.21875 34.515625 
L 43.21875 35.40625 
Q 43.21875 41.609375 39.140625 45 
Q 35.0625 48.390625 27.6875 48.390625 
Q 23 48.390625 18.546875 47.265625 
Q 14.109375 46.140625 10.015625 43.890625 
L 10.015625 52.203125 
Q 14.9375 54.109375 19.578125 55.046875 
Q 24.21875 56 28.609375 56 
Q 40.484375 56 46.34375 49.84375 
Q 52.203125 43.703125 52.203125 31.203125 
z
" id="DejaVuSans-97"/>
      <path d="M 52 44.1875 
Q 55.375 50.25 60.0625 53.125 
Q 64.75 56 71.09375 56 
Q 79.640625 56 84.28125 50.015625 
Q 88.921875 44.046875 88.921875 33.015625 
L 88.921875 0 
L 79.890625 0 
L 79.890625 32.71875 
Q 79.890625 40.578125 77.09375 44.375 
Q 74.3125 48.1875 68.609375 48.1875 
Q 61.625 48.1875 57.5625 43.546875 
Q 53.515625 38.921875 53.515625 30.90625 
L 53.515625 0 
L 44.484375 0 
L 44.484375 32.71875 
Q 44.484375 40.625 41.703125 44.40625 
Q 38.921875 48.1875 33.109375 48.1875 
Q 26.21875 48.1875 22.15625 43.53125 
Q 18.109375 38.875 18.109375 30.90625 
L 18.109375 0 
L 9.078125 0 
L 9.078125 54.6875 
L 18.109375 54.6875 
L 18.109375 46.1875 
Q 21.1875 51.21875 25.484375 53.609375 
Q 29.78125 56 35.6875 56 
Q 41.65625 56 45.828125 52.96875 
Q 50 49.953125 52 44.1875 
z
" id="DejaVuSans-109"/>
      <path d="M 9.421875 75.984375 
L 18.40625 75.984375 
L 18.40625 0 
L 9.421875 0 
z
" id="DejaVuSans-108"/>
      <path d="M 5.515625 54.6875 
L 48.1875 54.6875 
L 48.1875 46.484375 
L 14.40625 7.171875 
L 48.1875 7.171875 
L 48.1875 0 
L 4.296875 0 
L 4.296875 8.203125 
L 38.09375 47.515625 
L 5.515625 47.515625 
z
" id="DejaVuSans-122"/>
     </defs>
     <g transform="translate(83.8625 659.65)rotate(-90)scale(0.16 -0.16)">
      <use xlink:href="#DejaVuSans-69"/>
      <use x="63.183594" xlink:href="#DejaVuSans-102"/>
      <use x="98.388672" xlink:href="#DejaVuSans-102"/>
      <use x="133.59375" xlink:href="#DejaVuSans-101"/>
      <use x="195.117188" xlink:href="#DejaVuSans-99"/>
      <use x="250.097656" xlink:href="#DejaVuSans-116"/>
      <use x="289.306641" xlink:href="#DejaVuSans-105"/>
      <use x="317.089844" xlink:href="#DejaVuSans-118"/>
      <use x="376.269531" xlink:href="#DejaVuSans-101"/>
      <use x="437.792969" xlink:href="#DejaVuSans-32"/>
      <use x="469.580078" xlink:href="#DejaVuSans-83"/>
      <use x="533.056641" xlink:href="#DejaVuSans-97"/>
      <use x="594.335938" xlink:href="#DejaVuSans-109"/>
      <use x="691.748047" xlink:href="#DejaVuSans-112"/>
      <use x="755.224609" xlink:href="#DejaVuSans-108"/>
      <use x="783.007812" xlink:href="#DejaVuSans-101"/>
      <use x="844.53125" xlink:href="#DejaVuSans-32"/>
      <use x="876.318359" xlink:href="#DejaVuSans-83"/>
      <use x="939.794922" xlink:href="#DejaVuSans-105"/>
      <use x="967.578125" xlink:href="#DejaVuSans-122"/>
      <use x="1020.068359" xlink:href="#DejaVuSans-101"/>
     </g>
    </g>
   </g>
   <g id="line2d_13">
    <path clip-path="url(#p5377572a1a)" d="M 184.581818 966.715284 
L 186.206716 966.428621 
L 187.019165 966.593661 
L 190.26896 965.906792 
L 191.893857 965.813948 
L 193.518755 965.528045 
L 194.331204 965.558712 
L 197.580999 964.372704 
L 198.393448 964.421547 
L 199.205897 963.859736 
L 200.830794 964.035378 
L 201.643243 963.672393 
L 203.268141 963.382355 
L 204.08059 962.634566 
L 204.893038 962.727304 
L 205.705487 962.553425 
L 206.517936 962.199904 
L 207.330385 962.014066 
L 208.142834 961.39399 
L 208.955283 961.176112 
L 209.767731 960.478958 
L 210.58018 960.999801 
L 211.392629 960.439204 
L 212.205078 960.64655 
L 213.017527 960.308057 
L 213.829975 959.536529 
L 214.642424 959.599534 
L 215.454873 959.440176 
L 217.079771 958.194666 
L 217.892219 958.632057 
L 218.704668 958.272392 
L 219.517117 958.307042 
L 220.329566 958.103935 
L 221.142015 957.38857 
L 221.954464 957.812088 
L 222.766912 957.406455 
L 223.579361 957.356608 
L 224.39181 956.958607 
L 225.204259 956.130872 
L 226.016708 956.673046 
L 226.829156 956.010101 
L 227.641605 956.148666 
L 228.454054 955.488383 
L 229.266503 956.594671 
L 230.078952 955.995207 
L 231.703849 955.197396 
L 232.516298 955.257589 
L 234.953645 954.151172 
L 235.766093 954.725621 
L 236.578542 954.933493 
L 237.390991 954.330484 
L 238.20344 953.563527 
L 239.015889 954.473623 
L 239.828337 953.949522 
L 240.640786 953.716417 
L 241.453235 954.071932 
L 242.265684 953.224213 
L 243.078133 953.218065 
L 243.890581 952.827894 
L 244.70303 953.873778 
L 245.515479 953.304644 
L 247.140377 953.050554 
L 247.952826 951.998145 
L 248.765274 952.099741 
L 249.577723 951.91625 
L 250.390172 952.73722 
L 251.202621 951.995679 
L 252.01507 952.283508 
L 252.827518 951.616283 
L 253.639967 952.138904 
L 254.452416 952.187365 
L 255.264865 951.399674 
L 256.077314 951.457951 
L 256.889762 950.884345 
L 257.702211 951.305232 
L 258.51466 950.492633 
L 259.327109 950.728297 
L 260.139558 950.632927 
L 260.952007 950.200111 
L 261.764455 950.369629 
L 262.576904 950.345446 
L 263.389353 950.809946 
L 265.826699 949.753923 
L 266.639148 948.425138 
L 267.451597 949.697047 
L 268.264046 949.184942 
L 269.076495 949.809526 
L 270.701392 948.499294 
L 271.513841 948.462374 
L 272.32629 949.091038 
L 273.138739 948.865363 
L 273.951188 947.507798 
L 274.763636 948.121416 
L 275.576085 947.898084 
L 276.388534 948.437359 
L 277.200983 947.136553 
L 278.013432 948.122905 
L 278.82588 946.599697 
L 279.638329 946.175961 
L 281.263227 946.193719 
L 282.075676 945.854242 
L 282.888124 947.07752 
L 283.700573 946.15727 
L 284.513022 946.384408 
L 285.325471 945.579871 
L 286.13792 946.127251 
L 287.762817 945.295479 
L 288.575266 944.458664 
L 289.387715 945.69664 
L 290.200164 944.907056 
L 291.012613 944.794391 
L 291.825061 944.387786 
L 292.63751 943.115702 
L 293.449959 944.248908 
L 294.262408 944.39983 
L 295.074857 944.397482 
L 295.887305 943.770916 
L 296.699754 944.492834 
L 297.512203 943.203813 
L 298.324652 943.657267 
L 299.137101 942.794172 
L 299.94955 942.826697 
L 300.761998 943.322977 
L 301.574447 944.086354 
L 302.386896 943.011347 
L 303.199345 942.591524 
L 304.824242 942.800533 
L 305.636691 942.07912 
L 306.44914 941.730547 
L 307.261589 941.608241 
L 308.074038 942.598143 
L 308.886486 941.376074 
L 309.698935 941.403083 
L 310.511384 939.830591 
L 311.323833 940.978204 
L 312.136282 941.787592 
L 312.948731 942.013407 
L 313.761179 940.849681 
L 314.573628 940.63892 
L 315.386077 940.299311 
L 316.198526 940.76036 
L 317.010975 939.470461 
L 317.823423 939.820237 
L 318.635872 939.689479 
L 319.448321 940.313214 
L 320.26077 939.811901 
L 321.073219 939.698116 
L 321.885667 940.147603 
L 322.698116 938.619538 
L 323.510565 939.801684 
L 324.323014 937.557288 
L 325.135463 939.00719 
L 326.76036 938.896807 
L 327.572809 939.860063 
L 329.197707 938.244605 
L 330.010156 939.224224 
L 330.822604 938.727483 
L 331.635053 937.62082 
L 332.447502 938.282695 
L 333.259951 937.135769 
L 334.0724 938.700554 
L 334.884848 936.970577 
L 335.697297 938.084568 
L 336.509746 936.73145 
L 337.322195 937.414138 
L 338.134644 938.300565 
L 338.947093 938.049971 
L 339.759541 938.215681 
L 340.57199 937.320645 
L 341.384439 937.007875 
L 342.196888 935.918846 
L 343.009337 937.093828 
L 343.821785 937.110128 
L 344.634234 936.40657 
L 345.446683 936.586553 
L 346.259132 937.102828 
L 347.071581 935.925727 
L 347.884029 935.420972 
L 348.696478 937.721949 
L 349.508927 936.893871 
L 350.321376 935.856683 
L 351.133825 935.409525 
L 351.946274 936.225177 
L 353.571171 935.290239 
L 354.38362 936.411329 
L 355.196069 935.624727 
L 356.008518 936.669598 
L 356.820966 934.112067 
L 357.633415 935.940981 
L 358.445864 934.393121 
L 359.258313 934.107381 
L 360.070762 934.162671 
L 360.88321 935.535385 
L 361.695659 934.100364 
L 362.508108 933.989458 
L 363.320557 933.028992 
L 364.133006 935.020719 
L 364.945455 934.389213 
L 365.757903 932.861739 
L 366.570352 933.966062 
L 367.382801 934.723126 
L 368.19525 933.310211 
L 369.007699 933.354551 
L 369.820147 933.115373 
L 370.632596 934.574717 
L 371.445045 933.238615 
L 373.069943 932.906562 
L 373.882391 933.028934 
L 375.507289 934.366176 
L 376.319738 933.083661 
L 377.944636 931.261997 
L 378.757084 932.097528 
L 379.569533 932.287191 
L 380.381982 932.014454 
L 381.194431 931.97868 
L 382.00688 933.013666 
L 382.819328 932.155254 
L 383.631777 932.106909 
L 384.444226 933.377576 
L 386.069124 930.719242 
L 386.881572 932.16228 
L 387.694021 931.733216 
L 388.50647 930.841041 
L 389.318919 930.132359 
L 390.131368 931.120688 
L 390.943817 930.447444 
L 391.756265 930.2232 
L 392.568714 929.549726 
L 393.381163 929.940101 
L 394.193612 931.095529 
L 395.006061 929.907555 
L 395.818509 930.75036 
L 396.630958 928.194882 
L 397.443407 930.066183 
L 398.255856 929.647782 
L 399.068305 928.490461 
L 399.880753 929.813743 
L 401.505651 928.817417 
L 402.3181 928.322008 
L 403.130549 928.942579 
L 403.942998 928.432171 
L 404.755446 926.810615 
L 405.567895 928.130105 
L 406.380344 927.24674 
L 407.192793 928.12885 
L 408.005242 927.979488 
L 408.81769 926.541005 
L 409.630139 926.097737 
L 410.442588 926.048007 
L 411.255037 927.840108 
L 412.879934 926.746774 
L 413.692383 927.280576 
L 414.504832 923.803143 
L 415.317281 926.00867 
L 416.12973 925.82084 
L 416.942179 924.745661 
L 417.754627 924.834652 
L 418.567076 924.355383 
L 419.379525 922.738592 
L 420.191974 924.682465 
L 421.004423 924.05567 
L 421.816871 923.022951 
L 422.62932 923.636767 
L 423.441769 922.308941 
L 424.254218 923.52153 
L 425.066667 923.270241 
L 425.879115 922.024037 
L 426.691564 922.276001 
L 427.504013 922.952694 
L 428.316462 922.091303 
L 429.128911 922.429655 
L 429.94136 919.759257 
L 430.753808 920.271389 
L 431.566257 921.288345 
L 432.378706 921.112717 
L 433.191155 919.059864 
L 434.003604 920.790205 
L 434.816052 918.389337 
L 435.628501 918.153471 
L 437.253399 916.823565 
L 438.065848 918.049796 
L 438.878296 916.315663 
L 439.690745 916.009739 
L 440.503194 916.021943 
L 441.315643 914.46005 
L 442.128092 916.08522 
L 442.940541 914.237553 
L 443.752989 913.587199 
L 444.565438 913.785636 
L 445.377887 911.974429 
L 446.190336 913.738435 
L 447.002785 912.455728 
L 447.815233 910.930652 
L 448.627682 911.174244 
L 449.440131 909.836854 
L 450.25258 909.376169 
L 451.065029 909.188917 
L 451.877477 909.520994 
L 452.689926 909.218267 
L 454.314824 906.691944 
L 455.127273 905.664244 
L 455.939722 907.653385 
L 456.75217 901.785644 
L 457.564619 903.101734 
L 458.377068 902.379721 
L 459.189517 903.784053 
L 460.001966 902.083402 
L 460.814414 900.641558 
L 461.626863 899.769477 
L 462.439312 899.811831 
L 463.251761 897.345788 
L 464.06421 895.822719 
L 464.876658 896.107193 
L 466.501556 892.402658 
L 468.126454 893.845262 
L 468.938903 892.120486 
L 469.751351 887.257524 
L 470.5638 888.511062 
L 471.376249 888.717795 
L 472.188698 886.977779 
L 473.001147 884.373925 
L 475.438493 879.84666 
L 476.250942 877.946094 
L 477.063391 878.677125 
L 477.875839 876.820581 
L 478.688288 873.744377 
L 479.500737 874.190085 
L 480.313186 869.488183 
L 481.125635 871.193904 
L 481.938084 869.60453 
L 482.750532 864.78152 
L 483.562981 863.898551 
L 484.37543 861.575333 
L 485.187879 857.337067 
L 486.000328 859.850084 
L 486.812776 853.693067 
L 487.625225 851.989136 
L 488.437674 852.256429 
L 489.250123 847.687558 
L 490.062572 847.151273 
L 490.87502 842.521337 
L 491.687469 842.556068 
L 492.499918 841.490465 
L 493.312367 839.076316 
L 494.124816 833.920976 
L 495.749713 829.849171 
L 496.562162 824.367659 
L 497.374611 823.891367 
L 498.999509 815.673342 
L 499.811957 813.466529 
L 500.624406 810.787321 
L 501.436855 806.189535 
L 502.249304 803.553581 
L 503.061753 799.781527 
L 503.874201 797.402307 
L 504.68665 795.74339 
L 505.499099 792.592187 
L 506.311548 786.834405 
L 507.123997 786.551141 
L 507.936446 781.526788 
L 508.748894 774.357663 
L 509.561343 772.223548 
L 510.373792 768.943811 
L 511.186241 763.607789 
L 511.99869 761.992236 
L 513.623587 754.022355 
L 514.436036 746.192463 
L 515.248485 745.796908 
L 516.060934 743.313813 
L 516.873382 736.081606 
L 517.685831 734.16912 
L 518.49828 730.629075 
L 519.310729 723.889682 
L 520.123178 723.364056 
L 520.935627 718.340992 
L 521.748075 709.859324 
L 522.560524 708.069082 
L 523.372973 705.373969 
L 524.185422 698.302268 
L 524.997871 694.784849 
L 525.810319 692.806739 
L 526.622768 691.151681 
L 528.247666 678.239375 
L 529.060115 673.102216 
L 529.872563 670.013839 
L 531.497461 659.454753 
L 533.934808 650.166985 
L 534.747256 646.08626 
L 535.559705 636.986031 
L 536.372154 632.833817 
L 537.997052 627.8679 
L 538.8095 621.948173 
L 539.621949 619.237184 
L 540.434398 612.936287 
L 541.246847 610.666385 
L 542.059296 601.807791 
L 542.871744 598.908813 
L 543.684193 597.5661 
L 544.496642 590.19783 
L 545.309091 590.37959 
L 546.12154 582.328002 
L 546.933989 579.496156 
L 547.746437 575.471303 
L 548.558886 574.620148 
L 549.371335 567.5457 
L 550.183784 563.838648 
L 551.808681 554.626823 
L 552.62113 551.807385 
L 553.433579 549.662514 
L 554.246028 542.790074 
L 555.058477 538.927163 
L 555.870925 535.779411 
L 556.683374 533.496092 
L 557.495823 529.920108 
L 558.308272 524.666732 
L 559.120721 522.829289 
L 559.93317 517.551195 
L 560.745618 515.789714 
L 561.558067 512.089194 
L 563.182965 500.53505 
L 563.995414 500.059478 
L 564.807862 496.343186 
L 565.620311 492.022124 
L 567.245209 487.789636 
L 568.870106 479.111527 
L 569.682555 477.155933 
L 570.495004 473.107087 
L 571.307453 467.670673 
L 572.119902 465.907792 
L 572.932351 462.895432 
L 573.744799 463.011024 
L 574.557248 456.931249 
L 575.369697 452.433054 
L 576.182146 449.575265 
L 576.994595 447.228749 
L 577.807043 445.666493 
L 578.619492 438.952189 
L 580.24439 438.197329 
L 581.056839 434.65269 
L 581.869287 429.282033 
L 582.681736 428.628517 
L 583.494185 422.972257 
L 584.306634 421.797551 
L 585.119083 419.240031 
L 586.74398 412.546862 
L 587.556429 411.667409 
L 588.368878 406.32569 
L 589.181327 407.490514 
L 589.993776 403.046305 
L 590.806224 401.214608 
L 591.618673 396.10943 
L 592.431122 396.380637 
L 593.243571 393.159615 
L 594.05602 391.875823 
L 594.868468 389.177965 
L 595.680917 387.139068 
L 596.493366 383.980612 
L 597.305815 382.982557 
L 598.118264 378.291331 
L 598.930713 376.958216 
L 599.743161 373.792807 
L 600.55561 373.662023 
L 602.180508 368.18749 
L 602.992957 367.536416 
L 603.805405 363.391089 
L 604.617854 362.110141 
L 605.430303 358.507403 
L 606.242752 359.087895 
L 607.055201 356.724342 
L 607.867649 353.265586 
L 608.680098 352.104487 
L 609.492547 350.318268 
L 610.304996 347.642038 
L 612.742342 342.34437 
L 613.554791 341.25245 
L 614.36724 338.385784 
L 615.179689 338.115338 
L 617.617035 331.730141 
L 618.429484 328.841087 
L 619.241933 328.62602 
L 620.86683 323.42261 
L 621.679279 323.575609 
L 622.491728 320.61104 
L 624.116626 317.995868 
L 624.929075 315.986729 
L 625.741523 314.430153 
L 627.366421 312.305169 
L 628.17887 310.34032 
L 628.991319 309.287071 
L 629.803767 307.604429 
L 630.616216 306.258613 
L 631.428665 305.637298 
L 632.241114 302.855123 
L 633.053563 301.454644 
L 633.866011 301.120891 
L 634.67846 299.458326 
L 635.490909 297.069112 
L 636.303358 296.313933 
L 637.928256 292.753938 
L 638.740704 292.071017 
L 639.553153 291.546918 
L 640.365602 290.093457 
L 641.178051 288.923421 
L 641.9905 288.829869 
L 642.802948 286.43989 
L 643.615397 284.455188 
L 644.427846 284.726311 
L 645.240295 283.441191 
L 646.052744 281.602646 
L 646.865192 280.595182 
L 647.677641 278.785735 
L 648.49009 278.219694 
L 649.302539 277.39083 
L 650.114988 275.74478 
L 650.927437 274.642387 
L 651.739885 273.23702 
L 652.552334 272.113104 
L 653.364783 271.940367 
L 654.177232 269.703809 
L 654.989681 270.019499 
L 655.802129 268.223006 
L 656.614578 267.62755 
L 657.427027 266.296514 
L 658.239476 266.374844 
L 659.864373 262.847003 
L 660.676822 262.841046 
L 661.489271 262.550837 
L 662.30172 260.339487 
L 663.114169 259.792234 
L 664.739066 257.784976 
L 665.551515 256.50267 
L 666.363964 256.280094 
L 667.176413 255.522637 
L 667.988862 255.009832 
L 668.80131 253.840985 
L 669.613759 253.144085 
L 670.426208 251.520712 
L 671.238657 251.64439 
L 673.676003 248.723041 
L 674.488452 247.643082 
L 675.300901 247.025396 
L 676.11335 246.154611 
L 676.925799 245.499424 
L 677.738247 245.027487 
L 678.550696 243.804245 
L 679.363145 242.911927 
L 680.175594 242.805291 
L 680.988043 240.961763 
L 681.800491 241.148653 
L 682.61294 239.996386 
L 683.425389 239.874498 
L 684.237838 239.630284 
L 685.050287 237.949776 
L 685.862735 237.486448 
L 686.675184 236.840938 
L 688.300082 235.934104 
L 689.112531 234.347829 
L 689.92498 233.741432 
L 690.737428 233.442456 
L 692.362326 231.56912 
L 693.174775 231.442965 
L 693.987224 230.926112 
L 694.799672 229.583877 
L 695.612121 229.205571 
L 696.42457 229.11842 
L 697.237019 228.31751 
L 698.861916 227.619873 
L 700.486814 225.902103 
L 701.299263 225.63278 
L 703.736609 224.2888 
L 704.549058 223.001237 
L 706.173956 221.771859 
L 706.986405 221.491845 
L 707.798853 220.852796 
L 708.611302 220.53162 
L 709.423751 220.538667 
L 710.2362 219.299044 
L 711.048649 218.901185 
L 711.861097 218.297956 
L 712.673546 218.063579 
L 713.485995 217.145311 
L 714.298444 216.945626 
L 715.110893 216.147391 
L 716.73579 215.838658 
L 717.548239 215.226308 
L 718.360688 214.46916 
L 719.173137 213.888375 
L 720.798034 213.440343 
L 722.422932 212.188099 
L 723.235381 211.806094 
L 724.04783 211.569892 
L 724.860278 211.001121 
L 725.672727 210.615202 
L 727.297625 209.541746 
L 728.110074 209.069546 
L 729.734971 208.660741 
L 732.172318 207.148072 
L 732.984767 206.92827 
L 733.797215 206.460725 
L 734.609664 206.174007 
L 735.422113 205.600651 
L 736.234562 205.285995 
L 737.859459 204.40675 
L 739.484357 203.887271 
L 740.296806 203.29092 
L 741.921704 202.783754 
L 742.734152 202.548298 
L 743.546601 201.935556 
L 744.35905 201.464738 
L 745.171499 201.177523 
L 745.983948 201.008521 
L 746.796396 200.417013 
L 748.421294 200.203165 
L 749.233743 199.675252 
L 753.295987 197.992123 
L 754.108436 197.427574 
L 754.920885 197.487136 
L 755.733333 197.143039 
L 756.545782 196.494705 
L 757.358231 196.404088 
L 761.420475 195.010934 
L 762.232924 194.550937 
L 763.045373 194.417313 
L 763.857821 193.968088 
L 766.295168 193.223487 
L 767.107617 192.763903 
L 767.920066 192.807645 
L 768.732514 192.385955 
L 770.357412 191.906882 
L 772.794758 190.954137 
L 773.607207 190.911016 
L 774.419656 190.748245 
L 776.044554 190.133653 
L 776.857002 189.789726 
L 777.669451 189.81838 
L 778.4819 189.461608 
L 780.106798 189.12505 
L 780.919247 188.634256 
L 781.731695 188.53407 
L 783.356593 187.696703 
L 784.169042 187.626927 
L 785.793939 187.176041 
L 786.606388 187.193904 
L 787.418837 186.781991 
L 789.856183 186.058182 
L 790.668632 186.040304 
L 791.481081 185.693646 
L 793.918428 185.153614 
L 794.730876 184.825566 
L 795.543325 184.883944 
L 796.355774 184.4814 
L 797.168223 184.292312 
L 798.79312 183.696966 
L 801.230467 183.355644 
L 802.855364 182.964518 
L 804.480262 182.527144 
L 805.292711 182.202885 
L 807.730057 181.774293 
L 808.542506 181.468921 
L 809.354955 181.463535 
L 810.167404 181.102352 
L 810.979853 180.870327 
L 811.792301 180.868278 
L 816.666994 179.809066 
L 817.479443 179.768695 
L 819.91679 179.149831 
L 824.791482 178.133968 
L 825.603931 178.168153 
L 827.228829 177.774545 
L 827.228829 177.774545 
" style="fill:none;stroke:#ff0000;stroke-linecap:square;stroke-width:1.5;"/>
   </g>
   <g id="line2d_14">
    <path clip-path="url(#p5377572a1a)" d="M 184.581818 967.873154 
L 188.644062 967.737783 
L 190.26896 967.620697 
L 193.518755 967.430475 
L 195.956102 967.303099 
L 196.76855 967.167929 
L 197.580999 967.218669 
L 200.018346 967.083094 
L 200.830794 966.818567 
L 201.643243 966.882392 
L 202.455692 966.672186 
L 204.893038 966.65304 
L 205.705487 966.459645 
L 206.517936 966.538483 
L 208.142834 966.318607 
L 210.58018 966.089313 
L 212.205078 965.939789 
L 213.017527 965.841619 
L 213.829975 965.883283 
L 214.642424 965.671055 
L 215.454873 965.709947 
L 216.267322 965.573542 
L 217.892219 965.575999 
L 218.704668 965.441982 
L 219.517117 965.52343 
L 220.329566 965.349282 
L 221.142015 965.415687 
L 224.39181 965.029163 
L 225.204259 965.140378 
L 226.016708 965.07874 
L 226.829156 964.803864 
L 229.266503 964.877227 
L 230.078952 964.803788 
L 230.8914 964.857394 
L 231.703849 964.641171 
L 233.328747 964.689439 
L 234.141196 964.322049 
L 234.953645 964.594744 
L 235.766093 964.393024 
L 237.390991 964.487419 
L 241.453235 964.046511 
L 242.265684 964.173966 
L 243.078133 963.988313 
L 244.70303 964.116744 
L 245.515479 964.026742 
L 246.327928 964.12852 
L 247.140377 963.949072 
L 247.952826 964.018138 
L 250.390172 963.706816 
L 251.202621 963.943966 
L 252.827518 963.730258 
L 253.639967 963.727892 
L 254.452416 963.52207 
L 256.889762 963.691457 
L 257.702211 963.627242 
L 258.51466 963.733481 
L 260.139558 963.40767 
L 260.952007 963.518347 
L 261.764455 963.352727 
L 262.576904 963.493956 
L 263.389353 963.50257 
L 265.826699 963.142391 
L 267.451597 963.437155 
L 268.264046 962.972754 
L 269.076495 963.162431 
L 269.888943 963.039108 
L 270.701392 963.060077 
L 271.513841 962.794688 
L 272.32629 962.890211 
L 273.138739 962.816189 
L 273.951188 963.074579 
L 275.576085 962.798997 
L 276.388534 962.874162 
L 277.200983 962.72896 
L 278.013432 962.854012 
L 279.638329 962.755115 
L 283.700573 962.638188 
L 284.513022 962.413766 
L 285.325471 962.751566 
L 286.13792 962.679508 
L 286.950369 962.386667 
L 287.762817 962.432107 
L 288.575266 962.361225 
L 289.387715 962.659558 
L 290.200164 962.325011 
L 291.012613 962.466031 
L 291.825061 962.267465 
L 292.63751 962.447217 
L 294.262408 962.057058 
L 295.074857 962.234821 
L 295.887305 962.667824 
L 296.699754 962.548626 
L 297.512203 962.025315 
L 300.761998 962.194571 
L 301.574447 962.045299 
L 302.386896 962.171309 
L 304.011794 962.12333 
L 304.824242 961.872917 
L 305.636691 962.161193 
L 307.261589 962.066426 
L 308.074038 962.196648 
L 308.886486 961.800257 
L 309.698935 962.013033 
L 312.136282 962.080025 
L 312.948731 961.823952 
L 313.761179 961.932215 
L 314.573628 961.844248 
L 315.386077 961.875344 
L 316.198526 961.566587 
L 318.635872 962.001276 
L 319.448321 961.813366 
L 321.073219 961.698137 
L 321.885667 961.547509 
L 322.698116 961.663003 
L 323.510565 961.468973 
L 324.323014 961.884452 
L 325.135463 961.635643 
L 325.947912 961.595588 
L 326.76036 961.770782 
L 327.572809 961.25716 
L 330.010156 961.492131 
L 330.822604 961.7863 
L 331.635053 961.617107 
L 333.259951 961.553848 
L 334.0724 961.213358 
L 335.697297 961.750109 
L 336.509746 961.455111 
L 338.947093 961.534935 
L 339.759541 961.19158 
L 340.57199 961.633383 
L 341.384439 961.372962 
L 343.009337 961.523902 
L 343.821785 961.553394 
L 344.634234 961.302875 
L 345.446683 961.4619 
L 346.259132 961.243343 
L 347.071581 961.527632 
L 348.696478 961.366483 
L 351.133825 961.417357 
L 351.946274 961.107629 
L 353.571171 961.389751 
L 354.38362 960.984909 
L 355.196069 961.537762 
L 356.008518 961.452013 
L 356.820966 961.239654 
L 358.445864 961.189027 
L 359.258313 961.522011 
L 360.88321 960.884564 
L 361.695659 961.181544 
L 363.320557 961.397086 
L 364.133006 961.056991 
L 366.570352 961.48568 
L 367.382801 960.923012 
L 368.19525 961.142319 
L 369.007699 961.077009 
L 369.820147 960.889732 
L 370.632596 961.382063 
L 371.445045 960.924669 
L 372.257494 960.622127 
L 373.069943 961.02234 
L 373.882391 961.266085 
L 375.507289 961.077554 
L 377.132187 960.88175 
L 378.757084 960.650573 
L 379.569533 961.010095 
L 380.381982 961.145093 
L 381.194431 961.024 
L 382.00688 961.136643 
L 382.819328 960.802018 
L 383.631777 961.24452 
L 385.256675 961.0515 
L 386.069124 960.781453 
L 386.881572 960.91113 
L 387.694021 960.775449 
L 388.50647 960.774846 
L 389.318919 961.080557 
L 390.131368 960.863677 
L 391.756265 960.744701 
L 392.568714 961.006594 
L 393.381163 960.732648 
L 394.193612 960.849827 
L 395.006061 960.414332 
L 395.818509 960.669468 
L 396.630958 960.587316 
L 397.443407 960.760391 
L 398.255856 960.574906 
L 400.693202 960.873778 
L 401.505651 960.440474 
L 402.3181 960.792762 
L 403.130549 960.578711 
L 403.942998 960.630308 
L 404.755446 960.502242 
L 405.567895 960.69337 
L 406.380344 960.439091 
L 407.192793 960.44916 
L 408.005242 960.247766 
L 408.81769 960.608857 
L 410.442588 960.142468 
L 412.067486 960.786338 
L 412.879934 960.233423 
L 413.692383 959.983823 
L 414.504832 960.331646 
L 415.317281 960.386705 
L 416.942179 960.239993 
L 417.754627 959.904029 
L 418.567076 960.39231 
L 419.379525 960.120248 
L 421.004423 960.080292 
L 421.816871 960.189632 
L 422.62932 959.914839 
L 423.441769 960.03147 
L 424.254218 959.781017 
L 425.066667 959.703614 
L 425.879115 960.13112 
L 426.691564 959.704984 
L 427.504013 959.798347 
L 428.316462 960.048292 
L 429.128911 959.765718 
L 429.94136 960.145242 
L 430.753808 959.824682 
L 432.378706 959.571733 
L 434.816052 959.501117 
L 435.628501 959.841532 
L 436.44095 959.666311 
L 437.253399 959.835708 
L 438.065848 959.400472 
L 438.878296 959.430758 
L 439.690745 959.306646 
L 440.503194 959.562526 
L 441.315643 959.080774 
L 443.752989 958.934738 
L 444.565438 959.327176 
L 445.377887 958.742986 
L 446.190336 959.030721 
L 447.815233 959.101344 
L 450.25258 958.634056 
L 451.065029 958.811931 
L 451.877477 958.687069 
L 452.689926 958.696991 
L 453.502375 958.432195 
L 454.314824 958.491244 
L 455.127273 958.37055 
L 456.75217 958.526531 
L 457.564619 958.204492 
L 458.377068 958.209968 
L 459.189517 957.535159 
L 460.001966 957.99731 
L 460.814414 957.99767 
L 461.626863 957.728648 
L 462.439312 957.652047 
L 463.251761 957.87116 
L 464.06421 957.529797 
L 464.876658 957.379425 
L 465.689107 957.623475 
L 466.501556 957.464346 
L 467.314005 957.486229 
L 468.126454 957.050024 
L 470.5638 956.699817 
L 471.376249 956.405135 
L 472.188698 956.787623 
L 473.001147 956.409892 
L 473.813595 956.299767 
L 474.626044 955.917914 
L 475.438493 956.113189 
L 476.250942 955.877847 
L 477.063391 955.84827 
L 478.688288 956.143941 
L 479.500737 955.482436 
L 480.313186 955.65865 
L 481.125635 955.402036 
L 481.938084 955.434059 
L 482.750532 955.2131 
L 483.562981 955.227033 
L 484.37543 954.554623 
L 485.187879 954.83115 
L 486.000328 954.348015 
L 486.812776 954.032818 
L 487.625225 954.170425 
L 488.437674 954.190713 
L 489.250123 953.962588 
L 490.062572 953.566189 
L 490.87502 953.34342 
L 491.687469 953.598457 
L 492.499918 952.907696 
L 493.312367 953.037009 
L 494.124816 952.445912 
L 494.937265 952.504391 
L 495.749713 952.100299 
L 496.562162 951.928682 
L 497.374611 951.493966 
L 498.18706 951.932662 
L 498.999509 951.4961 
L 499.811957 951.737098 
L 500.624406 950.65547 
L 501.436855 950.593932 
L 502.249304 950.946152 
L 503.061753 950.533811 
L 503.874201 949.790135 
L 504.68665 949.197142 
L 505.499099 948.90897 
L 506.311548 948.879998 
L 507.123997 949.050157 
L 507.936446 948.43139 
L 508.748894 948.071005 
L 509.561343 947.963842 
L 510.373792 947.246435 
L 511.186241 947.348585 
L 511.99869 947.052766 
L 512.811138 946.444686 
L 513.623587 946.695658 
L 514.436036 946.017689 
L 515.248485 945.742035 
L 516.060934 945.064739 
L 516.873382 945.026397 
L 518.49828 944.240135 
L 521.748075 943.153554 
L 522.560524 942.346455 
L 523.372973 942.098792 
L 524.997871 940.988747 
L 525.810319 941.018866 
L 526.622768 940.616199 
L 528.247666 939.585633 
L 529.872563 938.981046 
L 530.685012 938.111629 
L 531.497461 938.199699 
L 532.30991 937.800294 
L 533.122359 937.57954 
L 533.934808 936.552157 
L 534.747256 936.489816 
L 535.559705 935.874978 
L 536.372154 935.625951 
L 537.184603 935.524386 
L 537.997052 934.380322 
L 538.8095 934.224095 
L 539.621949 933.659342 
L 540.434398 933.571962 
L 542.059296 932.708963 
L 542.871744 932.04561 
L 543.684193 931.905707 
L 544.496642 931.565963 
L 545.309091 931.496536 
L 546.12154 930.629197 
L 546.933989 930.240938 
L 547.746437 930.205676 
L 548.558886 929.237279 
L 549.371335 928.915642 
L 550.183784 928.25887 
L 550.996233 928.495716 
L 552.62113 927.438387 
L 553.433579 926.649413 
L 554.246028 926.841735 
L 555.058477 926.766468 
L 555.870925 925.85764 
L 556.683374 925.374295 
L 557.495823 925.271859 
L 558.308272 924.372464 
L 559.93317 924.299917 
L 560.745618 923.61751 
L 563.182965 922.953015 
L 563.995414 922.139711 
L 564.807862 921.948415 
L 565.620311 921.168918 
L 566.43276 921.036037 
L 567.245209 921.182411 
L 568.057658 920.725141 
L 568.870106 920.112576 
L 569.682555 919.988957 
L 571.307453 918.856026 
L 572.119902 919.018412 
L 572.932351 918.411471 
L 573.744799 918.32718 
L 574.557248 918.093127 
L 575.369697 917.311062 
L 576.182146 917.30489 
L 576.994595 917.175546 
L 577.807043 915.998863 
L 578.619492 916.098276 
L 579.431941 915.702603 
L 580.24439 915.755483 
L 581.056839 915.166709 
L 581.869287 915.354543 
L 582.681736 914.716931 
L 584.306634 914.01436 
L 585.119083 914.23196 
L 585.931532 914.132565 
L 586.74398 913.339713 
L 587.556429 913.075319 
L 589.181327 912.728346 
L 589.993776 912.259769 
L 590.806224 912.151943 
L 592.431122 911.526487 
L 593.243571 911.436145 
L 594.05602 911.128585 
L 594.868468 910.942552 
L 595.680917 910.48342 
L 596.493366 910.638299 
L 597.305815 910.144957 
L 598.118264 909.941495 
L 598.930713 909.614016 
L 599.743161 909.462373 
L 600.55561 909.69203 
L 601.368059 909.135271 
L 602.992957 908.839522 
L 603.805405 908.264769 
L 606.242752 907.871694 
L 607.055201 907.783961 
L 607.867649 907.230472 
L 608.680098 907.177366 
L 610.304996 906.720449 
L 611.117445 906.567273 
L 611.929894 906.774024 
L 613.554791 905.835549 
L 614.36724 906.071142 
L 615.179689 905.551866 
L 616.804586 905.49714 
L 617.617035 905.127351 
L 618.429484 904.912122 
L 619.241933 904.91894 
L 620.86683 904.395112 
L 623.304177 903.814945 
L 624.929075 903.798289 
L 625.741523 903.392084 
L 627.366421 903.386682 
L 628.17887 903.095734 
L 628.991319 903.236248 
L 630.616216 902.574914 
L 631.428665 902.49799 
L 632.241114 902.535728 
L 633.866011 901.971332 
L 634.67846 901.850499 
L 635.490909 901.8448 
L 636.303358 901.595508 
L 637.115807 901.682526 
L 637.928256 901.575065 
L 639.553153 900.935024 
L 641.178051 900.936081 
L 641.9905 900.621545 
L 642.802948 900.77471 
L 643.615397 900.338723 
L 644.427846 900.485547 
L 650.114988 899.5355 
L 650.927437 899.615722 
L 651.739885 899.409421 
L 652.552334 899.36386 
L 653.364783 899.123303 
L 654.177232 899.164779 
L 654.989681 899.01299 
L 655.802129 898.984507 
L 657.427027 898.702624 
L 659.051925 898.583681 
L 660.676822 898.192835 
L 662.30172 898.127577 
L 663.926618 897.965939 
L 664.739066 898.031321 
L 665.551515 897.740964 
L 666.363964 897.657792 
L 667.176413 897.740186 
L 667.988862 897.396766 
L 668.80131 897.496659 
L 672.051106 897.084131 
L 672.863554 897.145703 
L 673.676003 896.907981 
L 674.488452 896.95911 
L 675.300901 896.771331 
L 676.925799 896.721538 
L 677.738247 896.458104 
L 683.425389 896.088421 
L 688.300082 895.679729 
L 689.112531 895.698278 
L 689.92498 895.591857 
L 691.549877 895.537525 
L 693.174775 895.307154 
L 694.799672 895.187926 
L 695.612121 895.236169 
L 698.861916 894.96706 
L 702.924161 894.540708 
L 703.736609 894.682371 
L 705.361507 894.392302 
L 708.611302 894.270791 
L 709.423751 894.179712 
L 710.2362 894.243686 
L 713.485995 893.980932 
L 723.235381 893.436813 
L 724.860278 893.361066 
L 725.672727 893.374624 
L 726.485176 893.201218 
L 737.859459 892.792155 
L 738.671908 892.840645 
L 739.484357 892.698202 
L 740.296806 892.733432 
L 741.109255 892.575549 
L 743.546601 892.559145 
L 745.171499 892.384853 
L 780.919247 891.233433 
L 783.356593 891.184099 
L 786.606388 891.098042 
L 805.292711 890.670695 
L 807.730057 890.635981 
L 810.167404 890.563583 
L 815.042097 890.485532 
L 881.662899 889.512511 
L 893.037183 889.393528 
L 902.786568 889.302488 
L 920.660442 889.163409 
L 932.847174 889.077934 
L 993.780835 888.739665 
L 996.218182 888.736517 
L 996.218182 888.736517 
" style="fill:none;stroke:#0000ff;stroke-linecap:square;stroke-width:1.5;"/>
   </g>
   <g id="line2d_15">
    <path clip-path="url(#p5377572a1a)" d="M 184.581818 968.441843 
L 187.831613 968.428249 
L 202.455692 968.196991 
L 204.08059 968.169909 
L 205.705487 968.106101 
L 208.142834 968.107888 
L 227.641605 967.843262 
L 230.8914 967.886572 
L 233.328747 967.831836 
L 234.953645 967.831711 
L 239.015889 967.738082 
L 240.640786 967.769676 
L 242.265684 967.763452 
L 243.890581 967.763344 
L 259.327109 967.693467 
L 260.139558 967.623532 
L 260.952007 967.712166 
L 261.764455 967.625076 
L 262.576904 967.684869 
L 265.014251 967.621154 
L 269.076495 967.555244 
L 269.888943 967.656796 
L 283.700573 967.475635 
L 284.513022 967.566362 
L 287.762817 967.492056 
L 288.575266 967.546492 
L 290.200164 967.495147 
L 291.825061 967.527929 
L 295.074857 967.479732 
L 296.699754 967.541357 
L 297.512203 967.44887 
L 299.137101 967.439054 
L 299.94955 967.391003 
L 300.761998 967.504876 
L 302.386896 967.451328 
L 305.636691 967.479369 
L 307.261589 967.3827 
L 309.698935 967.429657 
L 312.136282 967.371073 
L 316.198526 967.411916 
L 317.010975 967.439116 
L 317.823423 967.306507 
L 318.635872 967.370256 
L 319.448321 967.321878 
L 320.26077 967.399534 
L 321.885667 967.322382 
L 323.510565 967.368895 
L 343.821785 967.303622 
L 346.259132 967.293241 
L 351.946274 967.297902 
L 354.38362 967.298219 
L 358.445864 967.259987 
L 359.258313 967.207143 
L 360.070762 967.285911 
L 361.695659 967.257575 
L 365.757903 967.261882 
L 368.19525 967.237096 
L 369.007699 967.34128 
L 369.820147 967.23096 
L 390.131368 967.286034 
L 391.756265 967.162377 
L 396.630958 967.273701 
L 399.068305 967.204515 
L 404.755446 967.235412 
L 405.567895 967.14725 
L 406.380344 967.239551 
L 407.192793 967.160318 
L 408.81769 967.20228 
L 413.692383 967.117361 
L 415.317281 967.213186 
L 416.942179 967.142723 
L 419.379525 967.288037 
L 421.004423 967.151951 
L 421.816871 967.242239 
L 425.066667 967.159691 
L 429.94136 967.224281 
L 431.566257 967.151364 
L 435.628501 967.196892 
L 437.253399 967.168939 
L 438.065848 967.226496 
L 439.690745 967.178447 
L 450.25258 967.102352 
L 451.065029 967.221921 
L 452.689926 967.078474 
L 454.314824 967.12673 
L 458.377068 967.119854 
L 459.189517 967.169977 
L 460.001966 967.09673 
L 462.439312 967.165094 
L 463.251761 967.071371 
L 465.689107 967.121158 
L 468.126454 967.058293 
L 471.376249 967.148981 
L 472.188698 967.02562 
L 478.688288 967.13812 
L 479.500737 967.057286 
L 483.562981 967.110048 
L 490.062572 967.068373 
L 491.687469 967.027448 
L 496.562162 967.0427 
L 518.49828 966.906082 
L 519.310729 966.84683 
L 521.748075 966.912245 
L 525.810319 966.847613 
L 526.622768 966.807218 
L 528.247666 966.929293 
L 530.685012 966.835269 
L 538.8095 966.809306 
L 541.246847 966.676089 
L 542.059296 966.746116 
L 543.684193 966.655462 
L 559.120721 966.549047 
L 560.745618 966.435025 
L 562.370516 966.499075 
L 563.995414 966.424132 
L 565.620311 966.500197 
L 566.43276 966.382732 
L 567.245209 966.454301 
L 569.682555 966.333257 
L 570.495004 966.412104 
L 571.307453 966.331739 
L 572.119902 966.374993 
L 572.932351 966.262444 
L 573.744799 966.337187 
L 574.557248 966.26023 
L 576.994595 966.285258 
L 581.056839 966.15892 
L 583.494185 966.113097 
L 585.119083 966.036707 
L 587.556429 966.078947 
L 589.181327 965.928536 
L 589.993776 966.034153 
L 596.493366 965.793406 
L 598.118264 965.764186 
L 599.743161 965.747173 
L 603.805405 965.566005 
L 606.242752 965.502121 
L 607.867649 965.455161 
L 608.680098 965.465388 
L 609.492547 965.330106 
L 611.929894 965.317203 
L 624.116626 964.818262 
L 625.741523 964.718353 
L 626.553972 964.766035 
L 628.991319 964.633614 
L 629.803767 964.643564 
L 630.616216 964.517095 
L 631.428665 964.567778 
L 633.866011 964.448113 
L 634.67846 964.513372 
L 635.490909 964.385904 
L 637.115807 964.304978 
L 637.928256 964.201468 
L 639.553153 964.277965 
L 640.365602 964.174299 
L 641.178051 964.261829 
L 641.9905 964.118663 
L 643.615397 964.147133 
L 645.240295 964.060591 
L 646.865192 964.026367 
L 648.49009 963.945624 
L 650.927437 963.906303 
L 656.614578 963.677727 
L 663.926618 963.426938 
L 672.863554 963.242466 
L 675.300901 963.194415 
L 694.799672 962.762988 
L 697.237019 962.761346 
L 701.299263 962.672079 
L 767.920066 962.037549 
L 771.98231 962.037806 
L 775.232105 962.022797 
L 780.106798 961.981726 
L 785.793939 961.950544 
L 968.594922 961.587208 
L 996.218182 961.565547 
L 996.218182 961.565547 
" style="fill:none;stroke:#000000;stroke-linecap:square;stroke-width:1.5;"/>
   </g>
   <g id="patch_8">
    <path d="M 144 1008 
L 144 138.24 
" style="fill:none;stroke:#000000;stroke-linecap:square;stroke-linejoin:miter;stroke-width:0.8;"/>
   </g>
   <g id="patch_9">
    <path d="M 1036.8 1008 
L 1036.8 138.24 
" style="fill:none;stroke:#000000;stroke-linecap:square;stroke-linejoin:miter;stroke-width:0.8;"/>
   </g>
   <g id="patch_10">
    <path d="M 144 1008 
L 1036.8 1008 
" style="fill:none;stroke:#000000;stroke-linecap:square;stroke-linejoin:miter;stroke-width:0.8;"/>
   </g>
   <g id="patch_11">
    <path d="M 144 138.24 
L 1036.8 138.24 
" style="fill:none;stroke:#000000;stroke-linecap:square;stroke-linejoin:miter;stroke-width:0.8;"/>
   </g>
   <g id="legend_1">
    <g id="patch_12">
     <path d="M 156.6 231.901875 
L 399.209062 231.901875 
Q 402.809062 231.901875 402.809062 228.301875 
L 402.809062 150.84 
Q 402.809062 147.24 399.209062 147.24 
L 156.6 147.24 
Q 153 147.24 153 150.84 
L 153 228.301875 
Q 153 231.901875 156.6 231.901875 
z
" style="fill:#ffffff;opacity:0.8;stroke:#cccccc;stroke-linejoin:miter;"/>
    </g>
    <g id="line2d_16">
     <path d="M 160.2 161.817187 
L 196.2 161.817187 
" style="fill:none;stroke:#ff0000;stroke-linecap:square;stroke-width:1.5;"/>
    </g>
    <g id="line2d_17"/>
    <g id="text_15">
     <!-- ESS - - 1000 samples -->
     <defs>
      <path d="M 4.890625 31.390625 
L 31.203125 31.390625 
L 31.203125 23.390625 
L 4.890625 23.390625 
z
" id="DejaVuSans-45"/>
      <path d="M 44.28125 53.078125 
L 44.28125 44.578125 
Q 40.484375 46.53125 36.375 47.5 
Q 32.28125 48.484375 27.875 48.484375 
Q 21.1875 48.484375 17.84375 46.4375 
Q 14.5 44.390625 14.5 40.28125 
Q 14.5 37.15625 16.890625 35.375 
Q 19.28125 33.59375 26.515625 31.984375 
L 29.59375 31.296875 
Q 39.15625 29.25 43.1875 25.515625 
Q 47.21875 21.78125 47.21875 15.09375 
Q 47.21875 7.46875 41.1875 3.015625 
Q 35.15625 -1.421875 24.609375 -1.421875 
Q 20.21875 -1.421875 15.453125 -0.5625 
Q 10.6875 0.296875 5.421875 2 
L 5.421875 11.28125 
Q 10.40625 8.6875 15.234375 7.390625 
Q 20.0625 6.109375 24.8125 6.109375 
Q 31.15625 6.109375 34.5625 8.28125 
Q 37.984375 10.453125 37.984375 14.40625 
Q 37.984375 18.0625 35.515625 20.015625 
Q 33.0625 21.96875 24.703125 23.78125 
L 21.578125 24.515625 
Q 13.234375 26.265625 9.515625 29.90625 
Q 5.8125 33.546875 5.8125 39.890625 
Q 5.8125 47.609375 11.28125 51.796875 
Q 16.75 56 26.8125 56 
Q 31.78125 56 36.171875 55.265625 
Q 40.578125 54.546875 44.28125 53.078125 
z
" id="DejaVuSans-115"/>
     </defs>
     <g transform="translate(210.6 168.117188)scale(0.18 -0.18)">
      <use xlink:href="#DejaVuSans-69"/>
      <use x="63.183594" xlink:href="#DejaVuSans-83"/>
      <use x="126.660156" xlink:href="#DejaVuSans-83"/>
      <use x="190.136719" xlink:href="#DejaVuSans-32"/>
      <use x="221.923828" xlink:href="#DejaVuSans-45"/>
      <use x="258.007812" xlink:href="#DejaVuSans-45"/>
      <use x="294.091797" xlink:href="#DejaVuSans-32"/>
      <use x="325.878906" xlink:href="#DejaVuSans-49"/>
      <use x="389.501953" xlink:href="#DejaVuSans-48"/>
      <use x="453.125" xlink:href="#DejaVuSans-48"/>
      <use x="516.748047" xlink:href="#DejaVuSans-48"/>
      <use x="580.371094" xlink:href="#DejaVuSans-32"/>
      <use x="612.158203" xlink:href="#DejaVuSans-115"/>
      <use x="664.257812" xlink:href="#DejaVuSans-97"/>
      <use x="725.537109" xlink:href="#DejaVuSans-109"/>
      <use x="822.949219" xlink:href="#DejaVuSans-112"/>
      <use x="886.425781" xlink:href="#DejaVuSans-108"/>
      <use x="914.208984" xlink:href="#DejaVuSans-101"/>
      <use x="975.732422" xlink:href="#DejaVuSans-115"/>
     </g>
    </g>
    <g id="line2d_18">
     <path d="M 160.2 188.237812 
L 196.2 188.237812 
" style="fill:none;stroke:#0000ff;stroke-linecap:square;stroke-width:1.5;"/>
    </g>
    <g id="line2d_19"/>
    <g id="text_16">
     <!-- ESS - - 100 samples -->
     <g transform="translate(210.6 194.537812)scale(0.18 -0.18)">
      <use xlink:href="#DejaVuSans-69"/>
      <use x="63.183594" xlink:href="#DejaVuSans-83"/>
      <use x="126.660156" xlink:href="#DejaVuSans-83"/>
      <use x="190.136719" xlink:href="#DejaVuSans-32"/>
      <use x="221.923828" xlink:href="#DejaVuSans-45"/>
      <use x="258.007812" xlink:href="#DejaVuSans-45"/>
      <use x="294.091797" xlink:href="#DejaVuSans-32"/>
      <use x="325.878906" xlink:href="#DejaVuSans-49"/>
      <use x="389.501953" xlink:href="#DejaVuSans-48"/>
      <use x="453.125" xlink:href="#DejaVuSans-48"/>
      <use x="516.748047" xlink:href="#DejaVuSans-32"/>
      <use x="548.535156" xlink:href="#DejaVuSans-115"/>
      <use x="600.634766" xlink:href="#DejaVuSans-97"/>
      <use x="661.914062" xlink:href="#DejaVuSans-109"/>
      <use x="759.326172" xlink:href="#DejaVuSans-112"/>
      <use x="822.802734" xlink:href="#DejaVuSans-108"/>
      <use x="850.585938" xlink:href="#DejaVuSans-101"/>
      <use x="912.109375" xlink:href="#DejaVuSans-115"/>
     </g>
    </g>
    <g id="line2d_20">
     <path d="M 160.2 214.658437 
L 196.2 214.658437 
" style="fill:none;stroke:#000000;stroke-linecap:square;stroke-width:1.5;"/>
    </g>
    <g id="line2d_21"/>
    <g id="text_17">
     <!-- ESS - - 10 samples -->
     <g transform="translate(210.6 220.958437)scale(0.18 -0.18)">
      <use xlink:href="#DejaVuSans-69"/>
      <use x="63.183594" xlink:href="#DejaVuSans-83"/>
      <use x="126.660156" xlink:href="#DejaVuSans-83"/>
      <use x="190.136719" xlink:href="#DejaVuSans-32"/>
      <use x="221.923828" xlink:href="#DejaVuSans-45"/>
      <use x="258.007812" xlink:href="#DejaVuSans-45"/>
      <use x="294.091797" xlink:href="#DejaVuSans-32"/>
      <use x="325.878906" xlink:href="#DejaVuSans-49"/>
      <use x="389.501953" xlink:href="#DejaVuSans-48"/>
      <use x="453.125" xlink:href="#DejaVuSans-32"/>
      <use x="484.912109" xlink:href="#DejaVuSans-115"/>
      <use x="537.011719" xlink:href="#DejaVuSans-97"/>
      <use x="598.291016" xlink:href="#DejaVuSans-109"/>
      <use x="695.703125" xlink:href="#DejaVuSans-112"/>
      <use x="759.179688" xlink:href="#DejaVuSans-108"/>
      <use x="786.962891" xlink:href="#DejaVuSans-101"/>
      <use x="848.486328" xlink:href="#DejaVuSans-115"/>
     </g>
    </g>
   </g>
  </g>
 </g>
 <defs>
  <clipPath id="p5377572a1a">
   <rect height="869.76" width="892.8" x="144" y="138.24"/>
  </clipPath>
 </defs>
</svg>
