<?xml version="1.0" encoding="utf-8" standalone="no"?>
<!DOCTYPE svg PUBLIC "-//W3C//DTD SVG 1.1//EN"
  "http://www.w3.org/Graphics/SVG/1.1/DTD/svg11.dtd">
<!-- Created with matplotlib (https://matplotlib.org/) -->
<svg height="720pt" version="1.1" viewBox="0 0 720 720" width="720pt" xmlns="http://www.w3.org/2000/svg" xmlns:xlink="http://www.w3.org/1999/xlink">
 <defs>
  <style type="text/css">
*{stroke-linecap:butt;stroke-linejoin:round;}
  </style>
 </defs>
 <g id="figure_1">
  <g id="patch_1">
   <path d="M 0 720 
L 720 720 
L 720 0 
L 0 0 
z
" style="fill:#ffffff;"/>
  </g>
  <g id="axes_1">
   <g id="patch_2">
    <path d="M 90 630 
L 648 630 
L 648 86.4 
L 90 86.4 
z
" style="fill:#ffffff;"/>
   </g>
   <g id="matplotlib.axis_1"/>
   <g id="matplotlib.axis_2"/>
   <g id="patch_3">
    <path d="M 90 630 
L 90 86.4 
" style="fill:none;stroke:#000000;stroke-linecap:square;stroke-linejoin:miter;stroke-width:0.8;"/>
   </g>
   <g id="patch_4">
    <path d="M 648 630 
L 648 86.4 
" style="fill:none;stroke:#000000;stroke-linecap:square;stroke-linejoin:miter;stroke-width:0.8;"/>
   </g>
   <g id="patch_5">
    <path d="M 90 630 
L 648 630 
" style="fill:none;stroke:#000000;stroke-linecap:square;stroke-linejoin:miter;stroke-width:0.8;"/>
   </g>
   <g id="patch_6">
    <path d="M 90 86.4 
L 648 86.4 
" style="fill:none;stroke:#000000;stroke-linecap:square;stroke-linejoin:miter;stroke-width:0.8;"/>
   </g>
  </g>
  <g id="axes_2">
   <g id="patch_7">
    <path d="M 90 630 
L 648 630 
L 648 86.4 
L 90 86.4 
z
" style="fill:#ffffff;"/>
   </g>
   <g id="matplotlib.axis_3">
    <g id="xtick_1">
     <g id="line2d_1">
      <defs>
       <path d="M 0 0 
L 0 3.5 
" id="mb3123b504f" style="stroke:#000000;stroke-width:0.8;"/>
      </defs>
      <g>
       <use style="stroke:#000000;stroke-width:0.8;" x="115.363636" xlink:href="#mb3123b504f" y="630"/>
      </g>
     </g>
     <g id="text_1">
      <!-- 0 -->
      <defs>
       <path d="M 31.78125 66.40625 
Q 24.171875 66.40625 20.328125 58.90625 
Q 16.5 51.421875 16.5 36.375 
Q 16.5 21.390625 20.328125 13.890625 
Q 24.171875 6.390625 31.78125 6.390625 
Q 39.453125 6.390625 43.28125 13.890625 
Q 47.125 21.390625 47.125 36.375 
Q 47.125 51.421875 43.28125 58.90625 
Q 39.453125 66.40625 31.78125 66.40625 
z
M 31.78125 74.21875 
Q 44.046875 74.21875 50.515625 64.515625 
Q 56.984375 54.828125 56.984375 36.375 
Q 56.984375 17.96875 50.515625 8.265625 
Q 44.046875 -1.421875 31.78125 -1.421875 
Q 19.53125 -1.421875 13.0625 8.265625 
Q 6.59375 17.96875 6.59375 36.375 
Q 6.59375 54.828125 13.0625 64.515625 
Q 19.53125 74.21875 31.78125 74.21875 
z
" id="DejaVuSans-48"/>
      </defs>
      <g transform="translate(109.637386 650.677187)scale(0.18 -0.18)">
       <use xlink:href="#DejaVuSans-48"/>
      </g>
     </g>
    </g>
    <g id="xtick_2">
     <g id="line2d_2">
      <g>
       <use style="stroke:#000000;stroke-width:0.8;" x="179.494196" xlink:href="#mb3123b504f" y="630"/>
      </g>
     </g>
     <g id="text_2">
      <!-- 100 -->
      <defs>
       <path d="M 12.40625 8.296875 
L 28.515625 8.296875 
L 28.515625 63.921875 
L 10.984375 60.40625 
L 10.984375 69.390625 
L 28.421875 72.90625 
L 38.28125 72.90625 
L 38.28125 8.296875 
L 54.390625 8.296875 
L 54.390625 0 
L 12.40625 0 
z
" id="DejaVuSans-49"/>
      </defs>
      <g transform="translate(162.315446 650.677187)scale(0.18 -0.18)">
       <use xlink:href="#DejaVuSans-49"/>
       <use x="63.623047" xlink:href="#DejaVuSans-48"/>
       <use x="127.246094" xlink:href="#DejaVuSans-48"/>
      </g>
     </g>
    </g>
    <g id="xtick_3">
     <g id="line2d_3">
      <g>
       <use style="stroke:#000000;stroke-width:0.8;" x="243.624756" xlink:href="#mb3123b504f" y="630"/>
      </g>
     </g>
     <g id="text_3">
      <!-- 200 -->
      <defs>
       <path d="M 19.1875 8.296875 
L 53.609375 8.296875 
L 53.609375 0 
L 7.328125 0 
L 7.328125 8.296875 
Q 12.9375 14.109375 22.625 23.890625 
Q 32.328125 33.6875 34.8125 36.53125 
Q 39.546875 41.84375 41.421875 45.53125 
Q 43.3125 49.21875 43.3125 52.78125 
Q 43.3125 58.59375 39.234375 62.25 
Q 35.15625 65.921875 28.609375 65.921875 
Q 23.96875 65.921875 18.8125 64.3125 
Q 13.671875 62.703125 7.8125 59.421875 
L 7.8125 69.390625 
Q 13.765625 71.78125 18.9375 73 
Q 24.125 74.21875 28.421875 74.21875 
Q 39.75 74.21875 46.484375 68.546875 
Q 53.21875 62.890625 53.21875 53.421875 
Q 53.21875 48.921875 51.53125 44.890625 
Q 49.859375 40.875 45.40625 35.40625 
Q 44.1875 33.984375 37.640625 27.21875 
Q 31.109375 20.453125 19.1875 8.296875 
z
" id="DejaVuSans-50"/>
      </defs>
      <g transform="translate(226.446006 650.677187)scale(0.18 -0.18)">
       <use xlink:href="#DejaVuSans-50"/>
       <use x="63.623047" xlink:href="#DejaVuSans-48"/>
       <use x="127.246094" xlink:href="#DejaVuSans-48"/>
      </g>
     </g>
    </g>
    <g id="xtick_4">
     <g id="line2d_4">
      <g>
       <use style="stroke:#000000;stroke-width:0.8;" x="307.755315" xlink:href="#mb3123b504f" y="630"/>
      </g>
     </g>
     <g id="text_4">
      <!-- 300 -->
      <defs>
       <path d="M 40.578125 39.3125 
Q 47.65625 37.796875 51.625 33 
Q 55.609375 28.21875 55.609375 21.1875 
Q 55.609375 10.40625 48.1875 4.484375 
Q 40.765625 -1.421875 27.09375 -1.421875 
Q 22.515625 -1.421875 17.65625 -0.515625 
Q 12.796875 0.390625 7.625 2.203125 
L 7.625 11.71875 
Q 11.71875 9.328125 16.59375 8.109375 
Q 21.484375 6.890625 26.8125 6.890625 
Q 36.078125 6.890625 40.9375 10.546875 
Q 45.796875 14.203125 45.796875 21.1875 
Q 45.796875 27.640625 41.28125 31.265625 
Q 36.765625 34.90625 28.71875 34.90625 
L 20.21875 34.90625 
L 20.21875 43.015625 
L 29.109375 43.015625 
Q 36.375 43.015625 40.234375 45.921875 
Q 44.09375 48.828125 44.09375 54.296875 
Q 44.09375 59.90625 40.109375 62.90625 
Q 36.140625 65.921875 28.71875 65.921875 
Q 24.65625 65.921875 20.015625 65.03125 
Q 15.375 64.15625 9.8125 62.3125 
L 9.8125 71.09375 
Q 15.4375 72.65625 20.34375 73.4375 
Q 25.25 74.21875 29.59375 74.21875 
Q 40.828125 74.21875 47.359375 69.109375 
Q 53.90625 64.015625 53.90625 55.328125 
Q 53.90625 49.265625 50.4375 45.09375 
Q 46.96875 40.921875 40.578125 39.3125 
z
" id="DejaVuSans-51"/>
      </defs>
      <g transform="translate(290.576565 650.677187)scale(0.18 -0.18)">
       <use xlink:href="#DejaVuSans-51"/>
       <use x="63.623047" xlink:href="#DejaVuSans-48"/>
       <use x="127.246094" xlink:href="#DejaVuSans-48"/>
      </g>
     </g>
    </g>
    <g id="xtick_5">
     <g id="line2d_5">
      <g>
       <use style="stroke:#000000;stroke-width:0.8;" x="371.885875" xlink:href="#mb3123b504f" y="630"/>
      </g>
     </g>
     <g id="text_5">
      <!-- 400 -->
      <defs>
       <path d="M 37.796875 64.3125 
L 12.890625 25.390625 
L 37.796875 25.390625 
z
M 35.203125 72.90625 
L 47.609375 72.90625 
L 47.609375 25.390625 
L 58.015625 25.390625 
L 58.015625 17.1875 
L 47.609375 17.1875 
L 47.609375 0 
L 37.796875 0 
L 37.796875 17.1875 
L 4.890625 17.1875 
L 4.890625 26.703125 
z
" id="DejaVuSans-52"/>
      </defs>
      <g transform="translate(354.707125 650.677187)scale(0.18 -0.18)">
       <use xlink:href="#DejaVuSans-52"/>
       <use x="63.623047" xlink:href="#DejaVuSans-48"/>
       <use x="127.246094" xlink:href="#DejaVuSans-48"/>
      </g>
     </g>
    </g>
    <g id="xtick_6">
     <g id="line2d_6">
      <g>
       <use style="stroke:#000000;stroke-width:0.8;" x="436.016435" xlink:href="#mb3123b504f" y="630"/>
      </g>
     </g>
     <g id="text_6">
      <!-- 500 -->
      <defs>
       <path d="M 10.796875 72.90625 
L 49.515625 72.90625 
L 49.515625 64.59375 
L 19.828125 64.59375 
L 19.828125 46.734375 
Q 21.96875 47.46875 24.109375 47.828125 
Q 26.265625 48.1875 28.421875 48.1875 
Q 40.625 48.1875 47.75 41.5 
Q 54.890625 34.8125 54.890625 23.390625 
Q 54.890625 11.625 47.5625 5.09375 
Q 40.234375 -1.421875 26.90625 -1.421875 
Q 22.3125 -1.421875 17.546875 -0.640625 
Q 12.796875 0.140625 7.71875 1.703125 
L 7.71875 11.625 
Q 12.109375 9.234375 16.796875 8.0625 
Q 21.484375 6.890625 26.703125 6.890625 
Q 35.15625 6.890625 40.078125 11.328125 
Q 45.015625 15.765625 45.015625 23.390625 
Q 45.015625 31 40.078125 35.4375 
Q 35.15625 39.890625 26.703125 39.890625 
Q 22.75 39.890625 18.8125 39.015625 
Q 14.890625 38.140625 10.796875 36.28125 
z
" id="DejaVuSans-53"/>
      </defs>
      <g transform="translate(418.837685 650.677187)scale(0.18 -0.18)">
       <use xlink:href="#DejaVuSans-53"/>
       <use x="63.623047" xlink:href="#DejaVuSans-48"/>
       <use x="127.246094" xlink:href="#DejaVuSans-48"/>
      </g>
     </g>
    </g>
    <g id="xtick_7">
     <g id="line2d_7">
      <g>
       <use style="stroke:#000000;stroke-width:0.8;" x="500.146995" xlink:href="#mb3123b504f" y="630"/>
      </g>
     </g>
     <g id="text_7">
      <!-- 600 -->
      <defs>
       <path d="M 33.015625 40.375 
Q 26.375 40.375 22.484375 35.828125 
Q 18.609375 31.296875 18.609375 23.390625 
Q 18.609375 15.53125 22.484375 10.953125 
Q 26.375 6.390625 33.015625 6.390625 
Q 39.65625 6.390625 43.53125 10.953125 
Q 47.40625 15.53125 47.40625 23.390625 
Q 47.40625 31.296875 43.53125 35.828125 
Q 39.65625 40.375 33.015625 40.375 
z
M 52.59375 71.296875 
L 52.59375 62.3125 
Q 48.875 64.0625 45.09375 64.984375 
Q 41.3125 65.921875 37.59375 65.921875 
Q 27.828125 65.921875 22.671875 59.328125 
Q 17.53125 52.734375 16.796875 39.40625 
Q 19.671875 43.65625 24.015625 45.921875 
Q 28.375 48.1875 33.59375 48.1875 
Q 44.578125 48.1875 50.953125 41.515625 
Q 57.328125 34.859375 57.328125 23.390625 
Q 57.328125 12.15625 50.6875 5.359375 
Q 44.046875 -1.421875 33.015625 -1.421875 
Q 20.359375 -1.421875 13.671875 8.265625 
Q 6.984375 17.96875 6.984375 36.375 
Q 6.984375 53.65625 15.1875 63.9375 
Q 23.390625 74.21875 37.203125 74.21875 
Q 40.921875 74.21875 44.703125 73.484375 
Q 48.484375 72.75 52.59375 71.296875 
z
" id="DejaVuSans-54"/>
      </defs>
      <g transform="translate(482.968245 650.677187)scale(0.18 -0.18)">
       <use xlink:href="#DejaVuSans-54"/>
       <use x="63.623047" xlink:href="#DejaVuSans-48"/>
       <use x="127.246094" xlink:href="#DejaVuSans-48"/>
      </g>
     </g>
    </g>
    <g id="xtick_8">
     <g id="line2d_8">
      <g>
       <use style="stroke:#000000;stroke-width:0.8;" x="564.277554" xlink:href="#mb3123b504f" y="630"/>
      </g>
     </g>
     <g id="text_8">
      <!-- 700 -->
      <defs>
       <path d="M 8.203125 72.90625 
L 55.078125 72.90625 
L 55.078125 68.703125 
L 28.609375 0 
L 18.3125 0 
L 43.21875 64.59375 
L 8.203125 64.59375 
z
" id="DejaVuSans-55"/>
      </defs>
      <g transform="translate(547.098804 650.677187)scale(0.18 -0.18)">
       <use xlink:href="#DejaVuSans-55"/>
       <use x="63.623047" xlink:href="#DejaVuSans-48"/>
       <use x="127.246094" xlink:href="#DejaVuSans-48"/>
      </g>
     </g>
    </g>
    <g id="xtick_9">
     <g id="line2d_9">
      <g>
       <use style="stroke:#000000;stroke-width:0.8;" x="628.408114" xlink:href="#mb3123b504f" y="630"/>
      </g>
     </g>
     <g id="text_9">
      <!-- 800 -->
      <defs>
       <path d="M 31.78125 34.625 
Q 24.75 34.625 20.71875 30.859375 
Q 16.703125 27.09375 16.703125 20.515625 
Q 16.703125 13.921875 20.71875 10.15625 
Q 24.75 6.390625 31.78125 6.390625 
Q 38.8125 6.390625 42.859375 10.171875 
Q 46.921875 13.96875 46.921875 20.515625 
Q 46.921875 27.09375 42.890625 30.859375 
Q 38.875 34.625 31.78125 34.625 
z
M 21.921875 38.8125 
Q 15.578125 40.375 12.03125 44.71875 
Q 8.5 49.078125 8.5 55.328125 
Q 8.5 64.0625 14.71875 69.140625 
Q 20.953125 74.21875 31.78125 74.21875 
Q 42.671875 74.21875 48.875 69.140625 
Q 55.078125 64.0625 55.078125 55.328125 
Q 55.078125 49.078125 51.53125 44.71875 
Q 48 40.375 41.703125 38.8125 
Q 48.828125 37.15625 52.796875 32.3125 
Q 56.78125 27.484375 56.78125 20.515625 
Q 56.78125 9.90625 50.3125 4.234375 
Q 43.84375 -1.421875 31.78125 -1.421875 
Q 19.734375 -1.421875 13.25 4.234375 
Q 6.78125 9.90625 6.78125 20.515625 
Q 6.78125 27.484375 10.78125 32.3125 
Q 14.796875 37.15625 21.921875 38.8125 
z
M 18.3125 54.390625 
Q 18.3125 48.734375 21.84375 45.5625 
Q 25.390625 42.390625 31.78125 42.390625 
Q 38.140625 42.390625 41.71875 45.5625 
Q 45.3125 48.734375 45.3125 54.390625 
Q 45.3125 60.0625 41.71875 63.234375 
Q 38.140625 66.40625 31.78125 66.40625 
Q 25.390625 66.40625 21.84375 63.234375 
Q 18.3125 60.0625 18.3125 54.390625 
z
" id="DejaVuSans-56"/>
      </defs>
      <g transform="translate(611.229364 650.677187)scale(0.18 -0.18)">
       <use xlink:href="#DejaVuSans-56"/>
       <use x="63.623047" xlink:href="#DejaVuSans-48"/>
       <use x="127.246094" xlink:href="#DejaVuSans-48"/>
      </g>
     </g>
    </g>
    <g id="text_10">
     <!-- epoch -->
     <defs>
      <path d="M 56.203125 29.59375 
L 56.203125 25.203125 
L 14.890625 25.203125 
Q 15.484375 15.921875 20.484375 11.0625 
Q 25.484375 6.203125 34.421875 6.203125 
Q 39.59375 6.203125 44.453125 7.46875 
Q 49.3125 8.734375 54.109375 11.28125 
L 54.109375 2.78125 
Q 49.265625 0.734375 44.1875 -0.34375 
Q 39.109375 -1.421875 33.890625 -1.421875 
Q 20.796875 -1.421875 13.15625 6.1875 
Q 5.515625 13.8125 5.515625 26.8125 
Q 5.515625 40.234375 12.765625 48.109375 
Q 20.015625 56 32.328125 56 
Q 43.359375 56 49.78125 48.890625 
Q 56.203125 41.796875 56.203125 29.59375 
z
M 47.21875 32.234375 
Q 47.125 39.59375 43.09375 43.984375 
Q 39.0625 48.390625 32.421875 48.390625 
Q 24.90625 48.390625 20.390625 44.140625 
Q 15.875 39.890625 15.1875 32.171875 
z
" id="DejaVuSans-101"/>
      <path d="M 18.109375 8.203125 
L 18.109375 -20.796875 
L 9.078125 -20.796875 
L 9.078125 54.6875 
L 18.109375 54.6875 
L 18.109375 46.390625 
Q 20.953125 51.265625 25.265625 53.625 
Q 29.59375 56 35.59375 56 
Q 45.5625 56 51.78125 48.09375 
Q 58.015625 40.1875 58.015625 27.296875 
Q 58.015625 14.40625 51.78125 6.484375 
Q 45.5625 -1.421875 35.59375 -1.421875 
Q 29.59375 -1.421875 25.265625 0.953125 
Q 20.953125 3.328125 18.109375 8.203125 
z
M 48.6875 27.296875 
Q 48.6875 37.203125 44.609375 42.84375 
Q 40.53125 48.484375 33.40625 48.484375 
Q 26.265625 48.484375 22.1875 42.84375 
Q 18.109375 37.203125 18.109375 27.296875 
Q 18.109375 17.390625 22.1875 11.75 
Q 26.265625 6.109375 33.40625 6.109375 
Q 40.53125 6.109375 44.609375 11.75 
Q 48.6875 17.390625 48.6875 27.296875 
z
" id="DejaVuSans-112"/>
      <path d="M 30.609375 48.390625 
Q 23.390625 48.390625 19.1875 42.75 
Q 14.984375 37.109375 14.984375 27.296875 
Q 14.984375 17.484375 19.15625 11.84375 
Q 23.34375 6.203125 30.609375 6.203125 
Q 37.796875 6.203125 41.984375 11.859375 
Q 46.1875 17.53125 46.1875 27.296875 
Q 46.1875 37.015625 41.984375 42.703125 
Q 37.796875 48.390625 30.609375 48.390625 
z
M 30.609375 56 
Q 42.328125 56 49.015625 48.375 
Q 55.71875 40.765625 55.71875 27.296875 
Q 55.71875 13.875 49.015625 6.21875 
Q 42.328125 -1.421875 30.609375 -1.421875 
Q 18.84375 -1.421875 12.171875 6.21875 
Q 5.515625 13.875 5.515625 27.296875 
Q 5.515625 40.765625 12.171875 48.375 
Q 18.84375 56 30.609375 56 
z
" id="DejaVuSans-111"/>
      <path d="M 48.78125 52.59375 
L 48.78125 44.1875 
Q 44.96875 46.296875 41.140625 47.34375 
Q 37.3125 48.390625 33.40625 48.390625 
Q 24.65625 48.390625 19.8125 42.84375 
Q 14.984375 37.3125 14.984375 27.296875 
Q 14.984375 17.28125 19.8125 11.734375 
Q 24.65625 6.203125 33.40625 6.203125 
Q 37.3125 6.203125 41.140625 7.25 
Q 44.96875 8.296875 48.78125 10.40625 
L 48.78125 2.09375 
Q 45.015625 0.34375 40.984375 -0.53125 
Q 36.96875 -1.421875 32.421875 -1.421875 
Q 20.0625 -1.421875 12.78125 6.34375 
Q 5.515625 14.109375 5.515625 27.296875 
Q 5.515625 40.671875 12.859375 48.328125 
Q 20.21875 56 33.015625 56 
Q 37.15625 56 41.109375 55.140625 
Q 45.0625 54.296875 48.78125 52.59375 
z
" id="DejaVuSans-99"/>
      <path d="M 54.890625 33.015625 
L 54.890625 0 
L 45.90625 0 
L 45.90625 32.71875 
Q 45.90625 40.484375 42.875 44.328125 
Q 39.84375 48.1875 33.796875 48.1875 
Q 26.515625 48.1875 22.3125 43.546875 
Q 18.109375 38.921875 18.109375 30.90625 
L 18.109375 0 
L 9.078125 0 
L 9.078125 75.984375 
L 18.109375 75.984375 
L 18.109375 46.1875 
Q 21.34375 51.125 25.703125 53.5625 
Q 30.078125 56 35.796875 56 
Q 45.21875 56 50.046875 50.171875 
Q 54.890625 44.34375 54.890625 33.015625 
z
" id="DejaVuSans-104"/>
     </defs>
     <g transform="translate(344.635 670.578125)scale(0.16 -0.16)">
      <use xlink:href="#DejaVuSans-101"/>
      <use x="61.523438" xlink:href="#DejaVuSans-112"/>
      <use x="125" xlink:href="#DejaVuSans-111"/>
      <use x="186.181641" xlink:href="#DejaVuSans-99"/>
      <use x="241.162109" xlink:href="#DejaVuSans-104"/>
     </g>
    </g>
   </g>
   <g id="matplotlib.axis_4">
    <g id="ytick_1">
     <g id="line2d_10">
      <defs>
       <path d="M 0 0 
L -3.5 0 
" id="m2f49e85566" style="stroke:#000000;stroke-width:0.8;"/>
      </defs>
      <g>
       <use style="stroke:#000000;stroke-width:0.8;" x="90" xlink:href="#m2f49e85566" y="571.144496"/>
      </g>
     </g>
     <g id="text_11">
      <!-- −55 -->
      <defs>
       <path d="M 10.59375 35.5 
L 73.1875 35.5 
L 73.1875 27.203125 
L 10.59375 27.203125 
z
" id="DejaVuSans-8722"/>
      </defs>
      <g transform="translate(45.011563 577.983089)scale(0.18 -0.18)">
       <use xlink:href="#DejaVuSans-8722"/>
       <use x="83.789062" xlink:href="#DejaVuSans-53"/>
       <use x="147.412109" xlink:href="#DejaVuSans-53"/>
      </g>
     </g>
    </g>
    <g id="ytick_2">
     <g id="line2d_11">
      <g>
       <use style="stroke:#000000;stroke-width:0.8;" x="90" xlink:href="#m2f49e85566" y="472.848373"/>
      </g>
     </g>
     <g id="text_12">
      <!-- −50 -->
      <g transform="translate(45.011563 479.686967)scale(0.18 -0.18)">
       <use xlink:href="#DejaVuSans-8722"/>
       <use x="83.789062" xlink:href="#DejaVuSans-53"/>
       <use x="147.412109" xlink:href="#DejaVuSans-48"/>
      </g>
     </g>
    </g>
    <g id="ytick_3">
     <g id="line2d_12">
      <g>
       <use style="stroke:#000000;stroke-width:0.8;" x="90" xlink:href="#m2f49e85566" y="374.55225"/>
      </g>
     </g>
     <g id="text_13">
      <!-- −45 -->
      <g transform="translate(45.011563 381.390844)scale(0.18 -0.18)">
       <use xlink:href="#DejaVuSans-8722"/>
       <use x="83.789062" xlink:href="#DejaVuSans-52"/>
       <use x="147.412109" xlink:href="#DejaVuSans-53"/>
      </g>
     </g>
    </g>
    <g id="ytick_4">
     <g id="line2d_13">
      <g>
       <use style="stroke:#000000;stroke-width:0.8;" x="90" xlink:href="#m2f49e85566" y="276.256127"/>
      </g>
     </g>
     <g id="text_14">
      <!-- −40 -->
      <g transform="translate(45.011563 283.094721)scale(0.18 -0.18)">
       <use xlink:href="#DejaVuSans-8722"/>
       <use x="83.789062" xlink:href="#DejaVuSans-52"/>
       <use x="147.412109" xlink:href="#DejaVuSans-48"/>
      </g>
     </g>
    </g>
    <g id="ytick_5">
     <g id="line2d_14">
      <g>
       <use style="stroke:#000000;stroke-width:0.8;" x="90" xlink:href="#m2f49e85566" y="177.960005"/>
      </g>
     </g>
     <g id="text_15">
      <!-- −35 -->
      <g transform="translate(45.011563 184.798599)scale(0.18 -0.18)">
       <use xlink:href="#DejaVuSans-8722"/>
       <use x="83.789062" xlink:href="#DejaVuSans-51"/>
       <use x="147.412109" xlink:href="#DejaVuSans-53"/>
      </g>
     </g>
    </g>
    <g id="text_16">
     <!-- EUBO and ELBO -->
     <defs>
      <path d="M 9.8125 72.90625 
L 55.90625 72.90625 
L 55.90625 64.59375 
L 19.671875 64.59375 
L 19.671875 43.015625 
L 54.390625 43.015625 
L 54.390625 34.71875 
L 19.671875 34.71875 
L 19.671875 8.296875 
L 56.78125 8.296875 
L 56.78125 0 
L 9.8125 0 
z
" id="DejaVuSans-69"/>
      <path d="M 8.6875 72.90625 
L 18.609375 72.90625 
L 18.609375 28.609375 
Q 18.609375 16.890625 22.84375 11.734375 
Q 27.09375 6.59375 36.625 6.59375 
Q 46.09375 6.59375 50.34375 11.734375 
Q 54.59375 16.890625 54.59375 28.609375 
L 54.59375 72.90625 
L 64.5 72.90625 
L 64.5 27.390625 
Q 64.5 13.140625 57.4375 5.859375 
Q 50.390625 -1.421875 36.625 -1.421875 
Q 22.796875 -1.421875 15.734375 5.859375 
Q 8.6875 13.140625 8.6875 27.390625 
z
" id="DejaVuSans-85"/>
      <path d="M 19.671875 34.8125 
L 19.671875 8.109375 
L 35.5 8.109375 
Q 43.453125 8.109375 47.28125 11.40625 
Q 51.125 14.703125 51.125 21.484375 
Q 51.125 28.328125 47.28125 31.5625 
Q 43.453125 34.8125 35.5 34.8125 
z
M 19.671875 64.796875 
L 19.671875 42.828125 
L 34.28125 42.828125 
Q 41.5 42.828125 45.03125 45.53125 
Q 48.578125 48.25 48.578125 53.8125 
Q 48.578125 59.328125 45.03125 62.0625 
Q 41.5 64.796875 34.28125 64.796875 
z
M 9.8125 72.90625 
L 35.015625 72.90625 
Q 46.296875 72.90625 52.390625 68.21875 
Q 58.5 63.53125 58.5 54.890625 
Q 58.5 48.1875 55.375 44.234375 
Q 52.25 40.28125 46.1875 39.3125 
Q 53.46875 37.75 57.5 32.78125 
Q 61.53125 27.828125 61.53125 20.40625 
Q 61.53125 10.640625 54.890625 5.3125 
Q 48.25 0 35.984375 0 
L 9.8125 0 
z
" id="DejaVuSans-66"/>
      <path d="M 39.40625 66.21875 
Q 28.65625 66.21875 22.328125 58.203125 
Q 16.015625 50.203125 16.015625 36.375 
Q 16.015625 22.609375 22.328125 14.59375 
Q 28.65625 6.59375 39.40625 6.59375 
Q 50.140625 6.59375 56.421875 14.59375 
Q 62.703125 22.609375 62.703125 36.375 
Q 62.703125 50.203125 56.421875 58.203125 
Q 50.140625 66.21875 39.40625 66.21875 
z
M 39.40625 74.21875 
Q 54.734375 74.21875 63.90625 63.9375 
Q 73.09375 53.65625 73.09375 36.375 
Q 73.09375 19.140625 63.90625 8.859375 
Q 54.734375 -1.421875 39.40625 -1.421875 
Q 24.03125 -1.421875 14.8125 8.828125 
Q 5.609375 19.09375 5.609375 36.375 
Q 5.609375 53.65625 14.8125 63.9375 
Q 24.03125 74.21875 39.40625 74.21875 
z
" id="DejaVuSans-79"/>
      <path id="DejaVuSans-32"/>
      <path d="M 34.28125 27.484375 
Q 23.390625 27.484375 19.1875 25 
Q 14.984375 22.515625 14.984375 16.5 
Q 14.984375 11.71875 18.140625 8.90625 
Q 21.296875 6.109375 26.703125 6.109375 
Q 34.1875 6.109375 38.703125 11.40625 
Q 43.21875 16.703125 43.21875 25.484375 
L 43.21875 27.484375 
z
M 52.203125 31.203125 
L 52.203125 0 
L 43.21875 0 
L 43.21875 8.296875 
Q 40.140625 3.328125 35.546875 0.953125 
Q 30.953125 -1.421875 24.3125 -1.421875 
Q 15.921875 -1.421875 10.953125 3.296875 
Q 6 8.015625 6 15.921875 
Q 6 25.140625 12.171875 29.828125 
Q 18.359375 34.515625 30.609375 34.515625 
L 43.21875 34.515625 
L 43.21875 35.40625 
Q 43.21875 41.609375 39.140625 45 
Q 35.0625 48.390625 27.6875 48.390625 
Q 23 48.390625 18.546875 47.265625 
Q 14.109375 46.140625 10.015625 43.890625 
L 10.015625 52.203125 
Q 14.9375 54.109375 19.578125 55.046875 
Q 24.21875 56 28.609375 56 
Q 40.484375 56 46.34375 49.84375 
Q 52.203125 43.703125 52.203125 31.203125 
z
" id="DejaVuSans-97"/>
      <path d="M 54.890625 33.015625 
L 54.890625 0 
L 45.90625 0 
L 45.90625 32.71875 
Q 45.90625 40.484375 42.875 44.328125 
Q 39.84375 48.1875 33.796875 48.1875 
Q 26.515625 48.1875 22.3125 43.546875 
Q 18.109375 38.921875 18.109375 30.90625 
L 18.109375 0 
L 9.078125 0 
L 9.078125 54.6875 
L 18.109375 54.6875 
L 18.109375 46.1875 
Q 21.34375 51.125 25.703125 53.5625 
Q 30.078125 56 35.796875 56 
Q 45.21875 56 50.046875 50.171875 
Q 54.890625 44.34375 54.890625 33.015625 
z
" id="DejaVuSans-110"/>
      <path d="M 45.40625 46.390625 
L 45.40625 75.984375 
L 54.390625 75.984375 
L 54.390625 0 
L 45.40625 0 
L 45.40625 8.203125 
Q 42.578125 3.328125 38.25 0.953125 
Q 33.9375 -1.421875 27.875 -1.421875 
Q 17.96875 -1.421875 11.734375 6.484375 
Q 5.515625 14.40625 5.515625 27.296875 
Q 5.515625 40.1875 11.734375 48.09375 
Q 17.96875 56 27.875 56 
Q 33.9375 56 38.25 53.625 
Q 42.578125 51.265625 45.40625 46.390625 
z
M 14.796875 27.296875 
Q 14.796875 17.390625 18.875 11.75 
Q 22.953125 6.109375 30.078125 6.109375 
Q 37.203125 6.109375 41.296875 11.75 
Q 45.40625 17.390625 45.40625 27.296875 
Q 45.40625 37.203125 41.296875 42.84375 
Q 37.203125 48.484375 30.078125 48.484375 
Q 22.953125 48.484375 18.875 42.84375 
Q 14.796875 37.203125 14.796875 27.296875 
z
" id="DejaVuSans-100"/>
      <path d="M 9.8125 72.90625 
L 19.671875 72.90625 
L 19.671875 8.296875 
L 55.171875 8.296875 
L 55.171875 0 
L 9.8125 0 
z
" id="DejaVuSans-76"/>
     </defs>
     <g transform="translate(37.684063 422.32875)rotate(-90)scale(0.16 -0.16)">
      <use xlink:href="#DejaVuSans-69"/>
      <use x="63.183594" xlink:href="#DejaVuSans-85"/>
      <use x="136.376953" xlink:href="#DejaVuSans-66"/>
      <use x="204.964844" xlink:href="#DejaVuSans-79"/>
      <use x="283.675781" xlink:href="#DejaVuSans-32"/>
      <use x="315.462891" xlink:href="#DejaVuSans-97"/>
      <use x="376.742188" xlink:href="#DejaVuSans-110"/>
      <use x="440.121094" xlink:href="#DejaVuSans-100"/>
      <use x="503.597656" xlink:href="#DejaVuSans-32"/>
      <use x="535.384766" xlink:href="#DejaVuSans-69"/>
      <use x="598.568359" xlink:href="#DejaVuSans-76"/>
      <use x="654.28125" xlink:href="#DejaVuSans-66"/>
      <use x="722.869141" xlink:href="#DejaVuSans-79"/>
     </g>
    </g>
   </g>
   <g id="line2d_15">
    <path clip-path="url(#p1bffc9d5c1)" d="M 115.363636 605.290909 
L 119.852776 519.80082 
L 121.776692 486.408329 
L 124.98322 436.142662 
L 126.907137 409.359631 
L 129.472359 378.258198 
L 131.396276 358.616057 
L 133.320193 342.373694 
L 135.24411 329.140539 
L 136.526721 321.58959 
L 138.450638 312.568105 
L 140.374555 305.38713 
L 141.01586 303.17753 
L 142.939777 297.90969 
L 146.787611 290.291815 
L 148.711527 287.320726 
L 149.994139 285.576283 
L 151.27675 284.18369 
L 151.918055 283.254987 
L 152.559361 282.65556 
L 153.200667 281.745013 
L 153.841972 281.258557 
L 157.0485 278.051971 
L 157.689806 277.643719 
L 160.896334 274.723925 
L 162.178945 273.676072 
L 163.461556 272.616557 
L 164.744167 271.730255 
L 166.026779 270.755266 
L 168.592001 268.942376 
L 169.233307 268.38961 
L 169.874612 268.095154 
L 170.515918 267.524952 
L 173.08114 266.079428 
L 173.722446 265.49149 
L 176.287668 264.043581 
L 176.928974 263.556983 
L 177.570279 263.327066 
L 178.211585 262.858234 
L 179.494196 262.256542 
L 180.135502 261.946502 
L 180.776807 261.429658 
L 184.624641 259.62846 
L 185.265946 259.167329 
L 185.907252 258.987899 
L 186.548558 258.575979 
L 187.831169 258.293664 
L 188.472474 257.863311 
L 189.11378 257.682238 
L 189.755086 257.343461 
L 191.037697 256.965288 
L 191.679002 256.474325 
L 192.320308 256.430836 
L 192.961614 256.092913 
L 201.298586 253.408946 
L 201.939892 253.341301 
L 205.14642 252.218431 
L 206.429031 251.967846 
L 207.070337 251.662666 
L 208.352948 251.531764 
L 208.994254 251.341699 
L 209.635559 251.304907 
L 210.276865 250.995264 
L 210.91817 250.877569 
L 211.559476 250.635781 
L 212.200782 250.626526 
L 213.483393 250.352753 
L 214.124698 250.212072 
L 214.766004 250.199796 
L 215.40731 249.904942 
L 216.048615 249.848186 
L 217.331226 249.542398 
L 217.972532 249.521265 
L 218.613837 249.281172 
L 219.255143 249.251002 
L 219.896449 249.029822 
L 220.537754 248.989708 
L 221.820365 248.722991 
L 228.874727 247.617235 
L 230.157338 247.480694 
L 231.439949 247.076138 
L 233.363866 246.814874 
L 234.005172 246.603181 
L 234.646477 246.598374 
L 236.570394 246.211525 
L 237.853005 246.24129 
L 241.700839 245.438 
L 242.342145 245.404657 
L 242.98345 245.212815 
L 243.624756 245.21586 
L 245.548673 244.87544 
L 246.189978 244.959538 
L 247.472589 244.575254 
L 248.113895 244.611228 
L 249.396506 244.360681 
L 250.037812 244.324534 
L 251.320423 244.040839 
L 252.603034 243.923241 
L 253.24434 243.615893 
L 253.885645 243.478729 
L 254.526951 243.46649 
L 257.092173 243.009972 
L 257.733479 243.009432 
L 258.374785 242.793577 
L 259.01609 242.736161 
L 259.657396 242.512627 
L 260.298701 242.500373 
L 272.483508 240.071722 
L 273.124813 239.810653 
L 276.331341 239.218643 
L 276.972647 238.931701 
L 277.613952 238.933224 
L 280.82048 238.04246 
L 281.461786 237.927089 
L 282.103092 237.679961 
L 282.744397 237.612347 
L 284.027008 237.185654 
L 287.874842 236.260153 
L 288.516148 236.059874 
L 289.798759 235.473023 
L 290.440064 235.420475 
L 291.08137 235.055202 
L 293.646592 234.467391 
L 294.287898 234.145465 
L 294.929204 234.004926 
L 296.211815 233.532914 
L 297.494426 233.14788 
L 300.059648 232.134103 
L 300.700954 231.990205 
L 301.34226 231.665766 
L 302.624871 231.30833 
L 303.266176 230.801708 
L 303.907482 230.706255 
L 305.190093 230.063264 
L 306.472704 229.603799 
L 307.755315 228.995432 
L 308.396621 228.688684 
L 309.679232 228.274418 
L 312.88576 226.784797 
L 314.809677 225.699687 
L 316.092288 225.162887 
L 316.733594 224.740266 
L 317.374899 224.565815 
L 318.016205 224.033553 
L 318.657511 223.784265 
L 319.298816 223.366758 
L 320.581427 222.810941 
L 321.222733 222.339221 
L 321.864039 222.04127 
L 322.505344 221.569573 
L 323.14665 221.250833 
L 323.787955 220.798267 
L 324.429261 220.587301 
L 326.994483 218.951135 
L 328.277095 218.10851 
L 334.690151 213.972156 
L 335.972762 212.997519 
L 339.17929 210.725232 
L 343.668429 207.35042 
L 344.309735 206.951017 
L 346.233651 205.431301 
L 359.701069 195.281089 
L 360.342374 194.928228 
L 362.266291 193.582348 
L 366.114125 191.033415 
L 367.396736 190.287127 
L 370.603264 188.473937 
L 373.809792 186.761329 
L 375.092403 186.155213 
L 378.298931 184.751671 
L 383.429376 182.714864 
L 390.483738 180.495394 
L 394.331571 179.531091 
L 403.951155 177.598181 
L 411.646822 176.440154 
L 414.85335 176.045356 
L 418.701184 175.613818 
L 422.549017 175.235053 
L 436.65774 174.160149 
L 445.636019 173.646036 
L 453.972992 173.291509 
L 457.17952 173.168451 
L 462.309964 172.981544 
L 474.494771 172.617163 
L 477.701299 172.54305 
L 482.831743 172.418894 
L 492.451327 172.248673 
L 501.429606 172.08904 
L 568.125388 171.477689 
L 622.636364 171.252332 
L 622.636364 171.252332 
" style="fill:none;stroke:#0000ff;stroke-linecap:square;stroke-width:1.5;"/>
   </g>
   <g id="line2d_16">
    <path clip-path="url(#p1bffc9d5c1)" d="M 115.363636 188.173541 
L 116.004942 183.69763 
L 116.646248 180.552217 
L 117.287553 171.706691 
L 118.570164 164.270504 
L 119.21147 163.602773 
L 119.852776 158.431337 
L 120.494081 152.31572 
L 121.776692 145.314491 
L 122.417998 141.904109 
L 123.059304 137.368784 
L 123.700609 135.382954 
L 124.341915 133.896993 
L 124.98322 131.198991 
L 125.624526 129.547815 
L 126.265832 128.58704 
L 126.907137 128.177423 
L 127.548443 125.24067 
L 128.189748 121.047576 
L 128.831054 121.030582 
L 129.472359 118.572872 
L 130.113665 117.078838 
L 130.754971 117.627021 
L 131.396276 116.689131 
L 132.037582 114.672033 
L 132.678887 114.284314 
L 133.320193 112.937122 
L 133.961499 115.047854 
L 134.602804 113.648005 
L 135.24411 116.07487 
L 135.885415 113.126613 
L 136.526721 115.800355 
L 137.168027 112.276687 
L 137.809332 112.72619 
L 138.450638 112.271963 
L 139.091943 111.190636 
L 139.733249 112.140157 
L 140.374555 113.671208 
L 141.657166 113.187846 
L 142.298471 112.071061 
L 142.939777 112.132151 
L 143.581083 113.240645 
L 144.222388 111.601404 
L 144.863694 112.965927 
L 146.146305 113.123673 
L 146.787611 112.564537 
L 147.428916 113.716167 
L 148.070222 112.246607 
L 148.711527 113.185195 
L 149.352833 113.552361 
L 149.994139 113.096293 
L 150.635444 111.109091 
L 151.27675 113.022855 
L 151.918055 113.107954 
L 152.559361 115.529094 
L 153.200667 114.176023 
L 153.841972 115.033838 
L 154.483278 114.85146 
L 155.124583 115.64433 
L 155.765889 115.095528 
L 156.407195 113.247571 
L 157.0485 114.341876 
L 157.689806 115.209714 
L 159.613723 115.036016 
L 160.255028 113.424557 
L 160.896334 116.275689 
L 161.537639 115.973824 
L 162.178945 117.180391 
L 162.820251 114.24219 
L 163.461556 114.465173 
L 164.744167 115.259056 
L 165.385473 115.527774 
L 166.026779 116.518096 
L 166.668084 115.950152 
L 167.30939 114.361037 
L 167.950695 116.1446 
L 168.592001 114.842029 
L 169.233307 117.09936 
L 169.874612 115.125758 
L 170.515918 114.479928 
L 171.157223 115.881937 
L 171.798529 116.626369 
L 172.439835 118.149707 
L 173.08114 116.659437 
L 173.722446 116.189862 
L 174.363751 117.017421 
L 175.005057 116.415613 
L 175.646362 116.627996 
L 176.287668 116.244334 
L 176.928974 117.291794 
L 177.570279 117.461637 
L 178.211585 116.083217 
L 178.85289 117.128836 
L 179.494196 116.189536 
L 180.135502 117.51459 
L 180.776807 117.391277 
L 181.418113 116.211082 
L 182.059418 117.259892 
L 182.700724 116.172408 
L 183.34203 117.654566 
L 183.983335 117.985099 
L 185.265946 117.027523 
L 185.907252 117.603387 
L 186.548558 116.310794 
L 187.189863 116.985856 
L 187.831169 117.944523 
L 188.472474 118.425066 
L 189.11378 117.745755 
L 189.755086 119.712855 
L 190.396391 119.86041 
L 191.037697 118.787729 
L 191.679002 118.777995 
L 192.320308 118.100218 
L 192.961614 119.197286 
L 193.602919 119.764234 
L 194.244225 119.155777 
L 194.88553 119.480141 
L 195.526836 118.661604 
L 196.168142 118.681305 
L 196.809447 119.949045 
L 197.450753 119.288134 
L 198.092058 119.644127 
L 199.37467 120.101602 
L 200.015975 120.601151 
L 200.657281 120.190503 
L 201.298586 119.502718 
L 201.939892 120.027024 
L 202.581198 119.450091 
L 203.222503 120.011567 
L 204.505114 120.056376 
L 205.14642 120.479616 
L 205.787726 120.444894 
L 206.429031 120.616596 
L 207.070337 121.374077 
L 207.711642 119.274564 
L 208.352948 119.344357 
L 208.994254 121.496602 
L 210.276865 119.534707 
L 210.91817 122.476271 
L 211.559476 119.856634 
L 212.200782 120.621869 
L 212.842087 119.325504 
L 213.483393 121.83499 
L 214.124698 120.670052 
L 214.766004 121.261732 
L 215.40731 123.173663 
L 216.048615 121.209518 
L 216.689921 120.758718 
L 217.331226 121.284036 
L 217.972532 121.171061 
L 218.613837 122.508519 
L 219.255143 120.874261 
L 219.896449 120.374512 
L 220.537754 121.208828 
L 221.17906 122.297186 
L 221.820365 121.674177 
L 222.461671 122.702397 
L 223.102977 120.780335 
L 223.744282 120.186588 
L 224.385588 121.995417 
L 225.026893 123.002519 
L 225.668199 122.565499 
L 226.309505 122.732732 
L 226.95081 121.597345 
L 227.592116 123.966826 
L 228.233421 122.127609 
L 228.874727 122.474265 
L 229.516033 123.109847 
L 230.157338 123.185486 
L 230.798644 123.608009 
L 231.439949 120.99631 
L 232.081255 122.500097 
L 232.722561 123.415605 
L 233.363866 122.054231 
L 234.005172 122.683243 
L 234.646477 122.278636 
L 235.287783 124.573699 
L 235.929089 123.641044 
L 236.570394 121.784729 
L 237.2117 122.116349 
L 237.853005 122.254476 
L 238.494311 123.197848 
L 239.135617 122.78327 
L 239.776922 123.080637 
L 240.418228 122.577487 
L 241.059533 124.344724 
L 241.700839 122.696394 
L 242.342145 123.639394 
L 242.98345 124.021875 
L 243.624756 122.84018 
L 244.266061 124.314573 
L 244.907367 122.641175 
L 245.548673 121.473669 
L 246.189978 123.366296 
L 246.831284 123.519029 
L 247.472589 123.093367 
L 248.113895 123.872022 
L 248.755201 123.584547 
L 249.396506 122.424075 
L 250.037812 123.234104 
L 250.679117 122.624606 
L 251.320423 123.46455 
L 251.961729 123.035321 
L 252.603034 124.530754 
L 253.24434 123.813898 
L 253.885645 123.914311 
L 254.526951 122.899417 
L 255.168257 122.948073 
L 255.809562 123.961936 
L 256.450868 124.580546 
L 257.092173 123.806781 
L 257.733479 123.592782 
L 258.374785 124.059432 
L 259.01609 123.398356 
L 260.298701 124.985109 
L 260.940007 125.545172 
L 261.581312 124.712543 
L 262.222618 124.370882 
L 262.863924 123.72374 
L 263.505229 124.231851 
L 264.146535 124.514345 
L 264.78784 125.052851 
L 265.429146 125.005609 
L 266.070452 123.186232 
L 266.711757 123.975086 
L 267.353063 125.056556 
L 267.994368 124.821101 
L 269.27698 123.299312 
L 269.918285 124.759242 
L 270.559591 124.121564 
L 271.200896 124.240381 
L 271.842202 123.871883 
L 272.483508 124.652593 
L 273.124813 124.245702 
L 273.766119 124.470365 
L 274.407424 125.195973 
L 275.04873 124.377463 
L 275.690036 124.58433 
L 276.331341 125.454238 
L 276.972647 125.41806 
L 277.613952 124.844818 
L 278.255258 124.828056 
L 278.896564 124.659894 
L 280.179175 125.454193 
L 280.82048 123.323313 
L 281.461786 125.514518 
L 282.103092 123.880695 
L 282.744397 125.495747 
L 283.385703 123.487468 
L 284.668314 126.059214 
L 285.30962 125.074236 
L 285.950925 124.403523 
L 286.592231 124.75295 
L 287.233536 125.410051 
L 288.516148 125.25376 
L 289.157453 126.453255 
L 289.798759 125.823905 
L 290.440064 127.184964 
L 291.08137 125.948587 
L 291.722676 125.681529 
L 292.363981 126.12705 
L 293.005287 125.933614 
L 293.646592 127.268665 
L 294.287898 124.874039 
L 294.929204 126.79387 
L 295.570509 126.227958 
L 296.211815 126.104454 
L 296.85312 126.619985 
L 297.494426 125.499106 
L 298.777037 127.21498 
L 299.418343 126.685924 
L 300.700954 126.990414 
L 301.34226 126.959371 
L 301.983565 126.695377 
L 302.624871 126.602189 
L 303.266176 127.543139 
L 303.907482 127.734996 
L 304.548787 126.326185 
L 305.190093 126.713795 
L 306.472704 127.236046 
L 307.11401 128.046082 
L 307.755315 126.57836 
L 308.396621 127.122186 
L 309.037927 127.850817 
L 309.679232 127.725761 
L 310.320538 127.15113 
L 310.961843 128.059056 
L 311.603149 128.767671 
L 312.244455 127.851934 
L 312.88576 127.65746 
L 313.527066 128.157418 
L 314.168371 129.107506 
L 314.809677 129.496987 
L 315.450983 129.18181 
L 316.092288 128.220781 
L 316.733594 128.351128 
L 317.374899 130.253339 
L 318.016205 129.536393 
L 318.657511 128.36595 
L 319.298816 130.822022 
L 319.940122 130.666444 
L 320.581427 130.306697 
L 321.222733 130.910703 
L 321.864039 129.582923 
L 322.505344 130.886573 
L 323.14665 130.374076 
L 324.429261 132.356249 
L 325.711872 131.188012 
L 326.353178 132.192826 
L 326.994483 132.621859 
L 327.635789 131.806116 
L 328.277095 132.119088 
L 328.9184 132.97345 
L 329.559706 131.474526 
L 330.201011 133.296869 
L 330.842317 133.330845 
L 332.124928 132.494088 
L 332.766234 133.891174 
L 334.048845 134.146873 
L 334.690151 133.63132 
L 335.331456 134.683695 
L 335.972762 134.638084 
L 336.614067 135.686189 
L 337.896679 135.42521 
L 338.537984 136.044803 
L 339.17929 135.817402 
L 339.820595 135.964754 
L 340.461901 137.046981 
L 341.103207 137.152325 
L 341.744512 137.424336 
L 342.385818 137.044139 
L 343.668429 138.569419 
L 344.309735 138.348483 
L 344.95104 138.246697 
L 345.592346 139.257549 
L 346.233651 139.831973 
L 347.516262 140.211034 
L 348.157568 140.119095 
L 348.798874 141.330653 
L 349.440179 140.564608 
L 350.081485 141.076344 
L 350.72279 141.799864 
L 351.364096 141.76567 
L 352.646707 142.979261 
L 353.288013 142.960081 
L 353.929318 143.198817 
L 354.570624 143.772885 
L 355.21193 143.544434 
L 355.853235 144.567566 
L 356.494541 144.924822 
L 357.135846 144.923247 
L 358.418458 145.295585 
L 359.059763 145.579478 
L 359.701069 146.597811 
L 360.342374 146.360391 
L 360.98368 147.648814 
L 361.624986 148.387797 
L 362.266291 148.493554 
L 362.907597 148.769573 
L 364.190208 148.841256 
L 364.831514 149.398716 
L 365.472819 149.717673 
L 367.396736 151.13173 
L 368.038042 151.175466 
L 368.679347 151.499815 
L 369.320653 152.06248 
L 369.961958 152.231757 
L 372.527181 153.511162 
L 373.168486 154.146829 
L 373.809792 154.183134 
L 374.451098 154.642787 
L 375.092403 154.3464 
L 375.733709 155.433543 
L 376.375014 155.357326 
L 377.01632 155.418716 
L 377.657626 156.127994 
L 378.940237 155.985611 
L 379.581542 156.745157 
L 380.222848 156.817947 
L 381.505459 157.374994 
L 382.146765 157.360933 
L 383.429376 158.352984 
L 384.070682 158.492435 
L 384.711987 158.418626 
L 385.353293 158.651925 
L 385.994598 159.27598 
L 386.635904 159.230338 
L 390.483738 160.715077 
L 391.125043 160.6436 
L 391.766349 160.840744 
L 392.407654 161.277659 
L 394.331571 161.48966 
L 394.972877 161.880806 
L 395.614182 162.038308 
L 396.255488 162.07492 
L 398.179405 162.734815 
L 398.82071 162.814331 
L 399.462016 163.021112 
L 400.103321 162.993747 
L 400.744627 163.261903 
L 405.233766 164.085637 
L 406.516377 164.147837 
L 407.798989 164.447648 
L 412.929433 165.1953 
L 414.85335 165.511542 
L 426.396851 166.851554 
L 428.320768 166.90817 
L 430.88599 167.174954 
L 432.809907 167.299407 
L 440.505574 167.838486 
L 443.712102 168.017227 
L 448.201241 168.260477 
L 450.766464 168.38352 
L 452.69038 168.489966 
L 459.744742 168.815433 
L 461.668659 168.855682 
L 466.799104 169.039177 
L 470.005632 169.117133 
L 473.21216 169.232294 
L 483.473049 169.485736 
L 493.733939 169.699454 
L 539.907942 170.301634 
L 552.092748 170.392534 
L 559.14711 170.446282 
L 563.636249 170.467355 
L 584.158028 170.57021 
L 622.636364 170.711596 
L 622.636364 170.711596 
" style="fill:none;stroke:#ff0000;stroke-linecap:square;stroke-width:1.5;"/>
   </g>
   <g id="patch_8">
    <path d="M 90 630 
L 90 86.4 
" style="fill:none;stroke:#000000;stroke-linecap:square;stroke-linejoin:miter;stroke-width:0.8;"/>
   </g>
   <g id="patch_9">
    <path d="M 648 630 
L 648 86.4 
" style="fill:none;stroke:#000000;stroke-linecap:square;stroke-linejoin:miter;stroke-width:0.8;"/>
   </g>
   <g id="patch_10">
    <path d="M 90 630 
L 648 630 
" style="fill:none;stroke:#000000;stroke-linecap:square;stroke-linejoin:miter;stroke-width:0.8;"/>
   </g>
   <g id="patch_11">
    <path d="M 90 86.4 
L 648 86.4 
" style="fill:none;stroke:#000000;stroke-linecap:square;stroke-linejoin:miter;stroke-width:0.8;"/>
   </g>
   <g id="legend_1">
    <g id="patch_12">
     <path d="M 532.875938 153.64125 
L 635.4 153.64125 
Q 639 153.64125 639 150.04125 
L 639 99 
Q 639 95.4 635.4 95.4 
L 532.875938 95.4 
Q 529.275938 95.4 529.275938 99 
L 529.275938 150.04125 
Q 529.275938 153.64125 532.875938 153.64125 
z
" style="fill:#ffffff;opacity:0.8;stroke:#cccccc;stroke-linejoin:miter;"/>
    </g>
    <g id="line2d_17">
     <path d="M 536.475938 109.977187 
L 572.475938 109.977187 
" style="fill:none;stroke:#0000ff;stroke-linecap:square;stroke-width:1.5;"/>
    </g>
    <g id="line2d_18"/>
    <g id="text_17">
     <!-- elbo -->
     <defs>
      <path d="M 9.421875 75.984375 
L 18.40625 75.984375 
L 18.40625 0 
L 9.421875 0 
z
" id="DejaVuSans-108"/>
      <path d="M 48.6875 27.296875 
Q 48.6875 37.203125 44.609375 42.84375 
Q 40.53125 48.484375 33.40625 48.484375 
Q 26.265625 48.484375 22.1875 42.84375 
Q 18.109375 37.203125 18.109375 27.296875 
Q 18.109375 17.390625 22.1875 11.75 
Q 26.265625 6.109375 33.40625 6.109375 
Q 40.53125 6.109375 44.609375 11.75 
Q 48.6875 17.390625 48.6875 27.296875 
z
M 18.109375 46.390625 
Q 20.953125 51.265625 25.265625 53.625 
Q 29.59375 56 35.59375 56 
Q 45.5625 56 51.78125 48.09375 
Q 58.015625 40.1875 58.015625 27.296875 
Q 58.015625 14.40625 51.78125 6.484375 
Q 45.5625 -1.421875 35.59375 -1.421875 
Q 29.59375 -1.421875 25.265625 0.953125 
Q 20.953125 3.328125 18.109375 8.203125 
L 18.109375 0 
L 9.078125 0 
L 9.078125 75.984375 
L 18.109375 75.984375 
z
" id="DejaVuSans-98"/>
     </defs>
     <g transform="translate(586.875938 116.277187)scale(0.18 -0.18)">
      <use xlink:href="#DejaVuSans-101"/>
      <use x="61.523438" xlink:href="#DejaVuSans-108"/>
      <use x="89.306641" xlink:href="#DejaVuSans-98"/>
      <use x="152.783203" xlink:href="#DejaVuSans-111"/>
     </g>
    </g>
    <g id="line2d_19">
     <path d="M 536.475938 136.397812 
L 572.475938 136.397812 
" style="fill:none;stroke:#ff0000;stroke-linecap:square;stroke-width:1.5;"/>
    </g>
    <g id="line2d_20"/>
    <g id="text_18">
     <!-- eubo -->
     <defs>
      <path d="M 8.5 21.578125 
L 8.5 54.6875 
L 17.484375 54.6875 
L 17.484375 21.921875 
Q 17.484375 14.15625 20.5 10.265625 
Q 23.53125 6.390625 29.59375 6.390625 
Q 36.859375 6.390625 41.078125 11.03125 
Q 45.3125 15.671875 45.3125 23.6875 
L 45.3125 54.6875 
L 54.296875 54.6875 
L 54.296875 0 
L 45.3125 0 
L 45.3125 8.40625 
Q 42.046875 3.421875 37.71875 1 
Q 33.40625 -1.421875 27.6875 -1.421875 
Q 18.265625 -1.421875 13.375 4.4375 
Q 8.5 10.296875 8.5 21.578125 
z
M 31.109375 56 
z
" id="DejaVuSans-117"/>
     </defs>
     <g transform="translate(586.875938 142.697812)scale(0.18 -0.18)">
      <use xlink:href="#DejaVuSans-101"/>
      <use x="61.523438" xlink:href="#DejaVuSans-117"/>
      <use x="124.902344" xlink:href="#DejaVuSans-98"/>
      <use x="188.378906" xlink:href="#DejaVuSans-111"/>
     </g>
    </g>
   </g>
  </g>
 </g>
 <defs>
  <clipPath id="p1bffc9d5c1">
   <rect height="543.6" width="558" x="90" y="86.4"/>
  </clipPath>
 </defs>
</svg>
