<?xml version="1.0" encoding="utf-8" standalone="no"?>
<!DOCTYPE svg PUBLIC "-//W3C//DTD SVG 1.1//EN"
  "http://www.w3.org/Graphics/SVG/1.1/DTD/svg11.dtd">
<!-- Created with matplotlib (https://matplotlib.org/) -->
<svg height="720pt" version="1.1" viewBox="0 0 720 720" width="720pt" xmlns="http://www.w3.org/2000/svg" xmlns:xlink="http://www.w3.org/1999/xlink">
 <defs>
  <style type="text/css">
*{stroke-linecap:butt;stroke-linejoin:round;}
  </style>
 </defs>
 <g id="figure_1">
  <g id="patch_1">
   <path d="M 0 720 
L 720 720 
L 720 0 
L 0 0 
z
" style="fill:#ffffff;"/>
  </g>
  <g id="axes_1">
   <g id="patch_2">
    <path d="M 90 630 
L 648 630 
L 648 86.4 
L 90 86.4 
z
" style="fill:#ffffff;"/>
   </g>
   <g id="matplotlib.axis_1"/>
   <g id="matplotlib.axis_2"/>
   <g id="patch_3">
    <path d="M 90 630 
L 90 86.4 
" style="fill:none;stroke:#000000;stroke-linecap:square;stroke-linejoin:miter;stroke-width:0.8;"/>
   </g>
   <g id="patch_4">
    <path d="M 648 630 
L 648 86.4 
" style="fill:none;stroke:#000000;stroke-linecap:square;stroke-linejoin:miter;stroke-width:0.8;"/>
   </g>
   <g id="patch_5">
    <path d="M 90 630 
L 648 630 
" style="fill:none;stroke:#000000;stroke-linecap:square;stroke-linejoin:miter;stroke-width:0.8;"/>
   </g>
   <g id="patch_6">
    <path d="M 90 86.4 
L 648 86.4 
" style="fill:none;stroke:#000000;stroke-linecap:square;stroke-linejoin:miter;stroke-width:0.8;"/>
   </g>
  </g>
  <g id="axes_2">
   <g id="patch_7">
    <path d="M 90 630 
L 648 630 
L 648 86.4 
L 90 86.4 
z
" style="fill:#ffffff;"/>
   </g>
   <g id="matplotlib.axis_3">
    <g id="xtick_1">
     <g id="line2d_1">
      <defs>
       <path d="M 0 0 
L 0 3.5 
" id="m5c09bf1f3c" style="stroke:#000000;stroke-width:0.8;"/>
      </defs>
      <g>
       <use style="stroke:#000000;stroke-width:0.8;" x="115.363636" xlink:href="#m5c09bf1f3c" y="630"/>
      </g>
     </g>
     <g id="text_1">
      <!-- 0 -->
      <defs>
       <path d="M 31.78125 66.40625 
Q 24.171875 66.40625 20.328125 58.90625 
Q 16.5 51.421875 16.5 36.375 
Q 16.5 21.390625 20.328125 13.890625 
Q 24.171875 6.390625 31.78125 6.390625 
Q 39.453125 6.390625 43.28125 13.890625 
Q 47.125 21.390625 47.125 36.375 
Q 47.125 51.421875 43.28125 58.90625 
Q 39.453125 66.40625 31.78125 66.40625 
z
M 31.78125 74.21875 
Q 44.046875 74.21875 50.515625 64.515625 
Q 56.984375 54.828125 56.984375 36.375 
Q 56.984375 17.96875 50.515625 8.265625 
Q 44.046875 -1.421875 31.78125 -1.421875 
Q 19.53125 -1.421875 13.0625 8.265625 
Q 6.59375 17.96875 6.59375 36.375 
Q 6.59375 54.828125 13.0625 64.515625 
Q 19.53125 74.21875 31.78125 74.21875 
z
" id="DejaVuSans-48"/>
      </defs>
      <g transform="translate(109.637386 650.677187)scale(0.18 -0.18)">
       <use xlink:href="#DejaVuSans-48"/>
      </g>
     </g>
    </g>
    <g id="xtick_2">
     <g id="line2d_2">
      <g>
       <use style="stroke:#000000;stroke-width:0.8;" x="216.919738" xlink:href="#m5c09bf1f3c" y="630"/>
      </g>
     </g>
     <g id="text_2">
      <!-- 200 -->
      <defs>
       <path d="M 19.1875 8.296875 
L 53.609375 8.296875 
L 53.609375 0 
L 7.328125 0 
L 7.328125 8.296875 
Q 12.9375 14.109375 22.625 23.890625 
Q 32.328125 33.6875 34.8125 36.53125 
Q 39.546875 41.84375 41.421875 45.53125 
Q 43.3125 49.21875 43.3125 52.78125 
Q 43.3125 58.59375 39.234375 62.25 
Q 35.15625 65.921875 28.609375 65.921875 
Q 23.96875 65.921875 18.8125 64.3125 
Q 13.671875 62.703125 7.8125 59.421875 
L 7.8125 69.390625 
Q 13.765625 71.78125 18.9375 73 
Q 24.125 74.21875 28.421875 74.21875 
Q 39.75 74.21875 46.484375 68.546875 
Q 53.21875 62.890625 53.21875 53.421875 
Q 53.21875 48.921875 51.53125 44.890625 
Q 49.859375 40.875 45.40625 35.40625 
Q 44.1875 33.984375 37.640625 27.21875 
Q 31.109375 20.453125 19.1875 8.296875 
z
" id="DejaVuSans-50"/>
      </defs>
      <g transform="translate(199.740988 650.677187)scale(0.18 -0.18)">
       <use xlink:href="#DejaVuSans-50"/>
       <use x="63.623047" xlink:href="#DejaVuSans-48"/>
       <use x="127.246094" xlink:href="#DejaVuSans-48"/>
      </g>
     </g>
    </g>
    <g id="xtick_3">
     <g id="line2d_3">
      <g>
       <use style="stroke:#000000;stroke-width:0.8;" x="318.475839" xlink:href="#m5c09bf1f3c" y="630"/>
      </g>
     </g>
     <g id="text_3">
      <!-- 400 -->
      <defs>
       <path d="M 37.796875 64.3125 
L 12.890625 25.390625 
L 37.796875 25.390625 
z
M 35.203125 72.90625 
L 47.609375 72.90625 
L 47.609375 25.390625 
L 58.015625 25.390625 
L 58.015625 17.1875 
L 47.609375 17.1875 
L 47.609375 0 
L 37.796875 0 
L 37.796875 17.1875 
L 4.890625 17.1875 
L 4.890625 26.703125 
z
" id="DejaVuSans-52"/>
      </defs>
      <g transform="translate(301.297089 650.677187)scale(0.18 -0.18)">
       <use xlink:href="#DejaVuSans-52"/>
       <use x="63.623047" xlink:href="#DejaVuSans-48"/>
       <use x="127.246094" xlink:href="#DejaVuSans-48"/>
      </g>
     </g>
    </g>
    <g id="xtick_4">
     <g id="line2d_4">
      <g>
       <use style="stroke:#000000;stroke-width:0.8;" x="420.031941" xlink:href="#m5c09bf1f3c" y="630"/>
      </g>
     </g>
     <g id="text_4">
      <!-- 600 -->
      <defs>
       <path d="M 33.015625 40.375 
Q 26.375 40.375 22.484375 35.828125 
Q 18.609375 31.296875 18.609375 23.390625 
Q 18.609375 15.53125 22.484375 10.953125 
Q 26.375 6.390625 33.015625 6.390625 
Q 39.65625 6.390625 43.53125 10.953125 
Q 47.40625 15.53125 47.40625 23.390625 
Q 47.40625 31.296875 43.53125 35.828125 
Q 39.65625 40.375 33.015625 40.375 
z
M 52.59375 71.296875 
L 52.59375 62.3125 
Q 48.875 64.0625 45.09375 64.984375 
Q 41.3125 65.921875 37.59375 65.921875 
Q 27.828125 65.921875 22.671875 59.328125 
Q 17.53125 52.734375 16.796875 39.40625 
Q 19.671875 43.65625 24.015625 45.921875 
Q 28.375 48.1875 33.59375 48.1875 
Q 44.578125 48.1875 50.953125 41.515625 
Q 57.328125 34.859375 57.328125 23.390625 
Q 57.328125 12.15625 50.6875 5.359375 
Q 44.046875 -1.421875 33.015625 -1.421875 
Q 20.359375 -1.421875 13.671875 8.265625 
Q 6.984375 17.96875 6.984375 36.375 
Q 6.984375 53.65625 15.1875 63.9375 
Q 23.390625 74.21875 37.203125 74.21875 
Q 40.921875 74.21875 44.703125 73.484375 
Q 48.484375 72.75 52.59375 71.296875 
z
" id="DejaVuSans-54"/>
      </defs>
      <g transform="translate(402.853191 650.677187)scale(0.18 -0.18)">
       <use xlink:href="#DejaVuSans-54"/>
       <use x="63.623047" xlink:href="#DejaVuSans-48"/>
       <use x="127.246094" xlink:href="#DejaVuSans-48"/>
      </g>
     </g>
    </g>
    <g id="xtick_5">
     <g id="line2d_5">
      <g>
       <use style="stroke:#000000;stroke-width:0.8;" x="521.588043" xlink:href="#m5c09bf1f3c" y="630"/>
      </g>
     </g>
     <g id="text_5">
      <!-- 800 -->
      <defs>
       <path d="M 31.78125 34.625 
Q 24.75 34.625 20.71875 30.859375 
Q 16.703125 27.09375 16.703125 20.515625 
Q 16.703125 13.921875 20.71875 10.15625 
Q 24.75 6.390625 31.78125 6.390625 
Q 38.8125 6.390625 42.859375 10.171875 
Q 46.921875 13.96875 46.921875 20.515625 
Q 46.921875 27.09375 42.890625 30.859375 
Q 38.875 34.625 31.78125 34.625 
z
M 21.921875 38.8125 
Q 15.578125 40.375 12.03125 44.71875 
Q 8.5 49.078125 8.5 55.328125 
Q 8.5 64.0625 14.71875 69.140625 
Q 20.953125 74.21875 31.78125 74.21875 
Q 42.671875 74.21875 48.875 69.140625 
Q 55.078125 64.0625 55.078125 55.328125 
Q 55.078125 49.078125 51.53125 44.71875 
Q 48 40.375 41.703125 38.8125 
Q 48.828125 37.15625 52.796875 32.3125 
Q 56.78125 27.484375 56.78125 20.515625 
Q 56.78125 9.90625 50.3125 4.234375 
Q 43.84375 -1.421875 31.78125 -1.421875 
Q 19.734375 -1.421875 13.25 4.234375 
Q 6.78125 9.90625 6.78125 20.515625 
Q 6.78125 27.484375 10.78125 32.3125 
Q 14.796875 37.15625 21.921875 38.8125 
z
M 18.3125 54.390625 
Q 18.3125 48.734375 21.84375 45.5625 
Q 25.390625 42.390625 31.78125 42.390625 
Q 38.140625 42.390625 41.71875 45.5625 
Q 45.3125 48.734375 45.3125 54.390625 
Q 45.3125 60.0625 41.71875 63.234375 
Q 38.140625 66.40625 31.78125 66.40625 
Q 25.390625 66.40625 21.84375 63.234375 
Q 18.3125 60.0625 18.3125 54.390625 
z
" id="DejaVuSans-56"/>
      </defs>
      <g transform="translate(504.409293 650.677187)scale(0.18 -0.18)">
       <use xlink:href="#DejaVuSans-56"/>
       <use x="63.623047" xlink:href="#DejaVuSans-48"/>
       <use x="127.246094" xlink:href="#DejaVuSans-48"/>
      </g>
     </g>
    </g>
    <g id="xtick_6">
     <g id="line2d_6">
      <g>
       <use style="stroke:#000000;stroke-width:0.8;" x="623.144144" xlink:href="#m5c09bf1f3c" y="630"/>
      </g>
     </g>
     <g id="text_6">
      <!-- 1000 -->
      <defs>
       <path d="M 12.40625 8.296875 
L 28.515625 8.296875 
L 28.515625 63.921875 
L 10.984375 60.40625 
L 10.984375 69.390625 
L 28.421875 72.90625 
L 38.28125 72.90625 
L 38.28125 8.296875 
L 54.390625 8.296875 
L 54.390625 0 
L 12.40625 0 
z
" id="DejaVuSans-49"/>
      </defs>
      <g transform="translate(600.239144 650.677187)scale(0.18 -0.18)">
       <use xlink:href="#DejaVuSans-49"/>
       <use x="63.623047" xlink:href="#DejaVuSans-48"/>
       <use x="127.246094" xlink:href="#DejaVuSans-48"/>
       <use x="190.869141" xlink:href="#DejaVuSans-48"/>
      </g>
     </g>
    </g>
    <g id="text_7">
     <!-- epoch -->
     <defs>
      <path d="M 56.203125 29.59375 
L 56.203125 25.203125 
L 14.890625 25.203125 
Q 15.484375 15.921875 20.484375 11.0625 
Q 25.484375 6.203125 34.421875 6.203125 
Q 39.59375 6.203125 44.453125 7.46875 
Q 49.3125 8.734375 54.109375 11.28125 
L 54.109375 2.78125 
Q 49.265625 0.734375 44.1875 -0.34375 
Q 39.109375 -1.421875 33.890625 -1.421875 
Q 20.796875 -1.421875 13.15625 6.1875 
Q 5.515625 13.8125 5.515625 26.8125 
Q 5.515625 40.234375 12.765625 48.109375 
Q 20.015625 56 32.328125 56 
Q 43.359375 56 49.78125 48.890625 
Q 56.203125 41.796875 56.203125 29.59375 
z
M 47.21875 32.234375 
Q 47.125 39.59375 43.09375 43.984375 
Q 39.0625 48.390625 32.421875 48.390625 
Q 24.90625 48.390625 20.390625 44.140625 
Q 15.875 39.890625 15.1875 32.171875 
z
" id="DejaVuSans-101"/>
      <path d="M 18.109375 8.203125 
L 18.109375 -20.796875 
L 9.078125 -20.796875 
L 9.078125 54.6875 
L 18.109375 54.6875 
L 18.109375 46.390625 
Q 20.953125 51.265625 25.265625 53.625 
Q 29.59375 56 35.59375 56 
Q 45.5625 56 51.78125 48.09375 
Q 58.015625 40.1875 58.015625 27.296875 
Q 58.015625 14.40625 51.78125 6.484375 
Q 45.5625 -1.421875 35.59375 -1.421875 
Q 29.59375 -1.421875 25.265625 0.953125 
Q 20.953125 3.328125 18.109375 8.203125 
z
M 48.6875 27.296875 
Q 48.6875 37.203125 44.609375 42.84375 
Q 40.53125 48.484375 33.40625 48.484375 
Q 26.265625 48.484375 22.1875 42.84375 
Q 18.109375 37.203125 18.109375 27.296875 
Q 18.109375 17.390625 22.1875 11.75 
Q 26.265625 6.109375 33.40625 6.109375 
Q 40.53125 6.109375 44.609375 11.75 
Q 48.6875 17.390625 48.6875 27.296875 
z
" id="DejaVuSans-112"/>
      <path d="M 30.609375 48.390625 
Q 23.390625 48.390625 19.1875 42.75 
Q 14.984375 37.109375 14.984375 27.296875 
Q 14.984375 17.484375 19.15625 11.84375 
Q 23.34375 6.203125 30.609375 6.203125 
Q 37.796875 6.203125 41.984375 11.859375 
Q 46.1875 17.53125 46.1875 27.296875 
Q 46.1875 37.015625 41.984375 42.703125 
Q 37.796875 48.390625 30.609375 48.390625 
z
M 30.609375 56 
Q 42.328125 56 49.015625 48.375 
Q 55.71875 40.765625 55.71875 27.296875 
Q 55.71875 13.875 49.015625 6.21875 
Q 42.328125 -1.421875 30.609375 -1.421875 
Q 18.84375 -1.421875 12.171875 6.21875 
Q 5.515625 13.875 5.515625 27.296875 
Q 5.515625 40.765625 12.171875 48.375 
Q 18.84375 56 30.609375 56 
z
" id="DejaVuSans-111"/>
      <path d="M 48.78125 52.59375 
L 48.78125 44.1875 
Q 44.96875 46.296875 41.140625 47.34375 
Q 37.3125 48.390625 33.40625 48.390625 
Q 24.65625 48.390625 19.8125 42.84375 
Q 14.984375 37.3125 14.984375 27.296875 
Q 14.984375 17.28125 19.8125 11.734375 
Q 24.65625 6.203125 33.40625 6.203125 
Q 37.3125 6.203125 41.140625 7.25 
Q 44.96875 8.296875 48.78125 10.40625 
L 48.78125 2.09375 
Q 45.015625 0.34375 40.984375 -0.53125 
Q 36.96875 -1.421875 32.421875 -1.421875 
Q 20.0625 -1.421875 12.78125 6.34375 
Q 5.515625 14.109375 5.515625 27.296875 
Q 5.515625 40.671875 12.859375 48.328125 
Q 20.21875 56 33.015625 56 
Q 37.15625 56 41.109375 55.140625 
Q 45.0625 54.296875 48.78125 52.59375 
z
" id="DejaVuSans-99"/>
      <path d="M 54.890625 33.015625 
L 54.890625 0 
L 45.90625 0 
L 45.90625 32.71875 
Q 45.90625 40.484375 42.875 44.328125 
Q 39.84375 48.1875 33.796875 48.1875 
Q 26.515625 48.1875 22.3125 43.546875 
Q 18.109375 38.921875 18.109375 30.90625 
L 18.109375 0 
L 9.078125 0 
L 9.078125 75.984375 
L 18.109375 75.984375 
L 18.109375 46.1875 
Q 21.34375 51.125 25.703125 53.5625 
Q 30.078125 56 35.796875 56 
Q 45.21875 56 50.046875 50.171875 
Q 54.890625 44.34375 54.890625 33.015625 
z
" id="DejaVuSans-104"/>
     </defs>
     <g transform="translate(344.635 670.578125)scale(0.16 -0.16)">
      <use xlink:href="#DejaVuSans-101"/>
      <use x="61.523438" xlink:href="#DejaVuSans-112"/>
      <use x="125" xlink:href="#DejaVuSans-111"/>
      <use x="186.181641" xlink:href="#DejaVuSans-99"/>
      <use x="241.162109" xlink:href="#DejaVuSans-104"/>
     </g>
    </g>
   </g>
   <g id="matplotlib.axis_4">
    <g id="ytick_1">
     <g id="line2d_7">
      <defs>
       <path d="M 0 0 
L -3.5 0 
" id="md71f2a7d3e" style="stroke:#000000;stroke-width:0.8;"/>
      </defs>
      <g>
       <use style="stroke:#000000;stroke-width:0.8;" x="90" xlink:href="#md71f2a7d3e" y="623.182477"/>
      </g>
     </g>
     <g id="text_8">
      <!-- −60 -->
      <defs>
       <path d="M 10.59375 35.5 
L 73.1875 35.5 
L 73.1875 27.203125 
L 10.59375 27.203125 
z
" id="DejaVuSans-8722"/>
      </defs>
      <g transform="translate(45.011563 630.021071)scale(0.18 -0.18)">
       <use xlink:href="#DejaVuSans-8722"/>
       <use x="83.789062" xlink:href="#DejaVuSans-54"/>
       <use x="147.412109" xlink:href="#DejaVuSans-48"/>
      </g>
     </g>
    </g>
    <g id="ytick_2">
     <g id="line2d_8">
      <g>
       <use style="stroke:#000000;stroke-width:0.8;" x="90" xlink:href="#md71f2a7d3e" y="523.619452"/>
      </g>
     </g>
     <g id="text_9">
      <!-- −55 -->
      <defs>
       <path d="M 10.796875 72.90625 
L 49.515625 72.90625 
L 49.515625 64.59375 
L 19.828125 64.59375 
L 19.828125 46.734375 
Q 21.96875 47.46875 24.109375 47.828125 
Q 26.265625 48.1875 28.421875 48.1875 
Q 40.625 48.1875 47.75 41.5 
Q 54.890625 34.8125 54.890625 23.390625 
Q 54.890625 11.625 47.5625 5.09375 
Q 40.234375 -1.421875 26.90625 -1.421875 
Q 22.3125 -1.421875 17.546875 -0.640625 
Q 12.796875 0.140625 7.71875 1.703125 
L 7.71875 11.625 
Q 12.109375 9.234375 16.796875 8.0625 
Q 21.484375 6.890625 26.703125 6.890625 
Q 35.15625 6.890625 40.078125 11.328125 
Q 45.015625 15.765625 45.015625 23.390625 
Q 45.015625 31 40.078125 35.4375 
Q 35.15625 39.890625 26.703125 39.890625 
Q 22.75 39.890625 18.8125 39.015625 
Q 14.890625 38.140625 10.796875 36.28125 
z
" id="DejaVuSans-53"/>
      </defs>
      <g transform="translate(45.011563 530.458046)scale(0.18 -0.18)">
       <use xlink:href="#DejaVuSans-8722"/>
       <use x="83.789062" xlink:href="#DejaVuSans-53"/>
       <use x="147.412109" xlink:href="#DejaVuSans-53"/>
      </g>
     </g>
    </g>
    <g id="ytick_3">
     <g id="line2d_9">
      <g>
       <use style="stroke:#000000;stroke-width:0.8;" x="90" xlink:href="#md71f2a7d3e" y="424.056427"/>
      </g>
     </g>
     <g id="text_10">
      <!-- −50 -->
      <g transform="translate(45.011563 430.895021)scale(0.18 -0.18)">
       <use xlink:href="#DejaVuSans-8722"/>
       <use x="83.789062" xlink:href="#DejaVuSans-53"/>
       <use x="147.412109" xlink:href="#DejaVuSans-48"/>
      </g>
     </g>
    </g>
    <g id="ytick_4">
     <g id="line2d_10">
      <g>
       <use style="stroke:#000000;stroke-width:0.8;" x="90" xlink:href="#md71f2a7d3e" y="324.493402"/>
      </g>
     </g>
     <g id="text_11">
      <!-- −45 -->
      <g transform="translate(45.011563 331.331995)scale(0.18 -0.18)">
       <use xlink:href="#DejaVuSans-8722"/>
       <use x="83.789062" xlink:href="#DejaVuSans-52"/>
       <use x="147.412109" xlink:href="#DejaVuSans-53"/>
      </g>
     </g>
    </g>
    <g id="ytick_5">
     <g id="line2d_11">
      <g>
       <use style="stroke:#000000;stroke-width:0.8;" x="90" xlink:href="#md71f2a7d3e" y="224.930377"/>
      </g>
     </g>
     <g id="text_12">
      <!-- −40 -->
      <g transform="translate(45.011563 231.76897)scale(0.18 -0.18)">
       <use xlink:href="#DejaVuSans-8722"/>
       <use x="83.789062" xlink:href="#DejaVuSans-52"/>
       <use x="147.412109" xlink:href="#DejaVuSans-48"/>
      </g>
     </g>
    </g>
    <g id="ytick_6">
     <g id="line2d_12">
      <g>
       <use style="stroke:#000000;stroke-width:0.8;" x="90" xlink:href="#md71f2a7d3e" y="125.367351"/>
      </g>
     </g>
     <g id="text_13">
      <!-- −35 -->
      <defs>
       <path d="M 40.578125 39.3125 
Q 47.65625 37.796875 51.625 33 
Q 55.609375 28.21875 55.609375 21.1875 
Q 55.609375 10.40625 48.1875 4.484375 
Q 40.765625 -1.421875 27.09375 -1.421875 
Q 22.515625 -1.421875 17.65625 -0.515625 
Q 12.796875 0.390625 7.625 2.203125 
L 7.625 11.71875 
Q 11.71875 9.328125 16.59375 8.109375 
Q 21.484375 6.890625 26.8125 6.890625 
Q 36.078125 6.890625 40.9375 10.546875 
Q 45.796875 14.203125 45.796875 21.1875 
Q 45.796875 27.640625 41.28125 31.265625 
Q 36.765625 34.90625 28.71875 34.90625 
L 20.21875 34.90625 
L 20.21875 43.015625 
L 29.109375 43.015625 
Q 36.375 43.015625 40.234375 45.921875 
Q 44.09375 48.828125 44.09375 54.296875 
Q 44.09375 59.90625 40.109375 62.90625 
Q 36.140625 65.921875 28.71875 65.921875 
Q 24.65625 65.921875 20.015625 65.03125 
Q 15.375 64.15625 9.8125 62.3125 
L 9.8125 71.09375 
Q 15.4375 72.65625 20.34375 73.4375 
Q 25.25 74.21875 29.59375 74.21875 
Q 40.828125 74.21875 47.359375 69.109375 
Q 53.90625 64.015625 53.90625 55.328125 
Q 53.90625 49.265625 50.4375 45.09375 
Q 46.96875 40.921875 40.578125 39.3125 
z
" id="DejaVuSans-51"/>
      </defs>
      <g transform="translate(45.011563 132.205945)scale(0.18 -0.18)">
       <use xlink:href="#DejaVuSans-8722"/>
       <use x="83.789062" xlink:href="#DejaVuSans-51"/>
       <use x="147.412109" xlink:href="#DejaVuSans-53"/>
      </g>
     </g>
    </g>
    <g id="text_14">
     <!-- EUBO and ELBO -->
     <defs>
      <path d="M 9.8125 72.90625 
L 55.90625 72.90625 
L 55.90625 64.59375 
L 19.671875 64.59375 
L 19.671875 43.015625 
L 54.390625 43.015625 
L 54.390625 34.71875 
L 19.671875 34.71875 
L 19.671875 8.296875 
L 56.78125 8.296875 
L 56.78125 0 
L 9.8125 0 
z
" id="DejaVuSans-69"/>
      <path d="M 8.6875 72.90625 
L 18.609375 72.90625 
L 18.609375 28.609375 
Q 18.609375 16.890625 22.84375 11.734375 
Q 27.09375 6.59375 36.625 6.59375 
Q 46.09375 6.59375 50.34375 11.734375 
Q 54.59375 16.890625 54.59375 28.609375 
L 54.59375 72.90625 
L 64.5 72.90625 
L 64.5 27.390625 
Q 64.5 13.140625 57.4375 5.859375 
Q 50.390625 -1.421875 36.625 -1.421875 
Q 22.796875 -1.421875 15.734375 5.859375 
Q 8.6875 13.140625 8.6875 27.390625 
z
" id="DejaVuSans-85"/>
      <path d="M 19.671875 34.8125 
L 19.671875 8.109375 
L 35.5 8.109375 
Q 43.453125 8.109375 47.28125 11.40625 
Q 51.125 14.703125 51.125 21.484375 
Q 51.125 28.328125 47.28125 31.5625 
Q 43.453125 34.8125 35.5 34.8125 
z
M 19.671875 64.796875 
L 19.671875 42.828125 
L 34.28125 42.828125 
Q 41.5 42.828125 45.03125 45.53125 
Q 48.578125 48.25 48.578125 53.8125 
Q 48.578125 59.328125 45.03125 62.0625 
Q 41.5 64.796875 34.28125 64.796875 
z
M 9.8125 72.90625 
L 35.015625 72.90625 
Q 46.296875 72.90625 52.390625 68.21875 
Q 58.5 63.53125 58.5 54.890625 
Q 58.5 48.1875 55.375 44.234375 
Q 52.25 40.28125 46.1875 39.3125 
Q 53.46875 37.75 57.5 32.78125 
Q 61.53125 27.828125 61.53125 20.40625 
Q 61.53125 10.640625 54.890625 5.3125 
Q 48.25 0 35.984375 0 
L 9.8125 0 
z
" id="DejaVuSans-66"/>
      <path d="M 39.40625 66.21875 
Q 28.65625 66.21875 22.328125 58.203125 
Q 16.015625 50.203125 16.015625 36.375 
Q 16.015625 22.609375 22.328125 14.59375 
Q 28.65625 6.59375 39.40625 6.59375 
Q 50.140625 6.59375 56.421875 14.59375 
Q 62.703125 22.609375 62.703125 36.375 
Q 62.703125 50.203125 56.421875 58.203125 
Q 50.140625 66.21875 39.40625 66.21875 
z
M 39.40625 74.21875 
Q 54.734375 74.21875 63.90625 63.9375 
Q 73.09375 53.65625 73.09375 36.375 
Q 73.09375 19.140625 63.90625 8.859375 
Q 54.734375 -1.421875 39.40625 -1.421875 
Q 24.03125 -1.421875 14.8125 8.828125 
Q 5.609375 19.09375 5.609375 36.375 
Q 5.609375 53.65625 14.8125 63.9375 
Q 24.03125 74.21875 39.40625 74.21875 
z
" id="DejaVuSans-79"/>
      <path id="DejaVuSans-32"/>
      <path d="M 34.28125 27.484375 
Q 23.390625 27.484375 19.1875 25 
Q 14.984375 22.515625 14.984375 16.5 
Q 14.984375 11.71875 18.140625 8.90625 
Q 21.296875 6.109375 26.703125 6.109375 
Q 34.1875 6.109375 38.703125 11.40625 
Q 43.21875 16.703125 43.21875 25.484375 
L 43.21875 27.484375 
z
M 52.203125 31.203125 
L 52.203125 0 
L 43.21875 0 
L 43.21875 8.296875 
Q 40.140625 3.328125 35.546875 0.953125 
Q 30.953125 -1.421875 24.3125 -1.421875 
Q 15.921875 -1.421875 10.953125 3.296875 
Q 6 8.015625 6 15.921875 
Q 6 25.140625 12.171875 29.828125 
Q 18.359375 34.515625 30.609375 34.515625 
L 43.21875 34.515625 
L 43.21875 35.40625 
Q 43.21875 41.609375 39.140625 45 
Q 35.0625 48.390625 27.6875 48.390625 
Q 23 48.390625 18.546875 47.265625 
Q 14.109375 46.140625 10.015625 43.890625 
L 10.015625 52.203125 
Q 14.9375 54.109375 19.578125 55.046875 
Q 24.21875 56 28.609375 56 
Q 40.484375 56 46.34375 49.84375 
Q 52.203125 43.703125 52.203125 31.203125 
z
" id="DejaVuSans-97"/>
      <path d="M 54.890625 33.015625 
L 54.890625 0 
L 45.90625 0 
L 45.90625 32.71875 
Q 45.90625 40.484375 42.875 44.328125 
Q 39.84375 48.1875 33.796875 48.1875 
Q 26.515625 48.1875 22.3125 43.546875 
Q 18.109375 38.921875 18.109375 30.90625 
L 18.109375 0 
L 9.078125 0 
L 9.078125 54.6875 
L 18.109375 54.6875 
L 18.109375 46.1875 
Q 21.34375 51.125 25.703125 53.5625 
Q 30.078125 56 35.796875 56 
Q 45.21875 56 50.046875 50.171875 
Q 54.890625 44.34375 54.890625 33.015625 
z
" id="DejaVuSans-110"/>
      <path d="M 45.40625 46.390625 
L 45.40625 75.984375 
L 54.390625 75.984375 
L 54.390625 0 
L 45.40625 0 
L 45.40625 8.203125 
Q 42.578125 3.328125 38.25 0.953125 
Q 33.9375 -1.421875 27.875 -1.421875 
Q 17.96875 -1.421875 11.734375 6.484375 
Q 5.515625 14.40625 5.515625 27.296875 
Q 5.515625 40.1875 11.734375 48.09375 
Q 17.96875 56 27.875 56 
Q 33.9375 56 38.25 53.625 
Q 42.578125 51.265625 45.40625 46.390625 
z
M 14.796875 27.296875 
Q 14.796875 17.390625 18.875 11.75 
Q 22.953125 6.109375 30.078125 6.109375 
Q 37.203125 6.109375 41.296875 11.75 
Q 45.40625 17.390625 45.40625 27.296875 
Q 45.40625 37.203125 41.296875 42.84375 
Q 37.203125 48.484375 30.078125 48.484375 
Q 22.953125 48.484375 18.875 42.84375 
Q 14.796875 37.203125 14.796875 27.296875 
z
" id="DejaVuSans-100"/>
      <path d="M 9.8125 72.90625 
L 19.671875 72.90625 
L 19.671875 8.296875 
L 55.171875 8.296875 
L 55.171875 0 
L 9.8125 0 
z
" id="DejaVuSans-76"/>
     </defs>
     <g transform="translate(37.684063 422.32875)rotate(-90)scale(0.16 -0.16)">
      <use xlink:href="#DejaVuSans-69"/>
      <use x="63.183594" xlink:href="#DejaVuSans-85"/>
      <use x="136.376953" xlink:href="#DejaVuSans-66"/>
      <use x="204.964844" xlink:href="#DejaVuSans-79"/>
      <use x="283.675781" xlink:href="#DejaVuSans-32"/>
      <use x="315.462891" xlink:href="#DejaVuSans-97"/>
      <use x="376.742188" xlink:href="#DejaVuSans-110"/>
      <use x="440.121094" xlink:href="#DejaVuSans-100"/>
      <use x="503.597656" xlink:href="#DejaVuSans-32"/>
      <use x="535.384766" xlink:href="#DejaVuSans-69"/>
      <use x="598.568359" xlink:href="#DejaVuSans-76"/>
      <use x="654.28125" xlink:href="#DejaVuSans-66"/>
      <use x="722.869141" xlink:href="#DejaVuSans-79"/>
     </g>
    </g>
   </g>
   <g id="line2d_13">
    <path clip-path="url(#pd8c9394d06)" d="M 115.363636 605.290909 
L 116.886978 563.344189 
L 117.394758 554.789245 
L 118.9181 518.384121 
L 119.42588 504.856457 
L 120.441441 484.76855 
L 120.949222 471.581189 
L 121.457002 461.989885 
L 121.964783 449.782134 
L 122.472563 440.942756 
L 123.488124 418.490956 
L 123.995905 410.466027 
L 125.011466 390.174644 
L 125.519247 382.331132 
L 127.042588 354.35608 
L 128.058149 337.011102 
L 128.56593 332.319573 
L 129.581491 318.522066 
L 131.104832 301.195926 
L 132.120393 291.801063 
L 132.628174 286.279862 
L 133.135954 282.304572 
L 134.151515 276.153529 
L 134.659296 272.545342 
L 135.167076 270.334601 
L 135.674857 269.158375 
L 136.690418 261.484413 
L 137.198198 259.964397 
L 137.705979 257.708725 
L 138.213759 256.688856 
L 138.72154 255.13819 
L 139.22932 255.265576 
L 140.244881 249.597193 
L 140.752662 249.135452 
L 141.260442 247.622675 
L 141.768223 247.431763 
L 142.276003 246.623763 
L 142.783784 245.47056 
L 143.291564 244.66708 
L 143.799345 244.161631 
L 144.307125 242.053748 
L 145.830467 240.830183 
L 146.338247 239.200198 
L 147.353808 239.262106 
L 147.861589 237.369928 
L 148.369369 236.4379 
L 148.87715 236.102147 
L 149.38493 235.283831 
L 149.892711 235.941581 
L 150.400491 235.471659 
L 150.908272 234.096575 
L 151.416052 233.10829 
L 151.923833 233.680653 
L 152.431613 232.574873 
L 152.939394 232.315505 
L 153.447174 231.349879 
L 153.954955 231.438996 
L 154.462735 230.820632 
L 154.970516 229.116434 
L 155.478296 228.727987 
L 155.986077 229.033219 
L 157.001638 227.033603 
L 157.509419 227.109784 
L 158.017199 227.855443 
L 158.52498 227.483935 
L 159.03276 225.067181 
L 159.540541 224.998179 
L 160.048321 224.420901 
L 160.556102 224.079223 
L 161.571663 222.684603 
L 162.079443 223.874669 
L 162.587224 223.628207 
L 163.602785 220.630675 
L 164.110565 221.001537 
L 164.618346 218.825312 
L 165.126126 219.439993 
L 165.633907 218.069801 
L 166.141687 219.152999 
L 166.649468 219.01943 
L 167.157248 217.39771 
L 167.665029 217.595086 
L 168.68059 216.733419 
L 169.18837 216.228198 
L 169.696151 216.505014 
L 170.203931 215.1663 
L 171.219492 213.507412 
L 171.727273 212.51223 
L 172.235053 213.588895 
L 172.742834 212.921787 
L 173.250614 212.916211 
L 173.758395 211.977369 
L 174.266175 212.594549 
L 174.773956 210.89699 
L 175.281736 210.651234 
L 175.789517 211.114351 
L 177.820639 209.552047 
L 178.328419 209.531454 
L 178.8362 209.010874 
L 179.34398 208.801063 
L 179.851761 209.039572 
L 180.359541 207.631863 
L 180.867322 207.38961 
L 181.375102 206.629601 
L 181.882883 207.352397 
L 182.390663 206.574545 
L 182.898444 205.467443 
L 183.406224 206.092644 
L 183.914005 205.62342 
L 184.421785 205.724478 
L 184.929566 205.427039 
L 185.437346 205.482802 
L 185.945127 204.872216 
L 186.452907 204.593532 
L 186.960688 204.91009 
L 187.468468 203.226925 
L 187.976249 204.109883 
L 188.484029 203.940993 
L 188.99181 203.581517 
L 189.49959 204.421451 
L 190.007371 202.110237 
L 190.515152 203.333749 
L 191.022932 202.56581 
L 191.530713 202.050137 
L 192.038493 201.814629 
L 193.054054 201.930263 
L 193.561835 201.728102 
L 194.069615 200.246749 
L 194.577396 200.290928 
L 195.085176 200.172141 
L 195.592957 200.811076 
L 196.100737 199.739242 
L 196.608518 200.462143 
L 197.116298 200.482356 
L 197.624079 201.001129 
L 198.131859 197.523875 
L 198.63964 200.228299 
L 199.14742 198.214174 
L 199.655201 199.456934 
L 200.162981 198.885065 
L 200.670762 198.807373 
L 201.178542 197.939706 
L 201.686323 197.494546 
L 202.194103 198.154575 
L 202.701884 198.285729 
L 203.209664 198.221398 
L 203.717445 197.897494 
L 204.225225 197.86389 
L 204.733006 196.899783 
L 205.240786 197.275453 
L 206.256347 196.79144 
L 206.764128 197.104709 
L 207.271908 195.297319 
L 207.779689 196.992949 
L 208.79525 196.160337 
L 209.30303 196.724709 
L 209.810811 196.46124 
L 210.318591 196.414653 
L 210.826372 196.185154 
L 211.334152 195.418073 
L 211.841933 195.346549 
L 212.349713 194.626116 
L 212.857494 195.56723 
L 213.365274 195.177613 
L 214.380835 193.820433 
L 215.396396 195.129127 
L 215.904177 193.614306 
L 216.411957 194.713213 
L 216.919738 194.092979 
L 217.427518 193.669765 
L 217.935299 194.590027 
L 218.443079 193.918194 
L 218.95086 194.427282 
L 219.45864 193.901445 
L 219.966421 194.132806 
L 220.474201 195.199953 
L 220.981982 193.100099 
L 221.489762 193.376284 
L 221.997543 193.488136 
L 222.505324 193.765863 
L 223.013104 192.985839 
L 223.520885 193.853575 
L 224.028665 193.179926 
L 225.044226 193.229832 
L 225.552007 192.626781 
L 226.059787 193.223801 
L 226.567568 192.454465 
L 227.075348 193.334171 
L 227.583129 192.801528 
L 228.090909 192.967867 
L 228.59869 192.338389 
L 229.10647 193.848105 
L 229.614251 193.395046 
L 230.122031 192.153486 
L 230.629812 192.858111 
L 231.137592 192.890152 
L 231.645373 193.179888 
L 232.153153 192.639307 
L 232.660934 192.399674 
L 233.168714 191.570891 
L 233.676495 192.56817 
L 234.184275 192.244639 
L 234.692056 191.519671 
L 235.199836 191.300396 
L 235.707617 192.295874 
L 236.215397 192.233093 
L 236.723178 191.81452 
L 237.738739 191.841235 
L 238.246519 191.166234 
L 238.7543 190.863767 
L 239.26208 190.236659 
L 239.769861 190.18553 
L 240.277641 191.835226 
L 240.785422 191.315687 
L 241.293202 191.767181 
L 241.800983 190.793002 
L 242.308763 191.522778 
L 242.816544 190.403286 
L 243.324324 190.487557 
L 244.339885 190.381486 
L 244.847666 189.856993 
L 245.355446 189.992044 
L 245.863227 190.505377 
L 246.371007 190.598019 
L 246.878788 191.238989 
L 247.386568 190.050799 
L 247.894349 190.580001 
L 248.90991 190.518192 
L 249.41769 189.895551 
L 249.925471 188.977507 
L 250.433251 188.949508 
L 250.941032 190.15109 
L 252.464373 189.665702 
L 252.972154 189.911016 
L 253.479934 189.879485 
L 253.987715 188.421878 
L 254.495495 189.421542 
L 256.018837 188.810447 
L 256.526618 188.152271 
L 257.034398 190.004645 
L 257.542179 187.657874 
L 258.049959 188.516479 
L 258.55774 187.773646 
L 259.06552 188.017965 
L 259.573301 187.996727 
L 260.081081 187.651691 
L 261.096642 188.021497 
L 261.604423 186.837888 
L 262.112203 187.730439 
L 262.619984 187.203083 
L 263.127764 188.134314 
L 263.635545 187.827395 
L 264.143325 187.282872 
L 264.651106 187.55336 
L 265.158886 186.895709 
L 265.666667 187.376524 
L 266.174447 186.415015 
L 266.682228 187.551423 
L 267.190008 187.17282 
L 267.697789 187.417717 
L 268.205569 186.917942 
L 268.71335 187.607596 
L 269.22113 186.554372 
L 270.236691 186.275316 
L 271.252252 186.612239 
L 271.760033 185.001989 
L 272.267813 186.092099 
L 272.775594 185.918886 
L 273.283374 184.887957 
L 273.791155 185.999587 
L 274.298935 186.487337 
L 274.806716 185.23866 
L 275.314496 185.568746 
L 275.822277 184.835134 
L 276.330057 185.995174 
L 276.837838 186.016237 
L 277.345618 184.633489 
L 277.853399 186.141512 
L 278.361179 184.367194 
L 278.86896 185.379718 
L 279.37674 185.26144 
L 279.884521 185.419696 
L 280.392301 184.579466 
L 280.900082 184.775809 
L 281.407862 183.507989 
L 281.915643 185.019597 
L 282.423423 184.664139 
L 282.931204 183.869949 
L 283.438984 183.610202 
L 283.946765 183.608622 
L 284.454545 183.228622 
L 284.962326 184.259323 
L 285.977887 183.340534 
L 286.485667 183.284194 
L 286.993448 183.062511 
L 287.501229 183.510147 
L 288.009009 182.666635 
L 288.51679 183.616689 
L 289.02457 182.425794 
L 289.532351 182.788157 
L 290.040131 181.777737 
L 290.547912 182.82202 
L 291.055692 183.010941 
L 291.563473 182.485477 
L 292.071253 182.48515 
L 292.579034 182.231898 
L 293.086814 182.452191 
L 293.594595 181.277332 
L 294.102375 182.496316 
L 294.610156 181.445303 
L 295.117936 181.560854 
L 295.625717 180.486263 
L 296.133497 181.430195 
L 296.641278 180.179139 
L 297.656839 179.691921 
L 298.6724 179.932305 
L 299.18018 179.313766 
L 299.687961 179.110845 
L 300.195741 179.850192 
L 300.703522 178.567613 
L 301.211302 179.226723 
L 301.719083 178.606118 
L 302.226863 178.308489 
L 302.734644 178.667357 
L 303.242424 178.09027 
L 303.750205 178.823737 
L 304.257985 178.234967 
L 304.765766 178.256654 
L 305.273546 177.77261 
L 305.781327 177.653542 
L 306.289107 177.017273 
L 306.796888 177.007201 
L 307.304668 177.67279 
L 307.812449 177.934322 
L 308.320229 176.715049 
L 308.82801 176.535129 
L 309.33579 175.637617 
L 309.843571 175.828225 
L 310.351351 176.503552 
L 311.366912 174.56867 
L 311.874693 175.939044 
L 312.382473 174.140685 
L 312.890254 174.716648 
L 313.398034 174.961051 
L 313.905815 174.457114 
L 314.413595 174.20905 
L 314.921376 175.005595 
L 315.429156 174.159827 
L 315.936937 174.277308 
L 316.444717 173.046671 
L 316.952498 173.841659 
L 317.460278 173.379431 
L 318.475839 172.058902 
L 318.98362 172.794079 
L 319.4914 171.462316 
L 319.999181 172.148042 
L 320.506962 171.743271 
L 321.014742 170.790953 
L 321.522523 171.370236 
L 322.538084 169.91923 
L 323.045864 170.194633 
L 323.553645 169.667679 
L 324.061425 169.64657 
L 324.569206 169.074594 
L 325.076986 168.793472 
L 325.584767 169.273375 
L 326.092547 168.623457 
L 326.600328 168.70756 
L 327.108108 168.637023 
L 327.615889 167.794203 
L 328.123669 167.388976 
L 328.63145 167.42426 
L 329.13923 166.974672 
L 329.647011 165.989236 
L 330.154791 166.263309 
L 330.662572 165.699963 
L 331.170352 165.802836 
L 331.678133 165.238989 
L 332.185913 166.101992 
L 332.693694 164.658802 
L 333.709255 165.114497 
L 334.217035 164.135487 
L 334.724816 163.894357 
L 335.232596 164.667385 
L 335.740377 163.073019 
L 336.248157 163.149807 
L 337.263718 162.081217 
L 337.771499 162.413749 
L 338.78706 161.574818 
L 339.29484 161.705159 
L 339.802621 160.912928 
L 340.310401 160.638923 
L 340.818182 159.513325 
L 341.325962 160.103105 
L 341.833743 159.449358 
L 342.341523 159.39314 
L 342.849304 159.144779 
L 343.357084 159.043805 
L 343.864865 158.256861 
L 344.372645 158.307322 
L 344.880426 157.100567 
L 345.388206 156.757931 
L 345.895987 156.611532 
L 346.403767 157.566273 
L 346.911548 156.698485 
L 347.419328 156.650918 
L 347.927109 155.448356 
L 348.434889 155.276655 
L 348.94267 154.779371 
L 349.45045 154.958745 
L 349.958231 154.706138 
L 350.466011 153.804987 
L 350.973792 154.094572 
L 351.481572 153.581169 
L 351.989353 153.5156 
L 352.497133 152.910339 
L 353.004914 153.024948 
L 353.512695 152.280573 
L 354.020475 152.137926 
L 355.543817 150.769892 
L 356.559378 150.662461 
L 357.067158 150.283129 
L 358.082719 148.787093 
L 358.5905 148.959851 
L 359.09828 148.290015 
L 359.606061 148.302723 
L 360.113841 147.596024 
L 360.621622 147.729457 
L 361.129402 146.852097 
L 361.637183 147.260567 
L 362.144963 146.613247 
L 362.652744 145.581839 
L 363.160524 146.461341 
L 363.668305 146.389672 
L 364.176085 143.997659 
L 364.683866 144.783501 
L 365.191646 143.667488 
L 365.699427 143.664435 
L 366.207207 144.022726 
L 366.714988 142.847593 
L 367.222768 142.625925 
L 367.730549 142.610611 
L 368.238329 141.838502 
L 368.74611 142.067706 
L 369.25389 141.632042 
L 369.761671 140.976198 
L 370.777232 140.330617 
L 371.285012 140.224925 
L 371.792793 139.676437 
L 372.300573 139.442387 
L 372.808354 138.488399 
L 373.316134 138.649564 
L 373.823915 138.239438 
L 374.331695 138.023285 
L 374.839476 137.929238 
L 375.347256 137.081085 
L 375.855037 136.949172 
L 376.362817 136.267099 
L 376.870598 136.330055 
L 377.378378 135.988559 
L 377.886159 135.098826 
L 378.393939 135.111618 
L 379.4095 134.557128 
L 379.917281 134.713539 
L 380.425061 133.656737 
L 380.932842 133.544589 
L 381.440622 132.961675 
L 381.948403 133.537707 
L 382.456183 133.132708 
L 382.963964 132.366281 
L 383.471744 132.364071 
L 383.979525 131.859495 
L 385.502867 131.260493 
L 386.010647 131.213762 
L 386.518428 130.714056 
L 387.533989 130.129205 
L 388.041769 130.233575 
L 388.54955 129.259274 
L 389.05733 129.687593 
L 389.565111 128.862897 
L 390.072891 129.114957 
L 391.088452 128.918082 
L 391.596233 128.064855 
L 392.104013 128.04528 
L 395.150696 126.993014 
L 395.658477 126.707546 
L 396.166257 126.572443 
L 396.674038 126.192405 
L 397.181818 125.968207 
L 397.689599 126.326969 
L 398.197379 125.902212 
L 398.70516 125.902205 
L 399.21294 125.377735 
L 400.228501 125.102583 
L 400.736282 125.141414 
L 402.767404 124.721846 
L 403.782965 124.176859 
L 404.290745 124.154466 
L 405.306306 123.681361 
L 405.814087 123.967801 
L 406.829648 123.529349 
L 407.337428 123.882565 
L 407.845209 123.608872 
L 408.352989 123.777763 
L 409.36855 123.22654 
L 412.415233 122.792083 
L 412.923014 122.787283 
L 413.430794 122.498556 
L 413.938575 122.678089 
L 414.446355 122.573985 
L 414.954136 122.315568 
L 415.461916 122.361714 
L 415.969697 122.106197 
L 416.477477 122.295567 
L 416.985258 122.226124 
L 417.493038 121.703029 
L 418.000819 122.080523 
L 418.5086 122.206693 
L 419.01638 121.82313 
L 419.524161 121.935962 
L 420.031941 121.59888 
L 420.539722 121.652447 
L 421.047502 121.364655 
L 421.555283 121.582905 
L 423.586405 121.585154 
L 424.094185 121.287008 
L 428.156429 120.983212 
L 428.66421 121.122144 
L 429.17199 120.703031 
L 430.187551 120.959694 
L 431.203112 120.757943 
L 431.710893 120.870896 
L 433.234234 120.570791 
L 434.249795 120.772132 
L 435.265356 120.193146 
L 435.773137 120.470516 
L 436.280917 120.582611 
L 436.788698 120.410796 
L 438.81982 120.306031 
L 439.3276 120.377297 
L 439.835381 120.169408 
L 441.358722 120.290573 
L 442.882064 119.94602 
L 443.389844 120.116183 
L 445.928747 119.894887 
L 446.944308 119.891225 
L 448.467649 119.754436 
L 448.97543 119.924549 
L 449.990991 119.747782 
L 450.498771 119.715673 
L 451.514333 119.843621 
L 454.053235 119.572616 
L 455.068796 119.67827 
L 455.576577 119.470115 
L 456.084357 119.623958 
L 456.592138 119.460043 
L 457.099918 119.431512 
L 457.607699 119.588439 
L 458.62326 119.531264 
L 459.13104 119.530838 
L 459.638821 119.412119 
L 461.162162 119.477043 
L 462.177723 119.464433 
L 463.701065 119.498168 
L 464.208845 119.369156 
L 467.763309 119.419617 
L 468.77887 119.350242 
L 469.28665 119.20474 
L 469.794431 119.343573 
L 470.809992 119.188028 
L 471.317772 119.332285 
L 472.333333 119.188104 
L 473.348894 119.3086 
L 474.872236 119.229571 
L 475.887797 119.198526 
L 477.918919 119.094635 
L 479.44226 119.136785 
L 480.965602 119.132471 
L 481.473382 119.112098 
L 481.981163 119.243882 
L 482.996724 119.028382 
L 483.504505 119.117666 
L 484.520066 119.023855 
L 486.043407 119.054725 
L 487.058968 118.900442 
L 487.566749 119.036388 
L 489.09009 118.95489 
L 489.597871 119.076252 
L 493.152334 118.888645 
L 495.183456 118.908584 
L 496.199017 118.93492 
L 497.722359 118.928137 
L 498.230139 118.82047 
L 499.2457 118.925691 
L 500.769042 118.84559 
L 501.276822 118.875747 
L 501.784603 118.782915 
L 502.800164 118.864201 
L 503.307944 118.784055 
L 504.323505 118.824534 
L 510.416871 118.750138 
L 510.924652 118.685405 
L 511.432432 118.796421 
L 512.447993 118.719321 
L 513.463554 118.765566 
L 514.986896 118.721615 
L 516.510238 118.833429 
L 518.033579 118.702663 
L 524.126945 118.682837 
L 524.634726 118.577731 
L 525.142506 118.719503 
L 530.728092 118.726082 
L 531.743653 118.593751 
L 532.251433 118.675477 
L 534.282555 118.612946 
L 536.821458 118.629543 
L 537.329238 118.549109 
L 538.344799 118.670919 
L 541.391482 118.607849 
L 545.453726 118.614344 
L 549.00819 118.513498 
L 550.023751 118.548455 
L 553.578215 118.547954 
L 554.593776 118.537958 
L 559.1638 118.555702 
L 566.272727 118.476536 
L 567.288288 118.497228 
L 570.842752 118.57533 
L 571.858313 118.541422 
L 573.381654 118.505097 
L 575.412776 118.450861 
L 576.428337 118.541353 
L 578.459459 118.454834 
L 579.982801 118.477865 
L 585.060606 118.47586 
L 586.076167 118.449114 
L 586.583948 118.542644 
L 588.107289 118.447344 
L 622.636364 118.434575 
L 622.636364 118.434575 
" style="fill:none;stroke:#0000ff;stroke-linecap:square;stroke-width:1.5;"/>
   </g>
   <g id="line2d_14">
    <path clip-path="url(#pd8c9394d06)" d="M 115.363636 369.0735 
L 115.871417 357.028753 
L 116.379197 354.66508 
L 116.886978 342.460421 
L 117.394758 339.400791 
L 117.902539 328.095998 
L 118.410319 321.664957 
L 118.9181 313.123276 
L 119.42588 300.847206 
L 119.933661 293.011851 
L 120.441441 294.181925 
L 120.949222 281.00608 
L 121.457002 275.428926 
L 121.964783 267.431745 
L 122.472563 263.356735 
L 122.980344 253.904712 
L 123.488124 250.083485 
L 124.503686 234.16137 
L 125.011466 231.733268 
L 126.534808 213.831377 
L 127.042588 206.0718 
L 128.56593 195.967458 
L 129.07371 187.824843 
L 129.581491 186.270926 
L 130.597052 179.205105 
L 131.104832 179.492441 
L 131.612613 174.599829 
L 132.120393 171.409759 
L 133.135954 167.670813 
L 133.643735 163.779779 
L 134.151515 163.560936 
L 134.659296 161.47 
L 135.167076 162.357675 
L 135.674857 162.381238 
L 136.690418 153.89598 
L 137.198198 153.562939 
L 137.705979 152.956136 
L 138.213759 151.552635 
L 138.72154 153.417801 
L 139.22932 153.811938 
L 139.737101 151.692448 
L 140.244881 150.614158 
L 140.752662 150.546097 
L 141.260442 150.354251 
L 141.768223 149.64942 
L 142.276003 148.237291 
L 142.783784 146.377586 
L 143.799345 148.409668 
L 144.307125 145.064434 
L 144.814906 145.282349 
L 145.322686 146.482967 
L 145.830467 146.991842 
L 146.338247 144.177115 
L 146.846028 146.250915 
L 147.353808 145.982683 
L 147.861589 144.669454 
L 148.369369 146.415248 
L 148.87715 145.796557 
L 149.38493 143.60476 
L 149.892711 143.659657 
L 150.400491 143.84769 
L 150.908272 142.932843 
L 151.416052 143.12061 
L 151.923833 144.372942 
L 152.939394 140.767064 
L 153.447174 142.107714 
L 153.954955 142.946152 
L 154.462735 141.794324 
L 154.970516 141.163669 
L 155.478296 142.524776 
L 155.986077 142.089271 
L 156.493857 140.733527 
L 157.001638 140.965389 
L 157.509419 141.685328 
L 158.017199 143.023442 
L 159.03276 137.982676 
L 160.556102 140.575423 
L 161.063882 139.894406 
L 161.571663 138.978899 
L 162.079443 139.736909 
L 162.587224 142.071048 
L 163.095004 136.639063 
L 163.602785 137.926047 
L 164.110565 136.188138 
L 164.618346 136.758139 
L 165.126126 138.676553 
L 165.633907 136.02834 
L 166.141687 138.11721 
L 166.649468 137.815251 
L 167.157248 136.041884 
L 167.665029 137.140418 
L 168.172809 137.235551 
L 169.18837 134.082299 
L 169.696151 135.838249 
L 170.203931 135.352602 
L 170.711712 136.473119 
L 171.219492 134.083689 
L 171.727273 132.500952 
L 172.235053 134.923949 
L 172.742834 134.923949 
L 173.250614 136.76499 
L 173.758395 134.916239 
L 174.266175 134.012537 
L 174.773956 133.440295 
L 175.281736 132.339255 
L 175.789517 134.170793 
L 176.297297 133.176553 
L 176.805078 135.612441 
L 177.312858 135.995274 
L 177.820639 132.883413 
L 178.328419 133.130862 
L 178.8362 134.095151 
L 179.34398 133.423341 
L 179.851761 134.243054 
L 180.359541 132.355571 
L 180.867322 133.017028 
L 181.375102 133.12237 
L 181.882883 130.539567 
L 182.898444 130.012226 
L 183.406224 130.350546 
L 183.914005 131.302089 
L 184.421785 131.064477 
L 184.929566 129.538779 
L 185.945127 131.393325 
L 186.452907 130.36627 
L 186.960688 131.739865 
L 187.468468 131.260106 
L 187.976249 130.381971 
L 188.484029 130.63094 
L 189.49959 131.841728 
L 190.515152 129.486404 
L 191.022932 129.386197 
L 191.530713 131.527183 
L 192.038493 131.585255 
L 192.546274 130.342054 
L 193.054054 130.741531 
L 193.561835 128.846922 
L 194.069615 129.396505 
L 194.577396 129.363416 
L 195.085176 130.311693 
L 195.592957 129.939782 
L 196.100737 131.365699 
L 196.608518 131.312557 
L 197.116298 129.368133 
L 197.624079 129.418047 
L 198.131859 126.764266 
L 198.63964 131.129811 
L 199.14742 129.820068 
L 199.655201 129.666506 
L 200.162981 128.095141 
L 200.670762 129.465272 
L 201.178542 129.689826 
L 201.686323 127.670073 
L 202.194103 129.158277 
L 202.701884 128.869361 
L 203.209664 130.560418 
L 203.717445 128.263902 
L 204.225225 127.432894 
L 204.733006 128.16583 
L 205.240786 128.65889 
L 205.748567 128.831252 
L 206.256347 126.452304 
L 206.764128 127.996772 
L 207.271908 126.044593 
L 207.779689 126.873262 
L 208.287469 128.608482 
L 208.79525 128.248057 
L 209.30303 128.220521 
L 209.810811 127.961906 
L 210.826372 126.393366 
L 211.334152 128.375359 
L 211.841933 128.545009 
L 212.349713 125.493651 
L 212.857494 127.783011 
L 213.365274 126.942424 
L 213.873055 126.571296 
L 214.380835 126.376746 
L 214.888616 125.901909 
L 215.396396 128.804772 
L 215.904177 125.720325 
L 216.411957 127.68193 
L 216.919738 128.465053 
L 217.427518 126.594107 
L 217.935299 127.614371 
L 218.95086 125.704928 
L 219.45864 126.4016 
L 219.966421 127.547625 
L 220.474201 127.947185 
L 220.981982 126.403226 
L 221.489762 126.802991 
L 221.997543 126.64911 
L 222.505324 125.849921 
L 223.013104 127.126059 
L 223.520885 125.770573 
L 224.028665 127.579452 
L 224.536446 128.450416 
L 225.044226 125.808644 
L 225.552007 127.056805 
L 226.059787 127.770121 
L 226.567568 126.371413 
L 227.075348 128.975729 
L 227.583129 126.201983 
L 228.090909 125.670267 
L 228.59869 127.780953 
L 229.10647 127.672321 
L 229.614251 128.217224 
L 230.122031 124.776325 
L 230.629812 124.735542 
L 231.137592 126.224544 
L 231.645373 126.906229 
L 232.153153 125.714309 
L 232.660934 127.934993 
L 233.168714 125.761442 
L 233.676495 126.257677 
L 234.184275 127.7268 
L 234.692056 125.412168 
L 235.199836 126.649824 
L 235.707617 125.997406 
L 236.215397 129.201567 
L 236.723178 125.477395 
L 237.230958 128.218926 
L 237.738739 126.736313 
L 238.246519 127.440976 
L 238.7543 125.931503 
L 239.26208 126.8211 
L 239.769861 125.60962 
L 240.277641 125.198012 
L 240.785422 125.978682 
L 241.293202 127.334548 
L 241.800983 126.255254 
L 242.308763 123.909775 
L 242.816544 125.246848 
L 243.324324 126.236469 
L 243.832105 124.269387 
L 244.339885 126.026332 
L 244.847666 125.684259 
L 245.355446 127.12356 
L 245.863227 125.246536 
L 246.371007 125.869162 
L 246.878788 125.528411 
L 247.386568 124.42004 
L 247.894349 124.658882 
L 248.402129 125.580018 
L 248.90991 125.465675 
L 249.41769 125.68119 
L 249.925471 124.011121 
L 250.433251 125.797129 
L 250.941032 125.964986 
L 251.448812 126.789075 
L 251.956593 125.439825 
L 252.464373 125.26125 
L 252.972154 124.474131 
L 253.479934 126.591881 
L 253.987715 125.701829 
L 254.495495 126.194714 
L 255.003276 124.85148 
L 255.511057 124.085562 
L 256.018837 125.811888 
L 256.526618 123.570557 
L 257.034398 126.773814 
L 257.542179 123.905498 
L 258.049959 126.52256 
L 258.55774 126.059557 
L 259.06552 125.443509 
L 259.573301 124.509422 
L 260.081081 126.288335 
L 260.588862 125.044481 
L 261.096642 125.809389 
L 261.604423 124.338982 
L 262.112203 122.129449 
L 262.619984 125.881285 
L 263.127764 125.867066 
L 263.635545 122.909944 
L 264.143325 123.932646 
L 264.651106 125.637558 
L 265.158886 123.679667 
L 265.666667 126.188401 
L 266.174447 124.435672 
L 266.682228 124.799941 
L 267.190008 123.691753 
L 267.697789 125.567629 
L 268.205569 124.959185 
L 268.71335 124.733119 
L 269.22113 123.249282 
L 269.728911 124.661769 
L 270.236691 123.58812 
L 270.744472 123.740747 
L 271.252252 122.771225 
L 271.760033 122.201216 
L 272.267813 122.996812 
L 272.775594 124.576807 
L 273.283374 122.982957 
L 273.791155 123.541419 
L 274.298935 124.722051 
L 274.806716 123.048701 
L 275.822277 123.924648 
L 276.330057 124.878097 
L 276.837838 122.588858 
L 277.345618 122.230028 
L 277.853399 123.937113 
L 278.361179 120.577446 
L 278.86896 124.193221 
L 279.37674 123.3377 
L 279.884521 125.307927 
L 280.392301 122.442224 
L 280.900082 121.309561 
L 281.407862 123.375734 
L 281.915643 121.604831 
L 282.423423 123.198161 
L 282.931204 122.501914 
L 283.438984 123.307734 
L 283.946765 123.690879 
L 284.454545 123.045359 
L 284.962326 124.673968 
L 285.470106 124.560946 
L 285.977887 122.353441 
L 286.485667 123.403642 
L 286.993448 121.974178 
L 287.501229 122.936446 
L 288.009009 121.553106 
L 288.51679 121.503139 
L 289.02457 121.853856 
L 289.532351 123.641603 
L 290.040131 122.979508 
L 290.547912 122.774149 
L 291.055692 124.055505 
L 291.563473 123.452363 
L 292.071253 122.672126 
L 292.579034 123.2643 
L 293.086814 122.709309 
L 293.594595 119.569039 
L 294.102375 123.009103 
L 294.610156 121.105766 
L 295.117936 123.380869 
L 295.625717 121.623149 
L 296.133497 122.102977 
L 296.641278 122.05854 
L 297.149058 122.213256 
L 297.656839 121.544013 
L 298.164619 121.545848 
L 298.6724 121.269401 
L 299.18018 120.858295 
L 299.687961 121.070559 
L 300.195741 122.577449 
L 300.703522 119.438121 
L 301.211302 121.207273 
L 301.719083 120.411426 
L 302.226863 120.542732 
L 302.734644 121.032442 
L 303.242424 119.815128 
L 303.750205 121.759453 
L 304.257985 120.782919 
L 304.765766 121.142623 
L 305.273546 121.178689 
L 305.781327 119.671696 
L 306.289107 119.448163 
L 306.796888 119.620267 
L 307.812449 121.457965 
L 308.320229 118.610135 
L 308.82801 119.573338 
L 309.33579 119.542209 
L 309.843571 120.298009 
L 310.351351 120.745242 
L 310.859132 119.040877 
L 311.366912 119.179566 
L 311.874693 120.838545 
L 312.382473 118.929937 
L 312.890254 118.234237 
L 313.398034 118.99815 
L 313.905815 118.181938 
L 314.413595 119.296599 
L 314.921376 118.312503 
L 315.429156 120.519047 
L 315.936937 118.433854 
L 316.444717 118.128454 
L 316.952498 119.814148 
L 317.460278 120.028099 
L 318.475839 116.814504 
L 318.98362 118.619874 
L 319.4914 118.354665 
L 319.999181 119.109204 
L 320.506962 118.436573 
L 321.014742 117.546665 
L 321.522523 119.064835 
L 322.538084 117.564629 
L 323.045864 118.263824 
L 323.553645 118.378539 
L 324.061425 118.001577 
L 324.569206 119.404197 
L 325.076986 118.091302 
L 325.584767 117.966073 
L 326.600328 117.346137 
L 327.108108 117.835323 
L 327.615889 118.138352 
L 328.123669 116.057921 
L 328.63145 118.106745 
L 329.13923 118.309506 
L 329.647011 115.894462 
L 330.154791 115.580274 
L 330.662572 116.235722 
L 331.170352 116.312648 
L 331.678133 115.733585 
L 332.185913 117.951573 
L 332.693694 114.946854 
L 333.201474 116.231704 
L 333.709255 117.145001 
L 334.217035 115.428732 
L 334.724816 116.505025 
L 335.232596 116.634849 
L 335.740377 116.414875 
L 336.248157 115.587741 
L 336.755938 114.988989 
L 337.263718 116.312161 
L 337.771499 116.046284 
L 338.279279 116.774298 
L 338.78706 114.684539 
L 339.29484 117.375867 
L 339.802621 116.408776 
L 341.325962 114.33288 
L 341.833743 115.212389 
L 342.341523 114.047063 
L 342.849304 113.912309 
L 343.357084 114.193697 
L 343.864865 114.84477 
L 344.372645 115.192222 
L 344.880426 113.506824 
L 345.388206 113.304625 
L 345.895987 112.954644 
L 346.403767 113.670428 
L 346.911548 113.935272 
L 347.419328 114.620497 
L 347.927109 113.513121 
L 348.434889 113.273124 
L 348.94267 113.230517 
L 349.45045 112.831816 
L 349.958231 114.828553 
L 350.466011 114.190872 
L 350.973792 114.035821 
L 351.481572 112.798758 
L 351.989353 114.564932 
L 353.512695 112.908718 
L 354.020475 114.747199 
L 354.528256 112.865428 
L 355.036036 112.846339 
L 355.543817 113.196966 
L 356.051597 113.706646 
L 356.559378 113.011234 
L 357.067158 113.583954 
L 357.574939 111.739245 
L 358.082719 112.557211 
L 358.5905 112.592137 
L 359.09828 113.880972 
L 360.113841 111.109091 
L 360.621622 112.589365 
L 361.129402 111.733563 
L 361.637183 113.046974 
L 362.652744 112.063946 
L 363.160524 113.102638 
L 363.668305 113.871062 
L 364.176085 111.4696 
L 364.683866 112.738711 
L 365.191646 112.258845 
L 366.207207 112.292815 
L 366.714988 111.158473 
L 367.222768 111.349028 
L 367.730549 112.338642 
L 368.238329 112.717996 
L 368.74611 111.755417 
L 369.25389 111.239766 
L 369.761671 111.793511 
L 370.269451 111.784266 
L 370.777232 111.452706 
L 371.285012 112.893837 
L 371.792793 112.668242 
L 373.316134 111.453754 
L 373.823915 111.53153 
L 374.331695 112.383679 
L 375.347256 111.437248 
L 375.855037 112.943052 
L 376.362817 111.405512 
L 376.870598 111.837515 
L 377.378378 112.017792 
L 377.886159 111.733434 
L 378.393939 112.102898 
L 378.90172 112.10722 
L 379.4095 111.318681 
L 379.917281 112.063391 
L 380.425061 111.142757 
L 380.932842 112.404765 
L 381.440622 111.574213 
L 381.948403 112.478895 
L 382.456183 111.744007 
L 382.963964 112.265081 
L 383.471744 112.028031 
L 383.979525 111.659775 
L 384.487305 112.900788 
L 384.995086 112.045837 
L 385.502867 112.593649 
L 386.010647 112.913261 
L 386.518428 112.745076 
L 387.026208 112.380276 
L 387.533989 112.649214 
L 388.041769 113.173076 
L 388.54955 111.894926 
L 389.05733 113.438042 
L 389.565111 112.572084 
L 390.072891 113.215827 
L 390.580672 114.044723 
L 391.088452 113.746996 
L 391.596233 112.929698 
L 392.104013 113.702779 
L 392.611794 113.36616 
L 393.119574 113.253723 
L 393.627355 113.302012 
L 394.135135 113.782941 
L 394.642916 113.345917 
L 395.150696 113.937596 
L 395.658477 113.551003 
L 396.166257 113.693163 
L 396.674038 113.087203 
L 397.181818 113.722263 
L 397.689599 113.880238 
L 398.197379 114.190446 
L 398.70516 114.955916 
L 399.21294 113.822721 
L 399.720721 113.848267 
L 400.228501 114.305538 
L 400.736282 113.875278 
L 401.244062 114.500335 
L 401.751843 114.20042 
L 402.259623 114.210971 
L 402.767404 114.466905 
L 403.782965 114.067975 
L 404.290745 114.419266 
L 405.306306 114.375691 
L 405.814087 114.538338 
L 406.321867 114.965358 
L 406.829648 114.338311 
L 407.337428 114.908281 
L 407.845209 114.982616 
L 408.352989 115.444236 
L 409.876331 114.816369 
L 410.384111 115.149 
L 410.891892 115.125186 
L 411.399672 114.965176 
L 411.907453 115.473352 
L 412.415233 115.428421 
L 412.923014 115.644893 
L 413.430794 115.31197 
L 414.446355 115.847579 
L 414.954136 115.602895 
L 415.461916 115.817309 
L 415.969697 115.512901 
L 416.477477 115.954683 
L 416.985258 115.831042 
L 417.493038 115.30244 
L 418.000819 115.97296 
L 418.5086 116.22701 
L 419.01638 115.929419 
L 419.524161 116.141744 
L 420.031941 115.737079 
L 420.539722 115.947277 
L 421.047502 115.593066 
L 421.555283 116.029922 
L 423.078624 116.164836 
L 423.586405 116.335185 
L 424.094185 115.962667 
L 425.109746 116.248218 
L 425.617527 116.271712 
L 426.125307 116.474124 
L 426.633088 116.413356 
L 427.140868 116.541783 
L 427.648649 116.328546 
L 428.156429 116.381643 
L 428.66421 116.737913 
L 429.17199 116.270246 
L 429.679771 116.328782 
L 430.187551 116.555774 
L 431.710893 116.658534 
L 433.234234 116.642218 
L 434.249795 116.983463 
L 435.265356 116.114558 
L 435.773137 116.616513 
L 436.280917 116.96107 
L 436.788698 116.703222 
L 437.296478 116.712527 
L 437.804259 116.888337 
L 438.81982 116.902869 
L 439.3276 117.006585 
L 439.835381 116.912098 
L 441.358722 117.084977 
L 442.882064 116.807238 
L 443.389844 117.061224 
L 444.913186 116.880453 
L 445.420966 117.048812 
L 448.467649 116.970853 
L 448.97543 117.261349 
L 449.48321 117.090271 
L 450.498771 117.122038 
L 452.529894 117.31064 
L 453.037674 117.08683 
L 454.053235 117.18946 
L 455.068796 117.35374 
L 455.576577 117.236427 
L 456.084357 117.373551 
L 457.099918 117.159896 
L 458.115479 117.31876 
L 461.162162 117.458976 
L 462.685504 117.491578 
L 463.193284 117.407414 
L 463.701065 117.613396 
L 464.208845 117.463321 
L 464.716626 117.513402 
L 465.224406 117.418686 
L 465.732187 117.589195 
L 468.77887 117.544819 
L 469.28665 117.416354 
L 469.794431 117.596275 
L 470.809992 117.479105 
L 471.317772 117.662444 
L 472.333333 117.534899 
L 472.841114 117.665361 
L 473.856675 117.690618 
L 474.364455 117.553722 
L 475.380016 117.682065 
L 478.426699 117.600027 
L 478.93448 117.776651 
L 479.44226 117.658015 
L 481.981163 117.855482 
L 482.488943 117.688012 
L 486.043407 117.746958 
L 487.058968 117.573927 
L 487.566749 117.779302 
L 488.074529 117.718632 
L 488.58231 117.814335 
L 489.09009 117.749252 
L 489.597871 117.875156 
L 491.121212 117.795458 
L 493.152334 117.754926 
L 494.675676 117.86655 
L 495.691237 117.728416 
L 496.199017 117.896851 
L 498.73792 117.876265 
L 499.2457 117.938659 
L 500.261261 117.844894 
L 503.307944 117.855262 
L 503.815725 117.942191 
L 504.831286 117.910197 
L 509.40131 117.942127 
L 510.924652 117.833659 
L 511.432432 117.945701 
L 512.955774 117.960414 
L 526.665848 118.039307 
L 527.173628 118.097592 
L 528.189189 117.99683 
L 529.712531 117.99127 
L 530.728092 118.099886 
L 531.743653 117.981744 
L 532.251433 118.078168 
L 533.266994 118.040067 
L 535.298116 118.133225 
L 535.805897 117.99882 
L 538.85258 118.092077 
L 539.36036 118.018433 
L 540.375921 118.024054 
L 569.827191 118.168805 
L 570.842752 118.239623 
L 571.350532 118.150878 
L 572.366093 118.156643 
L 573.889435 118.143715 
L 574.397215 118.195322 
L 575.412776 118.109836 
L 576.428337 118.195573 
L 578.459459 118.127436 
L 579.982801 118.165257 
L 591.661753 118.186997 
L 593.185094 118.190894 
L 599.27846 118.148675 
L 599.786241 118.260086 
L 600.801802 118.179963 
L 608.418509 118.235111 
L 609.43407 118.193355 
L 611.465192 118.240283 
L 614.511876 118.230788 
L 622.636364 118.255734 
L 622.636364 118.255734 
" style="fill:none;stroke:#ff0000;stroke-linecap:square;stroke-width:1.5;"/>
   </g>
   <g id="patch_8">
    <path d="M 90 630 
L 90 86.4 
" style="fill:none;stroke:#000000;stroke-linecap:square;stroke-linejoin:miter;stroke-width:0.8;"/>
   </g>
   <g id="patch_9">
    <path d="M 648 630 
L 648 86.4 
" style="fill:none;stroke:#000000;stroke-linecap:square;stroke-linejoin:miter;stroke-width:0.8;"/>
   </g>
   <g id="patch_10">
    <path d="M 90 630 
L 648 630 
" style="fill:none;stroke:#000000;stroke-linecap:square;stroke-linejoin:miter;stroke-width:0.8;"/>
   </g>
   <g id="patch_11">
    <path d="M 90 86.4 
L 648 86.4 
" style="fill:none;stroke:#000000;stroke-linecap:square;stroke-linejoin:miter;stroke-width:0.8;"/>
   </g>
   <g id="legend_1">
    <g id="patch_12">
     <path d="M 532.875938 621 
L 635.4 621 
Q 639 621 639 617.4 
L 639 566.35875 
Q 639 562.75875 635.4 562.75875 
L 532.875938 562.75875 
Q 529.275938 562.75875 529.275938 566.35875 
L 529.275938 617.4 
Q 529.275938 621 532.875938 621 
z
" style="fill:#ffffff;opacity:0.8;stroke:#cccccc;stroke-linejoin:miter;"/>
    </g>
    <g id="line2d_15">
     <path d="M 536.475938 577.335938 
L 572.475938 577.335938 
" style="fill:none;stroke:#0000ff;stroke-linecap:square;stroke-width:1.5;"/>
    </g>
    <g id="line2d_16"/>
    <g id="text_15">
     <!-- elbo -->
     <defs>
      <path d="M 9.421875 75.984375 
L 18.40625 75.984375 
L 18.40625 0 
L 9.421875 0 
z
" id="DejaVuSans-108"/>
      <path d="M 48.6875 27.296875 
Q 48.6875 37.203125 44.609375 42.84375 
Q 40.53125 48.484375 33.40625 48.484375 
Q 26.265625 48.484375 22.1875 42.84375 
Q 18.109375 37.203125 18.109375 27.296875 
Q 18.109375 17.390625 22.1875 11.75 
Q 26.265625 6.109375 33.40625 6.109375 
Q 40.53125 6.109375 44.609375 11.75 
Q 48.6875 17.390625 48.6875 27.296875 
z
M 18.109375 46.390625 
Q 20.953125 51.265625 25.265625 53.625 
Q 29.59375 56 35.59375 56 
Q 45.5625 56 51.78125 48.09375 
Q 58.015625 40.1875 58.015625 27.296875 
Q 58.015625 14.40625 51.78125 6.484375 
Q 45.5625 -1.421875 35.59375 -1.421875 
Q 29.59375 -1.421875 25.265625 0.953125 
Q 20.953125 3.328125 18.109375 8.203125 
L 18.109375 0 
L 9.078125 0 
L 9.078125 75.984375 
L 18.109375 75.984375 
z
" id="DejaVuSans-98"/>
     </defs>
     <g transform="translate(586.875938 583.635937)scale(0.18 -0.18)">
      <use xlink:href="#DejaVuSans-101"/>
      <use x="61.523438" xlink:href="#DejaVuSans-108"/>
      <use x="89.306641" xlink:href="#DejaVuSans-98"/>
      <use x="152.783203" xlink:href="#DejaVuSans-111"/>
     </g>
    </g>
    <g id="line2d_17">
     <path d="M 536.475938 603.756563 
L 572.475938 603.756563 
" style="fill:none;stroke:#ff0000;stroke-linecap:square;stroke-width:1.5;"/>
    </g>
    <g id="line2d_18"/>
    <g id="text_16">
     <!-- eubo -->
     <defs>
      <path d="M 8.5 21.578125 
L 8.5 54.6875 
L 17.484375 54.6875 
L 17.484375 21.921875 
Q 17.484375 14.15625 20.5 10.265625 
Q 23.53125 6.390625 29.59375 6.390625 
Q 36.859375 6.390625 41.078125 11.03125 
Q 45.3125 15.671875 45.3125 23.6875 
L 45.3125 54.6875 
L 54.296875 54.6875 
L 54.296875 0 
L 45.3125 0 
L 45.3125 8.40625 
Q 42.046875 3.421875 37.71875 1 
Q 33.40625 -1.421875 27.6875 -1.421875 
Q 18.265625 -1.421875 13.375 4.4375 
Q 8.5 10.296875 8.5 21.578125 
z
M 31.109375 56 
z
" id="DejaVuSans-117"/>
     </defs>
     <g transform="translate(586.875938 610.056563)scale(0.18 -0.18)">
      <use xlink:href="#DejaVuSans-101"/>
      <use x="61.523438" xlink:href="#DejaVuSans-117"/>
      <use x="124.902344" xlink:href="#DejaVuSans-98"/>
      <use x="188.378906" xlink:href="#DejaVuSans-111"/>
     </g>
    </g>
   </g>
  </g>
 </g>
 <defs>
  <clipPath id="pd8c9394d06">
   <rect height="543.6" width="558" x="90" y="86.4"/>
  </clipPath>
 </defs>
</svg>
