<?xml version="1.0" encoding="utf-8" standalone="no"?>
<!DOCTYPE svg PUBLIC "-//W3C//DTD SVG 1.1//EN"
  "http://www.w3.org/Graphics/SVG/1.1/DTD/svg11.dtd">
<!-- Created with matplotlib (https://matplotlib.org/) -->
<svg height="720pt" version="1.1" viewBox="0 0 720 720" width="720pt" xmlns="http://www.w3.org/2000/svg" xmlns:xlink="http://www.w3.org/1999/xlink">
 <defs>
  <style type="text/css">
*{stroke-linecap:butt;stroke-linejoin:round;}
  </style>
 </defs>
 <g id="figure_1">
  <g id="patch_1">
   <path d="M 0 720 
L 720 720 
L 720 0 
L 0 0 
z
" style="fill:#ffffff;"/>
  </g>
  <g id="axes_1">
   <g id="patch_2">
    <path d="M 90 630 
L 648 630 
L 648 86.4 
L 90 86.4 
z
" style="fill:#ffffff;"/>
   </g>
   <g id="matplotlib.axis_1"/>
   <g id="matplotlib.axis_2"/>
   <g id="patch_3">
    <path d="M 90 630 
L 90 86.4 
" style="fill:none;stroke:#000000;stroke-linecap:square;stroke-linejoin:miter;stroke-width:0.8;"/>
   </g>
   <g id="patch_4">
    <path d="M 648 630 
L 648 86.4 
" style="fill:none;stroke:#000000;stroke-linecap:square;stroke-linejoin:miter;stroke-width:0.8;"/>
   </g>
   <g id="patch_5">
    <path d="M 90 630 
L 648 630 
" style="fill:none;stroke:#000000;stroke-linecap:square;stroke-linejoin:miter;stroke-width:0.8;"/>
   </g>
   <g id="patch_6">
    <path d="M 90 86.4 
L 648 86.4 
" style="fill:none;stroke:#000000;stroke-linecap:square;stroke-linejoin:miter;stroke-width:0.8;"/>
   </g>
  </g>
  <g id="axes_2">
   <g id="patch_7">
    <path d="M 90 630 
L 648 630 
L 648 86.4 
L 90 86.4 
z
" style="fill:#ffffff;"/>
   </g>
   <g id="matplotlib.axis_3">
    <g id="xtick_1">
     <g id="line2d_1">
      <defs>
       <path d="M 0 0 
L 0 3.5 
" id="m064256363c" style="stroke:#000000;stroke-width:0.8;"/>
      </defs>
      <g>
       <use style="stroke:#000000;stroke-width:0.8;" x="115.363636" xlink:href="#m064256363c" y="630"/>
      </g>
     </g>
     <g id="text_1">
      <!-- 0 -->
      <defs>
       <path d="M 31.78125 66.40625 
Q 24.171875 66.40625 20.328125 58.90625 
Q 16.5 51.421875 16.5 36.375 
Q 16.5 21.390625 20.328125 13.890625 
Q 24.171875 6.390625 31.78125 6.390625 
Q 39.453125 6.390625 43.28125 13.890625 
Q 47.125 21.390625 47.125 36.375 
Q 47.125 51.421875 43.28125 58.90625 
Q 39.453125 66.40625 31.78125 66.40625 
z
M 31.78125 74.21875 
Q 44.046875 74.21875 50.515625 64.515625 
Q 56.984375 54.828125 56.984375 36.375 
Q 56.984375 17.96875 50.515625 8.265625 
Q 44.046875 -1.421875 31.78125 -1.421875 
Q 19.53125 -1.421875 13.0625 8.265625 
Q 6.59375 17.96875 6.59375 36.375 
Q 6.59375 54.828125 13.0625 64.515625 
Q 19.53125 74.21875 31.78125 74.21875 
z
" id="DejaVuSans-48"/>
      </defs>
      <g transform="translate(109.637386 650.677187)scale(0.18 -0.18)">
       <use xlink:href="#DejaVuSans-48"/>
      </g>
     </g>
    </g>
    <g id="xtick_2">
     <g id="line2d_2">
      <g>
       <use style="stroke:#000000;stroke-width:0.8;" x="216.919738" xlink:href="#m064256363c" y="630"/>
      </g>
     </g>
     <g id="text_2">
      <!-- 200 -->
      <defs>
       <path d="M 19.1875 8.296875 
L 53.609375 8.296875 
L 53.609375 0 
L 7.328125 0 
L 7.328125 8.296875 
Q 12.9375 14.109375 22.625 23.890625 
Q 32.328125 33.6875 34.8125 36.53125 
Q 39.546875 41.84375 41.421875 45.53125 
Q 43.3125 49.21875 43.3125 52.78125 
Q 43.3125 58.59375 39.234375 62.25 
Q 35.15625 65.921875 28.609375 65.921875 
Q 23.96875 65.921875 18.8125 64.3125 
Q 13.671875 62.703125 7.8125 59.421875 
L 7.8125 69.390625 
Q 13.765625 71.78125 18.9375 73 
Q 24.125 74.21875 28.421875 74.21875 
Q 39.75 74.21875 46.484375 68.546875 
Q 53.21875 62.890625 53.21875 53.421875 
Q 53.21875 48.921875 51.53125 44.890625 
Q 49.859375 40.875 45.40625 35.40625 
Q 44.1875 33.984375 37.640625 27.21875 
Q 31.109375 20.453125 19.1875 8.296875 
z
" id="DejaVuSans-50"/>
      </defs>
      <g transform="translate(199.740988 650.677187)scale(0.18 -0.18)">
       <use xlink:href="#DejaVuSans-50"/>
       <use x="63.623047" xlink:href="#DejaVuSans-48"/>
       <use x="127.246094" xlink:href="#DejaVuSans-48"/>
      </g>
     </g>
    </g>
    <g id="xtick_3">
     <g id="line2d_3">
      <g>
       <use style="stroke:#000000;stroke-width:0.8;" x="318.475839" xlink:href="#m064256363c" y="630"/>
      </g>
     </g>
     <g id="text_3">
      <!-- 400 -->
      <defs>
       <path d="M 37.796875 64.3125 
L 12.890625 25.390625 
L 37.796875 25.390625 
z
M 35.203125 72.90625 
L 47.609375 72.90625 
L 47.609375 25.390625 
L 58.015625 25.390625 
L 58.015625 17.1875 
L 47.609375 17.1875 
L 47.609375 0 
L 37.796875 0 
L 37.796875 17.1875 
L 4.890625 17.1875 
L 4.890625 26.703125 
z
" id="DejaVuSans-52"/>
      </defs>
      <g transform="translate(301.297089 650.677187)scale(0.18 -0.18)">
       <use xlink:href="#DejaVuSans-52"/>
       <use x="63.623047" xlink:href="#DejaVuSans-48"/>
       <use x="127.246094" xlink:href="#DejaVuSans-48"/>
      </g>
     </g>
    </g>
    <g id="xtick_4">
     <g id="line2d_4">
      <g>
       <use style="stroke:#000000;stroke-width:0.8;" x="420.031941" xlink:href="#m064256363c" y="630"/>
      </g>
     </g>
     <g id="text_4">
      <!-- 600 -->
      <defs>
       <path d="M 33.015625 40.375 
Q 26.375 40.375 22.484375 35.828125 
Q 18.609375 31.296875 18.609375 23.390625 
Q 18.609375 15.53125 22.484375 10.953125 
Q 26.375 6.390625 33.015625 6.390625 
Q 39.65625 6.390625 43.53125 10.953125 
Q 47.40625 15.53125 47.40625 23.390625 
Q 47.40625 31.296875 43.53125 35.828125 
Q 39.65625 40.375 33.015625 40.375 
z
M 52.59375 71.296875 
L 52.59375 62.3125 
Q 48.875 64.0625 45.09375 64.984375 
Q 41.3125 65.921875 37.59375 65.921875 
Q 27.828125 65.921875 22.671875 59.328125 
Q 17.53125 52.734375 16.796875 39.40625 
Q 19.671875 43.65625 24.015625 45.921875 
Q 28.375 48.1875 33.59375 48.1875 
Q 44.578125 48.1875 50.953125 41.515625 
Q 57.328125 34.859375 57.328125 23.390625 
Q 57.328125 12.15625 50.6875 5.359375 
Q 44.046875 -1.421875 33.015625 -1.421875 
Q 20.359375 -1.421875 13.671875 8.265625 
Q 6.984375 17.96875 6.984375 36.375 
Q 6.984375 53.65625 15.1875 63.9375 
Q 23.390625 74.21875 37.203125 74.21875 
Q 40.921875 74.21875 44.703125 73.484375 
Q 48.484375 72.75 52.59375 71.296875 
z
" id="DejaVuSans-54"/>
      </defs>
      <g transform="translate(402.853191 650.677187)scale(0.18 -0.18)">
       <use xlink:href="#DejaVuSans-54"/>
       <use x="63.623047" xlink:href="#DejaVuSans-48"/>
       <use x="127.246094" xlink:href="#DejaVuSans-48"/>
      </g>
     </g>
    </g>
    <g id="xtick_5">
     <g id="line2d_5">
      <g>
       <use style="stroke:#000000;stroke-width:0.8;" x="521.588043" xlink:href="#m064256363c" y="630"/>
      </g>
     </g>
     <g id="text_5">
      <!-- 800 -->
      <defs>
       <path d="M 31.78125 34.625 
Q 24.75 34.625 20.71875 30.859375 
Q 16.703125 27.09375 16.703125 20.515625 
Q 16.703125 13.921875 20.71875 10.15625 
Q 24.75 6.390625 31.78125 6.390625 
Q 38.8125 6.390625 42.859375 10.171875 
Q 46.921875 13.96875 46.921875 20.515625 
Q 46.921875 27.09375 42.890625 30.859375 
Q 38.875 34.625 31.78125 34.625 
z
M 21.921875 38.8125 
Q 15.578125 40.375 12.03125 44.71875 
Q 8.5 49.078125 8.5 55.328125 
Q 8.5 64.0625 14.71875 69.140625 
Q 20.953125 74.21875 31.78125 74.21875 
Q 42.671875 74.21875 48.875 69.140625 
Q 55.078125 64.0625 55.078125 55.328125 
Q 55.078125 49.078125 51.53125 44.71875 
Q 48 40.375 41.703125 38.8125 
Q 48.828125 37.15625 52.796875 32.3125 
Q 56.78125 27.484375 56.78125 20.515625 
Q 56.78125 9.90625 50.3125 4.234375 
Q 43.84375 -1.421875 31.78125 -1.421875 
Q 19.734375 -1.421875 13.25 4.234375 
Q 6.78125 9.90625 6.78125 20.515625 
Q 6.78125 27.484375 10.78125 32.3125 
Q 14.796875 37.15625 21.921875 38.8125 
z
M 18.3125 54.390625 
Q 18.3125 48.734375 21.84375 45.5625 
Q 25.390625 42.390625 31.78125 42.390625 
Q 38.140625 42.390625 41.71875 45.5625 
Q 45.3125 48.734375 45.3125 54.390625 
Q 45.3125 60.0625 41.71875 63.234375 
Q 38.140625 66.40625 31.78125 66.40625 
Q 25.390625 66.40625 21.84375 63.234375 
Q 18.3125 60.0625 18.3125 54.390625 
z
" id="DejaVuSans-56"/>
      </defs>
      <g transform="translate(504.409293 650.677187)scale(0.18 -0.18)">
       <use xlink:href="#DejaVuSans-56"/>
       <use x="63.623047" xlink:href="#DejaVuSans-48"/>
       <use x="127.246094" xlink:href="#DejaVuSans-48"/>
      </g>
     </g>
    </g>
    <g id="xtick_6">
     <g id="line2d_6">
      <g>
       <use style="stroke:#000000;stroke-width:0.8;" x="623.144144" xlink:href="#m064256363c" y="630"/>
      </g>
     </g>
     <g id="text_6">
      <!-- 1000 -->
      <defs>
       <path d="M 12.40625 8.296875 
L 28.515625 8.296875 
L 28.515625 63.921875 
L 10.984375 60.40625 
L 10.984375 69.390625 
L 28.421875 72.90625 
L 38.28125 72.90625 
L 38.28125 8.296875 
L 54.390625 8.296875 
L 54.390625 0 
L 12.40625 0 
z
" id="DejaVuSans-49"/>
      </defs>
      <g transform="translate(600.239144 650.677187)scale(0.18 -0.18)">
       <use xlink:href="#DejaVuSans-49"/>
       <use x="63.623047" xlink:href="#DejaVuSans-48"/>
       <use x="127.246094" xlink:href="#DejaVuSans-48"/>
       <use x="190.869141" xlink:href="#DejaVuSans-48"/>
      </g>
     </g>
    </g>
    <g id="text_7">
     <!-- epoch -->
     <defs>
      <path d="M 56.203125 29.59375 
L 56.203125 25.203125 
L 14.890625 25.203125 
Q 15.484375 15.921875 20.484375 11.0625 
Q 25.484375 6.203125 34.421875 6.203125 
Q 39.59375 6.203125 44.453125 7.46875 
Q 49.3125 8.734375 54.109375 11.28125 
L 54.109375 2.78125 
Q 49.265625 0.734375 44.1875 -0.34375 
Q 39.109375 -1.421875 33.890625 -1.421875 
Q 20.796875 -1.421875 13.15625 6.1875 
Q 5.515625 13.8125 5.515625 26.8125 
Q 5.515625 40.234375 12.765625 48.109375 
Q 20.015625 56 32.328125 56 
Q 43.359375 56 49.78125 48.890625 
Q 56.203125 41.796875 56.203125 29.59375 
z
M 47.21875 32.234375 
Q 47.125 39.59375 43.09375 43.984375 
Q 39.0625 48.390625 32.421875 48.390625 
Q 24.90625 48.390625 20.390625 44.140625 
Q 15.875 39.890625 15.1875 32.171875 
z
" id="DejaVuSans-101"/>
      <path d="M 18.109375 8.203125 
L 18.109375 -20.796875 
L 9.078125 -20.796875 
L 9.078125 54.6875 
L 18.109375 54.6875 
L 18.109375 46.390625 
Q 20.953125 51.265625 25.265625 53.625 
Q 29.59375 56 35.59375 56 
Q 45.5625 56 51.78125 48.09375 
Q 58.015625 40.1875 58.015625 27.296875 
Q 58.015625 14.40625 51.78125 6.484375 
Q 45.5625 -1.421875 35.59375 -1.421875 
Q 29.59375 -1.421875 25.265625 0.953125 
Q 20.953125 3.328125 18.109375 8.203125 
z
M 48.6875 27.296875 
Q 48.6875 37.203125 44.609375 42.84375 
Q 40.53125 48.484375 33.40625 48.484375 
Q 26.265625 48.484375 22.1875 42.84375 
Q 18.109375 37.203125 18.109375 27.296875 
Q 18.109375 17.390625 22.1875 11.75 
Q 26.265625 6.109375 33.40625 6.109375 
Q 40.53125 6.109375 44.609375 11.75 
Q 48.6875 17.390625 48.6875 27.296875 
z
" id="DejaVuSans-112"/>
      <path d="M 30.609375 48.390625 
Q 23.390625 48.390625 19.1875 42.75 
Q 14.984375 37.109375 14.984375 27.296875 
Q 14.984375 17.484375 19.15625 11.84375 
Q 23.34375 6.203125 30.609375 6.203125 
Q 37.796875 6.203125 41.984375 11.859375 
Q 46.1875 17.53125 46.1875 27.296875 
Q 46.1875 37.015625 41.984375 42.703125 
Q 37.796875 48.390625 30.609375 48.390625 
z
M 30.609375 56 
Q 42.328125 56 49.015625 48.375 
Q 55.71875 40.765625 55.71875 27.296875 
Q 55.71875 13.875 49.015625 6.21875 
Q 42.328125 -1.421875 30.609375 -1.421875 
Q 18.84375 -1.421875 12.171875 6.21875 
Q 5.515625 13.875 5.515625 27.296875 
Q 5.515625 40.765625 12.171875 48.375 
Q 18.84375 56 30.609375 56 
z
" id="DejaVuSans-111"/>
      <path d="M 48.78125 52.59375 
L 48.78125 44.1875 
Q 44.96875 46.296875 41.140625 47.34375 
Q 37.3125 48.390625 33.40625 48.390625 
Q 24.65625 48.390625 19.8125 42.84375 
Q 14.984375 37.3125 14.984375 27.296875 
Q 14.984375 17.28125 19.8125 11.734375 
Q 24.65625 6.203125 33.40625 6.203125 
Q 37.3125 6.203125 41.140625 7.25 
Q 44.96875 8.296875 48.78125 10.40625 
L 48.78125 2.09375 
Q 45.015625 0.34375 40.984375 -0.53125 
Q 36.96875 -1.421875 32.421875 -1.421875 
Q 20.0625 -1.421875 12.78125 6.34375 
Q 5.515625 14.109375 5.515625 27.296875 
Q 5.515625 40.671875 12.859375 48.328125 
Q 20.21875 56 33.015625 56 
Q 37.15625 56 41.109375 55.140625 
Q 45.0625 54.296875 48.78125 52.59375 
z
" id="DejaVuSans-99"/>
      <path d="M 54.890625 33.015625 
L 54.890625 0 
L 45.90625 0 
L 45.90625 32.71875 
Q 45.90625 40.484375 42.875 44.328125 
Q 39.84375 48.1875 33.796875 48.1875 
Q 26.515625 48.1875 22.3125 43.546875 
Q 18.109375 38.921875 18.109375 30.90625 
L 18.109375 0 
L 9.078125 0 
L 9.078125 75.984375 
L 18.109375 75.984375 
L 18.109375 46.1875 
Q 21.34375 51.125 25.703125 53.5625 
Q 30.078125 56 35.796875 56 
Q 45.21875 56 50.046875 50.171875 
Q 54.890625 44.34375 54.890625 33.015625 
z
" id="DejaVuSans-104"/>
     </defs>
     <g transform="translate(344.635 670.578125)scale(0.16 -0.16)">
      <use xlink:href="#DejaVuSans-101"/>
      <use x="61.523438" xlink:href="#DejaVuSans-112"/>
      <use x="125" xlink:href="#DejaVuSans-111"/>
      <use x="186.181641" xlink:href="#DejaVuSans-99"/>
      <use x="241.162109" xlink:href="#DejaVuSans-104"/>
     </g>
    </g>
   </g>
   <g id="matplotlib.axis_4">
    <g id="ytick_1">
     <g id="line2d_7">
      <defs>
       <path d="M 0 0 
L -3.5 0 
" id="m8c9c55abdf" style="stroke:#000000;stroke-width:0.8;"/>
      </defs>
      <g>
       <use style="stroke:#000000;stroke-width:0.8;" x="90" xlink:href="#m8c9c55abdf" y="556.91435"/>
      </g>
     </g>
     <g id="text_8">
      <!-- −55 -->
      <defs>
       <path d="M 10.59375 35.5 
L 73.1875 35.5 
L 73.1875 27.203125 
L 10.59375 27.203125 
z
" id="DejaVuSans-8722"/>
       <path d="M 10.796875 72.90625 
L 49.515625 72.90625 
L 49.515625 64.59375 
L 19.828125 64.59375 
L 19.828125 46.734375 
Q 21.96875 47.46875 24.109375 47.828125 
Q 26.265625 48.1875 28.421875 48.1875 
Q 40.625 48.1875 47.75 41.5 
Q 54.890625 34.8125 54.890625 23.390625 
Q 54.890625 11.625 47.5625 5.09375 
Q 40.234375 -1.421875 26.90625 -1.421875 
Q 22.3125 -1.421875 17.546875 -0.640625 
Q 12.796875 0.140625 7.71875 1.703125 
L 7.71875 11.625 
Q 12.109375 9.234375 16.796875 8.0625 
Q 21.484375 6.890625 26.703125 6.890625 
Q 35.15625 6.890625 40.078125 11.328125 
Q 45.015625 15.765625 45.015625 23.390625 
Q 45.015625 31 40.078125 35.4375 
Q 35.15625 39.890625 26.703125 39.890625 
Q 22.75 39.890625 18.8125 39.015625 
Q 14.890625 38.140625 10.796875 36.28125 
z
" id="DejaVuSans-53"/>
      </defs>
      <g transform="translate(45.011563 563.752943)scale(0.18 -0.18)">
       <use xlink:href="#DejaVuSans-8722"/>
       <use x="83.789062" xlink:href="#DejaVuSans-53"/>
       <use x="147.412109" xlink:href="#DejaVuSans-53"/>
      </g>
     </g>
    </g>
    <g id="ytick_2">
     <g id="line2d_8">
      <g>
       <use style="stroke:#000000;stroke-width:0.8;" x="90" xlink:href="#m8c9c55abdf" y="454.774119"/>
      </g>
     </g>
     <g id="text_9">
      <!-- −50 -->
      <g transform="translate(45.011563 461.612713)scale(0.18 -0.18)">
       <use xlink:href="#DejaVuSans-8722"/>
       <use x="83.789062" xlink:href="#DejaVuSans-53"/>
       <use x="147.412109" xlink:href="#DejaVuSans-48"/>
      </g>
     </g>
    </g>
    <g id="ytick_3">
     <g id="line2d_9">
      <g>
       <use style="stroke:#000000;stroke-width:0.8;" x="90" xlink:href="#m8c9c55abdf" y="352.633889"/>
      </g>
     </g>
     <g id="text_10">
      <!-- −45 -->
      <g transform="translate(45.011563 359.472482)scale(0.18 -0.18)">
       <use xlink:href="#DejaVuSans-8722"/>
       <use x="83.789062" xlink:href="#DejaVuSans-52"/>
       <use x="147.412109" xlink:href="#DejaVuSans-53"/>
      </g>
     </g>
    </g>
    <g id="ytick_4">
     <g id="line2d_10">
      <g>
       <use style="stroke:#000000;stroke-width:0.8;" x="90" xlink:href="#m8c9c55abdf" y="250.493658"/>
      </g>
     </g>
     <g id="text_11">
      <!-- −40 -->
      <g transform="translate(45.011563 257.332252)scale(0.18 -0.18)">
       <use xlink:href="#DejaVuSans-8722"/>
       <use x="83.789062" xlink:href="#DejaVuSans-52"/>
       <use x="147.412109" xlink:href="#DejaVuSans-48"/>
      </g>
     </g>
    </g>
    <g id="ytick_5">
     <g id="line2d_11">
      <g>
       <use style="stroke:#000000;stroke-width:0.8;" x="90" xlink:href="#m8c9c55abdf" y="148.353427"/>
      </g>
     </g>
     <g id="text_12">
      <!-- −35 -->
      <defs>
       <path d="M 40.578125 39.3125 
Q 47.65625 37.796875 51.625 33 
Q 55.609375 28.21875 55.609375 21.1875 
Q 55.609375 10.40625 48.1875 4.484375 
Q 40.765625 -1.421875 27.09375 -1.421875 
Q 22.515625 -1.421875 17.65625 -0.515625 
Q 12.796875 0.390625 7.625 2.203125 
L 7.625 11.71875 
Q 11.71875 9.328125 16.59375 8.109375 
Q 21.484375 6.890625 26.8125 6.890625 
Q 36.078125 6.890625 40.9375 10.546875 
Q 45.796875 14.203125 45.796875 21.1875 
Q 45.796875 27.640625 41.28125 31.265625 
Q 36.765625 34.90625 28.71875 34.90625 
L 20.21875 34.90625 
L 20.21875 43.015625 
L 29.109375 43.015625 
Q 36.375 43.015625 40.234375 45.921875 
Q 44.09375 48.828125 44.09375 54.296875 
Q 44.09375 59.90625 40.109375 62.90625 
Q 36.140625 65.921875 28.71875 65.921875 
Q 24.65625 65.921875 20.015625 65.03125 
Q 15.375 64.15625 9.8125 62.3125 
L 9.8125 71.09375 
Q 15.4375 72.65625 20.34375 73.4375 
Q 25.25 74.21875 29.59375 74.21875 
Q 40.828125 74.21875 47.359375 69.109375 
Q 53.90625 64.015625 53.90625 55.328125 
Q 53.90625 49.265625 50.4375 45.09375 
Q 46.96875 40.921875 40.578125 39.3125 
z
" id="DejaVuSans-51"/>
      </defs>
      <g transform="translate(45.011563 155.192021)scale(0.18 -0.18)">
       <use xlink:href="#DejaVuSans-8722"/>
       <use x="83.789062" xlink:href="#DejaVuSans-51"/>
       <use x="147.412109" xlink:href="#DejaVuSans-53"/>
      </g>
     </g>
    </g>
    <g id="text_13">
     <!-- EUBO and ELBO -->
     <defs>
      <path d="M 9.8125 72.90625 
L 55.90625 72.90625 
L 55.90625 64.59375 
L 19.671875 64.59375 
L 19.671875 43.015625 
L 54.390625 43.015625 
L 54.390625 34.71875 
L 19.671875 34.71875 
L 19.671875 8.296875 
L 56.78125 8.296875 
L 56.78125 0 
L 9.8125 0 
z
" id="DejaVuSans-69"/>
      <path d="M 8.6875 72.90625 
L 18.609375 72.90625 
L 18.609375 28.609375 
Q 18.609375 16.890625 22.84375 11.734375 
Q 27.09375 6.59375 36.625 6.59375 
Q 46.09375 6.59375 50.34375 11.734375 
Q 54.59375 16.890625 54.59375 28.609375 
L 54.59375 72.90625 
L 64.5 72.90625 
L 64.5 27.390625 
Q 64.5 13.140625 57.4375 5.859375 
Q 50.390625 -1.421875 36.625 -1.421875 
Q 22.796875 -1.421875 15.734375 5.859375 
Q 8.6875 13.140625 8.6875 27.390625 
z
" id="DejaVuSans-85"/>
      <path d="M 19.671875 34.8125 
L 19.671875 8.109375 
L 35.5 8.109375 
Q 43.453125 8.109375 47.28125 11.40625 
Q 51.125 14.703125 51.125 21.484375 
Q 51.125 28.328125 47.28125 31.5625 
Q 43.453125 34.8125 35.5 34.8125 
z
M 19.671875 64.796875 
L 19.671875 42.828125 
L 34.28125 42.828125 
Q 41.5 42.828125 45.03125 45.53125 
Q 48.578125 48.25 48.578125 53.8125 
Q 48.578125 59.328125 45.03125 62.0625 
Q 41.5 64.796875 34.28125 64.796875 
z
M 9.8125 72.90625 
L 35.015625 72.90625 
Q 46.296875 72.90625 52.390625 68.21875 
Q 58.5 63.53125 58.5 54.890625 
Q 58.5 48.1875 55.375 44.234375 
Q 52.25 40.28125 46.1875 39.3125 
Q 53.46875 37.75 57.5 32.78125 
Q 61.53125 27.828125 61.53125 20.40625 
Q 61.53125 10.640625 54.890625 5.3125 
Q 48.25 0 35.984375 0 
L 9.8125 0 
z
" id="DejaVuSans-66"/>
      <path d="M 39.40625 66.21875 
Q 28.65625 66.21875 22.328125 58.203125 
Q 16.015625 50.203125 16.015625 36.375 
Q 16.015625 22.609375 22.328125 14.59375 
Q 28.65625 6.59375 39.40625 6.59375 
Q 50.140625 6.59375 56.421875 14.59375 
Q 62.703125 22.609375 62.703125 36.375 
Q 62.703125 50.203125 56.421875 58.203125 
Q 50.140625 66.21875 39.40625 66.21875 
z
M 39.40625 74.21875 
Q 54.734375 74.21875 63.90625 63.9375 
Q 73.09375 53.65625 73.09375 36.375 
Q 73.09375 19.140625 63.90625 8.859375 
Q 54.734375 -1.421875 39.40625 -1.421875 
Q 24.03125 -1.421875 14.8125 8.828125 
Q 5.609375 19.09375 5.609375 36.375 
Q 5.609375 53.65625 14.8125 63.9375 
Q 24.03125 74.21875 39.40625 74.21875 
z
" id="DejaVuSans-79"/>
      <path id="DejaVuSans-32"/>
      <path d="M 34.28125 27.484375 
Q 23.390625 27.484375 19.1875 25 
Q 14.984375 22.515625 14.984375 16.5 
Q 14.984375 11.71875 18.140625 8.90625 
Q 21.296875 6.109375 26.703125 6.109375 
Q 34.1875 6.109375 38.703125 11.40625 
Q 43.21875 16.703125 43.21875 25.484375 
L 43.21875 27.484375 
z
M 52.203125 31.203125 
L 52.203125 0 
L 43.21875 0 
L 43.21875 8.296875 
Q 40.140625 3.328125 35.546875 0.953125 
Q 30.953125 -1.421875 24.3125 -1.421875 
Q 15.921875 -1.421875 10.953125 3.296875 
Q 6 8.015625 6 15.921875 
Q 6 25.140625 12.171875 29.828125 
Q 18.359375 34.515625 30.609375 34.515625 
L 43.21875 34.515625 
L 43.21875 35.40625 
Q 43.21875 41.609375 39.140625 45 
Q 35.0625 48.390625 27.6875 48.390625 
Q 23 48.390625 18.546875 47.265625 
Q 14.109375 46.140625 10.015625 43.890625 
L 10.015625 52.203125 
Q 14.9375 54.109375 19.578125 55.046875 
Q 24.21875 56 28.609375 56 
Q 40.484375 56 46.34375 49.84375 
Q 52.203125 43.703125 52.203125 31.203125 
z
" id="DejaVuSans-97"/>
      <path d="M 54.890625 33.015625 
L 54.890625 0 
L 45.90625 0 
L 45.90625 32.71875 
Q 45.90625 40.484375 42.875 44.328125 
Q 39.84375 48.1875 33.796875 48.1875 
Q 26.515625 48.1875 22.3125 43.546875 
Q 18.109375 38.921875 18.109375 30.90625 
L 18.109375 0 
L 9.078125 0 
L 9.078125 54.6875 
L 18.109375 54.6875 
L 18.109375 46.1875 
Q 21.34375 51.125 25.703125 53.5625 
Q 30.078125 56 35.796875 56 
Q 45.21875 56 50.046875 50.171875 
Q 54.890625 44.34375 54.890625 33.015625 
z
" id="DejaVuSans-110"/>
      <path d="M 45.40625 46.390625 
L 45.40625 75.984375 
L 54.390625 75.984375 
L 54.390625 0 
L 45.40625 0 
L 45.40625 8.203125 
Q 42.578125 3.328125 38.25 0.953125 
Q 33.9375 -1.421875 27.875 -1.421875 
Q 17.96875 -1.421875 11.734375 6.484375 
Q 5.515625 14.40625 5.515625 27.296875 
Q 5.515625 40.1875 11.734375 48.09375 
Q 17.96875 56 27.875 56 
Q 33.9375 56 38.25 53.625 
Q 42.578125 51.265625 45.40625 46.390625 
z
M 14.796875 27.296875 
Q 14.796875 17.390625 18.875 11.75 
Q 22.953125 6.109375 30.078125 6.109375 
Q 37.203125 6.109375 41.296875 11.75 
Q 45.40625 17.390625 45.40625 27.296875 
Q 45.40625 37.203125 41.296875 42.84375 
Q 37.203125 48.484375 30.078125 48.484375 
Q 22.953125 48.484375 18.875 42.84375 
Q 14.796875 37.203125 14.796875 27.296875 
z
" id="DejaVuSans-100"/>
      <path d="M 9.8125 72.90625 
L 19.671875 72.90625 
L 19.671875 8.296875 
L 55.171875 8.296875 
L 55.171875 0 
L 9.8125 0 
z
" id="DejaVuSans-76"/>
     </defs>
     <g transform="translate(37.684063 422.32875)rotate(-90)scale(0.16 -0.16)">
      <use xlink:href="#DejaVuSans-69"/>
      <use x="63.183594" xlink:href="#DejaVuSans-85"/>
      <use x="136.376953" xlink:href="#DejaVuSans-66"/>
      <use x="204.964844" xlink:href="#DejaVuSans-79"/>
      <use x="283.675781" xlink:href="#DejaVuSans-32"/>
      <use x="315.462891" xlink:href="#DejaVuSans-97"/>
      <use x="376.742188" xlink:href="#DejaVuSans-110"/>
      <use x="440.121094" xlink:href="#DejaVuSans-100"/>
      <use x="503.597656" xlink:href="#DejaVuSans-32"/>
      <use x="535.384766" xlink:href="#DejaVuSans-69"/>
      <use x="598.568359" xlink:href="#DejaVuSans-76"/>
      <use x="654.28125" xlink:href="#DejaVuSans-66"/>
      <use x="722.869141" xlink:href="#DejaVuSans-79"/>
     </g>
    </g>
   </g>
   <g id="line2d_12">
    <path clip-path="url(#p3c714e5a7e)" d="M 115.363636 605.290909 
L 117.902539 542.858558 
L 119.933661 495.782948 
L 123.488124 422.128232 
L 126.027027 377.202981 
L 127.550369 354.332241 
L 130.089271 322.700797 
L 131.612613 307.036067 
L 132.628174 298.090552 
L 134.659296 284.302353 
L 136.182637 275.383076 
L 138.72154 265.241891 
L 139.737101 261.965692 
L 140.752662 259.093302 
L 141.260442 257.686801 
L 141.768223 256.855961 
L 142.783784 254.475796 
L 145.322686 249.878317 
L 145.830467 249.340926 
L 147.353808 246.88168 
L 147.861589 246.808382 
L 149.38493 244.448727 
L 150.400491 243.300164 
L 151.416052 241.711953 
L 151.923833 241.799317 
L 152.431613 240.898631 
L 152.939394 240.743993 
L 153.447174 239.888427 
L 153.954955 239.689519 
L 154.462735 239.156787 
L 154.970516 239.076499 
L 155.478296 238.381595 
L 158.52498 235.694998 
L 159.03276 235.043888 
L 159.540541 234.919088 
L 160.556102 234.210749 
L 161.571663 233.217081 
L 162.587224 232.435265 
L 163.095004 232.422547 
L 163.602785 231.907373 
L 164.110565 231.201169 
L 164.618346 231.303448 
L 165.126126 230.544947 
L 165.633907 230.546148 
L 166.141687 230.378831 
L 166.649468 229.666182 
L 167.157248 229.822083 
L 167.665029 229.402603 
L 168.172809 229.168635 
L 168.68059 228.60856 
L 169.18837 228.518149 
L 169.696151 228.604874 
L 170.203931 228.265596 
L 170.711712 227.425919 
L 171.219492 227.218906 
L 171.727273 227.257317 
L 172.235053 226.841351 
L 173.250614 226.824472 
L 173.758395 226.281992 
L 174.266175 226.28779 
L 175.281736 225.735655 
L 175.789517 225.215338 
L 176.297297 225.331363 
L 176.805078 225.160329 
L 177.312858 225.175603 
L 177.820639 224.524805 
L 178.328419 224.684384 
L 179.34398 224.403551 
L 179.851761 224.066479 
L 180.359541 223.461502 
L 180.867322 223.354765 
L 181.882883 223.658376 
L 182.390663 223.577792 
L 182.898444 223.718473 
L 183.406224 223.215432 
L 183.914005 223.209619 
L 184.421785 222.720924 
L 185.437346 222.098725 
L 185.945127 222.275417 
L 186.452907 222.006818 
L 186.960688 222.019061 
L 187.976249 221.741813 
L 188.484029 221.48269 
L 188.99181 221.609337 
L 189.49959 220.790428 
L 190.007371 221.357049 
L 191.022932 220.713288 
L 191.530713 220.955212 
L 192.546274 220.285181 
L 193.054054 220.389034 
L 194.069615 220.337338 
L 194.577396 220.349463 
L 195.085176 219.700847 
L 195.592957 220.007988 
L 196.100737 220.049811 
L 196.608518 219.877203 
L 197.624079 220.067127 
L 198.131859 219.699522 
L 198.63964 220.007777 
L 199.655201 218.977608 
L 200.162981 219.136345 
L 200.670762 219.422072 
L 201.178542 219.284765 
L 201.686323 218.691672 
L 202.194103 218.749641 
L 203.209664 218.412771 
L 203.717445 218.352939 
L 204.225225 218.512136 
L 204.733006 217.985187 
L 205.240786 218.331096 
L 205.748567 218.301367 
L 206.256347 218.884961 
L 206.764128 218.035551 
L 207.779689 217.826692 
L 208.79525 217.783349 
L 209.30303 217.710074 
L 209.810811 217.972789 
L 210.826372 217.543513 
L 211.841933 217.660412 
L 212.349713 217.170758 
L 212.857494 217.0402 
L 213.873055 217.258239 
L 214.380835 216.85955 
L 214.888616 216.747818 
L 215.904177 216.868753 
L 216.411957 216.429028 
L 216.919738 216.541118 
L 217.427518 216.284434 
L 217.935299 216.502435 
L 218.443079 216.065655 
L 218.95086 216.602189 
L 219.45864 216.10553 
L 219.966421 215.906902 
L 220.981982 215.844678 
L 221.489762 215.925605 
L 221.997543 215.608373 
L 222.505324 215.442155 
L 223.013104 215.436739 
L 223.520885 215.274799 
L 224.028665 214.948286 
L 224.536446 215.125039 
L 225.044226 214.989532 
L 225.552007 214.715627 
L 226.059787 215.141365 
L 226.567568 214.545334 
L 227.075348 214.492149 
L 227.583129 214.670118 
L 228.090909 214.065593 
L 229.10647 214.782496 
L 229.614251 214.146021 
L 230.122031 214.014403 
L 231.137592 214.004802 
L 232.660934 213.579836 
L 233.168714 213.313677 
L 233.676495 213.215139 
L 234.184275 213.248242 
L 234.692056 212.949229 
L 235.199836 213.286286 
L 235.707617 212.772834 
L 236.215397 212.553026 
L 236.723178 212.712908 
L 237.230958 212.251013 
L 237.738739 211.96065 
L 238.246519 212.334091 
L 238.7543 211.919668 
L 239.26208 211.889245 
L 239.769861 211.6349 
L 240.277641 211.608693 
L 241.293202 211.408039 
L 241.800983 211.0717 
L 242.308763 211.231886 
L 242.816544 210.946728 
L 243.324324 211.018078 
L 243.832105 210.562666 
L 244.339885 210.725455 
L 244.847666 210.270394 
L 245.355446 210.378891 
L 246.878788 210.158031 
L 247.386568 210.254723 
L 247.894349 209.864076 
L 248.402129 209.312245 
L 248.90991 209.629438 
L 249.41769 209.325469 
L 249.925471 209.44105 
L 250.433251 208.968065 
L 252.464373 208.131014 
L 252.972154 208.435778 
L 253.479934 207.958336 
L 253.987715 207.774741 
L 254.495495 207.822993 
L 255.003276 207.074483 
L 255.511057 207.282836 
L 257.034398 206.812508 
L 257.542179 206.914031 
L 258.049959 206.433917 
L 258.55774 206.337646 
L 259.06552 206.406229 
L 259.573301 205.592852 
L 260.081081 205.755774 
L 260.588862 205.693238 
L 261.096642 205.339286 
L 261.604423 205.135656 
L 262.112203 205.093536 
L 262.619984 204.553784 
L 263.635545 204.508914 
L 264.143325 204.102666 
L 264.651106 203.941825 
L 265.158886 203.42397 
L 265.666667 203.75738 
L 266.682228 203.179841 
L 269.22113 201.740229 
L 269.728911 201.449445 
L 270.236691 201.418539 
L 270.744472 201.210514 
L 271.252252 200.654568 
L 272.775594 199.82916 
L 273.791155 199.584033 
L 274.298935 199.135603 
L 275.314496 198.965388 
L 275.822277 198.240528 
L 276.330057 197.828685 
L 276.837838 197.842665 
L 277.345618 197.391048 
L 277.853399 197.173694 
L 279.37674 195.996392 
L 279.884521 195.45858 
L 280.392301 195.549949 
L 280.900082 195.159123 
L 281.407862 194.939244 
L 281.915643 194.275464 
L 282.423423 194.064196 
L 282.931204 193.539188 
L 283.438984 193.384339 
L 283.946765 192.814468 
L 284.454545 192.720754 
L 285.470106 192.058516 
L 285.977887 191.399232 
L 286.993448 190.639173 
L 287.501229 190.393103 
L 288.009009 189.937395 
L 288.51679 189.777442 
L 290.547912 188.098821 
L 291.055692 187.958872 
L 292.071253 187.133744 
L 292.579034 186.307603 
L 293.086814 186.026428 
L 293.594595 185.384186 
L 294.102375 185.102208 
L 294.610156 184.669605 
L 295.117936 184.43704 
L 295.625717 183.818028 
L 297.149058 182.721193 
L 297.656839 182.005708 
L 298.164619 181.761033 
L 299.18018 180.88512 
L 299.687961 180.492065 
L 301.211302 178.898891 
L 301.719083 178.828975 
L 302.226863 178.025869 
L 302.734644 177.542816 
L 303.242424 177.353618 
L 303.750205 176.62448 
L 304.257985 176.316669 
L 305.273546 175.185678 
L 306.289107 174.461302 
L 306.796888 173.765111 
L 307.304668 173.446492 
L 310.351351 170.422542 
L 310.859132 170.154092 
L 311.874693 169.041336 
L 312.382473 168.761883 
L 313.905815 167.176337 
L 314.413595 166.863399 
L 315.936937 165.358172 
L 317.460278 164.22489 
L 318.475839 163.185565 
L 319.999181 162.145974 
L 320.506962 161.576532 
L 322.030303 160.529336 
L 322.538084 159.883416 
L 323.045864 159.702805 
L 323.553645 159.224054 
L 324.569206 158.622186 
L 325.584767 158.011536 
L 327.108108 156.938741 
L 329.647011 155.323794 
L 330.154791 155.230831 
L 330.662572 154.789598 
L 331.170352 154.557602 
L 331.678133 154.166884 
L 332.185913 154.018184 
L 334.724816 152.647803 
L 335.232596 152.577271 
L 335.740377 152.172067 
L 336.248157 152.084407 
L 338.279279 151.286164 
L 338.78706 150.922495 
L 339.29484 150.803275 
L 339.802621 150.561445 
L 340.310401 150.497093 
L 341.325962 149.982573 
L 342.849304 149.612444 
L 343.357084 149.356587 
L 344.372645 149.112949 
L 346.403767 148.46505 
L 346.911548 148.464177 
L 348.94267 147.894906 
L 349.45045 147.787913 
L 349.958231 147.551381 
L 350.466011 147.515114 
L 350.973792 147.312785 
L 351.989353 147.235785 
L 353.004914 147.054535 
L 353.512695 146.854817 
L 354.528256 146.712787 
L 355.036036 146.578722 
L 355.543817 146.581699 
L 356.559378 146.346228 
L 358.082719 146.113873 
L 359.606061 145.881667 
L 360.113841 145.852366 
L 360.621622 145.657199 
L 362.652744 145.449664 
L 364.176085 145.158787 
L 366.207207 145.018799 
L 367.730549 144.755336 
L 369.25389 144.687275 
L 370.269451 144.576658 
L 370.777232 144.579385 
L 371.792793 144.421217 
L 376.362817 144.003685 
L 376.870598 144.089335 
L 377.886159 143.912597 
L 382.456183 143.630922 
L 383.471744 143.569625 
L 388.041769 143.286618 
L 392.611794 143.058721 
L 393.119574 143.074759 
L 393.627355 142.963658 
L 394.135135 143.054794 
L 395.658477 142.952429 
L 398.197379 142.885568 
L 399.720721 142.790505 
L 401.244062 142.756225 
L 403.275184 142.680566 
L 403.782965 142.73979 
L 405.306306 142.632953 
L 406.321867 142.574289 
L 407.845209 142.539526 
L 413.938575 142.380828 
L 415.969697 142.325983 
L 418.000819 142.30492 
L 419.524161 142.254914 
L 422.570844 142.173169 
L 424.601966 142.145739 
L 429.17199 142.0854 
L 439.3276 141.907462 
L 441.358722 141.900791 
L 444.405405 141.848175 
L 445.928747 141.864945 
L 446.944308 141.804996 
L 449.48321 141.790782 
L 459.638821 141.69462 
L 461.162162 141.685316 
L 463.193284 141.669255 
L 491.121212 141.464401 
L 493.660115 141.458432 
L 500.261261 141.435085 
L 503.307944 141.397111 
L 506.862408 141.411021 
L 508.89353 141.398756 
L 536.821458 141.316208 
L 538.85258 141.308368 
L 543.930385 141.302345 
L 567.796069 141.236824 
L 570.334971 141.238764 
L 585.568387 141.223031 
L 589.630631 141.214716 
L 596.231777 141.219804 
L 602.832924 141.200938 
L 617.558559 141.195031 
L 622.636364 141.173586 
L 622.636364 141.173586 
" style="fill:none;stroke:#0000ff;stroke-linecap:square;stroke-width:1.5;"/>
   </g>
   <g id="line2d_13">
    <path clip-path="url(#p3c714e5a7e)" d="M 115.363636 254.380491 
L 115.871417 247.614052 
L 116.379197 238.622272 
L 117.394758 227.717958 
L 117.902539 219.023788 
L 118.410319 212.951957 
L 119.42588 205.205494 
L 119.933661 197.40788 
L 120.441441 196.280895 
L 120.949222 192.387554 
L 121.457002 184.594008 
L 121.964783 180.801287 
L 122.472563 174.395594 
L 122.980344 173.6036 
L 123.488124 167.424136 
L 123.995905 164.828457 
L 124.503686 157.85481 
L 125.011466 154.514726 
L 125.519247 154.45978 
L 126.027027 148.878787 
L 126.534808 149.265872 
L 127.042588 143.88 
L 127.550369 141.965673 
L 128.058149 138.233259 
L 128.56593 137.028858 
L 129.07371 133.418473 
L 129.581491 132.133203 
L 130.597052 130.773746 
L 131.104832 127.295522 
L 131.612613 126.394174 
L 132.120393 123.11457 
L 132.628174 124.514038 
L 133.135954 124.302961 
L 133.643735 120.648544 
L 134.151515 121.593267 
L 134.659296 119.437647 
L 135.167076 120.518539 
L 135.674857 118.298708 
L 136.182637 118.039263 
L 136.690418 119.079917 
L 137.198198 117.340629 
L 137.705979 116.988221 
L 138.213759 115.507654 
L 139.22932 116.077591 
L 139.737101 115.877584 
L 140.244881 116.809028 
L 140.752662 115.201936 
L 141.260442 114.824941 
L 141.768223 116.864044 
L 142.276003 114.948299 
L 142.783784 114.872812 
L 143.291564 114.258164 
L 143.799345 115.383186 
L 144.307125 114.014335 
L 144.814906 115.298039 
L 145.322686 113.683384 
L 145.830467 112.847412 
L 146.338247 115.419316 
L 146.846028 112.980102 
L 147.861589 114.016622 
L 148.369369 113.627241 
L 148.87715 113.935103 
L 149.38493 114.01737 
L 149.892711 113.159373 
L 150.400491 114.539725 
L 150.908272 115.004411 
L 151.416052 113.879549 
L 151.923833 114.198495 
L 152.431613 114.310348 
L 152.939394 113.292409 
L 153.447174 113.035087 
L 153.954955 113.109686 
L 154.462735 114.571921 
L 154.970516 114.159462 
L 155.478296 112.619893 
L 155.986077 114.821957 
L 157.001638 112.247302 
L 157.509419 112.588002 
L 158.017199 114.225856 
L 158.52498 112.382084 
L 159.03276 114.928374 
L 159.540541 114.301881 
L 160.048321 112.93118 
L 160.556102 112.178227 
L 161.063882 113.440209 
L 161.571663 112.225907 
L 162.079443 112.819316 
L 162.587224 113.774445 
L 163.095004 113.048935 
L 163.602785 114.579086 
L 164.110565 111.528516 
L 164.618346 113.644412 
L 165.126126 111.633371 
L 166.141687 113.922335 
L 166.649468 113.065136 
L 167.157248 112.488582 
L 167.665029 115.027777 
L 168.172809 112.745188 
L 168.68059 111.896008 
L 169.18837 112.527082 
L 169.696151 114.778513 
L 170.203931 115.126097 
L 170.711712 113.742764 
L 171.219492 114.768172 
L 171.727273 112.900885 
L 172.235053 113.83649 
L 172.742834 113.272257 
L 173.250614 113.046585 
L 173.758395 113.241574 
L 174.266175 114.791511 
L 174.773956 112.880091 
L 175.281736 114.04226 
L 175.789517 112.300284 
L 176.297297 112.487573 
L 176.805078 114.241803 
L 177.312858 114.517949 
L 177.820639 114.03294 
L 178.328419 113.187344 
L 178.8362 112.58326 
L 179.34398 114.292234 
L 179.851761 114.657991 
L 180.867322 112.06189 
L 181.375102 112.329187 
L 181.882883 112.340985 
L 182.390663 114.457746 
L 182.898444 114.089339 
L 183.406224 113.368022 
L 183.914005 114.082992 
L 184.421785 113.629108 
L 184.929566 112.153174 
L 185.437346 111.383966 
L 185.945127 114.193726 
L 186.452907 114.008241 
L 186.960688 114.090388 
L 187.468468 113.287297 
L 187.976249 114.716046 
L 188.484029 113.293629 
L 188.99181 113.998247 
L 189.49959 113.144286 
L 190.007371 113.457482 
L 190.515152 114.343833 
L 191.022932 111.87803 
L 191.530713 113.550725 
L 192.038493 112.403845 
L 192.546274 113.134709 
L 193.054054 113.095095 
L 193.561835 113.926874 
L 194.069615 113.865503 
L 194.577396 114.25906 
L 195.085176 112.2036 
L 195.592957 114.337653 
L 196.100737 112.42033 
L 196.608518 113.282213 
L 197.116298 113.712637 
L 197.624079 114.510624 
L 198.131859 113.514805 
L 198.63964 113.677874 
L 199.14742 112.659628 
L 199.655201 113.70207 
L 200.162981 111.820664 
L 200.670762 114.322228 
L 201.178542 114.669968 
L 201.686323 113.689805 
L 202.194103 115.374466 
L 202.701884 111.962351 
L 203.717445 113.826999 
L 204.225225 112.465921 
L 204.733006 114.677371 
L 205.240786 114.983382 
L 205.748567 114.655108 
L 206.256347 115.295269 
L 206.764128 114.069484 
L 207.271908 114.087598 
L 207.779689 112.116439 
L 208.287469 113.959097 
L 208.79525 113.830891 
L 209.30303 113.977643 
L 210.318591 114.608827 
L 210.826372 113.822615 
L 211.334152 112.393812 
L 212.349713 114.878446 
L 212.857494 112.641085 
L 213.365274 114.022209 
L 213.873055 112.411084 
L 214.380835 112.411443 
L 214.888616 111.773709 
L 215.396396 114.658794 
L 215.904177 113.04745 
L 216.411957 114.286654 
L 216.919738 113.003168 
L 217.427518 112.224239 
L 217.935299 114.054557 
L 218.443079 113.52331 
L 218.95086 113.86182 
L 219.45864 113.245026 
L 219.966421 114.185887 
L 220.474201 114.629828 
L 220.981982 113.34561 
L 221.489762 115.150882 
L 221.997543 113.375701 
L 222.505324 112.521627 
L 223.013104 113.301589 
L 223.520885 113.10316 
L 224.028665 112.170061 
L 224.536446 112.404114 
L 225.044226 114.628371 
L 225.552007 113.497949 
L 226.059787 113.395573 
L 226.567568 112.34035 
L 227.075348 111.887786 
L 227.583129 113.416426 
L 228.090909 113.680968 
L 228.59869 111.922249 
L 229.10647 112.836553 
L 229.614251 114.095028 
L 230.122031 113.455627 
L 230.629812 113.822701 
L 231.137592 114.338308 
L 231.645373 111.819702 
L 232.660934 115.865627 
L 233.168714 113.344986 
L 233.676495 112.917496 
L 234.184275 112.729595 
L 234.692056 112.956732 
L 235.199836 114.626127 
L 235.707617 114.059887 
L 236.215397 114.826718 
L 236.723178 113.232632 
L 237.230958 113.152359 
L 237.738739 112.687066 
L 238.246519 113.683508 
L 238.7543 111.564491 
L 239.26208 113.501674 
L 239.769861 111.394268 
L 240.277641 113.424635 
L 240.785422 113.252811 
L 241.293202 112.542582 
L 241.800983 114.622706 
L 242.816544 114.209865 
L 243.324324 113.227313 
L 243.832105 111.843886 
L 244.339885 113.714882 
L 244.847666 111.960862 
L 245.355446 113.181005 
L 245.863227 112.997651 
L 246.371007 112.095937 
L 246.878788 113.952823 
L 247.386568 113.618015 
L 247.894349 113.525714 
L 248.402129 112.266277 
L 248.90991 111.857375 
L 249.41769 112.995496 
L 249.925471 113.167909 
L 250.433251 111.932641 
L 250.941032 113.104161 
L 251.448812 112.701903 
L 251.956593 113.578292 
L 252.464373 112.231915 
L 252.972154 114.744116 
L 253.479934 113.566926 
L 253.987715 113.633055 
L 254.495495 112.593589 
L 255.003276 112.722258 
L 255.511057 112.033408 
L 256.018837 112.615241 
L 256.526618 114.107091 
L 257.542179 111.109091 
L 258.049959 112.747701 
L 258.55774 112.792018 
L 260.081081 113.879923 
L 260.588862 113.610694 
L 261.096642 114.327464 
L 261.604423 112.370745 
L 262.619984 113.921286 
L 263.127764 113.171818 
L 263.635545 114.134198 
L 264.143325 113.050517 
L 264.651106 113.44806 
L 265.158886 112.821003 
L 265.666667 114.171338 
L 266.174447 113.308708 
L 266.682228 114.808421 
L 267.190008 113.102696 
L 267.697789 112.063948 
L 268.205569 113.88717 
L 268.71335 111.778338 
L 269.22113 111.649778 
L 269.728911 112.948986 
L 270.236691 113.705402 
L 270.744472 114.868097 
L 271.252252 112.882896 
L 271.760033 112.677045 
L 272.267813 112.336676 
L 272.775594 112.53694 
L 273.283374 112.347352 
L 273.791155 114.081212 
L 274.298935 112.903679 
L 275.314496 114.324628 
L 275.822277 114.050844 
L 276.330057 114.307624 
L 276.837838 113.776526 
L 277.345618 114.380104 
L 277.853399 112.75005 
L 278.361179 114.140845 
L 278.86896 113.713939 
L 279.37674 113.822912 
L 279.884521 111.45179 
L 280.392301 113.65877 
L 280.900082 113.836058 
L 281.407862 112.847619 
L 281.915643 113.332713 
L 282.423423 114.297026 
L 282.931204 113.557002 
L 283.946765 113.417653 
L 284.454545 114.270675 
L 284.962326 114.550748 
L 285.470106 112.777555 
L 285.977887 114.4688 
L 286.485667 114.174252 
L 286.993448 114.789087 
L 287.501229 112.756242 
L 288.009009 113.909566 
L 288.51679 113.467351 
L 289.02457 114.993263 
L 289.532351 113.62287 
L 290.040131 113.762651 
L 290.547912 114.955605 
L 291.055692 114.134116 
L 291.563473 114.892597 
L 292.071253 114.3123 
L 292.579034 114.347885 
L 293.086814 114.542402 
L 293.594595 115.57436 
L 294.102375 115.753069 
L 294.610156 116.569995 
L 295.117936 114.535615 
L 295.625717 114.983499 
L 296.641278 116.750797 
L 297.149058 115.89458 
L 297.656839 116.052476 
L 298.164619 115.541868 
L 298.6724 116.23387 
L 299.18018 114.763909 
L 299.687961 116.208415 
L 300.195741 116.350978 
L 300.703522 116.003654 
L 301.211302 116.795223 
L 301.719083 115.64698 
L 302.226863 115.440088 
L 302.734644 116.720067 
L 303.242424 117.505378 
L 303.750205 116.907239 
L 304.765766 117.188337 
L 305.273546 116.996536 
L 305.781327 117.666581 
L 306.289107 118.841733 
L 306.796888 118.143342 
L 307.304668 118.001589 
L 307.812449 118.551324 
L 308.320229 118.613973 
L 308.82801 118.378817 
L 309.33579 118.512516 
L 310.351351 119.759376 
L 310.859132 119.947078 
L 311.366912 119.168083 
L 311.874693 119.828801 
L 312.382473 119.39005 
L 312.890254 120.317379 
L 313.398034 120.547863 
L 313.905815 119.122523 
L 314.413595 119.999048 
L 314.921376 121.390852 
L 315.936937 121.915245 
L 316.444717 121.904062 
L 316.952498 121.523616 
L 317.460278 122.421937 
L 317.968059 122.775315 
L 318.475839 122.536664 
L 318.98362 122.835611 
L 319.4914 122.962168 
L 319.999181 123.559742 
L 321.014742 123.712362 
L 321.522523 124.108035 
L 322.030303 124.265358 
L 322.538084 124.650067 
L 323.553645 124.251117 
L 324.061425 125.256041 
L 324.569206 125.841057 
L 325.076986 125.782651 
L 326.092547 126.080207 
L 326.600328 126.727327 
L 327.108108 126.443326 
L 327.615889 127.120662 
L 328.123669 127.431551 
L 328.63145 127.277506 
L 329.13923 127.318589 
L 330.154791 128.395744 
L 331.170352 128.536873 
L 331.678133 128.734378 
L 332.185913 128.515451 
L 332.693694 129.268863 
L 333.201474 128.746461 
L 333.709255 129.802771 
L 334.217035 129.418163 
L 334.724816 129.769496 
L 335.232596 130.351056 
L 335.740377 129.967407 
L 336.248157 130.930005 
L 336.755938 130.942497 
L 337.263718 131.074895 
L 337.771499 130.863861 
L 338.279279 131.395976 
L 338.78706 131.175038 
L 339.29484 131.738597 
L 339.802621 131.284791 
L 340.310401 132.226871 
L 340.818182 131.992428 
L 341.833743 132.335221 
L 342.341523 132.282978 
L 342.849304 132.870909 
L 343.357084 132.763483 
L 343.864865 133.323512 
L 344.372645 132.872604 
L 344.880426 133.20253 
L 345.388206 133.347279 
L 345.895987 133.96605 
L 346.403767 133.422292 
L 346.911548 133.628697 
L 347.419328 133.96566 
L 348.434889 134.2411 
L 349.45045 134.387158 
L 349.958231 134.236393 
L 350.466011 134.628474 
L 350.973792 134.612975 
L 351.989353 134.829502 
L 352.497133 135.108963 
L 353.004914 134.992237 
L 353.512695 135.398485 
L 354.020475 135.50141 
L 354.528256 135.2331 
L 355.036036 135.37594 
L 355.543817 135.692027 
L 356.051597 135.588626 
L 358.082719 136.046524 
L 358.5905 135.985624 
L 359.09828 136.080858 
L 359.606061 136.343098 
L 360.113841 136.432503 
L 360.621622 136.255929 
L 361.129402 136.602103 
L 364.176085 136.820368 
L 365.191646 137.06389 
L 366.207207 137.039849 
L 366.714988 137.071511 
L 367.222768 137.22226 
L 367.730549 137.14777 
L 368.238329 137.307333 
L 369.25389 137.431198 
L 370.777232 137.662999 
L 371.285012 137.592919 
L 372.300573 137.771301 
L 372.808354 137.702492 
L 373.316134 137.875996 
L 374.839476 137.951063 
L 375.347256 137.803197 
L 375.855037 137.984568 
L 376.362817 138.01656 
L 377.378378 138.21416 
L 377.886159 138.161247 
L 380.425061 138.39883 
L 382.963964 138.505653 
L 383.471744 138.687199 
L 383.979525 138.561916 
L 384.995086 138.704935 
L 385.502867 138.667257 
L 386.518428 138.799702 
L 387.026208 138.715026 
L 387.533989 138.857258 
L 390.580672 138.902814 
L 391.088452 139.058411 
L 393.627355 139.004252 
L 394.135135 139.209488 
L 395.150696 139.162046 
L 398.197379 139.332086 
L 399.21294 139.334895 
L 400.228501 139.439979 
L 401.751843 139.436465 
L 402.259623 139.510901 
L 403.275184 139.489658 
L 404.290745 139.597251 
L 404.798526 139.504238 
L 405.814087 139.653312 
L 407.845209 139.621105 
L 408.352989 139.685129 
L 408.86077 139.630222 
L 409.876331 139.684794 
L 411.399672 139.698946 
L 414.954136 139.872239 
L 415.461916 139.812805 
L 416.477477 139.909496 
L 416.985258 139.844046 
L 417.493038 139.950712 
L 419.524161 139.938337 
L 444.913186 140.401129 
L 446.436527 140.347328 
L 448.97543 140.434988 
L 452.022113 140.459699 
L 455.068796 140.473351 
L 457.099918 140.509237 
L 461.162162 140.540859 
L 462.685504 140.517489 
L 464.208845 140.579363 
L 466.747748 140.585137 
L 470.809992 140.631137 
L 473.348894 140.599982 
L 474.364455 140.632112 
L 477.411138 140.65835 
L 478.426699 140.669275 
L 489.09009 140.72553 
L 494.675676 140.765811 
L 497.214578 140.769894 
L 500.261261 140.793545 
L 503.815725 140.794386 
L 517.525799 140.848647 
L 565.764947 140.969558 
L 569.827191 140.986188 
L 577.443898 140.970353 
L 579.47502 141.010135 
L 581.506143 140.988097 
L 588.61507 141.021317 
L 592.677314 141.015067 
L 622.636364 141.031861 
L 622.636364 141.031861 
" style="fill:none;stroke:#ff0000;stroke-linecap:square;stroke-width:1.5;"/>
   </g>
   <g id="patch_8">
    <path d="M 90 630 
L 90 86.4 
" style="fill:none;stroke:#000000;stroke-linecap:square;stroke-linejoin:miter;stroke-width:0.8;"/>
   </g>
   <g id="patch_9">
    <path d="M 648 630 
L 648 86.4 
" style="fill:none;stroke:#000000;stroke-linecap:square;stroke-linejoin:miter;stroke-width:0.8;"/>
   </g>
   <g id="patch_10">
    <path d="M 90 630 
L 648 630 
" style="fill:none;stroke:#000000;stroke-linecap:square;stroke-linejoin:miter;stroke-width:0.8;"/>
   </g>
   <g id="patch_11">
    <path d="M 90 86.4 
L 648 86.4 
" style="fill:none;stroke:#000000;stroke-linecap:square;stroke-linejoin:miter;stroke-width:0.8;"/>
   </g>
   <g id="legend_1">
    <g id="patch_12">
     <path d="M 532.875938 621 
L 635.4 621 
Q 639 621 639 617.4 
L 639 566.35875 
Q 639 562.75875 635.4 562.75875 
L 532.875938 562.75875 
Q 529.275938 562.75875 529.275938 566.35875 
L 529.275938 617.4 
Q 529.275938 621 532.875938 621 
z
" style="fill:#ffffff;opacity:0.8;stroke:#cccccc;stroke-linejoin:miter;"/>
    </g>
    <g id="line2d_14">
     <path d="M 536.475938 577.335938 
L 572.475938 577.335938 
" style="fill:none;stroke:#0000ff;stroke-linecap:square;stroke-width:1.5;"/>
    </g>
    <g id="line2d_15"/>
    <g id="text_14">
     <!-- elbo -->
     <defs>
      <path d="M 9.421875 75.984375 
L 18.40625 75.984375 
L 18.40625 0 
L 9.421875 0 
z
" id="DejaVuSans-108"/>
      <path d="M 48.6875 27.296875 
Q 48.6875 37.203125 44.609375 42.84375 
Q 40.53125 48.484375 33.40625 48.484375 
Q 26.265625 48.484375 22.1875 42.84375 
Q 18.109375 37.203125 18.109375 27.296875 
Q 18.109375 17.390625 22.1875 11.75 
Q 26.265625 6.109375 33.40625 6.109375 
Q 40.53125 6.109375 44.609375 11.75 
Q 48.6875 17.390625 48.6875 27.296875 
z
M 18.109375 46.390625 
Q 20.953125 51.265625 25.265625 53.625 
Q 29.59375 56 35.59375 56 
Q 45.5625 56 51.78125 48.09375 
Q 58.015625 40.1875 58.015625 27.296875 
Q 58.015625 14.40625 51.78125 6.484375 
Q 45.5625 -1.421875 35.59375 -1.421875 
Q 29.59375 -1.421875 25.265625 0.953125 
Q 20.953125 3.328125 18.109375 8.203125 
L 18.109375 0 
L 9.078125 0 
L 9.078125 75.984375 
L 18.109375 75.984375 
z
" id="DejaVuSans-98"/>
     </defs>
     <g transform="translate(586.875938 583.635937)scale(0.18 -0.18)">
      <use xlink:href="#DejaVuSans-101"/>
      <use x="61.523438" xlink:href="#DejaVuSans-108"/>
      <use x="89.306641" xlink:href="#DejaVuSans-98"/>
      <use x="152.783203" xlink:href="#DejaVuSans-111"/>
     </g>
    </g>
    <g id="line2d_16">
     <path d="M 536.475938 603.756563 
L 572.475938 603.756563 
" style="fill:none;stroke:#ff0000;stroke-linecap:square;stroke-width:1.5;"/>
    </g>
    <g id="line2d_17"/>
    <g id="text_15">
     <!-- eubo -->
     <defs>
      <path d="M 8.5 21.578125 
L 8.5 54.6875 
L 17.484375 54.6875 
L 17.484375 21.921875 
Q 17.484375 14.15625 20.5 10.265625 
Q 23.53125 6.390625 29.59375 6.390625 
Q 36.859375 6.390625 41.078125 11.03125 
Q 45.3125 15.671875 45.3125 23.6875 
L 45.3125 54.6875 
L 54.296875 54.6875 
L 54.296875 0 
L 45.3125 0 
L 45.3125 8.40625 
Q 42.046875 3.421875 37.71875 1 
Q 33.40625 -1.421875 27.6875 -1.421875 
Q 18.265625 -1.421875 13.375 4.4375 
Q 8.5 10.296875 8.5 21.578125 
z
M 31.109375 56 
z
" id="DejaVuSans-117"/>
     </defs>
     <g transform="translate(586.875938 610.056563)scale(0.18 -0.18)">
      <use xlink:href="#DejaVuSans-101"/>
      <use x="61.523438" xlink:href="#DejaVuSans-117"/>
      <use x="124.902344" xlink:href="#DejaVuSans-98"/>
      <use x="188.378906" xlink:href="#DejaVuSans-111"/>
     </g>
    </g>
   </g>
  </g>
 </g>
 <defs>
  <clipPath id="p3c714e5a7e">
   <rect height="543.6" width="558" x="90" y="86.4"/>
  </clipPath>
 </defs>
</svg>
