<?xml version="1.0" encoding="utf-8" standalone="no"?>
<!DOCTYPE svg PUBLIC "-//W3C//DTD SVG 1.1//EN"
  "http://www.w3.org/Graphics/SVG/1.1/DTD/svg11.dtd">
<!-- Created with matplotlib (https://matplotlib.org/) -->
<svg height="1152pt" version="1.1" viewBox="0 0 1152 1152" width="1152pt" xmlns="http://www.w3.org/2000/svg" xmlns:xlink="http://www.w3.org/1999/xlink">
 <defs>
  <style type="text/css">
*{stroke-linecap:butt;stroke-linejoin:round;}
  </style>
 </defs>
 <g id="figure_1">
  <g id="patch_1">
   <path d="M 0 1152 
L 1152 1152 
L 1152 0 
L 0 0 
z
" style="fill:#ffffff;"/>
  </g>
  <g id="axes_1">
   <g id="patch_2">
    <path d="M 144 1008 
L 1036.8 1008 
L 1036.8 138.24 
L 144 138.24 
z
" style="fill:#ffffff;"/>
   </g>
   <g id="matplotlib.axis_1"/>
   <g id="matplotlib.axis_2"/>
   <g id="patch_3">
    <path d="M 144 1008 
L 144 138.24 
" style="fill:none;stroke:#000000;stroke-linecap:square;stroke-linejoin:miter;stroke-width:0.8;"/>
   </g>
   <g id="patch_4">
    <path d="M 1036.8 1008 
L 1036.8 138.24 
" style="fill:none;stroke:#000000;stroke-linecap:square;stroke-linejoin:miter;stroke-width:0.8;"/>
   </g>
   <g id="patch_5">
    <path d="M 144 1008 
L 1036.8 1008 
" style="fill:none;stroke:#000000;stroke-linecap:square;stroke-linejoin:miter;stroke-width:0.8;"/>
   </g>
   <g id="patch_6">
    <path d="M 144 138.24 
L 1036.8 138.24 
" style="fill:none;stroke:#000000;stroke-linecap:square;stroke-linejoin:miter;stroke-width:0.8;"/>
   </g>
  </g>
  <g id="axes_2">
   <g id="patch_7">
    <path d="M 144 1008 
L 1036.8 1008 
L 1036.8 138.24 
L 144 138.24 
z
" style="fill:#ffffff;"/>
   </g>
   <g id="matplotlib.axis_3">
    <g id="xtick_1">
     <g id="line2d_1">
      <defs>
       <path d="M 0 0 
L 0 3.5 
" id="m2fc5d64fe4" style="stroke:#000000;stroke-width:0.8;"/>
      </defs>
      <g>
       <use style="stroke:#000000;stroke-width:0.8;" x="184.581818" xlink:href="#m2fc5d64fe4" y="1008"/>
      </g>
     </g>
     <g id="text_1">
      <!-- 0 -->
      <defs>
       <path d="M 31.78125 66.40625 
Q 24.171875 66.40625 20.328125 58.90625 
Q 16.5 51.421875 16.5 36.375 
Q 16.5 21.390625 20.328125 13.890625 
Q 24.171875 6.390625 31.78125 6.390625 
Q 39.453125 6.390625 43.28125 13.890625 
Q 47.125 21.390625 47.125 36.375 
Q 47.125 51.421875 43.28125 58.90625 
Q 39.453125 66.40625 31.78125 66.40625 
z
M 31.78125 74.21875 
Q 44.046875 74.21875 50.515625 64.515625 
Q 56.984375 54.828125 56.984375 36.375 
Q 56.984375 17.96875 50.515625 8.265625 
Q 44.046875 -1.421875 31.78125 -1.421875 
Q 19.53125 -1.421875 13.0625 8.265625 
Q 6.59375 17.96875 6.59375 36.375 
Q 6.59375 54.828125 13.0625 64.515625 
Q 19.53125 74.21875 31.78125 74.21875 
z
" id="DejaVuSans-48"/>
      </defs>
      <g transform="translate(181.400568 1022.598438)scale(0.1 -0.1)">
       <use xlink:href="#DejaVuSans-48"/>
      </g>
     </g>
    </g>
    <g id="xtick_2">
     <g id="line2d_2">
      <g>
       <use style="stroke:#000000;stroke-width:0.8;" x="304.292196" xlink:href="#m2fc5d64fe4" y="1008"/>
      </g>
     </g>
     <g id="text_2">
      <!-- 250 -->
      <defs>
       <path d="M 19.1875 8.296875 
L 53.609375 8.296875 
L 53.609375 0 
L 7.328125 0 
L 7.328125 8.296875 
Q 12.9375 14.109375 22.625 23.890625 
Q 32.328125 33.6875 34.8125 36.53125 
Q 39.546875 41.84375 41.421875 45.53125 
Q 43.3125 49.21875 43.3125 52.78125 
Q 43.3125 58.59375 39.234375 62.25 
Q 35.15625 65.921875 28.609375 65.921875 
Q 23.96875 65.921875 18.8125 64.3125 
Q 13.671875 62.703125 7.8125 59.421875 
L 7.8125 69.390625 
Q 13.765625 71.78125 18.9375 73 
Q 24.125 74.21875 28.421875 74.21875 
Q 39.75 74.21875 46.484375 68.546875 
Q 53.21875 62.890625 53.21875 53.421875 
Q 53.21875 48.921875 51.53125 44.890625 
Q 49.859375 40.875 45.40625 35.40625 
Q 44.1875 33.984375 37.640625 27.21875 
Q 31.109375 20.453125 19.1875 8.296875 
z
" id="DejaVuSans-50"/>
       <path d="M 10.796875 72.90625 
L 49.515625 72.90625 
L 49.515625 64.59375 
L 19.828125 64.59375 
L 19.828125 46.734375 
Q 21.96875 47.46875 24.109375 47.828125 
Q 26.265625 48.1875 28.421875 48.1875 
Q 40.625 48.1875 47.75 41.5 
Q 54.890625 34.8125 54.890625 23.390625 
Q 54.890625 11.625 47.5625 5.09375 
Q 40.234375 -1.421875 26.90625 -1.421875 
Q 22.3125 -1.421875 17.546875 -0.640625 
Q 12.796875 0.140625 7.71875 1.703125 
L 7.71875 11.625 
Q 12.109375 9.234375 16.796875 8.0625 
Q 21.484375 6.890625 26.703125 6.890625 
Q 35.15625 6.890625 40.078125 11.328125 
Q 45.015625 15.765625 45.015625 23.390625 
Q 45.015625 31 40.078125 35.4375 
Q 35.15625 39.890625 26.703125 39.890625 
Q 22.75 39.890625 18.8125 39.015625 
Q 14.890625 38.140625 10.796875 36.28125 
z
" id="DejaVuSans-53"/>
      </defs>
      <g transform="translate(294.748446 1022.598438)scale(0.1 -0.1)">
       <use xlink:href="#DejaVuSans-50"/>
       <use x="63.623047" xlink:href="#DejaVuSans-53"/>
       <use x="127.246094" xlink:href="#DejaVuSans-48"/>
      </g>
     </g>
    </g>
    <g id="xtick_3">
     <g id="line2d_3">
      <g>
       <use style="stroke:#000000;stroke-width:0.8;" x="424.002574" xlink:href="#m2fc5d64fe4" y="1008"/>
      </g>
     </g>
     <g id="text_3">
      <!-- 500 -->
      <g transform="translate(414.458824 1022.598438)scale(0.1 -0.1)">
       <use xlink:href="#DejaVuSans-53"/>
       <use x="63.623047" xlink:href="#DejaVuSans-48"/>
       <use x="127.246094" xlink:href="#DejaVuSans-48"/>
      </g>
     </g>
    </g>
    <g id="xtick_4">
     <g id="line2d_4">
      <g>
       <use style="stroke:#000000;stroke-width:0.8;" x="543.712953" xlink:href="#m2fc5d64fe4" y="1008"/>
      </g>
     </g>
     <g id="text_4">
      <!-- 750 -->
      <defs>
       <path d="M 8.203125 72.90625 
L 55.078125 72.90625 
L 55.078125 68.703125 
L 28.609375 0 
L 18.3125 0 
L 43.21875 64.59375 
L 8.203125 64.59375 
z
" id="DejaVuSans-55"/>
      </defs>
      <g transform="translate(534.169203 1022.598438)scale(0.1 -0.1)">
       <use xlink:href="#DejaVuSans-55"/>
       <use x="63.623047" xlink:href="#DejaVuSans-53"/>
       <use x="127.246094" xlink:href="#DejaVuSans-48"/>
      </g>
     </g>
    </g>
    <g id="xtick_5">
     <g id="line2d_5">
      <g>
       <use style="stroke:#000000;stroke-width:0.8;" x="663.423331" xlink:href="#m2fc5d64fe4" y="1008"/>
      </g>
     </g>
     <g id="text_5">
      <!-- 1000 -->
      <defs>
       <path d="M 12.40625 8.296875 
L 28.515625 8.296875 
L 28.515625 63.921875 
L 10.984375 60.40625 
L 10.984375 69.390625 
L 28.421875 72.90625 
L 38.28125 72.90625 
L 38.28125 8.296875 
L 54.390625 8.296875 
L 54.390625 0 
L 12.40625 0 
z
" id="DejaVuSans-49"/>
      </defs>
      <g transform="translate(650.698331 1022.598438)scale(0.1 -0.1)">
       <use xlink:href="#DejaVuSans-49"/>
       <use x="63.623047" xlink:href="#DejaVuSans-48"/>
       <use x="127.246094" xlink:href="#DejaVuSans-48"/>
       <use x="190.869141" xlink:href="#DejaVuSans-48"/>
      </g>
     </g>
    </g>
    <g id="xtick_6">
     <g id="line2d_6">
      <g>
       <use style="stroke:#000000;stroke-width:0.8;" x="783.133709" xlink:href="#m2fc5d64fe4" y="1008"/>
      </g>
     </g>
     <g id="text_6">
      <!-- 1250 -->
      <g transform="translate(770.408709 1022.598438)scale(0.1 -0.1)">
       <use xlink:href="#DejaVuSans-49"/>
       <use x="63.623047" xlink:href="#DejaVuSans-50"/>
       <use x="127.246094" xlink:href="#DejaVuSans-53"/>
       <use x="190.869141" xlink:href="#DejaVuSans-48"/>
      </g>
     </g>
    </g>
    <g id="xtick_7">
     <g id="line2d_7">
      <g>
       <use style="stroke:#000000;stroke-width:0.8;" x="902.844087" xlink:href="#m2fc5d64fe4" y="1008"/>
      </g>
     </g>
     <g id="text_7">
      <!-- 1500 -->
      <g transform="translate(890.119087 1022.598438)scale(0.1 -0.1)">
       <use xlink:href="#DejaVuSans-49"/>
       <use x="63.623047" xlink:href="#DejaVuSans-53"/>
       <use x="127.246094" xlink:href="#DejaVuSans-48"/>
       <use x="190.869141" xlink:href="#DejaVuSans-48"/>
      </g>
     </g>
    </g>
    <g id="xtick_8">
     <g id="line2d_8">
      <g>
       <use style="stroke:#000000;stroke-width:0.8;" x="1022.554465" xlink:href="#m2fc5d64fe4" y="1008"/>
      </g>
     </g>
     <g id="text_8">
      <!-- 1750 -->
      <g transform="translate(1009.829465 1022.598438)scale(0.1 -0.1)">
       <use xlink:href="#DejaVuSans-49"/>
       <use x="63.623047" xlink:href="#DejaVuSans-55"/>
       <use x="127.246094" xlink:href="#DejaVuSans-53"/>
       <use x="190.869141" xlink:href="#DejaVuSans-48"/>
      </g>
     </g>
    </g>
    <g id="text_9">
     <!-- epoch -->
     <defs>
      <path d="M 56.203125 29.59375 
L 56.203125 25.203125 
L 14.890625 25.203125 
Q 15.484375 15.921875 20.484375 11.0625 
Q 25.484375 6.203125 34.421875 6.203125 
Q 39.59375 6.203125 44.453125 7.46875 
Q 49.3125 8.734375 54.109375 11.28125 
L 54.109375 2.78125 
Q 49.265625 0.734375 44.1875 -0.34375 
Q 39.109375 -1.421875 33.890625 -1.421875 
Q 20.796875 -1.421875 13.15625 6.1875 
Q 5.515625 13.8125 5.515625 26.8125 
Q 5.515625 40.234375 12.765625 48.109375 
Q 20.015625 56 32.328125 56 
Q 43.359375 56 49.78125 48.890625 
Q 56.203125 41.796875 56.203125 29.59375 
z
M 47.21875 32.234375 
Q 47.125 39.59375 43.09375 43.984375 
Q 39.0625 48.390625 32.421875 48.390625 
Q 24.90625 48.390625 20.390625 44.140625 
Q 15.875 39.890625 15.1875 32.171875 
z
" id="DejaVuSans-101"/>
      <path d="M 18.109375 8.203125 
L 18.109375 -20.796875 
L 9.078125 -20.796875 
L 9.078125 54.6875 
L 18.109375 54.6875 
L 18.109375 46.390625 
Q 20.953125 51.265625 25.265625 53.625 
Q 29.59375 56 35.59375 56 
Q 45.5625 56 51.78125 48.09375 
Q 58.015625 40.1875 58.015625 27.296875 
Q 58.015625 14.40625 51.78125 6.484375 
Q 45.5625 -1.421875 35.59375 -1.421875 
Q 29.59375 -1.421875 25.265625 0.953125 
Q 20.953125 3.328125 18.109375 8.203125 
z
M 48.6875 27.296875 
Q 48.6875 37.203125 44.609375 42.84375 
Q 40.53125 48.484375 33.40625 48.484375 
Q 26.265625 48.484375 22.1875 42.84375 
Q 18.109375 37.203125 18.109375 27.296875 
Q 18.109375 17.390625 22.1875 11.75 
Q 26.265625 6.109375 33.40625 6.109375 
Q 40.53125 6.109375 44.609375 11.75 
Q 48.6875 17.390625 48.6875 27.296875 
z
" id="DejaVuSans-112"/>
      <path d="M 30.609375 48.390625 
Q 23.390625 48.390625 19.1875 42.75 
Q 14.984375 37.109375 14.984375 27.296875 
Q 14.984375 17.484375 19.15625 11.84375 
Q 23.34375 6.203125 30.609375 6.203125 
Q 37.796875 6.203125 41.984375 11.859375 
Q 46.1875 17.53125 46.1875 27.296875 
Q 46.1875 37.015625 41.984375 42.703125 
Q 37.796875 48.390625 30.609375 48.390625 
z
M 30.609375 56 
Q 42.328125 56 49.015625 48.375 
Q 55.71875 40.765625 55.71875 27.296875 
Q 55.71875 13.875 49.015625 6.21875 
Q 42.328125 -1.421875 30.609375 -1.421875 
Q 18.84375 -1.421875 12.171875 6.21875 
Q 5.515625 13.875 5.515625 27.296875 
Q 5.515625 40.765625 12.171875 48.375 
Q 18.84375 56 30.609375 56 
z
" id="DejaVuSans-111"/>
      <path d="M 48.78125 52.59375 
L 48.78125 44.1875 
Q 44.96875 46.296875 41.140625 47.34375 
Q 37.3125 48.390625 33.40625 48.390625 
Q 24.65625 48.390625 19.8125 42.84375 
Q 14.984375 37.3125 14.984375 27.296875 
Q 14.984375 17.28125 19.8125 11.734375 
Q 24.65625 6.203125 33.40625 6.203125 
Q 37.3125 6.203125 41.140625 7.25 
Q 44.96875 8.296875 48.78125 10.40625 
L 48.78125 2.09375 
Q 45.015625 0.34375 40.984375 -0.53125 
Q 36.96875 -1.421875 32.421875 -1.421875 
Q 20.0625 -1.421875 12.78125 6.34375 
Q 5.515625 14.109375 5.515625 27.296875 
Q 5.515625 40.671875 12.859375 48.328125 
Q 20.21875 56 33.015625 56 
Q 37.15625 56 41.109375 55.140625 
Q 45.0625 54.296875 48.78125 52.59375 
z
" id="DejaVuSans-99"/>
      <path d="M 54.890625 33.015625 
L 54.890625 0 
L 45.90625 0 
L 45.90625 32.71875 
Q 45.90625 40.484375 42.875 44.328125 
Q 39.84375 48.1875 33.796875 48.1875 
Q 26.515625 48.1875 22.3125 43.546875 
Q 18.109375 38.921875 18.109375 30.90625 
L 18.109375 0 
L 9.078125 0 
L 9.078125 75.984375 
L 18.109375 75.984375 
L 18.109375 46.1875 
Q 21.34375 51.125 25.703125 53.5625 
Q 30.078125 56 35.796875 56 
Q 45.21875 56 50.046875 50.171875 
Q 54.890625 44.34375 54.890625 33.015625 
z
" id="DejaVuSans-104"/>
     </defs>
     <g transform="translate(562.989375 1042.355313)scale(0.18 -0.18)">
      <use xlink:href="#DejaVuSans-101"/>
      <use x="61.523438" xlink:href="#DejaVuSans-112"/>
      <use x="125" xlink:href="#DejaVuSans-111"/>
      <use x="186.181641" xlink:href="#DejaVuSans-99"/>
      <use x="241.162109" xlink:href="#DejaVuSans-104"/>
     </g>
    </g>
   </g>
   <g id="matplotlib.axis_4">
    <g id="ytick_1">
     <g id="line2d_9">
      <defs>
       <path d="M 0 0 
L -3.5 0 
" id="m92f5f11517" style="stroke:#000000;stroke-width:0.8;"/>
      </defs>
      <g>
       <use style="stroke:#000000;stroke-width:0.8;" x="144" xlink:href="#m92f5f11517" y="999.883838"/>
      </g>
     </g>
     <g id="text_10">
      <!-- −60 -->
      <defs>
       <path d="M 10.59375 35.5 
L 73.1875 35.5 
L 73.1875 27.203125 
L 10.59375 27.203125 
z
" id="DejaVuSans-8722"/>
       <path d="M 33.015625 40.375 
Q 26.375 40.375 22.484375 35.828125 
Q 18.609375 31.296875 18.609375 23.390625 
Q 18.609375 15.53125 22.484375 10.953125 
Q 26.375 6.390625 33.015625 6.390625 
Q 39.65625 6.390625 43.53125 10.953125 
Q 47.40625 15.53125 47.40625 23.390625 
Q 47.40625 31.296875 43.53125 35.828125 
Q 39.65625 40.375 33.015625 40.375 
z
M 52.59375 71.296875 
L 52.59375 62.3125 
Q 48.875 64.0625 45.09375 64.984375 
Q 41.3125 65.921875 37.59375 65.921875 
Q 27.828125 65.921875 22.671875 59.328125 
Q 17.53125 52.734375 16.796875 39.40625 
Q 19.671875 43.65625 24.015625 45.921875 
Q 28.375 48.1875 33.59375 48.1875 
Q 44.578125 48.1875 50.953125 41.515625 
Q 57.328125 34.859375 57.328125 23.390625 
Q 57.328125 12.15625 50.6875 5.359375 
Q 44.046875 -1.421875 33.015625 -1.421875 
Q 20.359375 -1.421875 13.671875 8.265625 
Q 6.984375 17.96875 6.984375 36.375 
Q 6.984375 53.65625 15.1875 63.9375 
Q 23.390625 74.21875 37.203125 74.21875 
Q 40.921875 74.21875 44.703125 73.484375 
Q 48.484375 72.75 52.59375 71.296875 
z
" id="DejaVuSans-54"/>
      </defs>
      <g transform="translate(115.895313 1003.683057)scale(0.1 -0.1)">
       <use xlink:href="#DejaVuSans-8722"/>
       <use x="83.789062" xlink:href="#DejaVuSans-54"/>
       <use x="147.412109" xlink:href="#DejaVuSans-48"/>
      </g>
     </g>
    </g>
    <g id="ytick_2">
     <g id="line2d_10">
      <g>
       <use style="stroke:#000000;stroke-width:0.8;" x="144" xlink:href="#m92f5f11517" y="843.85253"/>
      </g>
     </g>
     <g id="text_11">
      <!-- −55 -->
      <g transform="translate(115.895313 847.651749)scale(0.1 -0.1)">
       <use xlink:href="#DejaVuSans-8722"/>
       <use x="83.789062" xlink:href="#DejaVuSans-53"/>
       <use x="147.412109" xlink:href="#DejaVuSans-53"/>
      </g>
     </g>
    </g>
    <g id="ytick_3">
     <g id="line2d_11">
      <g>
       <use style="stroke:#000000;stroke-width:0.8;" x="144" xlink:href="#m92f5f11517" y="687.821222"/>
      </g>
     </g>
     <g id="text_12">
      <!-- −50 -->
      <g transform="translate(115.895313 691.620441)scale(0.1 -0.1)">
       <use xlink:href="#DejaVuSans-8722"/>
       <use x="83.789062" xlink:href="#DejaVuSans-53"/>
       <use x="147.412109" xlink:href="#DejaVuSans-48"/>
      </g>
     </g>
    </g>
    <g id="ytick_4">
     <g id="line2d_12">
      <g>
       <use style="stroke:#000000;stroke-width:0.8;" x="144" xlink:href="#m92f5f11517" y="531.789914"/>
      </g>
     </g>
     <g id="text_13">
      <!-- −45 -->
      <defs>
       <path d="M 37.796875 64.3125 
L 12.890625 25.390625 
L 37.796875 25.390625 
z
M 35.203125 72.90625 
L 47.609375 72.90625 
L 47.609375 25.390625 
L 58.015625 25.390625 
L 58.015625 17.1875 
L 47.609375 17.1875 
L 47.609375 0 
L 37.796875 0 
L 37.796875 17.1875 
L 4.890625 17.1875 
L 4.890625 26.703125 
z
" id="DejaVuSans-52"/>
      </defs>
      <g transform="translate(115.895313 535.589133)scale(0.1 -0.1)">
       <use xlink:href="#DejaVuSans-8722"/>
       <use x="83.789062" xlink:href="#DejaVuSans-52"/>
       <use x="147.412109" xlink:href="#DejaVuSans-53"/>
      </g>
     </g>
    </g>
    <g id="ytick_5">
     <g id="line2d_13">
      <g>
       <use style="stroke:#000000;stroke-width:0.8;" x="144" xlink:href="#m92f5f11517" y="375.758606"/>
      </g>
     </g>
     <g id="text_14">
      <!-- −40 -->
      <g transform="translate(115.895313 379.557825)scale(0.1 -0.1)">
       <use xlink:href="#DejaVuSans-8722"/>
       <use x="83.789062" xlink:href="#DejaVuSans-52"/>
       <use x="147.412109" xlink:href="#DejaVuSans-48"/>
      </g>
     </g>
    </g>
    <g id="ytick_6">
     <g id="line2d_14">
      <g>
       <use style="stroke:#000000;stroke-width:0.8;" x="144" xlink:href="#m92f5f11517" y="219.727298"/>
      </g>
     </g>
     <g id="text_15">
      <!-- −35 -->
      <defs>
       <path d="M 40.578125 39.3125 
Q 47.65625 37.796875 51.625 33 
Q 55.609375 28.21875 55.609375 21.1875 
Q 55.609375 10.40625 48.1875 4.484375 
Q 40.765625 -1.421875 27.09375 -1.421875 
Q 22.515625 -1.421875 17.65625 -0.515625 
Q 12.796875 0.390625 7.625 2.203125 
L 7.625 11.71875 
Q 11.71875 9.328125 16.59375 8.109375 
Q 21.484375 6.890625 26.8125 6.890625 
Q 36.078125 6.890625 40.9375 10.546875 
Q 45.796875 14.203125 45.796875 21.1875 
Q 45.796875 27.640625 41.28125 31.265625 
Q 36.765625 34.90625 28.71875 34.90625 
L 20.21875 34.90625 
L 20.21875 43.015625 
L 29.109375 43.015625 
Q 36.375 43.015625 40.234375 45.921875 
Q 44.09375 48.828125 44.09375 54.296875 
Q 44.09375 59.90625 40.109375 62.90625 
Q 36.140625 65.921875 28.71875 65.921875 
Q 24.65625 65.921875 20.015625 65.03125 
Q 15.375 64.15625 9.8125 62.3125 
L 9.8125 71.09375 
Q 15.4375 72.65625 20.34375 73.4375 
Q 25.25 74.21875 29.59375 74.21875 
Q 40.828125 74.21875 47.359375 69.109375 
Q 53.90625 64.015625 53.90625 55.328125 
Q 53.90625 49.265625 50.4375 45.09375 
Q 46.96875 40.921875 40.578125 39.3125 
z
" id="DejaVuSans-51"/>
      </defs>
      <g transform="translate(115.895313 223.526517)scale(0.1 -0.1)">
       <use xlink:href="#DejaVuSans-8722"/>
       <use x="83.789062" xlink:href="#DejaVuSans-51"/>
       <use x="147.412109" xlink:href="#DejaVuSans-53"/>
      </g>
     </g>
    </g>
    <g id="text_16">
     <!-- EUBO and ELBO -->
     <defs>
      <path d="M 9.8125 72.90625 
L 55.90625 72.90625 
L 55.90625 64.59375 
L 19.671875 64.59375 
L 19.671875 43.015625 
L 54.390625 43.015625 
L 54.390625 34.71875 
L 19.671875 34.71875 
L 19.671875 8.296875 
L 56.78125 8.296875 
L 56.78125 0 
L 9.8125 0 
z
" id="DejaVuSans-69"/>
      <path d="M 8.6875 72.90625 
L 18.609375 72.90625 
L 18.609375 28.609375 
Q 18.609375 16.890625 22.84375 11.734375 
Q 27.09375 6.59375 36.625 6.59375 
Q 46.09375 6.59375 50.34375 11.734375 
Q 54.59375 16.890625 54.59375 28.609375 
L 54.59375 72.90625 
L 64.5 72.90625 
L 64.5 27.390625 
Q 64.5 13.140625 57.4375 5.859375 
Q 50.390625 -1.421875 36.625 -1.421875 
Q 22.796875 -1.421875 15.734375 5.859375 
Q 8.6875 13.140625 8.6875 27.390625 
z
" id="DejaVuSans-85"/>
      <path d="M 19.671875 34.8125 
L 19.671875 8.109375 
L 35.5 8.109375 
Q 43.453125 8.109375 47.28125 11.40625 
Q 51.125 14.703125 51.125 21.484375 
Q 51.125 28.328125 47.28125 31.5625 
Q 43.453125 34.8125 35.5 34.8125 
z
M 19.671875 64.796875 
L 19.671875 42.828125 
L 34.28125 42.828125 
Q 41.5 42.828125 45.03125 45.53125 
Q 48.578125 48.25 48.578125 53.8125 
Q 48.578125 59.328125 45.03125 62.0625 
Q 41.5 64.796875 34.28125 64.796875 
z
M 9.8125 72.90625 
L 35.015625 72.90625 
Q 46.296875 72.90625 52.390625 68.21875 
Q 58.5 63.53125 58.5 54.890625 
Q 58.5 48.1875 55.375 44.234375 
Q 52.25 40.28125 46.1875 39.3125 
Q 53.46875 37.75 57.5 32.78125 
Q 61.53125 27.828125 61.53125 20.40625 
Q 61.53125 10.640625 54.890625 5.3125 
Q 48.25 0 35.984375 0 
L 9.8125 0 
z
" id="DejaVuSans-66"/>
      <path d="M 39.40625 66.21875 
Q 28.65625 66.21875 22.328125 58.203125 
Q 16.015625 50.203125 16.015625 36.375 
Q 16.015625 22.609375 22.328125 14.59375 
Q 28.65625 6.59375 39.40625 6.59375 
Q 50.140625 6.59375 56.421875 14.59375 
Q 62.703125 22.609375 62.703125 36.375 
Q 62.703125 50.203125 56.421875 58.203125 
Q 50.140625 66.21875 39.40625 66.21875 
z
M 39.40625 74.21875 
Q 54.734375 74.21875 63.90625 63.9375 
Q 73.09375 53.65625 73.09375 36.375 
Q 73.09375 19.140625 63.90625 8.859375 
Q 54.734375 -1.421875 39.40625 -1.421875 
Q 24.03125 -1.421875 14.8125 8.828125 
Q 5.609375 19.09375 5.609375 36.375 
Q 5.609375 53.65625 14.8125 63.9375 
Q 24.03125 74.21875 39.40625 74.21875 
z
" id="DejaVuSans-79"/>
      <path id="DejaVuSans-32"/>
      <path d="M 34.28125 27.484375 
Q 23.390625 27.484375 19.1875 25 
Q 14.984375 22.515625 14.984375 16.5 
Q 14.984375 11.71875 18.140625 8.90625 
Q 21.296875 6.109375 26.703125 6.109375 
Q 34.1875 6.109375 38.703125 11.40625 
Q 43.21875 16.703125 43.21875 25.484375 
L 43.21875 27.484375 
z
M 52.203125 31.203125 
L 52.203125 0 
L 43.21875 0 
L 43.21875 8.296875 
Q 40.140625 3.328125 35.546875 0.953125 
Q 30.953125 -1.421875 24.3125 -1.421875 
Q 15.921875 -1.421875 10.953125 3.296875 
Q 6 8.015625 6 15.921875 
Q 6 25.140625 12.171875 29.828125 
Q 18.359375 34.515625 30.609375 34.515625 
L 43.21875 34.515625 
L 43.21875 35.40625 
Q 43.21875 41.609375 39.140625 45 
Q 35.0625 48.390625 27.6875 48.390625 
Q 23 48.390625 18.546875 47.265625 
Q 14.109375 46.140625 10.015625 43.890625 
L 10.015625 52.203125 
Q 14.9375 54.109375 19.578125 55.046875 
Q 24.21875 56 28.609375 56 
Q 40.484375 56 46.34375 49.84375 
Q 52.203125 43.703125 52.203125 31.203125 
z
" id="DejaVuSans-97"/>
      <path d="M 54.890625 33.015625 
L 54.890625 0 
L 45.90625 0 
L 45.90625 32.71875 
Q 45.90625 40.484375 42.875 44.328125 
Q 39.84375 48.1875 33.796875 48.1875 
Q 26.515625 48.1875 22.3125 43.546875 
Q 18.109375 38.921875 18.109375 30.90625 
L 18.109375 0 
L 9.078125 0 
L 9.078125 54.6875 
L 18.109375 54.6875 
L 18.109375 46.1875 
Q 21.34375 51.125 25.703125 53.5625 
Q 30.078125 56 35.796875 56 
Q 45.21875 56 50.046875 50.171875 
Q 54.890625 44.34375 54.890625 33.015625 
z
" id="DejaVuSans-110"/>
      <path d="M 45.40625 46.390625 
L 45.40625 75.984375 
L 54.390625 75.984375 
L 54.390625 0 
L 45.40625 0 
L 45.40625 8.203125 
Q 42.578125 3.328125 38.25 0.953125 
Q 33.9375 -1.421875 27.875 -1.421875 
Q 17.96875 -1.421875 11.734375 6.484375 
Q 5.515625 14.40625 5.515625 27.296875 
Q 5.515625 40.1875 11.734375 48.09375 
Q 17.96875 56 27.875 56 
Q 33.9375 56 38.25 53.625 
Q 42.578125 51.265625 45.40625 46.390625 
z
M 14.796875 27.296875 
Q 14.796875 17.390625 18.875 11.75 
Q 22.953125 6.109375 30.078125 6.109375 
Q 37.203125 6.109375 41.296875 11.75 
Q 45.40625 17.390625 45.40625 27.296875 
Q 45.40625 37.203125 41.296875 42.84375 
Q 37.203125 48.484375 30.078125 48.484375 
Q 22.953125 48.484375 18.875 42.84375 
Q 14.796875 37.203125 14.796875 27.296875 
z
" id="DejaVuSans-100"/>
      <path d="M 9.8125 72.90625 
L 19.671875 72.90625 
L 19.671875 8.296875 
L 55.171875 8.296875 
L 55.171875 0 
L 9.8125 0 
z
" id="DejaVuSans-76"/>
     </defs>
     <g transform="translate(108.151875 645.264844)rotate(-90)scale(0.18 -0.18)">
      <use xlink:href="#DejaVuSans-69"/>
      <use x="63.183594" xlink:href="#DejaVuSans-85"/>
      <use x="136.376953" xlink:href="#DejaVuSans-66"/>
      <use x="204.964844" xlink:href="#DejaVuSans-79"/>
      <use x="283.675781" xlink:href="#DejaVuSans-32"/>
      <use x="315.462891" xlink:href="#DejaVuSans-97"/>
      <use x="376.742188" xlink:href="#DejaVuSans-110"/>
      <use x="440.121094" xlink:href="#DejaVuSans-100"/>
      <use x="503.597656" xlink:href="#DejaVuSans-32"/>
      <use x="535.384766" xlink:href="#DejaVuSans-69"/>
      <use x="598.568359" xlink:href="#DejaVuSans-76"/>
      <use x="654.28125" xlink:href="#DejaVuSans-66"/>
      <use x="722.869141" xlink:href="#DejaVuSans-79"/>
     </g>
    </g>
   </g>
   <g id="line2d_15">
    <path clip-path="url(#p1825c0a20c)" d="M 184.581818 968.465455 
L 185.539501 926.076465 
L 186.976026 868.398617 
L 187.933709 829.471048 
L 188.891392 794.236986 
L 189.370233 775.999124 
L 190.327916 746.497039 
L 191.764441 693.979252 
L 196.074014 566.813807 
L 196.552856 558.466337 
L 197.031698 543.894554 
L 197.510539 535.830095 
L 198.947064 505.327648 
L 199.904747 486.725088 
L 201.820113 457.118626 
L 202.777796 444.741224 
L 203.256637 441.158142 
L 203.735479 433.160704 
L 204.21432 430.218689 
L 204.693162 424.495557 
L 205.172003 420.866429 
L 205.650845 418.561446 
L 206.608528 410.742703 
L 207.087369 408.482409 
L 207.566211 403.403296 
L 208.045052 402.466777 
L 208.523894 398.999416 
L 209.002735 397.042502 
L 209.481577 395.903361 
L 209.960418 393.044294 
L 210.43926 391.40977 
L 210.918101 388.347273 
L 211.396943 387.889673 
L 211.875784 385.290691 
L 212.354626 385.177172 
L 213.312309 380.448485 
L 213.79115 379.328939 
L 214.269992 379.478789 
L 214.748833 377.533374 
L 215.227675 374.549504 
L 215.706516 374.335346 
L 216.185358 373.843142 
L 216.6642 371.390689 
L 217.143041 371.597835 
L 217.621883 371.585716 
L 218.100724 369.459547 
L 219.058407 367.740621 
L 219.537249 367.280415 
L 220.01609 364.174181 
L 220.494932 366.465022 
L 220.973773 364.564271 
L 221.452615 363.349384 
L 221.931456 362.607202 
L 222.410298 361.211703 
L 222.889139 361.534689 
L 223.367981 360.698559 
L 223.846822 358.729751 
L 224.325664 358.48775 
L 224.804505 357.74733 
L 225.283347 355.950741 
L 225.762188 356.179148 
L 226.24103 356.044154 
L 226.719871 355.503927 
L 227.677554 353.52249 
L 228.156396 353.081164 
L 228.635237 351.143391 
L 229.114079 349.985644 
L 229.59292 350.081437 
L 230.550603 349.141811 
L 231.508286 347.18004 
L 231.987128 346.586911 
L 232.465969 344.945018 
L 232.944811 345.400569 
L 233.423652 344.602985 
L 233.902494 344.254619 
L 234.381335 343.523127 
L 234.860177 341.913852 
L 235.339019 341.062984 
L 235.81786 340.940692 
L 236.296702 341.689862 
L 236.775543 338.648054 
L 237.254385 339.982031 
L 238.212068 337.708952 
L 238.690909 337.506198 
L 239.169751 337.542887 
L 239.648592 337.127977 
L 240.127434 336.030667 
L 240.606275 336.281311 
L 241.085117 334.486973 
L 241.563958 334.216437 
L 242.0428 333.329023 
L 242.521641 333.925902 
L 243.000483 332.823771 
L 243.958166 332.063935 
L 244.437007 333.00468 
L 245.39469 330.185041 
L 245.873532 331.078371 
L 246.352373 330.715541 
L 246.831215 329.174787 
L 247.310056 329.415253 
L 247.788898 328.770114 
L 248.267739 328.513363 
L 248.746581 327.760134 
L 249.225422 328.309908 
L 249.704264 329.178727 
L 250.183105 327.602724 
L 250.661947 326.690907 
L 251.140788 326.897219 
L 251.61963 325.107762 
L 252.098471 327.70028 
L 252.577313 324.84782 
L 253.056154 325.081441 
L 253.534996 325.517446 
L 254.013837 325.655964 
L 254.492679 324.147089 
L 254.971521 324.913068 
L 255.450362 323.668705 
L 255.929204 323.810413 
L 256.408045 323.672443 
L 256.886887 323.324756 
L 257.365728 324.43685 
L 257.84457 322.818409 
L 258.323411 323.424799 
L 258.802253 320.80971 
L 259.281094 321.052212 
L 259.759936 322.11069 
L 260.238777 320.692668 
L 260.717619 321.02107 
L 261.19646 320.086159 
L 261.675302 320.59197 
L 262.632985 320.004293 
L 263.111826 320.97243 
L 263.590668 319.462281 
L 264.069509 320.762308 
L 265.027192 318.617889 
L 265.506034 318.214323 
L 265.984875 319.724555 
L 266.463717 318.018868 
L 266.942558 318.249846 
L 267.4214 318.346627 
L 267.900241 318.263571 
L 268.379083 318.538226 
L 268.857924 317.825114 
L 269.336766 317.949252 
L 269.815607 317.721666 
L 270.294449 317.250306 
L 270.77329 318.179361 
L 271.252132 316.696104 
L 271.730973 316.638475 
L 272.209815 316.088916 
L 272.688656 317.197856 
L 273.64634 316.193637 
L 274.125181 315.561129 
L 274.604023 316.370392 
L 275.082864 315.680862 
L 275.561706 315.403672 
L 276.040547 314.866243 
L 276.99823 315.581593 
L 277.477072 314.309255 
L 277.955913 315.103554 
L 278.434755 314.35061 
L 278.913596 315.015439 
L 279.392438 314.756664 
L 279.871279 315.876092 
L 280.350121 313.529027 
L 280.828962 314.712273 
L 281.307804 314.170761 
L 281.786645 314.040564 
L 282.265487 313.424686 
L 282.744328 314.163988 
L 283.22317 312.142314 
L 283.702011 313.090356 
L 284.659694 312.767036 
L 285.138536 313.238837 
L 285.617377 312.626376 
L 286.096219 312.833748 
L 286.57506 313.248456 
L 287.053902 311.92343 
L 287.532743 312.141278 
L 288.011585 313.005288 
L 288.490426 313.048631 
L 288.969268 310.954377 
L 289.448109 311.174308 
L 289.926951 312.927125 
L 290.405792 312.549367 
L 290.884634 312.464514 
L 291.363475 310.013216 
L 291.842317 311.522841 
L 292.321158 312.270237 
L 292.8 312.488358 
L 293.278842 311.760556 
L 293.757683 310.746827 
L 294.236525 311.228115 
L 294.715366 311.28122 
L 295.194208 311.65649 
L 295.673049 311.030743 
L 296.151891 309.355387 
L 296.630732 309.182502 
L 297.109574 310.084451 
L 297.588415 310.226909 
L 298.067257 308.776841 
L 298.546098 310.496635 
L 299.02494 310.171018 
L 299.503781 308.648656 
L 299.982623 308.349217 
L 300.461464 309.073054 
L 300.940306 308.754509 
L 301.419147 307.704709 
L 301.897989 308.639549 
L 302.37683 308.352336 
L 302.855672 307.179065 
L 303.334513 307.577155 
L 303.813355 307.15134 
L 304.292196 308.822422 
L 304.771038 306.515951 
L 305.249879 308.530756 
L 305.728721 308.053587 
L 306.207562 306.767012 
L 306.686404 306.469572 
L 307.165245 307.734672 
L 307.644087 307.112794 
L 308.122928 307.435828 
L 308.60177 306.460847 
L 309.080611 307.533324 
L 309.559453 305.972689 
L 310.038294 305.664584 
L 310.517136 306.299211 
L 310.995977 306.000986 
L 311.474819 306.148158 
L 311.95366 305.468271 
L 312.432502 305.576944 
L 312.911344 305.420392 
L 313.390185 304.651842 
L 313.869027 304.690793 
L 314.347868 304.395365 
L 315.305551 305.177771 
L 315.784393 305.144106 
L 316.263234 304.445303 
L 316.742076 304.996982 
L 317.220917 304.292786 
L 317.699759 303.971193 
L 318.1786 303.797177 
L 318.657442 303.852603 
L 319.136283 303.210428 
L 320.093966 303.259188 
L 320.572808 301.90833 
L 321.051649 303.62941 
L 321.530491 302.587467 
L 322.009332 301.980958 
L 322.488174 301.964197 
L 322.967015 303.233332 
L 323.445857 303.118885 
L 323.924698 302.554124 
L 324.40354 302.712783 
L 324.882381 301.299845 
L 325.361223 302.440414 
L 325.840064 300.493249 
L 326.318906 300.339279 
L 326.797747 300.521617 
L 327.276589 301.04838 
L 327.75543 299.515351 
L 328.234272 299.523315 
L 328.713113 300.470976 
L 329.191955 299.082798 
L 329.670796 299.070156 
L 330.149638 298.448493 
L 330.628479 299.330252 
L 331.107321 298.547572 
L 331.586163 298.605748 
L 332.065004 298.775967 
L 332.543846 297.711465 
L 333.022687 298.866058 
L 333.98037 297.222939 
L 334.938053 297.463036 
L 335.416895 297.658837 
L 335.895736 297.536735 
L 336.374578 296.078858 
L 336.853419 296.858348 
L 337.332261 296.48315 
L 338.289944 295.087651 
L 338.768785 295.510989 
L 339.247627 294.917253 
L 339.726468 294.674133 
L 340.20531 295.272476 
L 340.684151 293.868263 
L 341.162993 294.484665 
L 341.641834 293.23366 
L 342.120676 293.765756 
L 342.599517 292.318569 
L 343.078359 292.466884 
L 343.5572 292.806131 
L 344.036042 291.722619 
L 344.514883 291.741082 
L 344.993725 291.938919 
L 345.472566 291.32785 
L 345.951408 290.065512 
L 346.430249 290.427544 
L 346.909091 288.692131 
L 347.387932 290.482149 
L 348.345615 288.33348 
L 348.824457 288.953453 
L 349.303298 288.682203 
L 349.78214 287.96777 
L 350.260981 287.467292 
L 350.739823 287.423853 
L 351.218665 286.738181 
L 351.697506 287.597453 
L 352.176348 287.330583 
L 352.655189 287.296859 
L 353.134031 286.026212 
L 353.612872 285.229222 
L 354.091714 286.302831 
L 354.570555 284.485624 
L 355.049397 283.881305 
L 355.528238 283.505321 
L 356.00708 283.723883 
L 356.485921 283.088149 
L 356.964763 284.011668 
L 358.401287 282.132274 
L 358.880129 280.500678 
L 359.35897 281.580357 
L 360.316653 279.340205 
L 360.795495 279.932143 
L 361.274336 279.056646 
L 361.753178 279.771222 
L 362.232019 278.424757 
L 362.710861 278.406424 
L 363.189702 277.451394 
L 363.668544 277.472012 
L 364.147385 277.254307 
L 364.626227 276.428022 
L 366.062751 274.712501 
L 366.541593 274.898386 
L 367.499276 274.083993 
L 367.978117 273.22884 
L 368.456959 273.117142 
L 368.9358 272.617795 
L 369.414642 271.777486 
L 369.893484 272.223622 
L 370.372325 271.04009 
L 371.330008 269.972458 
L 371.80885 269.670197 
L 372.287691 268.703667 
L 372.766533 268.585815 
L 373.245374 267.882596 
L 373.724216 268.125466 
L 374.681899 267.028919 
L 375.16074 266.753717 
L 375.639582 264.902142 
L 376.118423 265.16131 
L 376.597265 265.189904 
L 377.076106 264.268468 
L 377.554948 263.714337 
L 378.033789 263.553034 
L 378.512631 262.46182 
L 378.991472 262.076765 
L 379.470314 261.229147 
L 379.949155 261.978484 
L 380.427997 260.312794 
L 381.38568 258.971496 
L 381.864521 259.057278 
L 382.343363 258.107855 
L 382.822204 258.277466 
L 383.301046 258.134449 
L 383.779887 256.371668 
L 384.258729 255.912141 
L 384.73757 255.820359 
L 385.216412 255.976709 
L 385.695253 255.46116 
L 386.174095 254.678718 
L 386.652936 253.299099 
L 387.131778 252.818644 
L 387.610619 251.695455 
L 388.089461 251.939837 
L 388.568302 250.98595 
L 389.525986 250.112274 
L 390.004827 250.028123 
L 390.96251 248.710109 
L 391.441352 248.776772 
L 391.920193 247.857479 
L 392.399035 247.530434 
L 392.877876 246.646996 
L 393.835559 245.625481 
L 394.314401 244.50372 
L 394.793242 244.834015 
L 396.229767 242.988453 
L 397.18745 242.373956 
L 397.666291 241.616953 
L 398.623974 240.644245 
L 399.102816 240.799524 
L 399.581657 239.671835 
L 400.060499 239.000519 
L 400.53934 238.96033 
L 401.018182 238.050037 
L 401.497023 237.87702 
L 402.454706 236.581029 
L 403.412389 236.28328 
L 403.891231 235.394616 
L 404.848914 234.995955 
L 405.327755 234.322711 
L 405.806597 233.361157 
L 406.285438 234.027081 
L 407.243121 232.428043 
L 407.721963 232.406627 
L 408.200805 232.132496 
L 408.679646 230.762211 
L 409.158488 231.403338 
L 409.637329 231.176205 
L 411.073854 229.056975 
L 412.031537 229.244051 
L 412.510378 228.249427 
L 412.98922 228.534617 
L 413.468061 228.030758 
L 414.425744 226.52724 
L 414.904586 226.680948 
L 415.383427 226.612284 
L 415.862269 225.231928 
L 416.34111 225.810093 
L 416.819952 225.157336 
L 417.298793 224.745389 
L 417.777635 224.083692 
L 418.256476 223.875225 
L 418.735318 223.860785 
L 419.214159 223.654353 
L 419.693001 222.179834 
L 420.171842 221.786768 
L 420.650684 222.531819 
L 421.129525 222.17662 
L 422.087208 220.631271 
L 422.56605 220.178695 
L 423.044891 220.144113 
L 424.002574 219.201226 
L 424.481416 219.471642 
L 425.439099 218.07606 
L 425.91794 218.158164 
L 426.396782 217.995349 
L 427.833307 216.672966 
L 428.312148 215.929987 
L 429.269831 215.765077 
L 429.748673 215.591133 
L 430.706356 214.54913 
L 431.185197 214.184968 
L 431.664039 214.180896 
L 432.14288 213.767807 
L 432.621722 213.700822 
L 433.579405 212.649272 
L 434.537088 212.484506 
L 435.015929 211.89196 
L 435.494771 211.694814 
L 435.973612 211.028248 
L 436.931295 210.606814 
L 437.410137 210.854184 
L 438.36782 210.04879 
L 439.325503 209.840561 
L 439.804344 209.24148 
L 440.283186 209.321989 
L 440.762027 208.608698 
L 441.71971 208.586247 
L 442.198552 208.500358 
L 442.677393 208.081197 
L 443.156235 208.050449 
L 444.113918 207.211033 
L 444.592759 207.009684 
L 445.071601 207.416214 
L 446.029284 206.655581 
L 446.508126 206.380248 
L 446.986967 206.533824 
L 447.94465 206.26886 
L 448.423492 205.769453 
L 448.902333 206.047857 
L 449.860016 205.437241 
L 450.338858 205.588175 
L 450.817699 205.381541 
L 451.296541 204.9525 
L 451.775382 205.029342 
L 452.254224 204.893907 
L 452.733065 204.489175 
L 453.211907 204.778543 
L 453.690748 204.322813 
L 454.16959 204.414452 
L 454.648431 204.392959 
L 455.127273 204.07755 
L 456.563797 203.781599 
L 457.52148 203.804479 
L 458.000322 203.773956 
L 458.958005 203.38064 
L 459.915688 203.207159 
L 460.394529 203.285823 
L 460.873371 203.013894 
L 461.831054 203.000585 
L 463.267578 202.713598 
L 463.74642 202.422467 
L 464.225261 202.638517 
L 464.704103 202.668397 
L 465.182944 202.374112 
L 465.661786 202.256558 
L 466.140628 202.322448 
L 466.619469 202.221976 
L 467.098311 202.256998 
L 467.577152 202.110564 
L 469.492518 202.154431 
L 469.97136 201.895264 
L 470.450201 201.988224 
L 471.407884 201.540232 
L 471.886726 201.725271 
L 475.238616 201.340919 
L 476.196299 201.504591 
L 476.675141 201.194545 
L 477.632824 201.240602 
L 478.111665 200.997553 
L 478.590507 201.25384 
L 479.069348 201.109132 
L 479.54819 201.17939 
L 480.505873 200.984911 
L 481.942397 200.793824 
L 482.90008 200.872749 
L 483.378922 200.759266 
L 483.857763 200.918926 
L 484.815447 200.505455 
L 485.294288 200.777979 
L 485.77313 200.485528 
L 486.730813 200.622355 
L 488.167337 200.488016 
L 488.646179 200.508479 
L 489.12502 200.35126 
L 490.082703 200.46635 
L 490.561545 200.197636 
L 491.040386 200.354343 
L 496.786484 199.994549 
L 497.265326 200.177494 
L 497.744167 200.182731 
L 498.223009 200.038297 
L 498.70185 200.138019 
L 500.138375 200.002204 
L 500.617216 200.093592 
L 501.096058 199.898672 
L 501.574899 199.889339 
L 502.053741 200.003019 
L 502.532582 199.887244 
L 503.490265 200.07445 
L 504.447949 199.878054 
L 506.842156 199.791415 
L 507.320998 199.663873 
L 508.278681 199.735049 
L 508.757522 199.801617 
L 509.236364 199.708823 
L 509.715205 199.731561 
L 510.194047 199.590412 
L 511.15173 199.713407 
L 512.109413 199.607435 
L 512.588254 199.66704 
L 514.024779 199.575425 
L 520.72856 199.520189 
L 521.207401 199.545592 
L 521.686243 199.418039 
L 522.165084 199.440561 
L 522.643926 199.317733 
L 523.122767 199.467393 
L 525.516975 199.310829 
L 525.995817 199.344089 
L 526.474658 199.241927 
L 528.868866 199.37754 
L 529.347707 199.248641 
L 529.826549 199.393623 
L 530.784232 199.188191 
L 531.263073 199.290342 
L 535.093805 199.154609 
L 536.051488 199.256057 
L 536.53033 199.102564 
L 537.009171 199.237856 
L 537.966854 199.1026 
L 538.445696 199.196298 
L 538.924537 199.127908 
L 539.88222 199.110885 
L 543.712953 199.123867 
L 544.670636 199.03227 
L 548.501368 199.043329 
L 549.937892 198.992003 
L 551.853258 199.002545 
L 552.3321 199.079279 
L 552.810941 198.974308 
L 553.768624 198.933738 
L 554.247466 198.854753 
L 555.205149 198.992402 
L 570.049236 198.824535 
L 570.528077 198.903942 
L 571.964602 198.814839 
L 572.922285 198.837742 
L 573.401126 198.813303 
L 573.879968 198.90387 
L 574.358809 198.880824 
L 574.837651 198.736675 
L 575.795334 198.844921 
L 576.753017 198.761174 
L 577.231858 198.849408 
L 578.668383 198.761591 
L 579.147224 198.843611 
L 579.626066 198.746306 
L 582.499115 198.873229 
L 583.456798 198.776697 
L 583.93564 198.828017 
L 584.893323 198.741294 
L 586.808689 198.794197 
L 587.28753 198.708391 
L 588.724055 198.789697 
L 590.639421 198.748591 
L 595.427836 198.737687 
L 596.86436 198.717688 
L 598.779726 198.710307 
L 599.737409 198.685832 
L 602.610459 198.703653 
L 603.568142 198.678559 
L 604.046983 198.73658 
L 605.004666 198.6168 
L 607.398874 198.654048 
L 612.187289 198.628787 
L 614.102655 198.650643 
L 615.060338 198.677487 
L 615.539179 198.622787 
L 616.496862 198.659691 
L 617.454545 198.636632 
L 618.89107 198.650453 
L 620.327595 198.635906 
L 624.158327 198.596408 
L 625.594851 198.621764 
L 628.4679 198.604764 
L 631.819791 198.59486 
L 633.256315 198.606574 
L 635.650523 198.598503 
L 636.129364 198.533029 
L 636.608206 198.598467 
L 637.087047 198.525423 
L 638.523572 198.600884 
L 639.960097 198.575408 
L 642.354304 198.565909 
L 644.26967 198.561909 
L 645.227353 198.577051 
L 647.142719 198.56673 
L 648.579244 198.585634 
L 650.973451 198.554195 
L 651.931134 198.549564 
L 661.507965 198.530922 
L 663.423331 198.569754 
L 666.29638 198.503102 
L 668.211746 198.523399 
L 670.605953 198.51872 
L 672.042478 198.506292 
L 673.479002 198.526923 
L 679.703942 198.496269 
L 680.661625 198.510149 
L 684.013516 198.48171 
L 686.886565 198.528113 
L 688.323089 198.488817 
L 690.717297 198.497388 
L 711.307482 198.48377 
L 715.138214 198.476603 
L 716.095897 198.485722 
L 724.715044 198.473794 
L 738.601448 198.454378 
L 741.474497 198.469151 
L 745.305229 198.452926 
L 750.572486 198.468877 
L 753.445535 198.445438 
L 755.839743 198.441664 
L 762.064682 198.441057 
L 766.374256 198.450569 
L 771.641512 198.445676 
L 775.951086 198.443569 
L 777.866452 198.439307 
L 780.26066 198.443617 
L 786.485599 198.433558 
L 792.231698 198.440563 
L 805.63926 198.427474 
L 836.763958 198.424129 
L 843.467739 198.423248 
L 857.832985 198.411082 
L 861.184875 198.426094 
L 866.452132 198.411678 
L 869.325181 198.414035 
L 878.42317 198.421987 
L 885.605792 198.411058 
L 898.055672 198.416356 
L 996.218182 198.41257 
L 996.218182 198.41257 
" style="fill:none;stroke:#0000ff;stroke-linecap:square;stroke-width:1.5;"/>
   </g>
   <g id="line2d_16">
    <path clip-path="url(#p1825c0a20c)" d="M 184.581818 529.797655 
L 185.06066 518.955913 
L 185.539501 498.025049 
L 186.976026 468.494977 
L 187.454867 449.319537 
L 187.933709 443.410425 
L 188.891392 419.923399 
L 189.370233 414.426091 
L 190.806758 381.758643 
L 191.285599 378.87228 
L 191.764441 360.22915 
L 192.722124 346.313696 
L 193.200965 340.427821 
L 193.679807 330.217956 
L 195.116331 312.184502 
L 195.595173 298.813691 
L 196.074014 296.281956 
L 196.552856 293.133795 
L 197.031698 286.376268 
L 197.510539 277.934278 
L 197.989381 272.604486 
L 198.468222 265.679228 
L 198.947064 265.320231 
L 199.425905 262.76345 
L 200.383588 246.204087 
L 200.86243 248.510474 
L 201.341271 241.340322 
L 201.820113 240.776835 
L 202.298954 237.033236 
L 202.777796 238.487625 
L 203.256637 235.766398 
L 203.735479 230.122631 
L 204.21432 228.518868 
L 204.693162 229.63726 
L 205.172003 224.547469 
L 205.650845 225.546997 
L 206.129686 220.427089 
L 206.608528 221.474067 
L 207.087369 221.744305 
L 207.566211 219.063541 
L 208.045052 220.037796 
L 208.523894 217.05945 
L 209.002735 215.555991 
L 209.481577 218.905667 
L 209.960418 214.055926 
L 210.43926 217.390614 
L 211.396943 212.729805 
L 211.875784 216.42143 
L 212.354626 212.301478 
L 212.833467 211.088257 
L 213.312309 212.57249 
L 213.79115 209.546824 
L 214.269992 211.260011 
L 214.748833 209.836395 
L 215.227675 207.552578 
L 215.706516 208.091161 
L 216.185358 207.671144 
L 216.6642 207.41856 
L 217.143041 206.676532 
L 217.621883 205.542832 
L 218.100724 207.657513 
L 218.579566 207.127513 
L 219.058407 207.816042 
L 219.537249 209.116581 
L 220.01609 205.602906 
L 220.494932 207.817399 
L 220.973773 206.290597 
L 221.452615 207.788305 
L 222.410298 204.109192 
L 222.889139 206.134532 
L 223.367981 205.673957 
L 223.846822 202.559199 
L 224.325664 205.14367 
L 224.804505 202.212381 
L 225.283347 202.360363 
L 225.762188 203.17753 
L 226.24103 206.107045 
L 226.719871 205.686778 
L 227.198713 204.925894 
L 227.677554 201.59242 
L 228.156396 200.206302 
L 228.635237 199.684426 
L 229.114079 204.48489 
L 229.59292 199.967812 
L 230.071762 200.307131 
L 230.550603 202.927791 
L 231.029445 200.116211 
L 231.508286 199.065292 
L 231.987128 201.163177 
L 232.465969 196.513998 
L 232.944811 199.234689 
L 233.423652 200.314476 
L 233.902494 197.723541 
L 234.381335 200.954924 
L 234.860177 198.617978 
L 235.339019 200.048446 
L 235.81786 198.700248 
L 236.296702 202.718026 
L 236.775543 196.819152 
L 237.254385 197.202004 
L 237.733226 199.98174 
L 238.212068 198.741806 
L 238.690909 198.818279 
L 239.169751 196.236879 
L 239.648592 199.431847 
L 240.127434 197.255906 
L 240.606275 198.063193 
L 241.085117 197.668257 
L 241.563958 195.419903 
L 242.0428 197.038952 
L 242.521641 196.010877 
L 243.000483 195.957975 
L 243.479324 197.230931 
L 243.958166 196.577424 
L 244.437007 197.058522 
L 244.915849 196.574674 
L 245.39469 194.81256 
L 245.873532 195.544731 
L 246.352373 194.638211 
L 246.831215 195.264088 
L 247.310056 193.139109 
L 247.788898 197.650151 
L 248.267739 195.479567 
L 248.746581 195.836236 
L 249.225422 193.158918 
L 249.704264 195.591122 
L 250.183105 194.0135 
L 250.661947 196.085136 
L 251.140788 195.645953 
L 251.61963 193.05797 
L 252.098471 196.760993 
L 252.577313 193.632576 
L 253.056154 195.102452 
L 253.534996 197.202873 
L 254.013837 193.321923 
L 254.492679 192.391427 
L 254.971521 196.11148 
L 255.450362 195.102298 
L 255.929204 194.424006 
L 256.408045 196.756226 
L 256.886887 195.13507 
L 257.365728 196.092255 
L 257.84457 191.294642 
L 258.323411 194.397364 
L 258.802253 191.74142 
L 259.281094 191.909579 
L 259.759936 193.361457 
L 260.238777 195.251672 
L 261.19646 191.214836 
L 261.675302 193.765618 
L 262.154143 193.70818 
L 262.632985 192.107487 
L 263.111826 195.235661 
L 263.590668 192.054192 
L 264.069509 196.288306 
L 264.548351 190.878922 
L 265.027192 192.552004 
L 265.506034 192.81598 
L 265.984875 194.387484 
L 266.463717 192.005944 
L 266.942558 194.900235 
L 267.4214 192.495572 
L 267.900241 195.447211 
L 268.857924 191.648329 
L 269.815607 194.086449 
L 270.294449 191.300011 
L 270.77329 192.628965 
L 271.252132 193.097944 
L 271.730973 192.479055 
L 272.209815 191.573552 
L 272.688656 195.770804 
L 273.167498 189.871966 
L 273.64634 192.360096 
L 274.125181 189.370618 
L 274.604023 190.937705 
L 275.082864 194.41847 
L 275.561706 194.563321 
L 276.040547 191.028237 
L 276.519389 191.906603 
L 276.99823 189.306086 
L 277.477072 191.511716 
L 277.955913 191.252537 
L 278.434755 193.237438 
L 278.913596 194.379496 
L 279.392438 193.685907 
L 279.871279 194.429898 
L 280.350121 189.975187 
L 280.828962 193.409484 
L 281.307804 192.253469 
L 281.786645 191.94053 
L 282.265487 192.710699 
L 282.744328 192.64944 
L 283.22317 191.240001 
L 283.702011 188.731801 
L 284.180853 191.086984 
L 284.659694 190.889659 
L 285.138536 191.588772 
L 285.617377 190.085314 
L 286.096219 191.028427 
L 286.57506 192.363857 
L 287.053902 193.00849 
L 287.532743 192.457544 
L 288.011585 192.543445 
L 288.490426 194.53143 
L 288.969268 186.30599 
L 289.926951 192.092524 
L 290.405792 191.882223 
L 290.884634 192.631286 
L 291.363475 190.29765 
L 291.842317 190.093617 
L 292.321158 190.700144 
L 292.8 192.873323 
L 293.278842 191.386186 
L 293.757683 188.959208 
L 294.236525 190.2884 
L 294.715366 192.09225 
L 295.194208 190.686645 
L 295.673049 194.799573 
L 296.151891 189.751507 
L 296.630732 186.755958 
L 297.588415 192.533957 
L 298.067257 189.974664 
L 298.546098 192.688825 
L 299.02494 188.592676 
L 299.503781 190.955008 
L 299.982623 186.423878 
L 300.461464 190.074516 
L 300.940306 191.944745 
L 301.419147 188.247072 
L 301.897989 190.944717 
L 302.37683 189.301895 
L 303.334513 190.346987 
L 303.813355 186.614714 
L 304.292196 189.970676 
L 304.771038 189.123034 
L 305.249879 189.564324 
L 305.728721 190.743892 
L 306.207562 189.858811 
L 306.686404 188.404279 
L 307.165245 188.29676 
L 308.60177 191.549333 
L 309.080611 190.086302 
L 309.559453 190.181036 
L 310.038294 190.01065 
L 310.517136 190.341874 
L 310.995977 188.674577 
L 311.474819 188.610181 
L 311.95366 191.02932 
L 312.432502 188.678732 
L 312.911344 188.284939 
L 313.390185 189.880549 
L 314.347868 189.873204 
L 314.82671 189.940653 
L 315.305551 187.947978 
L 315.784393 188.463158 
L 316.263234 187.570363 
L 316.742076 189.198293 
L 317.220917 189.183043 
L 317.699759 190.352385 
L 318.1786 189.111403 
L 318.657442 189.86949 
L 319.136283 188.38703 
L 319.615125 188.789108 
L 320.093966 187.114193 
L 320.572808 190.039649 
L 321.051649 190.45194 
L 321.530491 188.146154 
L 322.009332 187.949168 
L 322.488174 187.246985 
L 322.967015 190.19044 
L 323.445857 189.374535 
L 323.924698 189.330692 
L 324.40354 187.846459 
L 324.882381 187.107062 
L 325.361223 190.774855 
L 325.840064 187.955382 
L 326.318906 189.249421 
L 326.797747 187.669204 
L 327.276589 190.611291 
L 327.75543 188.603271 
L 328.234272 185.780013 
L 328.713113 188.577439 
L 329.670796 184.351313 
L 330.149638 188.457551 
L 330.628479 185.965767 
L 331.107321 188.173301 
L 331.586163 186.508195 
L 332.543846 187.685585 
L 333.022687 189.389362 
L 333.501529 187.573429 
L 333.98037 187.745653 
L 334.459212 186.915059 
L 334.938053 187.672335 
L 335.416895 190.823639 
L 335.895736 188.181968 
L 336.374578 187.051029 
L 336.853419 188.087543 
L 337.332261 186.392665 
L 337.811102 187.331659 
L 338.289944 182.418064 
L 338.768785 187.290971 
L 339.726468 183.535217 
L 340.20531 186.332262 
L 340.684151 186.12301 
L 341.162993 184.546804 
L 341.641834 189.22522 
L 342.120676 187.615564 
L 342.599517 182.058044 
L 343.078359 188.379417 
L 343.5572 185.604235 
L 344.036042 187.665443 
L 344.514883 187.271519 
L 344.993725 187.430929 
L 345.472566 185.707587 
L 345.951408 186.500065 
L 346.430249 185.406267 
L 346.909091 183.938486 
L 347.387932 185.790619 
L 347.866774 183.266711 
L 348.345615 187.520854 
L 348.824457 184.492628 
L 349.303298 184.494688 
L 349.78214 185.521417 
L 350.260981 183.662152 
L 350.739823 186.228207 
L 351.218665 183.814932 
L 351.697506 183.236159 
L 352.176348 183.932141 
L 352.655189 183.744637 
L 353.134031 184.447452 
L 353.612872 183.751845 
L 354.091714 184.834994 
L 354.570555 184.653103 
L 355.049397 186.46553 
L 355.528238 182.306378 
L 356.00708 185.246084 
L 356.485921 184.127823 
L 356.964763 184.068611 
L 357.443604 183.135824 
L 357.922446 183.184173 
L 358.880129 181.878432 
L 359.35897 184.301517 
L 359.837812 182.867639 
L 360.316653 183.794159 
L 360.795495 181.493283 
L 361.274336 183.22338 
L 361.753178 184.350539 
L 362.232019 182.554427 
L 362.710861 183.32231 
L 363.189702 183.720567 
L 363.668544 181.297279 
L 364.147385 180.478731 
L 364.626227 182.08115 
L 365.105068 182.082424 
L 365.58391 181.875242 
L 366.062751 182.19399 
L 366.541593 183.468839 
L 367.020434 181.42144 
L 367.499276 183.72218 
L 367.978117 181.937942 
L 368.456959 182.361614 
L 368.9358 181.454308 
L 369.414642 183.362808 
L 369.893484 182.848396 
L 370.372325 180.685151 
L 370.851167 180.26105 
L 371.330008 182.817844 
L 371.80885 179.806177 
L 372.287691 178.974868 
L 372.766533 179.628524 
L 373.245374 179.614495 
L 373.724216 182.053002 
L 374.203057 181.113513 
L 374.681899 178.814256 
L 375.16074 180.788706 
L 375.639582 181.184302 
L 376.118423 180.609369 
L 376.597265 183.892892 
L 377.076106 181.16663 
L 377.554948 180.106379 
L 378.033789 180.883261 
L 378.512631 178.209925 
L 378.991472 180.728161 
L 379.470314 180.076785 
L 379.949155 183.316917 
L 380.427997 180.831335 
L 380.906838 181.799579 
L 381.38568 180.194875 
L 381.864521 177.774545 
L 382.343363 181.657418 
L 382.822204 180.863 
L 383.301046 182.156742 
L 383.779887 181.180868 
L 384.258729 180.901987 
L 384.73757 180.794575 
L 385.216412 178.84241 
L 385.695253 181.681417 
L 386.174095 180.798789 
L 386.652936 178.31354 
L 387.131778 181.103061 
L 387.610619 180.362356 
L 388.089461 181.475343 
L 388.568302 179.658172 
L 389.047144 178.720451 
L 389.525986 179.605627 
L 390.004827 179.196299 
L 390.483669 180.601619 
L 390.96251 179.977372 
L 391.441352 181.230984 
L 391.920193 179.303509 
L 392.399035 181.51946 
L 392.877876 179.856592 
L 393.356718 179.901899 
L 393.835559 180.612166 
L 394.314401 180.641391 
L 394.793242 180.017692 
L 395.272084 181.619634 
L 395.750925 180.495826 
L 396.229767 179.912512 
L 396.708608 179.75443 
L 397.18745 181.398191 
L 397.666291 180.450721 
L 398.145133 180.610976 
L 398.623974 180.470029 
L 399.102816 179.121707 
L 400.060499 180.845013 
L 401.018182 180.599036 
L 401.497023 181.94531 
L 401.975865 181.27181 
L 402.454706 180.082427 
L 402.933548 180.016763 
L 403.412389 181.795936 
L 403.891231 181.257787 
L 404.848914 181.969982 
L 405.327755 182.06893 
L 405.806597 181.358253 
L 406.285438 182.903316 
L 406.76428 181.785996 
L 407.243121 180.175137 
L 408.200805 182.106339 
L 408.679646 181.539459 
L 409.158488 181.372609 
L 410.116171 182.658958 
L 410.595012 182.47999 
L 411.073854 181.768675 
L 411.552695 182.778072 
L 412.031537 182.54651 
L 412.510378 181.527061 
L 412.98922 184.035589 
L 413.468061 182.886115 
L 413.946903 183.210345 
L 414.425744 181.314195 
L 415.383427 184.363622 
L 415.862269 181.887027 
L 416.819952 183.894535 
L 417.298793 183.628773 
L 417.777635 183.113843 
L 418.256476 183.586763 
L 419.214159 185.159706 
L 419.693001 183.307632 
L 420.171842 184.352777 
L 420.650684 185.070984 
L 421.608367 185.31939 
L 422.087208 184.385526 
L 422.56605 185.026295 
L 423.044891 185.030521 
L 423.523733 184.87254 
L 424.002574 184.996755 
L 424.481416 186.053096 
L 424.960257 185.258785 
L 425.439099 185.466872 
L 425.91794 185.897972 
L 426.396782 186.158806 
L 426.875623 186.211065 
L 427.354465 186.817962 
L 427.833307 185.474193 
L 428.312148 186.345488 
L 428.79099 185.807678 
L 429.269831 187.086277 
L 429.748673 186.885643 
L 430.706356 186.970806 
L 431.185197 187.666609 
L 431.664039 187.617421 
L 432.14288 188.18523 
L 432.621722 188.537583 
L 433.579405 187.725178 
L 434.058246 188.332925 
L 434.537088 189.339215 
L 435.015929 188.454337 
L 435.494771 188.951827 
L 435.973612 188.650924 
L 436.452454 188.504835 
L 436.931295 188.093841 
L 437.410137 189.494696 
L 437.888978 190.035018 
L 438.36782 189.040585 
L 438.846661 189.262206 
L 439.804344 190.306935 
L 440.283186 190.345076 
L 440.762027 189.791933 
L 441.240869 190.057743 
L 441.71971 190.671455 
L 442.198552 191.083615 
L 442.677393 191.308367 
L 443.156235 191.261036 
L 443.635076 190.806223 
L 444.113918 191.304677 
L 444.592759 190.906849 
L 445.071601 191.734754 
L 445.550442 191.751408 
L 446.029284 190.939741 
L 446.508126 191.166421 
L 447.465809 192.526963 
L 448.423492 192.047764 
L 448.902333 192.629286 
L 449.381175 192.95901 
L 449.860016 192.161771 
L 450.338858 192.711533 
L 450.817699 192.893263 
L 451.296541 192.620775 
L 451.775382 193.005948 
L 452.733065 192.700033 
L 453.211907 193.496546 
L 453.690748 193.116503 
L 454.16959 193.111658 
L 454.648431 193.639951 
L 455.127273 193.578328 
L 456.084956 193.291138 
L 456.563797 193.311816 
L 457.042639 193.955359 
L 457.52148 193.919956 
L 458.000322 194.091413 
L 458.479163 194.040546 
L 459.915688 194.157672 
L 460.394529 194.423232 
L 460.873371 194.214057 
L 461.352212 194.50449 
L 462.309895 194.365145 
L 462.788737 194.566 
L 463.267578 194.462165 
L 463.74642 194.143226 
L 464.225261 194.816691 
L 464.704103 195.033527 
L 465.182944 194.693006 
L 466.140628 194.879843 
L 466.619469 194.837535 
L 467.098311 195.227626 
L 467.577152 194.950822 
L 468.534835 195.386928 
L 469.013677 195.349858 
L 469.492518 195.540481 
L 469.97136 195.18352 
L 470.450201 195.474139 
L 471.407884 195.239208 
L 471.886726 195.487781 
L 472.365567 195.421379 
L 472.844409 195.594181 
L 473.32325 195.304289 
L 473.802092 195.684374 
L 475.238616 195.651238 
L 475.717458 196.059119 
L 476.196299 196.165501 
L 476.675141 195.914441 
L 478.111665 195.810993 
L 478.590507 196.26345 
L 479.069348 196.094552 
L 479.54819 196.190334 
L 481.463556 196.096123 
L 482.90008 196.281419 
L 483.378922 196.22682 
L 483.857763 196.560437 
L 484.336605 196.108682 
L 484.815447 196.13161 
L 485.294288 196.535569 
L 485.77313 196.208452 
L 486.251971 196.350874 
L 486.730813 196.611637 
L 487.209654 196.537021 
L 487.688496 196.627779 
L 488.167337 196.47275 
L 488.646179 196.565817 
L 489.12502 196.419526 
L 490.561545 196.439918 
L 491.040386 196.658266 
L 492.476911 196.640195 
L 492.955752 196.590673 
L 493.913435 196.84615 
L 494.871118 196.813664 
L 495.828801 197.040999 
L 496.786484 196.741607 
L 497.265326 196.95336 
L 497.744167 197.021286 
L 498.223009 196.864828 
L 498.70185 197.098163 
L 500.617216 197.119055 
L 501.096058 196.872375 
L 502.053741 197.158393 
L 502.532582 197.048939 
L 503.011424 197.104978 
L 503.490265 197.336653 
L 503.969107 197.026035 
L 506.363315 197.201325 
L 508.278681 197.157994 
L 509.236364 197.27956 
L 510.194047 197.121603 
L 511.15173 197.315523 
L 518.334352 197.395365 
L 518.813194 197.442196 
L 519.292035 197.293524 
L 519.770877 197.261394 
L 520.249718 197.513348 
L 521.207401 197.612319 
L 521.686243 197.440672 
L 522.165084 197.54218 
L 522.643926 197.423816 
L 523.122767 197.586023 
L 524.080451 197.452666 
L 525.516975 197.469528 
L 525.995817 197.575619 
L 526.474658 197.472445 
L 526.9535 197.567476 
L 527.432341 197.486325 
L 528.868866 197.659294 
L 529.347707 197.555596 
L 529.826549 197.762468 
L 530.784232 197.527633 
L 531.263073 197.664912 
L 534.136122 197.599737 
L 534.614964 197.723922 
L 535.093805 197.610593 
L 535.572647 197.753266 
L 536.051488 197.771443 
L 536.53033 197.618224 
L 537.009171 197.757182 
L 537.966854 197.623009 
L 538.445696 197.773848 
L 538.924537 197.673222 
L 539.403379 197.758039 
L 539.88222 197.677495 
L 540.361062 197.740004 
L 540.839903 197.641925 
L 541.797586 197.832322 
L 546.586002 197.80837 
L 547.543685 197.80368 
L 549.459051 197.775539 
L 552.3321 197.935972 
L 553.289783 197.859166 
L 554.247466 197.739171 
L 555.205149 197.896855 
L 560.951247 197.963614 
L 561.90893 197.897867 
L 563.345455 198.000195 
L 563.824296 197.840333 
L 564.303138 197.998469 
L 565.260821 197.965316 
L 569.091553 198.006028 
L 570.049236 197.954412 
L 570.528077 198.035789 
L 571.964602 197.973304 
L 572.443443 198.039003 
L 573.401126 197.97053 
L 573.879968 198.091751 
L 574.358809 198.094239 
L 574.837651 197.903342 
L 575.316492 198.046003 
L 581.062591 197.994886 
L 582.499115 198.169855 
L 583.456798 198.079287 
L 583.93564 198.142999 
L 584.893323 198.050503 
L 589.202896 198.096001 
L 590.160579 198.114798 
L 593.033628 198.140296 
L 594.470153 198.178069 
L 595.906677 198.120524 
L 596.86436 198.131059 
L 598.779726 198.144439 
L 599.737409 198.123642 
L 600.695093 198.16495 
L 601.652776 198.156784 
L 606.441191 198.158129 
L 606.920032 198.224864 
L 607.877715 198.154153 
L 612.187289 198.14976 
L 614.102655 198.190592 
L 616.496862 198.209032 
L 617.454545 198.195532 
L 618.89107 198.218781 
L 620.327595 198.209329 
L 624.158327 198.186759 
L 625.594851 198.227352 
L 629.425583 198.199687 
L 630.862108 198.257464 
L 632.298632 198.202984 
L 634.213998 198.251333 
L 642.833146 198.227305 
L 643.790829 198.256196 
L 650.973451 198.267303 
L 651.452293 198.329973 
L 652.409976 198.26622 
L 654.804183 198.293992 
L 655.283025 198.217472 
L 656.719549 198.311384 
L 659.113757 198.295421 
L 660.07144 198.269684 
L 661.029123 198.265791 
L 665.817538 198.298659 
L 667.732904 198.258637 
L 669.64827 198.299337 
L 677.309735 198.300385 
L 678.746259 198.294921 
L 680.661625 198.308122 
L 684.013516 198.289409 
L 686.886565 198.346609 
L 688.323089 198.307373 
L 690.717297 198.324241 
L 699.336444 198.312527 
L 702.209493 198.360085 
L 706.519067 198.330979 
L 707.955591 198.340335 
L 732.85535 198.371215 
L 733.813033 198.382595 
L 735.728399 198.352263 
L 741.474497 198.373655 
L 745.305229 198.360013 
L 750.572486 198.383119 
L 753.445535 198.36012 
L 755.839743 198.356882 
L 763.022365 198.353144 
L 763.980048 198.383964 
L 770.683829 198.372965 
L 774.993403 198.385679 
L 865.015607 198.386417 
L 869.325181 198.390226 
L 877.944328 198.401428 
L 968.924216 198.401285 
L 975.627997 198.400452 
L 996.218182 198.405916 
L 996.218182 198.405916 
" style="fill:none;stroke:#ff0000;stroke-linecap:square;stroke-width:1.5;"/>
   </g>
   <g id="patch_8">
    <path d="M 144 1008 
L 144 138.24 
" style="fill:none;stroke:#000000;stroke-linecap:square;stroke-linejoin:miter;stroke-width:0.8;"/>
   </g>
   <g id="patch_9">
    <path d="M 1036.8 1008 
L 1036.8 138.24 
" style="fill:none;stroke:#000000;stroke-linecap:square;stroke-linejoin:miter;stroke-width:0.8;"/>
   </g>
   <g id="patch_10">
    <path d="M 144 1008 
L 1036.8 1008 
" style="fill:none;stroke:#000000;stroke-linecap:square;stroke-linejoin:miter;stroke-width:0.8;"/>
   </g>
   <g id="patch_11">
    <path d="M 144 138.24 
L 1036.8 138.24 
" style="fill:none;stroke:#000000;stroke-linecap:square;stroke-linejoin:miter;stroke-width:0.8;"/>
   </g>
   <g id="legend_1">
    <g id="patch_12">
     <path d="M 921.675938 999 
L 1024.2 999 
Q 1027.8 999 1027.8 995.4 
L 1027.8 944.35875 
Q 1027.8 940.75875 1024.2 940.75875 
L 921.675938 940.75875 
Q 918.075938 940.75875 918.075938 944.35875 
L 918.075938 995.4 
Q 918.075938 999 921.675938 999 
z
" style="fill:#ffffff;opacity:0.8;stroke:#cccccc;stroke-linejoin:miter;"/>
    </g>
    <g id="line2d_17">
     <path d="M 925.275938 955.335938 
L 961.275938 955.335938 
" style="fill:none;stroke:#0000ff;stroke-linecap:square;stroke-width:1.5;"/>
    </g>
    <g id="line2d_18"/>
    <g id="text_17">
     <!-- elbo -->
     <defs>
      <path d="M 9.421875 75.984375 
L 18.40625 75.984375 
L 18.40625 0 
L 9.421875 0 
z
" id="DejaVuSans-108"/>
      <path d="M 48.6875 27.296875 
Q 48.6875 37.203125 44.609375 42.84375 
Q 40.53125 48.484375 33.40625 48.484375 
Q 26.265625 48.484375 22.1875 42.84375 
Q 18.109375 37.203125 18.109375 27.296875 
Q 18.109375 17.390625 22.1875 11.75 
Q 26.265625 6.109375 33.40625 6.109375 
Q 40.53125 6.109375 44.609375 11.75 
Q 48.6875 17.390625 48.6875 27.296875 
z
M 18.109375 46.390625 
Q 20.953125 51.265625 25.265625 53.625 
Q 29.59375 56 35.59375 56 
Q 45.5625 56 51.78125 48.09375 
Q 58.015625 40.1875 58.015625 27.296875 
Q 58.015625 14.40625 51.78125 6.484375 
Q 45.5625 -1.421875 35.59375 -1.421875 
Q 29.59375 -1.421875 25.265625 0.953125 
Q 20.953125 3.328125 18.109375 8.203125 
L 18.109375 0 
L 9.078125 0 
L 9.078125 75.984375 
L 18.109375 75.984375 
z
" id="DejaVuSans-98"/>
     </defs>
     <g transform="translate(975.675938 961.635937)scale(0.18 -0.18)">
      <use xlink:href="#DejaVuSans-101"/>
      <use x="61.523438" xlink:href="#DejaVuSans-108"/>
      <use x="89.306641" xlink:href="#DejaVuSans-98"/>
      <use x="152.783203" xlink:href="#DejaVuSans-111"/>
     </g>
    </g>
    <g id="line2d_19">
     <path d="M 925.275938 981.756563 
L 961.275938 981.756563 
" style="fill:none;stroke:#ff0000;stroke-linecap:square;stroke-width:1.5;"/>
    </g>
    <g id="line2d_20"/>
    <g id="text_18">
     <!-- eubo -->
     <defs>
      <path d="M 8.5 21.578125 
L 8.5 54.6875 
L 17.484375 54.6875 
L 17.484375 21.921875 
Q 17.484375 14.15625 20.5 10.265625 
Q 23.53125 6.390625 29.59375 6.390625 
Q 36.859375 6.390625 41.078125 11.03125 
Q 45.3125 15.671875 45.3125 23.6875 
L 45.3125 54.6875 
L 54.296875 54.6875 
L 54.296875 0 
L 45.3125 0 
L 45.3125 8.40625 
Q 42.046875 3.421875 37.71875 1 
Q 33.40625 -1.421875 27.6875 -1.421875 
Q 18.265625 -1.421875 13.375 4.4375 
Q 8.5 10.296875 8.5 21.578125 
z
M 31.109375 56 
z
" id="DejaVuSans-117"/>
     </defs>
     <g transform="translate(975.675938 988.056563)scale(0.18 -0.18)">
      <use xlink:href="#DejaVuSans-101"/>
      <use x="61.523438" xlink:href="#DejaVuSans-117"/>
      <use x="124.902344" xlink:href="#DejaVuSans-98"/>
      <use x="188.378906" xlink:href="#DejaVuSans-111"/>
     </g>
    </g>
   </g>
  </g>
 </g>
 <defs>
  <clipPath id="p1825c0a20c">
   <rect height="869.76" width="892.8" x="144" y="138.24"/>
  </clipPath>
 </defs>
</svg>
