<?xml version="1.0" encoding="utf-8" standalone="no"?>
<!DOCTYPE svg PUBLIC "-//W3C//DTD SVG 1.1//EN"
  "http://www.w3.org/Graphics/SVG/1.1/DTD/svg11.dtd">
<!-- Created with matplotlib (https://matplotlib.org/) -->
<svg height="288pt" version="1.1" viewBox="0 0 432 288" width="432pt" xmlns="http://www.w3.org/2000/svg" xmlns:xlink="http://www.w3.org/1999/xlink">
 <defs>
  <style type="text/css">
*{stroke-linecap:butt;stroke-linejoin:round;}
  </style>
 </defs>
 <g id="figure_1">
  <g id="patch_1">
   <path d="M 0 288 
L 432 288 
L 432 0 
L 0 0 
z
" style="fill:#ffffff;"/>
  </g>
  <g id="axes_1">
   <g id="patch_2">
    <path d="M 54 252 
L 388.8 252 
L 388.8 34.56 
L 54 34.56 
z
" style="fill:#ffffff;"/>
   </g>
   <g id="matplotlib.axis_1">
    <g id="xtick_1">
     <g id="line2d_1">
      <defs>
       <path d="M 0 0 
L 0 3.5 
" id="m05c1e9f12c" style="stroke:#000000;stroke-width:0.8;"/>
      </defs>
      <g>
       <use style="stroke:#000000;stroke-width:0.8;" x="69.218182" xlink:href="#m05c1e9f12c" y="252"/>
      </g>
     </g>
     <g id="text_1">
      <!-- 0 -->
      <defs>
       <path d="M 31.78125 66.40625 
Q 24.171875 66.40625 20.328125 58.90625 
Q 16.5 51.421875 16.5 36.375 
Q 16.5 21.390625 20.328125 13.890625 
Q 24.171875 6.390625 31.78125 6.390625 
Q 39.453125 6.390625 43.28125 13.890625 
Q 47.125 21.390625 47.125 36.375 
Q 47.125 51.421875 43.28125 58.90625 
Q 39.453125 66.40625 31.78125 66.40625 
z
M 31.78125 74.21875 
Q 44.046875 74.21875 50.515625 64.515625 
Q 56.984375 54.828125 56.984375 36.375 
Q 56.984375 17.96875 50.515625 8.265625 
Q 44.046875 -1.421875 31.78125 -1.421875 
Q 19.53125 -1.421875 13.0625 8.265625 
Q 6.59375 17.96875 6.59375 36.375 
Q 6.59375 54.828125 13.0625 64.515625 
Q 19.53125 74.21875 31.78125 74.21875 
z
" id="DejaVuSans-48"/>
      </defs>
      <g transform="translate(66.036932 266.598437)scale(0.1 -0.1)">
       <use xlink:href="#DejaVuSans-48"/>
      </g>
     </g>
    </g>
    <g id="xtick_2">
     <g id="line2d_2">
      <g>
       <use style="stroke:#000000;stroke-width:0.8;" x="115.431913" xlink:href="#m05c1e9f12c" y="252"/>
      </g>
     </g>
     <g id="text_2">
      <!-- 500 -->
      <defs>
       <path d="M 10.796875 72.90625 
L 49.515625 72.90625 
L 49.515625 64.59375 
L 19.828125 64.59375 
L 19.828125 46.734375 
Q 21.96875 47.46875 24.109375 47.828125 
Q 26.265625 48.1875 28.421875 48.1875 
Q 40.625 48.1875 47.75 41.5 
Q 54.890625 34.8125 54.890625 23.390625 
Q 54.890625 11.625 47.5625 5.09375 
Q 40.234375 -1.421875 26.90625 -1.421875 
Q 22.3125 -1.421875 17.546875 -0.640625 
Q 12.796875 0.140625 7.71875 1.703125 
L 7.71875 11.625 
Q 12.109375 9.234375 16.796875 8.0625 
Q 21.484375 6.890625 26.703125 6.890625 
Q 35.15625 6.890625 40.078125 11.328125 
Q 45.015625 15.765625 45.015625 23.390625 
Q 45.015625 31 40.078125 35.4375 
Q 35.15625 39.890625 26.703125 39.890625 
Q 22.75 39.890625 18.8125 39.015625 
Q 14.890625 38.140625 10.796875 36.28125 
z
" id="DejaVuSans-53"/>
      </defs>
      <g transform="translate(105.888163 266.598437)scale(0.1 -0.1)">
       <use xlink:href="#DejaVuSans-53"/>
       <use x="63.623047" xlink:href="#DejaVuSans-48"/>
       <use x="127.246094" xlink:href="#DejaVuSans-48"/>
      </g>
     </g>
    </g>
    <g id="xtick_3">
     <g id="line2d_3">
      <g>
       <use style="stroke:#000000;stroke-width:0.8;" x="161.645645" xlink:href="#m05c1e9f12c" y="252"/>
      </g>
     </g>
     <g id="text_3">
      <!-- 1000 -->
      <defs>
       <path d="M 12.40625 8.296875 
L 28.515625 8.296875 
L 28.515625 63.921875 
L 10.984375 60.40625 
L 10.984375 69.390625 
L 28.421875 72.90625 
L 38.28125 72.90625 
L 38.28125 8.296875 
L 54.390625 8.296875 
L 54.390625 0 
L 12.40625 0 
z
" id="DejaVuSans-49"/>
      </defs>
      <g transform="translate(148.920645 266.598437)scale(0.1 -0.1)">
       <use xlink:href="#DejaVuSans-49"/>
       <use x="63.623047" xlink:href="#DejaVuSans-48"/>
       <use x="127.246094" xlink:href="#DejaVuSans-48"/>
       <use x="190.869141" xlink:href="#DejaVuSans-48"/>
      </g>
     </g>
    </g>
    <g id="xtick_4">
     <g id="line2d_4">
      <g>
       <use style="stroke:#000000;stroke-width:0.8;" x="207.859377" xlink:href="#m05c1e9f12c" y="252"/>
      </g>
     </g>
     <g id="text_4">
      <!-- 1500 -->
      <g transform="translate(195.134377 266.598437)scale(0.1 -0.1)">
       <use xlink:href="#DejaVuSans-49"/>
       <use x="63.623047" xlink:href="#DejaVuSans-53"/>
       <use x="127.246094" xlink:href="#DejaVuSans-48"/>
       <use x="190.869141" xlink:href="#DejaVuSans-48"/>
      </g>
     </g>
    </g>
    <g id="xtick_5">
     <g id="line2d_5">
      <g>
       <use style="stroke:#000000;stroke-width:0.8;" x="254.073108" xlink:href="#m05c1e9f12c" y="252"/>
      </g>
     </g>
     <g id="text_5">
      <!-- 2000 -->
      <defs>
       <path d="M 19.1875 8.296875 
L 53.609375 8.296875 
L 53.609375 0 
L 7.328125 0 
L 7.328125 8.296875 
Q 12.9375 14.109375 22.625 23.890625 
Q 32.328125 33.6875 34.8125 36.53125 
Q 39.546875 41.84375 41.421875 45.53125 
Q 43.3125 49.21875 43.3125 52.78125 
Q 43.3125 58.59375 39.234375 62.25 
Q 35.15625 65.921875 28.609375 65.921875 
Q 23.96875 65.921875 18.8125 64.3125 
Q 13.671875 62.703125 7.8125 59.421875 
L 7.8125 69.390625 
Q 13.765625 71.78125 18.9375 73 
Q 24.125 74.21875 28.421875 74.21875 
Q 39.75 74.21875 46.484375 68.546875 
Q 53.21875 62.890625 53.21875 53.421875 
Q 53.21875 48.921875 51.53125 44.890625 
Q 49.859375 40.875 45.40625 35.40625 
Q 44.1875 33.984375 37.640625 27.21875 
Q 31.109375 20.453125 19.1875 8.296875 
z
" id="DejaVuSans-50"/>
      </defs>
      <g transform="translate(241.348108 266.598437)scale(0.1 -0.1)">
       <use xlink:href="#DejaVuSans-50"/>
       <use x="63.623047" xlink:href="#DejaVuSans-48"/>
       <use x="127.246094" xlink:href="#DejaVuSans-48"/>
       <use x="190.869141" xlink:href="#DejaVuSans-48"/>
      </g>
     </g>
    </g>
    <g id="xtick_6">
     <g id="line2d_6">
      <g>
       <use style="stroke:#000000;stroke-width:0.8;" x="300.28684" xlink:href="#m05c1e9f12c" y="252"/>
      </g>
     </g>
     <g id="text_6">
      <!-- 2500 -->
      <g transform="translate(287.56184 266.598437)scale(0.1 -0.1)">
       <use xlink:href="#DejaVuSans-50"/>
       <use x="63.623047" xlink:href="#DejaVuSans-53"/>
       <use x="127.246094" xlink:href="#DejaVuSans-48"/>
       <use x="190.869141" xlink:href="#DejaVuSans-48"/>
      </g>
     </g>
    </g>
    <g id="xtick_7">
     <g id="line2d_7">
      <g>
       <use style="stroke:#000000;stroke-width:0.8;" x="346.500571" xlink:href="#m05c1e9f12c" y="252"/>
      </g>
     </g>
     <g id="text_7">
      <!-- 3000 -->
      <defs>
       <path d="M 40.578125 39.3125 
Q 47.65625 37.796875 51.625 33 
Q 55.609375 28.21875 55.609375 21.1875 
Q 55.609375 10.40625 48.1875 4.484375 
Q 40.765625 -1.421875 27.09375 -1.421875 
Q 22.515625 -1.421875 17.65625 -0.515625 
Q 12.796875 0.390625 7.625 2.203125 
L 7.625 11.71875 
Q 11.71875 9.328125 16.59375 8.109375 
Q 21.484375 6.890625 26.8125 6.890625 
Q 36.078125 6.890625 40.9375 10.546875 
Q 45.796875 14.203125 45.796875 21.1875 
Q 45.796875 27.640625 41.28125 31.265625 
Q 36.765625 34.90625 28.71875 34.90625 
L 20.21875 34.90625 
L 20.21875 43.015625 
L 29.109375 43.015625 
Q 36.375 43.015625 40.234375 45.921875 
Q 44.09375 48.828125 44.09375 54.296875 
Q 44.09375 59.90625 40.109375 62.90625 
Q 36.140625 65.921875 28.71875 65.921875 
Q 24.65625 65.921875 20.015625 65.03125 
Q 15.375 64.15625 9.8125 62.3125 
L 9.8125 71.09375 
Q 15.4375 72.65625 20.34375 73.4375 
Q 25.25 74.21875 29.59375 74.21875 
Q 40.828125 74.21875 47.359375 69.109375 
Q 53.90625 64.015625 53.90625 55.328125 
Q 53.90625 49.265625 50.4375 45.09375 
Q 46.96875 40.921875 40.578125 39.3125 
z
" id="DejaVuSans-51"/>
      </defs>
      <g transform="translate(333.775571 266.598437)scale(0.1 -0.1)">
       <use xlink:href="#DejaVuSans-51"/>
       <use x="63.623047" xlink:href="#DejaVuSans-48"/>
       <use x="127.246094" xlink:href="#DejaVuSans-48"/>
       <use x="190.869141" xlink:href="#DejaVuSans-48"/>
      </g>
     </g>
    </g>
   </g>
   <g id="matplotlib.axis_2">
    <g id="ytick_1">
     <g id="line2d_8">
      <defs>
       <path d="M 0 0 
L -3.5 0 
" id="m5d6966b52d" style="stroke:#000000;stroke-width:0.8;"/>
      </defs>
      <g>
       <use style="stroke:#000000;stroke-width:0.8;" x="54" xlink:href="#m5d6966b52d" y="228.705736"/>
      </g>
     </g>
     <g id="text_8">
      <!-- −35000 -->
      <defs>
       <path d="M 10.59375 35.5 
L 73.1875 35.5 
L 73.1875 27.203125 
L 10.59375 27.203125 
z
" id="DejaVuSans-8722"/>
      </defs>
      <g transform="translate(6.807812 232.504954)scale(0.1 -0.1)">
       <use xlink:href="#DejaVuSans-8722"/>
       <use x="83.789062" xlink:href="#DejaVuSans-51"/>
       <use x="147.412109" xlink:href="#DejaVuSans-53"/>
       <use x="211.035156" xlink:href="#DejaVuSans-48"/>
       <use x="274.658203" xlink:href="#DejaVuSans-48"/>
       <use x="338.28125" xlink:href="#DejaVuSans-48"/>
      </g>
     </g>
    </g>
    <g id="ytick_2">
     <g id="line2d_9">
      <g>
       <use style="stroke:#000000;stroke-width:0.8;" x="54" xlink:href="#m5d6966b52d" y="202.595256"/>
      </g>
     </g>
     <g id="text_9">
      <!-- −30000 -->
      <g transform="translate(6.807812 206.394475)scale(0.1 -0.1)">
       <use xlink:href="#DejaVuSans-8722"/>
       <use x="83.789062" xlink:href="#DejaVuSans-51"/>
       <use x="147.412109" xlink:href="#DejaVuSans-48"/>
       <use x="211.035156" xlink:href="#DejaVuSans-48"/>
       <use x="274.658203" xlink:href="#DejaVuSans-48"/>
       <use x="338.28125" xlink:href="#DejaVuSans-48"/>
      </g>
     </g>
    </g>
    <g id="ytick_3">
     <g id="line2d_10">
      <g>
       <use style="stroke:#000000;stroke-width:0.8;" x="54" xlink:href="#m5d6966b52d" y="176.484776"/>
      </g>
     </g>
     <g id="text_10">
      <!-- −25000 -->
      <g transform="translate(6.807812 180.283995)scale(0.1 -0.1)">
       <use xlink:href="#DejaVuSans-8722"/>
       <use x="83.789062" xlink:href="#DejaVuSans-50"/>
       <use x="147.412109" xlink:href="#DejaVuSans-53"/>
       <use x="211.035156" xlink:href="#DejaVuSans-48"/>
       <use x="274.658203" xlink:href="#DejaVuSans-48"/>
       <use x="338.28125" xlink:href="#DejaVuSans-48"/>
      </g>
     </g>
    </g>
    <g id="ytick_4">
     <g id="line2d_11">
      <g>
       <use style="stroke:#000000;stroke-width:0.8;" x="54" xlink:href="#m5d6966b52d" y="150.374297"/>
      </g>
     </g>
     <g id="text_11">
      <!-- −20000 -->
      <g transform="translate(6.807812 154.173516)scale(0.1 -0.1)">
       <use xlink:href="#DejaVuSans-8722"/>
       <use x="83.789062" xlink:href="#DejaVuSans-50"/>
       <use x="147.412109" xlink:href="#DejaVuSans-48"/>
       <use x="211.035156" xlink:href="#DejaVuSans-48"/>
       <use x="274.658203" xlink:href="#DejaVuSans-48"/>
       <use x="338.28125" xlink:href="#DejaVuSans-48"/>
      </g>
     </g>
    </g>
    <g id="ytick_5">
     <g id="line2d_12">
      <g>
       <use style="stroke:#000000;stroke-width:0.8;" x="54" xlink:href="#m5d6966b52d" y="124.263817"/>
      </g>
     </g>
     <g id="text_12">
      <!-- −15000 -->
      <g transform="translate(6.807812 128.063036)scale(0.1 -0.1)">
       <use xlink:href="#DejaVuSans-8722"/>
       <use x="83.789062" xlink:href="#DejaVuSans-49"/>
       <use x="147.412109" xlink:href="#DejaVuSans-53"/>
       <use x="211.035156" xlink:href="#DejaVuSans-48"/>
       <use x="274.658203" xlink:href="#DejaVuSans-48"/>
       <use x="338.28125" xlink:href="#DejaVuSans-48"/>
      </g>
     </g>
    </g>
    <g id="ytick_6">
     <g id="line2d_13">
      <g>
       <use style="stroke:#000000;stroke-width:0.8;" x="54" xlink:href="#m5d6966b52d" y="98.153338"/>
      </g>
     </g>
     <g id="text_13">
      <!-- −10000 -->
      <g transform="translate(6.807812 101.952556)scale(0.1 -0.1)">
       <use xlink:href="#DejaVuSans-8722"/>
       <use x="83.789062" xlink:href="#DejaVuSans-49"/>
       <use x="147.412109" xlink:href="#DejaVuSans-48"/>
       <use x="211.035156" xlink:href="#DejaVuSans-48"/>
       <use x="274.658203" xlink:href="#DejaVuSans-48"/>
       <use x="338.28125" xlink:href="#DejaVuSans-48"/>
      </g>
     </g>
    </g>
    <g id="ytick_7">
     <g id="line2d_14">
      <g>
       <use style="stroke:#000000;stroke-width:0.8;" x="54" xlink:href="#m5d6966b52d" y="72.042858"/>
      </g>
     </g>
     <g id="text_14">
      <!-- −5000 -->
      <g transform="translate(13.170313 75.842077)scale(0.1 -0.1)">
       <use xlink:href="#DejaVuSans-8722"/>
       <use x="83.789062" xlink:href="#DejaVuSans-53"/>
       <use x="147.412109" xlink:href="#DejaVuSans-48"/>
       <use x="211.035156" xlink:href="#DejaVuSans-48"/>
       <use x="274.658203" xlink:href="#DejaVuSans-48"/>
      </g>
     </g>
    </g>
    <g id="ytick_8">
     <g id="line2d_15">
      <g>
       <use style="stroke:#000000;stroke-width:0.8;" x="54" xlink:href="#m5d6966b52d" y="45.932378"/>
      </g>
     </g>
     <g id="text_15">
      <!-- 0 -->
      <g transform="translate(40.6375 49.731597)scale(0.1 -0.1)">
       <use xlink:href="#DejaVuSans-48"/>
      </g>
     </g>
    </g>
   </g>
   <g id="line2d_16">
    <path clip-path="url(#p6f006831fe)" d="M 69.218182 87.505815 
L 69.310609 88.031447 
L 69.403037 87.615967 
L 69.495464 88.139997 
L 69.680319 83.256184 
L 69.772747 85.640982 
L 69.865174 80.899094 
L 69.957602 82.014504 
L 70.050029 78.980163 
L 70.142456 79.970221 
L 70.234884 76.092609 
L 70.419739 79.310429 
L 70.512166 83.362141 
L 70.604594 75.089135 
L 70.697021 82.314767 
L 70.881876 76.402701 
L 70.974304 80.901114 
L 71.159159 77.922665 
L 71.251586 76.900412 
L 71.344013 71.688525 
L 71.436441 76.630811 
L 71.621296 71.823255 
L 71.713723 72.764106 
L 71.806151 77.258309 
L 71.898578 76.557164 
L 71.991006 71.837613 
L 72.175861 77.581992 
L 72.360716 70.235737 
L 72.453143 72.319754 
L 72.54557 70.905693 
L 72.637998 72.195459 
L 72.730425 68.835224 
L 72.822853 72.732756 
L 72.91528 69.441821 
L 73.007708 70.060935 
L 73.100135 69.65928 
L 73.28499 70.95695 
L 73.562273 68.202266 
L 73.6547 70.957955 
L 73.747128 70.637166 
L 73.839555 67.678596 
L 73.931982 69.335818 
L 74.02441 66.704514 
L 74.116837 69.071348 
L 74.301692 66.329664 
L 74.39412 66.556609 
L 74.486547 67.275898 
L 74.578975 69.118752 
L 74.671402 67.2439 
L 74.76383 68.249798 
L 74.948685 66.0162 
L 75.041112 65.726465 
L 75.133539 64.894183 
L 75.225967 65.607821 
L 75.318394 65.197277 
L 75.410822 69.051352 
L 75.688104 64.984531 
L 75.872959 67.598393 
L 76.057814 63.800148 
L 76.150242 65.85949 
L 76.242669 65.551264 
L 76.335096 65.242246 
L 76.427524 65.957761 
L 76.704806 62.700342 
L 76.889661 67.071193 
L 76.982089 63.470951 
L 77.074516 63.786409 
L 77.166944 63.202667 
L 77.259371 64.620081 
L 77.444226 62.613944 
L 77.629081 63.602331 
L 77.721508 60.157128 
L 77.813936 63.309415 
L 77.906363 62.434249 
L 77.998791 63.110639 
L 78.091218 61.285289 
L 78.368501 65.984641 
L 78.460928 59.31091 
L 78.645783 62.76507 
L 78.738211 62.729298 
L 78.830638 65.144541 
L 78.923065 63.354247 
L 79.015493 64.961387 
L 79.10792 62.264077 
L 79.200348 64.148099 
L 79.292775 58.876372 
L 79.385203 59.596147 
L 79.662485 64.721966 
L 79.754913 62.022392 
L 79.84734 62.636808 
L 80.032195 58.084703 
L 80.124622 63.981027 
L 80.21705 59.984551 
L 80.309477 60.256452 
L 80.401905 59.899071 
L 80.494332 61.68782 
L 80.58676 60.379886 
L 80.679187 61.953001 
L 80.771615 61.21789 
L 80.864042 58.308825 
L 80.95647 62.409862 
L 81.233752 57.41676 
L 81.418607 60.304379 
L 81.603462 58.581944 
L 81.695889 63.02016 
L 81.788317 58.388782 
L 81.880744 59.189183 
L 81.973172 61.80519 
L 82.065599 60.175361 
L 82.158027 60.623422 
L 82.342882 59.669564 
L 82.527737 60.767347 
L 82.712591 57.743314 
L 82.897446 60.731566 
L 82.989874 60.384665 
L 83.082301 59.415905 
L 83.267156 61.688217 
L 83.359584 60.290986 
L 83.452011 61.508085 
L 83.821721 57.893102 
L 83.914148 60.7203 
L 84.006576 57.141187 
L 84.283858 62.061035 
L 84.376286 58.18459 
L 84.468713 58.374766 
L 84.561141 57.798661 
L 84.653568 56.222179 
L 84.745996 57.75187 
L 84.838423 61.418559 
L 84.930851 57.917222 
L 85.023278 61.298486 
L 85.115705 57.806596 
L 85.208133 58.348481 
L 85.30056 61.985185 
L 85.392988 57.056126 
L 85.485415 58.619754 
L 85.577843 58.44482 
L 85.67027 58.322686 
L 85.762698 58.009189 
L 85.947553 58.520902 
L 86.03998 56.549297 
L 86.224835 61.311224 
L 86.317263 56.71374 
L 86.40969 56.898624 
L 86.502117 59.797209 
L 86.594545 57.000242 
L 86.686972 58.026186 
L 86.7794 61.010981 
L 86.871827 56.243043 
L 86.964255 56.87256 
L 87.056682 59.617457 
L 87.241537 57.372065 
L 87.426392 58.65767 
L 87.611247 55.6604 
L 87.703674 57.454443 
L 87.796102 56.691755 
L 87.980957 58.543572 
L 88.073384 55.149378 
L 88.258239 58.99799 
L 88.350667 55.261271 
L 88.535522 58.148695 
L 88.720377 58.252278 
L 88.905231 55.890873 
L 88.997659 57.913584 
L 89.090086 55.758091 
L 89.182514 57.657391 
L 89.274941 55.615988 
L 89.367369 57.918414 
L 89.644651 55.382284 
L 89.737079 57.181259 
L 89.829506 56.585694 
L 89.921934 55.123047 
L 90.014361 58.299657 
L 90.106789 58.110346 
L 90.199216 54.498977 
L 90.291643 56.106427 
L 90.384071 55.380867 
L 90.476498 57.14327 
L 90.568926 56.575008 
L 90.753781 57.837935 
L 90.846208 56.594954 
L 90.938636 57.63117 
L 91.031063 53.747346 
L 91.215918 57.078625 
L 91.308346 57.080134 
L 91.400773 56.292685 
L 91.585628 54.393328 
L 91.678055 54.350715 
L 91.770483 57.383311 
L 91.955338 54.747003 
L 92.047765 56.088081 
L 92.23262 55.387947 
L 92.325048 58.133289 
L 92.417475 57.64568 
L 92.509903 55.497626 
L 92.60233 56.105474 
L 92.694757 55.960426 
L 92.787185 57.355953 
L 92.97204 53.527497 
L 93.064467 55.727356 
L 93.156895 55.539576 
L 93.249322 56.155545 
L 93.434177 55.243161 
L 93.526605 53.889852 
L 93.619032 55.210791 
L 93.803887 54.338825 
L 93.896314 55.584206 
L 93.988742 54.12778 
L 94.081169 54.288027 
L 94.173597 54.398726 
L 94.266024 56.635327 
L 94.358452 56.136138 
L 94.450879 54.856474 
L 94.543307 55.037493 
L 94.635734 55.114223 
L 94.728162 54.660885 
L 94.820589 55.603622 
L 95.097872 53.960004 
L 95.190299 56.51352 
L 95.282726 53.246084 
L 95.375154 53.40416 
L 95.467581 55.096969 
L 95.560009 54.812515 
L 95.652436 54.497867 
L 95.744864 53.499657 
L 96.022146 54.861195 
L 96.114574 54.962956 
L 96.207001 55.858116 
L 96.484283 52.959192 
L 96.576711 54.482771 
L 96.669138 53.581897 
L 96.946421 54.442953 
L 97.038848 54.171244 
L 97.131276 52.619974 
L 97.223703 55.209043 
L 97.316131 53.40294 
L 97.408558 53.480201 
L 97.500986 54.557244 
L 97.593413 54.152878 
L 97.68584 54.760421 
L 97.778268 54.495204 
L 97.870695 54.909993 
L 97.963123 51.917499 
L 98.05555 53.439477 
L 98.147978 53.379772 
L 98.332833 54.390806 
L 98.42526 53.301633 
L 98.517688 55.091489 
L 98.702543 52.186203 
L 98.79497 53.674749 
L 98.887398 53.1892 
L 98.979825 53.472057 
L 99.072252 54.407382 
L 99.16468 54.007742 
L 99.257107 51.428792 
L 99.349535 54.051576 
L 99.441962 53.196416 
L 99.53439 54.201319 
L 99.719245 52.869654 
L 99.811672 53.03256 
L 99.9041 53.641179 
L 100.088955 51.489705 
L 100.181382 52.890641 
L 100.273809 52.496553 
L 100.366237 53.993856 
L 100.458664 53.916386 
L 100.643519 52.063089 
L 100.735947 52.061979 
L 100.920802 54.483002 
L 101.013229 52.758319 
L 101.105657 53.594792 
L 101.198084 50.764274 
L 101.290512 52.993253 
L 101.382939 51.999944 
L 101.567794 54.540558 
L 101.845076 51.423306 
L 101.937504 53.181007 
L 102.122359 50.880412 
L 102.214786 53.908111 
L 102.492069 51.106964 
L 102.584496 52.765829 
L 102.676924 51.597592 
L 102.861778 53.127121 
L 103.046633 51.316605 
L 103.139061 51.705794 
L 103.231488 51.548025 
L 103.323916 51.929364 
L 103.416343 50.868055 
L 103.508771 51.517743 
L 103.601198 53.155936 
L 103.693626 51.301531 
L 103.878481 51.884527 
L 103.970908 50.659531 
L 104.063335 53.503125 
L 104.340618 51.190873 
L 104.433045 51.762374 
L 104.525473 50.972134 
L 104.6179 51.557678 
L 104.710328 50.92505 
L 104.802755 51.582524 
L 104.895183 51.017582 
L 105.172465 52.761926 
L 105.35732 49.984503 
L 105.449747 52.492647 
L 105.542175 52.257217 
L 105.72703 50.671647 
L 105.819457 50.004155 
L 105.911885 51.103575 
L 106.004312 50.937233 
L 106.09674 50.653624 
L 106.189167 50.714306 
L 106.281595 51.260328 
L 106.374022 50.455024 
L 106.466449 50.890289 
L 106.558877 52.450982 
L 106.651304 50.295988 
L 106.743732 50.923799 
L 106.836159 50.59319 
L 106.928587 51.31328 
L 107.021014 50.802823 
L 107.113442 51.023589 
L 107.205869 49.47157 
L 107.298297 51.237857 
L 107.390724 50.55895 
L 107.483152 50.678517 
L 107.575579 50.914876 
L 107.668007 52.697558 
L 107.852861 50.269319 
L 107.945289 50.877113 
L 108.037716 50.752856 
L 108.130144 50.026683 
L 108.222571 51.876477 
L 108.314999 50.538865 
L 108.407426 51.271442 
L 108.499854 50.162211 
L 108.592281 51.537004 
L 108.684709 49.666362 
L 108.869564 51.261372 
L 109.146846 50.122769 
L 109.239273 50.309678 
L 109.331701 49.781516 
L 109.424128 49.857643 
L 109.516556 50.013835 
L 109.608983 49.704803 
L 109.793838 51.361708 
L 109.886266 50.380325 
L 109.978693 51.074945 
L 110.071121 49.894324 
L 110.163548 49.991597 
L 110.348403 51.092014 
L 110.533258 49.635756 
L 110.718113 49.863645 
L 110.81054 49.457546 
L 110.902968 50.729836 
L 110.995395 48.670743 
L 111.087823 49.779619 
L 111.18025 52.836852 
L 111.457533 49.054996 
L 111.54996 50.661481 
L 111.642387 49.496793 
L 111.734815 49.888326 
L 111.827242 48.738985 
L 112.012097 49.914553 
L 112.104525 51.408102 
L 112.196952 49.526141 
L 112.28938 50.107461 
L 112.381807 50.029433 
L 112.474235 50.262781 
L 112.566662 49.283511 
L 112.65909 49.896557 
L 112.843944 48.801728 
L 113.028799 49.440053 
L 113.121227 49.833397 
L 113.213654 49.353529 
L 113.306082 50.550828 
L 113.490937 48.749651 
L 113.583364 48.105737 
L 113.675792 49.280919 
L 113.768219 48.726446 
L 113.860647 49.678171 
L 113.953074 48.568108 
L 114.045501 49.208597 
L 114.137929 49.048102 
L 114.230356 49.701692 
L 114.322784 49.101551 
L 114.415211 49.817755 
L 114.600066 48.251607 
L 114.692494 48.126477 
L 114.784921 49.928427 
L 114.969776 49.168751 
L 115.062204 49.493817 
L 115.154631 48.836843 
L 115.247058 49.781287 
L 115.339486 48.623904 
L 115.431913 49.507371 
L 115.524341 47.980733 
L 115.709196 49.345864 
L 115.894051 48.919765 
L 115.986478 49.607382 
L 116.171333 48.042554 
L 116.263761 47.707578 
L 116.356188 49.36474 
L 116.448616 48.516724 
L 116.541043 48.804323 
L 116.63347 48.513189 
L 116.725898 48.849571 
L 116.818325 48.614356 
L 116.910753 49.863415 
L 117.00318 48.407917 
L 117.095608 48.494439 
L 117.188035 47.676237 
L 117.280463 48.332435 
L 117.37289 47.890758 
L 117.557745 48.591398 
L 117.650173 47.381552 
L 117.7426 48.421345 
L 117.835027 48.033218 
L 118.019882 48.638151 
L 118.11231 47.770143 
L 118.204737 47.98027 
L 118.297165 48.847976 
L 118.389592 48.155192 
L 118.48202 49.284412 
L 118.574447 48.169206 
L 118.666875 49.186992 
L 118.944157 47.647141 
L 119.221439 48.708011 
L 119.406294 47.945969 
L 119.498722 48.669001 
L 119.683577 47.969326 
L 119.868432 47.763729 
L 119.960859 48.45407 
L 120.145714 47.45858 
L 120.238142 47.770532 
L 120.330569 49.638821 
L 120.515424 47.626453 
L 120.607851 48.717906 
L 120.792706 47.267945 
L 120.885134 48.036862 
L 120.977561 47.779437 
L 121.069989 47.94612 
L 121.162416 48.523945 
L 121.347271 47.794622 
L 121.532126 47.330731 
L 121.624553 48.147487 
L 121.716981 47.593822 
L 121.809408 48.017971 
L 121.901836 47.894504 
L 121.994263 47.159481 
L 122.086691 48.631463 
L 122.179118 47.539339 
L 122.271546 48.506664 
L 122.363973 47.408492 
L 122.456401 47.768879 
L 122.548828 47.723571 
L 122.733683 47.627925 
L 122.82611 47.310213 
L 122.918538 48.471438 
L 123.010965 47.001045 
L 123.103393 47.636853 
L 123.19582 47.460732 
L 123.288248 47.538437 
L 123.380675 47.018457 
L 123.56553 48.307271 
L 123.842813 47.040554 
L 124.027668 46.908059 
L 124.120095 47.701396 
L 124.30495 46.710689 
L 124.397377 47.563966 
L 124.582232 47.113355 
L 124.67466 47.246368 
L 124.767087 47.697182 
L 124.859515 47.238441 
L 124.951942 48.206869 
L 125.229225 46.959095 
L 125.321652 46.821626 
L 125.414079 47.314111 
L 125.506507 47.296154 
L 125.598934 47.027342 
L 125.691362 47.772217 
L 125.783789 47.578071 
L 125.876217 46.84693 
L 125.968644 47.301124 
L 126.061072 46.900017 
L 126.153499 47.912372 
L 126.245927 46.704561 
L 126.338354 47.353723 
L 126.430782 46.496085 
L 126.523209 47.570987 
L 126.615636 46.338147 
L 126.800491 47.200035 
L 126.892919 47.009062 
L 126.985346 47.223385 
L 127.077774 46.720526 
L 127.170201 47.300024 
L 127.262629 46.959313 
L 127.355056 47.468864 
L 127.447484 47.178773 
L 127.539911 47.449351 
L 127.632339 46.507801 
L 127.724766 47.310101 
L 127.909621 46.638114 
L 128.094476 47.503138 
L 128.186903 46.387298 
L 128.279331 47.172469 
L 128.371758 46.471517 
L 128.556613 47.257997 
L 128.649041 47.219012 
L 128.833896 46.767841 
L 128.926323 47.246095 
L 129.018751 46.755445 
L 129.111178 47.162298 
L 129.203605 46.526309 
L 129.296033 46.62681 
L 129.480888 46.756166 
L 129.573315 46.042623 
L 129.75817 47.254245 
L 130.035453 46.540682 
L 130.12788 47.058836 
L 130.220308 46.310257 
L 130.312735 47.350993 
L 130.405162 46.317311 
L 130.49759 46.719868 
L 130.590017 46.439387 
L 130.682445 46.771327 
L 130.774872 46.475667 
L 130.959727 47.276926 
L 131.144582 46.208109 
L 131.23701 46.171404 
L 131.329437 46.469311 
L 131.421865 46.365717 
L 131.514292 46.833175 
L 131.606719 46.692453 
L 131.791574 46.906945 
L 131.976429 46.630451 
L 132.068857 46.994801 
L 132.346139 46.556013 
L 132.438567 46.354536 
L 132.530994 46.462911 
L 132.623422 46.310884 
L 132.715849 46.891071 
L 132.900704 46.054673 
L 132.993131 47.133922 
L 133.177986 45.890277 
L 133.270414 46.793199 
L 133.455269 46.339245 
L 133.547696 46.626648 
L 133.824979 46.374883 
L 133.917406 46.525872 
L 134.009834 46.437547 
L 134.102261 46.722958 
L 134.194688 46.163789 
L 134.379543 46.812702 
L 134.471971 46.143804 
L 134.564398 46.721529 
L 134.656826 46.070719 
L 134.749253 46.647261 
L 134.934108 46.032866 
L 135.118963 46.465704 
L 135.211391 46.307207 
L 135.303818 46.442352 
L 135.488673 46.074565 
L 135.673528 46.468296 
L 135.765955 46.310319 
L 135.95081 46.605013 
L 136.043238 45.990992 
L 136.228093 46.524809 
L 136.32052 46.051593 
L 136.412948 46.202976 
L 136.505375 46.066708 
L 136.597803 46.474406 
L 136.782657 45.957117 
L 136.875085 46.666656 
L 137.152367 45.793185 
L 137.337222 46.228389 
L 137.42965 46.224686 
L 137.614505 46.391463 
L 137.79936 45.7821 
L 137.891787 45.85889 
L 137.984214 46.421505 
L 138.076642 46.363217 
L 138.169069 45.984182 
L 138.261497 46.269667 
L 138.353924 46.130005 
L 138.446352 46.269732 
L 138.538779 45.838804 
L 138.631207 46.313329 
L 138.723634 45.936624 
L 138.908489 46.270498 
L 139.000917 45.725557 
L 139.185771 46.361119 
L 139.278199 46.253135 
L 139.370626 45.949682 
L 139.463054 46.242157 
L 139.555481 46.169074 
L 139.647909 45.924092 
L 139.740336 46.350966 
L 139.925191 46.129434 
L 140.017619 46.054897 
L 140.202474 46.232256 
L 140.294901 45.8703 
L 140.479756 46.272967 
L 140.664611 45.671535 
L 140.757038 45.702366 
L 140.941893 46.193679 
L 141.126748 45.852299 
L 141.311603 46.169085 
L 141.404031 45.891998 
L 141.496458 45.938002 
L 141.588886 46.098268 
L 141.77374 45.847751 
L 141.866168 45.511388 
L 142.051023 46.09991 
L 142.14345 45.864069 
L 142.235878 46.029893 
L 142.51316 45.811537 
L 142.698015 45.921575 
L 142.790443 45.435746 
L 142.88287 46.087856 
L 143.067725 45.58357 
L 143.160152 46.007831 
L 143.25258 45.42708 
L 143.345007 45.552364 
L 143.437435 45.561793 
L 143.529862 46.19195 
L 143.62229 45.889899 
L 143.807145 46.156249 
L 143.992 45.776144 
L 144.084427 45.481849 
L 144.176854 45.663011 
L 144.269282 45.504448 
L 144.454137 46.063412 
L 144.638992 45.535284 
L 144.823847 46.178059 
L 144.916274 45.933842 
L 145.008702 45.862058 
L 145.193557 45.54243 
L 145.285984 45.57147 
L 145.378412 45.813982 
L 145.470839 45.762171 
L 145.655694 45.964948 
L 145.748121 45.989981 
L 145.840549 45.800392 
L 145.932976 45.920798 
L 146.117831 45.419448 
L 146.210259 45.607359 
L 146.302686 45.502652 
L 146.395114 45.770356 
L 146.487541 45.422468 
L 146.579969 45.897625 
L 146.764823 45.650073 
L 146.949678 45.564549 
L 147.042106 45.760658 
L 147.226961 45.515003 
L 147.319388 45.681007 
L 147.411816 45.539406 
L 147.504243 45.857941 
L 147.596671 45.805979 
L 147.873953 45.630892 
L 147.96638 45.181306 
L 148.243663 45.768817 
L 148.33609 45.525178 
L 148.428518 45.673249 
L 148.613373 45.565075 
L 148.7058 45.755571 
L 148.890655 45.377772 
L 149.167937 45.446524 
L 149.260365 45.768932 
L 149.352792 45.458875 
L 149.44522 45.752773 
L 149.537647 45.45419 
L 149.630075 45.782415 
L 149.81493 45.442337 
L 149.907357 45.515837 
L 149.999785 45.16877 
L 150.18464 45.996565 
L 150.277067 45.511557 
L 150.369495 45.55054 
L 150.461922 45.658787 
L 150.554349 45.477873 
L 150.646777 45.672963 
L 150.739204 45.592769 
L 150.831632 45.349907 
L 151.016487 45.689748 
L 151.108914 45.32231 
L 151.293769 45.816235 
L 151.386197 45.39662 
L 151.478624 45.482806 
L 151.571052 45.547021 
L 151.663479 45.406846 
L 151.755906 45.482662 
L 151.940761 45.398733 
L 152.218044 45.659425 
L 152.310471 45.391271 
L 152.402899 45.529146 
L 152.587754 45.317819 
L 152.680181 45.479144 
L 152.772609 45.423387 
L 152.957463 45.566818 
L 153.234746 45.32051 
L 153.512028 45.46971 
L 153.696883 45.222039 
L 153.789311 45.274276 
L 153.881738 45.905485 
L 153.974166 45.503341 
L 154.066593 45.553234 
L 154.159021 45.49545 
L 154.343875 45.710561 
L 154.436303 45.012335 
L 154.52873 45.488956 
L 154.621158 45.467685 
L 154.713585 45.192211 
L 154.806013 45.362939 
L 154.89844 45.213813 
L 155.083295 45.588464 
L 155.175723 45.245453 
L 155.26815 45.271982 
L 155.545432 45.422632 
L 155.63786 45.250755 
L 155.730287 45.345885 
L 155.822715 45.146219 
L 155.915142 45.542016 
L 156.192425 45.244031 
L 156.284852 45.438774 
L 156.469707 45.288091 
L 156.562135 45.2652 
L 156.654562 45.408601 
L 156.839417 45.265972 
L 156.931844 45.554964 
L 157.024272 45.099436 
L 157.116699 45.373587 
L 157.209127 45.334441 
L 157.301554 45.276057 
L 157.393982 45.458292 
L 157.486409 45.373916 
L 157.578837 45.45491 
L 157.671264 45.29212 
L 157.763692 45.380351 
L 157.856119 45.252615 
L 157.948547 45.514863 
L 158.133401 45.202244 
L 158.225829 45.395073 
L 158.595539 45.141095 
L 158.687966 45.290741 
L 158.780394 45.180979 
L 158.872821 45.466323 
L 158.965249 45.128695 
L 159.057676 45.259923 
L 159.150104 45.106645 
L 159.427386 45.345948 
L 159.612241 45.075466 
L 159.704668 45.290422 
L 159.797096 45.029583 
L 159.889523 45.375038 
L 159.981951 45.059469 
L 160.074378 45.170073 
L 160.166806 45.094794 
L 160.351661 45.238788 
L 160.444088 45.041081 
L 160.536515 45.119347 
L 160.628943 45.368767 
L 160.813798 45.065361 
L 160.906225 45.350231 
L 161.09108 45.257527 
L 161.368363 45.069438 
L 161.46079 45.208458 
L 161.553218 45.050898 
L 161.738072 45.150759 
L 161.8305 45.044173 
L 161.922927 45.398116 
L 162.107782 45.119072 
L 162.20021 45.060002 
L 162.292637 45.228487 
L 162.385065 45.147611 
L 162.477492 45.260925 
L 162.56992 44.967868 
L 162.662347 45.333633 
L 162.847202 45.003844 
L 162.93963 45.512338 
L 163.032057 45.120993 
L 163.124484 45.178908 
L 163.216912 45.349611 
L 163.401767 44.927426 
L 163.586622 45.07611 
L 163.863904 45.137451 
L 163.956332 45.175992 
L 164.141187 44.996306 
L 164.233614 45.431567 
L 164.326041 45.10393 
L 164.418469 45.23669 
L 164.510896 44.943885 
L 164.603324 45.124715 
L 164.695751 44.875284 
L 164.880606 45.37093 
L 164.973034 44.956179 
L 165.065461 45.175924 
L 165.250316 45.021582 
L 165.435171 45.020895 
L 165.527598 44.904966 
L 165.712453 45.189211 
L 165.804881 44.938255 
L 165.897308 45.161914 
L 166.082163 44.940944 
L 166.174591 45.437228 
L 166.359446 44.944379 
L 166.544301 45.235062 
L 166.636728 44.902729 
L 166.729156 44.97049 
L 166.821583 45.211512 
L 166.91401 44.903783 
L 167.098865 45.140485 
L 167.191293 44.987021 
L 167.28372 45.290322 
L 167.376148 44.872127 
L 167.468575 44.949894 
L 167.561003 44.985254 
L 167.65343 45.500393 
L 167.838285 44.922971 
L 168.300422 45.265619 
L 168.39285 44.856951 
L 168.485277 45.065137 
L 168.577705 44.867215 
L 168.670132 45.064427 
L 168.854987 44.842827 
L 168.947415 44.970534 
L 169.039842 44.907223 
L 169.13227 45.228848 
L 169.317124 44.963889 
L 169.779262 45.211401 
L 169.871689 44.887294 
L 169.964117 45.078371 
L 170.148972 44.843924 
L 170.241399 45.045204 
L 170.426254 44.95573 
L 170.518682 44.903609 
L 170.611109 45.055458 
L 170.795964 44.898218 
L 170.888391 45.123336 
L 171.073246 44.822109 
L 171.350529 45.128941 
L 171.535384 44.829547 
L 171.627811 45.189226 
L 171.812666 44.893049 
L 171.905093 44.895644 
L 172.089948 45.068664 
L 172.274803 44.827571 
L 172.459658 45.018512 
L 172.552086 44.838907 
L 172.644513 45.06127 
L 172.736941 45.006425 
L 172.921796 44.953588 
L 173.10665 44.964732 
L 173.199078 45.020636 
L 173.291505 44.748908 
L 173.383933 44.804527 
L 173.568788 44.97493 
L 173.661215 44.760638 
L 173.84607 44.98846 
L 173.938498 44.757672 
L 174.030925 45.078105 
L 174.123353 44.82642 
L 174.21578 44.951476 
L 174.400635 44.857889 
L 174.58549 44.855933 
L 174.770345 44.910656 
L 175.047627 44.837076 
L 175.140055 44.840167 
L 175.232482 45.012286 
L 175.32491 44.859397 
L 175.509765 44.947145 
L 175.602192 44.757951 
L 175.787047 44.883289 
L 175.879474 44.782733 
L 176.249184 45.034207 
L 176.341612 44.731776 
L 176.526467 44.874436 
L 176.711322 44.825618 
L 176.803749 44.915381 
L 176.988604 44.81627 
L 177.358314 44.94783 
L 177.450741 44.841658 
L 177.543169 44.941346 
L 177.820451 44.80618 
L 178.005306 44.852332 
L 178.559871 44.916297 
L 178.652298 44.771303 
L 178.744726 44.955557 
L 179.022008 44.78418 
L 179.114436 44.968583 
L 179.299291 44.875302 
L 179.391718 44.774511 
L 179.484145 45.020527 
L 179.669 44.76548 
L 179.761428 44.92978 
L 179.946283 44.830149 
L 180.131138 44.775557 
L 180.223565 44.81124 
L 180.315993 45.008817 
L 180.500848 44.766902 
L 180.593275 44.998621 
L 180.685702 44.735364 
L 180.77813 44.787043 
L 181.794832 44.83188 
L 181.887259 44.719705 
L 181.979687 44.949821 
L 182.072114 44.704843 
L 182.164542 44.942677 
L 182.256969 44.694517 
L 182.349397 44.874188 
L 182.441824 44.763454 
L 182.534252 44.927329 
L 182.719107 44.738891 
L 183.366099 44.901304 
L 183.550954 44.992721 
L 183.735809 44.794942 
L 183.920664 44.802696 
L 184.013091 44.623525 
L 184.290374 44.902502 
L 184.382801 44.87873 
L 184.567656 44.762394 
L 184.660083 44.695685 
L 184.937366 44.896921 
L 185.307076 44.661534 
L 185.491931 44.722807 
L 185.769213 44.891602 
L 185.954068 44.697898 
L 186.138923 44.853449 
L 186.323778 44.719357 
L 186.416205 44.68442 
L 186.60106 44.854268 
L 186.878342 44.746328 
L 186.97077 44.823739 
L 187.063197 44.650725 
L 187.248052 44.716762 
L 187.432907 44.691094 
L 187.525335 44.959199 
L 187.71019 44.725883 
L 187.987472 44.757967 
L 188.264754 44.757275 
L 188.726892 44.708795 
L 188.911747 44.756364 
L 192.978555 44.710273 
L 193.070983 44.792785 
L 193.348265 44.66347 
L 193.625547 44.713021 
L 193.810402 44.63076 
L 194.087685 44.773273 
L 194.180112 44.637517 
L 194.364967 44.729975 
L 194.642249 44.682706 
L 195.011959 44.788866 
L 195.196814 44.642848 
L 195.289242 44.845485 
L 195.474097 44.644737 
L 196.028661 44.689475 
L 196.121089 44.637751 
L 196.213516 44.717014 
L 196.305944 44.605933 
L 196.398371 44.77968 
L 196.675654 44.622114 
L 196.952936 44.682345 
L 197.137791 44.576195 
L 197.230218 44.776557 
L 197.415073 44.610187 
L 197.507501 44.737628 
L 197.784783 44.566169 
L 197.969638 44.799986 
L 198.062066 44.608914 
L 198.339348 44.745876 
L 198.431775 44.609695 
L 198.709058 44.681955 
L 198.98634 44.660709 
L 199.35605 44.629535 
L 199.818187 44.672723 
L 200.09547 44.631677 
L 200.187897 44.740856 
L 200.372752 44.625162 
L 200.46518 44.660051 
L 200.650035 44.600001 
L 201.019744 44.710215 
L 201.204599 44.655824 
L 201.666737 44.662893 
L 201.851592 44.673195 
L 202.498584 44.564444 
L 202.683439 44.706567 
L 202.868294 44.622269 
L 203.792568 44.606663 
L 204.162278 44.595843 
L 204.439561 44.617946 
L 204.716843 44.577565 
L 204.80927 44.722385 
L 204.994125 44.643607 
L 205.17898 44.650436 
L 205.363835 44.643846 
L 205.641118 44.733618 
L 205.825972 44.614414 
L 206.010827 44.617684 
L 206.103255 44.588869 
L 206.195682 44.737588 
L 206.380537 44.626589 
L 206.565392 44.667806 
L 206.935102 44.612782 
L 207.119957 44.579358 
L 207.212384 44.534066 
L 207.397239 44.623101 
L 208.321514 44.606786 
L 208.413941 44.522391 
L 208.691224 44.675489 
L 209.153361 44.588729 
L 209.245789 44.644583 
L 209.338216 44.552531 
L 209.523071 44.595513 
L 209.985208 44.706449 
L 210.170063 44.619447 
L 210.539773 44.597265 
L 210.632201 44.539747 
L 210.724628 44.644702 
L 210.909483 44.589393 
L 211.186765 44.658659 
L 211.279193 44.667258 
L 211.464048 44.604734 
L 211.648903 44.63334 
L 213.497452 44.585138 
L 213.589879 44.740137 
L 213.867162 44.553513 
L 214.236872 44.618087 
L 214.606581 44.579096 
L 215.161146 44.578609 
L 215.808138 44.557218 
L 216.177848 44.59748 
L 216.362703 44.577545 
L 217.286978 44.594582 
L 217.471833 44.612608 
L 217.841543 44.550797 
L 218.211253 44.585319 
L 218.67339 44.501253 
L 218.858245 44.608375 
L 218.950672 44.556657 
L 219.0431 44.636347 
L 219.135527 44.515453 
L 219.227955 44.640637 
L 219.41281 44.575485 
L 220.521939 44.58436 
L 220.799221 44.552623 
L 221.168931 44.599628 
L 221.631069 44.601238 
L 221.815924 44.574916 
L 222.278061 44.606351 
L 222.462916 44.601174 
L 222.832626 44.501954 
L 223.017481 44.591756 
L 223.294763 44.533966 
L 223.479618 44.571982 
L 223.941755 44.652795 
L 224.12661 44.567097 
L 225.420595 44.582208 
L 225.882732 44.597205 
L 226.160014 44.537645 
L 226.622152 44.593966 
L 226.807007 44.544814 
L 227.176716 44.576955 
L 227.269144 44.493133 
L 227.361571 44.581135 
L 227.453999 44.498585 
L 227.546426 44.631775 
L 227.731281 44.594986 
L 228.008564 44.518113 
L 228.100991 44.598784 
L 228.285846 44.529513 
L 228.470701 44.578342 
L 231.42838 44.50817 
L 231.613235 44.553016 
L 232.075372 44.496094 
L 232.260227 44.515834 
L 233.276929 44.552858 
L 233.554211 44.545764 
L 233.831494 44.547037 
L 234.201204 44.563951 
L 234.386059 44.546822 
L 234.940623 44.54719 
L 235.125478 44.575376 
L 235.310333 44.520741 
L 235.587616 44.525843 
L 236.049753 44.502973 
L 236.789173 44.52958 
L 237.066455 44.535216 
L 237.436165 44.507499 
L 238.637722 44.545798 
L 238.822577 44.542572 
L 239.007432 44.526147 
L 239.284714 44.500357 
L 239.654424 44.570511 
L 239.931706 44.504474 
L 240.393844 44.576292 
L 240.578699 44.513387 
L 248.157751 44.534216 
L 248.250178 44.481384 
L 248.435033 44.528968 
L 373.581818 44.451254 
L 373.581818 44.451254 
" style="fill:none;stroke:#1f77b4;stroke-linecap:square;stroke-width:1.5;"/>
   </g>
   <g id="line2d_17">
    <path clip-path="url(#p6f006831fe)" d="M 69.218182 238.936413 
L 69.310609 231.494845 
L 69.403037 238.206666 
L 69.495464 236.53072 
L 69.680319 227.977947 
L 69.772747 242.116364 
L 69.957602 225.797824 
L 70.142456 229.353357 
L 70.234884 220.098967 
L 70.327311 222.049501 
L 70.419739 232.850162 
L 70.512166 228.893446 
L 70.604594 218.728105 
L 70.697021 237.678296 
L 70.881876 221.260842 
L 70.974304 232.284483 
L 71.066731 221.364162 
L 71.251586 234.286647 
L 71.344013 227.440969 
L 71.436441 229.278902 
L 71.528868 229.133274 
L 71.621296 211.584635 
L 71.713723 231.015718 
L 71.806151 228.091344 
L 71.898578 221.392639 
L 71.991006 222.200779 
L 72.175861 231.211689 
L 72.268288 221.173413 
L 72.54557 229.910163 
L 72.730425 220.828592 
L 72.822853 222.784838 
L 72.91528 219.45412 
L 73.100135 229.70336 
L 73.192563 222.722417 
L 73.28499 231.088297 
L 73.377418 230.491407 
L 73.562273 214.896005 
L 73.747128 226.984239 
L 73.839555 219.085329 
L 73.931982 230.043082 
L 74.02441 222.1824 
L 74.116837 232.017646 
L 74.39412 219.862422 
L 74.486547 232.671 
L 74.671402 222.666892 
L 74.76383 230.348268 
L 74.856257 228.774765 
L 75.041112 218.679454 
L 75.133539 223.435193 
L 75.225967 219.158255 
L 75.318394 221.752801 
L 75.410822 235.463964 
L 75.688104 223.900959 
L 75.780532 228.627404 
L 75.872959 228.445508 
L 75.965387 221.664107 
L 76.057814 223.981024 
L 76.150242 232.509747 
L 76.242669 226.717321 
L 76.335096 226.992929 
L 76.427524 231.864512 
L 76.519951 218.743547 
L 76.612379 219.405122 
L 76.797234 232.726056 
L 76.982089 225.717983 
L 77.074516 233.941968 
L 77.166944 222.60647 
L 77.444226 229.417063 
L 77.536654 227.546981 
L 77.629081 218.834852 
L 77.813936 229.321963 
L 77.998791 223.615335 
L 78.091218 224.149253 
L 78.183646 227.098248 
L 78.276073 238.468322 
L 78.368501 233.493745 
L 78.460928 214.304042 
L 78.553356 226.126082 
L 78.645783 220.495357 
L 78.738211 231.278026 
L 78.830638 229.306073 
L 78.923065 228.476331 
L 79.015493 234.997913 
L 79.10792 228.142769 
L 79.200348 231.699894 
L 79.292775 218.633516 
L 79.385203 220.307667 
L 79.47763 232.071927 
L 79.570058 228.537813 
L 79.662485 237.838855 
L 79.754913 219.426173 
L 79.84734 223.012244 
L 79.939768 216.556601 
L 80.124622 231.48895 
L 80.21705 219.688849 
L 80.309477 221.265555 
L 80.401905 217.501709 
L 80.494332 225.471769 
L 80.58676 224.329375 
L 80.679187 226.915536 
L 80.864042 221.252499 
L 80.95647 233.959899 
L 81.048897 222.872491 
L 81.141325 223.504793 
L 81.233752 214.620631 
L 81.418607 224.790959 
L 81.603462 220.9835 
L 81.695889 226.179118 
L 81.788317 220.047317 
L 81.973172 226.388227 
L 82.065599 225.633328 
L 82.158027 217.605844 
L 82.250454 222.779636 
L 82.342882 220.886524 
L 82.435309 231.860983 
L 82.527737 218.165445 
L 82.620164 221.385948 
L 82.712591 212.578302 
L 82.805019 224.368071 
L 82.897446 224.030002 
L 82.989874 226.948704 
L 83.082301 214.828393 
L 83.267156 229.784874 
L 83.359584 224.78692 
L 83.452011 230.648396 
L 83.636866 215.096536 
L 83.729294 214.593093 
L 83.821721 207.496968 
L 83.914148 220.861148 
L 84.006576 212.96025 
L 84.283858 227.37351 
L 84.468713 206.119243 
L 84.561141 220.429754 
L 84.653568 209.756524 
L 84.838423 226.592113 
L 84.930851 214.635471 
L 85.023278 217.411729 
L 85.115705 215.619021 
L 85.30056 225.666659 
L 85.485415 206.204285 
L 85.67027 218.830487 
L 85.855125 207.415169 
L 85.947553 213.811767 
L 86.03998 211.818783 
L 86.132408 221.944753 
L 86.224835 218.704749 
L 86.40969 205.968689 
L 86.594545 213.728397 
L 86.7794 214.363627 
L 86.871827 212.930957 
L 86.964255 209.656427 
L 87.14911 213.159026 
L 87.241537 201.729898 
L 87.333965 218.510573 
L 87.51882 205.826377 
L 87.611247 207.256466 
L 87.796102 213.516617 
L 87.980957 210.681835 
L 88.073384 198.574079 
L 88.258239 210.592549 
L 88.350667 198.743093 
L 88.535522 211.505039 
L 88.627949 212.006656 
L 88.720377 203.980193 
L 88.812804 207.517153 
L 88.905231 190.903136 
L 88.997659 218.029732 
L 89.090086 193.879527 
L 89.182514 205.211526 
L 89.274941 202.25328 
L 89.367369 204.220103 
L 89.459796 210.384063 
L 89.552224 197.723581 
L 89.644651 200.769042 
L 89.737079 199.918432 
L 89.829506 209.736717 
L 89.921934 197.429532 
L 90.106789 206.689298 
L 90.199216 200.232737 
L 90.384071 209.362389 
L 90.568926 197.839334 
L 90.661353 208.168742 
L 90.846208 203.02662 
L 90.938636 212.115627 
L 91.031063 195.759696 
L 91.123491 198.214621 
L 91.215918 194.288697 
L 91.400773 209.611346 
L 91.4932 188.703828 
L 91.585628 194.716327 
L 91.678055 192.634883 
L 91.86291 214.53822 
L 91.955338 194.261219 
L 92.047765 197.092473 
L 92.140193 188.648711 
L 92.23262 206.183499 
L 92.325048 200.691965 
L 92.417475 210.189764 
L 92.509903 194.887443 
L 92.60233 195.018699 
L 92.694757 196.263587 
L 92.787185 200.404689 
L 92.97204 184.620159 
L 93.249322 202.186678 
L 93.434177 192.805417 
L 93.526605 196.263944 
L 93.619032 193.436414 
L 93.71146 198.446841 
L 93.803887 188.984281 
L 93.896314 199.960546 
L 94.081169 186.88762 
L 94.266024 198.665129 
L 94.358452 201.514262 
L 94.450879 187.453524 
L 94.543307 195.832591 
L 94.635734 193.975534 
L 94.728162 186.98632 
L 94.820589 197.023443 
L 94.913017 184.905427 
L 95.005444 192.557103 
L 95.097872 188.670119 
L 95.190299 201.105296 
L 95.375154 190.359375 
L 95.467581 197.84012 
L 95.560009 191.49819 
L 95.652436 193.006519 
L 95.744864 189.35507 
L 95.837291 192.517407 
L 95.929719 191.167587 
L 96.022146 182.248165 
L 96.114574 182.660894 
L 96.207001 197.186348 
L 96.299429 188.571154 
L 96.391856 189.991279 
L 96.484283 192.30738 
L 96.576711 191.888338 
L 96.669138 183.208439 
L 96.853993 192.116111 
L 97.038848 186.227504 
L 97.131276 188.288325 
L 97.223703 192.861453 
L 97.316131 183.263179 
L 97.593413 191.360549 
L 97.68584 188.349684 
L 97.778268 188.722442 
L 97.870695 187.428433 
L 97.963123 181.973668 
L 98.147978 184.513759 
L 98.332833 192.593596 
L 98.42526 184.431746 
L 98.517688 199.241049 
L 98.610115 179.519518 
L 98.702543 182.969855 
L 98.79497 182.943856 
L 98.887398 180.439484 
L 99.16468 188.432891 
L 99.257107 178.311041 
L 99.53439 187.161933 
L 99.626817 178.7831 
L 99.719245 182.289146 
L 99.811672 173.991613 
L 99.9041 184.718971 
L 100.088955 168.193965 
L 100.366237 186.451636 
L 100.458664 186.383677 
L 100.735947 171.265271 
L 100.828374 189.592094 
L 101.013229 178.034913 
L 101.105657 181.907943 
L 101.198084 163.263419 
L 101.382939 181.892726 
L 101.475366 180.735665 
L 101.567794 184.605564 
L 101.660221 170.601769 
L 101.752649 179.464655 
L 101.845076 169.577351 
L 101.937504 179.576125 
L 102.122359 169.219423 
L 102.214786 185.109843 
L 102.399641 172.142135 
L 102.584496 177.474466 
L 102.676924 175.692456 
L 102.769351 164.778327 
L 102.861778 177.280932 
L 102.954206 171.713199 
L 103.139061 174.39141 
L 103.231488 168.669818 
L 103.323916 174.62722 
L 103.416343 166.435944 
L 103.601198 178.741293 
L 103.693626 170.756086 
L 103.786053 172.570397 
L 103.878481 171.28566 
L 103.970908 171.457214 
L 104.063335 172.352212 
L 104.155763 182.742204 
L 104.340618 163.221693 
L 104.525473 172.687497 
L 104.6179 171.691586 
L 104.710328 174.073729 
L 104.802755 164.312877 
L 105.080038 174.127469 
L 105.172465 168.198238 
L 105.264892 170.845249 
L 105.35732 167.581725 
L 105.449747 169.37473 
L 105.542175 180.742335 
L 105.634602 161.714782 
L 105.72703 165.902903 
L 105.819457 161.787585 
L 105.911885 174.095637 
L 106.004312 170.803371 
L 106.09674 172.503714 
L 106.189167 165.873661 
L 106.281595 167.275162 
L 106.374022 164.846652 
L 106.558877 168.86837 
L 106.651304 160.699553 
L 106.928587 171.033612 
L 107.021014 172.753926 
L 107.390724 157.364878 
L 107.575579 162.587943 
L 107.668007 176.354428 
L 107.852861 158.436662 
L 107.945289 167.244247 
L 108.130144 155.513441 
L 108.222571 166.311715 
L 108.314999 162.309836 
L 108.407426 170.805288 
L 108.684709 156.356809 
L 108.961991 164.067051 
L 109.239273 153.274988 
L 109.424128 159.139187 
L 109.516556 153.712522 
L 109.608983 153.798543 
L 109.793838 167.650265 
L 109.886266 154.395382 
L 109.978693 168.032212 
L 110.163548 154.692083 
L 110.255975 157.858142 
L 110.348403 157.453643 
L 110.44083 154.614588 
L 110.533258 158.808318 
L 110.625685 158.714147 
L 110.718113 151.659718 
L 110.81054 153.435108 
L 110.902968 151.23324 
L 110.995395 144.206022 
L 111.18025 165.869673 
L 111.272678 153.146302 
L 111.365105 155.510034 
L 111.457533 152.181479 
L 111.54996 157.975629 
L 111.642387 145.745133 
L 111.734815 158.012285 
L 111.91967 144.806839 
L 112.104525 157.314768 
L 112.28938 145.593539 
L 112.381807 151.265827 
L 112.474235 150.925993 
L 112.566662 150.454689 
L 112.751517 153.516142 
L 112.936372 143.157493 
L 113.121227 149.968942 
L 113.213654 145.926703 
L 113.306082 149.862868 
L 113.398509 139.893622 
L 113.490937 146.297135 
L 113.583364 143.411478 
L 113.675792 144.45808 
L 113.768219 140.716 
L 113.860647 151.741313 
L 113.953074 145.721879 
L 114.045501 147.873351 
L 114.137929 146.850596 
L 114.230356 143.591029 
L 114.322784 144.755067 
L 114.415211 155.423615 
L 114.600066 138.374818 
L 114.692494 137.125513 
L 114.784921 153.501659 
L 114.969776 143.290595 
L 115.062204 148.620111 
L 115.247058 145.764543 
L 115.339486 134.702246 
L 115.431913 143.726151 
L 115.524341 136.339975 
L 115.709196 146.288476 
L 115.894051 142.843198 
L 115.986478 143.250205 
L 116.078906 136.815788 
L 116.171333 146.040743 
L 116.263761 136.039613 
L 116.356188 142.532504 
L 116.448616 138.684951 
L 116.541043 146.726632 
L 116.63347 140.290032 
L 116.725898 142.092226 
L 116.818325 138.967393 
L 116.910753 147.781373 
L 117.095608 138.143914 
L 117.188035 135.19651 
L 117.280463 140.816382 
L 117.37289 134.223966 
L 117.465318 140.203714 
L 117.650173 132.370754 
L 117.927455 142.965928 
L 118.019882 141.279731 
L 118.11231 134.831095 
L 118.204737 138.984834 
L 118.297165 136.961833 
L 118.389592 132.31274 
L 118.48202 142.999178 
L 118.574447 126.672075 
L 118.666875 142.141285 
L 118.944157 130.181875 
L 119.036584 138.642991 
L 119.221439 133.68457 
L 119.406294 137.51407 
L 119.683577 126.94313 
L 119.776004 133.457807 
L 119.868432 123.337879 
L 119.960859 135.589564 
L 120.053287 128.65099 
L 120.145714 129.568355 
L 120.238142 127.915929 
L 120.330569 139.682994 
L 120.422996 136.067478 
L 120.515424 126.097043 
L 120.607851 128.196963 
L 120.700279 133.275237 
L 120.792706 121.936904 
L 121.069989 131.562594 
L 121.162416 127.151621 
L 121.254844 129.982762 
L 121.347271 123.648456 
L 121.439699 124.722291 
L 121.624553 130.305252 
L 121.716981 132.996345 
L 121.809408 128.682373 
L 121.901836 129.462582 
L 121.994263 129.081782 
L 122.086691 132.004187 
L 122.179118 118.013621 
L 122.271546 125.886099 
L 122.363973 122.034599 
L 122.548828 131.011025 
L 122.641256 123.175337 
L 122.733683 124.575603 
L 122.82611 120.367766 
L 122.918538 133.900349 
L 123.010965 112.402071 
L 123.103393 124.708817 
L 123.19582 123.216818 
L 123.288248 123.036319 
L 123.380675 120.719473 
L 123.56553 127.907269 
L 123.750385 121.333242 
L 123.93524 122.739786 
L 124.027668 117.583135 
L 124.30495 123.57858 
L 124.397377 121.994536 
L 124.489805 120.926872 
L 124.582232 130.007322 
L 124.67466 119.529829 
L 124.767087 121.252361 
L 124.859515 118.809139 
L 125.04437 126.714454 
L 125.321652 118.760218 
L 125.414079 120.530422 
L 125.598934 117.459518 
L 125.691362 129.722269 
L 125.783789 116.471053 
L 125.876217 117.027599 
L 126.061072 122.278962 
L 126.245927 109.799897 
L 126.338354 126.047566 
L 126.430782 114.854942 
L 126.523209 121.33824 
L 126.708064 113.294371 
L 126.800491 117.536452 
L 126.892919 117.404645 
L 126.985346 119.554119 
L 127.077774 114.716944 
L 127.170201 116.933422 
L 127.262629 112.819895 
L 127.447484 121.003674 
L 127.632339 113.602082 
L 127.724766 118.162344 
L 127.817193 117.516987 
L 127.909621 112.072584 
L 128.002048 112.183008 
L 128.094476 118.608782 
L 128.186903 108.93795 
L 128.371758 116.994777 
L 128.556613 114.903098 
L 128.649041 113.890797 
L 128.741468 109.257497 
L 128.833896 111.261268 
L 128.926323 116.406312 
L 129.111178 108.906801 
L 129.203605 108.449913 
L 129.296033 109.337252 
L 129.38846 112.86517 
L 129.480888 104.171359 
L 129.665743 114.812879 
L 129.850598 110.670288 
L 129.943025 111.372023 
L 130.035453 108.705771 
L 130.12788 116.445661 
L 130.220308 112.63294 
L 130.312735 113.237102 
L 130.405162 113.192357 
L 130.49759 111.04348 
L 130.590017 111.57826 
L 130.774872 104.847177 
L 130.959727 110.798628 
L 131.144582 99.869989 
L 131.23701 106.327279 
L 131.329437 102.892272 
L 131.514292 110.523692 
L 131.699147 112.071228 
L 131.791574 110.772543 
L 131.884002 104.366632 
L 131.976429 112.199077 
L 132.253712 102.305557 
L 132.346139 112.648397 
L 132.530994 101.148663 
L 132.623422 103.020662 
L 132.715849 108.15233 
L 132.900704 102.492925 
L 132.993131 108.513961 
L 133.177986 95.788707 
L 133.270414 99.279842 
L 133.362841 108.06178 
L 133.455269 106.745511 
L 133.547696 101.658022 
L 133.732551 104.993824 
L 133.824979 100.279832 
L 134.102261 107.299471 
L 134.287116 99.843655 
L 134.379543 100.907509 
L 134.564398 97.439853 
L 134.841681 103.274572 
L 134.934108 102.712447 
L 135.211391 95.706781 
L 135.303818 100.102322 
L 135.396245 96.463597 
L 135.5811 102.969518 
L 135.765955 94.052967 
L 135.95081 103.765444 
L 136.043238 99.440957 
L 136.135665 101.590165 
L 136.32052 93.141105 
L 136.412948 98.372926 
L 136.505375 95.591583 
L 136.69023 101.583168 
L 136.782657 97.52076 
L 136.875085 98.081498 
L 136.967512 99.214876 
L 137.152367 91.457285 
L 137.244795 98.823153 
L 137.337222 91.624672 
L 137.42965 92.688613 
L 137.522077 96.724171 
L 137.614505 95.348567 
L 137.79936 90.298347 
L 137.891787 91.790708 
L 138.076642 102.139464 
L 138.169069 91.182854 
L 138.353924 95.878386 
L 138.446352 94.625623 
L 138.538779 91.77981 
L 138.631207 95.041657 
L 138.723634 90.004741 
L 138.908489 93.303535 
L 139.000917 88.613407 
L 139.185771 97.28544 
L 139.647909 88.323471 
L 139.740336 91.857397 
L 139.832764 90.110025 
L 139.925191 92.276516 
L 140.110046 89.619617 
L 140.202474 91.563292 
L 140.294901 89.93716 
L 140.387328 90.625513 
L 140.479756 95.32569 
L 140.572183 86.507472 
L 140.664611 92.817738 
L 140.849466 88.187457 
L 140.941893 91.9683 
L 141.034321 85.901008 
L 141.126748 86.114453 
L 141.219176 91.611005 
L 141.404031 90.351113 
L 141.496458 86.474556 
L 141.588886 89.022574 
L 141.681313 87.760196 
L 141.77374 89.947992 
L 141.866168 84.068299 
L 141.958595 90.231846 
L 142.051023 88.213167 
L 142.14345 88.333337 
L 142.235878 91.32328 
L 142.420733 82.690714 
L 142.698015 90.713371 
L 142.790443 83.863457 
L 142.975297 88.205181 
L 143.067725 85.785918 
L 143.160152 86.488134 
L 143.25258 83.823549 
L 143.345007 85.064674 
L 143.437435 80.563478 
L 143.529862 90.011014 
L 143.62229 85.948045 
L 143.714717 87.053204 
L 143.807145 86.538756 
L 143.899572 83.946009 
L 143.992 87.247753 
L 144.084427 83.998115 
L 144.176854 85.283635 
L 144.269282 80.228473 
L 144.361709 80.698115 
L 144.546564 89.073388 
L 144.638992 79.677425 
L 144.823847 87.32805 
L 145.101129 81.675626 
L 145.193557 84.372897 
L 145.378412 81.408185 
L 145.470839 83.839481 
L 145.563266 82.117931 
L 145.655694 84.513424 
L 145.840549 81.042416 
L 146.025404 84.903651 
L 146.302686 78.341404 
L 146.395114 81.264404 
L 146.487541 79.971387 
L 146.579969 83.713615 
L 146.857251 78.735966 
L 146.949678 78.360584 
L 147.042106 86.19818 
L 147.226961 79.300462 
L 147.319388 79.273645 
L 147.504243 81.011027 
L 147.596671 77.852804 
L 147.689098 79.307288 
L 147.781526 77.851144 
L 147.873953 80.770064 
L 147.96638 76.497239 
L 148.058808 81.142327 
L 148.151235 78.627204 
L 148.243663 79.155789 
L 148.33609 75.311413 
L 148.428518 80.116333 
L 148.520945 78.122163 
L 148.7058 79.972402 
L 148.983083 74.293732 
L 149.167937 80.409344 
L 149.260365 80.260466 
L 149.352792 75.670646 
L 149.44522 80.487364 
L 149.537647 75.211528 
L 149.630075 77.580791 
L 149.81493 75.790089 
L 149.907357 75.569509 
L 149.999785 72.776963 
L 150.092212 73.146054 
L 150.18464 82.068647 
L 150.369495 75.190002 
L 150.461922 76.610364 
L 150.554349 80.258712 
L 150.831632 73.519033 
L 151.108914 78.063391 
L 151.201342 74.187219 
L 151.293769 76.040933 
L 151.386197 71.655943 
L 151.571052 76.524505 
L 151.663479 75.433375 
L 151.755906 72.567918 
L 151.848334 75.724321 
L 152.033189 72.949957 
L 152.125616 72.9181 
L 152.218044 75.816312 
L 152.495326 71.330715 
L 152.587754 68.55347 
L 152.680181 80.478261 
L 152.772609 72.700595 
L 152.865036 74.783823 
L 152.957463 72.388095 
L 153.049891 73.000949 
L 153.142318 75.147567 
L 153.327173 72.180805 
L 153.419601 74.058686 
L 153.512028 70.763641 
L 153.604456 72.577526 
L 153.696883 71.166693 
L 153.881738 74.630373 
L 153.974166 72.699424 
L 154.066593 73.118148 
L 154.159021 70.734458 
L 154.343875 76.92257 
L 154.436303 65.974923 
L 154.621158 70.651802 
L 154.713585 71.348878 
L 154.806013 73.888999 
L 154.89844 69.102413 
L 154.990868 69.50891 
L 155.083295 72.5442 
L 155.360578 67.615201 
L 155.453005 70.937222 
L 155.63786 67.647375 
L 155.730287 69.528072 
L 155.822715 67.853243 
L 155.915142 73.481981 
L 156.192425 67.272545 
L 156.284852 70.820717 
L 156.37728 70.132173 
L 156.562135 67.692299 
L 156.654562 71.514434 
L 156.839417 67.345152 
L 156.931844 71.947641 
L 157.024272 70.078279 
L 157.116699 70.189401 
L 157.209127 69.579806 
L 157.301554 64.984434 
L 157.393982 70.576306 
L 157.486409 67.365783 
L 157.578837 71.290285 
L 157.671264 65.705949 
L 157.763692 66.458959 
L 157.856119 70.397923 
L 157.948547 70.243071 
L 158.040974 69.233707 
L 158.225829 65.890496 
L 158.318256 69.408515 
L 158.410684 67.571793 
L 158.503111 69.968181 
L 158.595539 62.960989 
L 158.687966 68.409582 
L 158.780394 67.368248 
L 158.872821 68.713527 
L 159.150104 66.360463 
L 159.242531 70.372756 
L 159.334958 66.095031 
L 159.427386 67.82444 
L 159.612241 63.611558 
L 159.704668 67.883854 
L 159.797096 63.178189 
L 159.981951 66.10727 
L 160.074378 67.164856 
L 160.166806 62.878384 
L 160.259233 67.814398 
L 160.351661 67.46499 
L 160.444088 64.986827 
L 160.628943 66.852865 
L 160.72137 65.756815 
L 160.813798 66.39364 
L 160.998653 64.856312 
L 161.09108 66.155242 
L 161.275935 64.757458 
L 161.368363 63.424395 
L 161.553218 65.214974 
L 161.645645 62.796807 
L 161.738072 64.715546 
L 161.8305 61.131644 
L 161.922927 65.858897 
L 162.015355 65.232627 
L 162.107782 62.07487 
L 162.292637 67.758873 
L 162.385065 65.600208 
L 162.477492 68.043793 
L 162.56992 62.395256 
L 162.662347 67.717927 
L 162.847202 62.876715 
L 162.93963 65.015134 
L 163.032057 62.529973 
L 163.124484 65.39045 
L 163.216912 63.955116 
L 163.309339 65.653437 
L 163.401767 61.486394 
L 163.494194 65.496731 
L 163.586622 65.120278 
L 163.679049 66.280447 
L 163.863904 62.431877 
L 163.956332 62.79619 
L 164.048759 60.536459 
L 164.233614 63.250081 
L 164.326041 62.17043 
L 164.510896 62.912647 
L 164.695751 60.86438 
L 164.788179 65.157403 
L 164.880606 64.233161 
L 164.973034 60.648428 
L 165.065461 62.432739 
L 165.250316 60.670435 
L 165.342744 60.209168 
L 165.435171 60.711559 
L 165.527598 60.31424 
L 165.712453 62.856125 
L 165.804881 61.193205 
L 165.897308 65.020829 
L 166.082163 59.889447 
L 166.174591 66.049204 
L 166.359446 59.86205 
L 166.544301 62.245625 
L 166.636728 58.756415 
L 166.729156 62.126391 
L 166.821583 61.821533 
L 166.91401 60.584728 
L 167.006438 63.403445 
L 167.098865 61.688896 
L 167.191293 62.475496 
L 167.468575 58.724916 
L 167.65343 64.379099 
L 167.745858 59.314949 
L 167.838285 60.014308 
L 167.930713 60.055553 
L 168.02314 63.471926 
L 168.115567 60.739004 
L 168.207995 61.323773 
L 168.39285 60.322184 
L 168.485277 63.901793 
L 168.577705 58.336141 
L 168.670132 59.588642 
L 168.76256 58.151681 
L 168.854987 58.654022 
L 168.947415 60.674031 
L 169.039842 57.481653 
L 169.13227 61.434583 
L 169.224697 59.546588 
L 169.317124 61.801525 
L 169.594407 58.359136 
L 169.686834 57.909371 
L 169.779262 63.755527 
L 169.871689 57.042354 
L 170.056544 60.239906 
L 170.148972 58.020091 
L 170.241399 60.740828 
L 170.518682 55.292615 
L 170.611109 60.130448 
L 170.703536 58.967145 
L 170.795964 59.792421 
L 170.888391 59.757849 
L 170.980819 57.667026 
L 171.073246 58.169885 
L 171.165674 56.966068 
L 171.258101 59.455249 
L 171.350529 59.399237 
L 171.535384 57.075753 
L 171.720239 58.667595 
L 171.812666 56.135037 
L 172.089948 60.478219 
L 172.274803 57.080255 
L 172.367231 60.752272 
L 172.552086 56.471436 
L 172.644513 59.736378 
L 172.736941 59.657941 
L 172.829368 56.166425 
L 172.921796 58.191943 
L 173.014223 56.766747 
L 173.10665 58.822437 
L 173.291505 56.026723 
L 173.383933 56.687771 
L 173.47636 58.230025 
L 173.568788 56.913193 
L 173.661215 56.997477 
L 173.753643 59.0595 
L 173.938498 57.029625 
L 174.030925 59.884415 
L 174.123353 57.092299 
L 174.21578 57.752086 
L 174.400635 55.162527 
L 174.493062 55.527715 
L 174.58549 55.13666 
L 174.677917 58.957151 
L 174.770345 57.370467 
L 174.862772 57.629546 
L 174.9552 58.475543 
L 175.140055 54.874304 
L 175.232482 60.088143 
L 175.32491 54.895157 
L 175.417337 56.994514 
L 175.602192 55.375966 
L 175.694619 58.203773 
L 175.879474 53.890185 
L 176.249184 60.112012 
L 176.526467 54.44149 
L 176.711322 58.26163 
L 176.803749 55.420174 
L 176.896176 55.740323 
L 176.988604 55.661324 
L 177.081031 57.505235 
L 177.173459 55.49678 
L 177.358314 57.533627 
L 177.450741 55.424537 
L 177.543169 56.039542 
L 177.635596 58.007423 
L 177.728024 54.273694 
L 177.820451 56.891865 
L 178.005306 54.852567 
L 178.097733 55.600134 
L 178.190161 54.170427 
L 178.282588 55.655512 
L 178.375016 55.116618 
L 178.467443 55.750176 
L 178.559871 54.21371 
L 178.652298 55.102004 
L 178.744726 57.635456 
L 178.929581 53.699055 
L 179.022008 53.423383 
L 179.114436 57.23479 
L 179.206863 53.881289 
L 179.299291 55.727349 
L 179.391718 54.317034 
L 179.484145 57.742346 
L 179.761428 54.204797 
L 179.946283 54.783371 
L 180.03871 54.472905 
L 180.223565 55.852616 
L 180.315993 55.24065 
L 180.40842 55.408146 
L 180.500848 52.140016 
L 180.593275 55.511029 
L 180.77813 53.37113 
L 180.962985 55.282288 
L 181.055412 53.606485 
L 181.14784 55.493263 
L 181.240267 54.510114 
L 181.332695 55.447378 
L 181.51755 52.07477 
L 181.702405 55.586854 
L 181.794832 55.13298 
L 181.887259 52.044656 
L 181.979687 58.828626 
L 182.072114 53.964036 
L 182.164542 54.023764 
L 182.256969 52.519433 
L 182.349397 55.159852 
L 182.441824 53.38897 
L 182.534252 55.256473 
L 182.811534 52.01727 
L 182.996389 54.221326 
L 183.088816 54.044963 
L 183.181244 52.690904 
L 183.458526 55.469632 
L 183.643381 53.535355 
L 183.735809 53.242648 
L 183.828236 54.590117 
L 183.920664 54.154089 
L 184.013091 52.450804 
L 184.105519 52.955891 
L 184.197946 55.625821 
L 184.290374 55.096837 
L 184.752511 51.646485 
L 184.844938 52.744623 
L 184.937366 55.934219 
L 185.122221 53.654399 
L 185.307076 52.983951 
L 185.399503 53.119224 
L 185.491931 53.653767 
L 185.584358 53.48672 
L 185.676785 54.359396 
L 185.769213 54.253783 
L 185.954068 51.789475 
L 186.046495 52.528452 
L 186.138923 54.541884 
L 186.23135 51.97266 
L 186.323778 51.980518 
L 186.416205 52.127886 
L 186.693488 53.341111 
L 186.785915 52.875127 
L 186.878342 54.266479 
L 187.063197 51.708864 
L 187.155625 52.013116 
L 187.34048 53.697788 
L 187.432907 52.43717 
L 187.525335 53.026051 
L 187.617762 52.498314 
L 187.71019 53.545469 
L 187.895045 50.939126 
L 187.987472 54.083179 
L 188.0799 53.644049 
L 188.172327 52.66435 
L 188.264754 53.032255 
L 188.449609 52.180762 
L 188.542037 52.257014 
L 188.634464 52.538962 
L 188.726892 52.133299 
L 188.819319 53.827066 
L 189.096602 51.834695 
L 189.189029 52.087635 
L 189.281457 51.881601 
L 189.373884 51.048472 
L 189.466311 52.471022 
L 189.558739 52.182091 
L 189.651166 52.021757 
L 189.743594 50.982882 
L 189.836021 55.329902 
L 190.020876 51.702115 
L 190.113304 50.952468 
L 190.298159 52.927516 
L 190.390586 51.444939 
L 190.483014 52.332721 
L 190.667868 51.660179 
L 190.760296 52.465083 
L 190.945151 51.214041 
L 191.037578 53.407529 
L 191.130006 51.207614 
L 191.222433 52.656469 
L 191.314861 50.417974 
L 191.499716 52.904985 
L 191.592143 51.6836 
L 191.684571 51.836151 
L 191.776998 51.128166 
L 191.869426 51.405325 
L 191.961853 52.14783 
L 192.239135 51.569441 
L 192.331563 52.273463 
L 192.42399 50.305862 
L 192.608845 52.386791 
L 192.886128 51.092807 
L 192.978555 52.223296 
L 193.070983 52.048801 
L 193.16341 51.335123 
L 193.255837 51.55941 
L 193.348265 50.52663 
L 193.53312 52.94871 
L 193.717975 48.991026 
L 193.810402 51.340811 
L 193.90283 50.544505 
L 194.087685 53.098409 
L 194.180112 49.820341 
L 194.27254 51.532575 
L 194.364967 50.983535 
L 194.457394 51.921573 
L 194.642249 50.719242 
L 194.734677 50.728287 
L 194.827104 51.714589 
L 194.919532 51.171148 
L 195.011959 52.375851 
L 195.104387 50.236274 
L 195.289242 52.112992 
L 195.474097 50.205755 
L 195.566524 51.093474 
L 195.658951 49.320402 
L 195.751379 51.250164 
L 195.843806 50.397997 
L 195.936234 51.938522 
L 196.028661 51.343205 
L 196.121089 49.912688 
L 196.213516 51.172685 
L 196.305944 50.354077 
L 196.583226 52.04441 
L 196.675654 50.629763 
L 196.860509 52.902588 
L 196.952936 49.59253 
L 197.045363 50.277322 
L 197.137791 49.343798 
L 197.230218 51.576252 
L 197.415073 49.941103 
L 197.507501 51.758363 
L 197.692356 51.204719 
L 197.784783 49.649185 
L 197.877211 51.108148 
L 197.969638 49.972703 
L 198.062066 50.615029 
L 198.154493 50.098519 
L 198.339348 51.312004 
L 198.524203 49.883585 
L 198.709058 49.975511 
L 198.801485 51.221776 
L 198.98634 50.115346 
L 199.078768 50.761684 
L 199.171195 50.359334 
L 199.263623 50.74933 
L 199.35605 50.371902 
L 199.540905 50.801098 
L 199.633332 49.264382 
L 199.72576 52.555952 
L 200.003042 50.202262 
L 200.187897 50.500798 
L 200.372752 49.911006 
L 200.46518 51.5741 
L 200.650035 49.328998 
L 200.742462 50.854904 
L 200.834889 49.779127 
L 201.019744 50.738231 
L 201.112172 50.411793 
L 201.204599 50.100676 
L 201.389454 51.033539 
L 201.481882 49.637413 
L 201.666737 50.137302 
L 201.759164 49.344307 
L 201.851592 50.28388 
L 201.944019 50.201639 
L 202.036446 50.393375 
L 202.128874 50.311207 
L 202.313729 51.595926 
L 202.498584 48.429629 
L 202.591011 51.022973 
L 202.775866 49.436207 
L 203.053149 50.599023 
L 203.238003 49.354227 
L 203.422858 50.364194 
L 203.515286 49.917823 
L 203.700141 51.157086 
L 203.792568 49.254805 
L 203.884996 49.467073 
L 203.977423 50.319152 
L 204.069851 49.317198 
L 204.162278 49.596584 
L 204.254706 50.842602 
L 204.347133 49.171709 
L 204.439561 51.165511 
L 204.531988 49.560589 
L 204.624415 49.916572 
L 204.716843 49.040317 
L 204.80927 51.227897 
L 204.901698 48.326619 
L 204.994125 50.626771 
L 205.086553 50.224901 
L 205.17898 50.568841 
L 205.271408 49.647685 
L 205.363835 49.691715 
L 205.456263 49.666693 
L 205.54869 49.151713 
L 205.733545 50.665549 
L 205.825972 48.705226 
L 206.103255 50.56627 
L 206.28811 49.141873 
L 206.565392 51.063475 
L 206.65782 50.380625 
L 206.842675 48.759054 
L 206.935102 49.532078 
L 207.027529 48.762422 
L 207.119957 49.18487 
L 207.212384 49.125227 
L 207.304812 50.988128 
L 207.489667 49.325607 
L 207.674522 50.175424 
L 207.766949 49.82779 
L 207.859377 48.859217 
L 208.044232 50.761619 
L 208.136659 48.79631 
L 208.321514 49.715875 
L 208.413941 48.093486 
L 208.598796 49.876719 
L 208.691224 50.763387 
L 209.060934 48.191715 
L 209.245789 49.486676 
L 209.338216 48.184056 
L 209.615498 50.633018 
L 209.707926 50.077442 
L 209.800353 48.360644 
L 209.892781 49.878639 
L 209.985208 49.250929 
L 210.077636 49.86951 
L 210.170063 49.479839 
L 210.262491 49.945503 
L 210.354918 48.526818 
L 210.447346 48.896189 
L 210.539773 49.82038 
L 210.724628 48.397238 
L 210.817055 49.815125 
L 210.909483 48.666099 
L 211.00191 49.003831 
L 211.094338 48.298217 
L 211.186765 50.980432 
L 211.37162 48.596801 
L 211.464048 49.866527 
L 211.648903 48.922266 
L 211.833758 49.299463 
L 211.926185 49.055261 
L 212.018612 48.300824 
L 212.203467 49.523741 
L 212.48075 48.730111 
L 212.573177 49.114398 
L 212.665605 50.119552 
L 212.758032 49.693646 
L 212.85046 48.572188 
L 212.942887 48.991463 
L 213.035315 50.003372 
L 213.127742 48.937793 
L 213.22017 49.522718 
L 213.312597 48.703946 
L 213.589879 49.516325 
L 213.682307 49.152247 
L 213.774734 48.087892 
L 213.867162 49.247877 
L 213.959589 48.492674 
L 214.052017 49.392437 
L 214.144444 49.331197 
L 214.236872 49.217378 
L 214.329299 49.291292 
L 214.514154 48.297402 
L 214.606581 50.079427 
L 214.699009 48.645496 
L 214.791436 50.101423 
L 214.883864 47.941385 
L 214.976291 49.661789 
L 215.068719 48.411542 
L 215.161146 49.113251 
L 215.253574 48.865771 
L 215.346001 50.042282 
L 215.438429 47.935334 
L 215.530856 50.003342 
L 215.808138 47.764723 
L 215.900566 48.669056 
L 215.992993 48.475447 
L 216.085421 49.139902 
L 216.177848 49.04869 
L 216.270276 48.471328 
L 216.455131 49.689349 
L 216.732413 47.84325 
L 216.917268 49.367146 
L 217.009695 48.274167 
L 217.102123 48.616415 
L 217.19455 49.479667 
L 217.379405 48.712426 
L 217.471833 49.275814 
L 217.56426 47.826458 
L 217.656688 48.837475 
L 217.841543 47.926791 
L 217.93397 47.990527 
L 218.026398 49.112497 
L 218.30368 48.070676 
L 218.396107 49.047788 
L 218.488535 47.878444 
L 218.580962 48.824348 
L 218.67339 47.359665 
L 218.765817 49.459305 
L 218.950672 47.517809 
L 219.0431 49.126639 
L 219.135527 47.462854 
L 219.227955 49.182765 
L 219.320382 47.939954 
L 219.41281 49.549376 
L 219.690092 47.947451 
L 219.782519 48.587398 
L 219.874947 47.994821 
L 220.152229 49.110613 
L 220.244657 47.6677 
L 220.337084 48.530888 
L 220.429512 48.412079 
L 220.521939 48.576969 
L 220.614367 47.920289 
L 220.706794 49.242703 
L 220.799221 47.70381 
L 220.984076 48.634367 
L 221.076504 49.052726 
L 221.261359 48.201023 
L 221.353786 48.470128 
L 221.446214 47.800655 
L 221.631069 48.417759 
L 221.815924 48.038708 
L 221.908351 48.307029 
L 222.000779 47.945059 
L 222.093206 48.313743 
L 222.185633 47.413209 
L 222.278061 49.545856 
L 222.555343 48.374009 
L 222.740198 49.395861 
L 222.832626 47.587226 
L 222.925053 48.812317 
L 223.109908 47.906223 
L 223.202336 48.699333 
L 223.294763 47.337669 
L 223.38719 48.530025 
L 223.479618 47.634695 
L 223.664473 48.94467 
L 223.849328 48.380789 
L 223.941755 48.917117 
L 224.12661 47.143 
L 224.219038 48.370032 
L 224.311465 47.532591 
L 224.49632 48.302128 
L 224.588747 47.51793 
L 224.681175 47.773051 
L 224.773602 47.621618 
L 224.958457 48.915084 
L 225.050885 49.384619 
L 225.143312 47.825605 
L 225.23574 48.136757 
L 225.420595 47.584328 
L 225.513022 48.98066 
L 225.60545 47.352664 
L 225.882732 48.934966 
L 225.975159 48.007264 
L 226.067587 48.137821 
L 226.344869 47.674341 
L 226.437297 49.615207 
L 226.529724 47.734898 
L 226.622152 48.254188 
L 226.807007 47.295628 
L 227.084289 48.42459 
L 227.176716 48.527066 
L 227.269144 46.746788 
L 227.361571 49.329312 
L 227.453999 47.452815 
L 227.546426 48.186508 
L 227.638854 48.065932 
L 227.731281 48.703554 
L 227.916136 47.322355 
L 228.008564 47.382226 
L 228.100991 48.346935 
L 228.285846 47.12426 
L 228.378273 48.95553 
L 228.655556 46.62927 
L 228.747983 48.113498 
L 228.840411 48.079152 
L 228.932838 47.60717 
L 229.025266 47.651451 
L 229.117693 47.296506 
L 229.302548 48.335407 
L 229.394976 47.361288 
L 229.57983 48.229904 
L 229.672258 47.261195 
L 229.764685 47.436247 
L 229.857113 48.934079 
L 229.94954 47.373512 
L 230.041968 48.836188 
L 230.226823 47.494663 
L 230.31925 47.246141 
L 230.504105 48.222817 
L 230.596533 47.576089 
L 230.68896 48.29649 
L 230.781388 47.5875 
L 230.873815 47.8148 
L 230.966242 49.230106 
L 231.151097 47.458327 
L 231.243525 47.505517 
L 231.335952 47.124138 
L 231.42838 47.905405 
L 231.520807 47.849022 
L 231.613235 47.129759 
L 231.705662 47.347475 
L 231.79809 47.862045 
L 231.890517 47.597916 
L 232.075372 48.217988 
L 232.167799 48.185052 
L 232.352654 46.72257 
L 232.445082 47.478492 
L 232.537509 47.184659 
L 232.722364 47.616218 
L 232.814792 47.569375 
L 232.999647 47.83263 
L 233.184502 47.097594 
L 233.369356 48.052123 
L 233.461784 47.489301 
L 233.554211 48.053482 
L 233.646639 47.299753 
L 233.739066 47.991666 
L 233.831494 47.077991 
L 233.923921 48.282336 
L 234.108776 47.009262 
L 234.201204 47.521221 
L 234.293631 47.39787 
L 234.386059 46.842315 
L 234.478486 47.022466 
L 234.570914 48.126113 
L 234.755768 47.263785 
L 234.848196 47.864982 
L 234.940623 47.484436 
L 235.033051 48.147364 
L 235.125478 48.05029 
L 235.217906 46.953489 
L 235.310333 47.0581 
L 235.495188 47.50998 
L 235.587616 46.824771 
L 235.772471 48.405195 
L 236.049753 46.399507 
L 236.14218 46.553936 
L 236.234608 47.811321 
L 236.327035 47.618619 
L 236.419463 47.49964 
L 236.51189 46.810757 
L 236.696745 47.755519 
L 236.789173 47.167595 
L 236.8816 47.992943 
L 236.974028 46.496736 
L 237.066455 47.905215 
L 237.158882 47.17407 
L 237.25131 48.371108 
L 237.436165 46.79363 
L 237.528592 46.940355 
L 237.713447 47.900477 
L 237.805875 47.871236 
L 237.898302 48.058302 
L 237.99073 46.178215 
L 238.175585 47.833994 
L 238.360439 47.097642 
L 238.452867 48.386862 
L 238.545294 47.121917 
L 238.637722 47.555757 
L 238.822577 47.25897 
L 239.007432 48.442573 
L 239.192287 46.45424 
L 239.377142 47.945074 
L 239.469569 46.816972 
L 239.561997 47.415072 
L 239.654424 47.163755 
L 239.746851 47.595375 
L 239.931706 47.201467 
L 240.024134 47.649606 
L 240.116561 47.152365 
L 240.208989 47.950569 
L 240.301416 46.860374 
L 240.393844 47.112492 
L 240.578699 46.733349 
L 240.763554 47.940637 
L 240.855981 47.840727 
L 241.040836 46.4793 
L 241.133263 47.540796 
L 241.318118 46.878321 
L 241.410546 47.933466 
L 241.502973 46.652378 
L 241.595401 47.098325 
L 241.687828 46.830361 
L 241.780256 47.616044 
L 242.057538 46.28845 
L 242.149965 47.971345 
L 242.242393 47.900185 
L 242.33482 47.512565 
L 242.427248 46.275304 
L 242.519675 47.693646 
L 242.612103 46.687929 
L 242.796958 47.114805 
L 242.889385 46.572275 
L 242.981813 47.069736 
L 243.07424 46.26532 
L 243.259095 47.779401 
L 243.536377 46.116187 
L 243.81366 47.882142 
L 243.906087 46.766715 
L 243.998515 47.21398 
L 244.18337 46.751744 
L 244.275797 46.908561 
L 244.368225 47.293679 
L 244.460652 46.541779 
L 244.55308 46.66879 
L 244.645507 47.931237 
L 244.922789 47.140359 
L 245.015217 47.377332 
L 245.200072 46.469197 
L 245.384927 46.977607 
L 245.477354 46.761437 
L 245.569782 47.23603 
L 245.662209 47.017521 
L 245.847064 47.486865 
L 245.939491 46.450048 
L 246.031919 47.610307 
L 246.124346 46.435573 
L 246.216774 47.160474 
L 246.309201 46.706048 
L 246.401629 46.917593 
L 246.586484 46.883357 
L 246.678911 46.434148 
L 246.771339 47.623191 
L 246.863766 47.614319 
L 246.956194 46.477403 
L 247.141049 47.041746 
L 247.233476 46.465433 
L 247.325903 47.016089 
L 247.418331 46.686319 
L 247.510758 47.722744 
L 247.695613 46.502152 
L 247.788041 46.909354 
L 247.880468 46.486332 
L 248.157751 47.649624 
L 248.250178 46.404703 
L 248.342606 47.037195 
L 248.435033 46.971251 
L 248.52746 46.761612 
L 248.619888 47.164037 
L 248.712315 47.048535 
L 248.804743 46.588135 
L 248.89717 46.7792 
L 248.989598 46.414027 
L 249.082025 47.136096 
L 249.174453 46.707181 
L 249.359308 46.92692 
L 249.451735 46.487114 
L 249.544163 47.622063 
L 249.63659 46.702283 
L 249.729017 47.686984 
L 249.821445 46.613947 
L 249.913872 47.032695 
L 250.0063 45.874244 
L 250.098727 45.902201 
L 250.283582 47.482019 
L 250.37601 46.770288 
L 250.468437 46.87741 
L 250.560865 46.373054 
L 250.653292 47.269731 
L 250.74572 46.028642 
L 251.023002 47.090543 
L 251.115429 46.948029 
L 251.207857 47.265652 
L 251.300284 46.03088 
L 251.392712 46.38589 
L 251.485139 47.494234 
L 251.577567 46.343099 
L 251.669994 47.271905 
L 251.762422 46.283767 
L 251.947277 46.943269 
L 252.039704 46.749409 
L 252.224559 47.347757 
L 252.409414 46.148182 
L 252.501841 46.846135 
L 252.686696 46.269386 
L 252.779124 46.922096 
L 252.963979 46.556692 
L 253.148834 46.860231 
L 253.241261 46.197616 
L 253.333689 46.601167 
L 253.426116 46.567667 
L 253.610971 47.079026 
L 253.703398 46.429706 
L 253.795826 47.443156 
L 253.888253 46.229981 
L 254.073108 47.241723 
L 254.165536 46.237311 
L 254.257963 46.606193 
L 254.350391 46.382704 
L 254.442818 46.941679 
L 254.627673 45.922586 
L 254.812528 47.254461 
L 254.904955 45.893505 
L 255.08981 46.702041 
L 255.182238 46.759504 
L 255.367093 46.349514 
L 255.551948 47.035985 
L 255.644375 46.39746 
L 255.736803 46.7439 
L 255.921658 46.203774 
L 256.014085 46.78413 
L 256.106512 46.351803 
L 256.19894 47.164094 
L 256.291367 47.140597 
L 256.56865 46.21392 
L 256.753505 46.649684 
L 256.845932 47.168907 
L 256.93836 46.886507 
L 257.030787 46.227751 
L 257.123215 46.280835 
L 257.215642 46.542872 
L 257.308069 46.248696 
L 257.400497 46.785529 
L 257.492924 46.406021 
L 257.585352 47.228027 
L 257.677779 46.301568 
L 257.770207 46.604418 
L 257.955062 46.446104 
L 258.047489 46.60537 
L 258.139917 47.068294 
L 258.232344 46.938562 
L 258.324772 46.046363 
L 258.417199 46.14728 
L 258.509626 46.625521 
L 258.602054 46.14688 
L 258.694481 46.919126 
L 258.786909 46.39135 
L 258.879336 46.472428 
L 258.971764 46.785401 
L 259.156619 46.083372 
L 259.249046 46.267097 
L 259.341474 45.788966 
L 259.433901 46.834969 
L 259.526329 46.80026 
L 259.618756 46.217233 
L 259.711184 46.268234 
L 259.803611 46.609501 
L 259.988466 46.056995 
L 260.080893 47.220292 
L 260.265748 46.051904 
L 260.358176 46.07127 
L 260.543031 46.819734 
L 260.635458 46.240802 
L 260.727886 47.08683 
L 260.912741 46.139075 
L 261.005168 46.193756 
L 261.097595 46.043251 
L 261.190023 46.90107 
L 261.28245 46.088894 
L 261.374878 46.53612 
L 261.467305 46.156954 
L 261.559733 46.256635 
L 261.65216 46.185226 
L 261.837015 46.784854 
L 261.929443 46.162455 
L 262.114298 46.499087 
L 262.39158 45.696714 
L 262.484007 46.647324 
L 262.576435 46.584716 
L 262.668862 46.116847 
L 262.853717 46.870807 
L 262.946145 45.982056 
L 263.038572 46.000356 
L 263.223427 46.577289 
L 263.315855 45.949411 
L 263.408282 46.764964 
L 263.593137 45.868802 
L 263.777992 46.710056 
L 263.870419 45.971759 
L 264.055274 46.719175 
L 264.147702 46.154737 
L 264.332557 46.596001 
L 264.424984 45.944771 
L 264.517412 46.231782 
L 264.609839 46.071135 
L 264.702267 46.618231 
L 264.794694 45.90586 
L 264.979549 46.694903 
L 265.164404 45.971269 
L 265.256831 46.093021 
L 265.349259 45.865015 
L 265.441686 46.305982 
L 265.534114 46.058556 
L 265.718969 46.468135 
L 265.811396 47.017578 
L 266.088678 46.086487 
L 266.181106 46.951682 
L 266.365961 45.949115 
L 266.550816 46.604742 
L 266.828098 45.927457 
L 267.012953 46.58188 
L 267.105381 46.283081 
L 267.197808 46.526737 
L 267.290235 45.793974 
L 267.47509 46.396878 
L 267.567518 46.774948 
L 267.659945 46.131999 
L 267.752373 46.229973 
L 267.8448 45.963411 
L 267.937228 46.443411 
L 268.029655 46.355515 
L 268.122083 46.192867 
L 268.21451 46.806546 
L 268.306938 46.093136 
L 268.399365 46.166236 
L 268.491793 46.830873 
L 268.58422 45.706209 
L 268.861502 46.499248 
L 268.95393 46.042702 
L 269.046357 47.279135 
L 269.231212 45.972898 
L 269.416067 46.083028 
L 269.508495 45.714772 
L 269.69335 46.186361 
L 269.785777 46.180412 
L 269.878204 45.900844 
L 269.970632 46.704897 
L 270.063059 45.838331 
L 270.155487 46.69354 
L 270.340342 45.976986 
L 270.432769 45.704034 
L 270.525197 46.26975 
L 270.710052 45.893884 
L 270.802479 46.248714 
L 270.894907 45.869285 
L 270.987334 46.223875 
L 271.079761 46.065015 
L 271.172189 46.355275 
L 271.449471 45.960746 
L 271.541899 45.969793 
L 271.726754 45.639963 
L 271.819181 46.525126 
L 271.911609 45.692399 
L 272.281318 46.6593 
L 272.373746 46.201888 
L 272.558601 46.400312 
L 272.651028 45.54279 
L 272.835883 46.203522 
L 272.928311 45.728269 
L 273.020738 47.065848 
L 273.205593 45.831349 
L 273.298021 46.050578 
L 273.390448 45.738376 
L 273.575303 46.357255 
L 273.66773 46.424689 
L 273.945013 45.608081 
L 274.129868 46.501706 
L 274.222295 45.648815 
L 274.314723 46.089474 
L 274.40715 45.830905 
L 274.499578 46.217873 
L 274.592005 46.061845 
L 274.684433 45.553368 
L 274.77686 46.204938 
L 274.869287 46.09548 
L 274.961715 46.309322 
L 275.054142 45.770391 
L 275.14657 46.456743 
L 275.423852 45.759736 
L 275.608707 46.817847 
L 275.701135 45.588839 
L 275.88599 46.418614 
L 275.978417 45.436729 
L 276.070844 45.708452 
L 276.163272 46.544922 
L 276.255699 46.001938 
L 276.348127 46.658657 
L 276.440554 45.919421 
L 276.532982 46.351207 
L 276.625409 45.58146 
L 276.810264 45.831681 
L 276.902692 45.829543 
L 277.179974 46.328884 
L 277.272402 46.252583 
L 277.364829 45.624137 
L 277.457256 45.838693 
L 277.549684 45.780011 
L 277.642111 45.650179 
L 277.734539 46.453152 
L 277.826966 45.925649 
L 277.919394 46.133286 
L 278.011821 45.632901 
L 278.104249 45.685485 
L 278.196676 45.940575 
L 278.289104 45.757946 
L 278.473959 46.039982 
L 278.566386 46.16419 
L 278.658813 45.968406 
L 278.751241 46.281495 
L 278.843668 45.650371 
L 278.936096 46.296676 
L 279.120951 45.69643 
L 279.305806 45.946801 
L 279.490661 45.744423 
L 279.675516 46.708838 
L 279.767943 45.512324 
L 279.86037 45.73241 
L 280.045225 45.570656 
L 280.137653 45.706829 
L 280.322508 46.508521 
L 280.507363 45.852892 
L 280.59979 46.09387 
L 280.692218 45.729651 
L 280.784645 46.11672 
L 280.877073 45.895839 
L 280.9695 46.118395 
L 281.061928 45.922054 
L 281.154355 46.169096 
L 281.246782 45.457401 
L 281.33921 45.744131 
L 281.431637 45.637432 
L 281.616492 46.434491 
L 281.801347 45.629492 
L 281.893775 45.845859 
L 281.986202 45.611715 
L 282.07863 46.090454 
L 282.171057 46.045321 
L 282.355912 45.58371 
L 282.540767 46.065111 
L 282.633194 46.084589 
L 282.725622 45.965479 
L 282.818049 46.375048 
L 282.910477 45.364703 
L 283.002904 45.398045 
L 283.095332 45.844838 
L 283.187759 45.513579 
L 283.280187 46.413412 
L 283.372614 45.950124 
L 283.465042 46.320717 
L 283.649896 45.814594 
L 283.742324 45.586533 
L 283.927179 45.851732 
L 284.019606 46.122602 
L 284.204461 45.498379 
L 284.296889 45.54801 
L 284.389316 46.147332 
L 284.481744 46.04257 
L 284.574171 46.073995 
L 284.666599 45.556106 
L 284.759026 45.993277 
L 285.036308 45.723614 
L 285.128736 45.969711 
L 285.221163 45.492917 
L 285.313591 45.993104 
L 285.498446 45.372097 
L 285.590873 46.229178 
L 285.683301 45.539125 
L 285.775728 45.955227 
L 285.868156 45.797651 
L 285.960583 45.886201 
L 286.053011 45.696784 
L 286.145438 45.799157 
L 286.237865 45.666882 
L 286.330293 45.997408 
L 286.42272 45.760042 
L 286.515148 46.526157 
L 286.607575 45.712361 
L 286.700003 45.742687 
L 286.79243 45.792749 
L 286.884858 45.474898 
L 286.977285 45.867462 
L 287.069713 45.763343 
L 287.16214 45.967572 
L 287.346995 45.532344 
L 287.439422 45.906373 
L 287.53185 45.741657 
L 287.624277 45.993052 
L 287.809132 45.602754 
L 287.993987 45.751641 
L 288.086415 45.850997 
L 288.178842 45.769399 
L 288.27127 46.094215 
L 288.363697 45.635629 
L 288.456125 46.020539 
L 288.548552 45.492421 
L 288.640979 45.5711 
L 288.825834 45.700232 
L 288.918262 45.66661 
L 289.010689 46.039487 
L 289.195544 45.48412 
L 289.287972 46.20949 
L 289.380399 45.382561 
L 289.657682 45.766158 
L 289.750109 45.720556 
L 289.842537 46.046336 
L 289.934964 45.604132 
L 290.027391 46.032919 
L 290.119819 46.009964 
L 290.212246 45.438238 
L 290.304674 45.530278 
L 290.397101 45.773502 
L 290.489529 45.442856 
L 290.581956 46.066056 
L 290.859239 45.31047 
L 290.951666 45.892048 
L 291.044094 45.83604 
L 291.136521 45.405935 
L 291.228948 45.775673 
L 291.413803 45.365282 
L 291.506231 45.753183 
L 291.598658 45.523266 
L 291.691086 46.119624 
L 291.783513 45.733551 
L 291.875941 46.071765 
L 291.968368 45.410998 
L 292.060796 46.129941 
L 292.245651 45.38495 
L 292.338078 45.886072 
L 292.522933 45.266077 
L 292.61536 46.112708 
L 292.707788 45.342705 
L 292.800215 45.643338 
L 292.892643 45.468502 
L 292.98507 46.119135 
L 293.169925 45.796817 
L 293.262353 46.291079 
L 293.447208 45.113855 
L 293.539635 45.151759 
L 293.632063 45.926534 
L 293.72449 45.875173 
L 293.816917 45.443396 
L 293.909345 45.691259 
L 294.0942 45.329093 
L 294.279055 45.756624 
L 294.371482 45.534998 
L 294.46391 45.89782 
L 294.556337 45.286991 
L 294.648765 45.965377 
L 294.83362 45.610768 
L 294.926047 45.648152 
L 295.018474 45.540256 
L 295.110902 45.960769 
L 295.295757 45.13298 
L 295.480612 45.813013 
L 295.573039 45.689746 
L 295.665467 45.259816 
L 295.850322 45.719602 
L 296.035177 45.343957 
L 296.127604 45.484291 
L 296.312459 45.955159 
L 296.497314 45.598492 
L 296.589741 45.606753 
L 296.682169 45.843336 
L 296.774596 45.437343 
L 296.959451 45.529013 
L 297.051879 45.450581 
L 297.144306 45.959938 
L 297.514016 45.359565 
L 297.698871 45.893945 
L 297.791298 45.236578 
L 297.883726 45.928702 
L 297.976153 45.495512 
L 298.068581 45.532503 
L 298.161008 45.269004 
L 298.253436 45.896772 
L 298.345863 45.45325 
L 298.530718 45.912563 
L 298.715573 45.611793 
L 298.808 45.701375 
L 298.992855 45.306556 
L 299.085283 45.621553 
L 299.270138 45.210037 
L 299.362565 45.389488 
L 299.454993 45.177981 
L 299.54742 45.452988 
L 299.639848 45.378455 
L 299.732275 45.755016 
L 299.824703 45.617281 
L 299.91713 45.231271 
L 300.009557 46.447464 
L 300.194412 45.435496 
L 300.28684 45.680577 
L 300.379267 45.286069 
L 300.471695 45.347376 
L 300.564122 45.683733 
L 300.65655 45.56287 
L 300.748977 45.766882 
L 300.933832 45.164375 
L 301.118687 45.910594 
L 301.211114 46.025446 
L 301.303542 45.440149 
L 301.395969 45.462362 
L 301.488397 45.396355 
L 301.580824 45.714125 
L 301.765679 45.615334 
L 301.858107 45.512839 
L 301.950534 45.714966 
L 302.135389 45.350235 
L 302.412672 45.320787 
L 302.505099 45.831017 
L 302.689954 45.458736 
L 302.782381 45.804612 
L 302.967236 45.517197 
L 303.059664 45.317936 
L 303.152091 45.742854 
L 303.244519 45.658393 
L 303.521801 45.185609 
L 303.614229 45.952549 
L 303.706656 45.260242 
L 303.891511 45.50966 
L 303.983938 45.202118 
L 304.168793 45.811697 
L 304.261221 45.398933 
L 304.353648 45.488148 
L 304.446076 45.442154 
L 304.538503 45.618455 
L 304.723358 45.383728 
L 304.815786 45.659701 
L 304.908213 45.591262 
L 305.00064 45.693819 
L 305.093068 45.544967 
L 305.185495 45.090318 
L 305.277923 45.6344 
L 305.555205 45.252462 
L 305.647633 45.72027 
L 305.832488 45.105636 
L 306.017343 45.757373 
L 306.10977 44.980191 
L 306.202197 45.652171 
L 306.387052 45.307772 
L 306.47948 45.919578 
L 306.756762 45.154902 
L 306.84919 45.780856 
L 306.941617 45.384882 
L 307.034045 45.690725 
L 307.126472 45.378109 
L 307.2189 45.806988 
L 307.403755 45.372663 
L 307.496182 45.192735 
L 307.588609 45.303331 
L 307.681037 45.927663 
L 307.773464 45.219142 
L 307.865892 45.501957 
L 307.958319 45.46529 
L 308.143174 45.12749 
L 308.420457 45.593643 
L 308.605312 45.041804 
L 308.790166 45.791384 
L 308.975021 45.0695 
L 309.159876 46.344076 
L 309.252304 45.138148 
L 309.344731 45.190397 
L 309.437159 45.725899 
L 309.529586 45.667911 
L 309.622014 45.281478 
L 309.899296 45.731661 
L 309.991723 45.161847 
L 310.084151 45.203558 
L 310.269006 45.241512 
L 310.361433 45.555393 
L 310.638716 45.123178 
L 310.731143 45.56647 
L 310.823571 45.138105 
L 310.915998 45.592444 
L 311.193281 45.247284 
L 311.285708 45.682208 
L 311.378135 45.241835 
L 311.470563 45.403092 
L 311.56299 45.188055 
L 311.655418 45.738028 
L 311.747845 45.108702 
L 311.9327 45.382217 
L 312.025128 45.251051 
L 312.117555 45.403635 
L 312.209983 45.825891 
L 312.487265 45.148994 
L 312.949402 45.410916 
L 313.04183 45.788471 
L 313.226685 45.193634 
L 313.319112 45.247453 
L 313.41154 45.652107 
L 313.596395 45.059449 
L 313.688822 45.141504 
L 313.781249 45.550655 
L 313.873677 45.383612 
L 314.058532 45.691646 
L 314.150959 45.812517 
L 314.243387 45.121017 
L 314.520669 45.838075 
L 314.797952 45.244743 
L 314.890379 45.362393 
L 314.982807 45.029328 
L 315.075234 45.629487 
L 315.167661 44.963908 
L 315.352516 45.558601 
L 315.444944 45.564958 
L 315.537371 45.090462 
L 315.814654 45.656853 
L 315.907081 45.146716 
L 316.091936 45.572408 
L 316.184364 45.272855 
L 316.276791 45.319769 
L 316.369218 45.054874 
L 316.461646 45.417691 
L 316.646501 45.279245 
L 316.738928 45.591752 
L 316.831356 45.313895 
L 316.923783 45.433764 
L 317.108638 44.998908 
L 317.201066 45.667133 
L 317.293493 45.14274 
L 317.385921 45.822896 
L 317.478348 45.052578 
L 317.570775 45.63598 
L 317.663203 45.008606 
L 317.75563 45.348591 
L 317.848058 45.228276 
L 318.032913 45.392354 
L 318.12534 45.22515 
L 318.217768 45.664908 
L 318.310195 45.193886 
L 318.402623 45.55052 
L 318.587478 45.101997 
L 318.772332 45.416462 
L 318.86476 45.44125 
L 319.049615 45.095766 
L 319.142042 45.438153 
L 319.23447 45.017913 
L 319.326897 45.365127 
L 319.419325 45.299322 
L 319.511752 45.290067 
L 319.60418 45.503144 
L 319.696607 45.216443 
L 319.789035 45.346333 
L 319.881462 45.276077 
L 319.97389 45.461701 
L 320.066317 45.226103 
L 320.251172 45.507657 
L 320.343599 45.128197 
L 320.436027 45.528 
L 320.620882 45.102819 
L 320.805737 45.494199 
L 320.990592 44.91699 
L 321.083019 45.242458 
L 321.175447 45.093 
L 321.267874 45.809064 
L 321.545156 45.019385 
L 321.637584 44.96098 
L 321.822439 45.281361 
L 321.914866 45.673049 
L 322.099721 45.163187 
L 322.192149 45.7122 
L 322.469431 45.27135 
L 322.561858 45.675411 
L 322.654286 45.155708 
L 322.839141 45.477793 
L 323.023996 45.144713 
L 323.116423 45.170632 
L 323.208851 44.950749 
L 323.301278 45.626369 
L 323.393706 45.140072 
L 323.486133 45.226032 
L 323.578561 45.238429 
L 323.670988 45.811047 
L 323.763416 45.233381 
L 323.855843 45.262331 
L 323.94827 44.917196 
L 324.040698 45.35877 
L 324.133125 45.197462 
L 324.225553 45.722192 
L 324.410408 45.142564 
L 324.502835 45.470838 
L 324.68769 45.191382 
L 324.780118 45.338919 
L 324.964973 45.088426 
L 325.0574 45.590256 
L 325.242255 45.208547 
L 325.334682 45.161345 
L 325.42711 45.359362 
L 325.519537 45.218663 
L 325.704392 45.320359 
L 325.889247 44.99417 
L 325.981675 45.579084 
L 326.16653 45.184976 
L 326.258957 45.504304 
L 326.536239 45.033425 
L 326.628667 45.15076 
L 326.721094 45.356395 
L 326.813522 44.973442 
L 326.905949 45.368807 
L 326.998377 45.324806 
L 327.090804 45.108763 
L 327.183232 45.398081 
L 327.275659 44.881906 
L 327.737796 45.483416 
L 327.830224 45.117922 
L 327.922651 45.566223 
L 328.199934 45.190659 
L 328.292361 45.370203 
L 328.477216 45.173438 
L 328.569644 45.376379 
L 328.754499 45.03387 
L 328.846926 45.160906 
L 329.031781 45.023485 
L 329.216636 45.162045 
L 329.401491 45.557067 
L 329.586346 45.051126 
L 329.678773 45.32543 
L 329.771201 45.27272 
L 329.956056 45.200155 
L 330.233338 45.2655 
L 330.325765 44.977835 
L 330.51062 45.293567 
L 330.603048 44.986976 
L 330.695475 45.179337 
L 330.787903 45.683578 
L 330.88033 45.628405 
L 330.972758 45.064796 
L 331.065185 45.267979 
L 331.342467 44.956346 
L 331.434895 45.289379 
L 331.527322 44.958775 
L 331.712177 45.465732 
L 331.804605 45.382982 
L 331.98946 45.066947 
L 332.081887 44.957102 
L 332.174315 45.394376 
L 332.35917 45.023452 
L 332.451597 45.077386 
L 332.544025 45.294185 
L 332.636452 45.092824 
L 332.728879 45.418723 
L 332.821307 45.350596 
L 333.191017 45.138195 
L 333.283444 45.319598 
L 333.375872 44.814222 
L 333.653154 45.351312 
L 333.745582 45.202574 
L 333.838009 45.546759 
L 333.930436 45.056281 
L 334.022864 45.215385 
L 334.207719 45.015894 
L 334.300146 45.228663 
L 334.392574 45.063315 
L 334.485001 45.366019 
L 334.762284 45.012174 
L 334.947139 45.147248 
L 335.039566 45.267207 
L 335.224421 45.129184 
L 335.316848 45.161019 
L 335.409276 45.48495 
L 335.594131 45.157476 
L 335.686558 45.177587 
L 335.778986 44.91686 
L 335.871413 45.417516 
L 335.963841 45.015524 
L 336.056268 45.280208 
L 336.333551 45.000857 
L 336.610833 45.370262 
L 336.795688 45.101899 
L 336.888115 45.350037 
L 337.350253 45.039109 
L 337.44268 45.09174 
L 337.535108 45.33111 
L 337.81239 45.065966 
L 337.904817 44.991176 
L 338.089672 45.537601 
L 338.1821 44.957971 
L 338.274527 45.074905 
L 338.366955 45.243774 
L 338.459382 45.177149 
L 338.55181 44.900079 
L 338.644237 45.012266 
L 338.736665 45.745706 
L 338.829092 45.232697 
L 338.921519 45.382768 
L 339.106374 44.800075 
L 339.198802 45.153339 
L 339.291229 44.915419 
L 339.383657 45.236428 
L 339.476084 45.114259 
L 339.568512 45.346411 
L 339.660939 45.269661 
L 339.753367 45.012392 
L 339.938222 45.267152 
L 340.030649 45.418266 
L 340.123076 44.753915 
L 340.307931 45.422924 
L 340.400359 44.892111 
L 340.492786 45.134141 
L 340.585214 44.990778 
L 340.677641 45.259286 
L 340.770069 45.071584 
L 340.862496 45.142008 
L 341.047351 44.955202 
L 341.139779 45.190432 
L 341.324634 45.114214 
L 341.417061 45.066512 
L 341.509488 45.226996 
L 341.601916 45.052495 
L 341.694343 45.344906 
L 341.786771 45.151496 
L 341.879198 45.258898 
L 341.971626 44.929848 
L 342.064053 45.320713 
L 342.156481 45.020568 
L 342.341336 45.114342 
L 342.526191 45.158883 
L 342.618618 44.888828 
L 342.711045 45.303707 
L 342.8959 44.848617 
L 342.988328 45.219002 
L 343.173183 45.083819 
L 343.358038 45.196491 
L 343.450465 45.001234 
L 343.542893 45.51621 
L 343.727748 44.83705 
L 343.820175 45.339369 
L 344.00503 45.141397 
L 344.189885 45.011319 
L 344.37474 45.234729 
L 344.652022 44.921775 
L 344.929305 45.414812 
L 345.021732 45.311289 
L 345.299014 44.92703 
L 345.391442 45.056424 
L 345.483869 44.92471 
L 345.576297 45.527406 
L 345.761152 45.023141 
L 345.946007 45.00631 
L 346.038434 45.200124 
L 346.130862 44.810149 
L 346.223289 45.195392 
L 346.408144 45.004782 
L 346.500571 45.126552 
L 346.685426 44.877053 
L 346.870281 45.25574 
L 346.962709 44.98559 
L 347.147564 45.213787 
L 347.239991 45.000798 
L 347.517274 45.187713 
L 347.609701 44.967693 
L 347.702128 45.011737 
L 347.886983 45.109271 
L 348.071838 45.016997 
L 348.349121 45.138696 
L 348.441548 45.067401 
L 348.533976 45.146276 
L 348.718831 44.969185 
L 348.811258 45.133991 
L 348.903686 44.896747 
L 348.996113 44.982075 
L 349.08854 45.221187 
L 349.365823 44.966395 
L 349.45825 45.39259 
L 349.550678 44.940237 
L 349.643105 45.016928 
L 349.920388 45.038251 
L 350.19767 45.210114 
L 350.290097 45.267568 
L 350.382525 44.902337 
L 350.56738 45.250019 
L 350.659807 45.010846 
L 350.752235 45.231209 
L 350.93709 44.97456 
L 351.029517 44.962045 
L 351.121945 45.063567 
L 351.214372 44.859333 
L 351.3068 45.157425 
L 351.584082 44.916007 
L 351.768937 45.318503 
L 351.861364 45.311806 
L 351.953792 44.817584 
L 352.046219 45.136903 
L 352.138647 44.997907 
L 352.231074 45.157896 
L 352.415929 45.118159 
L 352.508357 45.318215 
L 352.693211 44.959442 
L 352.785639 44.863493 
L 352.878066 45.126722 
L 352.970494 45.069699 
L 353.155349 44.901783 
L 353.247776 45.185806 
L 353.340204 45.096899 
L 353.432631 45.296169 
L 353.525059 44.785098 
L 353.617486 45.31646 
L 353.802341 44.985259 
L 353.987196 44.937385 
L 354.264478 45.234808 
L 354.356906 45.373312 
L 354.449333 44.870352 
L 354.541761 45.011839 
L 354.634188 44.815759 
L 354.726616 45.232896 
L 354.819043 44.866179 
L 354.911471 45.237977 
L 355.003898 44.92766 
L 355.096326 45.151512 
L 355.28118 44.999829 
L 355.373608 44.872259 
L 355.466035 45.286343 
L 355.558463 45.224355 
L 355.743318 44.887896 
L 355.928173 44.959728 
L 356.0206 44.892167 
L 356.113028 45.134593 
L 356.205455 45.062301 
L 356.297883 44.76092 
L 356.39031 45.291702 
L 356.482737 45.193607 
L 356.667592 45.022047 
L 356.852447 44.826098 
L 356.944875 45.28594 
L 357.037302 44.855403 
L 357.12973 45.156758 
L 357.314585 45.03478 
L 357.407012 45.150644 
L 357.49944 44.926385 
L 357.591867 45.031563 
L 357.684295 44.865968 
L 357.869149 45.171957 
L 357.961577 44.852802 
L 358.054004 45.175102 
L 358.238859 44.925283 
L 358.331287 45.238555 
L 358.516142 44.90647 
L 358.608569 45.162168 
L 358.793424 45.001277 
L 359.070706 44.881253 
L 359.347989 45.227787 
L 359.440416 45.18979 
L 359.532844 44.962551 
L 359.625271 45.016246 
L 359.717699 45.125224 
L 360.087409 44.882515 
L 360.179836 45.106527 
L 360.272263 44.932478 
L 360.457118 45.34431 
L 360.641973 44.960994 
L 360.734401 45.06563 
L 361.104111 44.771883 
L 361.196538 44.971574 
L 361.381393 44.926669 
L 361.473821 45.077074 
L 361.566248 44.960032 
L 361.751103 45.055552 
L 361.84353 44.878348 
L 361.935958 45.086598 
L 362.028385 44.927484 
L 362.120813 45.181808 
L 362.305668 44.938983 
L 362.398095 44.929012 
L 362.490523 44.716887 
L 362.675378 45.265088 
L 362.95266 45.003683 
L 363.32237 45.037311 
L 363.414797 45.203063 
L 363.599652 44.83349 
L 363.69208 45.098131 
L 363.876935 45.000992 
L 363.969362 44.968165 
L 364.061789 45.096743 
L 364.154217 44.8586 
L 364.246644 45.026706 
L 364.339072 44.888406 
L 364.431499 45.11856 
L 364.616354 44.900591 
L 364.893637 45.142081 
L 364.986064 45.359305 
L 365.078492 44.948876 
L 365.170919 45.155982 
L 365.355774 44.831554 
L 365.633056 45.018104 
L 365.817911 44.94443 
L 366.002766 45.197657 
L 366.095194 45.122347 
L 366.187621 44.823296 
L 366.372476 44.914301 
L 366.557331 44.806669 
L 366.649758 45.085433 
L 366.927041 44.847262 
L 367.204323 45.04986 
L 367.296751 44.967501 
L 367.481606 45.078541 
L 367.851315 44.928982 
L 367.943743 44.960809 
L 368.03617 44.740592 
L 368.128598 45.12492 
L 368.221025 45.051952 
L 368.77559 44.953377 
L 368.868018 45.108221 
L 369.052872 44.983115 
L 369.51501 44.91936 
L 369.607437 44.871625 
L 369.699865 45.40757 
L 369.88472 44.773829 
L 370.069575 45.047284 
L 370.346857 44.73967 
L 370.439284 45.107205 
L 370.531712 44.817182 
L 370.624139 44.87302 
L 370.901422 44.877233 
L 370.993849 45.161845 
L 371.086277 44.815513 
L 371.178704 44.890778 
L 371.271132 45.204224 
L 371.363559 44.951971 
L 371.455987 45.04938 
L 371.733269 44.869978 
L 371.918124 44.745967 
L 372.010551 44.858519 
L 372.102979 44.792677 
L 372.287834 45.323479 
L 372.380261 44.771342 
L 372.472689 44.808889 
L 372.565116 45.093873 
L 372.749971 44.83317 
L 372.842398 45.034504 
L 372.934826 44.883487 
L 373.027253 45.089596 
L 373.396963 44.773476 
L 373.489391 44.9849 
L 373.581818 44.944223 
" style="fill:none;stroke:#ff7f0e;stroke-linecap:square;stroke-width:1.5;"/>
   </g>
   <g id="patch_3">
    <path d="M 54 252 
L 54 34.56 
" style="fill:none;stroke:#000000;stroke-linecap:square;stroke-linejoin:miter;stroke-width:0.8;"/>
   </g>
   <g id="patch_4">
    <path d="M 388.8 252 
L 388.8 34.56 
" style="fill:none;stroke:#000000;stroke-linecap:square;stroke-linejoin:miter;stroke-width:0.8;"/>
   </g>
   <g id="patch_5">
    <path d="M 54 252 
L 388.8 252 
" style="fill:none;stroke:#000000;stroke-linecap:square;stroke-linejoin:miter;stroke-width:0.8;"/>
   </g>
   <g id="patch_6">
    <path d="M 54 34.56 
L 388.8 34.56 
" style="fill:none;stroke:#000000;stroke-linecap:square;stroke-linejoin:miter;stroke-width:0.8;"/>
   </g>
  </g>
 </g>
 <defs>
  <clipPath id="p6f006831fe">
   <rect height="217.44" width="334.8" x="54" y="34.56"/>
  </clipPath>
 </defs>
</svg>
