<?xml version="1.0" encoding="utf-8" standalone="no"?>
<!DOCTYPE svg PUBLIC "-//W3C//DTD SVG 1.1//EN"
  "http://www.w3.org/Graphics/SVG/1.1/DTD/svg11.dtd">
<!-- Created with matplotlib (https://matplotlib.org/) -->
<svg height="1080pt" version="1.1" viewBox="0 0 1080 1080" width="1080pt" xmlns="http://www.w3.org/2000/svg" xmlns:xlink="http://www.w3.org/1999/xlink">
 <defs>
  <style type="text/css">
*{stroke-linecap:butt;stroke-linejoin:round;}
  </style>
 </defs>
 <g id="figure_1">
  <g id="patch_1">
   <path d="M 0 1080 
L 1080 1080 
L 1080 0 
L 0 0 
z
" style="fill:#ffffff;"/>
  </g>
  <g id="axes_1">
   <g id="patch_2">
    <path d="M 135 369.423529 
L 972 369.423529 
L 972 129.6 
L 135 129.6 
z
" style="fill:#ffffff;"/>
   </g>
   <g id="matplotlib.axis_1">
    <g id="xtick_1">
     <g id="line2d_1">
      <defs>
       <path d="M 0 0 
L 0 3.5 
" id="m027b87dbb9" style="stroke:#000000;stroke-width:0.8;"/>
      </defs>
      <g>
       <use style="stroke:#000000;stroke-width:0.8;" x="173.045455" xlink:href="#m027b87dbb9" y="369.423529"/>
      </g>
     </g>
     <g id="text_1">
      <!-- 0 -->
      <defs>
       <path d="M 31.78125 66.40625 
Q 24.171875 66.40625 20.328125 58.90625 
Q 16.5 51.421875 16.5 36.375 
Q 16.5 21.390625 20.328125 13.890625 
Q 24.171875 6.390625 31.78125 6.390625 
Q 39.453125 6.390625 43.28125 13.890625 
Q 47.125 21.390625 47.125 36.375 
Q 47.125 51.421875 43.28125 58.90625 
Q 39.453125 66.40625 31.78125 66.40625 
z
M 31.78125 74.21875 
Q 44.046875 74.21875 50.515625 64.515625 
Q 56.984375 54.828125 56.984375 36.375 
Q 56.984375 17.96875 50.515625 8.265625 
Q 44.046875 -1.421875 31.78125 -1.421875 
Q 19.53125 -1.421875 13.0625 8.265625 
Q 6.59375 17.96875 6.59375 36.375 
Q 6.59375 54.828125 13.0625 64.515625 
Q 19.53125 74.21875 31.78125 74.21875 
z
" id="DejaVuSans-48"/>
      </defs>
      <g transform="translate(167.319205 390.100717)scale(0.18 -0.18)">
       <use xlink:href="#DejaVuSans-48"/>
      </g>
     </g>
    </g>
    <g id="xtick_2">
     <g id="line2d_2">
      <g>
       <use style="stroke:#000000;stroke-width:0.8;" x="305.839362" xlink:href="#m027b87dbb9" y="369.423529"/>
      </g>
     </g>
     <g id="text_2">
      <!-- 100 -->
      <defs>
       <path d="M 12.40625 8.296875 
L 28.515625 8.296875 
L 28.515625 63.921875 
L 10.984375 60.40625 
L 10.984375 69.390625 
L 28.421875 72.90625 
L 38.28125 72.90625 
L 38.28125 8.296875 
L 54.390625 8.296875 
L 54.390625 0 
L 12.40625 0 
z
" id="DejaVuSans-49"/>
      </defs>
      <g transform="translate(288.660612 390.100717)scale(0.18 -0.18)">
       <use xlink:href="#DejaVuSans-49"/>
       <use x="63.623047" xlink:href="#DejaVuSans-48"/>
       <use x="127.246094" xlink:href="#DejaVuSans-48"/>
      </g>
     </g>
    </g>
    <g id="xtick_3">
     <g id="line2d_3">
      <g>
       <use style="stroke:#000000;stroke-width:0.8;" x="438.63327" xlink:href="#m027b87dbb9" y="369.423529"/>
      </g>
     </g>
     <g id="text_3">
      <!-- 200 -->
      <defs>
       <path d="M 19.1875 8.296875 
L 53.609375 8.296875 
L 53.609375 0 
L 7.328125 0 
L 7.328125 8.296875 
Q 12.9375 14.109375 22.625 23.890625 
Q 32.328125 33.6875 34.8125 36.53125 
Q 39.546875 41.84375 41.421875 45.53125 
Q 43.3125 49.21875 43.3125 52.78125 
Q 43.3125 58.59375 39.234375 62.25 
Q 35.15625 65.921875 28.609375 65.921875 
Q 23.96875 65.921875 18.8125 64.3125 
Q 13.671875 62.703125 7.8125 59.421875 
L 7.8125 69.390625 
Q 13.765625 71.78125 18.9375 73 
Q 24.125 74.21875 28.421875 74.21875 
Q 39.75 74.21875 46.484375 68.546875 
Q 53.21875 62.890625 53.21875 53.421875 
Q 53.21875 48.921875 51.53125 44.890625 
Q 49.859375 40.875 45.40625 35.40625 
Q 44.1875 33.984375 37.640625 27.21875 
Q 31.109375 20.453125 19.1875 8.296875 
z
" id="DejaVuSans-50"/>
      </defs>
      <g transform="translate(421.45452 390.100717)scale(0.18 -0.18)">
       <use xlink:href="#DejaVuSans-50"/>
       <use x="63.623047" xlink:href="#DejaVuSans-48"/>
       <use x="127.246094" xlink:href="#DejaVuSans-48"/>
      </g>
     </g>
    </g>
    <g id="xtick_4">
     <g id="line2d_4">
      <g>
       <use style="stroke:#000000;stroke-width:0.8;" x="571.427178" xlink:href="#m027b87dbb9" y="369.423529"/>
      </g>
     </g>
     <g id="text_4">
      <!-- 300 -->
      <defs>
       <path d="M 40.578125 39.3125 
Q 47.65625 37.796875 51.625 33 
Q 55.609375 28.21875 55.609375 21.1875 
Q 55.609375 10.40625 48.1875 4.484375 
Q 40.765625 -1.421875 27.09375 -1.421875 
Q 22.515625 -1.421875 17.65625 -0.515625 
Q 12.796875 0.390625 7.625 2.203125 
L 7.625 11.71875 
Q 11.71875 9.328125 16.59375 8.109375 
Q 21.484375 6.890625 26.8125 6.890625 
Q 36.078125 6.890625 40.9375 10.546875 
Q 45.796875 14.203125 45.796875 21.1875 
Q 45.796875 27.640625 41.28125 31.265625 
Q 36.765625 34.90625 28.71875 34.90625 
L 20.21875 34.90625 
L 20.21875 43.015625 
L 29.109375 43.015625 
Q 36.375 43.015625 40.234375 45.921875 
Q 44.09375 48.828125 44.09375 54.296875 
Q 44.09375 59.90625 40.109375 62.90625 
Q 36.140625 65.921875 28.71875 65.921875 
Q 24.65625 65.921875 20.015625 65.03125 
Q 15.375 64.15625 9.8125 62.3125 
L 9.8125 71.09375 
Q 15.4375 72.65625 20.34375 73.4375 
Q 25.25 74.21875 29.59375 74.21875 
Q 40.828125 74.21875 47.359375 69.109375 
Q 53.90625 64.015625 53.90625 55.328125 
Q 53.90625 49.265625 50.4375 45.09375 
Q 46.96875 40.921875 40.578125 39.3125 
z
" id="DejaVuSans-51"/>
      </defs>
      <g transform="translate(554.248428 390.100717)scale(0.18 -0.18)">
       <use xlink:href="#DejaVuSans-51"/>
       <use x="63.623047" xlink:href="#DejaVuSans-48"/>
       <use x="127.246094" xlink:href="#DejaVuSans-48"/>
      </g>
     </g>
    </g>
    <g id="xtick_5">
     <g id="line2d_5">
      <g>
       <use style="stroke:#000000;stroke-width:0.8;" x="704.221085" xlink:href="#m027b87dbb9" y="369.423529"/>
      </g>
     </g>
     <g id="text_5">
      <!-- 400 -->
      <defs>
       <path d="M 37.796875 64.3125 
L 12.890625 25.390625 
L 37.796875 25.390625 
z
M 35.203125 72.90625 
L 47.609375 72.90625 
L 47.609375 25.390625 
L 58.015625 25.390625 
L 58.015625 17.1875 
L 47.609375 17.1875 
L 47.609375 0 
L 37.796875 0 
L 37.796875 17.1875 
L 4.890625 17.1875 
L 4.890625 26.703125 
z
" id="DejaVuSans-52"/>
      </defs>
      <g transform="translate(687.042335 390.100717)scale(0.18 -0.18)">
       <use xlink:href="#DejaVuSans-52"/>
       <use x="63.623047" xlink:href="#DejaVuSans-48"/>
       <use x="127.246094" xlink:href="#DejaVuSans-48"/>
      </g>
     </g>
    </g>
    <g id="xtick_6">
     <g id="line2d_6">
      <g>
       <use style="stroke:#000000;stroke-width:0.8;" x="837.014993" xlink:href="#m027b87dbb9" y="369.423529"/>
      </g>
     </g>
     <g id="text_6">
      <!-- 500 -->
      <defs>
       <path d="M 10.796875 72.90625 
L 49.515625 72.90625 
L 49.515625 64.59375 
L 19.828125 64.59375 
L 19.828125 46.734375 
Q 21.96875 47.46875 24.109375 47.828125 
Q 26.265625 48.1875 28.421875 48.1875 
Q 40.625 48.1875 47.75 41.5 
Q 54.890625 34.8125 54.890625 23.390625 
Q 54.890625 11.625 47.5625 5.09375 
Q 40.234375 -1.421875 26.90625 -1.421875 
Q 22.3125 -1.421875 17.546875 -0.640625 
Q 12.796875 0.140625 7.71875 1.703125 
L 7.71875 11.625 
Q 12.109375 9.234375 16.796875 8.0625 
Q 21.484375 6.890625 26.703125 6.890625 
Q 35.15625 6.890625 40.078125 11.328125 
Q 45.015625 15.765625 45.015625 23.390625 
Q 45.015625 31 40.078125 35.4375 
Q 35.15625 39.890625 26.703125 39.890625 
Q 22.75 39.890625 18.8125 39.015625 
Q 14.890625 38.140625 10.796875 36.28125 
z
" id="DejaVuSans-53"/>
      </defs>
      <g transform="translate(819.836243 390.100717)scale(0.18 -0.18)">
       <use xlink:href="#DejaVuSans-53"/>
       <use x="63.623047" xlink:href="#DejaVuSans-48"/>
       <use x="127.246094" xlink:href="#DejaVuSans-48"/>
      </g>
     </g>
    </g>
    <g id="xtick_7">
     <g id="line2d_7">
      <g>
       <use style="stroke:#000000;stroke-width:0.8;" x="969.808901" xlink:href="#m027b87dbb9" y="369.423529"/>
      </g>
     </g>
     <g id="text_7">
      <!-- 600 -->
      <defs>
       <path d="M 33.015625 40.375 
Q 26.375 40.375 22.484375 35.828125 
Q 18.609375 31.296875 18.609375 23.390625 
Q 18.609375 15.53125 22.484375 10.953125 
Q 26.375 6.390625 33.015625 6.390625 
Q 39.65625 6.390625 43.53125 10.953125 
Q 47.40625 15.53125 47.40625 23.390625 
Q 47.40625 31.296875 43.53125 35.828125 
Q 39.65625 40.375 33.015625 40.375 
z
M 52.59375 71.296875 
L 52.59375 62.3125 
Q 48.875 64.0625 45.09375 64.984375 
Q 41.3125 65.921875 37.59375 65.921875 
Q 27.828125 65.921875 22.671875 59.328125 
Q 17.53125 52.734375 16.796875 39.40625 
Q 19.671875 43.65625 24.015625 45.921875 
Q 28.375 48.1875 33.59375 48.1875 
Q 44.578125 48.1875 50.953125 41.515625 
Q 57.328125 34.859375 57.328125 23.390625 
Q 57.328125 12.15625 50.6875 5.359375 
Q 44.046875 -1.421875 33.015625 -1.421875 
Q 20.359375 -1.421875 13.671875 8.265625 
Q 6.984375 17.96875 6.984375 36.375 
Q 6.984375 53.65625 15.1875 63.9375 
Q 23.390625 74.21875 37.203125 74.21875 
Q 40.921875 74.21875 44.703125 73.484375 
Q 48.484375 72.75 52.59375 71.296875 
z
" id="DejaVuSans-54"/>
      </defs>
      <g transform="translate(952.630151 390.100717)scale(0.18 -0.18)">
       <use xlink:href="#DejaVuSans-54"/>
       <use x="63.623047" xlink:href="#DejaVuSans-48"/>
       <use x="127.246094" xlink:href="#DejaVuSans-48"/>
      </g>
     </g>
    </g>
   </g>
   <g id="matplotlib.axis_2">
    <g id="ytick_1">
     <g id="line2d_8">
      <defs>
       <path d="M 0 0 
L -3.5 0 
" id="mf1e862a3b1" style="stroke:#000000;stroke-width:0.8;"/>
      </defs>
      <g>
       <use style="stroke:#000000;stroke-width:0.8;" x="135" xlink:href="#mf1e862a3b1" y="369.423529"/>
      </g>
     </g>
     <g id="text_8">
      <!-- −200 -->
      <defs>
       <path d="M 10.59375 35.5 
L 73.1875 35.5 
L 73.1875 27.203125 
L 10.59375 27.203125 
z
" id="DejaVuSans-8722"/>
      </defs>
      <g transform="translate(78.559063 376.262123)scale(0.18 -0.18)">
       <use xlink:href="#DejaVuSans-8722"/>
       <use x="83.789062" xlink:href="#DejaVuSans-50"/>
       <use x="147.412109" xlink:href="#DejaVuSans-48"/>
       <use x="211.035156" xlink:href="#DejaVuSans-48"/>
      </g>
     </g>
    </g>
    <g id="ytick_2">
     <g id="line2d_9">
      <g>
       <use style="stroke:#000000;stroke-width:0.8;" x="135" xlink:href="#mf1e862a3b1" y="325.819251"/>
      </g>
     </g>
     <g id="text_9">
      <!-- −180 -->
      <defs>
       <path d="M 31.78125 34.625 
Q 24.75 34.625 20.71875 30.859375 
Q 16.703125 27.09375 16.703125 20.515625 
Q 16.703125 13.921875 20.71875 10.15625 
Q 24.75 6.390625 31.78125 6.390625 
Q 38.8125 6.390625 42.859375 10.171875 
Q 46.921875 13.96875 46.921875 20.515625 
Q 46.921875 27.09375 42.890625 30.859375 
Q 38.875 34.625 31.78125 34.625 
z
M 21.921875 38.8125 
Q 15.578125 40.375 12.03125 44.71875 
Q 8.5 49.078125 8.5 55.328125 
Q 8.5 64.0625 14.71875 69.140625 
Q 20.953125 74.21875 31.78125 74.21875 
Q 42.671875 74.21875 48.875 69.140625 
Q 55.078125 64.0625 55.078125 55.328125 
Q 55.078125 49.078125 51.53125 44.71875 
Q 48 40.375 41.703125 38.8125 
Q 48.828125 37.15625 52.796875 32.3125 
Q 56.78125 27.484375 56.78125 20.515625 
Q 56.78125 9.90625 50.3125 4.234375 
Q 43.84375 -1.421875 31.78125 -1.421875 
Q 19.734375 -1.421875 13.25 4.234375 
Q 6.78125 9.90625 6.78125 20.515625 
Q 6.78125 27.484375 10.78125 32.3125 
Q 14.796875 37.15625 21.921875 38.8125 
z
M 18.3125 54.390625 
Q 18.3125 48.734375 21.84375 45.5625 
Q 25.390625 42.390625 31.78125 42.390625 
Q 38.140625 42.390625 41.71875 45.5625 
Q 45.3125 48.734375 45.3125 54.390625 
Q 45.3125 60.0625 41.71875 63.234375 
Q 38.140625 66.40625 31.78125 66.40625 
Q 25.390625 66.40625 21.84375 63.234375 
Q 18.3125 60.0625 18.3125 54.390625 
z
" id="DejaVuSans-56"/>
      </defs>
      <g transform="translate(78.559063 332.657845)scale(0.18 -0.18)">
       <use xlink:href="#DejaVuSans-8722"/>
       <use x="83.789062" xlink:href="#DejaVuSans-49"/>
       <use x="147.412109" xlink:href="#DejaVuSans-56"/>
       <use x="211.035156" xlink:href="#DejaVuSans-48"/>
      </g>
     </g>
    </g>
    <g id="ytick_3">
     <g id="line2d_10">
      <g>
       <use style="stroke:#000000;stroke-width:0.8;" x="135" xlink:href="#mf1e862a3b1" y="282.214973"/>
      </g>
     </g>
     <g id="text_10">
      <!-- −160 -->
      <g transform="translate(78.559063 289.053567)scale(0.18 -0.18)">
       <use xlink:href="#DejaVuSans-8722"/>
       <use x="83.789062" xlink:href="#DejaVuSans-49"/>
       <use x="147.412109" xlink:href="#DejaVuSans-54"/>
       <use x="211.035156" xlink:href="#DejaVuSans-48"/>
      </g>
     </g>
    </g>
    <g id="ytick_4">
     <g id="line2d_11">
      <g>
       <use style="stroke:#000000;stroke-width:0.8;" x="135" xlink:href="#mf1e862a3b1" y="238.610695"/>
      </g>
     </g>
     <g id="text_11">
      <!-- −140 -->
      <g transform="translate(78.559063 245.449289)scale(0.18 -0.18)">
       <use xlink:href="#DejaVuSans-8722"/>
       <use x="83.789062" xlink:href="#DejaVuSans-49"/>
       <use x="147.412109" xlink:href="#DejaVuSans-52"/>
       <use x="211.035156" xlink:href="#DejaVuSans-48"/>
      </g>
     </g>
    </g>
    <g id="ytick_5">
     <g id="line2d_12">
      <g>
       <use style="stroke:#000000;stroke-width:0.8;" x="135" xlink:href="#mf1e862a3b1" y="195.006417"/>
      </g>
     </g>
     <g id="text_12">
      <!-- −120 -->
      <g transform="translate(78.559063 201.845011)scale(0.18 -0.18)">
       <use xlink:href="#DejaVuSans-8722"/>
       <use x="83.789062" xlink:href="#DejaVuSans-49"/>
       <use x="147.412109" xlink:href="#DejaVuSans-50"/>
       <use x="211.035156" xlink:href="#DejaVuSans-48"/>
      </g>
     </g>
    </g>
    <g id="ytick_6">
     <g id="line2d_13">
      <g>
       <use style="stroke:#000000;stroke-width:0.8;" x="135" xlink:href="#mf1e862a3b1" y="151.402139"/>
      </g>
     </g>
     <g id="text_13">
      <!-- −100 -->
      <g transform="translate(78.559063 158.240733)scale(0.18 -0.18)">
       <use xlink:href="#DejaVuSans-8722"/>
       <use x="83.789062" xlink:href="#DejaVuSans-49"/>
       <use x="147.412109" xlink:href="#DejaVuSans-48"/>
       <use x="211.035156" xlink:href="#DejaVuSans-48"/>
      </g>
     </g>
    </g>
   </g>
   <g id="line2d_14">
    <path clip-path="url(#p3242af96ef)" d="M 173.045455 522.66943 
L 174.373394 480.166877 
L 175.701333 445.413108 
L 177.029272 413.615752 
L 178.357211 388.956404 
L 179.68515 368.163205 
L 181.013089 350.183019 
L 182.341028 336.835809 
L 183.668967 321.392656 
L 184.996906 308.154478 
L 186.324845 296.746708 
L 187.652784 287.64493 
L 188.980723 279.732265 
L 190.308663 273.193914 
L 191.636602 265.064443 
L 192.964541 258.818956 
L 195.620419 247.449928 
L 196.948358 240.020459 
L 199.604236 227.248438 
L 203.588053 215.059982 
L 204.915992 209.401211 
L 206.243931 205.024072 
L 207.571871 202.979848 
L 208.89981 201.319933 
L 210.227749 199.280952 
L 211.555688 197.514972 
L 212.883627 195.181418 
L 214.211566 194.604175 
L 215.539505 191.991225 
L 216.867444 191.13947 
L 219.523322 188.719363 
L 223.507139 184.44514 
L 224.835079 185.013014 
L 226.163018 183.857214 
L 227.490957 183.238986 
L 228.818896 180.39786 
L 230.146835 180.803902 
L 231.474774 179.726492 
L 232.802713 179.40251 
L 234.130652 178.162316 
L 235.458591 177.091169 
L 236.78653 176.879334 
L 238.114469 175.562078 
L 239.442408 174.020038 
L 240.770347 173.966156 
L 242.098287 172.120622 
L 243.426226 171.557079 
L 244.754165 171.45821 
L 247.410043 169.26348 
L 248.737982 168.744806 
L 250.065921 167.658179 
L 251.39386 166.94943 
L 252.721799 166.657144 
L 254.049738 166.116091 
L 256.705616 164.700528 
L 258.033555 164.590224 
L 260.689434 163.543871 
L 262.017373 163.316902 
L 263.345312 162.367805 
L 266.00119 161.902067 
L 268.657068 160.921172 
L 269.985007 160.020895 
L 271.312946 159.460072 
L 272.640885 159.620397 
L 273.968824 159.474776 
L 275.296763 158.931374 
L 276.624703 158.673753 
L 277.952642 157.977968 
L 279.280581 157.468208 
L 280.60852 157.231141 
L 281.936459 157.327015 
L 284.592337 157.140397 
L 285.920276 156.348627 
L 287.248215 156.459476 
L 288.576154 155.953016 
L 289.904093 155.858959 
L 291.232032 155.570564 
L 292.559971 155.847346 
L 293.887911 154.911364 
L 295.21585 154.83441 
L 296.543789 154.638796 
L 297.871728 154.676829 
L 299.199667 153.919166 
L 303.183484 153.736043 
L 304.511423 153.492862 
L 305.839362 153.384198 
L 307.167301 153.046495 
L 309.823179 153.003696 
L 311.151119 152.240902 
L 312.479058 152.71386 
L 313.806997 152.644492 
L 315.134936 152.250562 
L 316.462875 151.685458 
L 317.790814 152.186252 
L 320.446692 152.045957 
L 321.774631 151.872324 
L 323.10257 151.500018 
L 324.430509 151.631887 
L 325.758448 151.01636 
L 328.414327 151.315577 
L 332.398144 150.597616 
L 333.726083 150.733022 
L 335.054022 150.58123 
L 340.365778 150.593115 
L 341.693717 150.213774 
L 343.021656 150.555286 
L 344.349595 150.445801 
L 345.677535 150.045583 
L 347.005474 150.385281 
L 348.333413 149.719883 
L 349.661352 149.95557 
L 356.301047 149.870238 
L 357.628986 149.590238 
L 358.956925 149.5984 
L 360.284864 149.32801 
L 361.612803 149.736299 
L 362.940743 149.441181 
L 364.268682 149.37573 
L 365.596621 149.183625 
L 366.92456 149.374962 
L 368.252499 149.35064 
L 370.908377 149.022619 
L 374.892194 148.901514 
L 376.220133 148.992667 
L 380.20395 148.813435 
L 381.53189 148.634568 
L 382.859829 148.659364 
L 384.187768 149.029929 
L 385.515707 148.696887 
L 389.499524 148.708688 
L 390.827463 148.588082 
L 393.483341 148.630833 
L 396.139219 148.473915 
L 398.795098 148.113632 
L 400.123037 148.407437 
L 404.106854 148.146555 
L 405.434793 148.218481 
L 406.762732 148.028426 
L 408.090671 148.211009 
L 414.730366 147.99276 
L 416.058306 148.014696 
L 417.386245 148.173954 
L 418.714184 148.010155 
L 422.698001 148.037905 
L 424.02594 147.998736 
L 425.353879 147.808422 
L 426.681818 147.991175 
L 429.337696 148.005469 
L 430.665635 147.866401 
L 434.649453 147.920986 
L 435.977392 147.800936 
L 438.63327 148.019911 
L 439.961209 147.852513 
L 445.272965 147.883036 
L 446.600904 147.942971 
L 447.928843 147.769259 
L 449.256782 147.971559 
L 450.584722 147.833142 
L 455.896478 147.760304 
L 457.224417 147.824636 
L 458.552356 147.707016 
L 462.536173 147.666146 
L 463.864112 147.654803 
L 465.192051 147.799301 
L 467.84793 147.668596 
L 470.503808 147.868186 
L 475.815564 147.705297 
L 477.143503 147.830453 
L 478.471442 147.74603 
L 479.799381 147.807381 
L 481.12732 147.642938 
L 483.783198 147.695341 
L 485.111138 147.648911 
L 486.439077 147.756751 
L 489.094955 147.64677 
L 490.422894 147.780515 
L 491.750833 147.794245 
L 493.078772 147.584114 
L 497.062589 147.761871 
L 499.718467 147.624658 
L 509.014041 147.695071 
L 510.34198 147.563206 
L 515.653736 147.737068 
L 516.981675 147.605002 
L 523.621371 147.678534 
L 524.94931 147.825064 
L 526.277249 147.640303 
L 527.605188 147.695024 
L 528.933127 147.575022 
L 532.916944 147.706418 
L 534.244883 147.567499 
L 538.228701 147.704483 
L 550.180152 147.611008 
L 554.16397 147.707913 
L 556.819848 147.629045 
L 558.147787 147.719295 
L 559.475726 147.596418 
L 562.131604 147.642304 
L 571.427178 147.734762 
L 572.755117 147.611237 
L 574.083056 147.604139 
L 575.410995 147.714127 
L 576.738934 147.659355 
L 578.066873 147.737674 
L 579.394812 147.640358 
L 582.05069 147.697631 
L 588.690386 147.653556 
L 590.018325 147.778111 
L 594.002142 147.667482 
L 596.65802 147.686947 
L 599.313898 147.688758 
L 600.641837 147.759631 
L 603.297715 147.725437 
L 609.937411 147.722641 
L 617.905045 147.748409 
L 620.560923 147.640634 
L 621.888862 147.781381 
L 623.216802 147.661599 
L 628.528558 147.706617 
L 632.512375 147.762076 
L 635.168253 147.668011 
L 639.15207 147.736857 
L 653.7594 147.743119 
L 656.415278 147.739872 
L 663.054974 147.780171 
L 667.038791 147.661107 
L 671.022608 147.798626 
L 675.006426 147.72275 
L 677.662304 147.694388 
L 682.97406 147.73708 
L 684.301999 147.693357 
L 686.957877 147.78089 
L 690.941694 147.783629 
L 701.565207 147.806872 
L 702.893146 147.70276 
L 708.204902 147.780254 
L 750.698953 147.813981 
L 757.338648 147.823687 
L 769.2901 147.897047 
L 770.618039 147.769532 
L 773.273917 147.843667 
L 775.929795 147.831539 
L 778.585673 147.844513 
L 789.209186 147.85873 
L 827.719419 147.874413 
L 830.375297 147.88887 
L 839.670871 147.865816 
L 842.326749 147.8507 
L 846.310566 147.8812 
L 859.589957 147.88204 
L 863.573774 147.894045 
L 866.229653 147.907886 
L 874.197287 147.884814 
L 883.492861 147.933658 
L 890.132556 147.89182 
L 896.772251 147.933704 
L 902.084008 147.87003 
L 904.739886 147.885954 
L 910.051642 147.928324 
L 914.035459 147.901599 
L 919.347216 147.946136 
L 922.003094 147.89703 
L 923.331033 147.968853 
L 928.642789 147.89189 
L 933.954545 147.910384 
L 933.954545 147.910384 
" style="fill:none;stroke:#ff0000;stroke-linecap:square;stroke-width:1.5;"/>
   </g>
   <g id="line2d_15">
    <path clip-path="url(#p3242af96ef)" d="M 173.045455 772.673013 
L 174.373394 762.972224 
L 178.357211 704.518566 
L 181.013089 664.081228 
L 182.341028 646.906989 
L 183.668967 634.350783 
L 186.324845 606.502528 
L 187.652784 597.83339 
L 188.980723 585.728932 
L 190.308663 582.316253 
L 191.636602 565.199743 
L 192.964541 562.960795 
L 195.620419 529.798819 
L 196.948358 516.947018 
L 198.276297 500.50651 
L 200.932175 451.010472 
L 204.915992 410.19013 
L 206.243931 403.259555 
L 207.571871 389.662517 
L 210.227749 376.513549 
L 212.883627 361.837874 
L 215.539505 350.06672 
L 216.867444 348.746117 
L 218.195383 339.570262 
L 219.523322 340.061373 
L 220.851261 336.211415 
L 222.1792 329.647148 
L 223.507139 326.800816 
L 224.835079 325.70846 
L 226.163018 319.614635 
L 227.490957 317.334485 
L 228.818896 311.48989 
L 230.146835 312.385435 
L 231.474774 308.484516 
L 232.802713 305.230844 
L 234.130652 303.751972 
L 235.458591 300.245709 
L 236.78653 297.698545 
L 238.114469 292.789461 
L 239.442408 292.555265 
L 240.770347 291.711262 
L 242.098287 288.091856 
L 243.426226 283.816885 
L 244.754165 282.417247 
L 246.082104 278.77707 
L 247.410043 274.793625 
L 248.737982 274.189463 
L 250.065921 270.78941 
L 251.39386 270.186287 
L 252.721799 266.874183 
L 254.049738 264.494547 
L 255.377677 260.213646 
L 256.705616 259.162074 
L 258.033555 258.810074 
L 259.361495 254.452466 
L 260.689434 252.380165 
L 262.017373 249.081584 
L 264.673251 244.878181 
L 266.00119 242.880536 
L 267.329129 239.373783 
L 268.657068 236.944404 
L 269.985007 233.505562 
L 271.312946 233.722341 
L 272.640885 230.792929 
L 273.968824 227.252713 
L 275.296763 226.115559 
L 276.624703 223.558793 
L 277.952642 223.243157 
L 279.280581 220.881525 
L 280.60852 220.213108 
L 281.936459 216.793621 
L 283.264398 216.516573 
L 284.592337 214.738098 
L 285.920276 213.523417 
L 287.248215 212.526571 
L 288.576154 210.63999 
L 289.904093 209.330227 
L 291.232032 207.458284 
L 292.559971 207.334312 
L 293.887911 205.010071 
L 296.543789 202.03502 
L 299.199667 200.516349 
L 300.527606 200.022907 
L 303.183484 197.227425 
L 304.511423 196.256454 
L 305.839362 195.748856 
L 307.167301 195.450951 
L 308.49524 194.735049 
L 309.823179 193.832719 
L 311.151119 192.655355 
L 312.479058 191.910418 
L 313.806997 191.678572 
L 316.462875 190.373399 
L 319.118753 188.569204 
L 321.774631 187.816277 
L 323.10257 186.054725 
L 324.430509 187.32027 
L 325.758448 185.670268 
L 327.086387 185.37658 
L 328.414327 184.922698 
L 329.742266 184.689714 
L 331.070205 183.400982 
L 332.398144 182.80443 
L 333.726083 183.521586 
L 335.054022 182.028626 
L 336.381961 181.169493 
L 337.7099 181.516249 
L 339.037839 181.130576 
L 340.365778 179.948034 
L 341.693717 179.922306 
L 344.349595 178.541827 
L 345.677535 179.229459 
L 347.005474 178.108873 
L 348.333413 176.777215 
L 349.661352 177.434625 
L 350.989291 176.650119 
L 352.31723 176.50319 
L 353.645169 176.204333 
L 356.301047 174.845918 
L 357.628986 175.080616 
L 358.956925 174.679073 
L 360.284864 174.823288 
L 361.612803 174.236521 
L 362.940743 173.777255 
L 364.268682 173.031102 
L 365.596621 173.204521 
L 366.92456 172.344283 
L 368.252499 172.088697 
L 370.908377 172.225615 
L 372.236316 171.158896 
L 374.892194 171.118809 
L 376.220133 171.407019 
L 377.548072 170.895861 
L 378.876011 170.054646 
L 380.20395 170.385562 
L 381.53189 169.466727 
L 382.859829 168.896115 
L 384.187768 169.483 
L 385.515707 168.592148 
L 386.843646 168.768954 
L 388.171585 168.680794 
L 389.499524 168.135264 
L 392.155402 167.331276 
L 393.483341 166.724835 
L 394.81128 166.734225 
L 396.139219 167.134274 
L 397.467158 167.843241 
L 398.795098 167.432368 
L 400.123037 167.962344 
L 401.450976 167.425654 
L 402.778915 167.23151 
L 404.106854 167.631481 
L 405.434793 166.981365 
L 406.762732 166.658897 
L 408.090671 166.107992 
L 409.41861 166.377327 
L 410.746549 165.895021 
L 413.402427 165.843075 
L 414.730366 165.378675 
L 416.058306 165.950407 
L 417.386245 165.264617 
L 418.714184 165.06593 
L 420.042123 165.165856 
L 421.370062 165.79084 
L 422.698001 165.680555 
L 424.02594 164.482093 
L 425.353879 164.210318 
L 426.681818 164.097141 
L 428.009757 164.314681 
L 429.337696 164.409835 
L 430.665635 163.966946 
L 431.993574 163.850532 
L 433.321514 164.003537 
L 434.649453 163.704612 
L 435.977392 163.037307 
L 437.305331 163.447405 
L 438.63327 163.182429 
L 439.961209 163.500488 
L 441.289148 162.99171 
L 442.617087 162.642531 
L 443.945026 162.766645 
L 445.272965 161.877775 
L 446.600904 161.982048 
L 447.928843 161.875042 
L 449.256782 162.390735 
L 450.584722 161.830263 
L 451.912661 161.882572 
L 453.2406 162.365668 
L 454.568539 161.493788 
L 455.896478 161.804786 
L 457.224417 162.285003 
L 458.552356 161.687603 
L 461.208234 161.319874 
L 462.536173 161.238315 
L 463.864112 161.412103 
L 466.51999 161.418437 
L 467.84793 161.056705 
L 469.175869 160.301577 
L 470.503808 160.645178 
L 471.831747 160.327841 
L 474.487625 160.370259 
L 475.815564 160.09058 
L 477.143503 160.468957 
L 478.471442 160.541775 
L 479.799381 160.493764 
L 481.12732 159.936618 
L 482.455259 159.58452 
L 483.783198 160.04826 
L 485.111138 159.864946 
L 486.439077 159.257115 
L 490.422894 159.451759 
L 491.750833 159.095437 
L 493.078772 158.919732 
L 494.406711 159.188514 
L 495.73465 158.743476 
L 497.062589 158.509421 
L 498.390528 158.913293 
L 501.046406 158.105966 
L 502.374346 158.512139 
L 503.702285 157.971253 
L 506.358163 158.14743 
L 507.686102 157.747059 
L 509.014041 157.73394 
L 510.34198 158.160363 
L 511.669919 157.698704 
L 512.997858 157.441916 
L 514.325797 157.820916 
L 515.653736 157.616664 
L 516.981675 157.200739 
L 518.309614 156.974139 
L 519.637554 157.435152 
L 520.965493 157.343444 
L 522.293432 156.713069 
L 523.621371 157.12609 
L 526.277249 156.529743 
L 527.605188 156.592606 
L 528.933127 156.774899 
L 530.261066 156.473965 
L 531.589005 156.732144 
L 532.916944 156.407555 
L 534.244883 156.279333 
L 535.572822 155.924931 
L 536.900762 156.261133 
L 539.55664 155.963245 
L 540.884579 156.270854 
L 542.212518 156.017541 
L 543.540457 155.63718 
L 544.868396 156.055003 
L 547.524274 155.504466 
L 548.852213 155.700679 
L 551.508091 155.917271 
L 552.83603 155.738061 
L 554.16397 155.386702 
L 555.491909 155.525115 
L 556.819848 155.501937 
L 558.147787 155.249885 
L 562.131604 155.036288 
L 563.459543 154.70159 
L 564.787482 155.119281 
L 566.115421 155.113206 
L 567.44336 155.391132 
L 568.771299 154.526562 
L 571.427178 154.617621 
L 572.755117 155.052662 
L 574.083056 154.393157 
L 575.410995 154.71715 
L 578.066873 154.597515 
L 579.394812 154.639274 
L 580.722751 154.495482 
L 582.05069 154.170529 
L 583.378629 154.296341 
L 584.706568 154.024712 
L 586.034507 153.983003 
L 587.362446 154.093556 
L 588.690386 154.480238 
L 590.018325 153.853195 
L 594.002142 153.934566 
L 595.330081 154.055771 
L 599.313898 153.760532 
L 600.641837 153.64725 
L 601.969776 153.907122 
L 604.625654 153.55665 
L 605.953594 153.896168 
L 607.281533 153.716425 
L 608.609472 153.752636 
L 609.937411 153.397175 
L 612.593289 153.552229 
L 615.249167 153.15144 
L 616.577106 153.109317 
L 617.905045 153.318009 
L 620.560923 153.042096 
L 621.888862 153.07125 
L 624.544741 152.844522 
L 625.87268 152.932353 
L 627.200619 152.885061 
L 628.528558 152.990738 
L 629.856497 152.762519 
L 631.184436 153.030168 
L 633.840314 152.604119 
L 635.168253 152.693531 
L 636.496192 152.915679 
L 640.48001 152.49155 
L 641.807949 152.720217 
L 645.791766 152.530657 
L 647.119705 152.471999 
L 648.447644 152.550456 
L 649.775583 152.39934 
L 651.103522 152.646928 
L 652.431461 152.401974 
L 653.7594 152.304062 
L 655.087339 152.03636 
L 656.415278 152.216723 
L 660.399096 151.870419 
L 663.054974 152.118371 
L 664.382913 152.107437 
L 665.710852 151.954947 
L 667.038791 152.031389 
L 668.36673 151.919066 
L 669.694669 151.964772 
L 671.022608 151.860601 
L 676.334365 151.9409 
L 680.318182 151.437657 
L 682.97406 151.684504 
L 684.301999 151.934409 
L 685.629938 151.655439 
L 686.957877 151.572129 
L 688.285816 151.746993 
L 690.941694 151.343706 
L 692.269634 151.501525 
L 693.597573 151.540941 
L 694.925512 151.336846 
L 696.253451 151.263609 
L 697.58139 151.344561 
L 698.909329 151.543646 
L 700.237268 151.348977 
L 704.221085 151.153558 
L 705.549024 151.263762 
L 708.204902 151.110517 
L 709.532842 151.259891 
L 710.860781 151.111531 
L 713.516659 151.170006 
L 714.844598 151.023798 
L 717.500476 151.040318 
L 718.828415 151.083699 
L 720.156354 150.990521 
L 721.484293 151.229401 
L 722.812232 150.84944 
L 724.140171 151.008852 
L 737.419562 150.659823 
L 738.747501 150.908912 
L 740.07544 150.734912 
L 741.403379 150.729762 
L 742.731318 150.563642 
L 744.059257 150.570366 
L 745.387197 150.718963 
L 746.715136 150.58835 
L 748.043075 150.648357 
L 749.371014 150.548628 
L 752.026892 150.585549 
L 753.354831 150.462548 
L 754.68277 150.644592 
L 756.010709 150.40208 
L 757.338648 150.343134 
L 758.666587 150.686546 
L 759.994526 150.458168 
L 761.322465 150.4953 
L 763.978344 150.386711 
L 765.306283 150.554722 
L 766.634222 150.446424 
L 770.618039 150.472898 
L 771.945978 150.236845 
L 774.601856 150.465736 
L 775.929795 150.182775 
L 777.257734 150.411252 
L 779.913613 150.151813 
L 781.241552 150.263782 
L 782.569491 150.16709 
L 785.225369 150.237443 
L 789.209186 150.156354 
L 790.537125 150.258752 
L 793.193003 150.053918 
L 794.520942 150.125219 
L 795.848881 150.042422 
L 797.176821 150.116753 
L 798.50476 150.04534 
L 801.160638 150.103088 
L 802.488577 149.98547 
L 806.472394 150.00147 
L 807.800333 150.245921 
L 811.78415 149.969967 
L 813.112089 149.910213 
L 814.440029 150.095183 
L 815.767968 149.99203 
L 817.095907 150.061366 
L 822.407663 149.813852 
L 823.735602 149.97627 
L 825.063541 149.842654 
L 826.39148 149.888573 
L 829.047358 149.705346 
L 830.375297 149.883332 
L 831.703237 149.915256 
L 833.031176 149.740523 
L 835.687054 149.849004 
L 839.670871 149.802258 
L 852.950262 149.601016 
L 855.60614 149.800618 
L 856.934079 149.734345 
L 858.262018 149.796763 
L 859.589957 149.590503 
L 862.245835 149.750315 
L 863.573774 149.593611 
L 867.557592 149.788313 
L 868.885531 149.655644 
L 874.197287 149.694749 
L 876.853165 149.566608 
L 879.509043 149.54536 
L 880.836982 149.63474 
L 882.164921 149.554148 
L 883.492861 149.597534 
L 886.148739 149.509589 
L 920.675155 149.499981 
L 922.003094 149.300975 
L 923.331033 149.498835 
L 927.31485 149.358112 
L 928.642789 149.511433 
L 929.970728 149.369226 
L 933.954545 149.374238 
L 933.954545 149.374238 
" style="fill:none;stroke:#0000ff;stroke-linecap:square;stroke-width:1.5;"/>
   </g>
   <g id="patch_3">
    <path d="M 135 369.423529 
L 135 129.6 
" style="fill:none;stroke:#000000;stroke-linecap:square;stroke-linejoin:miter;stroke-width:0.8;"/>
   </g>
   <g id="patch_4">
    <path d="M 972 369.423529 
L 972 129.6 
" style="fill:none;stroke:#000000;stroke-linecap:square;stroke-linejoin:miter;stroke-width:0.8;"/>
   </g>
   <g id="patch_5">
    <path d="M 135 369.423529 
L 972 369.423529 
" style="fill:none;stroke:#000000;stroke-linecap:square;stroke-linejoin:miter;stroke-width:0.8;"/>
   </g>
   <g id="patch_6">
    <path d="M 135 129.6 
L 972 129.6 
" style="fill:none;stroke:#000000;stroke-linecap:square;stroke-linejoin:miter;stroke-width:0.8;"/>
   </g>
   <g id="text_14">
    <!-- epoch=2000, batch_size=20, lr=1.0E-04, samples=10 -->
    <defs>
     <path d="M 56.203125 29.59375 
L 56.203125 25.203125 
L 14.890625 25.203125 
Q 15.484375 15.921875 20.484375 11.0625 
Q 25.484375 6.203125 34.421875 6.203125 
Q 39.59375 6.203125 44.453125 7.46875 
Q 49.3125 8.734375 54.109375 11.28125 
L 54.109375 2.78125 
Q 49.265625 0.734375 44.1875 -0.34375 
Q 39.109375 -1.421875 33.890625 -1.421875 
Q 20.796875 -1.421875 13.15625 6.1875 
Q 5.515625 13.8125 5.515625 26.8125 
Q 5.515625 40.234375 12.765625 48.109375 
Q 20.015625 56 32.328125 56 
Q 43.359375 56 49.78125 48.890625 
Q 56.203125 41.796875 56.203125 29.59375 
z
M 47.21875 32.234375 
Q 47.125 39.59375 43.09375 43.984375 
Q 39.0625 48.390625 32.421875 48.390625 
Q 24.90625 48.390625 20.390625 44.140625 
Q 15.875 39.890625 15.1875 32.171875 
z
" id="DejaVuSans-101"/>
     <path d="M 18.109375 8.203125 
L 18.109375 -20.796875 
L 9.078125 -20.796875 
L 9.078125 54.6875 
L 18.109375 54.6875 
L 18.109375 46.390625 
Q 20.953125 51.265625 25.265625 53.625 
Q 29.59375 56 35.59375 56 
Q 45.5625 56 51.78125 48.09375 
Q 58.015625 40.1875 58.015625 27.296875 
Q 58.015625 14.40625 51.78125 6.484375 
Q 45.5625 -1.421875 35.59375 -1.421875 
Q 29.59375 -1.421875 25.265625 0.953125 
Q 20.953125 3.328125 18.109375 8.203125 
z
M 48.6875 27.296875 
Q 48.6875 37.203125 44.609375 42.84375 
Q 40.53125 48.484375 33.40625 48.484375 
Q 26.265625 48.484375 22.1875 42.84375 
Q 18.109375 37.203125 18.109375 27.296875 
Q 18.109375 17.390625 22.1875 11.75 
Q 26.265625 6.109375 33.40625 6.109375 
Q 40.53125 6.109375 44.609375 11.75 
Q 48.6875 17.390625 48.6875 27.296875 
z
" id="DejaVuSans-112"/>
     <path d="M 30.609375 48.390625 
Q 23.390625 48.390625 19.1875 42.75 
Q 14.984375 37.109375 14.984375 27.296875 
Q 14.984375 17.484375 19.15625 11.84375 
Q 23.34375 6.203125 30.609375 6.203125 
Q 37.796875 6.203125 41.984375 11.859375 
Q 46.1875 17.53125 46.1875 27.296875 
Q 46.1875 37.015625 41.984375 42.703125 
Q 37.796875 48.390625 30.609375 48.390625 
z
M 30.609375 56 
Q 42.328125 56 49.015625 48.375 
Q 55.71875 40.765625 55.71875 27.296875 
Q 55.71875 13.875 49.015625 6.21875 
Q 42.328125 -1.421875 30.609375 -1.421875 
Q 18.84375 -1.421875 12.171875 6.21875 
Q 5.515625 13.875 5.515625 27.296875 
Q 5.515625 40.765625 12.171875 48.375 
Q 18.84375 56 30.609375 56 
z
" id="DejaVuSans-111"/>
     <path d="M 48.78125 52.59375 
L 48.78125 44.1875 
Q 44.96875 46.296875 41.140625 47.34375 
Q 37.3125 48.390625 33.40625 48.390625 
Q 24.65625 48.390625 19.8125 42.84375 
Q 14.984375 37.3125 14.984375 27.296875 
Q 14.984375 17.28125 19.8125 11.734375 
Q 24.65625 6.203125 33.40625 6.203125 
Q 37.3125 6.203125 41.140625 7.25 
Q 44.96875 8.296875 48.78125 10.40625 
L 48.78125 2.09375 
Q 45.015625 0.34375 40.984375 -0.53125 
Q 36.96875 -1.421875 32.421875 -1.421875 
Q 20.0625 -1.421875 12.78125 6.34375 
Q 5.515625 14.109375 5.515625 27.296875 
Q 5.515625 40.671875 12.859375 48.328125 
Q 20.21875 56 33.015625 56 
Q 37.15625 56 41.109375 55.140625 
Q 45.0625 54.296875 48.78125 52.59375 
z
" id="DejaVuSans-99"/>
     <path d="M 54.890625 33.015625 
L 54.890625 0 
L 45.90625 0 
L 45.90625 32.71875 
Q 45.90625 40.484375 42.875 44.328125 
Q 39.84375 48.1875 33.796875 48.1875 
Q 26.515625 48.1875 22.3125 43.546875 
Q 18.109375 38.921875 18.109375 30.90625 
L 18.109375 0 
L 9.078125 0 
L 9.078125 75.984375 
L 18.109375 75.984375 
L 18.109375 46.1875 
Q 21.34375 51.125 25.703125 53.5625 
Q 30.078125 56 35.796875 56 
Q 45.21875 56 50.046875 50.171875 
Q 54.890625 44.34375 54.890625 33.015625 
z
" id="DejaVuSans-104"/>
     <path d="M 10.59375 45.40625 
L 73.1875 45.40625 
L 73.1875 37.203125 
L 10.59375 37.203125 
z
M 10.59375 25.484375 
L 73.1875 25.484375 
L 73.1875 17.1875 
L 10.59375 17.1875 
z
" id="DejaVuSans-61"/>
     <path d="M 11.71875 12.40625 
L 22.015625 12.40625 
L 22.015625 4 
L 14.015625 -11.625 
L 7.71875 -11.625 
L 11.71875 4 
z
" id="DejaVuSans-44"/>
     <path id="DejaVuSans-32"/>
     <path d="M 48.6875 27.296875 
Q 48.6875 37.203125 44.609375 42.84375 
Q 40.53125 48.484375 33.40625 48.484375 
Q 26.265625 48.484375 22.1875 42.84375 
Q 18.109375 37.203125 18.109375 27.296875 
Q 18.109375 17.390625 22.1875 11.75 
Q 26.265625 6.109375 33.40625 6.109375 
Q 40.53125 6.109375 44.609375 11.75 
Q 48.6875 17.390625 48.6875 27.296875 
z
M 18.109375 46.390625 
Q 20.953125 51.265625 25.265625 53.625 
Q 29.59375 56 35.59375 56 
Q 45.5625 56 51.78125 48.09375 
Q 58.015625 40.1875 58.015625 27.296875 
Q 58.015625 14.40625 51.78125 6.484375 
Q 45.5625 -1.421875 35.59375 -1.421875 
Q 29.59375 -1.421875 25.265625 0.953125 
Q 20.953125 3.328125 18.109375 8.203125 
L 18.109375 0 
L 9.078125 0 
L 9.078125 75.984375 
L 18.109375 75.984375 
z
" id="DejaVuSans-98"/>
     <path d="M 34.28125 27.484375 
Q 23.390625 27.484375 19.1875 25 
Q 14.984375 22.515625 14.984375 16.5 
Q 14.984375 11.71875 18.140625 8.90625 
Q 21.296875 6.109375 26.703125 6.109375 
Q 34.1875 6.109375 38.703125 11.40625 
Q 43.21875 16.703125 43.21875 25.484375 
L 43.21875 27.484375 
z
M 52.203125 31.203125 
L 52.203125 0 
L 43.21875 0 
L 43.21875 8.296875 
Q 40.140625 3.328125 35.546875 0.953125 
Q 30.953125 -1.421875 24.3125 -1.421875 
Q 15.921875 -1.421875 10.953125 3.296875 
Q 6 8.015625 6 15.921875 
Q 6 25.140625 12.171875 29.828125 
Q 18.359375 34.515625 30.609375 34.515625 
L 43.21875 34.515625 
L 43.21875 35.40625 
Q 43.21875 41.609375 39.140625 45 
Q 35.0625 48.390625 27.6875 48.390625 
Q 23 48.390625 18.546875 47.265625 
Q 14.109375 46.140625 10.015625 43.890625 
L 10.015625 52.203125 
Q 14.9375 54.109375 19.578125 55.046875 
Q 24.21875 56 28.609375 56 
Q 40.484375 56 46.34375 49.84375 
Q 52.203125 43.703125 52.203125 31.203125 
z
" id="DejaVuSans-97"/>
     <path d="M 18.3125 70.21875 
L 18.3125 54.6875 
L 36.8125 54.6875 
L 36.8125 47.703125 
L 18.3125 47.703125 
L 18.3125 18.015625 
Q 18.3125 11.328125 20.140625 9.421875 
Q 21.96875 7.515625 27.59375 7.515625 
L 36.8125 7.515625 
L 36.8125 0 
L 27.59375 0 
Q 17.1875 0 13.234375 3.875 
Q 9.28125 7.765625 9.28125 18.015625 
L 9.28125 47.703125 
L 2.6875 47.703125 
L 2.6875 54.6875 
L 9.28125 54.6875 
L 9.28125 70.21875 
z
" id="DejaVuSans-116"/>
     <path d="M 50.984375 -16.609375 
L 50.984375 -23.578125 
L -0.984375 -23.578125 
L -0.984375 -16.609375 
z
" id="DejaVuSans-95"/>
     <path d="M 44.28125 53.078125 
L 44.28125 44.578125 
Q 40.484375 46.53125 36.375 47.5 
Q 32.28125 48.484375 27.875 48.484375 
Q 21.1875 48.484375 17.84375 46.4375 
Q 14.5 44.390625 14.5 40.28125 
Q 14.5 37.15625 16.890625 35.375 
Q 19.28125 33.59375 26.515625 31.984375 
L 29.59375 31.296875 
Q 39.15625 29.25 43.1875 25.515625 
Q 47.21875 21.78125 47.21875 15.09375 
Q 47.21875 7.46875 41.1875 3.015625 
Q 35.15625 -1.421875 24.609375 -1.421875 
Q 20.21875 -1.421875 15.453125 -0.5625 
Q 10.6875 0.296875 5.421875 2 
L 5.421875 11.28125 
Q 10.40625 8.6875 15.234375 7.390625 
Q 20.0625 6.109375 24.8125 6.109375 
Q 31.15625 6.109375 34.5625 8.28125 
Q 37.984375 10.453125 37.984375 14.40625 
Q 37.984375 18.0625 35.515625 20.015625 
Q 33.0625 21.96875 24.703125 23.78125 
L 21.578125 24.515625 
Q 13.234375 26.265625 9.515625 29.90625 
Q 5.8125 33.546875 5.8125 39.890625 
Q 5.8125 47.609375 11.28125 51.796875 
Q 16.75 56 26.8125 56 
Q 31.78125 56 36.171875 55.265625 
Q 40.578125 54.546875 44.28125 53.078125 
z
" id="DejaVuSans-115"/>
     <path d="M 9.421875 54.6875 
L 18.40625 54.6875 
L 18.40625 0 
L 9.421875 0 
z
M 9.421875 75.984375 
L 18.40625 75.984375 
L 18.40625 64.59375 
L 9.421875 64.59375 
z
" id="DejaVuSans-105"/>
     <path d="M 5.515625 54.6875 
L 48.1875 54.6875 
L 48.1875 46.484375 
L 14.40625 7.171875 
L 48.1875 7.171875 
L 48.1875 0 
L 4.296875 0 
L 4.296875 8.203125 
L 38.09375 47.515625 
L 5.515625 47.515625 
z
" id="DejaVuSans-122"/>
     <path d="M 9.421875 75.984375 
L 18.40625 75.984375 
L 18.40625 0 
L 9.421875 0 
z
" id="DejaVuSans-108"/>
     <path d="M 41.109375 46.296875 
Q 39.59375 47.171875 37.8125 47.578125 
Q 36.03125 48 33.890625 48 
Q 26.265625 48 22.1875 43.046875 
Q 18.109375 38.09375 18.109375 28.8125 
L 18.109375 0 
L 9.078125 0 
L 9.078125 54.6875 
L 18.109375 54.6875 
L 18.109375 46.1875 
Q 20.953125 51.171875 25.484375 53.578125 
Q 30.03125 56 36.53125 56 
Q 37.453125 56 38.578125 55.875 
Q 39.703125 55.765625 41.0625 55.515625 
z
" id="DejaVuSans-114"/>
     <path d="M 10.6875 12.40625 
L 21 12.40625 
L 21 0 
L 10.6875 0 
z
" id="DejaVuSans-46"/>
     <path d="M 9.8125 72.90625 
L 55.90625 72.90625 
L 55.90625 64.59375 
L 19.671875 64.59375 
L 19.671875 43.015625 
L 54.390625 43.015625 
L 54.390625 34.71875 
L 19.671875 34.71875 
L 19.671875 8.296875 
L 56.78125 8.296875 
L 56.78125 0 
L 9.8125 0 
z
" id="DejaVuSans-69"/>
     <path d="M 4.890625 31.390625 
L 31.203125 31.390625 
L 31.203125 23.390625 
L 4.890625 23.390625 
z
" id="DejaVuSans-45"/>
     <path d="M 52 44.1875 
Q 55.375 50.25 60.0625 53.125 
Q 64.75 56 71.09375 56 
Q 79.640625 56 84.28125 50.015625 
Q 88.921875 44.046875 88.921875 33.015625 
L 88.921875 0 
L 79.890625 0 
L 79.890625 32.71875 
Q 79.890625 40.578125 77.09375 44.375 
Q 74.3125 48.1875 68.609375 48.1875 
Q 61.625 48.1875 57.5625 43.546875 
Q 53.515625 38.921875 53.515625 30.90625 
L 53.515625 0 
L 44.484375 0 
L 44.484375 32.71875 
Q 44.484375 40.625 41.703125 44.40625 
Q 38.921875 48.1875 33.109375 48.1875 
Q 26.21875 48.1875 22.15625 43.53125 
Q 18.109375 38.875 18.109375 30.90625 
L 18.109375 0 
L 9.078125 0 
L 9.078125 54.6875 
L 18.109375 54.6875 
L 18.109375 46.1875 
Q 21.1875 51.21875 25.484375 53.609375 
Q 29.78125 56 35.6875 56 
Q 41.65625 56 45.828125 52.96875 
Q 50 49.953125 52 44.1875 
z
" id="DejaVuSans-109"/>
    </defs>
    <g transform="translate(307.281094 123.6)scale(0.18 -0.18)">
     <use xlink:href="#DejaVuSans-101"/>
     <use x="61.523438" xlink:href="#DejaVuSans-112"/>
     <use x="125" xlink:href="#DejaVuSans-111"/>
     <use x="186.181641" xlink:href="#DejaVuSans-99"/>
     <use x="241.162109" xlink:href="#DejaVuSans-104"/>
     <use x="304.541016" xlink:href="#DejaVuSans-61"/>
     <use x="388.330078" xlink:href="#DejaVuSans-50"/>
     <use x="451.953125" xlink:href="#DejaVuSans-48"/>
     <use x="515.576172" xlink:href="#DejaVuSans-48"/>
     <use x="579.199219" xlink:href="#DejaVuSans-48"/>
     <use x="642.822266" xlink:href="#DejaVuSans-44"/>
     <use x="674.609375" xlink:href="#DejaVuSans-32"/>
     <use x="706.396484" xlink:href="#DejaVuSans-98"/>
     <use x="769.873047" xlink:href="#DejaVuSans-97"/>
     <use x="831.152344" xlink:href="#DejaVuSans-116"/>
     <use x="870.361328" xlink:href="#DejaVuSans-99"/>
     <use x="925.341797" xlink:href="#DejaVuSans-104"/>
     <use x="988.720703" xlink:href="#DejaVuSans-95"/>
     <use x="1038.720703" xlink:href="#DejaVuSans-115"/>
     <use x="1090.820312" xlink:href="#DejaVuSans-105"/>
     <use x="1118.603516" xlink:href="#DejaVuSans-122"/>
     <use x="1171.09375" xlink:href="#DejaVuSans-101"/>
     <use x="1232.617188" xlink:href="#DejaVuSans-61"/>
     <use x="1316.40625" xlink:href="#DejaVuSans-50"/>
     <use x="1380.029297" xlink:href="#DejaVuSans-48"/>
     <use x="1443.652344" xlink:href="#DejaVuSans-44"/>
     <use x="1475.439453" xlink:href="#DejaVuSans-32"/>
     <use x="1507.226562" xlink:href="#DejaVuSans-108"/>
     <use x="1535.009766" xlink:href="#DejaVuSans-114"/>
     <use x="1576.123047" xlink:href="#DejaVuSans-61"/>
     <use x="1659.912109" xlink:href="#DejaVuSans-49"/>
     <use x="1723.535156" xlink:href="#DejaVuSans-46"/>
     <use x="1755.322266" xlink:href="#DejaVuSans-48"/>
     <use x="1818.945312" xlink:href="#DejaVuSans-69"/>
     <use x="1882.128906" xlink:href="#DejaVuSans-45"/>
     <use x="1918.212891" xlink:href="#DejaVuSans-48"/>
     <use x="1981.835938" xlink:href="#DejaVuSans-52"/>
     <use x="2045.458984" xlink:href="#DejaVuSans-44"/>
     <use x="2077.246094" xlink:href="#DejaVuSans-32"/>
     <use x="2109.033203" xlink:href="#DejaVuSans-115"/>
     <use x="2161.132812" xlink:href="#DejaVuSans-97"/>
     <use x="2222.412109" xlink:href="#DejaVuSans-109"/>
     <use x="2319.824219" xlink:href="#DejaVuSans-112"/>
     <use x="2383.300781" xlink:href="#DejaVuSans-108"/>
     <use x="2411.083984" xlink:href="#DejaVuSans-101"/>
     <use x="2472.607422" xlink:href="#DejaVuSans-115"/>
     <use x="2524.707031" xlink:href="#DejaVuSans-61"/>
     <use x="2608.496094" xlink:href="#DejaVuSans-49"/>
     <use x="2672.119141" xlink:href="#DejaVuSans-48"/>
    </g>
   </g>
   <g id="legend_1">
    <g id="patch_7">
     <path d="M 142 166.95625 
L 207.578125 166.95625 
Q 209.578125 166.95625 209.578125 164.95625 
L 209.578125 136.6 
Q 209.578125 134.6 207.578125 134.6 
L 142 134.6 
Q 140 134.6 140 136.6 
L 140 164.95625 
Q 140 166.95625 142 166.95625 
z
" style="fill:#ffffff;opacity:0.8;stroke:#cccccc;stroke-linejoin:miter;"/>
    </g>
    <g id="line2d_16">
     <path d="M 144 142.698437 
L 164 142.698437 
" style="fill:none;stroke:#ff0000;stroke-linecap:square;stroke-width:1.5;"/>
    </g>
    <g id="line2d_17"/>
    <g id="text_15">
     <!-- EUBOs -->
     <defs>
      <path d="M 8.6875 72.90625 
L 18.609375 72.90625 
L 18.609375 28.609375 
Q 18.609375 16.890625 22.84375 11.734375 
Q 27.09375 6.59375 36.625 6.59375 
Q 46.09375 6.59375 50.34375 11.734375 
Q 54.59375 16.890625 54.59375 28.609375 
L 54.59375 72.90625 
L 64.5 72.90625 
L 64.5 27.390625 
Q 64.5 13.140625 57.4375 5.859375 
Q 50.390625 -1.421875 36.625 -1.421875 
Q 22.796875 -1.421875 15.734375 5.859375 
Q 8.6875 13.140625 8.6875 27.390625 
z
" id="DejaVuSans-85"/>
      <path d="M 19.671875 34.8125 
L 19.671875 8.109375 
L 35.5 8.109375 
Q 43.453125 8.109375 47.28125 11.40625 
Q 51.125 14.703125 51.125 21.484375 
Q 51.125 28.328125 47.28125 31.5625 
Q 43.453125 34.8125 35.5 34.8125 
z
M 19.671875 64.796875 
L 19.671875 42.828125 
L 34.28125 42.828125 
Q 41.5 42.828125 45.03125 45.53125 
Q 48.578125 48.25 48.578125 53.8125 
Q 48.578125 59.328125 45.03125 62.0625 
Q 41.5 64.796875 34.28125 64.796875 
z
M 9.8125 72.90625 
L 35.015625 72.90625 
Q 46.296875 72.90625 52.390625 68.21875 
Q 58.5 63.53125 58.5 54.890625 
Q 58.5 48.1875 55.375 44.234375 
Q 52.25 40.28125 46.1875 39.3125 
Q 53.46875 37.75 57.5 32.78125 
Q 61.53125 27.828125 61.53125 20.40625 
Q 61.53125 10.640625 54.890625 5.3125 
Q 48.25 0 35.984375 0 
L 9.8125 0 
z
" id="DejaVuSans-66"/>
      <path d="M 39.40625 66.21875 
Q 28.65625 66.21875 22.328125 58.203125 
Q 16.015625 50.203125 16.015625 36.375 
Q 16.015625 22.609375 22.328125 14.59375 
Q 28.65625 6.59375 39.40625 6.59375 
Q 50.140625 6.59375 56.421875 14.59375 
Q 62.703125 22.609375 62.703125 36.375 
Q 62.703125 50.203125 56.421875 58.203125 
Q 50.140625 66.21875 39.40625 66.21875 
z
M 39.40625 74.21875 
Q 54.734375 74.21875 63.90625 63.9375 
Q 73.09375 53.65625 73.09375 36.375 
Q 73.09375 19.140625 63.90625 8.859375 
Q 54.734375 -1.421875 39.40625 -1.421875 
Q 24.03125 -1.421875 14.8125 8.828125 
Q 5.609375 19.09375 5.609375 36.375 
Q 5.609375 53.65625 14.8125 63.9375 
Q 24.03125 74.21875 39.40625 74.21875 
z
" id="DejaVuSans-79"/>
     </defs>
     <g transform="translate(172 146.198437)scale(0.1 -0.1)">
      <use xlink:href="#DejaVuSans-69"/>
      <use x="63.183594" xlink:href="#DejaVuSans-85"/>
      <use x="136.376953" xlink:href="#DejaVuSans-66"/>
      <use x="204.964844" xlink:href="#DejaVuSans-79"/>
      <use x="283.675781" xlink:href="#DejaVuSans-115"/>
     </g>
    </g>
    <g id="line2d_18">
     <path d="M 144 157.376562 
L 164 157.376562 
" style="fill:none;stroke:#0000ff;stroke-linecap:square;stroke-width:1.5;"/>
    </g>
    <g id="line2d_19"/>
    <g id="text_16">
     <!-- ELBOs -->
     <defs>
      <path d="M 9.8125 72.90625 
L 19.671875 72.90625 
L 19.671875 8.296875 
L 55.171875 8.296875 
L 55.171875 0 
L 9.8125 0 
z
" id="DejaVuSans-76"/>
     </defs>
     <g transform="translate(172 160.876562)scale(0.1 -0.1)">
      <use xlink:href="#DejaVuSans-69"/>
      <use x="63.183594" xlink:href="#DejaVuSans-76"/>
      <use x="118.896484" xlink:href="#DejaVuSans-66"/>
      <use x="187.484375" xlink:href="#DejaVuSans-79"/>
      <use x="266.195312" xlink:href="#DejaVuSans-115"/>
     </g>
    </g>
   </g>
  </g>
  <g id="axes_2">
   <g id="patch_8">
    <path d="M 135 657.211765 
L 972 657.211765 
L 972 417.388235 
L 135 417.388235 
z
" style="fill:#ffffff;"/>
   </g>
   <g id="matplotlib.axis_3">
    <g id="xtick_8">
     <g id="line2d_20">
      <g>
       <use style="stroke:#000000;stroke-width:0.8;" x="135" xlink:href="#m027b87dbb9" y="657.211765"/>
      </g>
     </g>
     <g id="text_17">
      <!-- 0.0 -->
      <g transform="translate(127.048438 671.810202)scale(0.1 -0.1)">
       <use xlink:href="#DejaVuSans-48"/>
       <use x="63.623047" xlink:href="#DejaVuSans-46"/>
       <use x="95.410156" xlink:href="#DejaVuSans-48"/>
      </g>
     </g>
    </g>
    <g id="xtick_9">
     <g id="line2d_21">
      <g>
       <use style="stroke:#000000;stroke-width:0.8;" x="302.4" xlink:href="#m027b87dbb9" y="657.211765"/>
      </g>
     </g>
     <g id="text_18">
      <!-- 0.2 -->
      <g transform="translate(294.448437 671.810202)scale(0.1 -0.1)">
       <use xlink:href="#DejaVuSans-48"/>
       <use x="63.623047" xlink:href="#DejaVuSans-46"/>
       <use x="95.410156" xlink:href="#DejaVuSans-50"/>
      </g>
     </g>
    </g>
    <g id="xtick_10">
     <g id="line2d_22">
      <g>
       <use style="stroke:#000000;stroke-width:0.8;" x="469.8" xlink:href="#m027b87dbb9" y="657.211765"/>
      </g>
     </g>
     <g id="text_19">
      <!-- 0.4 -->
      <g transform="translate(461.848437 671.810202)scale(0.1 -0.1)">
       <use xlink:href="#DejaVuSans-48"/>
       <use x="63.623047" xlink:href="#DejaVuSans-46"/>
       <use x="95.410156" xlink:href="#DejaVuSans-52"/>
      </g>
     </g>
    </g>
    <g id="xtick_11">
     <g id="line2d_23">
      <g>
       <use style="stroke:#000000;stroke-width:0.8;" x="637.2" xlink:href="#m027b87dbb9" y="657.211765"/>
      </g>
     </g>
     <g id="text_20">
      <!-- 0.6 -->
      <g transform="translate(629.248438 671.810202)scale(0.1 -0.1)">
       <use xlink:href="#DejaVuSans-48"/>
       <use x="63.623047" xlink:href="#DejaVuSans-46"/>
       <use x="95.410156" xlink:href="#DejaVuSans-54"/>
      </g>
     </g>
    </g>
    <g id="xtick_12">
     <g id="line2d_24">
      <g>
       <use style="stroke:#000000;stroke-width:0.8;" x="804.6" xlink:href="#m027b87dbb9" y="657.211765"/>
      </g>
     </g>
     <g id="text_21">
      <!-- 0.8 -->
      <g transform="translate(796.648438 671.810202)scale(0.1 -0.1)">
       <use xlink:href="#DejaVuSans-48"/>
       <use x="63.623047" xlink:href="#DejaVuSans-46"/>
       <use x="95.410156" xlink:href="#DejaVuSans-56"/>
      </g>
     </g>
    </g>
    <g id="xtick_13">
     <g id="line2d_25">
      <g>
       <use style="stroke:#000000;stroke-width:0.8;" x="972" xlink:href="#m027b87dbb9" y="657.211765"/>
      </g>
     </g>
     <g id="text_22">
      <!-- 1.0 -->
      <g transform="translate(964.048437 671.810202)scale(0.1 -0.1)">
       <use xlink:href="#DejaVuSans-49"/>
       <use x="63.623047" xlink:href="#DejaVuSans-46"/>
       <use x="95.410156" xlink:href="#DejaVuSans-48"/>
      </g>
     </g>
    </g>
   </g>
   <g id="matplotlib.axis_4">
    <g id="ytick_7">
     <g id="line2d_26">
      <g>
       <use style="stroke:#000000;stroke-width:0.8;" x="135" xlink:href="#mf1e862a3b1" y="657.211765"/>
      </g>
     </g>
     <g id="text_23">
      <!-- 0.0 -->
      <g transform="translate(112.096875 661.010983)scale(0.1 -0.1)">
       <use xlink:href="#DejaVuSans-48"/>
       <use x="63.623047" xlink:href="#DejaVuSans-46"/>
       <use x="95.410156" xlink:href="#DejaVuSans-48"/>
      </g>
     </g>
    </g>
    <g id="ytick_8">
     <g id="line2d_27">
      <g>
       <use style="stroke:#000000;stroke-width:0.8;" x="135" xlink:href="#mf1e862a3b1" y="609.247059"/>
      </g>
     </g>
     <g id="text_24">
      <!-- 0.2 -->
      <g transform="translate(112.096875 613.046278)scale(0.1 -0.1)">
       <use xlink:href="#DejaVuSans-48"/>
       <use x="63.623047" xlink:href="#DejaVuSans-46"/>
       <use x="95.410156" xlink:href="#DejaVuSans-50"/>
      </g>
     </g>
    </g>
    <g id="ytick_9">
     <g id="line2d_28">
      <g>
       <use style="stroke:#000000;stroke-width:0.8;" x="135" xlink:href="#mf1e862a3b1" y="561.282353"/>
      </g>
     </g>
     <g id="text_25">
      <!-- 0.4 -->
      <g transform="translate(112.096875 565.081572)scale(0.1 -0.1)">
       <use xlink:href="#DejaVuSans-48"/>
       <use x="63.623047" xlink:href="#DejaVuSans-46"/>
       <use x="95.410156" xlink:href="#DejaVuSans-52"/>
      </g>
     </g>
    </g>
    <g id="ytick_10">
     <g id="line2d_29">
      <g>
       <use style="stroke:#000000;stroke-width:0.8;" x="135" xlink:href="#mf1e862a3b1" y="513.317647"/>
      </g>
     </g>
     <g id="text_26">
      <!-- 0.6 -->
      <g transform="translate(112.096875 517.116866)scale(0.1 -0.1)">
       <use xlink:href="#DejaVuSans-48"/>
       <use x="63.623047" xlink:href="#DejaVuSans-46"/>
       <use x="95.410156" xlink:href="#DejaVuSans-54"/>
      </g>
     </g>
    </g>
    <g id="ytick_11">
     <g id="line2d_30">
      <g>
       <use style="stroke:#000000;stroke-width:0.8;" x="135" xlink:href="#mf1e862a3b1" y="465.352941"/>
      </g>
     </g>
     <g id="text_27">
      <!-- 0.8 -->
      <g transform="translate(112.096875 469.15216)scale(0.1 -0.1)">
       <use xlink:href="#DejaVuSans-48"/>
       <use x="63.623047" xlink:href="#DejaVuSans-46"/>
       <use x="95.410156" xlink:href="#DejaVuSans-56"/>
      </g>
     </g>
    </g>
    <g id="ytick_12">
     <g id="line2d_31">
      <g>
       <use style="stroke:#000000;stroke-width:0.8;" x="135" xlink:href="#mf1e862a3b1" y="417.388235"/>
      </g>
     </g>
     <g id="text_28">
      <!-- 1.0 -->
      <g transform="translate(112.096875 421.187454)scale(0.1 -0.1)">
       <use xlink:href="#DejaVuSans-49"/>
       <use x="63.623047" xlink:href="#DejaVuSans-46"/>
       <use x="95.410156" xlink:href="#DejaVuSans-48"/>
      </g>
     </g>
    </g>
   </g>
   <g id="patch_9">
    <path d="M 135 657.211765 
L 135 417.388235 
" style="fill:none;stroke:#000000;stroke-linecap:square;stroke-linejoin:miter;stroke-width:0.8;"/>
   </g>
   <g id="patch_10">
    <path d="M 972 657.211765 
L 972 417.388235 
" style="fill:none;stroke:#000000;stroke-linecap:square;stroke-linejoin:miter;stroke-width:0.8;"/>
   </g>
   <g id="patch_11">
    <path d="M 135 657.211765 
L 972 657.211765 
" style="fill:none;stroke:#000000;stroke-linecap:square;stroke-linejoin:miter;stroke-width:0.8;"/>
   </g>
   <g id="patch_12">
    <path d="M 135 417.388235 
L 972 417.388235 
" style="fill:none;stroke:#000000;stroke-linecap:square;stroke-linejoin:miter;stroke-width:0.8;"/>
   </g>
  </g>
  <g id="axes_3">
   <g id="patch_13">
    <path d="M 135 945 
L 972 945 
L 972 705.176471 
L 135 705.176471 
z
" style="fill:#ffffff;"/>
   </g>
   <g id="matplotlib.axis_5">
    <g id="xtick_14">
     <g id="line2d_32">
      <g>
       <use style="stroke:#000000;stroke-width:0.8;" x="173.045455" xlink:href="#m027b87dbb9" y="945"/>
      </g>
     </g>
     <g id="text_29">
      <!-- 0 -->
      <g transform="translate(167.319205 965.677187)scale(0.18 -0.18)">
       <use xlink:href="#DejaVuSans-48"/>
      </g>
     </g>
    </g>
    <g id="xtick_15">
     <g id="line2d_33">
      <g>
       <use style="stroke:#000000;stroke-width:0.8;" x="305.839362" xlink:href="#m027b87dbb9" y="945"/>
      </g>
     </g>
     <g id="text_30">
      <!-- 100 -->
      <g transform="translate(288.660612 965.677187)scale(0.18 -0.18)">
       <use xlink:href="#DejaVuSans-49"/>
       <use x="63.623047" xlink:href="#DejaVuSans-48"/>
       <use x="127.246094" xlink:href="#DejaVuSans-48"/>
      </g>
     </g>
    </g>
    <g id="xtick_16">
     <g id="line2d_34">
      <g>
       <use style="stroke:#000000;stroke-width:0.8;" x="438.63327" xlink:href="#m027b87dbb9" y="945"/>
      </g>
     </g>
     <g id="text_31">
      <!-- 200 -->
      <g transform="translate(421.45452 965.677187)scale(0.18 -0.18)">
       <use xlink:href="#DejaVuSans-50"/>
       <use x="63.623047" xlink:href="#DejaVuSans-48"/>
       <use x="127.246094" xlink:href="#DejaVuSans-48"/>
      </g>
     </g>
    </g>
    <g id="xtick_17">
     <g id="line2d_35">
      <g>
       <use style="stroke:#000000;stroke-width:0.8;" x="571.427178" xlink:href="#m027b87dbb9" y="945"/>
      </g>
     </g>
     <g id="text_32">
      <!-- 300 -->
      <g transform="translate(554.248428 965.677187)scale(0.18 -0.18)">
       <use xlink:href="#DejaVuSans-51"/>
       <use x="63.623047" xlink:href="#DejaVuSans-48"/>
       <use x="127.246094" xlink:href="#DejaVuSans-48"/>
      </g>
     </g>
    </g>
    <g id="xtick_18">
     <g id="line2d_36">
      <g>
       <use style="stroke:#000000;stroke-width:0.8;" x="704.221085" xlink:href="#m027b87dbb9" y="945"/>
      </g>
     </g>
     <g id="text_33">
      <!-- 400 -->
      <g transform="translate(687.042335 965.677187)scale(0.18 -0.18)">
       <use xlink:href="#DejaVuSans-52"/>
       <use x="63.623047" xlink:href="#DejaVuSans-48"/>
       <use x="127.246094" xlink:href="#DejaVuSans-48"/>
      </g>
     </g>
    </g>
    <g id="xtick_19">
     <g id="line2d_37">
      <g>
       <use style="stroke:#000000;stroke-width:0.8;" x="837.014993" xlink:href="#m027b87dbb9" y="945"/>
      </g>
     </g>
     <g id="text_34">
      <!-- 500 -->
      <g transform="translate(819.836243 965.677187)scale(0.18 -0.18)">
       <use xlink:href="#DejaVuSans-53"/>
       <use x="63.623047" xlink:href="#DejaVuSans-48"/>
       <use x="127.246094" xlink:href="#DejaVuSans-48"/>
      </g>
     </g>
    </g>
    <g id="xtick_20">
     <g id="line2d_38">
      <g>
       <use style="stroke:#000000;stroke-width:0.8;" x="969.808901" xlink:href="#m027b87dbb9" y="945"/>
      </g>
     </g>
     <g id="text_35">
      <!-- 600 -->
      <g transform="translate(952.630151 965.677187)scale(0.18 -0.18)">
       <use xlink:href="#DejaVuSans-54"/>
       <use x="63.623047" xlink:href="#DejaVuSans-48"/>
       <use x="127.246094" xlink:href="#DejaVuSans-48"/>
      </g>
     </g>
    </g>
   </g>
   <g id="matplotlib.axis_6">
    <g id="ytick_13">
     <g id="line2d_39">
      <g>
       <use style="stroke:#000000;stroke-width:0.8;" x="135" xlink:href="#mf1e862a3b1" y="903.580903"/>
      </g>
     </g>
     <g id="text_36">
      <!-- 0.2 -->
      <g transform="translate(99.374375 910.419497)scale(0.18 -0.18)">
       <use xlink:href="#DejaVuSans-48"/>
       <use x="63.623047" xlink:href="#DejaVuSans-46"/>
       <use x="95.410156" xlink:href="#DejaVuSans-50"/>
      </g>
     </g>
    </g>
    <g id="ytick_14">
     <g id="line2d_40">
      <g>
       <use style="stroke:#000000;stroke-width:0.8;" x="135" xlink:href="#mf1e862a3b1" y="839.651782"/>
      </g>
     </g>
     <g id="text_37">
      <!-- 0.4 -->
      <g transform="translate(99.374375 846.490376)scale(0.18 -0.18)">
       <use xlink:href="#DejaVuSans-48"/>
       <use x="63.623047" xlink:href="#DejaVuSans-46"/>
       <use x="95.410156" xlink:href="#DejaVuSans-52"/>
      </g>
     </g>
    </g>
    <g id="ytick_15">
     <g id="line2d_41">
      <g>
       <use style="stroke:#000000;stroke-width:0.8;" x="135" xlink:href="#mf1e862a3b1" y="775.722661"/>
      </g>
     </g>
     <g id="text_38">
      <!-- 0.6 -->
      <g transform="translate(99.374375 782.561255)scale(0.18 -0.18)">
       <use xlink:href="#DejaVuSans-48"/>
       <use x="63.623047" xlink:href="#DejaVuSans-46"/>
       <use x="95.410156" xlink:href="#DejaVuSans-54"/>
      </g>
     </g>
    </g>
    <g id="ytick_16">
     <g id="line2d_42">
      <g>
       <use style="stroke:#000000;stroke-width:0.8;" x="135" xlink:href="#mf1e862a3b1" y="711.79354"/>
      </g>
     </g>
     <g id="text_39">
      <!-- 0.8 -->
      <g transform="translate(99.374375 718.632134)scale(0.18 -0.18)">
       <use xlink:href="#DejaVuSans-48"/>
       <use x="63.623047" xlink:href="#DejaVuSans-46"/>
       <use x="95.410156" xlink:href="#DejaVuSans-56"/>
      </g>
     </g>
    </g>
   </g>
   <g id="line2d_43">
    <path clip-path="url(#pe6a949bb9f)" d="M 173.045455 934.079847 
L 174.373394 934.008576 
L 175.701333 934.09893 
L 177.029272 934.053399 
L 178.357211 933.739155 
L 179.68515 933.747919 
L 182.341028 933.305017 
L 184.996906 933.256277 
L 187.652784 933.071801 
L 188.980723 932.803787 
L 192.964541 932.354276 
L 194.29248 931.715825 
L 196.948358 931.619081 
L 198.276297 931.084706 
L 199.604236 930.306107 
L 202.260114 929.801176 
L 203.588053 929.5327 
L 204.915992 929.11484 
L 206.243931 928.939289 
L 210.227749 927.485131 
L 211.555688 927.94444 
L 212.883627 927.702466 
L 215.539505 926.939359 
L 218.195383 926.269837 
L 219.523322 926.057044 
L 220.851261 925.676357 
L 222.1792 925.441364 
L 223.507139 925.397161 
L 224.835079 924.725118 
L 226.163018 924.592453 
L 227.490957 923.892044 
L 228.818896 924.290403 
L 230.146835 923.312331 
L 231.474774 923.501021 
L 232.802713 922.984864 
L 234.130652 922.646711 
L 235.458591 922.012135 
L 236.78653 922.008477 
L 238.114469 920.946654 
L 239.442408 921.078613 
L 242.098287 920.367812 
L 243.426226 919.449004 
L 244.754165 918.066237 
L 246.082104 918.127355 
L 247.410043 917.025045 
L 248.737982 917.319195 
L 251.39386 916.684316 
L 252.721799 915.370789 
L 254.049738 915.614297 
L 255.377677 913.80835 
L 256.705616 913.83483 
L 258.033555 912.666067 
L 259.361495 911.91662 
L 260.689434 911.411403 
L 262.017373 910.693718 
L 263.345312 910.130333 
L 264.673251 908.997084 
L 266.00119 908.652774 
L 267.329129 907.645396 
L 268.657068 907.195314 
L 269.985007 906.09694 
L 271.312946 905.417479 
L 272.640885 905.850252 
L 273.968824 905.090036 
L 275.296763 904.991265 
L 277.952642 902.910926 
L 279.280581 902.60461 
L 281.936459 901.265337 
L 283.264398 901.233544 
L 284.592337 900.052624 
L 285.920276 899.48516 
L 287.248215 899.143624 
L 288.576154 898.243215 
L 289.904093 897.803059 
L 291.232032 897.76813 
L 292.559971 897.198026 
L 293.887911 895.806181 
L 295.21585 895.596466 
L 296.543789 895.665181 
L 297.871728 894.031752 
L 299.199667 893.672458 
L 300.527606 892.774116 
L 301.855545 893.62129 
L 303.183484 892.316465 
L 305.839362 890.820599 
L 307.167301 890.71637 
L 308.49524 889.040884 
L 309.823179 888.379525 
L 311.151119 888.87449 
L 312.479058 885.966866 
L 313.806997 887.260158 
L 315.134936 886.053164 
L 316.462875 885.98696 
L 317.790814 884.614541 
L 319.118753 884.313057 
L 320.446692 882.827256 
L 321.774631 882.30256 
L 323.10257 881.432029 
L 324.430509 880.298243 
L 325.758448 880.601347 
L 327.086387 880.277525 
L 328.414327 879.411123 
L 329.742266 878.808658 
L 331.070205 878.63798 
L 332.398144 878.102193 
L 333.726083 877.188075 
L 335.054022 877.565186 
L 336.381961 876.109247 
L 337.7099 876.027979 
L 340.365778 873.837052 
L 341.693717 873.52098 
L 343.021656 872.504654 
L 344.349595 871.916368 
L 345.677535 871.582622 
L 347.005474 870.704685 
L 349.661352 870.778479 
L 350.989291 870.65046 
L 352.31723 869.278039 
L 353.645169 868.480384 
L 354.973108 867.843925 
L 357.628986 867.738418 
L 358.956925 866.377109 
L 360.284864 867.218386 
L 361.612803 865.737284 
L 362.940743 864.846465 
L 364.268682 864.823519 
L 365.596621 864.577138 
L 366.92456 864.520268 
L 368.252499 862.723473 
L 369.580438 862.951328 
L 370.908377 862.872998 
L 372.236316 861.675094 
L 373.564255 862.070563 
L 374.892194 861.890838 
L 376.220133 862.097648 
L 377.548072 861.10436 
L 378.876011 859.528202 
L 380.20395 859.975164 
L 381.53189 859.079454 
L 382.859829 858.945477 
L 384.187768 858.159273 
L 386.843646 857.74839 
L 388.171585 857.407443 
L 389.499524 856.166377 
L 390.827463 855.157433 
L 393.483341 856.051931 
L 394.81128 854.247927 
L 396.139219 853.48056 
L 397.467158 852.468286 
L 398.795098 852.64318 
L 400.123037 851.665064 
L 401.450976 850.970771 
L 404.106854 850.292527 
L 405.434793 850.287695 
L 406.762732 849.437501 
L 409.41861 848.650845 
L 410.746549 847.63955 
L 412.074488 848.006678 
L 413.402427 847.375571 
L 414.730366 847.425574 
L 416.058306 847.292194 
L 417.386245 846.628023 
L 418.714184 845.719115 
L 420.042123 844.516977 
L 421.370062 843.618727 
L 422.698001 844.088533 
L 424.02594 842.815891 
L 425.353879 843.546348 
L 426.681818 842.404251 
L 428.009757 841.853058 
L 429.337696 842.604484 
L 430.665635 841.15953 
L 433.321514 841.131505 
L 434.649453 842.109767 
L 437.305331 837.786636 
L 438.63327 838.323267 
L 439.961209 838.156046 
L 441.289148 837.265911 
L 442.617087 837.333432 
L 443.945026 837.03162 
L 445.272965 836.142 
L 446.600904 835.769189 
L 447.928843 836.897216 
L 449.256782 833.827907 
L 450.584722 835.486024 
L 451.912661 833.575341 
L 453.2406 834.264554 
L 454.568539 833.608011 
L 455.896478 833.770613 
L 457.224417 833.223225 
L 458.552356 832.176119 
L 459.880295 832.770114 
L 461.208234 832.170845 
L 462.536173 830.289853 
L 463.864112 830.464627 
L 466.51999 829.67624 
L 467.84793 829.657066 
L 469.175869 827.532686 
L 470.503808 827.282293 
L 471.831747 826.166313 
L 473.159686 826.769103 
L 474.487625 825.529213 
L 475.815564 826.895485 
L 477.143503 824.985585 
L 478.471442 824.644148 
L 479.799381 824.036143 
L 481.12732 824.925872 
L 482.455259 822.445121 
L 483.783198 822.598523 
L 485.111138 822.391917 
L 487.767016 819.957499 
L 489.094955 821.377864 
L 490.422894 820.604363 
L 491.750833 820.846122 
L 493.078772 820.43666 
L 494.406711 819.670145 
L 498.390528 816.512016 
L 499.718467 815.884623 
L 501.046406 816.547287 
L 502.374346 816.193122 
L 503.702285 815.625964 
L 505.030224 813.412475 
L 506.358163 813.889413 
L 509.014041 812.635907 
L 510.34198 811.418554 
L 511.669919 813.042459 
L 512.997858 811.502772 
L 514.325797 810.823227 
L 515.653736 808.808109 
L 516.981675 810.240343 
L 518.309614 808.054123 
L 519.637554 809.031572 
L 520.965493 807.455954 
L 522.293432 806.149778 
L 523.621371 807.762 
L 526.277249 805.900314 
L 527.605188 805.466744 
L 528.933127 805.764537 
L 530.261066 802.795683 
L 531.589005 803.272506 
L 532.916944 802.168765 
L 534.244883 803.489189 
L 535.572822 800.793664 
L 538.228701 800.973097 
L 539.55664 800.152562 
L 540.884579 799.511477 
L 542.212518 799.599718 
L 543.540457 798.239634 
L 544.868396 798.950624 
L 547.524274 796.65451 
L 550.180152 797.389908 
L 551.508091 796.985954 
L 552.83603 795.459991 
L 554.16397 794.546617 
L 555.491909 795.784742 
L 556.819848 794.199269 
L 558.147787 792.907834 
L 559.475726 793.035421 
L 560.803665 793.707612 
L 562.131604 791.595031 
L 563.459543 792.927192 
L 564.787482 791.194028 
L 566.115421 791.445715 
L 567.44336 791.198457 
L 568.771299 789.785351 
L 570.099238 787.975001 
L 571.427178 788.218278 
L 572.755117 789.831441 
L 574.083056 789.818755 
L 575.410995 788.425933 
L 576.738934 786.148178 
L 578.066873 785.788615 
L 579.394812 787.569851 
L 580.722751 787.436166 
L 582.05069 786.364557 
L 583.378629 784.642726 
L 584.706568 785.17136 
L 586.034507 785.555501 
L 587.362446 785.694991 
L 588.690386 783.09094 
L 590.018325 782.647001 
L 591.346264 783.029405 
L 592.674203 782.262093 
L 594.002142 782.371757 
L 595.330081 781.954192 
L 596.65802 784.012751 
L 597.985959 781.48459 
L 599.313898 782.685779 
L 600.641837 781.030276 
L 601.969776 780.876772 
L 603.297715 781.289949 
L 604.625654 779.749775 
L 605.953594 779.50634 
L 607.281533 779.865872 
L 608.609472 778.936624 
L 609.937411 778.749759 
L 611.26535 777.873481 
L 612.593289 776.337642 
L 613.921228 777.082708 
L 615.249167 775.376618 
L 616.577106 776.78063 
L 617.905045 774.441045 
L 619.232984 774.277485 
L 620.560923 775.543811 
L 621.888862 774.6471 
L 623.216802 774.678874 
L 624.544741 773.985492 
L 625.87268 771.729719 
L 627.200619 772.22038 
L 631.184436 771.522434 
L 632.512375 770.259897 
L 633.840314 772.715757 
L 635.168253 770.584823 
L 636.496192 771.225504 
L 637.824131 770.341624 
L 639.15207 771.269058 
L 640.48001 768.717685 
L 641.807949 770.846016 
L 643.135888 768.069156 
L 644.463827 767.732342 
L 645.791766 766.974087 
L 647.119705 767.965854 
L 648.447644 766.921593 
L 649.775583 766.335005 
L 651.103522 767.720199 
L 652.431461 766.582007 
L 653.7594 765.950131 
L 655.087339 762.873558 
L 656.415278 764.677434 
L 659.071157 764.177035 
L 660.399096 763.853012 
L 661.727035 762.090686 
L 663.054974 764.042069 
L 664.382913 762.702505 
L 665.710852 762.46471 
L 667.038791 761.339856 
L 668.36673 762.612247 
L 669.694669 763.193892 
L 671.022608 760.833737 
L 672.350547 760.68924 
L 673.678486 760.17952 
L 675.006426 762.700733 
L 676.334365 759.695196 
L 677.662304 759.758089 
L 678.990243 759.362448 
L 680.318182 758.501641 
L 681.646121 758.848361 
L 682.97406 758.149919 
L 684.301999 758.868449 
L 685.629938 758.542746 
L 686.957877 756.624049 
L 688.285816 757.855466 
L 689.613755 757.065321 
L 690.941694 754.700195 
L 692.269634 756.808843 
L 693.597573 756.294243 
L 694.925512 755.349753 
L 696.253451 753.315193 
L 697.58139 755.711101 
L 698.909329 754.304731 
L 700.237268 754.746344 
L 701.565207 753.286569 
L 702.893146 752.205002 
L 704.221085 753.3115 
L 705.549024 753.12052 
L 706.876963 752.052225 
L 708.204902 752.428832 
L 709.532842 751.010784 
L 710.860781 750.600236 
L 712.18872 751.365353 
L 714.844598 749.787465 
L 716.172537 748.63023 
L 717.500476 749.46953 
L 718.828415 748.993032 
L 720.156354 751.214228 
L 721.484293 750.379018 
L 722.812232 747.521285 
L 724.140171 746.96965 
L 725.46811 746.810757 
L 726.79605 747.409274 
L 728.123989 747.396842 
L 729.451928 748.282699 
L 730.779867 745.49229 
L 732.107806 746.981135 
L 733.435745 745.130821 
L 734.763684 744.179215 
L 736.091623 744.485373 
L 737.419562 744.942747 
L 738.747501 745.070826 
L 740.07544 742.578553 
L 741.403379 742.964832 
L 742.731318 742.045144 
L 744.059257 741.563836 
L 745.387197 742.680385 
L 746.715136 743.129686 
L 749.371014 741.733758 
L 750.698953 743.807277 
L 752.026892 742.450713 
L 753.354831 742.267249 
L 754.68277 741.776073 
L 756.010709 739.388006 
L 757.338648 740.599758 
L 758.666587 741.394024 
L 759.994526 741.208766 
L 761.322465 740.170347 
L 762.650405 738.648517 
L 763.978344 740.430431 
L 765.306283 739.909648 
L 766.634222 737.99563 
L 767.962161 739.342277 
L 769.2901 736.94582 
L 770.618039 740.216743 
L 771.945978 735.94701 
L 773.273917 736.516241 
L 774.601856 738.935379 
L 775.929795 736.120317 
L 777.257734 739.097956 
L 778.585673 735.916741 
L 779.913613 735.175926 
L 781.241552 736.488865 
L 782.569491 736.521363 
L 783.89743 734.337325 
L 785.225369 737.033187 
L 786.553308 735.658587 
L 787.881247 734.567429 
L 789.209186 735.904134 
L 790.537125 734.113919 
L 791.865064 734.247322 
L 793.193003 734.612648 
L 794.520942 736.890186 
L 795.848881 732.162997 
L 797.176821 733.145504 
L 798.50476 733.893594 
L 801.160638 731.636846 
L 802.488577 735.227373 
L 803.816516 731.376415 
L 805.144455 733.256757 
L 806.472394 731.26795 
L 807.800333 735.210642 
L 809.128272 732.004537 
L 810.456211 732.019608 
L 813.112089 730.578651 
L 814.440029 730.987217 
L 815.767968 730.570179 
L 817.095907 729.971098 
L 818.423846 730.357482 
L 821.079724 729.753298 
L 822.407663 726.738833 
L 823.735602 730.583156 
L 825.063541 727.274443 
L 826.39148 726.334617 
L 827.719419 728.404113 
L 829.047358 726.377102 
L 830.375297 731.0871 
L 831.703237 729.928413 
L 833.031176 728.921685 
L 834.359115 728.143741 
L 835.687054 727.652983 
L 837.014993 727.617243 
L 838.342932 728.04868 
L 840.99881 727.891031 
L 842.326749 726.036891 
L 843.654688 729.222966 
L 844.982627 726.014014 
L 846.310566 724.752106 
L 847.638505 725.613088 
L 848.966445 724.800671 
L 850.294384 725.987253 
L 851.622323 726.540225 
L 852.950262 723.779251 
L 854.278201 725.74988 
L 855.60614 726.234159 
L 856.934079 724.098607 
L 858.262018 724.736489 
L 859.589957 725.87475 
L 860.917896 725.718093 
L 862.245835 724.518702 
L 863.573774 722.580214 
L 864.901713 726.432122 
L 866.229653 722.036864 
L 867.557592 725.319405 
L 868.885531 724.469256 
L 870.21347 722.010291 
L 871.541409 723.767686 
L 872.869348 724.076984 
L 874.197287 723.562482 
L 875.525226 722.525852 
L 876.853165 721.7474 
L 878.181104 722.060074 
L 880.836982 724.522576 
L 882.164921 721.869065 
L 883.492861 720.069852 
L 884.8208 722.240719 
L 886.148739 720.292877 
L 887.476678 721.746887 
L 888.804617 722.202264 
L 890.132556 721.643307 
L 891.460495 720.069846 
L 892.788434 722.204921 
L 896.772251 720.040388 
L 898.10019 721.962107 
L 899.428129 721.448526 
L 900.756069 723.909048 
L 902.084008 719.439118 
L 903.411947 721.183565 
L 904.739886 720.963081 
L 906.067825 720.211076 
L 907.395764 721.575604 
L 908.723703 717.252277 
L 910.051642 720.14138 
L 911.379581 718.476077 
L 912.70752 718.513426 
L 914.035459 717.869863 
L 915.363398 721.244798 
L 916.691337 718.226478 
L 918.019277 719.483604 
L 919.347216 717.716515 
L 920.675155 719.879765 
L 922.003094 716.453597 
L 923.331033 718.509103 
L 924.658972 719.817369 
L 925.986911 717.003665 
L 927.31485 717.370605 
L 928.642789 716.181239 
L 929.970728 716.07754 
L 931.298667 718.616584 
L 932.626606 717.936492 
L 933.954545 716.359193 
L 933.954545 716.359193 
" style="fill:none;stroke:#bf00bf;stroke-linecap:square;stroke-width:1.5;"/>
   </g>
   <g id="patch_14">
    <path d="M 135 945 
L 135 705.176471 
" style="fill:none;stroke:#000000;stroke-linecap:square;stroke-linejoin:miter;stroke-width:0.8;"/>
   </g>
   <g id="patch_15">
    <path d="M 972 945 
L 972 705.176471 
" style="fill:none;stroke:#000000;stroke-linecap:square;stroke-linejoin:miter;stroke-width:0.8;"/>
   </g>
   <g id="patch_16">
    <path d="M 135 945 
L 972 945 
" style="fill:none;stroke:#000000;stroke-linecap:square;stroke-linejoin:miter;stroke-width:0.8;"/>
   </g>
   <g id="patch_17">
    <path d="M 135 705.176471 
L 972 705.176471 
" style="fill:none;stroke:#000000;stroke-linecap:square;stroke-linejoin:miter;stroke-width:0.8;"/>
   </g>
   <g id="legend_2">
    <g id="patch_18">
     <path d="M 142 727.854596 
L 193.015625 727.854596 
Q 195.015625 727.854596 195.015625 725.854596 
L 195.015625 712.176471 
Q 195.015625 710.176471 193.015625 710.176471 
L 142 710.176471 
Q 140 710.176471 140 712.176471 
L 140 725.854596 
Q 140 727.854596 142 727.854596 
z
" style="fill:#ffffff;opacity:0.8;stroke:#cccccc;stroke-linejoin:miter;"/>
    </g>
    <g id="line2d_44">
     <path d="M 144 718.274908 
L 164 718.274908 
" style="fill:none;stroke:#bf00bf;stroke-linecap:square;stroke-width:1.5;"/>
    </g>
    <g id="line2d_45"/>
    <g id="text_40">
     <!-- ESS -->
     <defs>
      <path d="M 53.515625 70.515625 
L 53.515625 60.890625 
Q 47.90625 63.578125 42.921875 64.890625 
Q 37.9375 66.21875 33.296875 66.21875 
Q 25.25 66.21875 20.875 63.09375 
Q 16.5 59.96875 16.5 54.203125 
Q 16.5 49.359375 19.40625 46.890625 
Q 22.3125 44.4375 30.421875 42.921875 
L 36.375 41.703125 
Q 47.40625 39.59375 52.65625 34.296875 
Q 57.90625 29 57.90625 20.125 
Q 57.90625 9.515625 50.796875 4.046875 
Q 43.703125 -1.421875 29.984375 -1.421875 
Q 24.8125 -1.421875 18.96875 -0.25 
Q 13.140625 0.921875 6.890625 3.21875 
L 6.890625 13.375 
Q 12.890625 10.015625 18.65625 8.296875 
Q 24.421875 6.59375 29.984375 6.59375 
Q 38.421875 6.59375 43.015625 9.90625 
Q 47.609375 13.234375 47.609375 19.390625 
Q 47.609375 24.75 44.3125 27.78125 
Q 41.015625 30.8125 33.5 32.328125 
L 27.484375 33.5 
Q 16.453125 35.6875 11.515625 40.375 
Q 6.59375 45.0625 6.59375 53.421875 
Q 6.59375 63.09375 13.40625 68.65625 
Q 20.21875 74.21875 32.171875 74.21875 
Q 37.3125 74.21875 42.625 73.28125 
Q 47.953125 72.359375 53.515625 70.515625 
z
" id="DejaVuSans-83"/>
     </defs>
     <g transform="translate(172 721.774908)scale(0.1 -0.1)">
      <use xlink:href="#DejaVuSans-69"/>
      <use x="63.183594" xlink:href="#DejaVuSans-83"/>
      <use x="126.660156" xlink:href="#DejaVuSans-83"/>
     </g>
    </g>
   </g>
  </g>
 </g>
 <defs>
  <clipPath id="p3242af96ef">
   <rect height="239.823529" width="837" x="135" y="129.6"/>
  </clipPath>
  <clipPath id="pe6a949bb9f">
   <rect height="239.823529" width="837" x="135" y="705.176471"/>
  </clipPath>
 </defs>
</svg>
