<?xml version="1.0" encoding="utf-8" standalone="no"?>
<!DOCTYPE svg PUBLIC "-//W3C//DTD SVG 1.1//EN"
  "http://www.w3.org/Graphics/SVG/1.1/DTD/svg11.dtd">
<!-- Created with matplotlib (https://matplotlib.org/) -->
<svg height="1800pt" version="1.1" viewBox="0 0 360 1800" width="360pt" xmlns="http://www.w3.org/2000/svg" xmlns:xlink="http://www.w3.org/1999/xlink">
 <defs>
  <style type="text/css">
*{stroke-linecap:butt;stroke-linejoin:round;}
  </style>
 </defs>
 <g id="figure_1">
  <g id="patch_1">
   <path d="M 0 1800 
L 360 1800 
L 360 0 
L 0 0 
z
" style="fill:#ffffff;"/>
  </g>
  <g id="axes_1">
   <g id="patch_2">
    <path d="M 0 360 
L 360 360 
L 360 0 
L 0 0 
z
" style="fill:#ffffff;"/>
   </g>
   <g id="PathCollection_1">
    <defs>
     <path d="M 0 3 
C 0.795609 3 1.55874 2.683901 2.12132 2.12132 
C 2.683901 1.55874 3 0.795609 3 0 
C 3 -0.795609 2.683901 -1.55874 2.12132 -2.12132 
C 1.55874 -2.683901 0.795609 -3 0 -3 
C -0.795609 -3 -1.55874 -2.683901 -2.12132 -2.12132 
C -2.683901 -1.55874 -3 -0.795609 -3 0 
C -3 0.795609 -2.683901 1.55874 -2.12132 2.12132 
C -1.55874 2.683901 -0.795609 3 0 3 
z
" id="mf3101fa178" style="stroke:#ff0000;"/>
    </defs>
    <g clip-path="url(#pdeef2393c5)">
     <use style="fill:#ff0000;stroke:#ff0000;" x="123.428587" xlink:href="#mf3101fa178" y="177.625983"/>
     <use style="fill:#ff0000;stroke:#ff0000;" x="111.084732" xlink:href="#mf3101fa178" y="200.377766"/>
     <use style="fill:#ff0000;stroke:#ff0000;" x="216.228599" xlink:href="#mf3101fa178" y="183.248324"/>
     <use style="fill:#ff0000;stroke:#ff0000;" x="192.995481" xlink:href="#mf3101fa178" y="182.132615"/>
     <use style="fill:#ff0000;stroke:#ff0000;" x="125.218111" xlink:href="#mf3101fa178" y="182.887571"/>
     <use style="fill:#ff0000;stroke:#ff0000;" x="189.397827" xlink:href="#mf3101fa178" y="186.474365"/>
     <use style="fill:#ff0000;stroke:#ff0000;" x="114.768448" xlink:href="#mf3101fa178" y="167.871742"/>
     <use style="fill:#ff0000;stroke:#ff0000;" x="107.12879" xlink:href="#mf3101fa178" y="203.865658"/>
     <use style="fill:#ff0000;stroke:#ff0000;" x="109.014404" xlink:href="#mf3101fa178" y="177.072548"/>
     <use style="fill:#ff0000;stroke:#ff0000;" x="128.733147" xlink:href="#mf3101fa178" y="182.207546"/>
     <use style="fill:#ff0000;stroke:#ff0000;" x="125.913345" xlink:href="#mf3101fa178" y="169.008611"/>
     <use style="fill:#ff0000;stroke:#ff0000;" x="117.881853" xlink:href="#mf3101fa178" y="177.238128"/>
     <use style="fill:#ff0000;stroke:#ff0000;" x="122.037838" xlink:href="#mf3101fa178" y="180.485082"/>
     <use style="fill:#ff0000;stroke:#ff0000;" x="104.961828" xlink:href="#mf3101fa178" y="174.294231"/>
     <use style="fill:#ff0000;stroke:#ff0000;" x="119.077503" xlink:href="#mf3101fa178" y="174.415448"/>
     <use style="fill:#ff0000;stroke:#ff0000;" x="128.495647" xlink:href="#mf3101fa178" y="177.259053"/>
     <use style="fill:#ff0000;stroke:#ff0000;" x="107.405766" xlink:href="#mf3101fa178" y="193.780766"/>
     <use style="fill:#ff0000;stroke:#ff0000;" x="118.196537" xlink:href="#mf3101fa178" y="164.347538"/>
     <use style="fill:#ff0000;stroke:#ff0000;" x="102.102528" xlink:href="#mf3101fa178" y="167.78098"/>
     <use style="fill:#ff0000;stroke:#ff0000;" x="130.898432" xlink:href="#mf3101fa178" y="196.404376"/>
     <use style="fill:#ff0000;stroke:#ff0000;" x="208.005701" xlink:href="#mf3101fa178" y="186.136176"/>
     <use style="fill:#ff0000;stroke:#ff0000;" x="118.216925" xlink:href="#mf3101fa178" y="178.9461"/>
     <use style="fill:#ff0000;stroke:#ff0000;" x="218.105965" xlink:href="#mf3101fa178" y="184.191596"/>
     <use style="fill:#ff0000;stroke:#ff0000;" x="137.429272" xlink:href="#mf3101fa178" y="171.677188"/>
     <use style="fill:#ff0000;stroke:#ff0000;" x="99.156126" xlink:href="#mf3101fa178" y="173.127761"/>
     <use style="fill:#ff0000;stroke:#ff0000;" x="218.334887" xlink:href="#mf3101fa178" y="189.778959"/>
     <use style="fill:#ff0000;stroke:#ff0000;" x="123.339569" xlink:href="#mf3101fa178" y="182.819389"/>
     <use style="fill:#ff0000;stroke:#ff0000;" x="193.848647" xlink:href="#mf3101fa178" y="182.448369"/>
     <use style="fill:#ff0000;stroke:#ff0000;" x="115.870239" xlink:href="#mf3101fa178" y="139.925812"/>
    </g>
   </g>
   <g id="PathCollection_2">
    <defs>
     <path d="M 0 3 
C 0.795609 3 1.55874 2.683901 2.12132 2.12132 
C 2.683901 1.55874 3 0.795609 3 0 
C 3 -0.795609 2.683901 -1.55874 2.12132 -2.12132 
C 1.55874 -2.683901 0.795609 -3 0 -3 
C -0.795609 -3 -1.55874 -2.683901 -2.12132 -2.12132 
C -2.683901 -1.55874 -3 -0.795609 -3 0 
C -3 0.795609 -2.683901 1.55874 -2.12132 2.12132 
C -1.55874 2.683901 -0.795609 3 0 3 
z
" id="m12f793fc30" style="stroke:#0000ff;"/>
    </defs>
    <g clip-path="url(#pdeef2393c5)">
     <use style="fill:#0000ff;stroke:#0000ff;" x="199.278255" xlink:href="#m12f793fc30" y="242.349953"/>
     <use style="fill:#0000ff;stroke:#0000ff;" x="131.466785" xlink:href="#m12f793fc30" y="220.66676"/>
     <use style="fill:#0000ff;stroke:#0000ff;" x="194.741964" xlink:href="#m12f793fc30" y="215.017859"/>
     <use style="fill:#0000ff;stroke:#0000ff;" x="189.657997" xlink:href="#m12f793fc30" y="203.909729"/>
     <use style="fill:#0000ff;stroke:#0000ff;" x="187.301107" xlink:href="#m12f793fc30" y="238.061279"/>
     <use style="fill:#0000ff;stroke:#0000ff;" x="200.775835" xlink:href="#m12f793fc30" y="235.417282"/>
     <use style="fill:#0000ff;stroke:#0000ff;" x="203.261324" xlink:href="#m12f793fc30" y="203.707236"/>
     <use style="fill:#0000ff;stroke:#0000ff;" x="188.480531" xlink:href="#m12f793fc30" y="210.961083"/>
     <use style="fill:#0000ff;stroke:#0000ff;" x="201.488667" xlink:href="#m12f793fc30" y="213.966585"/>
     <use style="fill:#0000ff;stroke:#0000ff;" x="190.065647" xlink:href="#m12f793fc30" y="237.362869"/>
     <use style="fill:#0000ff;stroke:#0000ff;" x="200.839763" xlink:href="#m12f793fc30" y="241.696936"/>
     <use style="fill:#0000ff;stroke:#0000ff;" x="199.505051" xlink:href="#m12f793fc30" y="195.807318"/>
     <use style="fill:#0000ff;stroke:#0000ff;" x="178.916599" xlink:href="#m12f793fc30" y="206.84087"/>
     <use style="fill:#0000ff;stroke:#0000ff;" x="200.960708" xlink:href="#m12f793fc30" y="202.187017"/>
     <use style="fill:#0000ff;stroke:#0000ff;" x="182.213772" xlink:href="#m12f793fc30" y="215.837176"/>
     <use style="fill:#0000ff;stroke:#0000ff;" x="212.403254" xlink:href="#m12f793fc30" y="239.685997"/>
     <use style="fill:#0000ff;stroke:#0000ff;" x="177.454034" xlink:href="#m12f793fc30" y="233.398911"/>
     <use style="fill:#0000ff;stroke:#0000ff;" x="163.186615" xlink:href="#m12f793fc30" y="207.194321"/>
    </g>
   </g>
   <g id="PathCollection_3">
    <defs>
     <path d="M 0 3 
C 0.795609 3 1.55874 2.683901 2.12132 2.12132 
C 2.683901 1.55874 3 0.795609 3 0 
C 3 -0.795609 2.683901 -1.55874 2.12132 -2.12132 
C 1.55874 -2.683901 0.795609 -3 0 -3 
C -0.795609 -3 -1.55874 -2.683901 -2.12132 -2.12132 
C -2.683901 -1.55874 -3 -0.795609 -3 0 
C -3 0.795609 -2.683901 1.55874 -2.12132 2.12132 
C -1.55874 2.683901 -0.795609 3 0 3 
z
" id="mb54b960dd7" style="stroke:#008000;"/>
    </defs>
    <g clip-path="url(#pdeef2393c5)">
     <use style="fill:#008000;stroke:#008000;" x="222.029892" xlink:href="#mb54b960dd7" y="160.19748"/>
     <use style="fill:#008000;stroke:#008000;" x="215.060912" xlink:href="#mb54b960dd7" y="171.006603"/>
     <use style="fill:#008000;stroke:#008000;" x="173.884488" xlink:href="#mb54b960dd7" y="177.172886"/>
     <use style="fill:#008000;stroke:#008000;" x="211.126119" xlink:href="#mb54b960dd7" y="173.272378"/>
     <use style="fill:#008000;stroke:#008000;" x="125.09832" xlink:href="#mb54b960dd7" y="146.776039"/>
     <use style="fill:#008000;stroke:#008000;" x="197.379619" xlink:href="#mb54b960dd7" y="177.987246"/>
     <use style="fill:#008000;stroke:#008000;" x="221.901604" xlink:href="#mb54b960dd7" y="170.722517"/>
     <use style="fill:#008000;stroke:#008000;" x="212.592387" xlink:href="#mb54b960dd7" y="169.911452"/>
     <use style="fill:#008000;stroke:#008000;" x="222.403991" xlink:href="#mb54b960dd7" y="173.703181"/>
     <use style="fill:#008000;stroke:#008000;" x="210.663654" xlink:href="#mb54b960dd7" y="174.551821"/>
     <use style="fill:#008000;stroke:#008000;" x="199.101826" xlink:href="#mb54b960dd7" y="176.605039"/>
     <use style="fill:#008000;stroke:#008000;" x="137.552479" xlink:href="#mb54b960dd7" y="159.483285"/>
     <use style="fill:#008000;stroke:#008000;" x="197.378792" xlink:href="#mb54b960dd7" y="175.781994"/>
    </g>
   </g>
   <g id="patch_3">
    <path clip-path="url(#pdeef2393c5)" d="M 196.483187 237.71235 
C 221.595191 237.71235 245.682054 232.681261 263.438922 223.727123 
C 281.195791 214.772985 291.172896 202.626863 291.172896 189.963799 
C 291.172896 177.300736 281.195791 165.154614 263.438922 156.200475 
C 245.682054 147.246337 221.595191 142.215249 196.483187 142.215249 
C 171.371183 142.215249 147.284321 147.246337 129.527452 156.200475 
C 111.770584 165.154614 101.793478 177.300736 101.793478 189.963799 
C 101.793478 202.626863 111.770584 214.772985 129.527452 223.727123 
C 147.284321 232.681261 171.371183 237.71235 196.483187 237.71235 
z
" style="fill:#ff0000;opacity:0.2;stroke:#ff0000;stroke-linejoin:miter;"/>
   </g>
   <g id="patch_4">
    <path clip-path="url(#pdeef2393c5)" d="M 189.972813 227.571968 
C 202.44249 227.571968 214.403119 224.131771 223.220512 218.00904 
C 232.037905 211.886309 236.99216 203.580938 236.99216 194.922089 
C 236.99216 186.263239 232.037905 177.957868 223.220512 171.835137 
C 214.403119 165.712406 202.44249 162.272209 189.972813 162.272209 
C 177.503136 162.272209 165.542507 165.712406 156.725114 171.835137 
C 147.907721 177.957868 142.953466 186.263239 142.953466 194.922089 
C 142.953466 203.580938 147.907721 211.886309 156.725114 218.00904 
C 165.542507 224.131771 177.503136 227.571968 189.972813 227.571968 
z
" style="fill:#0000ff;opacity:0.2;stroke:#0000ff;stroke-linejoin:miter;"/>
   </g>
   <g id="patch_5">
    <path clip-path="url(#pdeef2393c5)" d="M 197.674212 215.201878 
C 212.638764 215.201878 226.992421 211.914718 237.573957 206.064358 
C 248.155493 200.213998 254.100972 192.278093 254.100972 184.004434 
C 254.100972 175.730775 248.155493 167.79487 237.573957 161.94451 
C 226.992421 156.09415 212.638764 152.80699 197.674212 152.80699 
C 182.709661 152.80699 168.356004 156.09415 157.774468 161.94451 
C 147.192932 167.79487 141.247453 175.730775 141.247453 184.004434 
C 141.247453 192.278093 147.192932 200.213998 157.774468 206.064358 
C 168.356004 211.914718 182.709661 215.201878 197.674212 215.201878 
z
" style="fill:#008000;opacity:0.2;stroke:#008000;stroke-linejoin:miter;"/>
   </g>
   <g id="matplotlib.axis_1"/>
   <g id="matplotlib.axis_2"/>
   <g id="patch_6">
    <path d="M 0 360 
L 0 0 
" style="fill:none;stroke:#000000;stroke-linecap:square;stroke-linejoin:miter;stroke-width:0.8;"/>
   </g>
   <g id="patch_7">
    <path d="M 360 360 
L 360 0 
" style="fill:none;stroke:#000000;stroke-linecap:square;stroke-linejoin:miter;stroke-width:0.8;"/>
   </g>
   <g id="patch_8">
    <path d="M 0 360 
L 360 360 
" style="fill:none;stroke:#000000;stroke-linecap:square;stroke-linejoin:miter;stroke-width:0.8;"/>
   </g>
   <g id="patch_9">
    <path d="M 0 0 
L 360 0 
" style="fill:none;stroke:#000000;stroke-linecap:square;stroke-linejoin:miter;stroke-width:0.8;"/>
   </g>
   <g id="text_1">
    <!-- Oneshot Encoder -->
    <defs>
     <path d="M 39.40625 66.21875 
Q 28.65625 66.21875 22.328125 58.203125 
Q 16.015625 50.203125 16.015625 36.375 
Q 16.015625 22.609375 22.328125 14.59375 
Q 28.65625 6.59375 39.40625 6.59375 
Q 50.140625 6.59375 56.421875 14.59375 
Q 62.703125 22.609375 62.703125 36.375 
Q 62.703125 50.203125 56.421875 58.203125 
Q 50.140625 66.21875 39.40625 66.21875 
z
M 39.40625 74.21875 
Q 54.734375 74.21875 63.90625 63.9375 
Q 73.09375 53.65625 73.09375 36.375 
Q 73.09375 19.140625 63.90625 8.859375 
Q 54.734375 -1.421875 39.40625 -1.421875 
Q 24.03125 -1.421875 14.8125 8.828125 
Q 5.609375 19.09375 5.609375 36.375 
Q 5.609375 53.65625 14.8125 63.9375 
Q 24.03125 74.21875 39.40625 74.21875 
z
" id="DejaVuSans-79"/>
     <path d="M 54.890625 33.015625 
L 54.890625 0 
L 45.90625 0 
L 45.90625 32.71875 
Q 45.90625 40.484375 42.875 44.328125 
Q 39.84375 48.1875 33.796875 48.1875 
Q 26.515625 48.1875 22.3125 43.546875 
Q 18.109375 38.921875 18.109375 30.90625 
L 18.109375 0 
L 9.078125 0 
L 9.078125 54.6875 
L 18.109375 54.6875 
L 18.109375 46.1875 
Q 21.34375 51.125 25.703125 53.5625 
Q 30.078125 56 35.796875 56 
Q 45.21875 56 50.046875 50.171875 
Q 54.890625 44.34375 54.890625 33.015625 
z
" id="DejaVuSans-110"/>
     <path d="M 56.203125 29.59375 
L 56.203125 25.203125 
L 14.890625 25.203125 
Q 15.484375 15.921875 20.484375 11.0625 
Q 25.484375 6.203125 34.421875 6.203125 
Q 39.59375 6.203125 44.453125 7.46875 
Q 49.3125 8.734375 54.109375 11.28125 
L 54.109375 2.78125 
Q 49.265625 0.734375 44.1875 -0.34375 
Q 39.109375 -1.421875 33.890625 -1.421875 
Q 20.796875 -1.421875 13.15625 6.1875 
Q 5.515625 13.8125 5.515625 26.8125 
Q 5.515625 40.234375 12.765625 48.109375 
Q 20.015625 56 32.328125 56 
Q 43.359375 56 49.78125 48.890625 
Q 56.203125 41.796875 56.203125 29.59375 
z
M 47.21875 32.234375 
Q 47.125 39.59375 43.09375 43.984375 
Q 39.0625 48.390625 32.421875 48.390625 
Q 24.90625 48.390625 20.390625 44.140625 
Q 15.875 39.890625 15.1875 32.171875 
z
" id="DejaVuSans-101"/>
     <path d="M 44.28125 53.078125 
L 44.28125 44.578125 
Q 40.484375 46.53125 36.375 47.5 
Q 32.28125 48.484375 27.875 48.484375 
Q 21.1875 48.484375 17.84375 46.4375 
Q 14.5 44.390625 14.5 40.28125 
Q 14.5 37.15625 16.890625 35.375 
Q 19.28125 33.59375 26.515625 31.984375 
L 29.59375 31.296875 
Q 39.15625 29.25 43.1875 25.515625 
Q 47.21875 21.78125 47.21875 15.09375 
Q 47.21875 7.46875 41.1875 3.015625 
Q 35.15625 -1.421875 24.609375 -1.421875 
Q 20.21875 -1.421875 15.453125 -0.5625 
Q 10.6875 0.296875 5.421875 2 
L 5.421875 11.28125 
Q 10.40625 8.6875 15.234375 7.390625 
Q 20.0625 6.109375 24.8125 6.109375 
Q 31.15625 6.109375 34.5625 8.28125 
Q 37.984375 10.453125 37.984375 14.40625 
Q 37.984375 18.0625 35.515625 20.015625 
Q 33.0625 21.96875 24.703125 23.78125 
L 21.578125 24.515625 
Q 13.234375 26.265625 9.515625 29.90625 
Q 5.8125 33.546875 5.8125 39.890625 
Q 5.8125 47.609375 11.28125 51.796875 
Q 16.75 56 26.8125 56 
Q 31.78125 56 36.171875 55.265625 
Q 40.578125 54.546875 44.28125 53.078125 
z
" id="DejaVuSans-115"/>
     <path d="M 54.890625 33.015625 
L 54.890625 0 
L 45.90625 0 
L 45.90625 32.71875 
Q 45.90625 40.484375 42.875 44.328125 
Q 39.84375 48.1875 33.796875 48.1875 
Q 26.515625 48.1875 22.3125 43.546875 
Q 18.109375 38.921875 18.109375 30.90625 
L 18.109375 0 
L 9.078125 0 
L 9.078125 75.984375 
L 18.109375 75.984375 
L 18.109375 46.1875 
Q 21.34375 51.125 25.703125 53.5625 
Q 30.078125 56 35.796875 56 
Q 45.21875 56 50.046875 50.171875 
Q 54.890625 44.34375 54.890625 33.015625 
z
" id="DejaVuSans-104"/>
     <path d="M 30.609375 48.390625 
Q 23.390625 48.390625 19.1875 42.75 
Q 14.984375 37.109375 14.984375 27.296875 
Q 14.984375 17.484375 19.15625 11.84375 
Q 23.34375 6.203125 30.609375 6.203125 
Q 37.796875 6.203125 41.984375 11.859375 
Q 46.1875 17.53125 46.1875 27.296875 
Q 46.1875 37.015625 41.984375 42.703125 
Q 37.796875 48.390625 30.609375 48.390625 
z
M 30.609375 56 
Q 42.328125 56 49.015625 48.375 
Q 55.71875 40.765625 55.71875 27.296875 
Q 55.71875 13.875 49.015625 6.21875 
Q 42.328125 -1.421875 30.609375 -1.421875 
Q 18.84375 -1.421875 12.171875 6.21875 
Q 5.515625 13.875 5.515625 27.296875 
Q 5.515625 40.765625 12.171875 48.375 
Q 18.84375 56 30.609375 56 
z
" id="DejaVuSans-111"/>
     <path d="M 18.3125 70.21875 
L 18.3125 54.6875 
L 36.8125 54.6875 
L 36.8125 47.703125 
L 18.3125 47.703125 
L 18.3125 18.015625 
Q 18.3125 11.328125 20.140625 9.421875 
Q 21.96875 7.515625 27.59375 7.515625 
L 36.8125 7.515625 
L 36.8125 0 
L 27.59375 0 
Q 17.1875 0 13.234375 3.875 
Q 9.28125 7.765625 9.28125 18.015625 
L 9.28125 47.703125 
L 2.6875 47.703125 
L 2.6875 54.6875 
L 9.28125 54.6875 
L 9.28125 70.21875 
z
" id="DejaVuSans-116"/>
     <path id="DejaVuSans-32"/>
     <path d="M 9.8125 72.90625 
L 55.90625 72.90625 
L 55.90625 64.59375 
L 19.671875 64.59375 
L 19.671875 43.015625 
L 54.390625 43.015625 
L 54.390625 34.71875 
L 19.671875 34.71875 
L 19.671875 8.296875 
L 56.78125 8.296875 
L 56.78125 0 
L 9.8125 0 
z
" id="DejaVuSans-69"/>
     <path d="M 48.78125 52.59375 
L 48.78125 44.1875 
Q 44.96875 46.296875 41.140625 47.34375 
Q 37.3125 48.390625 33.40625 48.390625 
Q 24.65625 48.390625 19.8125 42.84375 
Q 14.984375 37.3125 14.984375 27.296875 
Q 14.984375 17.28125 19.8125 11.734375 
Q 24.65625 6.203125 33.40625 6.203125 
Q 37.3125 6.203125 41.140625 7.25 
Q 44.96875 8.296875 48.78125 10.40625 
L 48.78125 2.09375 
Q 45.015625 0.34375 40.984375 -0.53125 
Q 36.96875 -1.421875 32.421875 -1.421875 
Q 20.0625 -1.421875 12.78125 6.34375 
Q 5.515625 14.109375 5.515625 27.296875 
Q 5.515625 40.671875 12.859375 48.328125 
Q 20.21875 56 33.015625 56 
Q 37.15625 56 41.109375 55.140625 
Q 45.0625 54.296875 48.78125 52.59375 
z
" id="DejaVuSans-99"/>
     <path d="M 45.40625 46.390625 
L 45.40625 75.984375 
L 54.390625 75.984375 
L 54.390625 0 
L 45.40625 0 
L 45.40625 8.203125 
Q 42.578125 3.328125 38.25 0.953125 
Q 33.9375 -1.421875 27.875 -1.421875 
Q 17.96875 -1.421875 11.734375 6.484375 
Q 5.515625 14.40625 5.515625 27.296875 
Q 5.515625 40.1875 11.734375 48.09375 
Q 17.96875 56 27.875 56 
Q 33.9375 56 38.25 53.625 
Q 42.578125 51.265625 45.40625 46.390625 
z
M 14.796875 27.296875 
Q 14.796875 17.390625 18.875 11.75 
Q 22.953125 6.109375 30.078125 6.109375 
Q 37.203125 6.109375 41.296875 11.75 
Q 45.40625 17.390625 45.40625 27.296875 
Q 45.40625 37.203125 41.296875 42.84375 
Q 37.203125 48.484375 30.078125 48.484375 
Q 22.953125 48.484375 18.875 42.84375 
Q 14.796875 37.203125 14.796875 27.296875 
z
" id="DejaVuSans-100"/>
     <path d="M 41.109375 46.296875 
Q 39.59375 47.171875 37.8125 47.578125 
Q 36.03125 48 33.890625 48 
Q 26.265625 48 22.1875 43.046875 
Q 18.109375 38.09375 18.109375 28.8125 
L 18.109375 0 
L 9.078125 0 
L 9.078125 54.6875 
L 18.109375 54.6875 
L 18.109375 46.1875 
Q 20.953125 51.171875 25.484375 53.578125 
Q 30.03125 56 36.53125 56 
Q 37.453125 56 38.578125 55.875 
Q 39.703125 55.765625 41.0625 55.515625 
z
" id="DejaVuSans-114"/>
    </defs>
    <g transform="translate(102.58875 -6)scale(0.18 -0.18)">
     <use xlink:href="#DejaVuSans-79"/>
     <use x="78.710938" xlink:href="#DejaVuSans-110"/>
     <use x="142.089844" xlink:href="#DejaVuSans-101"/>
     <use x="203.613281" xlink:href="#DejaVuSans-115"/>
     <use x="255.712891" xlink:href="#DejaVuSans-104"/>
     <use x="319.091797" xlink:href="#DejaVuSans-111"/>
     <use x="380.273438" xlink:href="#DejaVuSans-116"/>
     <use x="419.482422" xlink:href="#DejaVuSans-32"/>
     <use x="451.269531" xlink:href="#DejaVuSans-69"/>
     <use x="514.453125" xlink:href="#DejaVuSans-110"/>
     <use x="577.832031" xlink:href="#DejaVuSans-99"/>
     <use x="632.8125" xlink:href="#DejaVuSans-111"/>
     <use x="693.994141" xlink:href="#DejaVuSans-100"/>
     <use x="757.470703" xlink:href="#DejaVuSans-101"/>
     <use x="818.994141" xlink:href="#DejaVuSans-114"/>
    </g>
   </g>
  </g>
  <g id="axes_2">
   <g id="patch_10">
    <path d="M 0 720 
L 360 720 
L 360 360 
L 0 360 
z
" style="fill:#ffffff;"/>
   </g>
   <g id="PathCollection_4">
    <g clip-path="url(#pf6fdb5dd44)">
     <use style="fill:#ff0000;stroke:#ff0000;" x="252.77013" xlink:href="#mf3101fa178" y="517.539455"/>
     <use style="fill:#ff0000;stroke:#ff0000;" x="254.177719" xlink:href="#mf3101fa178" y="552.286812"/>
     <use style="fill:#ff0000;stroke:#ff0000;" x="255.266876" xlink:href="#mf3101fa178" y="516.314701"/>
     <use style="fill:#ff0000;stroke:#ff0000;" x="276.066902" xlink:href="#mf3101fa178" y="529.049157"/>
     <use style="fill:#ff0000;stroke:#ff0000;" x="265.367752" xlink:href="#mf3101fa178" y="516.66069"/>
     <use style="fill:#ff0000;stroke:#ff0000;" x="217.635859" xlink:href="#mf3101fa178" y="597.968605"/>
     <use style="fill:#ff0000;stroke:#ff0000;" x="242.48493" xlink:href="#mf3101fa178" y="553.225435"/>
     <use style="fill:#ff0000;stroke:#ff0000;" x="206.715637" xlink:href="#mf3101fa178" y="573.986106"/>
     <use style="fill:#ff0000;stroke:#ff0000;" x="215.738191" xlink:href="#mf3101fa178" y="603.938576"/>
     <use style="fill:#ff0000;stroke:#ff0000;" x="249.585428" xlink:href="#mf3101fa178" y="520.349444"/>
     <use style="fill:#ff0000;stroke:#ff0000;" x="195.432608" xlink:href="#mf3101fa178" y="564.823202"/>
     <use style="fill:#ff0000;stroke:#ff0000;" x="232.756268" xlink:href="#mf3101fa178" y="549.37732"/>
     <use style="fill:#ff0000;stroke:#ff0000;" x="210.431791" xlink:href="#mf3101fa178" y="574.32972"/>
     <use style="fill:#ff0000;stroke:#ff0000;" x="238.388329" xlink:href="#mf3101fa178" y="519.651808"/>
     <use style="fill:#ff0000;stroke:#ff0000;" x="265.008842" xlink:href="#mf3101fa178" y="548.265581"/>
     <use style="fill:#ff0000;stroke:#ff0000;" x="193.832271" xlink:href="#mf3101fa178" y="574.377065"/>
     <use style="fill:#ff0000;stroke:#ff0000;" x="233.985935" xlink:href="#mf3101fa178" y="577.303943"/>
     <use style="fill:#ff0000;stroke:#ff0000;" x="242.982222" xlink:href="#mf3101fa178" y="549.736733"/>
     <use style="fill:#ff0000;stroke:#ff0000;" x="212.242344" xlink:href="#mf3101fa178" y="526.859084"/>
     <use style="fill:#ff0000;stroke:#ff0000;" x="263.925516" xlink:href="#mf3101fa178" y="519.763212"/>
     <use style="fill:#ff0000;stroke:#ff0000;" x="246.383881" xlink:href="#mf3101fa178" y="524.933988"/>
     <use style="fill:#ff0000;stroke:#ff0000;" x="257.617876" xlink:href="#mf3101fa178" y="528.51016"/>
     <use style="fill:#ff0000;stroke:#ff0000;" x="290.87257" xlink:href="#mf3101fa178" y="510.009061"/>
     <use style="fill:#ff0000;stroke:#ff0000;" x="224.057857" xlink:href="#mf3101fa178" y="586.552528"/>
     <use style="fill:#ff0000;stroke:#ff0000;" x="183.729341" xlink:href="#mf3101fa178" y="569.632791"/>
     <use style="fill:#ff0000;stroke:#ff0000;" x="205.544738" xlink:href="#mf3101fa178" y="575.996361"/>
     <use style="fill:#ff0000;stroke:#ff0000;" x="242.906445" xlink:href="#mf3101fa178" y="525.134631"/>
     <use style="fill:#ff0000;stroke:#ff0000;" x="186.705063" xlink:href="#mf3101fa178" y="560.550498"/>
     <use style="fill:#ff0000;stroke:#ff0000;" x="253.670357" xlink:href="#mf3101fa178" y="517.852472"/>
     <use style="fill:#ff0000;stroke:#ff0000;" x="239.158773" xlink:href="#mf3101fa178" y="565.052513"/>
     <use style="fill:#ff0000;stroke:#ff0000;" x="208.019102" xlink:href="#mf3101fa178" y="577.945132"/>
     <use style="fill:#ff0000;stroke:#ff0000;" x="237.905737" xlink:href="#mf3101fa178" y="535.609183"/>
     <use style="fill:#ff0000;stroke:#ff0000;" x="206.476101" xlink:href="#mf3101fa178" y="560.438311"/>
     <use style="fill:#ff0000;stroke:#ff0000;" x="209.820248" xlink:href="#mf3101fa178" y="552.148534"/>
     <use style="fill:#ff0000;stroke:#ff0000;" x="206.100271" xlink:href="#mf3101fa178" y="582.284666"/>
     <use style="fill:#ff0000;stroke:#ff0000;" x="227.99719" xlink:href="#mf3101fa178" y="528.927765"/>
     <use style="fill:#ff0000;stroke:#ff0000;" x="245.738863" xlink:href="#mf3101fa178" y="567.830709"/>
     <use style="fill:#ff0000;stroke:#ff0000;" x="212.806443" xlink:href="#mf3101fa178" y="538.911662"/>
    </g>
   </g>
   <g id="PathCollection_5">
    <g clip-path="url(#pf6fdb5dd44)">
     <use style="fill:#0000ff;stroke:#0000ff;" x="180.872661" xlink:href="#m12f793fc30" y="578.968603"/>
     <use style="fill:#0000ff;stroke:#0000ff;" x="188.832481" xlink:href="#m12f793fc30" y="587.668705"/>
     <use style="fill:#0000ff;stroke:#0000ff;" x="190.019048" xlink:href="#m12f793fc30" y="583.261763"/>
     <use style="fill:#0000ff;stroke:#0000ff;" x="180.261014" xlink:href="#m12f793fc30" y="575.104694"/>
     <use style="fill:#0000ff;stroke:#0000ff;" x="189.946913" xlink:href="#m12f793fc30" y="589.216673"/>
     <use style="fill:#0000ff;stroke:#0000ff;" x="172.549975" xlink:href="#m12f793fc30" y="574.330052"/>
     <use style="fill:#0000ff;stroke:#0000ff;" x="161.66827" xlink:href="#m12f793fc30" y="563.877889"/>
     <use style="fill:#0000ff;stroke:#0000ff;" x="186.312165" xlink:href="#m12f793fc30" y="577.384317"/>
    </g>
   </g>
   <g id="PathCollection_6">
    <g clip-path="url(#pf6fdb5dd44)">
     <use style="fill:#008000;stroke:#008000;" x="244.74313" xlink:href="#mb54b960dd7" y="517.179877"/>
     <use style="fill:#008000;stroke:#008000;" x="236.042381" xlink:href="#mb54b960dd7" y="515.793766"/>
     <use style="fill:#008000;stroke:#008000;" x="248.699684" xlink:href="#mb54b960dd7" y="514.043492"/>
     <use style="fill:#008000;stroke:#008000;" x="226.986889" xlink:href="#mb54b960dd7" y="516.374006"/>
     <use style="fill:#008000;stroke:#008000;" x="217.1673" xlink:href="#mb54b960dd7" y="512.714604"/>
     <use style="fill:#008000;stroke:#008000;" x="230.584854" xlink:href="#mb54b960dd7" y="508.958001"/>
     <use style="fill:#008000;stroke:#008000;" x="209.011848" xlink:href="#mb54b960dd7" y="513.470764"/>
     <use style="fill:#008000;stroke:#008000;" x="181.128948" xlink:href="#mb54b960dd7" y="513.251796"/>
     <use style="fill:#008000;stroke:#008000;" x="235.858091" xlink:href="#mb54b960dd7" y="508.109902"/>
     <use style="fill:#008000;stroke:#008000;" x="236.454214" xlink:href="#mb54b960dd7" y="493.167767"/>
     <use style="fill:#008000;stroke:#008000;" x="234.230181" xlink:href="#mb54b960dd7" y="515.855055"/>
     <use style="fill:#008000;stroke:#008000;" x="253.760502" xlink:href="#mb54b960dd7" y="500.808952"/>
     <use style="fill:#008000;stroke:#008000;" x="282.177406" xlink:href="#mb54b960dd7" y="497.041031"/>
     <use style="fill:#008000;stroke:#008000;" x="237.130457" xlink:href="#mb54b960dd7" y="515.409966"/>
    </g>
   </g>
   <g id="patch_11">
    <path clip-path="url(#pf6fdb5dd44)" d="M 124.385696 603.721494 
C 142.699459 603.721494 160.265603 597.498069 173.215388 586.421857 
C 186.165174 575.345644 193.441309 560.320967 193.441309 544.656837 
C 193.441309 528.992707 186.165174 513.96803 173.215388 502.891817 
C 160.265603 491.815605 142.699459 485.59218 124.385696 485.59218 
C 106.071934 485.59218 88.50579 491.815605 75.556004 502.891817 
C 62.606219 513.96803 55.330084 528.992707 55.330084 544.656837 
C 55.330084 560.320967 62.606219 575.345644 75.556004 586.421857 
C 88.50579 597.498069 106.071934 603.721494 124.385696 603.721494 
z
" style="fill:#ff0000;opacity:0.2;stroke:#ff0000;stroke-linejoin:miter;"/>
   </g>
   <g id="patch_12">
    <path clip-path="url(#pf6fdb5dd44)" d="M 138.177272 587.457188 
C 149.131342 587.457188 159.638236 583.787079 167.383933 577.255159 
C 175.12963 570.723239 179.481729 561.862811 179.481729 552.625281 
C 179.481729 543.387751 175.12963 534.527323 167.383933 527.995403 
C 159.638236 521.463483 149.131342 517.793374 138.177272 517.793374 
C 127.223202 517.793374 116.716308 521.463483 108.97061 527.995403 
C 101.224913 534.527323 96.872815 543.387751 96.872815 552.625281 
C 96.872815 561.862811 101.224913 570.723239 108.97061 577.255159 
C 116.716308 583.787079 127.223202 587.457188 138.177272 587.457188 
z
" style="fill:#0000ff;opacity:0.2;stroke:#0000ff;stroke-linejoin:miter;"/>
   </g>
   <g id="patch_13">
    <path clip-path="url(#pf6fdb5dd44)" d="M 123.004864 572.849781 
C 135.506155 572.849781 147.497108 568.961241 156.336855 562.040568 
C 165.176603 555.119895 170.143418 545.73213 170.143418 535.944819 
C 170.143418 526.157509 165.176603 516.769744 156.336855 509.849071 
C 147.497108 502.928397 135.506155 499.039858 123.004864 499.039858 
C 110.503573 499.039858 98.51262 502.928397 89.672872 509.849071 
C 80.833125 516.769744 75.866309 526.157509 75.866309 535.944819 
C 75.866309 545.73213 80.833125 555.119895 89.672872 562.040568 
C 98.51262 568.961241 110.503573 572.849781 123.004864 572.849781 
z
" style="fill:#008000;opacity:0.2;stroke:#008000;stroke-linejoin:miter;"/>
   </g>
   <g id="matplotlib.axis_3"/>
   <g id="matplotlib.axis_4"/>
   <g id="patch_14">
    <path d="M 0 720 
L 0 360 
" style="fill:none;stroke:#000000;stroke-linecap:square;stroke-linejoin:miter;stroke-width:0.8;"/>
   </g>
   <g id="patch_15">
    <path d="M 360 720 
L 360 360 
" style="fill:none;stroke:#000000;stroke-linecap:square;stroke-linejoin:miter;stroke-width:0.8;"/>
   </g>
   <g id="patch_16">
    <path d="M 0 720 
L 360 720 
" style="fill:none;stroke:#000000;stroke-linecap:square;stroke-linejoin:miter;stroke-width:0.8;"/>
   </g>
   <g id="patch_17">
    <path d="M 0 360 
L 360 360 
" style="fill:none;stroke:#000000;stroke-linecap:square;stroke-linejoin:miter;stroke-width:0.8;"/>
   </g>
  </g>
  <g id="axes_3">
   <g id="patch_18">
    <path d="M 0 1080 
L 360 1080 
L 360 720 
L 0 720 
z
" style="fill:#ffffff;"/>
   </g>
   <g id="PathCollection_7">
    <g clip-path="url(#p73a97e63d1)">
     <use style="fill:#ff0000;stroke:#ff0000;" x="236.402235" xlink:href="#mf3101fa178" y="867.155485"/>
     <use style="fill:#ff0000;stroke:#ff0000;" x="221.891659" xlink:href="#mf3101fa178" y="892.529898"/>
     <use style="fill:#ff0000;stroke:#ff0000;" x="234.947748" xlink:href="#mf3101fa178" y="855.116558"/>
     <use style="fill:#ff0000;stroke:#ff0000;" x="253.747925" xlink:href="#mf3101fa178" y="864.814373"/>
     <use style="fill:#ff0000;stroke:#ff0000;" x="246.317648" xlink:href="#mf3101fa178" y="861.853924"/>
     <use style="fill:#ff0000;stroke:#ff0000;" x="265.568344" xlink:href="#mf3101fa178" y="866.291691"/>
     <use style="fill:#ff0000;stroke:#ff0000;" x="249.461386" xlink:href="#mf3101fa178" y="884.175522"/>
     <use style="fill:#ff0000;stroke:#ff0000;" x="243.483284" xlink:href="#mf3101fa178" y="873.479868"/>
     <use style="fill:#ff0000;stroke:#ff0000;" x="259.316053" xlink:href="#mf3101fa178" y="875.020617"/>
     <use style="fill:#ff0000;stroke:#ff0000;" x="216.856224" xlink:href="#mf3101fa178" y="866.630213"/>
     <use style="fill:#ff0000;stroke:#ff0000;" x="225.102994" xlink:href="#mf3101fa178" y="871.417445"/>
     <use style="fill:#ff0000;stroke:#ff0000;" x="239.110846" xlink:href="#mf3101fa178" y="912.784919"/>
     <use style="fill:#ff0000;stroke:#ff0000;" x="239.054317" xlink:href="#mf3101fa178" y="886.993747"/>
     <use style="fill:#ff0000;stroke:#ff0000;" x="236.564135" xlink:href="#mf3101fa178" y="865.864918"/>
     <use style="fill:#ff0000;stroke:#ff0000;" x="228.240589" xlink:href="#mf3101fa178" y="878.594533"/>
     <use style="fill:#ff0000;stroke:#ff0000;" x="237.391594" xlink:href="#mf3101fa178" y="880.933777"/>
     <use style="fill:#ff0000;stroke:#ff0000;" x="229.077015" xlink:href="#mf3101fa178" y="879.956514"/>
     <use style="fill:#ff0000;stroke:#ff0000;" x="242.355486" xlink:href="#mf3101fa178" y="872.248412"/>
     <use style="fill:#ff0000;stroke:#ff0000;" x="230.81365" xlink:href="#mf3101fa178" y="884.810334"/>
     <use style="fill:#ff0000;stroke:#ff0000;" x="240.505457" xlink:href="#mf3101fa178" y="878.902674"/>
     <use style="fill:#ff0000;stroke:#ff0000;" x="250.31864" xlink:href="#mf3101fa178" y="866.098469"/>
     <use style="fill:#ff0000;stroke:#ff0000;" x="227.467346" xlink:href="#mf3101fa178" y="859.717798"/>
     <use style="fill:#ff0000;stroke:#ff0000;" x="251.492277" xlink:href="#mf3101fa178" y="860.349349"/>
     <use style="fill:#ff0000;stroke:#ff0000;" x="247.822878" xlink:href="#mf3101fa178" y="895.109098"/>
     <use style="fill:#ff0000;stroke:#ff0000;" x="237.613312" xlink:href="#mf3101fa178" y="875.994678"/>
     <use style="fill:#ff0000;stroke:#ff0000;" x="240.915642" xlink:href="#mf3101fa178" y="875.935043"/>
     <use style="fill:#ff0000;stroke:#ff0000;" x="239.939289" xlink:href="#mf3101fa178" y="885.924768"/>
     <use style="fill:#ff0000;stroke:#ff0000;" x="217.780958" xlink:href="#mf3101fa178" y="882.574655"/>
     <use style="fill:#ff0000;stroke:#ff0000;" x="230.992458" xlink:href="#mf3101fa178" y="872.72905"/>
     <use style="fill:#ff0000;stroke:#ff0000;" x="231.027197" xlink:href="#mf3101fa178" y="897.804688"/>
     <use style="fill:#ff0000;stroke:#ff0000;" x="227.831697" xlink:href="#mf3101fa178" y="882.73447"/>
     <use style="fill:#ff0000;stroke:#ff0000;" x="249.989033" xlink:href="#mf3101fa178" y="896.575665"/>
     <use style="fill:#ff0000;stroke:#ff0000;" x="236.742147" xlink:href="#mf3101fa178" y="859.20577"/>
     <use style="fill:#ff0000;stroke:#ff0000;" x="245.434273" xlink:href="#mf3101fa178" y="875.991646"/>
     <use style="fill:#ff0000;stroke:#ff0000;" x="218.198247" xlink:href="#mf3101fa178" y="867.064616"/>
     <use style="fill:#ff0000;stroke:#ff0000;" x="227.136603" xlink:href="#mf3101fa178" y="922.766985"/>
     <use style="fill:#ff0000;stroke:#ff0000;" x="230.17907" xlink:href="#mf3101fa178" y="860.490804"/>
     <use style="fill:#ff0000;stroke:#ff0000;" x="226.73701" xlink:href="#mf3101fa178" y="874.37913"/>
    </g>
   </g>
   <g id="PathCollection_8">
    <g clip-path="url(#p73a97e63d1)">
     <use style="fill:#0000ff;stroke:#0000ff;" x="173.927438" xlink:href="#m12f793fc30" y="903.881538"/>
     <use style="fill:#0000ff;stroke:#0000ff;" x="166.793183" xlink:href="#m12f793fc30" y="901.841596"/>
     <use style="fill:#0000ff;stroke:#0000ff;" x="172.425463" xlink:href="#m12f793fc30" y="899.913125"/>
     <use style="fill:#0000ff;stroke:#0000ff;" x="153.114266" xlink:href="#m12f793fc30" y="911.176796"/>
     <use style="fill:#0000ff;stroke:#0000ff;" x="160.592242" xlink:href="#m12f793fc30" y="866.678252"/>
     <use style="fill:#0000ff;stroke:#0000ff;" x="159.133671" xlink:href="#m12f793fc30" y="899.152996"/>
     <use style="fill:#0000ff;stroke:#0000ff;" x="160.265359" xlink:href="#m12f793fc30" y="873.883146"/>
     <use style="fill:#0000ff;stroke:#0000ff;" x="149.203463" xlink:href="#m12f793fc30" y="881.498962"/>
     <use style="fill:#0000ff;stroke:#0000ff;" x="166.164462" xlink:href="#m12f793fc30" y="890.36239"/>
     <use style="fill:#0000ff;stroke:#0000ff;" x="159.932905" xlink:href="#m12f793fc30" y="903.103126"/>
     <use style="fill:#0000ff;stroke:#0000ff;" x="161.109665" xlink:href="#m12f793fc30" y="883.189376"/>
     <use style="fill:#0000ff;stroke:#0000ff;" x="175.515681" xlink:href="#m12f793fc30" y="891.673482"/>
     <use style="fill:#0000ff;stroke:#0000ff;" x="178.642118" xlink:href="#m12f793fc30" y="893.193078"/>
     <use style="fill:#0000ff;stroke:#0000ff;" x="151.744174" xlink:href="#m12f793fc30" y="892.287378"/>
     <use style="fill:#0000ff;stroke:#0000ff;" x="164.584004" xlink:href="#m12f793fc30" y="890.229893"/>
     <use style="fill:#0000ff;stroke:#0000ff;" x="171.509824" xlink:href="#m12f793fc30" y="882.918188"/>
     <use style="fill:#0000ff;stroke:#0000ff;" x="151.162611" xlink:href="#m12f793fc30" y="891.63167"/>
     <use style="fill:#0000ff;stroke:#0000ff;" x="149.955136" xlink:href="#m12f793fc30" y="892.432477"/>
     <use style="fill:#0000ff;stroke:#0000ff;" x="166.880007" xlink:href="#m12f793fc30" y="890.26664"/>
     <use style="fill:#0000ff;stroke:#0000ff;" x="158.50082" xlink:href="#m12f793fc30" y="880.557921"/>
     <use style="fill:#0000ff;stroke:#0000ff;" x="172.440946" xlink:href="#m12f793fc30" y="870.532079"/>
    </g>
   </g>
   <g id="PathCollection_9">
    <g clip-path="url(#p73a97e63d1)">
     <use style="fill:#008000;stroke:#008000;" x="142.883062" xlink:href="#mb54b960dd7" y="878.193266"/>
    </g>
   </g>
   <g id="patch_19">
    <path clip-path="url(#p73a97e63d1)" d="M 142.558705 910.771787 
C 165.684315 910.771787 187.865872 907.612979 204.218147 901.991054 
C 220.570423 896.369129 229.758325 888.743092 229.758325 880.79249 
C 229.758325 872.841887 220.570423 865.21585 204.218147 859.593925 
C 187.865872 853.972 165.684315 850.813192 142.558705 850.813192 
C 119.433096 850.813192 97.251538 853.972 80.899263 859.593925 
C 64.546988 865.21585 55.359086 872.841887 55.359086 880.79249 
C 55.359086 888.743092 64.546988 896.369129 80.899263 901.991054 
C 97.251538 907.612979 119.433096 910.771787 142.558705 910.771787 
z
" style="fill:#ff0000;opacity:0.2;stroke:#ff0000;stroke-linejoin:miter;"/>
   </g>
   <g id="patch_20">
    <path clip-path="url(#p73a97e63d1)" d="M 151.098939 911.840389 
C 162.664848 911.840389 173.758604 909.140738 181.936936 904.336003 
C 190.115269 899.531268 194.710453 893.013734 194.710453 886.218813 
C 194.710453 879.423891 190.115269 872.906358 181.936936 868.101623 
C 173.758604 863.296888 162.664848 860.597237 151.098939 860.597237 
C 139.53303 860.597237 128.439274 863.296888 120.260942 868.101623 
C 112.082609 872.906358 107.487425 879.423891 107.487425 886.218813 
C 107.487425 893.013734 112.082609 899.531268 120.260942 904.336003 
C 128.439274 909.140738 139.53303 911.840389 151.098939 911.840389 
z
" style="fill:#0000ff;opacity:0.2;stroke:#0000ff;stroke-linejoin:miter;"/>
   </g>
   <g id="patch_21">
    <path clip-path="url(#p73a97e63d1)" d="M 142.38945 906.575387 
C 157.288573 906.575387 171.579472 903.788494 182.114743 898.828488 
C 192.650014 893.868481 198.569498 887.140325 198.569498 880.125817 
C 198.569498 873.111309 192.650014 866.383152 182.114743 861.423146 
C 171.579472 856.46314 157.288573 853.676246 142.38945 853.676246 
C 127.490327 853.676246 113.199428 856.46314 102.664157 861.423146 
C 92.128886 866.383152 86.209402 873.111309 86.209402 880.125817 
C 86.209402 887.140325 92.128886 893.868481 102.664157 898.828488 
C 113.199428 903.788494 127.490327 906.575387 142.38945 906.575387 
z
" style="fill:#008000;opacity:0.2;stroke:#008000;stroke-linejoin:miter;"/>
   </g>
   <g id="matplotlib.axis_5"/>
   <g id="matplotlib.axis_6"/>
   <g id="patch_22">
    <path d="M 0 1080 
L 0 720 
" style="fill:none;stroke:#000000;stroke-linecap:square;stroke-linejoin:miter;stroke-width:0.8;"/>
   </g>
   <g id="patch_23">
    <path d="M 360 1080 
L 360 720 
" style="fill:none;stroke:#000000;stroke-linecap:square;stroke-linejoin:miter;stroke-width:0.8;"/>
   </g>
   <g id="patch_24">
    <path d="M 0 1080 
L 360 1080 
" style="fill:none;stroke:#000000;stroke-linecap:square;stroke-linejoin:miter;stroke-width:0.8;"/>
   </g>
   <g id="patch_25">
    <path d="M 0 720 
L 360 720 
" style="fill:none;stroke:#000000;stroke-linecap:square;stroke-linejoin:miter;stroke-width:0.8;"/>
   </g>
  </g>
  <g id="axes_4">
   <g id="patch_26">
    <path d="M 0 1440 
L 360 1440 
L 360 1080 
L 0 1080 
z
" style="fill:#ffffff;"/>
   </g>
   <g id="PathCollection_10">
    <g clip-path="url(#pec3c6ef68e)">
     <use style="fill:#ff0000;stroke:#ff0000;" x="229.959463" xlink:href="#mf3101fa178" y="1266.783794"/>
     <use style="fill:#ff0000;stroke:#ff0000;" x="236.466333" xlink:href="#mf3101fa178" y="1280.2493"/>
     <use style="fill:#ff0000;stroke:#ff0000;" x="234.350676" xlink:href="#mf3101fa178" y="1251.855412"/>
     <use style="fill:#ff0000;stroke:#ff0000;" x="224.738926" xlink:href="#mf3101fa178" y="1259.728229"/>
     <use style="fill:#ff0000;stroke:#ff0000;" x="231.298559" xlink:href="#mf3101fa178" y="1282.623184"/>
     <use style="fill:#ff0000;stroke:#ff0000;" x="232.33568" xlink:href="#mf3101fa178" y="1275.685784"/>
     <use style="fill:#ff0000;stroke:#ff0000;" x="207.350218" xlink:href="#mf3101fa178" y="1264.867922"/>
     <use style="fill:#ff0000;stroke:#ff0000;" x="230.548193" xlink:href="#mf3101fa178" y="1242.655638"/>
     <use style="fill:#ff0000;stroke:#ff0000;" x="234.683887" xlink:href="#mf3101fa178" y="1260.342892"/>
     <use style="fill:#ff0000;stroke:#ff0000;" x="231.109858" xlink:href="#mf3101fa178" y="1267.977711"/>
     <use style="fill:#ff0000;stroke:#ff0000;" x="229.356737" xlink:href="#mf3101fa178" y="1258.055383"/>
     <use style="fill:#ff0000;stroke:#ff0000;" x="237.65296" xlink:href="#mf3101fa178" y="1269.735025"/>
     <use style="fill:#ff0000;stroke:#ff0000;" x="232.27874" xlink:href="#mf3101fa178" y="1262.588974"/>
     <use style="fill:#ff0000;stroke:#ff0000;" x="231.083233" xlink:href="#mf3101fa178" y="1281.186048"/>
     <use style="fill:#ff0000;stroke:#ff0000;" x="210.387045" xlink:href="#mf3101fa178" y="1266.522717"/>
     <use style="fill:#ff0000;stroke:#ff0000;" x="222.260777" xlink:href="#mf3101fa178" y="1282.500212"/>
     <use style="fill:#ff0000;stroke:#ff0000;" x="230.575104" xlink:href="#mf3101fa178" y="1275.406935"/>
     <use style="fill:#ff0000;stroke:#ff0000;" x="245.797691" xlink:href="#mf3101fa178" y="1266.533659"/>
     <use style="fill:#ff0000;stroke:#ff0000;" x="219.164758" xlink:href="#mf3101fa178" y="1272.467611"/>
     <use style="fill:#ff0000;stroke:#ff0000;" x="213.712106" xlink:href="#mf3101fa178" y="1186.042328"/>
     <use style="fill:#ff0000;stroke:#ff0000;" x="242.317366" xlink:href="#mf3101fa178" y="1257.920901"/>
     <use style="fill:#ff0000;stroke:#ff0000;" x="214.545141" xlink:href="#mf3101fa178" y="1246.657677"/>
     <use style="fill:#ff0000;stroke:#ff0000;" x="249.866386" xlink:href="#mf3101fa178" y="1239.7587"/>
     <use style="fill:#ff0000;stroke:#ff0000;" x="252.422894" xlink:href="#mf3101fa178" y="1255.772853"/>
     <use style="fill:#ff0000;stroke:#ff0000;" x="230.275234" xlink:href="#mf3101fa178" y="1270.338511"/>
    </g>
   </g>
   <g id="PathCollection_11">
    <g clip-path="url(#pec3c6ef68e)">
     <use style="fill:#0000ff;stroke:#0000ff;" x="189.297009" xlink:href="#m12f793fc30" y="1321.30113"/>
     <use style="fill:#0000ff;stroke:#0000ff;" x="221.070065" xlink:href="#m12f793fc30" y="1322.13945"/>
     <use style="fill:#0000ff;stroke:#0000ff;" x="201.019212" xlink:href="#m12f793fc30" y="1322.347464"/>
     <use style="fill:#0000ff;stroke:#0000ff;" x="193.273999" xlink:href="#m12f793fc30" y="1335.149151"/>
     <use style="fill:#0000ff;stroke:#0000ff;" x="194.343684" xlink:href="#m12f793fc30" y="1330.396923"/>
     <use style="fill:#0000ff;stroke:#0000ff;" x="210.865185" xlink:href="#m12f793fc30" y="1314.967014"/>
     <use style="fill:#0000ff;stroke:#0000ff;" x="210.935377" xlink:href="#m12f793fc30" y="1319.01436"/>
     <use style="fill:#0000ff;stroke:#0000ff;" x="185.696747" xlink:href="#m12f793fc30" y="1329.915127"/>
     <use style="fill:#0000ff;stroke:#0000ff;" x="201.256049" xlink:href="#m12f793fc30" y="1341.101475"/>
     <use style="fill:#0000ff;stroke:#0000ff;" x="208.900354" xlink:href="#m12f793fc30" y="1319.129248"/>
     <use style="fill:#0000ff;stroke:#0000ff;" x="200.90872" xlink:href="#m12f793fc30" y="1347.200827"/>
     <use style="fill:#0000ff;stroke:#0000ff;" x="228.354492" xlink:href="#m12f793fc30" y="1316.698122"/>
     <use style="fill:#0000ff;stroke:#0000ff;" x="216.435777" xlink:href="#m12f793fc30" y="1314.053724"/>
     <use style="fill:#0000ff;stroke:#0000ff;" x="203.027608" xlink:href="#m12f793fc30" y="1329.258739"/>
     <use style="fill:#0000ff;stroke:#0000ff;" x="181.891591" xlink:href="#m12f793fc30" y="1341.010494"/>
     <use style="fill:#0000ff;stroke:#0000ff;" x="229.727354" xlink:href="#m12f793fc30" y="1324.322805"/>
     <use style="fill:#0000ff;stroke:#0000ff;" x="195.862673" xlink:href="#m12f793fc30" y="1341.725979"/>
     <use style="fill:#0000ff;stroke:#0000ff;" x="205.197069" xlink:href="#m12f793fc30" y="1339.754774"/>
    </g>
   </g>
   <g id="PathCollection_12">
    <g clip-path="url(#pec3c6ef68e)">
     <use style="fill:#008000;stroke:#008000;" x="187.303403" xlink:href="#mb54b960dd7" y="1170.281399"/>
     <use style="fill:#008000;stroke:#008000;" x="192.599945" xlink:href="#mb54b960dd7" y="1202.97468"/>
     <use style="fill:#008000;stroke:#008000;" x="201.60969" xlink:href="#mb54b960dd7" y="1195.335222"/>
     <use style="fill:#008000;stroke:#008000;" x="189.523204" xlink:href="#mb54b960dd7" y="1170.896147"/>
     <use style="fill:#008000;stroke:#008000;" x="197.194774" xlink:href="#mb54b960dd7" y="1208.487196"/>
     <use style="fill:#008000;stroke:#008000;" x="192.165991" xlink:href="#mb54b960dd7" y="1196.078665"/>
     <use style="fill:#008000;stroke:#008000;" x="188.283361" xlink:href="#mb54b960dd7" y="1185.55925"/>
     <use style="fill:#008000;stroke:#008000;" x="201.938996" xlink:href="#mb54b960dd7" y="1196.591"/>
     <use style="fill:#008000;stroke:#008000;" x="189.257353" xlink:href="#mb54b960dd7" y="1200.290216"/>
     <use style="fill:#008000;stroke:#008000;" x="161.785818" xlink:href="#mb54b960dd7" y="1182.69932"/>
     <use style="fill:#008000;stroke:#008000;" x="183.956818" xlink:href="#mb54b960dd7" y="1175.307924"/>
     <use style="fill:#008000;stroke:#008000;" x="172.566886" xlink:href="#mb54b960dd7" y="1188.653732"/>
     <use style="fill:#008000;stroke:#008000;" x="160.139022" xlink:href="#mb54b960dd7" y="1207.270987"/>
     <use style="fill:#008000;stroke:#008000;" x="180.292522" xlink:href="#mb54b960dd7" y="1185.829479"/>
     <use style="fill:#008000;stroke:#008000;" x="186.959288" xlink:href="#mb54b960dd7" y="1199.028305"/>
     <use style="fill:#008000;stroke:#008000;" x="187.697684" xlink:href="#mb54b960dd7" y="1214.574872"/>
     <use style="fill:#008000;stroke:#008000;" x="194.389858" xlink:href="#mb54b960dd7" y="1174.194042"/>
    </g>
   </g>
   <g id="patch_27">
    <path clip-path="url(#pec3c6ef68e)" d="M 192.438017 1262.432278 
C 192.438016 1234.156538 187.203516 1207.035093 177.887355 1187.041126 
C 168.571195 1167.04716 155.933997 1155.81309 142.758958 1155.81309 
C 129.583919 1155.813091 116.946722 1167.047162 107.630563 1187.04113 
C 98.314405 1207.035097 93.079907 1234.156543 93.079908 1262.432283 
C 93.07991 1290.708022 98.314409 1317.829467 107.63057 1337.823434 
C 116.94673 1357.817401 129.583928 1369.051471 142.758967 1369.051471 
C 155.934006 1369.05147 168.571203 1357.817399 177.887362 1337.823431 
C 187.203521 1317.829464 192.438018 1290.708018 192.438017 1262.432278 
z
" style="fill:#ff0000;opacity:0.2;stroke:#ff0000;stroke-linejoin:miter;"/>
   </g>
   <g id="patch_28">
    <path clip-path="url(#pec3c6ef68e)" d="M 180.525779 1288.500285 
C 180.525778 1275.193157 177.039519 1262.429264 170.834808 1253.019704 
C 164.630098 1243.610145 156.213524 1238.323167 147.438739 1238.323168 
C 138.663953 1238.323168 130.24738 1243.610146 124.04267 1253.019707 
C 117.837961 1262.429267 114.351702 1275.19316 114.351703 1288.500288 
C 114.351703 1301.807415 117.837963 1314.571308 124.042673 1323.980868 
C 130.247384 1333.390427 138.663958 1338.677405 147.438743 1338.677404 
C 156.213528 1338.677404 164.630102 1333.390426 170.834811 1323.980866 
C 177.039521 1314.571305 180.525779 1301.807412 180.525779 1288.500285 
z
" style="fill:#0000ff;opacity:0.2;stroke:#0000ff;stroke-linejoin:miter;"/>
   </g>
   <g id="patch_29">
    <path clip-path="url(#pec3c6ef68e)" d="M 187.422615 1234.16071 
C 187.422614 1217.675095 183.500942 1201.86247 176.521301 1190.20538 
C 169.54166 1178.548291 160.073907 1171.998487 150.203204 1171.998487 
C 140.332502 1171.998488 130.864749 1178.548292 123.885109 1190.205382 
C 116.905469 1201.862473 112.983798 1217.675098 112.983799 1234.160713 
C 112.9838 1250.646327 116.905472 1266.458953 123.885113 1278.116042 
C 130.864754 1289.773132 140.332507 1296.322936 150.20321 1296.322935 
C 160.073912 1296.322935 169.541665 1289.77313 176.521305 1278.11604 
C 183.500945 1266.45895 187.422616 1250.646324 187.422615 1234.16071 
z
" style="fill:#008000;opacity:0.2;stroke:#008000;stroke-linejoin:miter;"/>
   </g>
   <g id="matplotlib.axis_7"/>
   <g id="matplotlib.axis_8"/>
   <g id="patch_30">
    <path d="M 0 1440 
L 0 1080 
" style="fill:none;stroke:#000000;stroke-linecap:square;stroke-linejoin:miter;stroke-width:0.8;"/>
   </g>
   <g id="patch_31">
    <path d="M 360 1440 
L 360 1080 
" style="fill:none;stroke:#000000;stroke-linecap:square;stroke-linejoin:miter;stroke-width:0.8;"/>
   </g>
   <g id="patch_32">
    <path d="M 0 1440 
L 360 1440 
" style="fill:none;stroke:#000000;stroke-linecap:square;stroke-linejoin:miter;stroke-width:0.8;"/>
   </g>
   <g id="patch_33">
    <path d="M 0 1080 
L 360 1080 
" style="fill:none;stroke:#000000;stroke-linecap:square;stroke-linejoin:miter;stroke-width:0.8;"/>
   </g>
  </g>
  <g id="axes_5">
   <g id="patch_34">
    <path d="M 0 1800 
L 360 1800 
L 360 1440 
L 0 1440 
z
" style="fill:#ffffff;"/>
   </g>
   <g id="PathCollection_13">
    <g clip-path="url(#pf9798f436f)">
     <use style="fill:#ff0000;stroke:#ff0000;" x="113.815361" xlink:href="#mf3101fa178" y="1646.081932"/>
     <use style="fill:#ff0000;stroke:#ff0000;" x="189.700443" xlink:href="#mf3101fa178" y="1582.49261"/>
     <use style="fill:#ff0000;stroke:#ff0000;" x="190.144437" xlink:href="#mf3101fa178" y="1570.973728"/>
     <use style="fill:#ff0000;stroke:#ff0000;" x="196.393036" xlink:href="#mf3101fa178" y="1572.357325"/>
     <use style="fill:#ff0000;stroke:#ff0000;" x="183.940826" xlink:href="#mf3101fa178" y="1597.707596"/>
     <use style="fill:#ff0000;stroke:#ff0000;" x="110.873016" xlink:href="#mf3101fa178" y="1649.262508"/>
     <use style="fill:#ff0000;stroke:#ff0000;" x="187.030758" xlink:href="#mf3101fa178" y="1572.691072"/>
     <use style="fill:#ff0000;stroke:#ff0000;" x="180.053344" xlink:href="#mf3101fa178" y="1577.41246"/>
     <use style="fill:#ff0000;stroke:#ff0000;" x="184.851541" xlink:href="#mf3101fa178" y="1575.990503"/>
     <use style="fill:#ff0000;stroke:#ff0000;" x="106.426964" xlink:href="#mf3101fa178" y="1654.607414"/>
     <use style="fill:#ff0000;stroke:#ff0000;" x="100.806101" xlink:href="#mf3101fa178" y="1654.131526"/>
     <use style="fill:#ff0000;stroke:#ff0000;" x="185.597345" xlink:href="#mf3101fa178" y="1573.951498"/>
     <use style="fill:#ff0000;stroke:#ff0000;" x="118.207489" xlink:href="#mf3101fa178" y="1650.961106"/>
     <use style="fill:#ff0000;stroke:#ff0000;" x="175.934754" xlink:href="#mf3101fa178" y="1570.823193"/>
     <use style="fill:#ff0000;stroke:#ff0000;" x="177.415846" xlink:href="#mf3101fa178" y="1576.943976"/>
     <use style="fill:#ff0000;stroke:#ff0000;" x="176.625722" xlink:href="#mf3101fa178" y="1581.140259"/>
     <use style="fill:#ff0000;stroke:#ff0000;" x="92.664093" xlink:href="#mf3101fa178" y="1665.547013"/>
     <use style="fill:#ff0000;stroke:#ff0000;" x="193.49356" xlink:href="#mf3101fa178" y="1582.207209"/>
    </g>
   </g>
   <g id="PathCollection_14">
    <g clip-path="url(#pf9798f436f)">
     <use style="fill:#0000ff;stroke:#0000ff;" x="195.134809" xlink:href="#m12f793fc30" y="1657.33461"/>
     <use style="fill:#0000ff;stroke:#0000ff;" x="215.641657" xlink:href="#m12f793fc30" y="1662.309025"/>
     <use style="fill:#0000ff;stroke:#0000ff;" x="177.28834" xlink:href="#m12f793fc30" y="1649.629712"/>
     <use style="fill:#0000ff;stroke:#0000ff;" x="179.454523" xlink:href="#m12f793fc30" y="1654.904815"/>
     <use style="fill:#0000ff;stroke:#0000ff;" x="219.593433" xlink:href="#m12f793fc30" y="1635.557788"/>
     <use style="fill:#0000ff;stroke:#0000ff;" x="219.094809" xlink:href="#m12f793fc30" y="1644.927629"/>
     <use style="fill:#0000ff;stroke:#0000ff;" x="178.568081" xlink:href="#m12f793fc30" y="1644.452571"/>
     <use style="fill:#0000ff;stroke:#0000ff;" x="212.881187" xlink:href="#m12f793fc30" y="1648.209758"/>
     <use style="fill:#0000ff;stroke:#0000ff;" x="204.549691" xlink:href="#m12f793fc30" y="1641.030374"/>
     <use style="fill:#0000ff;stroke:#0000ff;" x="182.059938" xlink:href="#m12f793fc30" y="1639.875446"/>
     <use style="fill:#0000ff;stroke:#0000ff;" x="206.115558" xlink:href="#m12f793fc30" y="1648.623259"/>
     <use style="fill:#0000ff;stroke:#0000ff;" x="217.784912" xlink:href="#m12f793fc30" y="1643.242448"/>
     <use style="fill:#0000ff;stroke:#0000ff;" x="196.638491" xlink:href="#m12f793fc30" y="1651.019282"/>
     <use style="fill:#0000ff;stroke:#0000ff;" x="188.859949" xlink:href="#m12f793fc30" y="1660.273885"/>
     <use style="fill:#0000ff;stroke:#0000ff;" x="193.396482" xlink:href="#m12f793fc30" y="1637.646523"/>
     <use style="fill:#0000ff;stroke:#0000ff;" x="195.471311" xlink:href="#m12f793fc30" y="1638.544493"/>
     <use style="fill:#0000ff;stroke:#0000ff;" x="210.059381" xlink:href="#m12f793fc30" y="1627.658923"/>
     <use style="fill:#0000ff;stroke:#0000ff;" x="191.647698" xlink:href="#m12f793fc30" y="1627.192762"/>
     <use style="fill:#0000ff;stroke:#0000ff;" x="229.043633" xlink:href="#m12f793fc30" y="1639.135853"/>
     <use style="fill:#0000ff;stroke:#0000ff;" x="200.046184" xlink:href="#m12f793fc30" y="1645.738243"/>
     <use style="fill:#0000ff;stroke:#0000ff;" x="207.558706" xlink:href="#m12f793fc30" y="1641.229448"/>
    </g>
   </g>
   <g id="PathCollection_15">
    <g clip-path="url(#pf9798f436f)">
     <use style="fill:#008000;stroke:#008000;" x="151.86842" xlink:href="#mb54b960dd7" y="1628.958313"/>
     <use style="fill:#008000;stroke:#008000;" x="147.783588" xlink:href="#mb54b960dd7" y="1647.394518"/>
     <use style="fill:#008000;stroke:#008000;" x="167.658312" xlink:href="#mb54b960dd7" y="1581.922634"/>
     <use style="fill:#008000;stroke:#008000;" x="152.406381" xlink:href="#mb54b960dd7" y="1645.576406"/>
     <use style="fill:#008000;stroke:#008000;" x="125.646114" xlink:href="#mb54b960dd7" y="1650.74271"/>
     <use style="fill:#008000;stroke:#008000;" x="120.895014" xlink:href="#mb54b960dd7" y="1641.946851"/>
     <use style="fill:#008000;stroke:#008000;" x="181.664592" xlink:href="#mb54b960dd7" y="1628.592997"/>
     <use style="fill:#008000;stroke:#008000;" x="138.781082" xlink:href="#mb54b960dd7" y="1634.190506"/>
     <use style="fill:#008000;stroke:#008000;" x="133.978552" xlink:href="#mb54b960dd7" y="1646.702107"/>
     <use style="fill:#008000;stroke:#008000;" x="168.158995" xlink:href="#mb54b960dd7" y="1571.83065"/>
     <use style="fill:#008000;stroke:#008000;" x="130.836863" xlink:href="#mb54b960dd7" y="1636.583513"/>
     <use style="fill:#008000;stroke:#008000;" x="167.293352" xlink:href="#mb54b960dd7" y="1593.082635"/>
     <use style="fill:#008000;stroke:#008000;" x="148.884793" xlink:href="#mb54b960dd7" y="1653.997252"/>
     <use style="fill:#008000;stroke:#008000;" x="151.70993" xlink:href="#mb54b960dd7" y="1661.771845"/>
     <use style="fill:#008000;stroke:#008000;" x="124.050287" xlink:href="#mb54b960dd7" y="1653.14649"/>
     <use style="fill:#008000;stroke:#008000;" x="143.161926" xlink:href="#mb54b960dd7" y="1656.530823"/>
     <use style="fill:#008000;stroke:#008000;" x="161.422737" xlink:href="#mb54b960dd7" y="1635.234899"/>
     <use style="fill:#008000;stroke:#008000;" x="132.28099" xlink:href="#mb54b960dd7" y="1633.218349"/>
     <use style="fill:#008000;stroke:#008000;" x="140.658763" xlink:href="#mb54b960dd7" y="1635.598841"/>
     <use style="fill:#008000;stroke:#008000;" x="169.954899" xlink:href="#mb54b960dd7" y="1572.944601"/>
     <use style="fill:#008000;stroke:#008000;" x="160.05864" xlink:href="#mb54b960dd7" y="1576.887697"/>
    </g>
   </g>
   <g id="patch_35">
    <path clip-path="url(#pf9798f436f)" d="M 191.782587 1689.04382 
C 212.4433 1689.04382 232.260586 1682.480522 246.869916 1670.799415 
C 261.479247 1659.118309 269.687835 1643.273105 269.687835 1626.753525 
C 269.687835 1610.233946 261.479247 1594.388742 246.869916 1582.707636 
C 232.260586 1571.026529 212.4433 1564.463231 191.782587 1564.463231 
C 171.121873 1564.463231 151.304588 1571.026529 136.695257 1582.707636 
C 122.085926 1594.388742 113.877338 1610.233946 113.877338 1626.753525 
C 113.877338 1643.273105 122.085926 1659.118309 136.695257 1670.799415 
C 151.304588 1682.480522 171.121873 1689.04382 191.782587 1689.04382 
z
" style="fill:#ff0000;opacity:0.2;stroke:#ff0000;stroke-linejoin:miter;"/>
   </g>
   <g id="patch_36">
    <path clip-path="url(#pf9798f436f)" d="M 192.642516 1666.866566 
C 204.358808 1666.866566 215.596808 1663.412047 223.881477 1657.263829 
C 232.166147 1651.11561 236.821079 1642.775665 236.821079 1634.08077 
C 236.821079 1625.385876 232.166147 1617.045931 223.881477 1610.897712 
C 215.596808 1604.749493 204.358808 1601.294975 192.642516 1601.294975 
C 180.926224 1601.294975 169.688224 1604.749493 161.403554 1610.897712 
C 153.118885 1617.045931 148.463953 1625.385876 148.463953 1634.08077 
C 148.463953 1642.775665 153.118885 1651.11561 161.403554 1657.263829 
C 169.688224 1663.412047 180.926224 1666.866566 192.642516 1666.866566 
z
" style="fill:#0000ff;opacity:0.2;stroke:#0000ff;stroke-linejoin:miter;"/>
   </g>
   <g id="patch_37">
    <path clip-path="url(#pf9798f436f)" d="M 187.180732 1657.752827 
C 198.675449 1657.752827 209.70092 1653.306103 217.828913 1645.391993 
C 225.956905 1637.477884 230.523805 1626.742542 230.523805 1615.550301 
C 230.523805 1604.35806 225.956905 1593.622718 217.828913 1585.708609 
C 209.70092 1577.794499 198.675449 1573.347775 187.180732 1573.347775 
C 175.686015 1573.347775 164.660544 1577.794499 156.532551 1585.708609 
C 148.404559 1593.622718 143.837659 1604.35806 143.837659 1615.550301 
C 143.837659 1626.742542 148.404559 1637.477884 156.532551 1645.391993 
C 164.660544 1653.306103 175.686015 1657.752827 187.180732 1657.752827 
z
" style="fill:#008000;opacity:0.2;stroke:#008000;stroke-linejoin:miter;"/>
   </g>
   <g id="matplotlib.axis_9"/>
   <g id="matplotlib.axis_10"/>
   <g id="patch_38">
    <path d="M 0 1800 
L 0 1440 
" style="fill:none;stroke:#000000;stroke-linecap:square;stroke-linejoin:miter;stroke-width:0.8;"/>
   </g>
   <g id="patch_39">
    <path d="M 360 1800 
L 360 1440 
" style="fill:none;stroke:#000000;stroke-linecap:square;stroke-linejoin:miter;stroke-width:0.8;"/>
   </g>
   <g id="patch_40">
    <path d="M 0 1800 
L 360 1800 
" style="fill:none;stroke:#000000;stroke-linecap:square;stroke-linejoin:miter;stroke-width:0.8;"/>
   </g>
   <g id="patch_41">
    <path d="M 0 1440 
L 360 1440 
" style="fill:none;stroke:#000000;stroke-linecap:square;stroke-linejoin:miter;stroke-width:0.8;"/>
   </g>
  </g>
 </g>
 <defs>
  <clipPath id="pdeef2393c5">
   <rect height="360" width="360" x="0" y="0"/>
  </clipPath>
  <clipPath id="pf6fdb5dd44">
   <rect height="360" width="360" x="0" y="360"/>
  </clipPath>
  <clipPath id="p73a97e63d1">
   <rect height="360" width="360" x="0" y="720"/>
  </clipPath>
  <clipPath id="pec3c6ef68e">
   <rect height="360" width="360" x="0" y="1080"/>
  </clipPath>
  <clipPath id="pf9798f436f">
   <rect height="360" width="360" x="0" y="1440"/>
  </clipPath>
 </defs>
</svg>
