<?xml version="1.0" encoding="utf-8" standalone="no"?>
<!DOCTYPE svg PUBLIC "-//W3C//DTD SVG 1.1//EN"
  "http://www.w3.org/Graphics/SVG/1.1/DTD/svg11.dtd">
<!-- Created with matplotlib (http://matplotlib.org/) -->
<svg height="1800pt" version="1.1" viewBox="0 0 360 1800" width="360pt" xmlns="http://www.w3.org/2000/svg" xmlns:xlink="http://www.w3.org/1999/xlink">
 <defs>
  <style type="text/css">
*{stroke-linecap:butt;stroke-linejoin:round;}
  </style>
 </defs>
 <g id="figure_1">
  <g id="patch_1">
   <path d="M 0 1800 
L 360 1800 
L 360 0 
L 0 0 
z
" style="fill:#ffffff;"/>
  </g>
  <g id="axes_1">
   <g id="patch_2">
    <path d="M 0 360 
L 360 360 
L 360 0 
L 0 0 
z
" style="fill:#ffffff;"/>
   </g>
   <g id="PathCollection_1">
    <defs>
     <path d="M 0 3 
C 0.795609 3 1.55874 2.683901 2.12132 2.12132 
C 2.683901 1.55874 3 0.795609 3 0 
C 3 -0.795609 2.683901 -1.55874 2.12132 -2.12132 
C 1.55874 -2.683901 0.795609 -3 0 -3 
C -0.795609 -3 -1.55874 -2.683901 -2.12132 -2.12132 
C -2.683901 -1.55874 -3 -0.795609 -3 0 
C -3 0.795609 -2.683901 1.55874 -2.12132 2.12132 
C -1.55874 2.683901 -0.795609 3 0 3 
z
" id="ma2c2fc3acd" style="stroke:#ff0000;"/>
    </defs>
    <g clip-path="url(#p7a1698fad8)">
     <use style="fill:#ff0000;stroke:#ff0000;" x="189.657997" xlink:href="#ma2c2fc3acd" y="203.909729"/>
     <use style="fill:#ff0000;stroke:#ff0000;" x="201.488667" xlink:href="#ma2c2fc3acd" y="213.966585"/>
     <use style="fill:#ff0000;stroke:#ff0000;" x="193.848647" xlink:href="#ma2c2fc3acd" y="182.448369"/>
     <use style="fill:#ff0000;stroke:#ff0000;" x="188.480531" xlink:href="#ma2c2fc3acd" y="210.961083"/>
     <use style="fill:#ff0000;stroke:#ff0000;" x="208.005701" xlink:href="#ma2c2fc3acd" y="186.136176"/>
     <use style="fill:#ff0000;stroke:#ff0000;" x="197.379619" xlink:href="#ma2c2fc3acd" y="177.987246"/>
     <use style="fill:#ff0000;stroke:#ff0000;" x="182.213772" xlink:href="#ma2c2fc3acd" y="215.837176"/>
     <use style="fill:#ff0000;stroke:#ff0000;" x="189.397827" xlink:href="#ma2c2fc3acd" y="186.474365"/>
     <use style="fill:#ff0000;stroke:#ff0000;" x="178.916599" xlink:href="#ma2c2fc3acd" y="206.84087"/>
     <use style="fill:#ff0000;stroke:#ff0000;" x="192.995481" xlink:href="#ma2c2fc3acd" y="182.132615"/>
     <use style="fill:#ff0000;stroke:#ff0000;" x="200.960708" xlink:href="#ma2c2fc3acd" y="202.187017"/>
     <use style="fill:#ff0000;stroke:#ff0000;" x="203.261324" xlink:href="#ma2c2fc3acd" y="203.707236"/>
     <use style="fill:#ff0000;stroke:#ff0000;" x="194.741964" xlink:href="#ma2c2fc3acd" y="215.017859"/>
     <use style="fill:#ff0000;stroke:#ff0000;" x="197.378792" xlink:href="#ma2c2fc3acd" y="175.781994"/>
     <use style="fill:#ff0000;stroke:#ff0000;" x="199.505051" xlink:href="#ma2c2fc3acd" y="195.807318"/>
     <use style="fill:#ff0000;stroke:#ff0000;" x="199.101826" xlink:href="#ma2c2fc3acd" y="176.605039"/>
    </g>
   </g>
   <g id="PathCollection_2">
    <defs>
     <path d="M 0 3 
C 0.795609 3 1.55874 2.683901 2.12132 2.12132 
C 2.683901 1.55874 3 0.795609 3 0 
C 3 -0.795609 2.683901 -1.55874 2.12132 -2.12132 
C 1.55874 -2.683901 0.795609 -3 0 -3 
C -0.795609 -3 -1.55874 -2.683901 -2.12132 -2.12132 
C -2.683901 -1.55874 -3 -0.795609 -3 0 
C -3 0.795609 -2.683901 1.55874 -2.12132 2.12132 
C -1.55874 2.683901 -0.795609 3 0 3 
z
" id="m11841d7d48" style="stroke:#0000ff;"/>
    </defs>
    <g clip-path="url(#p7a1698fad8)">
     <use style="fill:#0000ff;stroke:#0000ff;" x="221.901604" xlink:href="#m11841d7d48" y="170.722517"/>
     <use style="fill:#0000ff;stroke:#0000ff;" x="210.663654" xlink:href="#m11841d7d48" y="174.551821"/>
     <use style="fill:#0000ff;stroke:#0000ff;" x="222.403991" xlink:href="#m11841d7d48" y="173.703181"/>
     <use style="fill:#0000ff;stroke:#0000ff;" x="222.029892" xlink:href="#m11841d7d48" y="160.19748"/>
     <use style="fill:#0000ff;stroke:#0000ff;" x="218.105965" xlink:href="#m11841d7d48" y="184.191596"/>
     <use style="fill:#0000ff;stroke:#0000ff;" x="215.060912" xlink:href="#m11841d7d48" y="171.006603"/>
     <use style="fill:#0000ff;stroke:#0000ff;" x="211.126119" xlink:href="#m11841d7d48" y="173.272378"/>
     <use style="fill:#0000ff;stroke:#0000ff;" x="212.592387" xlink:href="#m11841d7d48" y="169.911452"/>
     <use style="fill:#0000ff;stroke:#0000ff;" x="218.334887" xlink:href="#m11841d7d48" y="189.778959"/>
     <use style="fill:#0000ff;stroke:#0000ff;" x="216.228599" xlink:href="#m11841d7d48" y="183.248324"/>
    </g>
   </g>
   <g id="PathCollection_3">
    <defs>
     <path d="M 0 3 
C 0.795609 3 1.55874 2.683901 2.12132 2.12132 
C 2.683901 1.55874 3 0.795609 3 0 
C 3 -0.795609 2.683901 -1.55874 2.12132 -2.12132 
C 1.55874 -2.683901 0.795609 -3 0 -3 
C -0.795609 -3 -1.55874 -2.683901 -2.12132 -2.12132 
C -2.683901 -1.55874 -3 -0.795609 -3 0 
C -3 0.795609 -2.683901 1.55874 -2.12132 2.12132 
C -1.55874 2.683901 -0.795609 3 0 3 
z
" id="ma1c634fbb1" style="stroke:#008000;"/>
    </defs>
    <g clip-path="url(#p7a1698fad8)">
     <use style="fill:#008000;stroke:#008000;" x="125.09832" xlink:href="#ma1c634fbb1" y="146.776039"/>
     <use style="fill:#008000;stroke:#008000;" x="111.084732" xlink:href="#ma1c634fbb1" y="200.377766"/>
     <use style="fill:#008000;stroke:#008000;" x="131.466785" xlink:href="#ma1c634fbb1" y="220.66676"/>
     <use style="fill:#008000;stroke:#008000;" x="128.733147" xlink:href="#ma1c634fbb1" y="182.207546"/>
     <use style="fill:#008000;stroke:#008000;" x="199.278255" xlink:href="#ma1c634fbb1" y="242.349953"/>
     <use style="fill:#008000;stroke:#008000;" x="130.898432" xlink:href="#ma1c634fbb1" y="196.404376"/>
     <use style="fill:#008000;stroke:#008000;" x="99.156126" xlink:href="#ma1c634fbb1" y="173.127761"/>
     <use style="fill:#008000;stroke:#008000;" x="187.301107" xlink:href="#ma1c634fbb1" y="238.061279"/>
     <use style="fill:#008000;stroke:#008000;" x="200.775835" xlink:href="#ma1c634fbb1" y="235.417282"/>
     <use style="fill:#008000;stroke:#008000;" x="125.913345" xlink:href="#ma1c634fbb1" y="169.008611"/>
     <use style="fill:#008000;stroke:#008000;" x="128.495647" xlink:href="#ma1c634fbb1" y="177.259053"/>
     <use style="fill:#008000;stroke:#008000;" x="173.884488" xlink:href="#ma1c634fbb1" y="177.172886"/>
     <use style="fill:#008000;stroke:#008000;" x="137.429272" xlink:href="#ma1c634fbb1" y="171.677188"/>
     <use style="fill:#008000;stroke:#008000;" x="107.405766" xlink:href="#ma1c634fbb1" y="193.780766"/>
     <use style="fill:#008000;stroke:#008000;" x="137.552479" xlink:href="#ma1c634fbb1" y="159.483285"/>
     <use style="fill:#008000;stroke:#008000;" x="200.839763" xlink:href="#ma1c634fbb1" y="241.696936"/>
     <use style="fill:#008000;stroke:#008000;" x="212.403254" xlink:href="#ma1c634fbb1" y="239.685997"/>
     <use style="fill:#008000;stroke:#008000;" x="163.186615" xlink:href="#ma1c634fbb1" y="207.194321"/>
     <use style="fill:#008000;stroke:#008000;" x="115.870239" xlink:href="#ma1c634fbb1" y="139.925812"/>
     <use style="fill:#008000;stroke:#008000;" x="125.218111" xlink:href="#ma1c634fbb1" y="182.887571"/>
     <use style="fill:#008000;stroke:#008000;" x="109.014404" xlink:href="#ma1c634fbb1" y="177.072548"/>
     <use style="fill:#008000;stroke:#008000;" x="107.12879" xlink:href="#ma1c634fbb1" y="203.865658"/>
     <use style="fill:#008000;stroke:#008000;" x="102.102528" xlink:href="#ma1c634fbb1" y="167.78098"/>
     <use style="fill:#008000;stroke:#008000;" x="118.196537" xlink:href="#ma1c634fbb1" y="164.347538"/>
     <use style="fill:#008000;stroke:#008000;" x="114.768448" xlink:href="#ma1c634fbb1" y="167.871742"/>
     <use style="fill:#008000;stroke:#008000;" x="123.339569" xlink:href="#ma1c634fbb1" y="182.819389"/>
     <use style="fill:#008000;stroke:#008000;" x="122.037838" xlink:href="#ma1c634fbb1" y="180.485082"/>
     <use style="fill:#008000;stroke:#008000;" x="177.454034" xlink:href="#ma1c634fbb1" y="233.398911"/>
     <use style="fill:#008000;stroke:#008000;" x="123.428587" xlink:href="#ma1c634fbb1" y="177.625983"/>
     <use style="fill:#008000;stroke:#008000;" x="117.881853" xlink:href="#ma1c634fbb1" y="177.238128"/>
     <use style="fill:#008000;stroke:#008000;" x="119.077503" xlink:href="#ma1c634fbb1" y="174.415448"/>
     <use style="fill:#008000;stroke:#008000;" x="104.961828" xlink:href="#ma1c634fbb1" y="174.294231"/>
     <use style="fill:#008000;stroke:#008000;" x="118.216925" xlink:href="#ma1c634fbb1" y="178.9461"/>
     <use style="fill:#008000;stroke:#008000;" x="190.065647" xlink:href="#ma1c634fbb1" y="237.362869"/>
    </g>
   </g>
   <g id="patch_3">
    <path clip-path="url(#p7a1698fad8)" d="M 182.989827 206.818416 
C 189.971031 206.818416 196.667242 204.229572 201.603699 199.622048 
C 206.540155 195.014524 209.313816 188.764503 209.313816 182.24848 
C 209.313816 175.732457 206.540155 169.482436 201.603699 164.874912 
C 196.667242 160.267388 189.971031 157.678544 182.989827 157.678544 
C 176.008624 157.678544 169.312413 160.267388 164.375956 164.874912 
C 159.4395 169.482436 156.665839 175.732457 156.665839 182.24848 
C 156.665839 188.764503 159.4395 195.014524 164.375956 199.622048 
C 169.312413 204.229572 176.008624 206.818416 182.989827 206.818416 
z
" style="fill:#ff0000;opacity:0.2;stroke:#ff0000;stroke-linejoin:miter;"/>
   </g>
   <g id="patch_4">
    <path clip-path="url(#p7a1698fad8)" d="M 183.153733 207.346707 
C 190.172514 207.346707 196.904769 204.748366 201.867796 200.123938 
C 206.830823 195.499509 209.619415 189.226558 209.619415 182.686629 
C 209.619415 176.1467 206.830823 169.873749 201.867796 165.249321 
C 196.904769 160.624893 190.172514 158.026551 183.153733 158.026551 
C 176.134953 158.026551 169.402698 160.624893 164.439671 165.249321 
C 159.476644 169.873749 156.688052 176.1467 156.688052 182.686629 
C 156.688052 189.226558 159.476644 195.499509 164.439671 200.123938 
C 169.402698 204.748366 176.134953 207.346707 183.153733 207.346707 
z
" style="fill:#0000ff;opacity:0.2;stroke:#0000ff;stroke-linejoin:miter;"/>
   </g>
   <g id="patch_5">
    <path clip-path="url(#p7a1698fad8)" d="M 197.094306 241.597753 
C 225.389127 241.597753 252.528874 236.258808 272.536334 226.756759 
C 292.543794 217.25471 303.785445 204.365356 303.785445 190.927429 
C 303.785445 177.489502 292.543794 164.600148 272.536334 155.098099 
C 252.528874 145.59605 225.389127 140.257105 197.094306 140.257105 
C 168.799485 140.257105 141.659738 145.59605 121.652278 155.098099 
C 101.644818 164.600148 90.403167 177.489502 90.403167 190.927429 
C 90.403167 204.365356 101.644818 217.25471 121.652278 226.756759 
C 141.659738 236.258808 168.799485 241.597753 197.094306 241.597753 
z
" style="fill:#008000;opacity:0.2;stroke:#008000;stroke-linejoin:miter;"/>
   </g>
   <g id="matplotlib.axis_1"/>
   <g id="matplotlib.axis_2"/>
   <g id="patch_6">
    <path d="M 0 360 
L 0 0 
" style="fill:none;stroke:#000000;stroke-linecap:square;stroke-linejoin:miter;stroke-width:0.8;"/>
   </g>
   <g id="patch_7">
    <path d="M 360 360 
L 360 0 
" style="fill:none;stroke:#000000;stroke-linecap:square;stroke-linejoin:miter;stroke-width:0.8;"/>
   </g>
   <g id="patch_8">
    <path d="M 0 360 
L 360 360 
" style="fill:none;stroke:#000000;stroke-linecap:square;stroke-linejoin:miter;stroke-width:0.8;"/>
   </g>
   <g id="patch_9">
    <path d="M 0 0 
L 360 0 
" style="fill:none;stroke:#000000;stroke-linecap:square;stroke-linejoin:miter;stroke-width:0.8;"/>
   </g>
   <g id="text_1">
    <!-- Oneshot Encoder -->
    <defs>
     <path d="M 39.40625 66.21875 
Q 28.65625 66.21875 22.328125 58.203125 
Q 16.015625 50.203125 16.015625 36.375 
Q 16.015625 22.609375 22.328125 14.59375 
Q 28.65625 6.59375 39.40625 6.59375 
Q 50.140625 6.59375 56.421875 14.59375 
Q 62.703125 22.609375 62.703125 36.375 
Q 62.703125 50.203125 56.421875 58.203125 
Q 50.140625 66.21875 39.40625 66.21875 
z
M 39.40625 74.21875 
Q 54.734375 74.21875 63.90625 63.9375 
Q 73.09375 53.65625 73.09375 36.375 
Q 73.09375 19.140625 63.90625 8.859375 
Q 54.734375 -1.421875 39.40625 -1.421875 
Q 24.03125 -1.421875 14.8125 8.828125 
Q 5.609375 19.09375 5.609375 36.375 
Q 5.609375 53.65625 14.8125 63.9375 
Q 24.03125 74.21875 39.40625 74.21875 
z
" id="DejaVuSans-4f"/>
     <path d="M 54.890625 33.015625 
L 54.890625 0 
L 45.90625 0 
L 45.90625 32.71875 
Q 45.90625 40.484375 42.875 44.328125 
Q 39.84375 48.1875 33.796875 48.1875 
Q 26.515625 48.1875 22.3125 43.546875 
Q 18.109375 38.921875 18.109375 30.90625 
L 18.109375 0 
L 9.078125 0 
L 9.078125 54.6875 
L 18.109375 54.6875 
L 18.109375 46.1875 
Q 21.34375 51.125 25.703125 53.5625 
Q 30.078125 56 35.796875 56 
Q 45.21875 56 50.046875 50.171875 
Q 54.890625 44.34375 54.890625 33.015625 
z
" id="DejaVuSans-6e"/>
     <path d="M 56.203125 29.59375 
L 56.203125 25.203125 
L 14.890625 25.203125 
Q 15.484375 15.921875 20.484375 11.0625 
Q 25.484375 6.203125 34.421875 6.203125 
Q 39.59375 6.203125 44.453125 7.46875 
Q 49.3125 8.734375 54.109375 11.28125 
L 54.109375 2.78125 
Q 49.265625 0.734375 44.1875 -0.34375 
Q 39.109375 -1.421875 33.890625 -1.421875 
Q 20.796875 -1.421875 13.15625 6.1875 
Q 5.515625 13.8125 5.515625 26.8125 
Q 5.515625 40.234375 12.765625 48.109375 
Q 20.015625 56 32.328125 56 
Q 43.359375 56 49.78125 48.890625 
Q 56.203125 41.796875 56.203125 29.59375 
z
M 47.21875 32.234375 
Q 47.125 39.59375 43.09375 43.984375 
Q 39.0625 48.390625 32.421875 48.390625 
Q 24.90625 48.390625 20.390625 44.140625 
Q 15.875 39.890625 15.1875 32.171875 
z
" id="DejaVuSans-65"/>
     <path d="M 44.28125 53.078125 
L 44.28125 44.578125 
Q 40.484375 46.53125 36.375 47.5 
Q 32.28125 48.484375 27.875 48.484375 
Q 21.1875 48.484375 17.84375 46.4375 
Q 14.5 44.390625 14.5 40.28125 
Q 14.5 37.15625 16.890625 35.375 
Q 19.28125 33.59375 26.515625 31.984375 
L 29.59375 31.296875 
Q 39.15625 29.25 43.1875 25.515625 
Q 47.21875 21.78125 47.21875 15.09375 
Q 47.21875 7.46875 41.1875 3.015625 
Q 35.15625 -1.421875 24.609375 -1.421875 
Q 20.21875 -1.421875 15.453125 -0.5625 
Q 10.6875 0.296875 5.421875 2 
L 5.421875 11.28125 
Q 10.40625 8.6875 15.234375 7.390625 
Q 20.0625 6.109375 24.8125 6.109375 
Q 31.15625 6.109375 34.5625 8.28125 
Q 37.984375 10.453125 37.984375 14.40625 
Q 37.984375 18.0625 35.515625 20.015625 
Q 33.0625 21.96875 24.703125 23.78125 
L 21.578125 24.515625 
Q 13.234375 26.265625 9.515625 29.90625 
Q 5.8125 33.546875 5.8125 39.890625 
Q 5.8125 47.609375 11.28125 51.796875 
Q 16.75 56 26.8125 56 
Q 31.78125 56 36.171875 55.265625 
Q 40.578125 54.546875 44.28125 53.078125 
z
" id="DejaVuSans-73"/>
     <path d="M 54.890625 33.015625 
L 54.890625 0 
L 45.90625 0 
L 45.90625 32.71875 
Q 45.90625 40.484375 42.875 44.328125 
Q 39.84375 48.1875 33.796875 48.1875 
Q 26.515625 48.1875 22.3125 43.546875 
Q 18.109375 38.921875 18.109375 30.90625 
L 18.109375 0 
L 9.078125 0 
L 9.078125 75.984375 
L 18.109375 75.984375 
L 18.109375 46.1875 
Q 21.34375 51.125 25.703125 53.5625 
Q 30.078125 56 35.796875 56 
Q 45.21875 56 50.046875 50.171875 
Q 54.890625 44.34375 54.890625 33.015625 
z
" id="DejaVuSans-68"/>
     <path d="M 30.609375 48.390625 
Q 23.390625 48.390625 19.1875 42.75 
Q 14.984375 37.109375 14.984375 27.296875 
Q 14.984375 17.484375 19.15625 11.84375 
Q 23.34375 6.203125 30.609375 6.203125 
Q 37.796875 6.203125 41.984375 11.859375 
Q 46.1875 17.53125 46.1875 27.296875 
Q 46.1875 37.015625 41.984375 42.703125 
Q 37.796875 48.390625 30.609375 48.390625 
z
M 30.609375 56 
Q 42.328125 56 49.015625 48.375 
Q 55.71875 40.765625 55.71875 27.296875 
Q 55.71875 13.875 49.015625 6.21875 
Q 42.328125 -1.421875 30.609375 -1.421875 
Q 18.84375 -1.421875 12.171875 6.21875 
Q 5.515625 13.875 5.515625 27.296875 
Q 5.515625 40.765625 12.171875 48.375 
Q 18.84375 56 30.609375 56 
z
" id="DejaVuSans-6f"/>
     <path d="M 18.3125 70.21875 
L 18.3125 54.6875 
L 36.8125 54.6875 
L 36.8125 47.703125 
L 18.3125 47.703125 
L 18.3125 18.015625 
Q 18.3125 11.328125 20.140625 9.421875 
Q 21.96875 7.515625 27.59375 7.515625 
L 36.8125 7.515625 
L 36.8125 0 
L 27.59375 0 
Q 17.1875 0 13.234375 3.875 
Q 9.28125 7.765625 9.28125 18.015625 
L 9.28125 47.703125 
L 2.6875 47.703125 
L 2.6875 54.6875 
L 9.28125 54.6875 
L 9.28125 70.21875 
z
" id="DejaVuSans-74"/>
     <path id="DejaVuSans-20"/>
     <path d="M 9.8125 72.90625 
L 55.90625 72.90625 
L 55.90625 64.59375 
L 19.671875 64.59375 
L 19.671875 43.015625 
L 54.390625 43.015625 
L 54.390625 34.71875 
L 19.671875 34.71875 
L 19.671875 8.296875 
L 56.78125 8.296875 
L 56.78125 0 
L 9.8125 0 
z
" id="DejaVuSans-45"/>
     <path d="M 48.78125 52.59375 
L 48.78125 44.1875 
Q 44.96875 46.296875 41.140625 47.34375 
Q 37.3125 48.390625 33.40625 48.390625 
Q 24.65625 48.390625 19.8125 42.84375 
Q 14.984375 37.3125 14.984375 27.296875 
Q 14.984375 17.28125 19.8125 11.734375 
Q 24.65625 6.203125 33.40625 6.203125 
Q 37.3125 6.203125 41.140625 7.25 
Q 44.96875 8.296875 48.78125 10.40625 
L 48.78125 2.09375 
Q 45.015625 0.34375 40.984375 -0.53125 
Q 36.96875 -1.421875 32.421875 -1.421875 
Q 20.0625 -1.421875 12.78125 6.34375 
Q 5.515625 14.109375 5.515625 27.296875 
Q 5.515625 40.671875 12.859375 48.328125 
Q 20.21875 56 33.015625 56 
Q 37.15625 56 41.109375 55.140625 
Q 45.0625 54.296875 48.78125 52.59375 
z
" id="DejaVuSans-63"/>
     <path d="M 45.40625 46.390625 
L 45.40625 75.984375 
L 54.390625 75.984375 
L 54.390625 0 
L 45.40625 0 
L 45.40625 8.203125 
Q 42.578125 3.328125 38.25 0.953125 
Q 33.9375 -1.421875 27.875 -1.421875 
Q 17.96875 -1.421875 11.734375 6.484375 
Q 5.515625 14.40625 5.515625 27.296875 
Q 5.515625 40.1875 11.734375 48.09375 
Q 17.96875 56 27.875 56 
Q 33.9375 56 38.25 53.625 
Q 42.578125 51.265625 45.40625 46.390625 
z
M 14.796875 27.296875 
Q 14.796875 17.390625 18.875 11.75 
Q 22.953125 6.109375 30.078125 6.109375 
Q 37.203125 6.109375 41.296875 11.75 
Q 45.40625 17.390625 45.40625 27.296875 
Q 45.40625 37.203125 41.296875 42.84375 
Q 37.203125 48.484375 30.078125 48.484375 
Q 22.953125 48.484375 18.875 42.84375 
Q 14.796875 37.203125 14.796875 27.296875 
z
" id="DejaVuSans-64"/>
     <path d="M 41.109375 46.296875 
Q 39.59375 47.171875 37.8125 47.578125 
Q 36.03125 48 33.890625 48 
Q 26.265625 48 22.1875 43.046875 
Q 18.109375 38.09375 18.109375 28.8125 
L 18.109375 0 
L 9.078125 0 
L 9.078125 54.6875 
L 18.109375 54.6875 
L 18.109375 46.1875 
Q 20.953125 51.171875 25.484375 53.578125 
Q 30.03125 56 36.53125 56 
Q 37.453125 56 38.578125 55.875 
Q 39.703125 55.765625 41.0625 55.515625 
z
" id="DejaVuSans-72"/>
    </defs>
    <g transform="translate(50.98125 -6)scale(0.3 -0.3)">
     <use xlink:href="#DejaVuSans-4f"/>
     <use x="78.710938" xlink:href="#DejaVuSans-6e"/>
     <use x="142.089844" xlink:href="#DejaVuSans-65"/>
     <use x="203.613281" xlink:href="#DejaVuSans-73"/>
     <use x="255.712891" xlink:href="#DejaVuSans-68"/>
     <use x="319.091797" xlink:href="#DejaVuSans-6f"/>
     <use x="380.273438" xlink:href="#DejaVuSans-74"/>
     <use x="419.482422" xlink:href="#DejaVuSans-20"/>
     <use x="451.269531" xlink:href="#DejaVuSans-45"/>
     <use x="514.453125" xlink:href="#DejaVuSans-6e"/>
     <use x="577.832031" xlink:href="#DejaVuSans-63"/>
     <use x="632.8125" xlink:href="#DejaVuSans-6f"/>
     <use x="693.994141" xlink:href="#DejaVuSans-64"/>
     <use x="757.470703" xlink:href="#DejaVuSans-65"/>
     <use x="818.994141" xlink:href="#DejaVuSans-72"/>
    </g>
   </g>
  </g>
  <g id="axes_2">
   <g id="patch_10">
    <path d="M 0 720 
L 360 720 
L 360 360 
L 0 360 
z
" style="fill:#ffffff;"/>
   </g>
   <g id="PathCollection_4">
    <g clip-path="url(#pb0fa73dddf)">
     <use style="fill:#ff0000;stroke:#ff0000;" x="232.756268" xlink:href="#ma2c2fc3acd" y="549.37732"/>
     <use style="fill:#ff0000;stroke:#ff0000;" x="237.130457" xlink:href="#ma2c2fc3acd" y="515.409966"/>
     <use style="fill:#ff0000;stroke:#ff0000;" x="255.266876" xlink:href="#ma2c2fc3acd" y="516.314701"/>
     <use style="fill:#ff0000;stroke:#ff0000;" x="227.99719" xlink:href="#ma2c2fc3acd" y="528.927765"/>
     <use style="fill:#ff0000;stroke:#ff0000;" x="242.982222" xlink:href="#ma2c2fc3acd" y="549.736733"/>
     <use style="fill:#ff0000;stroke:#ff0000;" x="265.367752" xlink:href="#ma2c2fc3acd" y="516.66069"/>
     <use style="fill:#ff0000;stroke:#ff0000;" x="230.584854" xlink:href="#ma2c2fc3acd" y="508.958001"/>
     <use style="fill:#ff0000;stroke:#ff0000;" x="234.230181" xlink:href="#ma2c2fc3acd" y="515.855055"/>
     <use style="fill:#ff0000;stroke:#ff0000;" x="252.77013" xlink:href="#ma2c2fc3acd" y="517.539455"/>
     <use style="fill:#ff0000;stroke:#ff0000;" x="209.820248" xlink:href="#ma2c2fc3acd" y="552.148534"/>
     <use style="fill:#ff0000;stroke:#ff0000;" x="253.760502" xlink:href="#ma2c2fc3acd" y="500.808952"/>
     <use style="fill:#ff0000;stroke:#ff0000;" x="212.806443" xlink:href="#ma2c2fc3acd" y="538.911662"/>
     <use style="fill:#ff0000;stroke:#ff0000;" x="244.74313" xlink:href="#ma2c2fc3acd" y="517.179877"/>
     <use style="fill:#ff0000;stroke:#ff0000;" x="236.454214" xlink:href="#ma2c2fc3acd" y="493.167767"/>
     <use style="fill:#ff0000;stroke:#ff0000;" x="242.906445" xlink:href="#ma2c2fc3acd" y="525.134631"/>
     <use style="fill:#ff0000;stroke:#ff0000;" x="237.905737" xlink:href="#ma2c2fc3acd" y="535.609183"/>
     <use style="fill:#ff0000;stroke:#ff0000;" x="257.617876" xlink:href="#ma2c2fc3acd" y="528.51016"/>
     <use style="fill:#ff0000;stroke:#ff0000;" x="238.388329" xlink:href="#ma2c2fc3acd" y="519.651808"/>
     <use style="fill:#ff0000;stroke:#ff0000;" x="249.585428" xlink:href="#ma2c2fc3acd" y="520.349444"/>
     <use style="fill:#ff0000;stroke:#ff0000;" x="181.128948" xlink:href="#ma2c2fc3acd" y="513.251796"/>
     <use style="fill:#ff0000;stroke:#ff0000;" x="246.383881" xlink:href="#ma2c2fc3acd" y="524.933988"/>
     <use style="fill:#ff0000;stroke:#ff0000;" x="209.011848" xlink:href="#ma2c2fc3acd" y="513.470764"/>
     <use style="fill:#ff0000;stroke:#ff0000;" x="236.042381" xlink:href="#ma2c2fc3acd" y="515.793766"/>
     <use style="fill:#ff0000;stroke:#ff0000;" x="253.670357" xlink:href="#ma2c2fc3acd" y="517.852472"/>
     <use style="fill:#ff0000;stroke:#ff0000;" x="217.1673" xlink:href="#ma2c2fc3acd" y="512.714604"/>
     <use style="fill:#ff0000;stroke:#ff0000;" x="248.699684" xlink:href="#ma2c2fc3acd" y="514.043492"/>
     <use style="fill:#ff0000;stroke:#ff0000;" x="263.925516" xlink:href="#ma2c2fc3acd" y="519.763212"/>
     <use style="fill:#ff0000;stroke:#ff0000;" x="235.858091" xlink:href="#ma2c2fc3acd" y="508.109902"/>
     <use style="fill:#ff0000;stroke:#ff0000;" x="212.242344" xlink:href="#ma2c2fc3acd" y="526.859084"/>
     <use style="fill:#ff0000;stroke:#ff0000;" x="226.986889" xlink:href="#ma2c2fc3acd" y="516.374006"/>
    </g>
   </g>
   <g id="PathCollection_5"/>
   <g id="PathCollection_6">
    <g clip-path="url(#pb0fa73dddf)">
     <use style="fill:#008000;stroke:#008000;" x="239.158773" xlink:href="#ma1c634fbb1" y="565.052513"/>
     <use style="fill:#008000;stroke:#008000;" x="188.832481" xlink:href="#ma1c634fbb1" y="587.668705"/>
     <use style="fill:#008000;stroke:#008000;" x="282.177406" xlink:href="#ma1c634fbb1" y="497.041031"/>
     <use style="fill:#008000;stroke:#008000;" x="186.705063" xlink:href="#ma1c634fbb1" y="560.550498"/>
     <use style="fill:#008000;stroke:#008000;" x="206.100271" xlink:href="#ma1c634fbb1" y="582.284666"/>
     <use style="fill:#008000;stroke:#008000;" x="233.985935" xlink:href="#ma1c634fbb1" y="577.303943"/>
     <use style="fill:#008000;stroke:#008000;" x="205.544738" xlink:href="#ma1c634fbb1" y="575.996361"/>
     <use style="fill:#008000;stroke:#008000;" x="183.729341" xlink:href="#ma1c634fbb1" y="569.632791"/>
     <use style="fill:#008000;stroke:#008000;" x="206.715637" xlink:href="#ma1c634fbb1" y="573.986106"/>
     <use style="fill:#008000;stroke:#008000;" x="265.008842" xlink:href="#ma1c634fbb1" y="548.265581"/>
     <use style="fill:#008000;stroke:#008000;" x="193.832271" xlink:href="#ma1c634fbb1" y="574.377065"/>
     <use style="fill:#008000;stroke:#008000;" x="206.476101" xlink:href="#ma1c634fbb1" y="560.438311"/>
     <use style="fill:#008000;stroke:#008000;" x="254.177719" xlink:href="#ma1c634fbb1" y="552.286812"/>
     <use style="fill:#008000;stroke:#008000;" x="217.635859" xlink:href="#ma1c634fbb1" y="597.968605"/>
     <use style="fill:#008000;stroke:#008000;" x="180.261014" xlink:href="#ma1c634fbb1" y="575.104694"/>
     <use style="fill:#008000;stroke:#008000;" x="161.66827" xlink:href="#ma1c634fbb1" y="563.877889"/>
     <use style="fill:#008000;stroke:#008000;" x="180.872661" xlink:href="#ma1c634fbb1" y="578.968603"/>
     <use style="fill:#008000;stroke:#008000;" x="195.432608" xlink:href="#ma1c634fbb1" y="564.823202"/>
     <use style="fill:#008000;stroke:#008000;" x="245.738863" xlink:href="#ma1c634fbb1" y="567.830709"/>
     <use style="fill:#008000;stroke:#008000;" x="210.431791" xlink:href="#ma1c634fbb1" y="574.32972"/>
     <use style="fill:#008000;stroke:#008000;" x="190.019048" xlink:href="#ma1c634fbb1" y="583.261763"/>
     <use style="fill:#008000;stroke:#008000;" x="186.312165" xlink:href="#ma1c634fbb1" y="577.384317"/>
     <use style="fill:#008000;stroke:#008000;" x="276.066902" xlink:href="#ma1c634fbb1" y="529.049157"/>
     <use style="fill:#008000;stroke:#008000;" x="208.019102" xlink:href="#ma1c634fbb1" y="577.945132"/>
     <use style="fill:#008000;stroke:#008000;" x="224.057857" xlink:href="#ma1c634fbb1" y="586.552528"/>
     <use style="fill:#008000;stroke:#008000;" x="242.48493" xlink:href="#ma1c634fbb1" y="553.225435"/>
     <use style="fill:#008000;stroke:#008000;" x="215.738191" xlink:href="#ma1c634fbb1" y="603.938576"/>
     <use style="fill:#008000;stroke:#008000;" x="172.549975" xlink:href="#ma1c634fbb1" y="574.330052"/>
     <use style="fill:#008000;stroke:#008000;" x="189.946913" xlink:href="#ma1c634fbb1" y="589.216673"/>
     <use style="fill:#008000;stroke:#008000;" x="290.87257" xlink:href="#ma1c634fbb1" y="510.009061"/>
    </g>
   </g>
   <g id="patch_11">
    <path clip-path="url(#pb0fa73dddf)" d="M 166.230982 565.640749 
C 173.657872 565.640749 180.781576 563.025583 186.03318 558.371211 
C 191.284784 553.716839 194.235519 547.40327 194.235519 540.820994 
C 194.235519 534.238718 191.284784 527.925149 186.03318 523.270777 
C 180.781576 518.616405 173.657872 516.001239 166.230982 516.001239 
C 158.804092 516.001239 151.680389 518.616405 146.428785 523.270777 
C 141.17718 527.925149 138.226446 534.238718 138.226446 540.820994 
C 138.226446 547.40327 141.17718 553.716839 146.428785 558.371211 
C 151.680389 563.025583 158.804092 565.640749 166.230982 565.640749 
z
" style="fill:#ff0000;opacity:0.2;stroke:#ff0000;stroke-linejoin:miter;"/>
   </g>
   <g id="patch_12">
    <path clip-path="url(#pb0fa73dddf)" d="M 166.2136 566.290526 
C 173.633512 566.290526 180.750522 563.667508 185.997192 558.999161 
C 191.243862 554.330814 194.191824 547.998288 194.191824 541.396248 
C 194.191824 534.794208 191.243862 528.461682 185.997192 523.793335 
C 180.750522 519.124988 173.633512 516.501969 166.2136 516.501969 
C 158.793688 516.501969 151.676678 519.124988 146.430008 523.793335 
C 141.183339 528.461682 138.235376 534.794208 138.235376 541.396248 
C 138.235376 547.998288 141.183339 554.330814 146.430008 558.999161 
C 151.676678 563.667508 158.793688 566.290526 166.2136 566.290526 
z
" style="fill:#0000ff;opacity:0.2;stroke:#0000ff;stroke-linejoin:miter;"/>
   </g>
   <g id="patch_13">
    <path clip-path="url(#pb0fa73dddf)" d="M 116.174309 607.924583 
C 136.650117 607.924583 156.290046 601.256994 170.768629 589.390274 
C 185.247213 577.523555 193.382338 561.42657 193.382338 544.644495 
C 193.382338 527.862419 185.247213 511.765434 170.768629 499.898715 
C 156.290046 488.031995 136.650117 481.364406 116.174309 481.364406 
C 95.6985 481.364406 76.058571 488.031995 61.579988 499.898715 
C 47.101405 511.765434 38.96628 527.862419 38.96628 544.644495 
C 38.96628 561.42657 47.101405 577.523555 61.579988 589.390274 
C 76.058571 601.256994 95.6985 607.924583 116.174309 607.924583 
z
" style="fill:#008000;opacity:0.2;stroke:#008000;stroke-linejoin:miter;"/>
   </g>
   <g id="matplotlib.axis_3"/>
   <g id="matplotlib.axis_4"/>
   <g id="patch_14">
    <path d="M 0 720 
L 0 360 
" style="fill:none;stroke:#000000;stroke-linecap:square;stroke-linejoin:miter;stroke-width:0.8;"/>
   </g>
   <g id="patch_15">
    <path d="M 360 720 
L 360 360 
" style="fill:none;stroke:#000000;stroke-linecap:square;stroke-linejoin:miter;stroke-width:0.8;"/>
   </g>
   <g id="patch_16">
    <path d="M 0 720 
L 360 720 
" style="fill:none;stroke:#000000;stroke-linecap:square;stroke-linejoin:miter;stroke-width:0.8;"/>
   </g>
   <g id="patch_17">
    <path d="M 0 360 
L 360 360 
" style="fill:none;stroke:#000000;stroke-linecap:square;stroke-linejoin:miter;stroke-width:0.8;"/>
   </g>
  </g>
  <g id="axes_3">
   <g id="patch_18">
    <path d="M 0 1080 
L 360 1080 
L 360 720 
L 0 720 
z
" style="fill:#ffffff;"/>
   </g>
   <g id="PathCollection_7">
    <g clip-path="url(#p9bcf9f2c10)">
     <use style="fill:#ff0000;stroke:#ff0000;" x="240.505457" xlink:href="#ma2c2fc3acd" y="878.902674"/>
     <use style="fill:#ff0000;stroke:#ff0000;" x="230.992458" xlink:href="#ma2c2fc3acd" y="872.72905"/>
     <use style="fill:#ff0000;stroke:#ff0000;" x="236.402235" xlink:href="#ma2c2fc3acd" y="867.155485"/>
     <use style="fill:#ff0000;stroke:#ff0000;" x="249.989033" xlink:href="#ma2c2fc3acd" y="896.575665"/>
     <use style="fill:#ff0000;stroke:#ff0000;" x="217.780958" xlink:href="#ma2c2fc3acd" y="882.574655"/>
     <use style="fill:#ff0000;stroke:#ff0000;" x="236.742147" xlink:href="#ma2c2fc3acd" y="859.20577"/>
     <use style="fill:#ff0000;stroke:#ff0000;" x="230.17907" xlink:href="#ma2c2fc3acd" y="860.490804"/>
     <use style="fill:#ff0000;stroke:#ff0000;" x="236.564135" xlink:href="#ma2c2fc3acd" y="865.864918"/>
     <use style="fill:#ff0000;stroke:#ff0000;" x="172.440946" xlink:href="#ma2c2fc3acd" y="870.532079"/>
     <use style="fill:#ff0000;stroke:#ff0000;" x="230.81365" xlink:href="#ma2c2fc3acd" y="884.810334"/>
     <use style="fill:#ff0000;stroke:#ff0000;" x="247.822878" xlink:href="#ma2c2fc3acd" y="895.109098"/>
     <use style="fill:#ff0000;stroke:#ff0000;" x="234.947748" xlink:href="#ma2c2fc3acd" y="855.116558"/>
     <use style="fill:#ff0000;stroke:#ff0000;" x="250.31864" xlink:href="#ma2c2fc3acd" y="866.098469"/>
     <use style="fill:#ff0000;stroke:#ff0000;" x="237.613312" xlink:href="#ma2c2fc3acd" y="875.994678"/>
     <use style="fill:#ff0000;stroke:#ff0000;" x="245.434273" xlink:href="#ma2c2fc3acd" y="875.991646"/>
     <use style="fill:#ff0000;stroke:#ff0000;" x="218.198247" xlink:href="#ma2c2fc3acd" y="867.064616"/>
     <use style="fill:#ff0000;stroke:#ff0000;" x="253.747925" xlink:href="#ma2c2fc3acd" y="864.814373"/>
     <use style="fill:#ff0000;stroke:#ff0000;" x="239.939289" xlink:href="#ma2c2fc3acd" y="885.924768"/>
     <use style="fill:#ff0000;stroke:#ff0000;" x="228.240589" xlink:href="#ma2c2fc3acd" y="878.594533"/>
     <use style="fill:#ff0000;stroke:#ff0000;" x="249.461386" xlink:href="#ma2c2fc3acd" y="884.175522"/>
     <use style="fill:#ff0000;stroke:#ff0000;" x="240.915642" xlink:href="#ma2c2fc3acd" y="875.935043"/>
     <use style="fill:#ff0000;stroke:#ff0000;" x="226.73701" xlink:href="#ma2c2fc3acd" y="874.37913"/>
     <use style="fill:#ff0000;stroke:#ff0000;" x="216.856224" xlink:href="#ma2c2fc3acd" y="866.630213"/>
     <use style="fill:#ff0000;stroke:#ff0000;" x="251.492277" xlink:href="#ma2c2fc3acd" y="860.349349"/>
     <use style="fill:#ff0000;stroke:#ff0000;" x="243.483284" xlink:href="#ma2c2fc3acd" y="873.479868"/>
     <use style="fill:#ff0000;stroke:#ff0000;" x="239.054317" xlink:href="#ma2c2fc3acd" y="886.993747"/>
     <use style="fill:#ff0000;stroke:#ff0000;" x="242.355486" xlink:href="#ma2c2fc3acd" y="872.248412"/>
     <use style="fill:#ff0000;stroke:#ff0000;" x="225.102994" xlink:href="#ma2c2fc3acd" y="871.417445"/>
     <use style="fill:#ff0000;stroke:#ff0000;" x="227.467346" xlink:href="#ma2c2fc3acd" y="859.717798"/>
     <use style="fill:#ff0000;stroke:#ff0000;" x="246.317648" xlink:href="#ma2c2fc3acd" y="861.853924"/>
     <use style="fill:#ff0000;stroke:#ff0000;" x="237.391594" xlink:href="#ma2c2fc3acd" y="880.933777"/>
     <use style="fill:#ff0000;stroke:#ff0000;" x="227.831697" xlink:href="#ma2c2fc3acd" y="882.73447"/>
     <use style="fill:#ff0000;stroke:#ff0000;" x="221.891659" xlink:href="#ma2c2fc3acd" y="892.529898"/>
     <use style="fill:#ff0000;stroke:#ff0000;" x="229.077015" xlink:href="#ma2c2fc3acd" y="879.956514"/>
     <use style="fill:#ff0000;stroke:#ff0000;" x="231.027197" xlink:href="#ma2c2fc3acd" y="897.804688"/>
    </g>
   </g>
   <g id="PathCollection_8">
    <g clip-path="url(#p9bcf9f2c10)">
     <use style="fill:#0000ff;stroke:#0000ff;" x="227.136603" xlink:href="#m11841d7d48" y="922.766985"/>
     <use style="fill:#0000ff;stroke:#0000ff;" x="175.515681" xlink:href="#m11841d7d48" y="891.673482"/>
     <use style="fill:#0000ff;stroke:#0000ff;" x="172.425463" xlink:href="#m11841d7d48" y="899.913125"/>
     <use style="fill:#0000ff;stroke:#0000ff;" x="173.927438" xlink:href="#m11841d7d48" y="903.881538"/>
     <use style="fill:#0000ff;stroke:#0000ff;" x="166.793183" xlink:href="#m11841d7d48" y="901.841596"/>
     <use style="fill:#0000ff;stroke:#0000ff;" x="239.110846" xlink:href="#m11841d7d48" y="912.784919"/>
     <use style="fill:#0000ff;stroke:#0000ff;" x="178.642118" xlink:href="#m11841d7d48" y="893.193078"/>
    </g>
   </g>
   <g id="PathCollection_9">
    <g clip-path="url(#p9bcf9f2c10)">
     <use style="fill:#008000;stroke:#008000;" x="151.162611" xlink:href="#ma1c634fbb1" y="891.63167"/>
     <use style="fill:#008000;stroke:#008000;" x="159.133671" xlink:href="#ma1c634fbb1" y="899.152996"/>
     <use style="fill:#008000;stroke:#008000;" x="164.584004" xlink:href="#ma1c634fbb1" y="890.229893"/>
     <use style="fill:#008000;stroke:#008000;" x="149.955136" xlink:href="#ma1c634fbb1" y="892.432477"/>
     <use style="fill:#008000;stroke:#008000;" x="171.509824" xlink:href="#ma1c634fbb1" y="882.918188"/>
     <use style="fill:#008000;stroke:#008000;" x="153.114266" xlink:href="#ma1c634fbb1" y="911.176796"/>
     <use style="fill:#008000;stroke:#008000;" x="166.164462" xlink:href="#ma1c634fbb1" y="890.36239"/>
     <use style="fill:#008000;stroke:#008000;" x="158.50082" xlink:href="#ma1c634fbb1" y="880.557921"/>
     <use style="fill:#008000;stroke:#008000;" x="160.592242" xlink:href="#ma1c634fbb1" y="866.678252"/>
     <use style="fill:#008000;stroke:#008000;" x="160.265359" xlink:href="#ma1c634fbb1" y="873.883146"/>
     <use style="fill:#008000;stroke:#008000;" x="161.109665" xlink:href="#ma1c634fbb1" y="883.189376"/>
     <use style="fill:#008000;stroke:#008000;" x="265.568344" xlink:href="#ma1c634fbb1" y="866.291691"/>
     <use style="fill:#008000;stroke:#008000;" x="159.932905" xlink:href="#ma1c634fbb1" y="903.103126"/>
     <use style="fill:#008000;stroke:#008000;" x="149.203463" xlink:href="#ma1c634fbb1" y="881.498962"/>
     <use style="fill:#008000;stroke:#008000;" x="259.316053" xlink:href="#ma1c634fbb1" y="875.020617"/>
     <use style="fill:#008000;stroke:#008000;" x="166.880007" xlink:href="#ma1c634fbb1" y="890.26664"/>
     <use style="fill:#008000;stroke:#008000;" x="151.744174" xlink:href="#ma1c634fbb1" y="892.287378"/>
     <use style="fill:#008000;stroke:#008000;" x="142.883062" xlink:href="#ma1c634fbb1" y="878.193266"/>
    </g>
   </g>
   <g id="patch_19">
    <path clip-path="url(#p9bcf9f2c10)" d="M 170.535903 919.935973 
C 177.7888 919.935973 184.745613 917.376189 189.874186 912.820385 
C 195.002758 908.26458 197.884365 902.084715 197.884365 895.641834 
C 197.884365 889.198953 195.002758 883.019089 189.874186 878.463284 
C 184.745613 873.907479 177.7888 871.347695 170.535903 871.347695 
C 163.283007 871.347695 156.326194 873.907479 151.197621 878.463284 
C 146.069049 883.019089 143.187442 889.198953 143.187442 895.641834 
C 143.187442 902.084715 146.069049 908.26458 151.197621 912.820385 
C 156.326194 917.376189 163.283007 919.935973 170.535903 919.935973 
z
" style="fill:#ff0000;opacity:0.2;stroke:#ff0000;stroke-linejoin:miter;"/>
   </g>
   <g id="patch_20">
    <path clip-path="url(#p9bcf9f2c10)" d="M 170.847662 920.070333 
C 178.083784 920.070333 185.024508 917.511785 190.141219 912.95818 
C 195.25793 908.404575 198.132872 902.227694 198.132872 895.787924 
C 198.132872 889.348154 195.25793 883.171274 190.141219 878.617669 
C 185.024508 874.064063 178.083784 871.505516 170.847662 871.505516 
C 163.61154 871.505516 156.670816 874.064063 151.554105 878.617669 
C 146.437394 883.171274 143.562452 889.348154 143.562452 895.787924 
C 143.562452 902.227694 146.437394 908.404575 151.554105 912.95818 
C 156.670816 917.511785 163.61154 920.070333 170.847662 920.070333 
z
" style="fill:#0000ff;opacity:0.2;stroke:#0000ff;stroke-linejoin:miter;"/>
   </g>
   <g id="patch_21">
    <path clip-path="url(#p9bcf9f2c10)" d="M 136.795856 911.496137 
C 162.768273 911.496137 187.680423 908.123811 206.045696 902.121876 
C 224.410968 896.11994 234.729918 887.978426 234.729918 879.490408 
C 234.729918 871.002389 224.410968 862.860876 206.045696 856.85894 
C 187.680423 850.857005 162.768273 847.484679 136.795856 847.484679 
C 110.823438 847.484679 85.911288 850.857005 67.546015 856.85894 
C 49.180743 862.860876 38.861793 871.002389 38.861793 879.490408 
C 38.861793 887.978426 49.180743 896.11994 67.546015 902.121876 
C 85.911288 908.123811 110.823438 911.496137 136.795856 911.496137 
z
" style="fill:#008000;opacity:0.2;stroke:#008000;stroke-linejoin:miter;"/>
   </g>
   <g id="matplotlib.axis_5"/>
   <g id="matplotlib.axis_6"/>
   <g id="patch_22">
    <path d="M 0 1080 
L 0 720 
" style="fill:none;stroke:#000000;stroke-linecap:square;stroke-linejoin:miter;stroke-width:0.8;"/>
   </g>
   <g id="patch_23">
    <path d="M 360 1080 
L 360 720 
" style="fill:none;stroke:#000000;stroke-linecap:square;stroke-linejoin:miter;stroke-width:0.8;"/>
   </g>
   <g id="patch_24">
    <path d="M 0 1080 
L 360 1080 
" style="fill:none;stroke:#000000;stroke-linecap:square;stroke-linejoin:miter;stroke-width:0.8;"/>
   </g>
   <g id="patch_25">
    <path d="M 0 720 
L 360 720 
" style="fill:none;stroke:#000000;stroke-linecap:square;stroke-linejoin:miter;stroke-width:0.8;"/>
   </g>
  </g>
  <g id="axes_4">
   <g id="patch_26">
    <path d="M 0 1440 
L 360 1440 
L 360 1080 
L 0 1080 
z
" style="fill:#ffffff;"/>
   </g>
   <g id="PathCollection_10">
    <g clip-path="url(#p8aef6d7dfc)">
     <use style="fill:#ff0000;stroke:#ff0000;" x="224.738926" xlink:href="#ma2c2fc3acd" y="1259.728229"/>
     <use style="fill:#ff0000;stroke:#ff0000;" x="232.33568" xlink:href="#ma2c2fc3acd" y="1275.685784"/>
     <use style="fill:#ff0000;stroke:#ff0000;" x="201.938996" xlink:href="#ma2c2fc3acd" y="1196.591"/>
     <use style="fill:#ff0000;stroke:#ff0000;" x="201.60969" xlink:href="#ma2c2fc3acd" y="1195.335222"/>
     <use style="fill:#ff0000;stroke:#ff0000;" x="207.350218" xlink:href="#ma2c2fc3acd" y="1264.867922"/>
     <use style="fill:#ff0000;stroke:#ff0000;" x="192.165991" xlink:href="#ma2c2fc3acd" y="1196.078665"/>
     <use style="fill:#ff0000;stroke:#ff0000;" x="234.683887" xlink:href="#ma2c2fc3acd" y="1260.342892"/>
     <use style="fill:#ff0000;stroke:#ff0000;" x="231.298559" xlink:href="#ma2c2fc3acd" y="1282.623184"/>
     <use style="fill:#ff0000;stroke:#ff0000;" x="192.599945" xlink:href="#ma2c2fc3acd" y="1202.97468"/>
     <use style="fill:#ff0000;stroke:#ff0000;" x="230.548193" xlink:href="#ma2c2fc3acd" y="1242.655638"/>
     <use style="fill:#ff0000;stroke:#ff0000;" x="242.317366" xlink:href="#ma2c2fc3acd" y="1257.920901"/>
     <use style="fill:#ff0000;stroke:#ff0000;" x="214.545141" xlink:href="#ma2c2fc3acd" y="1246.657677"/>
     <use style="fill:#ff0000;stroke:#ff0000;" x="231.109858" xlink:href="#ma2c2fc3acd" y="1267.977711"/>
     <use style="fill:#ff0000;stroke:#ff0000;" x="210.387045" xlink:href="#ma2c2fc3acd" y="1266.522717"/>
     <use style="fill:#ff0000;stroke:#ff0000;" x="231.083233" xlink:href="#ma2c2fc3acd" y="1281.186048"/>
     <use style="fill:#ff0000;stroke:#ff0000;" x="219.164758" xlink:href="#ma2c2fc3acd" y="1272.467611"/>
     <use style="fill:#ff0000;stroke:#ff0000;" x="187.697684" xlink:href="#ma2c2fc3acd" y="1214.574872"/>
     <use style="fill:#ff0000;stroke:#ff0000;" x="229.959463" xlink:href="#ma2c2fc3acd" y="1266.783794"/>
     <use style="fill:#ff0000;stroke:#ff0000;" x="237.65296" xlink:href="#ma2c2fc3acd" y="1269.735025"/>
     <use style="fill:#ff0000;stroke:#ff0000;" x="222.260777" xlink:href="#ma2c2fc3acd" y="1282.500212"/>
     <use style="fill:#ff0000;stroke:#ff0000;" x="189.257353" xlink:href="#ma2c2fc3acd" y="1200.290216"/>
     <use style="fill:#ff0000;stroke:#ff0000;" x="234.350676" xlink:href="#ma2c2fc3acd" y="1251.855412"/>
     <use style="fill:#ff0000;stroke:#ff0000;" x="230.275234" xlink:href="#ma2c2fc3acd" y="1270.338511"/>
     <use style="fill:#ff0000;stroke:#ff0000;" x="197.194774" xlink:href="#ma2c2fc3acd" y="1208.487196"/>
     <use style="fill:#ff0000;stroke:#ff0000;" x="213.712106" xlink:href="#ma2c2fc3acd" y="1186.042328"/>
     <use style="fill:#ff0000;stroke:#ff0000;" x="186.959288" xlink:href="#ma2c2fc3acd" y="1199.028305"/>
     <use style="fill:#ff0000;stroke:#ff0000;" x="232.27874" xlink:href="#ma2c2fc3acd" y="1262.588974"/>
     <use style="fill:#ff0000;stroke:#ff0000;" x="230.575104" xlink:href="#ma2c2fc3acd" y="1275.406935"/>
     <use style="fill:#ff0000;stroke:#ff0000;" x="229.356737" xlink:href="#ma2c2fc3acd" y="1258.055383"/>
     <use style="fill:#ff0000;stroke:#ff0000;" x="245.797691" xlink:href="#ma2c2fc3acd" y="1266.533659"/>
     <use style="fill:#ff0000;stroke:#ff0000;" x="249.866386" xlink:href="#ma2c2fc3acd" y="1239.7587"/>
    </g>
   </g>
   <g id="PathCollection_11">
    <g clip-path="url(#p8aef6d7dfc)">
     <use style="fill:#0000ff;stroke:#0000ff;" x="160.139022" xlink:href="#m11841d7d48" y="1207.270987"/>
     <use style="fill:#0000ff;stroke:#0000ff;" x="172.566886" xlink:href="#m11841d7d48" y="1188.653732"/>
     <use style="fill:#0000ff;stroke:#0000ff;" x="161.785818" xlink:href="#m11841d7d48" y="1182.69932"/>
    </g>
   </g>
   <g id="PathCollection_12">
    <g clip-path="url(#p8aef6d7dfc)">
     <use style="fill:#008000;stroke:#008000;" x="189.297009" xlink:href="#ma1c634fbb1" y="1321.30113"/>
     <use style="fill:#008000;stroke:#008000;" x="194.343684" xlink:href="#ma1c634fbb1" y="1330.396923"/>
     <use style="fill:#008000;stroke:#008000;" x="181.891591" xlink:href="#ma1c634fbb1" y="1341.010494"/>
     <use style="fill:#008000;stroke:#008000;" x="221.070065" xlink:href="#ma1c634fbb1" y="1322.13945"/>
     <use style="fill:#008000;stroke:#008000;" x="189.523204" xlink:href="#ma1c634fbb1" y="1170.896147"/>
     <use style="fill:#008000;stroke:#008000;" x="195.862673" xlink:href="#ma1c634fbb1" y="1341.725979"/>
     <use style="fill:#008000;stroke:#008000;" x="205.197069" xlink:href="#ma1c634fbb1" y="1339.754774"/>
     <use style="fill:#008000;stroke:#008000;" x="203.027608" xlink:href="#ma1c634fbb1" y="1329.258739"/>
     <use style="fill:#008000;stroke:#008000;" x="185.696747" xlink:href="#ma1c634fbb1" y="1329.915127"/>
     <use style="fill:#008000;stroke:#008000;" x="180.292522" xlink:href="#ma1c634fbb1" y="1185.829479"/>
     <use style="fill:#008000;stroke:#008000;" x="201.256049" xlink:href="#ma1c634fbb1" y="1341.101475"/>
     <use style="fill:#008000;stroke:#008000;" x="236.466333" xlink:href="#ma1c634fbb1" y="1280.2493"/>
     <use style="fill:#008000;stroke:#008000;" x="188.283361" xlink:href="#ma1c634fbb1" y="1185.55925"/>
     <use style="fill:#008000;stroke:#008000;" x="187.303403" xlink:href="#ma1c634fbb1" y="1170.281399"/>
     <use style="fill:#008000;stroke:#008000;" x="252.422894" xlink:href="#ma1c634fbb1" y="1255.772853"/>
     <use style="fill:#008000;stroke:#008000;" x="200.90872" xlink:href="#ma1c634fbb1" y="1347.200827"/>
     <use style="fill:#008000;stroke:#008000;" x="201.019212" xlink:href="#ma1c634fbb1" y="1322.347464"/>
     <use style="fill:#008000;stroke:#008000;" x="194.389858" xlink:href="#ma1c634fbb1" y="1174.194042"/>
     <use style="fill:#008000;stroke:#008000;" x="210.865185" xlink:href="#ma1c634fbb1" y="1314.967014"/>
     <use style="fill:#008000;stroke:#008000;" x="208.900354" xlink:href="#ma1c634fbb1" y="1319.129248"/>
     <use style="fill:#008000;stroke:#008000;" x="216.435777" xlink:href="#ma1c634fbb1" y="1314.053724"/>
     <use style="fill:#008000;stroke:#008000;" x="229.727354" xlink:href="#ma1c634fbb1" y="1324.322805"/>
     <use style="fill:#008000;stroke:#008000;" x="193.273999" xlink:href="#ma1c634fbb1" y="1335.149151"/>
     <use style="fill:#008000;stroke:#008000;" x="183.956818" xlink:href="#ma1c634fbb1" y="1175.307924"/>
     <use style="fill:#008000;stroke:#008000;" x="210.935377" xlink:href="#ma1c634fbb1" y="1319.01436"/>
     <use style="fill:#008000;stroke:#008000;" x="228.354492" xlink:href="#ma1c634fbb1" y="1316.698122"/>
    </g>
   </g>
   <g id="patch_27">
    <path clip-path="url(#p8aef6d7dfc)" d="M 196.881274 1260.350629 
C 196.881273 1253.269037 194.148742 1246.476536 189.285489 1241.469095 
C 184.422236 1236.461654 177.825323 1233.648108 170.947644 1233.648108 
C 164.069966 1233.648108 157.473053 1236.461655 152.6098 1241.469096 
C 147.746547 1246.476538 145.014017 1253.26904 145.014017 1260.350631 
C 145.014018 1267.432223 147.746549 1274.224724 152.609802 1279.232166 
C 157.473055 1284.239607 164.069968 1287.053153 170.947647 1287.053152 
C 177.825325 1287.053152 184.422238 1284.239606 189.285491 1279.232164 
C 194.148743 1274.224722 196.881274 1267.432221 196.881274 1260.350629 
z
" style="fill:#ff0000;opacity:0.2;stroke:#ff0000;stroke-linejoin:miter;"/>
   </g>
   <g id="patch_28">
    <path clip-path="url(#p8aef6d7dfc)" d="M 196.506217 1261.952215 
C 196.506217 1254.829926 193.765064 1247.998389 188.886466 1242.962171 
C 184.007868 1237.925952 177.390141 1235.096237 170.490762 1235.096238 
C 163.591384 1235.096238 156.973657 1237.925953 152.095059 1242.962172 
C 147.216462 1247.998391 144.47531 1254.829929 144.47531 1261.952218 
C 144.475311 1269.074507 147.216463 1275.906044 152.095061 1280.942262 
C 156.973659 1285.978481 163.591386 1288.808196 170.490765 1288.808195 
C 177.390144 1288.808195 184.007871 1285.97848 188.886468 1280.942261 
C 193.765065 1275.906042 196.506217 1269.074504 196.506217 1261.952215 
z
" style="fill:#0000ff;opacity:0.2;stroke:#0000ff;stroke-linejoin:miter;"/>
   </g>
   <g id="patch_29">
    <path clip-path="url(#p8aef6d7dfc)" d="M 193.25804 1261.835783 
C 193.258039 1231.504678 187.355711 1202.411773 176.850976 1180.964443 
C 166.346241 1159.517114 152.096763 1147.466438 137.240825 1147.466439 
C 122.384888 1147.46644 108.135411 1159.517116 97.630678 1180.964447 
C 87.125944 1202.411778 81.223619 1231.504683 81.22362 1261.835788 
C 81.223622 1292.166893 87.12595 1321.259798 97.630685 1342.707128 
C 108.13542 1364.154458 122.384898 1376.205133 137.240835 1376.205132 
C 152.096773 1376.205132 166.34625 1364.154455 176.850983 1342.707125 
C 187.355716 1321.259794 193.258042 1292.166889 193.25804 1261.835783 
z
" style="fill:#008000;opacity:0.2;stroke:#008000;stroke-linejoin:miter;"/>
   </g>
   <g id="matplotlib.axis_7"/>
   <g id="matplotlib.axis_8"/>
   <g id="patch_30">
    <path d="M 0 1440 
L 0 1080 
" style="fill:none;stroke:#000000;stroke-linecap:square;stroke-linejoin:miter;stroke-width:0.8;"/>
   </g>
   <g id="patch_31">
    <path d="M 360 1440 
L 360 1080 
" style="fill:none;stroke:#000000;stroke-linecap:square;stroke-linejoin:miter;stroke-width:0.8;"/>
   </g>
   <g id="patch_32">
    <path d="M 0 1440 
L 360 1440 
" style="fill:none;stroke:#000000;stroke-linecap:square;stroke-linejoin:miter;stroke-width:0.8;"/>
   </g>
   <g id="patch_33">
    <path d="M 0 1080 
L 360 1080 
" style="fill:none;stroke:#000000;stroke-linecap:square;stroke-linejoin:miter;stroke-width:0.8;"/>
   </g>
  </g>
  <g id="axes_5">
   <g id="patch_34">
    <path d="M 0 1800 
L 360 1800 
L 360 1440 
L 0 1440 
z
" style="fill:#ffffff;"/>
   </g>
   <g id="PathCollection_13">
    <g clip-path="url(#p5ba80cde98)">
     <use style="fill:#ff0000;stroke:#ff0000;" x="182.059938" xlink:href="#ma2c2fc3acd" y="1639.875446"/>
     <use style="fill:#ff0000;stroke:#ff0000;" x="151.86842" xlink:href="#ma2c2fc3acd" y="1628.958313"/>
     <use style="fill:#ff0000;stroke:#ff0000;" x="161.422737" xlink:href="#ma2c2fc3acd" y="1635.234899"/>
     <use style="fill:#ff0000;stroke:#ff0000;" x="191.647698" xlink:href="#ma2c2fc3acd" y="1627.192762"/>
     <use style="fill:#ff0000;stroke:#ff0000;" x="181.664592" xlink:href="#ma2c2fc3acd" y="1628.592997"/>
    </g>
   </g>
   <g id="PathCollection_14">
    <g clip-path="url(#p5ba80cde98)">
     <use style="fill:#0000ff;stroke:#0000ff;" x="132.28099" xlink:href="#m11841d7d48" y="1633.218349"/>
     <use style="fill:#0000ff;stroke:#0000ff;" x="113.815361" xlink:href="#m11841d7d48" y="1646.081932"/>
     <use style="fill:#0000ff;stroke:#0000ff;" x="120.895014" xlink:href="#m11841d7d48" y="1641.946851"/>
     <use style="fill:#0000ff;stroke:#0000ff;" x="130.836863" xlink:href="#m11841d7d48" y="1636.583513"/>
    </g>
   </g>
   <g id="PathCollection_15">
    <g clip-path="url(#p5ba80cde98)">
     <use style="fill:#008000;stroke:#008000;" x="195.471311" xlink:href="#ma1c634fbb1" y="1638.544493"/>
     <use style="fill:#008000;stroke:#008000;" x="217.784912" xlink:href="#ma1c634fbb1" y="1643.242448"/>
     <use style="fill:#008000;stroke:#008000;" x="138.781082" xlink:href="#ma1c634fbb1" y="1634.190506"/>
     <use style="fill:#008000;stroke:#008000;" x="180.053344" xlink:href="#ma1c634fbb1" y="1577.41246"/>
     <use style="fill:#008000;stroke:#008000;" x="140.658763" xlink:href="#ma1c634fbb1" y="1635.598841"/>
     <use style="fill:#008000;stroke:#008000;" x="196.393036" xlink:href="#ma1c634fbb1" y="1572.357325"/>
     <use style="fill:#008000;stroke:#008000;" x="177.28834" xlink:href="#ma1c634fbb1" y="1649.629712"/>
     <use style="fill:#008000;stroke:#008000;" x="179.454523" xlink:href="#ma1c634fbb1" y="1654.904815"/>
     <use style="fill:#008000;stroke:#008000;" x="92.664093" xlink:href="#ma1c634fbb1" y="1665.547013"/>
     <use style="fill:#008000;stroke:#008000;" x="210.059381" xlink:href="#ma1c634fbb1" y="1627.658923"/>
     <use style="fill:#008000;stroke:#008000;" x="185.597345" xlink:href="#ma1c634fbb1" y="1573.951498"/>
     <use style="fill:#008000;stroke:#008000;" x="219.593433" xlink:href="#ma1c634fbb1" y="1635.557788"/>
     <use style="fill:#008000;stroke:#008000;" x="175.934754" xlink:href="#ma1c634fbb1" y="1570.823193"/>
     <use style="fill:#008000;stroke:#008000;" x="176.625722" xlink:href="#ma1c634fbb1" y="1581.140259"/>
     <use style="fill:#008000;stroke:#008000;" x="229.043633" xlink:href="#ma1c634fbb1" y="1639.135853"/>
     <use style="fill:#008000;stroke:#008000;" x="177.415846" xlink:href="#ma1c634fbb1" y="1576.943976"/>
     <use style="fill:#008000;stroke:#008000;" x="207.558706" xlink:href="#ma1c634fbb1" y="1641.229448"/>
     <use style="fill:#008000;stroke:#008000;" x="118.207489" xlink:href="#ma1c634fbb1" y="1650.961106"/>
     <use style="fill:#008000;stroke:#008000;" x="100.806101" xlink:href="#ma1c634fbb1" y="1654.131526"/>
     <use style="fill:#008000;stroke:#008000;" x="167.293352" xlink:href="#ma1c634fbb1" y="1593.082635"/>
     <use style="fill:#008000;stroke:#008000;" x="193.396482" xlink:href="#ma1c634fbb1" y="1637.646523"/>
     <use style="fill:#008000;stroke:#008000;" x="196.638491" xlink:href="#ma1c634fbb1" y="1651.019282"/>
     <use style="fill:#008000;stroke:#008000;" x="160.05864" xlink:href="#ma1c634fbb1" y="1576.887697"/>
     <use style="fill:#008000;stroke:#008000;" x="219.094809" xlink:href="#ma1c634fbb1" y="1644.927629"/>
     <use style="fill:#008000;stroke:#008000;" x="212.881187" xlink:href="#ma1c634fbb1" y="1648.209758"/>
     <use style="fill:#008000;stroke:#008000;" x="178.568081" xlink:href="#ma1c634fbb1" y="1644.452571"/>
     <use style="fill:#008000;stroke:#008000;" x="148.884793" xlink:href="#ma1c634fbb1" y="1653.997252"/>
     <use style="fill:#008000;stroke:#008000;" x="190.144437" xlink:href="#ma1c634fbb1" y="1570.973728"/>
     <use style="fill:#008000;stroke:#008000;" x="193.49356" xlink:href="#ma1c634fbb1" y="1582.207209"/>
     <use style="fill:#008000;stroke:#008000;" x="169.954899" xlink:href="#ma1c634fbb1" y="1572.944601"/>
     <use style="fill:#008000;stroke:#008000;" x="195.134809" xlink:href="#ma1c634fbb1" y="1657.33461"/>
     <use style="fill:#008000;stroke:#008000;" x="189.700443" xlink:href="#ma1c634fbb1" y="1582.49261"/>
     <use style="fill:#008000;stroke:#008000;" x="200.046184" xlink:href="#ma1c634fbb1" y="1645.738243"/>
     <use style="fill:#008000;stroke:#008000;" x="106.426964" xlink:href="#ma1c634fbb1" y="1654.607414"/>
     <use style="fill:#008000;stroke:#008000;" x="204.549691" xlink:href="#ma1c634fbb1" y="1641.030374"/>
     <use style="fill:#008000;stroke:#008000;" x="143.161926" xlink:href="#ma1c634fbb1" y="1656.530823"/>
     <use style="fill:#008000;stroke:#008000;" x="152.406381" xlink:href="#ma1c634fbb1" y="1645.576406"/>
     <use style="fill:#008000;stroke:#008000;" x="215.641657" xlink:href="#ma1c634fbb1" y="1662.309025"/>
     <use style="fill:#008000;stroke:#008000;" x="167.658312" xlink:href="#ma1c634fbb1" y="1581.922634"/>
     <use style="fill:#008000;stroke:#008000;" x="187.030758" xlink:href="#ma1c634fbb1" y="1572.691072"/>
     <use style="fill:#008000;stroke:#008000;" x="124.050287" xlink:href="#ma1c634fbb1" y="1653.14649"/>
     <use style="fill:#008000;stroke:#008000;" x="151.70993" xlink:href="#ma1c634fbb1" y="1661.771845"/>
     <use style="fill:#008000;stroke:#008000;" x="206.115558" xlink:href="#ma1c634fbb1" y="1648.623259"/>
     <use style="fill:#008000;stroke:#008000;" x="168.158995" xlink:href="#ma1c634fbb1" y="1571.83065"/>
     <use style="fill:#008000;stroke:#008000;" x="110.873016" xlink:href="#ma1c634fbb1" y="1649.262508"/>
     <use style="fill:#008000;stroke:#008000;" x="147.783588" xlink:href="#ma1c634fbb1" y="1647.394518"/>
     <use style="fill:#008000;stroke:#008000;" x="184.851541" xlink:href="#ma1c634fbb1" y="1575.990503"/>
     <use style="fill:#008000;stroke:#008000;" x="125.646114" xlink:href="#ma1c634fbb1" y="1650.74271"/>
     <use style="fill:#008000;stroke:#008000;" x="183.940826" xlink:href="#ma1c634fbb1" y="1597.707596"/>
     <use style="fill:#008000;stroke:#008000;" x="188.859949" xlink:href="#ma1c634fbb1" y="1660.273885"/>
     <use style="fill:#008000;stroke:#008000;" x="133.978552" xlink:href="#ma1c634fbb1" y="1646.702107"/>
    </g>
   </g>
   <g id="patch_35">
    <path clip-path="url(#p5ba80cde98)" d="M 182.058432 1646.282969 
C 188.821921 1646.282969 195.309305 1643.65785 200.091814 1638.985764 
C 204.874323 1634.313679 207.561485 1627.976081 207.561485 1621.368755 
C 207.561485 1614.761428 204.874323 1608.42383 200.091814 1603.751745 
C 195.309305 1599.079659 188.821921 1596.45454 182.058432 1596.45454 
C 175.294944 1596.45454 168.80756 1599.079659 164.025051 1603.751745 
C 159.242542 1608.42383 156.55538 1614.761428 156.55538 1621.368755 
C 156.55538 1627.976081 159.242542 1634.313679 164.025051 1638.985764 
C 168.80756 1643.65785 175.294944 1646.282969 182.058432 1646.282969 
z
" style="fill:#ff0000;opacity:0.2;stroke:#ff0000;stroke-linejoin:miter;"/>
   </g>
   <g id="patch_36">
    <path clip-path="url(#p5ba80cde98)" d="M 182.463015 1646.952897 
C 189.277121 1646.952897 195.813057 1644.323436 200.631358 1639.643622 
C 205.449659 1634.963809 208.156932 1628.615729 208.156932 1621.997473 
C 208.156932 1615.379217 205.449659 1609.031137 200.631358 1604.351323 
C 195.813057 1599.671509 189.277121 1597.042048 182.463015 1597.042048 
C 175.648908 1597.042048 169.112972 1599.671509 164.294671 1604.351323 
C 159.476371 1609.031137 156.769097 1615.379217 156.769097 1621.997473 
C 156.769097 1628.615729 159.476371 1634.963809 164.294671 1639.643622 
C 169.112972 1644.323436 175.648908 1646.952897 182.463015 1646.952897 
z
" style="fill:#0000ff;opacity:0.2;stroke:#0000ff;stroke-linejoin:miter;"/>
   </g>
   <g id="patch_37">
    <path clip-path="url(#p5ba80cde98)" d="M 191.761803 1693.998471 
C 214.900617 1693.998471 237.094841 1686.96275 253.456454 1674.440845 
C 269.818067 1661.918939 279.011215 1644.933207 279.011215 1627.224559 
C 279.011215 1609.51591 269.818067 1592.530178 253.456454 1580.008272 
C 237.094841 1567.486367 214.900617 1560.450646 191.761803 1560.450646 
C 168.622988 1560.450646 146.428764 1567.486367 130.067151 1580.008272 
C 113.705539 1592.530178 104.51239 1609.51591 104.51239 1627.224559 
C 104.51239 1644.933207 113.705539 1661.918939 130.067151 1674.440845 
C 146.428764 1686.96275 168.622988 1693.998471 191.761803 1693.998471 
z
" style="fill:#008000;opacity:0.2;stroke:#008000;stroke-linejoin:miter;"/>
   </g>
   <g id="matplotlib.axis_9"/>
   <g id="matplotlib.axis_10"/>
   <g id="patch_38">
    <path d="M 0 1800 
L 0 1440 
" style="fill:none;stroke:#000000;stroke-linecap:square;stroke-linejoin:miter;stroke-width:0.8;"/>
   </g>
   <g id="patch_39">
    <path d="M 360 1800 
L 360 1440 
" style="fill:none;stroke:#000000;stroke-linecap:square;stroke-linejoin:miter;stroke-width:0.8;"/>
   </g>
   <g id="patch_40">
    <path d="M 0 1800 
L 360 1800 
" style="fill:none;stroke:#000000;stroke-linecap:square;stroke-linejoin:miter;stroke-width:0.8;"/>
   </g>
   <g id="patch_41">
    <path d="M 0 1440 
L 360 1440 
" style="fill:none;stroke:#000000;stroke-linecap:square;stroke-linejoin:miter;stroke-width:0.8;"/>
   </g>
  </g>
 </g>
 <defs>
  <clipPath id="p7a1698fad8">
   <rect height="360" width="360" x="0" y="0"/>
  </clipPath>
  <clipPath id="pb0fa73dddf">
   <rect height="360" width="360" x="0" y="360"/>
  </clipPath>
  <clipPath id="p9bcf9f2c10">
   <rect height="360" width="360" x="0" y="720"/>
  </clipPath>
  <clipPath id="p8aef6d7dfc">
   <rect height="360" width="360" x="0" y="1080"/>
  </clipPath>
  <clipPath id="p5ba80cde98">
   <rect height="360" width="360" x="0" y="1440"/>
  </clipPath>
 </defs>
</svg>
