<?xml version="1.0" encoding="utf-8" standalone="no"?>
<!DOCTYPE svg PUBLIC "-//W3C//DTD SVG 1.1//EN"
  "http://www.w3.org/Graphics/SVG/1.1/DTD/svg11.dtd">
<!-- Created with matplotlib (http://matplotlib.org/) -->
<svg height="720pt" version="1.1" viewBox="0 0 1440 720" width="1440pt" xmlns="http://www.w3.org/2000/svg" xmlns:xlink="http://www.w3.org/1999/xlink">
 <defs>
  <style type="text/css">
*{stroke-linecap:butt;stroke-linejoin:round;}
  </style>
 </defs>
 <g id="figure_1">
  <g id="patch_1">
   <path d="M 0 720 
L 1440 720 
L 1440 0 
L 0 0 
z
" style="fill:#ffffff;"/>
  </g>
  <g id="axes_1">
   <g id="patch_2">
    <path d="M 180 630 
L 687.272727 630 
L 687.272727 86.4 
L 180 86.4 
z
" style="fill:#eeeeee;"/>
   </g>
   <g id="matplotlib.axis_1">
    <g id="xtick_1">
     <g id="line2d_1">
      <path clip-path="url(#p91cc623e88)" d="M 203.057851 630 
L 203.057851 86.4 
" style="fill:none;stroke:#ffffff;stroke-linecap:square;stroke-width:3;"/>
     </g>
     <g id="line2d_2">
      <defs>
       <path d="M 0 0 
L 0 -3.5 
" id="m9feb31bc05" style="stroke:#000000;stroke-width:0.8;"/>
      </defs>
      <g>
       <use style="stroke:#000000;stroke-width:0.8;" x="203.057851" xlink:href="#m9feb31bc05" y="630"/>
      </g>
     </g>
     <g id="text_1">
      <!-- 0 -->
      <defs>
       <path d="M 31.78125 66.40625 
Q 24.171875 66.40625 20.328125 58.90625 
Q 16.5 51.421875 16.5 36.375 
Q 16.5 21.390625 20.328125 13.890625 
Q 24.171875 6.390625 31.78125 6.390625 
Q 39.453125 6.390625 43.28125 13.890625 
Q 47.125 21.390625 47.125 36.375 
Q 47.125 51.421875 43.28125 58.90625 
Q 39.453125 66.40625 31.78125 66.40625 
z
M 31.78125 74.21875 
Q 44.046875 74.21875 50.515625 64.515625 
Q 56.984375 54.828125 56.984375 36.375 
Q 56.984375 17.96875 50.515625 8.265625 
Q 44.046875 -1.421875 31.78125 -1.421875 
Q 19.53125 -1.421875 13.0625 8.265625 
Q 6.59375 17.96875 6.59375 36.375 
Q 6.59375 54.828125 13.0625 64.515625 
Q 19.53125 74.21875 31.78125 74.21875 
z
" id="DejaVuSans-30"/>
      </defs>
      <g transform="translate(198.604101 644.137812)scale(0.14 -0.14)">
       <use xlink:href="#DejaVuSans-30"/>
      </g>
     </g>
    </g>
    <g id="xtick_2">
     <g id="line2d_3">
      <path clip-path="url(#p91cc623e88)" d="M 295.659663 630 
L 295.659663 86.4 
" style="fill:none;stroke:#ffffff;stroke-linecap:square;stroke-width:3;"/>
     </g>
     <g id="line2d_4">
      <g>
       <use style="stroke:#000000;stroke-width:0.8;" x="295.659663" xlink:href="#m9feb31bc05" y="630"/>
      </g>
     </g>
     <g id="text_2">
      <!-- 50 -->
      <defs>
       <path d="M 10.796875 72.90625 
L 49.515625 72.90625 
L 49.515625 64.59375 
L 19.828125 64.59375 
L 19.828125 46.734375 
Q 21.96875 47.46875 24.109375 47.828125 
Q 26.265625 48.1875 28.421875 48.1875 
Q 40.625 48.1875 47.75 41.5 
Q 54.890625 34.8125 54.890625 23.390625 
Q 54.890625 11.625 47.5625 5.09375 
Q 40.234375 -1.421875 26.90625 -1.421875 
Q 22.3125 -1.421875 17.546875 -0.640625 
Q 12.796875 0.140625 7.71875 1.703125 
L 7.71875 11.625 
Q 12.109375 9.234375 16.796875 8.0625 
Q 21.484375 6.890625 26.703125 6.890625 
Q 35.15625 6.890625 40.078125 11.328125 
Q 45.015625 15.765625 45.015625 23.390625 
Q 45.015625 31 40.078125 35.4375 
Q 35.15625 39.890625 26.703125 39.890625 
Q 22.75 39.890625 18.8125 39.015625 
Q 14.890625 38.140625 10.796875 36.28125 
z
" id="DejaVuSans-35"/>
      </defs>
      <g transform="translate(286.752163 644.137812)scale(0.14 -0.14)">
       <use xlink:href="#DejaVuSans-35"/>
       <use x="63.623047" xlink:href="#DejaVuSans-30"/>
      </g>
     </g>
    </g>
    <g id="xtick_3">
     <g id="line2d_5">
      <path clip-path="url(#p91cc623e88)" d="M 388.261476 630 
L 388.261476 86.4 
" style="fill:none;stroke:#ffffff;stroke-linecap:square;stroke-width:3;"/>
     </g>
     <g id="line2d_6">
      <g>
       <use style="stroke:#000000;stroke-width:0.8;" x="388.261476" xlink:href="#m9feb31bc05" y="630"/>
      </g>
     </g>
     <g id="text_3">
      <!-- 100 -->
      <defs>
       <path d="M 12.40625 8.296875 
L 28.515625 8.296875 
L 28.515625 63.921875 
L 10.984375 60.40625 
L 10.984375 69.390625 
L 28.421875 72.90625 
L 38.28125 72.90625 
L 38.28125 8.296875 
L 54.390625 8.296875 
L 54.390625 0 
L 12.40625 0 
z
" id="DejaVuSans-31"/>
      </defs>
      <g transform="translate(374.900226 644.137812)scale(0.14 -0.14)">
       <use xlink:href="#DejaVuSans-31"/>
       <use x="63.623047" xlink:href="#DejaVuSans-30"/>
       <use x="127.246094" xlink:href="#DejaVuSans-30"/>
      </g>
     </g>
    </g>
    <g id="xtick_4">
     <g id="line2d_7">
      <path clip-path="url(#p91cc623e88)" d="M 480.863288 630 
L 480.863288 86.4 
" style="fill:none;stroke:#ffffff;stroke-linecap:square;stroke-width:3;"/>
     </g>
     <g id="line2d_8">
      <g>
       <use style="stroke:#000000;stroke-width:0.8;" x="480.863288" xlink:href="#m9feb31bc05" y="630"/>
      </g>
     </g>
     <g id="text_4">
      <!-- 150 -->
      <g transform="translate(467.502038 644.137812)scale(0.14 -0.14)">
       <use xlink:href="#DejaVuSans-31"/>
       <use x="63.623047" xlink:href="#DejaVuSans-35"/>
       <use x="127.246094" xlink:href="#DejaVuSans-30"/>
      </g>
     </g>
    </g>
    <g id="xtick_5">
     <g id="line2d_9">
      <path clip-path="url(#p91cc623e88)" d="M 573.4651 630 
L 573.4651 86.4 
" style="fill:none;stroke:#ffffff;stroke-linecap:square;stroke-width:3;"/>
     </g>
     <g id="line2d_10">
      <g>
       <use style="stroke:#000000;stroke-width:0.8;" x="573.4651" xlink:href="#m9feb31bc05" y="630"/>
      </g>
     </g>
     <g id="text_5">
      <!-- 200 -->
      <defs>
       <path d="M 19.1875 8.296875 
L 53.609375 8.296875 
L 53.609375 0 
L 7.328125 0 
L 7.328125 8.296875 
Q 12.9375 14.109375 22.625 23.890625 
Q 32.328125 33.6875 34.8125 36.53125 
Q 39.546875 41.84375 41.421875 45.53125 
Q 43.3125 49.21875 43.3125 52.78125 
Q 43.3125 58.59375 39.234375 62.25 
Q 35.15625 65.921875 28.609375 65.921875 
Q 23.96875 65.921875 18.8125 64.3125 
Q 13.671875 62.703125 7.8125 59.421875 
L 7.8125 69.390625 
Q 13.765625 71.78125 18.9375 73 
Q 24.125 74.21875 28.421875 74.21875 
Q 39.75 74.21875 46.484375 68.546875 
Q 53.21875 62.890625 53.21875 53.421875 
Q 53.21875 48.921875 51.53125 44.890625 
Q 49.859375 40.875 45.40625 35.40625 
Q 44.1875 33.984375 37.640625 27.21875 
Q 31.109375 20.453125 19.1875 8.296875 
z
" id="DejaVuSans-32"/>
      </defs>
      <g transform="translate(560.10385 644.137812)scale(0.14 -0.14)">
       <use xlink:href="#DejaVuSans-32"/>
       <use x="63.623047" xlink:href="#DejaVuSans-30"/>
       <use x="127.246094" xlink:href="#DejaVuSans-30"/>
      </g>
     </g>
    </g>
    <g id="xtick_6">
     <g id="line2d_11">
      <path clip-path="url(#p91cc623e88)" d="M 666.066912 630 
L 666.066912 86.4 
" style="fill:none;stroke:#ffffff;stroke-linecap:square;stroke-width:3;"/>
     </g>
     <g id="line2d_12">
      <g>
       <use style="stroke:#000000;stroke-width:0.8;" x="666.066912" xlink:href="#m9feb31bc05" y="630"/>
      </g>
     </g>
     <g id="text_6">
      <!-- 250 -->
      <g transform="translate(652.705662 644.137812)scale(0.14 -0.14)">
       <use xlink:href="#DejaVuSans-32"/>
       <use x="63.623047" xlink:href="#DejaVuSans-35"/>
       <use x="127.246094" xlink:href="#DejaVuSans-30"/>
      </g>
     </g>
    </g>
    <g id="text_7">
     <!-- Epochs (1000 gradient steps per epoch) -->
     <defs>
      <path d="M 9.8125 72.90625 
L 55.90625 72.90625 
L 55.90625 64.59375 
L 19.671875 64.59375 
L 19.671875 43.015625 
L 54.390625 43.015625 
L 54.390625 34.71875 
L 19.671875 34.71875 
L 19.671875 8.296875 
L 56.78125 8.296875 
L 56.78125 0 
L 9.8125 0 
z
" id="DejaVuSans-45"/>
      <path d="M 18.109375 8.203125 
L 18.109375 -20.796875 
L 9.078125 -20.796875 
L 9.078125 54.6875 
L 18.109375 54.6875 
L 18.109375 46.390625 
Q 20.953125 51.265625 25.265625 53.625 
Q 29.59375 56 35.59375 56 
Q 45.5625 56 51.78125 48.09375 
Q 58.015625 40.1875 58.015625 27.296875 
Q 58.015625 14.40625 51.78125 6.484375 
Q 45.5625 -1.421875 35.59375 -1.421875 
Q 29.59375 -1.421875 25.265625 0.953125 
Q 20.953125 3.328125 18.109375 8.203125 
z
M 48.6875 27.296875 
Q 48.6875 37.203125 44.609375 42.84375 
Q 40.53125 48.484375 33.40625 48.484375 
Q 26.265625 48.484375 22.1875 42.84375 
Q 18.109375 37.203125 18.109375 27.296875 
Q 18.109375 17.390625 22.1875 11.75 
Q 26.265625 6.109375 33.40625 6.109375 
Q 40.53125 6.109375 44.609375 11.75 
Q 48.6875 17.390625 48.6875 27.296875 
z
" id="DejaVuSans-70"/>
      <path d="M 30.609375 48.390625 
Q 23.390625 48.390625 19.1875 42.75 
Q 14.984375 37.109375 14.984375 27.296875 
Q 14.984375 17.484375 19.15625 11.84375 
Q 23.34375 6.203125 30.609375 6.203125 
Q 37.796875 6.203125 41.984375 11.859375 
Q 46.1875 17.53125 46.1875 27.296875 
Q 46.1875 37.015625 41.984375 42.703125 
Q 37.796875 48.390625 30.609375 48.390625 
z
M 30.609375 56 
Q 42.328125 56 49.015625 48.375 
Q 55.71875 40.765625 55.71875 27.296875 
Q 55.71875 13.875 49.015625 6.21875 
Q 42.328125 -1.421875 30.609375 -1.421875 
Q 18.84375 -1.421875 12.171875 6.21875 
Q 5.515625 13.875 5.515625 27.296875 
Q 5.515625 40.765625 12.171875 48.375 
Q 18.84375 56 30.609375 56 
z
" id="DejaVuSans-6f"/>
      <path d="M 48.78125 52.59375 
L 48.78125 44.1875 
Q 44.96875 46.296875 41.140625 47.34375 
Q 37.3125 48.390625 33.40625 48.390625 
Q 24.65625 48.390625 19.8125 42.84375 
Q 14.984375 37.3125 14.984375 27.296875 
Q 14.984375 17.28125 19.8125 11.734375 
Q 24.65625 6.203125 33.40625 6.203125 
Q 37.3125 6.203125 41.140625 7.25 
Q 44.96875 8.296875 48.78125 10.40625 
L 48.78125 2.09375 
Q 45.015625 0.34375 40.984375 -0.53125 
Q 36.96875 -1.421875 32.421875 -1.421875 
Q 20.0625 -1.421875 12.78125 6.34375 
Q 5.515625 14.109375 5.515625 27.296875 
Q 5.515625 40.671875 12.859375 48.328125 
Q 20.21875 56 33.015625 56 
Q 37.15625 56 41.109375 55.140625 
Q 45.0625 54.296875 48.78125 52.59375 
z
" id="DejaVuSans-63"/>
      <path d="M 54.890625 33.015625 
L 54.890625 0 
L 45.90625 0 
L 45.90625 32.71875 
Q 45.90625 40.484375 42.875 44.328125 
Q 39.84375 48.1875 33.796875 48.1875 
Q 26.515625 48.1875 22.3125 43.546875 
Q 18.109375 38.921875 18.109375 30.90625 
L 18.109375 0 
L 9.078125 0 
L 9.078125 75.984375 
L 18.109375 75.984375 
L 18.109375 46.1875 
Q 21.34375 51.125 25.703125 53.5625 
Q 30.078125 56 35.796875 56 
Q 45.21875 56 50.046875 50.171875 
Q 54.890625 44.34375 54.890625 33.015625 
z
" id="DejaVuSans-68"/>
      <path d="M 44.28125 53.078125 
L 44.28125 44.578125 
Q 40.484375 46.53125 36.375 47.5 
Q 32.28125 48.484375 27.875 48.484375 
Q 21.1875 48.484375 17.84375 46.4375 
Q 14.5 44.390625 14.5 40.28125 
Q 14.5 37.15625 16.890625 35.375 
Q 19.28125 33.59375 26.515625 31.984375 
L 29.59375 31.296875 
Q 39.15625 29.25 43.1875 25.515625 
Q 47.21875 21.78125 47.21875 15.09375 
Q 47.21875 7.46875 41.1875 3.015625 
Q 35.15625 -1.421875 24.609375 -1.421875 
Q 20.21875 -1.421875 15.453125 -0.5625 
Q 10.6875 0.296875 5.421875 2 
L 5.421875 11.28125 
Q 10.40625 8.6875 15.234375 7.390625 
Q 20.0625 6.109375 24.8125 6.109375 
Q 31.15625 6.109375 34.5625 8.28125 
Q 37.984375 10.453125 37.984375 14.40625 
Q 37.984375 18.0625 35.515625 20.015625 
Q 33.0625 21.96875 24.703125 23.78125 
L 21.578125 24.515625 
Q 13.234375 26.265625 9.515625 29.90625 
Q 5.8125 33.546875 5.8125 39.890625 
Q 5.8125 47.609375 11.28125 51.796875 
Q 16.75 56 26.8125 56 
Q 31.78125 56 36.171875 55.265625 
Q 40.578125 54.546875 44.28125 53.078125 
z
" id="DejaVuSans-73"/>
      <path id="DejaVuSans-20"/>
      <path d="M 31 75.875 
Q 24.46875 64.65625 21.28125 53.65625 
Q 18.109375 42.671875 18.109375 31.390625 
Q 18.109375 20.125 21.3125 9.0625 
Q 24.515625 -2 31 -13.1875 
L 23.1875 -13.1875 
Q 15.875 -1.703125 12.234375 9.375 
Q 8.59375 20.453125 8.59375 31.390625 
Q 8.59375 42.28125 12.203125 53.3125 
Q 15.828125 64.359375 23.1875 75.875 
z
" id="DejaVuSans-28"/>
      <path d="M 45.40625 27.984375 
Q 45.40625 37.75 41.375 43.109375 
Q 37.359375 48.484375 30.078125 48.484375 
Q 22.859375 48.484375 18.828125 43.109375 
Q 14.796875 37.75 14.796875 27.984375 
Q 14.796875 18.265625 18.828125 12.890625 
Q 22.859375 7.515625 30.078125 7.515625 
Q 37.359375 7.515625 41.375 12.890625 
Q 45.40625 18.265625 45.40625 27.984375 
z
M 54.390625 6.78125 
Q 54.390625 -7.171875 48.1875 -13.984375 
Q 42 -20.796875 29.203125 -20.796875 
Q 24.46875 -20.796875 20.265625 -20.09375 
Q 16.0625 -19.390625 12.109375 -17.921875 
L 12.109375 -9.1875 
Q 16.0625 -11.328125 19.921875 -12.34375 
Q 23.78125 -13.375 27.78125 -13.375 
Q 36.625 -13.375 41.015625 -8.765625 
Q 45.40625 -4.15625 45.40625 5.171875 
L 45.40625 9.625 
Q 42.625 4.78125 38.28125 2.390625 
Q 33.9375 0 27.875 0 
Q 17.828125 0 11.671875 7.65625 
Q 5.515625 15.328125 5.515625 27.984375 
Q 5.515625 40.671875 11.671875 48.328125 
Q 17.828125 56 27.875 56 
Q 33.9375 56 38.28125 53.609375 
Q 42.625 51.21875 45.40625 46.390625 
L 45.40625 54.6875 
L 54.390625 54.6875 
z
" id="DejaVuSans-67"/>
      <path d="M 41.109375 46.296875 
Q 39.59375 47.171875 37.8125 47.578125 
Q 36.03125 48 33.890625 48 
Q 26.265625 48 22.1875 43.046875 
Q 18.109375 38.09375 18.109375 28.8125 
L 18.109375 0 
L 9.078125 0 
L 9.078125 54.6875 
L 18.109375 54.6875 
L 18.109375 46.1875 
Q 20.953125 51.171875 25.484375 53.578125 
Q 30.03125 56 36.53125 56 
Q 37.453125 56 38.578125 55.875 
Q 39.703125 55.765625 41.0625 55.515625 
z
" id="DejaVuSans-72"/>
      <path d="M 34.28125 27.484375 
Q 23.390625 27.484375 19.1875 25 
Q 14.984375 22.515625 14.984375 16.5 
Q 14.984375 11.71875 18.140625 8.90625 
Q 21.296875 6.109375 26.703125 6.109375 
Q 34.1875 6.109375 38.703125 11.40625 
Q 43.21875 16.703125 43.21875 25.484375 
L 43.21875 27.484375 
z
M 52.203125 31.203125 
L 52.203125 0 
L 43.21875 0 
L 43.21875 8.296875 
Q 40.140625 3.328125 35.546875 0.953125 
Q 30.953125 -1.421875 24.3125 -1.421875 
Q 15.921875 -1.421875 10.953125 3.296875 
Q 6 8.015625 6 15.921875 
Q 6 25.140625 12.171875 29.828125 
Q 18.359375 34.515625 30.609375 34.515625 
L 43.21875 34.515625 
L 43.21875 35.40625 
Q 43.21875 41.609375 39.140625 45 
Q 35.0625 48.390625 27.6875 48.390625 
Q 23 48.390625 18.546875 47.265625 
Q 14.109375 46.140625 10.015625 43.890625 
L 10.015625 52.203125 
Q 14.9375 54.109375 19.578125 55.046875 
Q 24.21875 56 28.609375 56 
Q 40.484375 56 46.34375 49.84375 
Q 52.203125 43.703125 52.203125 31.203125 
z
" id="DejaVuSans-61"/>
      <path d="M 45.40625 46.390625 
L 45.40625 75.984375 
L 54.390625 75.984375 
L 54.390625 0 
L 45.40625 0 
L 45.40625 8.203125 
Q 42.578125 3.328125 38.25 0.953125 
Q 33.9375 -1.421875 27.875 -1.421875 
Q 17.96875 -1.421875 11.734375 6.484375 
Q 5.515625 14.40625 5.515625 27.296875 
Q 5.515625 40.1875 11.734375 48.09375 
Q 17.96875 56 27.875 56 
Q 33.9375 56 38.25 53.625 
Q 42.578125 51.265625 45.40625 46.390625 
z
M 14.796875 27.296875 
Q 14.796875 17.390625 18.875 11.75 
Q 22.953125 6.109375 30.078125 6.109375 
Q 37.203125 6.109375 41.296875 11.75 
Q 45.40625 17.390625 45.40625 27.296875 
Q 45.40625 37.203125 41.296875 42.84375 
Q 37.203125 48.484375 30.078125 48.484375 
Q 22.953125 48.484375 18.875 42.84375 
Q 14.796875 37.203125 14.796875 27.296875 
z
" id="DejaVuSans-64"/>
      <path d="M 9.421875 54.6875 
L 18.40625 54.6875 
L 18.40625 0 
L 9.421875 0 
z
M 9.421875 75.984375 
L 18.40625 75.984375 
L 18.40625 64.59375 
L 9.421875 64.59375 
z
" id="DejaVuSans-69"/>
      <path d="M 56.203125 29.59375 
L 56.203125 25.203125 
L 14.890625 25.203125 
Q 15.484375 15.921875 20.484375 11.0625 
Q 25.484375 6.203125 34.421875 6.203125 
Q 39.59375 6.203125 44.453125 7.46875 
Q 49.3125 8.734375 54.109375 11.28125 
L 54.109375 2.78125 
Q 49.265625 0.734375 44.1875 -0.34375 
Q 39.109375 -1.421875 33.890625 -1.421875 
Q 20.796875 -1.421875 13.15625 6.1875 
Q 5.515625 13.8125 5.515625 26.8125 
Q 5.515625 40.234375 12.765625 48.109375 
Q 20.015625 56 32.328125 56 
Q 43.359375 56 49.78125 48.890625 
Q 56.203125 41.796875 56.203125 29.59375 
z
M 47.21875 32.234375 
Q 47.125 39.59375 43.09375 43.984375 
Q 39.0625 48.390625 32.421875 48.390625 
Q 24.90625 48.390625 20.390625 44.140625 
Q 15.875 39.890625 15.1875 32.171875 
z
" id="DejaVuSans-65"/>
      <path d="M 54.890625 33.015625 
L 54.890625 0 
L 45.90625 0 
L 45.90625 32.71875 
Q 45.90625 40.484375 42.875 44.328125 
Q 39.84375 48.1875 33.796875 48.1875 
Q 26.515625 48.1875 22.3125 43.546875 
Q 18.109375 38.921875 18.109375 30.90625 
L 18.109375 0 
L 9.078125 0 
L 9.078125 54.6875 
L 18.109375 54.6875 
L 18.109375 46.1875 
Q 21.34375 51.125 25.703125 53.5625 
Q 30.078125 56 35.796875 56 
Q 45.21875 56 50.046875 50.171875 
Q 54.890625 44.34375 54.890625 33.015625 
z
" id="DejaVuSans-6e"/>
      <path d="M 18.3125 70.21875 
L 18.3125 54.6875 
L 36.8125 54.6875 
L 36.8125 47.703125 
L 18.3125 47.703125 
L 18.3125 18.015625 
Q 18.3125 11.328125 20.140625 9.421875 
Q 21.96875 7.515625 27.59375 7.515625 
L 36.8125 7.515625 
L 36.8125 0 
L 27.59375 0 
Q 17.1875 0 13.234375 3.875 
Q 9.28125 7.765625 9.28125 18.015625 
L 9.28125 47.703125 
L 2.6875 47.703125 
L 2.6875 54.6875 
L 9.28125 54.6875 
L 9.28125 70.21875 
z
" id="DejaVuSans-74"/>
      <path d="M 8.015625 75.875 
L 15.828125 75.875 
Q 23.140625 64.359375 26.78125 53.3125 
Q 30.421875 42.28125 30.421875 31.390625 
Q 30.421875 20.453125 26.78125 9.375 
Q 23.140625 -1.703125 15.828125 -13.1875 
L 8.015625 -13.1875 
Q 14.5 -2 17.703125 9.0625 
Q 20.90625 20.125 20.90625 31.390625 
Q 20.90625 42.671875 17.703125 53.65625 
Q 14.5 64.65625 8.015625 75.875 
z
" id="DejaVuSans-29"/>
     </defs>
     <g transform="translate(292.929801 661.687188)scale(0.14 -0.14)">
      <use xlink:href="#DejaVuSans-45"/>
      <use x="63.183594" xlink:href="#DejaVuSans-70"/>
      <use x="126.660156" xlink:href="#DejaVuSans-6f"/>
      <use x="187.841797" xlink:href="#DejaVuSans-63"/>
      <use x="242.822266" xlink:href="#DejaVuSans-68"/>
      <use x="306.201172" xlink:href="#DejaVuSans-73"/>
      <use x="358.300781" xlink:href="#DejaVuSans-20"/>
      <use x="390.087891" xlink:href="#DejaVuSans-28"/>
      <use x="429.101562" xlink:href="#DejaVuSans-31"/>
      <use x="492.724609" xlink:href="#DejaVuSans-30"/>
      <use x="556.347656" xlink:href="#DejaVuSans-30"/>
      <use x="619.970703" xlink:href="#DejaVuSans-30"/>
      <use x="683.59375" xlink:href="#DejaVuSans-20"/>
      <use x="715.380859" xlink:href="#DejaVuSans-67"/>
      <use x="778.857422" xlink:href="#DejaVuSans-72"/>
      <use x="819.970703" xlink:href="#DejaVuSans-61"/>
      <use x="881.25" xlink:href="#DejaVuSans-64"/>
      <use x="944.726562" xlink:href="#DejaVuSans-69"/>
      <use x="972.509766" xlink:href="#DejaVuSans-65"/>
      <use x="1034.033203" xlink:href="#DejaVuSans-6e"/>
      <use x="1097.412109" xlink:href="#DejaVuSans-74"/>
      <use x="1136.621094" xlink:href="#DejaVuSans-20"/>
      <use x="1168.408203" xlink:href="#DejaVuSans-73"/>
      <use x="1220.507812" xlink:href="#DejaVuSans-74"/>
      <use x="1259.716797" xlink:href="#DejaVuSans-65"/>
      <use x="1321.240234" xlink:href="#DejaVuSans-70"/>
      <use x="1384.716797" xlink:href="#DejaVuSans-73"/>
      <use x="1436.816406" xlink:href="#DejaVuSans-20"/>
      <use x="1468.603516" xlink:href="#DejaVuSans-70"/>
      <use x="1532.080078" xlink:href="#DejaVuSans-65"/>
      <use x="1593.603516" xlink:href="#DejaVuSans-72"/>
      <use x="1634.716797" xlink:href="#DejaVuSans-20"/>
      <use x="1666.503906" xlink:href="#DejaVuSans-65"/>
      <use x="1728.027344" xlink:href="#DejaVuSans-70"/>
      <use x="1791.503906" xlink:href="#DejaVuSans-6f"/>
      <use x="1852.685547" xlink:href="#DejaVuSans-63"/>
      <use x="1907.666016" xlink:href="#DejaVuSans-68"/>
      <use x="1971.044922" xlink:href="#DejaVuSans-29"/>
     </g>
    </g>
   </g>
   <g id="matplotlib.axis_2">
    <g id="ytick_1">
     <g id="line2d_13">
      <path clip-path="url(#p91cc623e88)" d="M 180 591.301385 
L 687.272727 591.301385 
" style="fill:none;stroke:#ffffff;stroke-linecap:square;stroke-width:3;"/>
     </g>
     <g id="line2d_14">
      <defs>
       <path d="M 0 0 
L 3.5 0 
" id="m90a5b74e40" style="stroke:#000000;stroke-width:0.8;"/>
      </defs>
      <g>
       <use style="stroke:#000000;stroke-width:0.8;" x="180" xlink:href="#m90a5b74e40" y="591.301385"/>
      </g>
     </g>
     <g id="text_8">
      <!-- $\mathdefault{10^{0}}$ -->
      <g transform="translate(151.86 596.620291)scale(0.14 -0.14)">
       <use transform="translate(0 0.765625)" xlink:href="#DejaVuSans-31"/>
       <use transform="translate(63.623047 0.765625)" xlink:href="#DejaVuSans-30"/>
       <use transform="translate(128.203125 39.046875)scale(0.7)" xlink:href="#DejaVuSans-30"/>
      </g>
     </g>
    </g>
    <g id="ytick_2">
     <g id="line2d_15">
      <path clip-path="url(#p91cc623e88)" d="M 180 413.845809 
L 687.272727 413.845809 
" style="fill:none;stroke:#ffffff;stroke-linecap:square;stroke-width:3;"/>
     </g>
     <g id="line2d_16">
      <g>
       <use style="stroke:#000000;stroke-width:0.8;" x="180" xlink:href="#m90a5b74e40" y="413.845809"/>
      </g>
     </g>
     <g id="text_9">
      <!-- $\mathdefault{10^{1}}$ -->
      <g transform="translate(151.86 419.164716)scale(0.14 -0.14)">
       <use transform="translate(0 0.684375)" xlink:href="#DejaVuSans-31"/>
       <use transform="translate(63.623047 0.684375)" xlink:href="#DejaVuSans-30"/>
       <use transform="translate(128.203125 38.965625)scale(0.7)" xlink:href="#DejaVuSans-31"/>
      </g>
     </g>
    </g>
    <g id="ytick_3">
     <g id="line2d_17">
      <path clip-path="url(#p91cc623e88)" d="M 180 236.390234 
L 687.272727 236.390234 
" style="fill:none;stroke:#ffffff;stroke-linecap:square;stroke-width:3;"/>
     </g>
     <g id="line2d_18">
      <g>
       <use style="stroke:#000000;stroke-width:0.8;" x="180" xlink:href="#m90a5b74e40" y="236.390234"/>
      </g>
     </g>
     <g id="text_10">
      <!-- $\mathdefault{10^{2}}$ -->
      <g transform="translate(151.86 241.70914)scale(0.14 -0.14)">
       <use transform="translate(0 0.765625)" xlink:href="#DejaVuSans-31"/>
       <use transform="translate(63.623047 0.765625)" xlink:href="#DejaVuSans-30"/>
       <use transform="translate(128.203125 39.046875)scale(0.7)" xlink:href="#DejaVuSans-32"/>
      </g>
     </g>
    </g>
    <g id="ytick_4">
     <g id="line2d_19">
      <defs>
       <path d="M 0 0 
L 2 0 
" id="mb0bf75929c" style="stroke:#000000;stroke-width:0.6;"/>
      </defs>
      <g>
       <use style="stroke:#000000;stroke-width:0.6;" x="180" xlink:href="#mb0bf75929c" y="618.789602"/>
      </g>
     </g>
    </g>
    <g id="ytick_5">
     <g id="line2d_20">
      <g>
       <use style="stroke:#000000;stroke-width:0.6;" x="180" xlink:href="#mb0bf75929c" y="608.498607"/>
      </g>
     </g>
    </g>
    <g id="ytick_6">
     <g id="line2d_21">
      <g>
       <use style="stroke:#000000;stroke-width:0.6;" x="180" xlink:href="#mb0bf75929c" y="599.421307"/>
      </g>
     </g>
    </g>
    <g id="ytick_7">
     <g id="line2d_22">
      <g>
       <use style="stroke:#000000;stroke-width:0.6;" x="180" xlink:href="#mb0bf75929c" y="537.881934"/>
      </g>
     </g>
    </g>
    <g id="ytick_8">
     <g id="line2d_23">
      <g>
       <use style="stroke:#000000;stroke-width:0.6;" x="180" xlink:href="#mb0bf75929c" y="506.633558"/>
      </g>
     </g>
    </g>
    <g id="ytick_9">
     <g id="line2d_24">
      <g>
       <use style="stroke:#000000;stroke-width:0.6;" x="180" xlink:href="#mb0bf75929c" y="484.462483"/>
      </g>
     </g>
    </g>
    <g id="ytick_10">
     <g id="line2d_25">
      <g>
       <use style="stroke:#000000;stroke-width:0.6;" x="180" xlink:href="#mb0bf75929c" y="467.265261"/>
      </g>
     </g>
    </g>
    <g id="ytick_11">
     <g id="line2d_26">
      <g>
       <use style="stroke:#000000;stroke-width:0.6;" x="180" xlink:href="#mb0bf75929c" y="453.214107"/>
      </g>
     </g>
    </g>
    <g id="ytick_12">
     <g id="line2d_27">
      <g>
       <use style="stroke:#000000;stroke-width:0.6;" x="180" xlink:href="#mb0bf75929c" y="441.334026"/>
      </g>
     </g>
    </g>
    <g id="ytick_13">
     <g id="line2d_28">
      <g>
       <use style="stroke:#000000;stroke-width:0.6;" x="180" xlink:href="#mb0bf75929c" y="431.043032"/>
      </g>
     </g>
    </g>
    <g id="ytick_14">
     <g id="line2d_29">
      <g>
       <use style="stroke:#000000;stroke-width:0.6;" x="180" xlink:href="#mb0bf75929c" y="421.965731"/>
      </g>
     </g>
    </g>
    <g id="ytick_15">
     <g id="line2d_30">
      <g>
       <use style="stroke:#000000;stroke-width:0.6;" x="180" xlink:href="#mb0bf75929c" y="360.426358"/>
      </g>
     </g>
    </g>
    <g id="ytick_16">
     <g id="line2d_31">
      <g>
       <use style="stroke:#000000;stroke-width:0.6;" x="180" xlink:href="#mb0bf75929c" y="329.177982"/>
      </g>
     </g>
    </g>
    <g id="ytick_17">
     <g id="line2d_32">
      <g>
       <use style="stroke:#000000;stroke-width:0.6;" x="180" xlink:href="#mb0bf75929c" y="307.006907"/>
      </g>
     </g>
    </g>
    <g id="ytick_18">
     <g id="line2d_33">
      <g>
       <use style="stroke:#000000;stroke-width:0.6;" x="180" xlink:href="#mb0bf75929c" y="289.809685"/>
      </g>
     </g>
    </g>
    <g id="ytick_19">
     <g id="line2d_34">
      <g>
       <use style="stroke:#000000;stroke-width:0.6;" x="180" xlink:href="#mb0bf75929c" y="275.758531"/>
      </g>
     </g>
    </g>
    <g id="ytick_20">
     <g id="line2d_35">
      <g>
       <use style="stroke:#000000;stroke-width:0.6;" x="180" xlink:href="#mb0bf75929c" y="263.87845"/>
      </g>
     </g>
    </g>
    <g id="ytick_21">
     <g id="line2d_36">
      <g>
       <use style="stroke:#000000;stroke-width:0.6;" x="180" xlink:href="#mb0bf75929c" y="253.587456"/>
      </g>
     </g>
    </g>
    <g id="ytick_22">
     <g id="line2d_37">
      <g>
       <use style="stroke:#000000;stroke-width:0.6;" x="180" xlink:href="#mb0bf75929c" y="244.510156"/>
      </g>
     </g>
    </g>
    <g id="ytick_23">
     <g id="line2d_38">
      <g>
       <use style="stroke:#000000;stroke-width:0.6;" x="180" xlink:href="#mb0bf75929c" y="182.970782"/>
      </g>
     </g>
    </g>
    <g id="ytick_24">
     <g id="line2d_39">
      <g>
       <use style="stroke:#000000;stroke-width:0.6;" x="180" xlink:href="#mb0bf75929c" y="151.722407"/>
      </g>
     </g>
    </g>
    <g id="ytick_25">
     <g id="line2d_40">
      <g>
       <use style="stroke:#000000;stroke-width:0.6;" x="180" xlink:href="#mb0bf75929c" y="129.551331"/>
      </g>
     </g>
    </g>
    <g id="ytick_26">
     <g id="line2d_41">
      <g>
       <use style="stroke:#000000;stroke-width:0.6;" x="180" xlink:href="#mb0bf75929c" y="112.354109"/>
      </g>
     </g>
    </g>
    <g id="ytick_27">
     <g id="line2d_42">
      <g>
       <use style="stroke:#000000;stroke-width:0.6;" x="180" xlink:href="#mb0bf75929c" y="98.302955"/>
      </g>
     </g>
    </g>
    <g id="ytick_28">
     <g id="line2d_43">
      <g>
       <use style="stroke:#000000;stroke-width:0.6;" x="180" xlink:href="#mb0bf75929c" y="86.422874"/>
      </g>
     </g>
    </g>
    <g id="text_11">
     <!-- Symmetric KL on detailed balance -->
     <defs>
      <path d="M 53.515625 70.515625 
L 53.515625 60.890625 
Q 47.90625 63.578125 42.921875 64.890625 
Q 37.9375 66.21875 33.296875 66.21875 
Q 25.25 66.21875 20.875 63.09375 
Q 16.5 59.96875 16.5 54.203125 
Q 16.5 49.359375 19.40625 46.890625 
Q 22.3125 44.4375 30.421875 42.921875 
L 36.375 41.703125 
Q 47.40625 39.59375 52.65625 34.296875 
Q 57.90625 29 57.90625 20.125 
Q 57.90625 9.515625 50.796875 4.046875 
Q 43.703125 -1.421875 29.984375 -1.421875 
Q 24.8125 -1.421875 18.96875 -0.25 
Q 13.140625 0.921875 6.890625 3.21875 
L 6.890625 13.375 
Q 12.890625 10.015625 18.65625 8.296875 
Q 24.421875 6.59375 29.984375 6.59375 
Q 38.421875 6.59375 43.015625 9.90625 
Q 47.609375 13.234375 47.609375 19.390625 
Q 47.609375 24.75 44.3125 27.78125 
Q 41.015625 30.8125 33.5 32.328125 
L 27.484375 33.5 
Q 16.453125 35.6875 11.515625 40.375 
Q 6.59375 45.0625 6.59375 53.421875 
Q 6.59375 63.09375 13.40625 68.65625 
Q 20.21875 74.21875 32.171875 74.21875 
Q 37.3125 74.21875 42.625 73.28125 
Q 47.953125 72.359375 53.515625 70.515625 
z
" id="DejaVuSans-53"/>
      <path d="M 32.171875 -5.078125 
Q 28.375 -14.84375 24.75 -17.8125 
Q 21.140625 -20.796875 15.09375 -20.796875 
L 7.90625 -20.796875 
L 7.90625 -13.28125 
L 13.1875 -13.28125 
Q 16.890625 -13.28125 18.9375 -11.515625 
Q 21 -9.765625 23.484375 -3.21875 
L 25.09375 0.875 
L 2.984375 54.6875 
L 12.5 54.6875 
L 29.59375 11.921875 
L 46.6875 54.6875 
L 56.203125 54.6875 
z
" id="DejaVuSans-79"/>
      <path d="M 52 44.1875 
Q 55.375 50.25 60.0625 53.125 
Q 64.75 56 71.09375 56 
Q 79.640625 56 84.28125 50.015625 
Q 88.921875 44.046875 88.921875 33.015625 
L 88.921875 0 
L 79.890625 0 
L 79.890625 32.71875 
Q 79.890625 40.578125 77.09375 44.375 
Q 74.3125 48.1875 68.609375 48.1875 
Q 61.625 48.1875 57.5625 43.546875 
Q 53.515625 38.921875 53.515625 30.90625 
L 53.515625 0 
L 44.484375 0 
L 44.484375 32.71875 
Q 44.484375 40.625 41.703125 44.40625 
Q 38.921875 48.1875 33.109375 48.1875 
Q 26.21875 48.1875 22.15625 43.53125 
Q 18.109375 38.875 18.109375 30.90625 
L 18.109375 0 
L 9.078125 0 
L 9.078125 54.6875 
L 18.109375 54.6875 
L 18.109375 46.1875 
Q 21.1875 51.21875 25.484375 53.609375 
Q 29.78125 56 35.6875 56 
Q 41.65625 56 45.828125 52.96875 
Q 50 49.953125 52 44.1875 
z
" id="DejaVuSans-6d"/>
      <path d="M 9.8125 72.90625 
L 19.671875 72.90625 
L 19.671875 42.09375 
L 52.390625 72.90625 
L 65.09375 72.90625 
L 28.90625 38.921875 
L 67.671875 0 
L 54.6875 0 
L 19.671875 35.109375 
L 19.671875 0 
L 9.8125 0 
z
" id="DejaVuSans-4b"/>
      <path d="M 9.8125 72.90625 
L 19.671875 72.90625 
L 19.671875 8.296875 
L 55.171875 8.296875 
L 55.171875 0 
L 9.8125 0 
z
" id="DejaVuSans-4c"/>
      <path d="M 9.421875 75.984375 
L 18.40625 75.984375 
L 18.40625 0 
L 9.421875 0 
z
" id="DejaVuSans-6c"/>
      <path d="M 48.6875 27.296875 
Q 48.6875 37.203125 44.609375 42.84375 
Q 40.53125 48.484375 33.40625 48.484375 
Q 26.265625 48.484375 22.1875 42.84375 
Q 18.109375 37.203125 18.109375 27.296875 
Q 18.109375 17.390625 22.1875 11.75 
Q 26.265625 6.109375 33.40625 6.109375 
Q 40.53125 6.109375 44.609375 11.75 
Q 48.6875 17.390625 48.6875 27.296875 
z
M 18.109375 46.390625 
Q 20.953125 51.265625 25.265625 53.625 
Q 29.59375 56 35.59375 56 
Q 45.5625 56 51.78125 48.09375 
Q 58.015625 40.1875 58.015625 27.296875 
Q 58.015625 14.40625 51.78125 6.484375 
Q 45.5625 -1.421875 35.59375 -1.421875 
Q 29.59375 -1.421875 25.265625 0.953125 
Q 20.953125 3.328125 18.109375 8.203125 
L 18.109375 0 
L 9.078125 0 
L 9.078125 75.984375 
L 18.109375 75.984375 
z
" id="DejaVuSans-62"/>
     </defs>
     <g transform="translate(144.948438 478.24125)rotate(-90)scale(0.14 -0.14)">
      <use xlink:href="#DejaVuSans-53"/>
      <use x="63.476562" xlink:href="#DejaVuSans-79"/>
      <use x="122.65625" xlink:href="#DejaVuSans-6d"/>
      <use x="220.068359" xlink:href="#DejaVuSans-6d"/>
      <use x="317.480469" xlink:href="#DejaVuSans-65"/>
      <use x="379.003906" xlink:href="#DejaVuSans-74"/>
      <use x="418.212891" xlink:href="#DejaVuSans-72"/>
      <use x="459.326172" xlink:href="#DejaVuSans-69"/>
      <use x="487.109375" xlink:href="#DejaVuSans-63"/>
      <use x="542.089844" xlink:href="#DejaVuSans-20"/>
      <use x="573.876953" xlink:href="#DejaVuSans-4b"/>
      <use x="639.453125" xlink:href="#DejaVuSans-4c"/>
      <use x="695.166016" xlink:href="#DejaVuSans-20"/>
      <use x="726.953125" xlink:href="#DejaVuSans-6f"/>
      <use x="788.134766" xlink:href="#DejaVuSans-6e"/>
      <use x="851.513672" xlink:href="#DejaVuSans-20"/>
      <use x="883.300781" xlink:href="#DejaVuSans-64"/>
      <use x="946.777344" xlink:href="#DejaVuSans-65"/>
      <use x="1008.300781" xlink:href="#DejaVuSans-74"/>
      <use x="1047.509766" xlink:href="#DejaVuSans-61"/>
      <use x="1108.789062" xlink:href="#DejaVuSans-69"/>
      <use x="1136.572266" xlink:href="#DejaVuSans-6c"/>
      <use x="1164.355469" xlink:href="#DejaVuSans-65"/>
      <use x="1225.878906" xlink:href="#DejaVuSans-64"/>
      <use x="1289.355469" xlink:href="#DejaVuSans-20"/>
      <use x="1321.142578" xlink:href="#DejaVuSans-62"/>
      <use x="1384.619141" xlink:href="#DejaVuSans-61"/>
      <use x="1445.898438" xlink:href="#DejaVuSans-6c"/>
      <use x="1473.681641" xlink:href="#DejaVuSans-61"/>
      <use x="1534.960938" xlink:href="#DejaVuSans-6e"/>
      <use x="1598.339844" xlink:href="#DejaVuSans-63"/>
      <use x="1653.320312" xlink:href="#DejaVuSans-65"/>
     </g>
    </g>
   </g>
   <g id="line2d_44">
    <path clip-path="url(#p91cc623e88)" d="M 203.057851 118.201481 
L 204.909887 144.529696 
L 206.761924 168.650362 
L 208.61396 189.690587 
L 210.465996 205.645986 
L 212.318032 216.978451 
L 214.170069 223.98852 
L 216.022105 228.005883 
L 217.874141 230.192579 
L 219.726177 231.75139 
L 221.578214 232.916123 
L 223.43025 233.334974 
L 225.282286 234.300982 
L 227.134322 235.035033 
L 228.986359 234.722923 
L 230.838395 235.312685 
L 232.690431 234.882221 
L 234.542467 234.964641 
L 236.394504 234.503015 
L 238.24654 234.614397 
L 240.098576 235.007777 
L 241.950612 234.818764 
L 243.802649 234.79234 
L 245.654685 233.484746 
L 247.506721 233.916408 
L 251.210794 233.059916 
L 253.06283 233.284621 
L 254.914866 233.677951 
L 256.766902 233.623656 
L 258.618939 232.677798 
L 262.323011 234.614397 
L 264.175047 233.810502 
L 267.87912 236.87342 
L 269.731156 238.220583 
L 271.583192 240.875691 
L 273.435229 243.235433 
L 275.287265 245.289904 
L 277.139301 247.661576 
L 278.991337 250.4269 
L 280.843373 252.893128 
L 282.69541 256.05515 
L 284.547446 259.580174 
L 286.399482 261.924973 
L 288.251518 265.156202 
L 290.103555 267.591997 
L 291.955591 270.484218 
L 293.807627 271.758977 
L 295.659663 273.870561 
L 297.5117 274.937014 
L 299.363736 277.700502 
L 301.215772 278.241147 
L 303.067808 279.807659 
L 306.771881 282.05485 
L 308.623917 282.243244 
L 310.475953 281.71412 
L 312.32799 281.367983 
L 314.180026 284.128616 
L 316.032062 287.867587 
L 317.884098 292.462814 
L 319.736135 302.741958 
L 321.588171 310.660401 
L 323.440207 319.613557 
L 325.292243 326.041779 
L 327.14428 331.382532 
L 328.996316 334.179243 
L 332.700388 339.132083 
L 334.552425 339.757236 
L 336.404461 340.673258 
L 338.256497 342.29155 
L 340.108533 344.556828 
L 341.96057 347.922357 
L 343.812606 350.728171 
L 347.516678 357.749053 
L 349.368715 361.995137 
L 351.220751 365.820606 
L 353.072787 368.954105 
L 354.924823 372.585029 
L 356.77686 375.701776 
L 358.628896 377.806835 
L 360.480932 379.589595 
L 362.332968 380.925347 
L 364.185004 382.448579 
L 366.037041 384.728001 
L 367.889077 387.273183 
L 369.741113 391.244357 
L 373.445186 401.345085 
L 375.297222 408.186221 
L 377.149258 416.344345 
L 379.001294 425.317231 
L 380.853331 436.511705 
L 382.705367 448.711323 
L 384.557403 463.109767 
L 386.409439 478.584789 
L 388.261476 490.076079 
L 391.965548 500.536001 
L 393.817584 504.106513 
L 395.669621 508.400535 
L 399.373693 514.839159 
L 403.077766 519.400725 
L 404.929802 521.086511 
L 406.781838 522.462203 
L 408.633874 522.905124 
L 410.485911 524.184821 
L 412.337947 526.211322 
L 414.189983 526.443504 
L 416.042019 527.177809 
L 417.894056 527.783851 
L 419.746092 528.667746 
L 421.598128 529.044774 
L 423.450164 529.251207 
L 425.302201 528.394697 
L 427.154237 530.152191 
L 429.006273 529.079141 
L 430.858309 530.606665 
L 432.710346 530.466541 
L 434.562382 529.182334 
L 436.414418 530.501548 
L 438.266454 529.285666 
L 440.11849 531.346523 
L 443.822563 531.31113 
L 445.674599 530.256832 
L 447.526635 530.43155 
L 449.378672 531.808116 
L 451.230708 530.606665 
L 453.082744 532.093553 
L 454.93478 530.501548 
L 456.786817 532.165078 
L 458.638853 531.063834 
L 460.490889 531.843738 
L 462.342925 532.884001 
L 464.194962 531.879376 
L 466.046998 532.739679 
L 467.899034 533.82874 
L 469.75107 531.736921 
L 471.603107 532.667619 
L 473.455143 531.028571 
L 475.307179 531.417358 
L 477.159215 530.922878 
L 479.011252 533.245993 
L 480.863288 531.099114 
L 482.715324 531.346523 
L 484.56736 530.676822 
L 486.419397 531.275754 
L 488.271433 533.500403 
L 490.123469 532.70364 
L 491.975505 531.31113 
L 493.827542 530.782178 
L 495.679578 532.415939 
L 497.531614 529.700382 
L 499.38365 533.573246 
L 501.235687 531.559222 
L 503.087723 532.667619 
L 504.939759 530.117343 
L 506.791795 530.291744 
L 508.643832 532.165078 
L 510.495868 530.57161 
L 512.347904 531.879376 
L 514.19994 533.028594 
L 517.904013 531.665793 
L 519.756049 532.884001 
L 521.608085 533.865309 
L 523.460121 532.739679 
L 525.312158 534.121775 
L 527.164194 532.308327 
L 529.01623 530.782178 
L 530.868266 531.523732 
L 532.720303 531.915031 
L 534.572339 531.736921 
L 536.424375 533.137217 
L 538.276411 533.427629 
L 540.128448 531.843738 
L 541.980484 531.240393 
L 543.83252 530.361615 
L 545.684556 530.117343 
L 549.388629 531.98639 
L 551.240665 533.427629 
L 553.092701 532.739679 
L 554.944738 531.879376 
L 556.796774 533.865309 
L 558.64881 531.381932 
L 560.500846 531.98639 
L 562.352883 533.100992 
L 564.204919 533.500403 
L 566.056955 532.057815 
L 567.908991 532.956263 
L 571.613064 531.915031 
L 573.4651 531.879376 
L 575.317136 531.630253 
L 577.169173 532.344181 
L 579.021209 530.747044 
L 580.873245 532.236669 
L 582.725281 532.200865 
L 584.577318 533.318596 
L 586.429354 530.958093 
L 588.28139 532.847895 
L 590.133426 533.064784 
L 591.985463 531.950702 
L 593.837499 533.464007 
L 595.689535 532.27249 
L 597.541571 532.811806 
L 599.393607 532.99242 
L 601.245644 532.308327 
L 603.09768 532.487763 
L 604.949716 534.305489 
L 606.801752 533.282286 
L 608.653789 533.573246 
L 610.505825 531.417358 
L 612.357861 532.200865 
L 614.209897 531.950702 
L 616.061934 534.195208 
L 617.91397 530.922878 
L 619.766006 531.169721 
L 621.618042 531.240393 
L 623.470079 532.559655 
L 625.322115 532.093553 
L 627.174151 532.99242 
L 629.026187 531.063834 
L 630.878224 532.920124 
L 632.73026 532.956263 
L 634.582296 533.173458 
L 636.434332 531.417358 
L 638.286369 532.380051 
L 640.138405 532.99242 
L 641.990441 532.523701 
L 643.842477 533.427629 
L 645.694514 532.022095 
L 647.54655 531.169721 
L 649.398586 533.245993 
L 651.250622 533.245993 
L 653.102659 532.27249 
L 654.954695 530.152191 
L 656.806731 532.093553 
L 658.658767 531.701349 
L 660.510804 532.739679 
L 662.36284 533.318596 
L 664.214876 533.318596 
L 664.214876 533.318596 
" style="fill:none;stroke:#ff0000;stroke-linecap:square;stroke-width:2;"/>
   </g>
   <g id="line2d_45">
    <path clip-path="url(#p91cc623e88)" d="M 203.057851 111.109091 
L 204.909887 154.272704 
L 206.761924 188.361311 
L 208.61396 213.090708 
L 210.465996 235.218505 
L 212.318032 254.914756 
L 214.170069 269.389685 
L 216.022105 277.805954 
L 217.874141 280.322448 
L 219.726177 283.538109 
L 221.578214 287.115261 
L 223.43025 290.165015 
L 225.282286 292.174596 
L 227.134322 292.785749 
L 232.690431 299.757939 
L 236.394504 303.263264 
L 241.950612 310.064719 
L 243.802649 311.640359 
L 245.654685 315.444317 
L 249.358757 321.504031 
L 251.210794 323.570927 
L 254.914866 331.567798 
L 256.766902 334.335648 
L 258.618939 337.747348 
L 264.175047 349.124247 
L 266.027084 353.291468 
L 267.87912 356.666199 
L 269.731156 360.310843 
L 271.583192 363.012512 
L 275.287265 373.073863 
L 277.139301 375.00026 
L 278.991337 378.925402 
L 280.843373 383.34086 
L 282.69541 386.897414 
L 284.547446 389.888354 
L 288.251518 397.273826 
L 290.103555 400.239076 
L 291.955591 406.346465 
L 293.807627 408.667516 
L 295.659663 412.743945 
L 297.5117 417.855688 
L 299.363736 421.198879 
L 301.215772 423.356872 
L 303.067808 427.310402 
L 304.919845 432.433083 
L 308.623917 440.982518 
L 310.475953 446.867733 
L 312.32799 447.843893 
L 314.180026 453.664987 
L 316.032062 457.859836 
L 317.884098 465.272078 
L 319.736135 472.050272 
L 321.588171 481.904368 
L 323.440207 487.188234 
L 325.292243 493.899469 
L 327.14428 495.128719 
L 332.700388 493.660296 
L 334.552425 492.432696 
L 336.404461 491.35065 
L 338.256497 492.582405 
L 340.108533 494.951907 
L 341.96057 496.851606 
L 343.812606 499.008457 
L 345.664642 500.346354 
L 347.516678 504.255821 
L 349.368715 508.47943 
L 351.220751 511.675947 
L 353.072787 515.326479 
L 354.924823 518.556467 
L 356.77686 519.007598 
L 360.480932 520.900805 
L 362.332968 522.273156 
L 364.185004 521.490416 
L 366.037041 519.249285 
L 367.889077 523.095729 
L 369.741113 525.518942 
L 371.593149 527.51391 
L 373.445186 527.144279 
L 375.297222 529.839119 
L 377.149258 530.256832 
L 379.001294 535.491744 
L 380.853331 533.536816 
L 382.705367 536.848477 
L 384.557403 537.612667 
L 386.409439 541.511189 
L 388.261476 539.085842 
L 390.113512 543.309251 
L 393.817584 546.64678 
L 395.669621 546.689967 
L 397.521657 549.058777 
L 399.373693 551.044244 
L 401.225729 549.281839 
L 403.077766 550.633944 
L 404.929802 554.36001 
L 406.781838 551.779106 
L 408.633874 557.426586 
L 410.485911 557.625471 
L 412.337947 556.832991 
L 414.189983 557.97476 
L 416.042019 560.413502 
L 417.894056 560.620257 
L 419.746092 561.3483 
L 421.598128 561.400567 
L 423.450164 562.718902 
L 425.302201 564.276969 
L 427.154237 567.321343 
L 429.006273 564.931016 
L 430.858309 567.604161 
L 432.710346 567.208505 
L 434.562382 569.091785 
L 436.414418 568.918664 
L 438.266454 571.378489 
L 440.11849 568.172931 
L 441.970527 569.265297 
L 443.822563 567.71758 
L 445.674599 572.638484 
L 447.526635 570.963027 
L 451.230708 572.396891 
L 453.082744 570.963027 
L 454.93478 574.289349 
L 456.786817 575.347222 
L 458.638853 575.598258 
L 460.490889 574.042533 
L 462.342925 576.229449 
L 464.194962 577.378785 
L 466.046998 574.536957 
L 467.899034 580.129167 
L 469.75107 577.765738 
L 471.603107 579.730194 
L 473.455143 568.115865 
L 475.307179 574.909867 
L 477.159215 576.674379 
L 479.011252 573.673786 
L 480.863288 579.004067 
L 482.715324 573.2458 
L 484.56736 573.980953 
L 486.419397 579.995946 
L 488.271433 581.542063 
L 490.123469 577.186035 
L 491.975505 578.938393 
L 493.827542 574.351176 
L 495.679578 574.536957 
L 497.531614 578.284717 
L 499.38365 579.995946 
L 501.235687 578.610862 
L 503.087723 580.798745 
L 504.939759 575.598258 
L 506.791795 578.284717 
L 508.643832 581.814148 
L 510.495868 581.677985 
L 512.347904 582.567373 
L 514.19994 582.498593 
L 516.051977 579.730194 
L 517.904013 584.096274 
L 519.756049 580.062528 
L 521.608085 579.465356 
L 523.460121 574.351176 
L 525.312158 586.08707 
L 527.164194 575.28459 
L 529.01623 579.267322 
L 530.868266 576.73815 
L 532.720303 587.614659 
L 534.572339 583.189171 
L 536.424375 586.665444 
L 538.276411 589.098208 
L 540.128448 582.361217 
L 541.980484 586.956267 
L 543.83252 581.882319 
L 545.684556 578.284717 
L 547.536593 582.981347 
L 549.388629 582.774082 
L 551.240665 585.227567 
L 553.092701 585.014181 
L 554.944738 579.399288 
L 556.796774 585.298827 
L 558.64881 586.665444 
L 560.500846 586.08707 
L 562.352883 585.227567 
L 564.204919 587.321346 
L 566.056955 591.301385 
L 567.908991 586.303452 
L 569.761028 582.429874 
L 571.613064 590.078058 
L 573.4651 590.002241 
L 575.317136 589.624271 
L 577.169173 593.728307 
L 579.021209 587.688162 
L 580.873245 592.075944 
L 582.725281 588.948561 
L 584.577318 590.305958 
L 586.429354 585.298827 
L 588.28139 587.321346 
L 590.133426 587.394569 
L 591.985463 593.648815 
L 593.837499 593.728307 
L 595.689535 589.926499 
L 597.541571 591.998137 
L 599.393607 584.518565 
L 601.245644 584.589172 
L 603.09768 585.227567 
L 604.949716 593.728307 
L 606.801752 589.023348 
L 608.653789 596.811437 
L 610.505825 593.728307 
L 612.357861 596.398646 
L 614.209897 591.610275 
L 616.061934 598.316066 
L 617.91397 592.622805 
L 619.766006 596.316352 
L 621.618042 590.993728 
L 623.470079 594.447454 
L 625.322115 592.15383 
L 627.174151 593.094651 
L 629.026187 593.252577 
L 630.878224 597.309724 
L 632.73026 596.481028 
L 634.582296 596.894262 
L 636.434332 589.699717 
L 638.286369 592.231795 
L 640.138405 593.569404 
L 641.990441 594.769241 
L 643.842477 595.011467 
L 645.694514 592.858367 
L 647.54655 589.624271 
L 649.398586 596.563497 
L 651.250622 597.060178 
L 653.102659 597.226452 
L 654.954695 591.998137 
L 656.806731 591.378492 
L 658.658767 589.023348 
L 660.510804 595.824427 
L 662.36284 605.290909 
L 664.214876 596.811437 
L 664.214876 596.811437 
" style="fill:none;stroke:#0000ff;stroke-linecap:square;stroke-width:2;"/>
   </g>
   <g id="patch_3">
    <path d="M 180 630 
L 180 86.4 
" style="fill:none;stroke:#bcbcbc;stroke-linecap:square;stroke-linejoin:miter;stroke-width:0.8;"/>
   </g>
   <g id="patch_4">
    <path d="M 687.272727 630 
L 687.272727 86.4 
" style="fill:none;stroke:#bcbcbc;stroke-linecap:square;stroke-linejoin:miter;stroke-width:0.8;"/>
   </g>
   <g id="patch_5">
    <path d="M 180 630 
L 687.272727 630 
" style="fill:none;stroke:#bcbcbc;stroke-linecap:square;stroke-linejoin:miter;stroke-width:0.8;"/>
   </g>
   <g id="patch_6">
    <path d="M 180 86.4 
L 687.272727 86.4 
" style="fill:none;stroke:#bcbcbc;stroke-linecap:square;stroke-linejoin:miter;stroke-width:0.8;"/>
   </g>
   <g id="legend_1">
    <g id="patch_7">
     <path d="M 610.163352 138.69875 
L 677.472727 138.69875 
Q 680.272727 138.69875 680.272727 135.89875 
L 680.272727 96.2 
Q 680.272727 93.4 677.472727 93.4 
L 610.163352 93.4 
Q 607.363352 93.4 607.363352 96.2 
L 607.363352 135.89875 
Q 607.363352 138.69875 610.163352 138.69875 
z
" style="fill:#eeeeee;opacity:0.8;stroke:#cccccc;stroke-linejoin:miter;stroke-width:0.5;"/>
    </g>
    <g id="line2d_46">
     <path d="M 612.963352 104.737812 
L 640.963352 104.737812 
" style="fill:none;stroke:#ff0000;stroke-linecap:square;stroke-width:2;"/>
    </g>
    <g id="line2d_47"/>
    <g id="text_12">
     <!-- mu -->
     <defs>
      <path d="M 8.5 21.578125 
L 8.5 54.6875 
L 17.484375 54.6875 
L 17.484375 21.921875 
Q 17.484375 14.15625 20.5 10.265625 
Q 23.53125 6.390625 29.59375 6.390625 
Q 36.859375 6.390625 41.078125 11.03125 
Q 45.3125 15.671875 45.3125 23.6875 
L 45.3125 54.6875 
L 54.296875 54.6875 
L 54.296875 0 
L 45.3125 0 
L 45.3125 8.40625 
Q 42.046875 3.421875 37.71875 1 
Q 33.40625 -1.421875 27.6875 -1.421875 
Q 18.265625 -1.421875 13.375 4.4375 
Q 8.5 10.296875 8.5 21.578125 
z
M 31.109375 56 
z
" id="DejaVuSans-75"/>
     </defs>
     <g transform="translate(652.163352 109.637812)scale(0.14 -0.14)">
      <use xlink:href="#DejaVuSans-6d"/>
      <use x="97.412109" xlink:href="#DejaVuSans-75"/>
     </g>
    </g>
    <g id="line2d_48">
     <path d="M 612.963352 125.287187 
L 640.963352 125.287187 
" style="fill:none;stroke:#0000ff;stroke-linecap:square;stroke-width:2;"/>
    </g>
    <g id="line2d_49"/>
    <g id="text_13">
     <!-- z -->
     <defs>
      <path d="M 5.515625 54.6875 
L 48.1875 54.6875 
L 48.1875 46.484375 
L 14.40625 7.171875 
L 48.1875 7.171875 
L 48.1875 0 
L 4.296875 0 
L 4.296875 8.203125 
L 38.09375 47.515625 
L 5.515625 47.515625 
z
" id="DejaVuSans-7a"/>
     </defs>
     <g transform="translate(652.163352 130.187187)scale(0.14 -0.14)">
      <use xlink:href="#DejaVuSans-7a"/>
     </g>
    </g>
   </g>
  </g>
  <g id="axes_2">
   <g id="patch_8">
    <path d="M 788.727273 630 
L 1296 630 
L 1296 86.4 
L 788.727273 86.4 
z
" style="fill:#eeeeee;"/>
   </g>
   <g id="matplotlib.axis_3">
    <g id="xtick_7">
     <g id="line2d_50">
      <path clip-path="url(#p0b5d533011)" d="M 811.785124 630 
L 811.785124 86.4 
" style="fill:none;stroke:#ffffff;stroke-linecap:square;stroke-width:3;"/>
     </g>
     <g id="line2d_51">
      <g>
       <use style="stroke:#000000;stroke-width:0.8;" x="811.785124" xlink:href="#m9feb31bc05" y="630"/>
      </g>
     </g>
     <g id="text_14">
      <!-- 0 -->
      <g transform="translate(807.331374 644.137812)scale(0.14 -0.14)">
       <use xlink:href="#DejaVuSans-30"/>
      </g>
     </g>
    </g>
    <g id="xtick_8">
     <g id="line2d_52">
      <path clip-path="url(#p0b5d533011)" d="M 904.386936 630 
L 904.386936 86.4 
" style="fill:none;stroke:#ffffff;stroke-linecap:square;stroke-width:3;"/>
     </g>
     <g id="line2d_53">
      <g>
       <use style="stroke:#000000;stroke-width:0.8;" x="904.386936" xlink:href="#m9feb31bc05" y="630"/>
      </g>
     </g>
     <g id="text_15">
      <!-- 50 -->
      <g transform="translate(895.479436 644.137812)scale(0.14 -0.14)">
       <use xlink:href="#DejaVuSans-35"/>
       <use x="63.623047" xlink:href="#DejaVuSans-30"/>
      </g>
     </g>
    </g>
    <g id="xtick_9">
     <g id="line2d_54">
      <path clip-path="url(#p0b5d533011)" d="M 996.988748 630 
L 996.988748 86.4 
" style="fill:none;stroke:#ffffff;stroke-linecap:square;stroke-width:3;"/>
     </g>
     <g id="line2d_55">
      <g>
       <use style="stroke:#000000;stroke-width:0.8;" x="996.988748" xlink:href="#m9feb31bc05" y="630"/>
      </g>
     </g>
     <g id="text_16">
      <!-- 100 -->
      <g transform="translate(983.627498 644.137812)scale(0.14 -0.14)">
       <use xlink:href="#DejaVuSans-31"/>
       <use x="63.623047" xlink:href="#DejaVuSans-30"/>
       <use x="127.246094" xlink:href="#DejaVuSans-30"/>
      </g>
     </g>
    </g>
    <g id="xtick_10">
     <g id="line2d_56">
      <path clip-path="url(#p0b5d533011)" d="M 1089.590561 630 
L 1089.590561 86.4 
" style="fill:none;stroke:#ffffff;stroke-linecap:square;stroke-width:3;"/>
     </g>
     <g id="line2d_57">
      <g>
       <use style="stroke:#000000;stroke-width:0.8;" x="1089.590561" xlink:href="#m9feb31bc05" y="630"/>
      </g>
     </g>
     <g id="text_17">
      <!-- 150 -->
      <g transform="translate(1076.229311 644.137812)scale(0.14 -0.14)">
       <use xlink:href="#DejaVuSans-31"/>
       <use x="63.623047" xlink:href="#DejaVuSans-35"/>
       <use x="127.246094" xlink:href="#DejaVuSans-30"/>
      </g>
     </g>
    </g>
    <g id="xtick_11">
     <g id="line2d_58">
      <path clip-path="url(#p0b5d533011)" d="M 1182.192373 630 
L 1182.192373 86.4 
" style="fill:none;stroke:#ffffff;stroke-linecap:square;stroke-width:3;"/>
     </g>
     <g id="line2d_59">
      <g>
       <use style="stroke:#000000;stroke-width:0.8;" x="1182.192373" xlink:href="#m9feb31bc05" y="630"/>
      </g>
     </g>
     <g id="text_18">
      <!-- 200 -->
      <g transform="translate(1168.831123 644.137812)scale(0.14 -0.14)">
       <use xlink:href="#DejaVuSans-32"/>
       <use x="63.623047" xlink:href="#DejaVuSans-30"/>
       <use x="127.246094" xlink:href="#DejaVuSans-30"/>
      </g>
     </g>
    </g>
    <g id="xtick_12">
     <g id="line2d_60">
      <path clip-path="url(#p0b5d533011)" d="M 1274.794185 630 
L 1274.794185 86.4 
" style="fill:none;stroke:#ffffff;stroke-linecap:square;stroke-width:3;"/>
     </g>
     <g id="line2d_61">
      <g>
       <use style="stroke:#000000;stroke-width:0.8;" x="1274.794185" xlink:href="#m9feb31bc05" y="630"/>
      </g>
     </g>
     <g id="text_19">
      <!-- 250 -->
      <g transform="translate(1261.432935 644.137812)scale(0.14 -0.14)">
       <use xlink:href="#DejaVuSans-32"/>
       <use x="63.623047" xlink:href="#DejaVuSans-35"/>
       <use x="127.246094" xlink:href="#DejaVuSans-30"/>
      </g>
     </g>
    </g>
    <g id="text_20">
     <!-- Epochs (1000 gradient steps per epoch) -->
     <g transform="translate(901.657074 661.687188)scale(0.14 -0.14)">
      <use xlink:href="#DejaVuSans-45"/>
      <use x="63.183594" xlink:href="#DejaVuSans-70"/>
      <use x="126.660156" xlink:href="#DejaVuSans-6f"/>
      <use x="187.841797" xlink:href="#DejaVuSans-63"/>
      <use x="242.822266" xlink:href="#DejaVuSans-68"/>
      <use x="306.201172" xlink:href="#DejaVuSans-73"/>
      <use x="358.300781" xlink:href="#DejaVuSans-20"/>
      <use x="390.087891" xlink:href="#DejaVuSans-28"/>
      <use x="429.101562" xlink:href="#DejaVuSans-31"/>
      <use x="492.724609" xlink:href="#DejaVuSans-30"/>
      <use x="556.347656" xlink:href="#DejaVuSans-30"/>
      <use x="619.970703" xlink:href="#DejaVuSans-30"/>
      <use x="683.59375" xlink:href="#DejaVuSans-20"/>
      <use x="715.380859" xlink:href="#DejaVuSans-67"/>
      <use x="778.857422" xlink:href="#DejaVuSans-72"/>
      <use x="819.970703" xlink:href="#DejaVuSans-61"/>
      <use x="881.25" xlink:href="#DejaVuSans-64"/>
      <use x="944.726562" xlink:href="#DejaVuSans-69"/>
      <use x="972.509766" xlink:href="#DejaVuSans-65"/>
      <use x="1034.033203" xlink:href="#DejaVuSans-6e"/>
      <use x="1097.412109" xlink:href="#DejaVuSans-74"/>
      <use x="1136.621094" xlink:href="#DejaVuSans-20"/>
      <use x="1168.408203" xlink:href="#DejaVuSans-73"/>
      <use x="1220.507812" xlink:href="#DejaVuSans-74"/>
      <use x="1259.716797" xlink:href="#DejaVuSans-65"/>
      <use x="1321.240234" xlink:href="#DejaVuSans-70"/>
      <use x="1384.716797" xlink:href="#DejaVuSans-73"/>
      <use x="1436.816406" xlink:href="#DejaVuSans-20"/>
      <use x="1468.603516" xlink:href="#DejaVuSans-70"/>
      <use x="1532.080078" xlink:href="#DejaVuSans-65"/>
      <use x="1593.603516" xlink:href="#DejaVuSans-72"/>
      <use x="1634.716797" xlink:href="#DejaVuSans-20"/>
      <use x="1666.503906" xlink:href="#DejaVuSans-65"/>
      <use x="1728.027344" xlink:href="#DejaVuSans-70"/>
      <use x="1791.503906" xlink:href="#DejaVuSans-6f"/>
      <use x="1852.685547" xlink:href="#DejaVuSans-63"/>
      <use x="1907.666016" xlink:href="#DejaVuSans-68"/>
      <use x="1971.044922" xlink:href="#DejaVuSans-29"/>
     </g>
    </g>
   </g>
   <g id="matplotlib.axis_4">
    <g id="ytick_29">
     <g id="line2d_62">
      <path clip-path="url(#p0b5d533011)" d="M 788.727273 596.254728 
L 1296 596.254728 
" style="fill:none;stroke:#ffffff;stroke-linecap:square;stroke-width:3;"/>
     </g>
     <g id="line2d_63">
      <g>
       <use style="stroke:#000000;stroke-width:0.8;" x="788.727273" xlink:href="#m90a5b74e40" y="596.254728"/>
      </g>
     </g>
     <g id="text_21">
      <!-- $\mathdefault{10^{-2}}$ -->
      <defs>
       <path d="M 4.890625 31.390625 
L 31.203125 31.390625 
L 31.203125 23.390625 
L 4.890625 23.390625 
z
" id="DejaVuSans-2d"/>
      </defs>
      <g transform="translate(757.087273 601.573634)scale(0.14 -0.14)">
       <use transform="translate(0 0.765625)" xlink:href="#DejaVuSans-31"/>
       <use transform="translate(63.623047 0.765625)" xlink:href="#DejaVuSans-30"/>
       <use transform="translate(128.203125 39.046875)scale(0.7)" xlink:href="#DejaVuSans-2d"/>
       <use transform="translate(153.461914 39.046875)scale(0.7)" xlink:href="#DejaVuSans-32"/>
      </g>
     </g>
    </g>
    <g id="ytick_30">
     <g id="line2d_64">
      <path clip-path="url(#p0b5d533011)" d="M 788.727273 503.011718 
L 1296 503.011718 
" style="fill:none;stroke:#ffffff;stroke-linecap:square;stroke-width:3;"/>
     </g>
     <g id="line2d_65">
      <g>
       <use style="stroke:#000000;stroke-width:0.8;" x="788.727273" xlink:href="#m90a5b74e40" y="503.011718"/>
      </g>
     </g>
     <g id="text_22">
      <!-- $\mathdefault{10^{-1}}$ -->
      <g transform="translate(757.087273 508.330624)scale(0.14 -0.14)">
       <use transform="translate(0 0.684375)" xlink:href="#DejaVuSans-31"/>
       <use transform="translate(63.623047 0.684375)" xlink:href="#DejaVuSans-30"/>
       <use transform="translate(128.203125 38.965625)scale(0.7)" xlink:href="#DejaVuSans-2d"/>
       <use transform="translate(153.461914 38.965625)scale(0.7)" xlink:href="#DejaVuSans-31"/>
      </g>
     </g>
    </g>
    <g id="ytick_31">
     <g id="line2d_66">
      <path clip-path="url(#p0b5d533011)" d="M 788.727273 409.768707 
L 1296 409.768707 
" style="fill:none;stroke:#ffffff;stroke-linecap:square;stroke-width:3;"/>
     </g>
     <g id="line2d_67">
      <g>
       <use style="stroke:#000000;stroke-width:0.8;" x="788.727273" xlink:href="#m90a5b74e40" y="409.768707"/>
      </g>
     </g>
     <g id="text_23">
      <!-- $\mathdefault{10^{0}}$ -->
      <g transform="translate(760.587273 415.087614)scale(0.14 -0.14)">
       <use transform="translate(0 0.765625)" xlink:href="#DejaVuSans-31"/>
       <use transform="translate(63.623047 0.765625)" xlink:href="#DejaVuSans-30"/>
       <use transform="translate(128.203125 39.046875)scale(0.7)" xlink:href="#DejaVuSans-30"/>
      </g>
     </g>
    </g>
    <g id="ytick_32">
     <g id="line2d_68">
      <path clip-path="url(#p0b5d533011)" d="M 788.727273 316.525697 
L 1296 316.525697 
" style="fill:none;stroke:#ffffff;stroke-linecap:square;stroke-width:3;"/>
     </g>
     <g id="line2d_69">
      <g>
       <use style="stroke:#000000;stroke-width:0.8;" x="788.727273" xlink:href="#m90a5b74e40" y="316.525697"/>
      </g>
     </g>
     <g id="text_24">
      <!-- $\mathdefault{10^{1}}$ -->
      <g transform="translate(760.587273 321.844603)scale(0.14 -0.14)">
       <use transform="translate(0 0.684375)" xlink:href="#DejaVuSans-31"/>
       <use transform="translate(63.623047 0.684375)" xlink:href="#DejaVuSans-30"/>
       <use transform="translate(128.203125 38.965625)scale(0.7)" xlink:href="#DejaVuSans-31"/>
      </g>
     </g>
    </g>
    <g id="ytick_33">
     <g id="line2d_70">
      <path clip-path="url(#p0b5d533011)" d="M 788.727273 223.282687 
L 1296 223.282687 
" style="fill:none;stroke:#ffffff;stroke-linecap:square;stroke-width:3;"/>
     </g>
     <g id="line2d_71">
      <g>
       <use style="stroke:#000000;stroke-width:0.8;" x="788.727273" xlink:href="#m90a5b74e40" y="223.282687"/>
      </g>
     </g>
     <g id="text_25">
      <!-- $\mathdefault{10^{2}}$ -->
      <g transform="translate(760.587273 228.601593)scale(0.14 -0.14)">
       <use transform="translate(0 0.765625)" xlink:href="#DejaVuSans-31"/>
       <use transform="translate(63.623047 0.765625)" xlink:href="#DejaVuSans-30"/>
       <use transform="translate(128.203125 39.046875)scale(0.7)" xlink:href="#DejaVuSans-32"/>
      </g>
     </g>
    </g>
    <g id="ytick_34">
     <g id="line2d_72">
      <path clip-path="url(#p0b5d533011)" d="M 788.727273 130.039677 
L 1296 130.039677 
" style="fill:none;stroke:#ffffff;stroke-linecap:square;stroke-width:3;"/>
     </g>
     <g id="line2d_73">
      <g>
       <use style="stroke:#000000;stroke-width:0.8;" x="788.727273" xlink:href="#m90a5b74e40" y="130.039677"/>
      </g>
     </g>
     <g id="text_26">
      <!-- $\mathdefault{10^{3}}$ -->
      <defs>
       <path d="M 40.578125 39.3125 
Q 47.65625 37.796875 51.625 33 
Q 55.609375 28.21875 55.609375 21.1875 
Q 55.609375 10.40625 48.1875 4.484375 
Q 40.765625 -1.421875 27.09375 -1.421875 
Q 22.515625 -1.421875 17.65625 -0.515625 
Q 12.796875 0.390625 7.625 2.203125 
L 7.625 11.71875 
Q 11.71875 9.328125 16.59375 8.109375 
Q 21.484375 6.890625 26.8125 6.890625 
Q 36.078125 6.890625 40.9375 10.546875 
Q 45.796875 14.203125 45.796875 21.1875 
Q 45.796875 27.640625 41.28125 31.265625 
Q 36.765625 34.90625 28.71875 34.90625 
L 20.21875 34.90625 
L 20.21875 43.015625 
L 29.109375 43.015625 
Q 36.375 43.015625 40.234375 45.921875 
Q 44.09375 48.828125 44.09375 54.296875 
Q 44.09375 59.90625 40.109375 62.90625 
Q 36.140625 65.921875 28.71875 65.921875 
Q 24.65625 65.921875 20.015625 65.03125 
Q 15.375 64.15625 9.8125 62.3125 
L 9.8125 71.09375 
Q 15.4375 72.65625 20.34375 73.4375 
Q 25.25 74.21875 29.59375 74.21875 
Q 40.828125 74.21875 47.359375 69.109375 
Q 53.90625 64.015625 53.90625 55.328125 
Q 53.90625 49.265625 50.4375 45.09375 
Q 46.96875 40.921875 40.578125 39.3125 
z
" id="DejaVuSans-33"/>
      </defs>
      <g transform="translate(760.587273 135.358583)scale(0.14 -0.14)">
       <use transform="translate(0 0.765625)" xlink:href="#DejaVuSans-31"/>
       <use transform="translate(63.623047 0.765625)" xlink:href="#DejaVuSans-30"/>
       <use transform="translate(128.203125 39.046875)scale(0.7)" xlink:href="#DejaVuSans-33"/>
      </g>
     </g>
    </g>
    <g id="ytick_35">
     <g id="line2d_74">
      <g>
       <use style="stroke:#000000;stroke-width:0.6;" x="788.727273" xlink:href="#mb0bf75929c" y="624.323671"/>
      </g>
     </g>
    </g>
    <g id="ytick_36">
     <g id="line2d_75">
      <g>
       <use style="stroke:#000000;stroke-width:0.6;" x="788.727273" xlink:href="#mb0bf75929c" y="616.940573"/>
      </g>
     </g>
    </g>
    <g id="ytick_37">
     <g id="line2d_76">
      <g>
       <use style="stroke:#000000;stroke-width:0.6;" x="788.727273" xlink:href="#mb0bf75929c" y="610.698253"/>
      </g>
     </g>
    </g>
    <g id="ytick_38">
     <g id="line2d_77">
      <g>
       <use style="stroke:#000000;stroke-width:0.6;" x="788.727273" xlink:href="#mb0bf75929c" y="605.290909"/>
      </g>
     </g>
    </g>
    <g id="ytick_39">
     <g id="line2d_78">
      <g>
       <use style="stroke:#000000;stroke-width:0.6;" x="788.727273" xlink:href="#mb0bf75929c" y="600.521294"/>
      </g>
     </g>
    </g>
    <g id="ytick_40">
     <g id="line2d_79">
      <g>
       <use style="stroke:#000000;stroke-width:0.6;" x="788.727273" xlink:href="#mb0bf75929c" y="568.185785"/>
      </g>
     </g>
    </g>
    <g id="ytick_41">
     <g id="line2d_80">
      <g>
       <use style="stroke:#000000;stroke-width:0.6;" x="788.727273" xlink:href="#mb0bf75929c" y="551.766506"/>
      </g>
     </g>
    </g>
    <g id="ytick_42">
     <g id="line2d_81">
      <g>
       <use style="stroke:#000000;stroke-width:0.6;" x="788.727273" xlink:href="#mb0bf75929c" y="540.116842"/>
      </g>
     </g>
    </g>
    <g id="ytick_43">
     <g id="line2d_82">
      <g>
       <use style="stroke:#000000;stroke-width:0.6;" x="788.727273" xlink:href="#mb0bf75929c" y="531.08066"/>
      </g>
     </g>
    </g>
    <g id="ytick_44">
     <g id="line2d_83">
      <g>
       <use style="stroke:#000000;stroke-width:0.6;" x="788.727273" xlink:href="#mb0bf75929c" y="523.697563"/>
      </g>
     </g>
    </g>
    <g id="ytick_45">
     <g id="line2d_84">
      <g>
       <use style="stroke:#000000;stroke-width:0.6;" x="788.727273" xlink:href="#mb0bf75929c" y="517.455243"/>
      </g>
     </g>
    </g>
    <g id="ytick_46">
     <g id="line2d_85">
      <g>
       <use style="stroke:#000000;stroke-width:0.6;" x="788.727273" xlink:href="#mb0bf75929c" y="512.047899"/>
      </g>
     </g>
    </g>
    <g id="ytick_47">
     <g id="line2d_86">
      <g>
       <use style="stroke:#000000;stroke-width:0.6;" x="788.727273" xlink:href="#mb0bf75929c" y="507.278284"/>
      </g>
     </g>
    </g>
    <g id="ytick_48">
     <g id="line2d_87">
      <g>
       <use style="stroke:#000000;stroke-width:0.6;" x="788.727273" xlink:href="#mb0bf75929c" y="474.942775"/>
      </g>
     </g>
    </g>
    <g id="ytick_49">
     <g id="line2d_88">
      <g>
       <use style="stroke:#000000;stroke-width:0.6;" x="788.727273" xlink:href="#mb0bf75929c" y="458.523495"/>
      </g>
     </g>
    </g>
    <g id="ytick_50">
     <g id="line2d_89">
      <g>
       <use style="stroke:#000000;stroke-width:0.6;" x="788.727273" xlink:href="#mb0bf75929c" y="446.873832"/>
      </g>
     </g>
    </g>
    <g id="ytick_51">
     <g id="line2d_90">
      <g>
       <use style="stroke:#000000;stroke-width:0.6;" x="788.727273" xlink:href="#mb0bf75929c" y="437.83765"/>
      </g>
     </g>
    </g>
    <g id="ytick_52">
     <g id="line2d_91">
      <g>
       <use style="stroke:#000000;stroke-width:0.6;" x="788.727273" xlink:href="#mb0bf75929c" y="430.454553"/>
      </g>
     </g>
    </g>
    <g id="ytick_53">
     <g id="line2d_92">
      <g>
       <use style="stroke:#000000;stroke-width:0.6;" x="788.727273" xlink:href="#mb0bf75929c" y="424.212232"/>
      </g>
     </g>
    </g>
    <g id="ytick_54">
     <g id="line2d_93">
      <g>
       <use style="stroke:#000000;stroke-width:0.6;" x="788.727273" xlink:href="#mb0bf75929c" y="418.804889"/>
      </g>
     </g>
    </g>
    <g id="ytick_55">
     <g id="line2d_94">
      <g>
       <use style="stroke:#000000;stroke-width:0.6;" x="788.727273" xlink:href="#mb0bf75929c" y="414.035273"/>
      </g>
     </g>
    </g>
    <g id="ytick_56">
     <g id="line2d_95">
      <g>
       <use style="stroke:#000000;stroke-width:0.6;" x="788.727273" xlink:href="#mb0bf75929c" y="381.699764"/>
      </g>
     </g>
    </g>
    <g id="ytick_57">
     <g id="line2d_96">
      <g>
       <use style="stroke:#000000;stroke-width:0.6;" x="788.727273" xlink:href="#mb0bf75929c" y="365.280485"/>
      </g>
     </g>
    </g>
    <g id="ytick_58">
     <g id="line2d_97">
      <g>
       <use style="stroke:#000000;stroke-width:0.6;" x="788.727273" xlink:href="#mb0bf75929c" y="353.630821"/>
      </g>
     </g>
    </g>
    <g id="ytick_59">
     <g id="line2d_98">
      <g>
       <use style="stroke:#000000;stroke-width:0.6;" x="788.727273" xlink:href="#mb0bf75929c" y="344.59464"/>
      </g>
     </g>
    </g>
    <g id="ytick_60">
     <g id="line2d_99">
      <g>
       <use style="stroke:#000000;stroke-width:0.6;" x="788.727273" xlink:href="#mb0bf75929c" y="337.211542"/>
      </g>
     </g>
    </g>
    <g id="ytick_61">
     <g id="line2d_100">
      <g>
       <use style="stroke:#000000;stroke-width:0.6;" x="788.727273" xlink:href="#mb0bf75929c" y="330.969222"/>
      </g>
     </g>
    </g>
    <g id="ytick_62">
     <g id="line2d_101">
      <g>
       <use style="stroke:#000000;stroke-width:0.6;" x="788.727273" xlink:href="#mb0bf75929c" y="325.561878"/>
      </g>
     </g>
    </g>
    <g id="ytick_63">
     <g id="line2d_102">
      <g>
       <use style="stroke:#000000;stroke-width:0.6;" x="788.727273" xlink:href="#mb0bf75929c" y="320.792263"/>
      </g>
     </g>
    </g>
    <g id="ytick_64">
     <g id="line2d_103">
      <g>
       <use style="stroke:#000000;stroke-width:0.6;" x="788.727273" xlink:href="#mb0bf75929c" y="288.456754"/>
      </g>
     </g>
    </g>
    <g id="ytick_65">
     <g id="line2d_104">
      <g>
       <use style="stroke:#000000;stroke-width:0.6;" x="788.727273" xlink:href="#mb0bf75929c" y="272.037475"/>
      </g>
     </g>
    </g>
    <g id="ytick_66">
     <g id="line2d_105">
      <g>
       <use style="stroke:#000000;stroke-width:0.6;" x="788.727273" xlink:href="#mb0bf75929c" y="260.387811"/>
      </g>
     </g>
    </g>
    <g id="ytick_67">
     <g id="line2d_106">
      <g>
       <use style="stroke:#000000;stroke-width:0.6;" x="788.727273" xlink:href="#mb0bf75929c" y="251.35163"/>
      </g>
     </g>
    </g>
    <g id="ytick_68">
     <g id="line2d_107">
      <g>
       <use style="stroke:#000000;stroke-width:0.6;" x="788.727273" xlink:href="#mb0bf75929c" y="243.968532"/>
      </g>
     </g>
    </g>
    <g id="ytick_69">
     <g id="line2d_108">
      <g>
       <use style="stroke:#000000;stroke-width:0.6;" x="788.727273" xlink:href="#mb0bf75929c" y="237.726212"/>
      </g>
     </g>
    </g>
    <g id="ytick_70">
     <g id="line2d_109">
      <g>
       <use style="stroke:#000000;stroke-width:0.6;" x="788.727273" xlink:href="#mb0bf75929c" y="232.318868"/>
      </g>
     </g>
    </g>
    <g id="ytick_71">
     <g id="line2d_110">
      <g>
       <use style="stroke:#000000;stroke-width:0.6;" x="788.727273" xlink:href="#mb0bf75929c" y="227.549253"/>
      </g>
     </g>
    </g>
    <g id="ytick_72">
     <g id="line2d_111">
      <g>
       <use style="stroke:#000000;stroke-width:0.6;" x="788.727273" xlink:href="#mb0bf75929c" y="195.213744"/>
      </g>
     </g>
    </g>
    <g id="ytick_73">
     <g id="line2d_112">
      <g>
       <use style="stroke:#000000;stroke-width:0.6;" x="788.727273" xlink:href="#mb0bf75929c" y="178.794465"/>
      </g>
     </g>
    </g>
    <g id="ytick_74">
     <g id="line2d_113">
      <g>
       <use style="stroke:#000000;stroke-width:0.6;" x="788.727273" xlink:href="#mb0bf75929c" y="167.144801"/>
      </g>
     </g>
    </g>
    <g id="ytick_75">
     <g id="line2d_114">
      <g>
       <use style="stroke:#000000;stroke-width:0.6;" x="788.727273" xlink:href="#mb0bf75929c" y="158.10862"/>
      </g>
     </g>
    </g>
    <g id="ytick_76">
     <g id="line2d_115">
      <g>
       <use style="stroke:#000000;stroke-width:0.6;" x="788.727273" xlink:href="#mb0bf75929c" y="150.725522"/>
      </g>
     </g>
    </g>
    <g id="ytick_77">
     <g id="line2d_116">
      <g>
       <use style="stroke:#000000;stroke-width:0.6;" x="788.727273" xlink:href="#mb0bf75929c" y="144.483202"/>
      </g>
     </g>
    </g>
    <g id="ytick_78">
     <g id="line2d_117">
      <g>
       <use style="stroke:#000000;stroke-width:0.6;" x="788.727273" xlink:href="#mb0bf75929c" y="139.075858"/>
      </g>
     </g>
    </g>
    <g id="ytick_79">
     <g id="line2d_118">
      <g>
       <use style="stroke:#000000;stroke-width:0.6;" x="788.727273" xlink:href="#mb0bf75929c" y="134.306243"/>
      </g>
     </g>
    </g>
    <g id="ytick_80">
     <g id="line2d_119">
      <g>
       <use style="stroke:#000000;stroke-width:0.6;" x="788.727273" xlink:href="#mb0bf75929c" y="101.970734"/>
      </g>
     </g>
    </g>
    <g id="text_27">
     <!-- Symmetric KL between Gibss sampler and neural sampler -->
     <defs>
      <path d="M 4.203125 54.6875 
L 13.1875 54.6875 
L 24.421875 12.015625 
L 35.59375 54.6875 
L 46.1875 54.6875 
L 57.421875 12.015625 
L 68.609375 54.6875 
L 77.59375 54.6875 
L 63.28125 0 
L 52.6875 0 
L 40.921875 44.828125 
L 29.109375 0 
L 18.5 0 
z
" id="DejaVuSans-77"/>
      <path d="M 59.515625 10.40625 
L 59.515625 29.984375 
L 43.40625 29.984375 
L 43.40625 38.09375 
L 69.28125 38.09375 
L 69.28125 6.78125 
Q 63.578125 2.734375 56.6875 0.65625 
Q 49.8125 -1.421875 42 -1.421875 
Q 24.90625 -1.421875 15.25 8.5625 
Q 5.609375 18.5625 5.609375 36.375 
Q 5.609375 54.25 15.25 64.234375 
Q 24.90625 74.21875 42 74.21875 
Q 49.125 74.21875 55.546875 72.453125 
Q 61.96875 70.703125 67.390625 67.28125 
L 67.390625 56.78125 
Q 61.921875 61.421875 55.765625 63.765625 
Q 49.609375 66.109375 42.828125 66.109375 
Q 29.4375 66.109375 22.71875 58.640625 
Q 16.015625 51.171875 16.015625 36.375 
Q 16.015625 21.625 22.71875 14.15625 
Q 29.4375 6.6875 42.828125 6.6875 
Q 48.046875 6.6875 52.140625 7.59375 
Q 56.25 8.5 59.515625 10.40625 
z
" id="DejaVuSans-47"/>
     </defs>
     <g transform="translate(750.17571 561.704219)rotate(-90)scale(0.14 -0.14)">
      <use xlink:href="#DejaVuSans-53"/>
      <use x="63.476562" xlink:href="#DejaVuSans-79"/>
      <use x="122.65625" xlink:href="#DejaVuSans-6d"/>
      <use x="220.068359" xlink:href="#DejaVuSans-6d"/>
      <use x="317.480469" xlink:href="#DejaVuSans-65"/>
      <use x="379.003906" xlink:href="#DejaVuSans-74"/>
      <use x="418.212891" xlink:href="#DejaVuSans-72"/>
      <use x="459.326172" xlink:href="#DejaVuSans-69"/>
      <use x="487.109375" xlink:href="#DejaVuSans-63"/>
      <use x="542.089844" xlink:href="#DejaVuSans-20"/>
      <use x="573.876953" xlink:href="#DejaVuSans-4b"/>
      <use x="639.453125" xlink:href="#DejaVuSans-4c"/>
      <use x="695.166016" xlink:href="#DejaVuSans-20"/>
      <use x="726.953125" xlink:href="#DejaVuSans-62"/>
      <use x="790.429688" xlink:href="#DejaVuSans-65"/>
      <use x="851.953125" xlink:href="#DejaVuSans-74"/>
      <use x="891.162109" xlink:href="#DejaVuSans-77"/>
      <use x="972.949219" xlink:href="#DejaVuSans-65"/>
      <use x="1034.472656" xlink:href="#DejaVuSans-65"/>
      <use x="1095.996094" xlink:href="#DejaVuSans-6e"/>
      <use x="1159.375" xlink:href="#DejaVuSans-20"/>
      <use x="1191.162109" xlink:href="#DejaVuSans-47"/>
      <use x="1268.652344" xlink:href="#DejaVuSans-69"/>
      <use x="1296.435547" xlink:href="#DejaVuSans-62"/>
      <use x="1359.912109" xlink:href="#DejaVuSans-73"/>
      <use x="1412.011719" xlink:href="#DejaVuSans-73"/>
      <use x="1464.111328" xlink:href="#DejaVuSans-20"/>
      <use x="1495.898438" xlink:href="#DejaVuSans-73"/>
      <use x="1547.998047" xlink:href="#DejaVuSans-61"/>
      <use x="1609.277344" xlink:href="#DejaVuSans-6d"/>
      <use x="1706.689453" xlink:href="#DejaVuSans-70"/>
      <use x="1770.166016" xlink:href="#DejaVuSans-6c"/>
      <use x="1797.949219" xlink:href="#DejaVuSans-65"/>
      <use x="1859.472656" xlink:href="#DejaVuSans-72"/>
      <use x="1900.585938" xlink:href="#DejaVuSans-20"/>
      <use x="1932.373047" xlink:href="#DejaVuSans-61"/>
      <use x="1993.652344" xlink:href="#DejaVuSans-6e"/>
      <use x="2057.03125" xlink:href="#DejaVuSans-64"/>
      <use x="2120.507812" xlink:href="#DejaVuSans-20"/>
      <use x="2152.294922" xlink:href="#DejaVuSans-6e"/>
      <use x="2215.673828" xlink:href="#DejaVuSans-65"/>
      <use x="2277.197266" xlink:href="#DejaVuSans-75"/>
      <use x="2340.576172" xlink:href="#DejaVuSans-72"/>
      <use x="2381.689453" xlink:href="#DejaVuSans-61"/>
      <use x="2442.96875" xlink:href="#DejaVuSans-6c"/>
      <use x="2470.751953" xlink:href="#DejaVuSans-20"/>
      <use x="2502.539062" xlink:href="#DejaVuSans-73"/>
      <use x="2554.638672" xlink:href="#DejaVuSans-61"/>
      <use x="2615.917969" xlink:href="#DejaVuSans-6d"/>
      <use x="2713.330078" xlink:href="#DejaVuSans-70"/>
      <use x="2776.806641" xlink:href="#DejaVuSans-6c"/>
      <use x="2804.589844" xlink:href="#DejaVuSans-65"/>
      <use x="2866.113281" xlink:href="#DejaVuSans-72"/>
     </g>
    </g>
   </g>
   <g id="line2d_120">
    <path clip-path="url(#p0b5d533011)" d="M 811.785124 111.109091 
L 813.63716 126.057914 
L 815.489196 137.522579 
L 817.341233 145.809849 
L 819.193269 150.899483 
L 821.045305 153.138431 
L 822.897341 153.070363 
L 824.749378 151.480869 
L 826.601414 149.255825 
L 828.45345 147.775561 
L 830.305486 146.816153 
L 834.009559 145.539666 
L 835.861595 145.119196 
L 837.713631 144.836991 
L 845.121776 144.364148 
L 856.233994 144.521227 
L 859.938066 144.810505 
L 861.790103 144.819254 
L 863.642139 144.990294 
L 869.198248 145.231359 
L 871.050284 145.64407 
L 872.90232 145.708237 
L 876.606393 147.310071 
L 878.458429 147.97686 
L 882.162501 150.232473 
L 884.014537 151.708907 
L 885.866574 152.963732 
L 889.570646 156.519367 
L 893.274719 160.647875 
L 895.126755 162.882649 
L 896.978791 165.381914 
L 898.830827 167.609607 
L 902.5349 171.357971 
L 904.386936 173.026504 
L 906.238972 174.493331 
L 908.091009 175.513662 
L 911.795081 177.171585 
L 913.647117 177.456064 
L 917.35119 178.33063 
L 919.203226 178.548867 
L 921.055262 179.404298 
L 922.907299 180.831108 
L 924.759335 182.91312 
L 926.611371 186.630061 
L 928.463407 191.974975 
L 930.315444 198.042475 
L 932.16748 204.680439 
L 934.019516 210.623518 
L 935.871552 214.853269 
L 937.723589 214.55838 
L 939.575625 214.484341 
L 943.279697 217.469448 
L 945.131734 219.556224 
L 948.835806 224.34117 
L 950.687842 226.969841 
L 952.539879 229.199524 
L 954.391915 231.761862 
L 956.243951 233.811976 
L 958.095987 236.22707 
L 959.948023 238.402893 
L 961.80006 240.868252 
L 963.652096 242.732909 
L 965.504132 244.274749 
L 967.356168 244.813507 
L 969.208205 245.518401 
L 971.060241 246.755886 
L 972.912277 248.717146 
L 974.764313 250.993622 
L 976.61635 255.125369 
L 978.468386 260.260453 
L 982.172458 274.630805 
L 984.024495 283.300242 
L 985.876531 294.028726 
L 987.728567 305.804826 
L 989.580603 319.687122 
L 991.43264 334.922046 
L 993.284676 353.52971 
L 995.136712 373.697133 
L 996.988748 391.450881 
L 1000.692821 417.119422 
L 1002.544857 428.866313 
L 1004.396893 441.745852 
L 1006.24893 452.746639 
L 1008.100966 465.263803 
L 1009.953002 476.385494 
L 1011.805038 488.811894 
L 1013.657075 498.785667 
L 1015.509111 510.072145 
L 1019.213183 531.08066 
L 1022.917256 549.153023 
L 1024.769292 557.561364 
L 1026.621328 562.526135 
L 1028.473365 568.185785 
L 1030.325401 574.766977 
L 1032.177437 579.835449 
L 1034.029473 585.630307 
L 1035.88151 588.87163 
L 1037.733546 588.87163 
L 1039.585582 600.521294 
L 1041.437618 596.254728 
L 1045.141691 596.254728 
L 1046.993727 605.290909 
L 1048.845763 600.521294 
L 1050.697799 600.521294 
L 1052.549836 592.395149 
L 1054.401872 605.290909 
L 1058.105944 605.290909 
L 1059.957981 600.521294 
L 1061.810017 600.521294 
L 1063.662053 605.290909 
L 1065.514089 600.521294 
L 1067.366126 596.254728 
L 1069.218162 600.521294 
L 1071.070198 600.521294 
L 1072.922234 596.254728 
L 1074.774271 600.521294 
L 1076.626307 596.254728 
L 1078.478343 600.521294 
L 1080.330379 600.521294 
L 1082.182416 596.254728 
L 1084.034452 600.521294 
L 1085.886488 596.254728 
L 1089.590561 596.254728 
L 1091.442597 600.521294 
L 1093.294633 592.395149 
L 1095.146669 600.521294 
L 1096.998706 596.254728 
L 1098.850742 596.254728 
L 1100.702778 592.395149 
L 1102.554814 596.254728 
L 1104.406851 596.254728 
L 1106.258887 592.395149 
L 1109.962959 592.395149 
L 1111.814996 596.254728 
L 1113.667032 585.630307 
L 1115.519068 592.395149 
L 1117.371104 596.254728 
L 1119.22314 596.254728 
L 1121.075177 588.87163 
L 1122.927213 588.87163 
L 1124.779249 592.395149 
L 1126.631285 585.630307 
L 1128.483322 592.395149 
L 1130.335358 585.630307 
L 1132.187394 585.630307 
L 1134.03943 592.395149 
L 1135.891467 592.395149 
L 1137.743503 596.254728 
L 1139.595539 585.630307 
L 1141.447575 596.254728 
L 1143.299612 592.395149 
L 1145.151648 588.87163 
L 1147.003684 596.254728 
L 1148.85572 596.254728 
L 1150.707757 585.630307 
L 1154.411829 585.630307 
L 1156.263865 592.395149 
L 1158.115902 592.395149 
L 1159.967938 596.254728 
L 1161.819974 592.395149 
L 1163.67201 592.395149 
L 1165.524047 588.87163 
L 1167.376083 588.87163 
L 1169.228119 585.630307 
L 1171.080155 592.395149 
L 1172.932192 596.254728 
L 1174.784228 588.87163 
L 1176.636264 588.87163 
L 1178.4883 585.630307 
L 1180.340337 592.395149 
L 1182.192373 588.87163 
L 1184.044409 588.87163 
L 1185.896445 596.254728 
L 1187.748482 588.87163 
L 1189.600518 588.87163 
L 1191.452554 592.395149 
L 1193.30459 588.87163 
L 1195.156627 585.630307 
L 1198.860699 585.630307 
L 1200.712735 588.87163 
L 1202.564771 585.630307 
L 1204.416808 592.395149 
L 1206.268844 588.87163 
L 1208.12088 585.630307 
L 1209.972916 588.87163 
L 1211.824953 596.254728 
L 1213.676989 585.630307 
L 1215.529025 588.87163 
L 1217.381061 585.630307 
L 1219.233098 588.87163 
L 1221.085134 585.630307 
L 1222.93717 588.87163 
L 1224.789206 588.87163 
L 1226.641243 596.254728 
L 1228.493279 596.254728 
L 1230.345315 588.87163 
L 1232.197351 596.254728 
L 1234.049388 592.395149 
L 1237.75346 592.395149 
L 1239.605496 588.87163 
L 1241.457533 592.395149 
L 1243.309569 588.87163 
L 1245.161605 585.630307 
L 1247.013641 596.254728 
L 1248.865678 579.835449 
L 1250.717714 588.87163 
L 1252.56975 596.254728 
L 1254.421786 588.87163 
L 1256.273823 596.254728 
L 1258.125859 592.395149 
L 1259.977895 592.395149 
L 1261.829931 585.630307 
L 1263.681968 592.395149 
L 1265.534004 588.87163 
L 1267.38604 585.630307 
L 1269.238076 588.87163 
L 1271.090113 596.254728 
L 1272.942149 585.630307 
L 1272.942149 585.630307 
" style="fill:none;stroke:#ff0000;stroke-linecap:square;stroke-width:2;"/>
   </g>
   <g id="line2d_121">
    <path clip-path="url(#p0b5d533011)" d="M 811.785124 166.666056 
L 813.63716 188.826999 
L 815.489196 206.839927 
L 817.341233 221.47311 
L 819.193269 234.696011 
L 821.045305 246.117468 
L 822.897341 254.050728 
L 824.749378 257.380162 
L 826.601414 257.205716 
L 828.45345 257.99194 
L 830.305486 259.669363 
L 832.157523 260.760045 
L 834.009559 262.128518 
L 835.861595 262.973227 
L 837.713631 264.081397 
L 839.565668 265.927268 
L 845.121776 270.198219 
L 846.973813 271.579779 
L 848.825849 273.252832 
L 852.529921 276.335549 
L 854.381958 278.170157 
L 861.790103 286.173637 
L 863.642139 288.483084 
L 869.198248 294.268748 
L 872.90232 298.802117 
L 876.606393 302.735742 
L 880.310465 307.736476 
L 882.162501 310.358652 
L 884.014537 312.655076 
L 885.866574 315.26586 
L 887.71861 318.619869 
L 889.570646 321.185618 
L 891.422682 323.94931 
L 893.274719 326.416158 
L 895.126755 328.615085 
L 896.978791 331.604747 
L 898.830827 334.176332 
L 900.682864 336.942472 
L 902.5349 339.026648 
L 904.386936 341.575714 
L 906.238972 343.824507 
L 909.943045 349.141137 
L 911.795081 350.495546 
L 913.647117 351.194893 
L 915.499154 353.358399 
L 917.35119 354.19149 
L 919.203226 354.242847 
L 921.055262 353.378516 
L 922.907299 354.510958 
L 924.759335 353.976499 
L 926.611371 357.361023 
L 928.463407 365.42924 
L 930.315444 372.858427 
L 932.16748 379.37839 
L 934.019516 382.209141 
L 935.871552 384.097848 
L 937.723589 380.248035 
L 941.427661 379.801217 
L 943.279697 380.424228 
L 945.131734 381.276784 
L 948.835806 383.4373 
L 950.687842 385.496624 
L 952.539879 387.222973 
L 954.391915 389.196407 
L 956.243951 391.399393 
L 958.095987 393.838306 
L 961.80006 397.886864 
L 963.652096 400.153558 
L 965.504132 402.183639 
L 967.356168 403.480134 
L 969.208205 405.324354 
L 971.060241 405.982823 
L 972.912277 406.840088 
L 974.764313 408.141549 
L 976.61635 409.006522 
L 978.468386 410.960425 
L 980.320422 412.490321 
L 982.172458 414.487735 
L 984.024495 416.302286 
L 987.728567 420.352654 
L 989.580603 421.689241 
L 991.43264 424.039053 
L 993.284676 425.684937 
L 995.136712 427.026759 
L 996.988748 428.672092 
L 998.840785 429.7852 
L 1000.692821 431.341587 
L 1002.544857 431.687996 
L 1004.396893 432.745365 
L 1006.24893 434.199558 
L 1008.100966 434.871378 
L 1011.805038 436.640669 
L 1013.657075 437.19486 
L 1019.213183 439.406457 
L 1021.06522 439.914768 
L 1024.769292 441.30231 
L 1026.621328 441.479145 
L 1028.473365 441.835146 
L 1030.325401 443.2913 
L 1032.177437 442.830602 
L 1034.029473 444.705702 
L 1035.88151 444.898078 
L 1037.733546 446.571253 
L 1039.585582 447.178688 
L 1041.437618 447.383208 
L 1043.289654 449.379471 
L 1045.141691 449.92158 
L 1046.993727 449.92158 
L 1048.845763 450.916049 
L 1050.697799 451.365997 
L 1052.549836 451.59286 
L 1054.401872 451.028068 
L 1056.253908 452.746639 
L 1058.105944 451.59286 
L 1059.957981 453.217516 
L 1061.810017 452.746639 
L 1063.662053 453.217516 
L 1065.514089 453.934259 
L 1067.366126 453.693932 
L 1069.218162 454.17602 
L 1071.070198 454.419234 
L 1072.922234 455.157764 
L 1074.774271 454.297444 
L 1076.626307 454.910087 
L 1078.478343 456.036758 
L 1080.330379 455.910013 
L 1082.182416 455.282172 
L 1084.034452 456.41939 
L 1085.886488 456.41939 
L 1087.738524 456.036758 
L 1089.590561 457.195674 
L 1091.442597 456.547741 
L 1093.294633 456.676501 
L 1095.146669 457.195674 
L 1096.998706 457.589469 
L 1098.850742 457.457778 
L 1100.702778 458.794366 
L 1102.554814 458.523495 
L 1104.406851 459.204098 
L 1106.258887 458.388737 
L 1109.962959 458.658704 
L 1111.814996 459.204098 
L 1113.667032 458.658704 
L 1115.519068 460.600614 
L 1117.371104 459.896336 
L 1119.22314 459.756939 
L 1121.075177 461.317357 
L 1122.927213 459.756939 
L 1124.779249 462.491205 
L 1126.631285 462.790062 
L 1128.483322 461.17299 
L 1130.335358 462.194537 
L 1132.187394 462.342599 
L 1134.03943 461.753572 
L 1135.891467 463.242524 
L 1137.743503 462.940321 
L 1139.595539 462.940321 
L 1141.447575 464.474403 
L 1143.299612 464.474403 
L 1147.003684 464.162902 
L 1148.85572 464.788319 
L 1150.707757 464.162902 
L 1152.559793 465.583923 
L 1154.411829 464.162902 
L 1156.263865 465.263803 
L 1158.115902 465.744937 
L 1159.967938 466.068898 
L 1161.819974 464.788319 
L 1163.67201 466.231855 
L 1165.524047 467.223617 
L 1167.376083 466.7247 
L 1169.228119 465.104687 
L 1171.080155 467.559677 
L 1172.932192 467.391298 
L 1174.784228 467.056628 
L 1176.636264 467.559677 
L 1178.4883 468.58492 
L 1180.340337 468.58492 
L 1182.192373 468.412233 
L 1184.044409 467.728758 
L 1185.896445 468.58492 
L 1187.748482 468.58492 
L 1189.600518 468.24028 
L 1191.452554 468.58492 
L 1193.30459 469.636795 
L 1195.156627 469.283125 
L 1197.008663 469.814795 
L 1198.860699 468.932518 
L 1200.712735 471.267683 
L 1202.564771 471.083196 
L 1204.416808 469.636795 
L 1206.268844 471.453015 
L 1208.12088 470.353538 
L 1209.972916 470.716724 
L 1211.824953 471.453015 
L 1213.676989 470.716724 
L 1215.529025 471.453015 
L 1217.381061 471.267683 
L 1219.233098 471.826243 
L 1222.93717 473.354535 
L 1224.789206 472.967021 
L 1226.641243 470.899545 
L 1228.493279 471.639199 
L 1230.345315 474.339861 
L 1232.197351 472.774645 
L 1234.049388 471.639199 
L 1235.901424 474.140869 
L 1237.75346 473.549691 
L 1239.605496 474.140869 
L 1241.457533 473.549691 
L 1243.309569 474.140869 
L 1245.161605 473.549691 
L 1247.013641 473.942849 
L 1248.865678 474.539837 
L 1250.717714 474.740804 
L 1252.56975 475.349762 
L 1254.421786 473.549691 
L 1256.273823 475.145757 
L 1258.125859 475.760882 
L 1259.977895 475.349762 
L 1261.829931 475.349762 
L 1263.681968 475.145757 
L 1265.534004 475.5548 
L 1267.38604 475.5548 
L 1269.238076 476.80732 
L 1271.090113 477.664388 
L 1272.942149 477.233587 
L 1272.942149 477.233587 
" style="fill:none;stroke:#0000ff;stroke-linecap:square;stroke-width:2;"/>
   </g>
   <g id="patch_9">
    <path d="M 788.727273 630 
L 788.727273 86.4 
" style="fill:none;stroke:#bcbcbc;stroke-linecap:square;stroke-linejoin:miter;stroke-width:0.8;"/>
   </g>
   <g id="patch_10">
    <path d="M 1296 630 
L 1296 86.4 
" style="fill:none;stroke:#bcbcbc;stroke-linecap:square;stroke-linejoin:miter;stroke-width:0.8;"/>
   </g>
   <g id="patch_11">
    <path d="M 788.727273 630 
L 1296 630 
" style="fill:none;stroke:#bcbcbc;stroke-linecap:square;stroke-linejoin:miter;stroke-width:0.8;"/>
   </g>
   <g id="patch_12">
    <path d="M 788.727273 86.4 
L 1296 86.4 
" style="fill:none;stroke:#bcbcbc;stroke-linecap:square;stroke-linejoin:miter;stroke-width:0.8;"/>
   </g>
   <g id="legend_2">
    <g id="patch_13">
     <path d="M 1218.890625 138.69875 
L 1286.2 138.69875 
Q 1289 138.69875 1289 135.89875 
L 1289 96.2 
Q 1289 93.4 1286.2 93.4 
L 1218.890625 93.4 
Q 1216.090625 93.4 1216.090625 96.2 
L 1216.090625 135.89875 
Q 1216.090625 138.69875 1218.890625 138.69875 
z
" style="fill:#eeeeee;opacity:0.8;stroke:#cccccc;stroke-linejoin:miter;stroke-width:0.5;"/>
    </g>
    <g id="line2d_122">
     <path d="M 1221.690625 104.737812 
L 1249.690625 104.737812 
" style="fill:none;stroke:#ff0000;stroke-linecap:square;stroke-width:2;"/>
    </g>
    <g id="line2d_123"/>
    <g id="text_28">
     <!-- mu -->
     <g transform="translate(1260.890625 109.637812)scale(0.14 -0.14)">
      <use xlink:href="#DejaVuSans-6d"/>
      <use x="97.412109" xlink:href="#DejaVuSans-75"/>
     </g>
    </g>
    <g id="line2d_124">
     <path d="M 1221.690625 125.287187 
L 1249.690625 125.287187 
" style="fill:none;stroke:#0000ff;stroke-linecap:square;stroke-width:2;"/>
    </g>
    <g id="line2d_125"/>
    <g id="text_29">
     <!-- z -->
     <g transform="translate(1260.890625 130.187187)scale(0.14 -0.14)">
      <use xlink:href="#DejaVuSans-7a"/>
     </g>
    </g>
   </g>
  </g>
 </g>
 <defs>
  <clipPath id="p91cc623e88">
   <rect height="543.6" width="507.272727" x="180" y="86.4"/>
  </clipPath>
  <clipPath id="p0b5d533011">
   <rect height="543.6" width="507.272727" x="788.727273" y="86.4"/>
  </clipPath>
 </defs>
</svg>
