<?xml version="1.0" encoding="utf-8" standalone="no"?>
<!DOCTYPE svg PUBLIC "-//W3C//DTD SVG 1.1//EN"
  "http://www.w3.org/Graphics/SVG/1.1/DTD/svg11.dtd">
<!-- Created with matplotlib (https://matplotlib.org/) -->
<svg height="2160pt" version="1.1" viewBox="0 0 2160 2160" width="2160pt" xmlns="http://www.w3.org/2000/svg" xmlns:xlink="http://www.w3.org/1999/xlink">
 <defs>
  <style type="text/css">
*{stroke-linecap:butt;stroke-linejoin:round;}
  </style>
 </defs>
 <g id="figure_1">
  <g id="patch_1">
   <path d="M 0 2160 
L 2160 2160 
L 2160 0 
L 0 0 
z
" style="fill:#ffffff;"/>
  </g>
  <g id="axes_1">
   <g id="patch_2">
    <path d="M 270 1000.472727 
L 1944 1000.472727 
L 1944 259.2 
L 270 259.2 
z
" style="fill:#ffffff;"/>
   </g>
   <g id="matplotlib.axis_1">
    <g id="xtick_1">
     <g id="line2d_1">
      <defs>
       <path d="M 0 0 
L 0 3.5 
" id="m69cab5a63a" style="stroke:#000000;stroke-width:0.8;"/>
      </defs>
      <g>
       <use style="stroke:#000000;stroke-width:0.8;" x="346.090909" xlink:href="#m69cab5a63a" y="1000.472727"/>
      </g>
     </g>
     <g id="text_1">
      <!-- 0 -->
      <defs>
       <path d="M 31.78125 66.40625 
Q 24.171875 66.40625 20.328125 58.90625 
Q 16.5 51.421875 16.5 36.375 
Q 16.5 21.390625 20.328125 13.890625 
Q 24.171875 6.390625 31.78125 6.390625 
Q 39.453125 6.390625 43.28125 13.890625 
Q 47.125 21.390625 47.125 36.375 
Q 47.125 51.421875 43.28125 58.90625 
Q 39.453125 66.40625 31.78125 66.40625 
z
M 31.78125 74.21875 
Q 44.046875 74.21875 50.515625 64.515625 
Q 56.984375 54.828125 56.984375 36.375 
Q 56.984375 17.96875 50.515625 8.265625 
Q 44.046875 -1.421875 31.78125 -1.421875 
Q 19.53125 -1.421875 13.0625 8.265625 
Q 6.59375 17.96875 6.59375 36.375 
Q 6.59375 54.828125 13.0625 64.515625 
Q 19.53125 74.21875 31.78125 74.21875 
z
" id="DejaVuSans-48"/>
      </defs>
      <g transform="translate(340.364659 1021.149915)scale(0.18 -0.18)">
       <use xlink:href="#DejaVuSans-48"/>
      </g>
     </g>
    </g>
    <g id="xtick_2">
     <g id="line2d_2">
      <g>
       <use style="stroke:#000000;stroke-width:0.8;" x="542.708245" xlink:href="#m69cab5a63a" y="1000.472727"/>
      </g>
     </g>
     <g id="text_2">
      <!-- 50 -->
      <defs>
       <path d="M 10.796875 72.90625 
L 49.515625 72.90625 
L 49.515625 64.59375 
L 19.828125 64.59375 
L 19.828125 46.734375 
Q 21.96875 47.46875 24.109375 47.828125 
Q 26.265625 48.1875 28.421875 48.1875 
Q 40.625 48.1875 47.75 41.5 
Q 54.890625 34.8125 54.890625 23.390625 
Q 54.890625 11.625 47.5625 5.09375 
Q 40.234375 -1.421875 26.90625 -1.421875 
Q 22.3125 -1.421875 17.546875 -0.640625 
Q 12.796875 0.140625 7.71875 1.703125 
L 7.71875 11.625 
Q 12.109375 9.234375 16.796875 8.0625 
Q 21.484375 6.890625 26.703125 6.890625 
Q 35.15625 6.890625 40.078125 11.328125 
Q 45.015625 15.765625 45.015625 23.390625 
Q 45.015625 31 40.078125 35.4375 
Q 35.15625 39.890625 26.703125 39.890625 
Q 22.75 39.890625 18.8125 39.015625 
Q 14.890625 38.140625 10.796875 36.28125 
z
" id="DejaVuSans-53"/>
      </defs>
      <g transform="translate(531.255745 1021.149915)scale(0.18 -0.18)">
       <use xlink:href="#DejaVuSans-53"/>
       <use x="63.623047" xlink:href="#DejaVuSans-48"/>
      </g>
     </g>
    </g>
    <g id="xtick_3">
     <g id="line2d_3">
      <g>
       <use style="stroke:#000000;stroke-width:0.8;" x="739.325581" xlink:href="#m69cab5a63a" y="1000.472727"/>
      </g>
     </g>
     <g id="text_3">
      <!-- 100 -->
      <defs>
       <path d="M 12.40625 8.296875 
L 28.515625 8.296875 
L 28.515625 63.921875 
L 10.984375 60.40625 
L 10.984375 69.390625 
L 28.421875 72.90625 
L 38.28125 72.90625 
L 38.28125 8.296875 
L 54.390625 8.296875 
L 54.390625 0 
L 12.40625 0 
z
" id="DejaVuSans-49"/>
      </defs>
      <g transform="translate(722.146831 1021.149915)scale(0.18 -0.18)">
       <use xlink:href="#DejaVuSans-49"/>
       <use x="63.623047" xlink:href="#DejaVuSans-48"/>
       <use x="127.246094" xlink:href="#DejaVuSans-48"/>
      </g>
     </g>
    </g>
    <g id="xtick_4">
     <g id="line2d_4">
      <g>
       <use style="stroke:#000000;stroke-width:0.8;" x="935.942918" xlink:href="#m69cab5a63a" y="1000.472727"/>
      </g>
     </g>
     <g id="text_4">
      <!-- 150 -->
      <g transform="translate(918.764168 1021.149915)scale(0.18 -0.18)">
       <use xlink:href="#DejaVuSans-49"/>
       <use x="63.623047" xlink:href="#DejaVuSans-53"/>
       <use x="127.246094" xlink:href="#DejaVuSans-48"/>
      </g>
     </g>
    </g>
    <g id="xtick_5">
     <g id="line2d_5">
      <g>
       <use style="stroke:#000000;stroke-width:0.8;" x="1132.560254" xlink:href="#m69cab5a63a" y="1000.472727"/>
      </g>
     </g>
     <g id="text_5">
      <!-- 200 -->
      <defs>
       <path d="M 19.1875 8.296875 
L 53.609375 8.296875 
L 53.609375 0 
L 7.328125 0 
L 7.328125 8.296875 
Q 12.9375 14.109375 22.625 23.890625 
Q 32.328125 33.6875 34.8125 36.53125 
Q 39.546875 41.84375 41.421875 45.53125 
Q 43.3125 49.21875 43.3125 52.78125 
Q 43.3125 58.59375 39.234375 62.25 
Q 35.15625 65.921875 28.609375 65.921875 
Q 23.96875 65.921875 18.8125 64.3125 
Q 13.671875 62.703125 7.8125 59.421875 
L 7.8125 69.390625 
Q 13.765625 71.78125 18.9375 73 
Q 24.125 74.21875 28.421875 74.21875 
Q 39.75 74.21875 46.484375 68.546875 
Q 53.21875 62.890625 53.21875 53.421875 
Q 53.21875 48.921875 51.53125 44.890625 
Q 49.859375 40.875 45.40625 35.40625 
Q 44.1875 33.984375 37.640625 27.21875 
Q 31.109375 20.453125 19.1875 8.296875 
z
" id="DejaVuSans-50"/>
      </defs>
      <g transform="translate(1115.381504 1021.149915)scale(0.18 -0.18)">
       <use xlink:href="#DejaVuSans-50"/>
       <use x="63.623047" xlink:href="#DejaVuSans-48"/>
       <use x="127.246094" xlink:href="#DejaVuSans-48"/>
      </g>
     </g>
    </g>
    <g id="xtick_6">
     <g id="line2d_6">
      <g>
       <use style="stroke:#000000;stroke-width:0.8;" x="1329.17759" xlink:href="#m69cab5a63a" y="1000.472727"/>
      </g>
     </g>
     <g id="text_6">
      <!-- 250 -->
      <g transform="translate(1311.99884 1021.149915)scale(0.18 -0.18)">
       <use xlink:href="#DejaVuSans-50"/>
       <use x="63.623047" xlink:href="#DejaVuSans-53"/>
       <use x="127.246094" xlink:href="#DejaVuSans-48"/>
      </g>
     </g>
    </g>
    <g id="xtick_7">
     <g id="line2d_7">
      <g>
       <use style="stroke:#000000;stroke-width:0.8;" x="1525.794926" xlink:href="#m69cab5a63a" y="1000.472727"/>
      </g>
     </g>
     <g id="text_7">
      <!-- 300 -->
      <defs>
       <path d="M 40.578125 39.3125 
Q 47.65625 37.796875 51.625 33 
Q 55.609375 28.21875 55.609375 21.1875 
Q 55.609375 10.40625 48.1875 4.484375 
Q 40.765625 -1.421875 27.09375 -1.421875 
Q 22.515625 -1.421875 17.65625 -0.515625 
Q 12.796875 0.390625 7.625 2.203125 
L 7.625 11.71875 
Q 11.71875 9.328125 16.59375 8.109375 
Q 21.484375 6.890625 26.8125 6.890625 
Q 36.078125 6.890625 40.9375 10.546875 
Q 45.796875 14.203125 45.796875 21.1875 
Q 45.796875 27.640625 41.28125 31.265625 
Q 36.765625 34.90625 28.71875 34.90625 
L 20.21875 34.90625 
L 20.21875 43.015625 
L 29.109375 43.015625 
Q 36.375 43.015625 40.234375 45.921875 
Q 44.09375 48.828125 44.09375 54.296875 
Q 44.09375 59.90625 40.109375 62.90625 
Q 36.140625 65.921875 28.71875 65.921875 
Q 24.65625 65.921875 20.015625 65.03125 
Q 15.375 64.15625 9.8125 62.3125 
L 9.8125 71.09375 
Q 15.4375 72.65625 20.34375 73.4375 
Q 25.25 74.21875 29.59375 74.21875 
Q 40.828125 74.21875 47.359375 69.109375 
Q 53.90625 64.015625 53.90625 55.328125 
Q 53.90625 49.265625 50.4375 45.09375 
Q 46.96875 40.921875 40.578125 39.3125 
z
" id="DejaVuSans-51"/>
      </defs>
      <g transform="translate(1508.616176 1021.149915)scale(0.18 -0.18)">
       <use xlink:href="#DejaVuSans-51"/>
       <use x="63.623047" xlink:href="#DejaVuSans-48"/>
       <use x="127.246094" xlink:href="#DejaVuSans-48"/>
      </g>
     </g>
    </g>
    <g id="xtick_8">
     <g id="line2d_8">
      <g>
       <use style="stroke:#000000;stroke-width:0.8;" x="1722.412262" xlink:href="#m69cab5a63a" y="1000.472727"/>
      </g>
     </g>
     <g id="text_8">
      <!-- 350 -->
      <g transform="translate(1705.233512 1021.149915)scale(0.18 -0.18)">
       <use xlink:href="#DejaVuSans-51"/>
       <use x="63.623047" xlink:href="#DejaVuSans-53"/>
       <use x="127.246094" xlink:href="#DejaVuSans-48"/>
      </g>
     </g>
    </g>
    <g id="xtick_9">
     <g id="line2d_9">
      <g>
       <use style="stroke:#000000;stroke-width:0.8;" x="1919.029598" xlink:href="#m69cab5a63a" y="1000.472727"/>
      </g>
     </g>
     <g id="text_9">
      <!-- 400 -->
      <defs>
       <path d="M 37.796875 64.3125 
L 12.890625 25.390625 
L 37.796875 25.390625 
z
M 35.203125 72.90625 
L 47.609375 72.90625 
L 47.609375 25.390625 
L 58.015625 25.390625 
L 58.015625 17.1875 
L 47.609375 17.1875 
L 47.609375 0 
L 37.796875 0 
L 37.796875 17.1875 
L 4.890625 17.1875 
L 4.890625 26.703125 
z
" id="DejaVuSans-52"/>
      </defs>
      <g transform="translate(1901.850848 1021.149915)scale(0.18 -0.18)">
       <use xlink:href="#DejaVuSans-52"/>
       <use x="63.623047" xlink:href="#DejaVuSans-48"/>
       <use x="127.246094" xlink:href="#DejaVuSans-48"/>
      </g>
     </g>
    </g>
   </g>
   <g id="matplotlib.axis_2">
    <g id="ytick_1">
     <g id="line2d_10">
      <defs>
       <path d="M 0 0 
L -3.5 0 
" id="md8b38a3bd3" style="stroke:#000000;stroke-width:0.8;"/>
      </defs>
      <g>
       <use style="stroke:#000000;stroke-width:0.8;" x="270" xlink:href="#md8b38a3bd3" y="1000.472727"/>
      </g>
     </g>
     <g id="text_10">
      <!-- −250 -->
      <defs>
       <path d="M 10.59375 35.5 
L 73.1875 35.5 
L 73.1875 27.203125 
L 10.59375 27.203125 
z
" id="DejaVuSans-8722"/>
      </defs>
      <g transform="translate(213.559063 1007.311321)scale(0.18 -0.18)">
       <use xlink:href="#DejaVuSans-8722"/>
       <use x="83.789062" xlink:href="#DejaVuSans-50"/>
       <use x="147.412109" xlink:href="#DejaVuSans-53"/>
       <use x="211.035156" xlink:href="#DejaVuSans-48"/>
      </g>
     </g>
    </g>
    <g id="ytick_2">
     <g id="line2d_11">
      <g>
       <use style="stroke:#000000;stroke-width:0.8;" x="270" xlink:href="#md8b38a3bd3" y="894.576623"/>
      </g>
     </g>
     <g id="text_11">
      <!-- −240 -->
      <g transform="translate(213.559063 901.415217)scale(0.18 -0.18)">
       <use xlink:href="#DejaVuSans-8722"/>
       <use x="83.789062" xlink:href="#DejaVuSans-50"/>
       <use x="147.412109" xlink:href="#DejaVuSans-52"/>
       <use x="211.035156" xlink:href="#DejaVuSans-48"/>
      </g>
     </g>
    </g>
    <g id="ytick_3">
     <g id="line2d_12">
      <g>
       <use style="stroke:#000000;stroke-width:0.8;" x="270" xlink:href="#md8b38a3bd3" y="788.680519"/>
      </g>
     </g>
     <g id="text_12">
      <!-- −230 -->
      <g transform="translate(213.559063 795.519113)scale(0.18 -0.18)">
       <use xlink:href="#DejaVuSans-8722"/>
       <use x="83.789062" xlink:href="#DejaVuSans-50"/>
       <use x="147.412109" xlink:href="#DejaVuSans-51"/>
       <use x="211.035156" xlink:href="#DejaVuSans-48"/>
      </g>
     </g>
    </g>
    <g id="ytick_4">
     <g id="line2d_13">
      <g>
       <use style="stroke:#000000;stroke-width:0.8;" x="270" xlink:href="#md8b38a3bd3" y="682.784416"/>
      </g>
     </g>
     <g id="text_13">
      <!-- −220 -->
      <g transform="translate(213.559063 689.623009)scale(0.18 -0.18)">
       <use xlink:href="#DejaVuSans-8722"/>
       <use x="83.789062" xlink:href="#DejaVuSans-50"/>
       <use x="147.412109" xlink:href="#DejaVuSans-50"/>
       <use x="211.035156" xlink:href="#DejaVuSans-48"/>
      </g>
     </g>
    </g>
    <g id="ytick_5">
     <g id="line2d_14">
      <g>
       <use style="stroke:#000000;stroke-width:0.8;" x="270" xlink:href="#md8b38a3bd3" y="576.888312"/>
      </g>
     </g>
     <g id="text_14">
      <!-- −210 -->
      <g transform="translate(213.559063 583.726905)scale(0.18 -0.18)">
       <use xlink:href="#DejaVuSans-8722"/>
       <use x="83.789062" xlink:href="#DejaVuSans-50"/>
       <use x="147.412109" xlink:href="#DejaVuSans-49"/>
       <use x="211.035156" xlink:href="#DejaVuSans-48"/>
      </g>
     </g>
    </g>
    <g id="ytick_6">
     <g id="line2d_15">
      <g>
       <use style="stroke:#000000;stroke-width:0.8;" x="270" xlink:href="#md8b38a3bd3" y="470.992208"/>
      </g>
     </g>
     <g id="text_15">
      <!-- −200 -->
      <g transform="translate(213.559063 477.830802)scale(0.18 -0.18)">
       <use xlink:href="#DejaVuSans-8722"/>
       <use x="83.789062" xlink:href="#DejaVuSans-50"/>
       <use x="147.412109" xlink:href="#DejaVuSans-48"/>
       <use x="211.035156" xlink:href="#DejaVuSans-48"/>
      </g>
     </g>
    </g>
    <g id="ytick_7">
     <g id="line2d_16">
      <g>
       <use style="stroke:#000000;stroke-width:0.8;" x="270" xlink:href="#md8b38a3bd3" y="365.096104"/>
      </g>
     </g>
     <g id="text_16">
      <!-- −190 -->
      <defs>
       <path d="M 10.984375 1.515625 
L 10.984375 10.5 
Q 14.703125 8.734375 18.5 7.8125 
Q 22.3125 6.890625 25.984375 6.890625 
Q 35.75 6.890625 40.890625 13.453125 
Q 46.046875 20.015625 46.78125 33.40625 
Q 43.953125 29.203125 39.59375 26.953125 
Q 35.25 24.703125 29.984375 24.703125 
Q 19.046875 24.703125 12.671875 31.3125 
Q 6.296875 37.9375 6.296875 49.421875 
Q 6.296875 60.640625 12.9375 67.421875 
Q 19.578125 74.21875 30.609375 74.21875 
Q 43.265625 74.21875 49.921875 64.515625 
Q 56.59375 54.828125 56.59375 36.375 
Q 56.59375 19.140625 48.40625 8.859375 
Q 40.234375 -1.421875 26.421875 -1.421875 
Q 22.703125 -1.421875 18.890625 -0.6875 
Q 15.09375 0.046875 10.984375 1.515625 
z
M 30.609375 32.421875 
Q 37.25 32.421875 41.125 36.953125 
Q 45.015625 41.5 45.015625 49.421875 
Q 45.015625 57.28125 41.125 61.84375 
Q 37.25 66.40625 30.609375 66.40625 
Q 23.96875 66.40625 20.09375 61.84375 
Q 16.21875 57.28125 16.21875 49.421875 
Q 16.21875 41.5 20.09375 36.953125 
Q 23.96875 32.421875 30.609375 32.421875 
z
" id="DejaVuSans-57"/>
      </defs>
      <g transform="translate(213.559063 371.934698)scale(0.18 -0.18)">
       <use xlink:href="#DejaVuSans-8722"/>
       <use x="83.789062" xlink:href="#DejaVuSans-49"/>
       <use x="147.412109" xlink:href="#DejaVuSans-57"/>
       <use x="211.035156" xlink:href="#DejaVuSans-48"/>
      </g>
     </g>
    </g>
    <g id="ytick_8">
     <g id="line2d_17">
      <g>
       <use style="stroke:#000000;stroke-width:0.8;" x="270" xlink:href="#md8b38a3bd3" y="259.2"/>
      </g>
     </g>
     <g id="text_17">
      <!-- −180 -->
      <defs>
       <path d="M 31.78125 34.625 
Q 24.75 34.625 20.71875 30.859375 
Q 16.703125 27.09375 16.703125 20.515625 
Q 16.703125 13.921875 20.71875 10.15625 
Q 24.75 6.390625 31.78125 6.390625 
Q 38.8125 6.390625 42.859375 10.171875 
Q 46.921875 13.96875 46.921875 20.515625 
Q 46.921875 27.09375 42.890625 30.859375 
Q 38.875 34.625 31.78125 34.625 
z
M 21.921875 38.8125 
Q 15.578125 40.375 12.03125 44.71875 
Q 8.5 49.078125 8.5 55.328125 
Q 8.5 64.0625 14.71875 69.140625 
Q 20.953125 74.21875 31.78125 74.21875 
Q 42.671875 74.21875 48.875 69.140625 
Q 55.078125 64.0625 55.078125 55.328125 
Q 55.078125 49.078125 51.53125 44.71875 
Q 48 40.375 41.703125 38.8125 
Q 48.828125 37.15625 52.796875 32.3125 
Q 56.78125 27.484375 56.78125 20.515625 
Q 56.78125 9.90625 50.3125 4.234375 
Q 43.84375 -1.421875 31.78125 -1.421875 
Q 19.734375 -1.421875 13.25 4.234375 
Q 6.78125 9.90625 6.78125 20.515625 
Q 6.78125 27.484375 10.78125 32.3125 
Q 14.796875 37.15625 21.921875 38.8125 
z
M 18.3125 54.390625 
Q 18.3125 48.734375 21.84375 45.5625 
Q 25.390625 42.390625 31.78125 42.390625 
Q 38.140625 42.390625 41.71875 45.5625 
Q 45.3125 48.734375 45.3125 54.390625 
Q 45.3125 60.0625 41.71875 63.234375 
Q 38.140625 66.40625 31.78125 66.40625 
Q 25.390625 66.40625 21.84375 63.234375 
Q 18.3125 60.0625 18.3125 54.390625 
z
" id="DejaVuSans-56"/>
      </defs>
      <g transform="translate(213.559063 266.038594)scale(0.18 -0.18)">
       <use xlink:href="#DejaVuSans-8722"/>
       <use x="83.789062" xlink:href="#DejaVuSans-49"/>
       <use x="147.412109" xlink:href="#DejaVuSans-56"/>
       <use x="211.035156" xlink:href="#DejaVuSans-48"/>
      </g>
     </g>
    </g>
   </g>
   <g id="line2d_18">
    <path clip-path="url(#p004eb64c91)" d="M 358.600201 2161 
L 361.820296 1429.670663 
L 365.752643 1290.116139 
L 369.684989 1182.15807 
L 373.617336 1153.476064 
L 377.549683 1211.535382 
L 381.48203 1262.194852 
L 385.414376 1149.061712 
L 389.346723 1028.029787 
L 393.27907 1041.475301 
L 397.211416 1007.785957 
L 401.143763 961.048386 
L 405.07611 922.297449 
L 409.008457 885.567618 
L 412.940803 897.371195 
L 416.87315 912.921699 
L 420.805497 843.780013 
L 424.737844 826.816579 
L 428.67019 794.995805 
L 432.602537 891.710528 
L 436.534884 805.137343 
L 440.46723 784.146129 
L 444.399577 782.15435 
L 448.331924 775.680343 
L 452.264271 771.216441 
L 456.196617 774.51106 
L 460.128964 741.961073 
L 464.061311 724.412604 
L 467.993658 712.32581 
L 471.926004 703.218714 
L 475.858351 672.31046 
L 479.790698 668.572313 
L 483.723044 641.796667 
L 487.655391 626.080556 
L 491.587738 618.09439 
L 495.520085 616.656504 
L 499.452431 587.958409 
L 503.384778 581.64529 
L 507.317125 555.895282 
L 511.249471 551.322584 
L 515.181818 551.675478 
L 519.114165 531.659258 
L 523.046512 509.625722 
L 526.978858 491.821483 
L 530.911205 495.272209 
L 534.843552 476.247425 
L 538.775899 474.108669 
L 542.708245 485.820646 
L 546.640592 471.674435 
L 550.572939 468.448231 
L 554.505285 466.336436 
L 558.437632 467.143421 
L 562.369979 465.412013 
L 566.302326 440.938723 
L 570.234672 433.042953 
L 574.167019 442.260722 
L 578.099366 440.140419 
L 582.031712 434.483699 
L 585.964059 435.590524 
L 589.896406 434.218708 
L 593.828753 426.385368 
L 597.761099 420.609859 
L 601.693446 428.178069 
L 605.625793 419.348448 
L 609.55814 420.592759 
L 613.490486 444.284172 
L 617.422833 444.786399 
L 621.35518 427.781323 
L 625.287526 407.858927 
L 629.219873 420.618403 
L 633.15222 423.492545 
L 637.084567 414.807802 
L 641.016913 432.51102 
L 644.94926 414.624451 
L 648.881607 407.043341 
L 652.813953 408.318919 
L 656.7463 409.143621 
L 660.678647 412.696914 
L 664.610994 418.393578 
L 672.475687 407.805771 
L 676.408034 404.161426 
L 680.340381 399.677922 
L 684.272727 399.956838 
L 688.205074 400.711908 
L 692.137421 398.451061 
L 696.069767 405.985037 
L 700.002114 401.580355 
L 703.934461 400.038668 
L 707.866808 404.968446 
L 711.799154 418.471499 
L 715.731501 401.890344 
L 719.663848 394.117837 
L 723.596195 390.424647 
L 727.528541 389.914668 
L 731.460888 393.106321 
L 735.393235 385.502334 
L 739.325581 381.489157 
L 743.257928 386.344116 
L 747.190275 379.783901 
L 751.122622 391.439218 
L 755.054968 381.185879 
L 758.987315 378.510379 
L 762.919662 392.971054 
L 766.852008 392.948722 
L 770.784355 382.486655 
L 774.716702 385.24165 
L 778.649049 399.802526 
L 782.581395 386.969323 
L 786.513742 381.06732 
L 790.446089 378.684794 
L 794.378436 388.234967 
L 798.310782 381.466962 
L 802.243129 382.099916 
L 806.175476 388.187931 
L 810.107822 390.20652 
L 814.040169 380.979081 
L 817.972516 381.739577 
L 821.904863 380.171675 
L 825.837209 386.681083 
L 829.769556 385.114501 
L 833.701903 389.761446 
L 837.634249 382.505182 
L 841.566596 378.109775 
L 845.498943 376.896587 
L 849.43129 385.163369 
L 853.363636 389.472261 
L 857.295983 372.840906 
L 861.22833 376.984826 
L 865.160677 384.870249 
L 869.093023 379.020398 
L 873.02537 381.70238 
L 876.957717 382.272093 
L 880.890063 377.211612 
L 884.82241 374.520288 
L 888.754757 379.467159 
L 892.687104 377.247418 
L 896.61945 380.542228 
L 900.551797 394.074376 
L 904.484144 380.609555 
L 908.41649 381.948705 
L 912.348837 379.111815 
L 916.281184 385.05864 
L 920.213531 384.464391 
L 924.145877 370.651533 
L 928.078224 373.2471 
L 932.010571 375.019829 
L 935.942918 372.656936 
L 939.875264 373.327128 
L 943.807611 376.732578 
L 947.739958 376.383435 
L 951.672304 380.898131 
L 955.604651 382.293839 
L 959.536998 381.120321 
L 963.469345 383.389296 
L 967.401691 371.361554 
L 971.334038 376.008195 
L 975.266385 375.266472 
L 979.198732 368.260549 
L 983.131078 364.766089 
L 987.063425 373.448084 
L 990.995772 366.526688 
L 994.928118 365.013385 
L 998.860465 371.192621 
L 1002.792812 379.307349 
L 1006.725159 374.398385 
L 1010.657505 369.672351 
L 1014.589852 367.705919 
L 1018.522199 367.582451 
L 1022.454545 369.581848 
L 1026.386892 360.822247 
L 1030.319239 378.504079 
L 1034.251586 374.291876 
L 1038.183932 367.483298 
L 1046.048626 380.058396 
L 1049.980973 374.532458 
L 1053.913319 367.18739 
L 1057.845666 368.550107 
L 1061.778013 366.9727 
L 1065.710359 369.992885 
L 1069.642706 361.808964 
L 1073.575053 360.031823 
L 1077.5074 368.141116 
L 1081.439746 358.488552 
L 1085.372093 357.727909 
L 1089.30444 367.630613 
L 1093.236786 363.917815 
L 1097.169133 363.712832 
L 1101.10148 360.931314 
L 1105.033827 369.725664 
L 1108.966173 366.288653 
L 1112.89852 366.723124 
L 1116.830867 366.26888 
L 1120.763214 362.556191 
L 1124.69556 360.981522 
L 1128.627907 365.995456 
L 1132.560254 359.623062 
L 1136.4926 358.492459 
L 1140.424947 361.744292 
L 1144.357294 361.196195 
L 1148.289641 368.290168 
L 1152.221987 363.008827 
L 1156.154334 374.37795 
L 1160.086681 371.348652 
L 1164.019027 364.944267 
L 1167.951374 376.697034 
L 1171.883721 374.642415 
L 1175.816068 368.022361 
L 1179.748414 356.657436 
L 1183.680761 366.762604 
L 1187.613108 361.750919 
L 1191.545455 360.694692 
L 1195.477801 361.036492 
L 1199.410148 361.157248 
L 1203.342495 356.860796 
L 1207.274841 351.436662 
L 1211.207188 354.948382 
L 1215.139535 357.664387 
L 1219.071882 363.200685 
L 1223.004228 360.699095 
L 1226.936575 361.422281 
L 1230.868922 361.044879 
L 1234.801268 363.566938 
L 1238.733615 364.54357 
L 1242.665962 363.892227 
L 1246.598309 360.880563 
L 1250.530655 363.310679 
L 1254.463002 362.43347 
L 1258.395349 357.081268 
L 1262.327696 359.100719 
L 1266.260042 354.510161 
L 1270.192389 368.21291 
L 1274.124736 359.507043 
L 1278.057082 351.086711 
L 1281.989429 354.926611 
L 1285.921776 351.549442 
L 1289.854123 350.272472 
L 1293.786469 358.713362 
L 1297.718816 370.133408 
L 1301.651163 357.012803 
L 1305.58351 361.035896 
L 1309.515856 355.132263 
L 1313.448203 365.626381 
L 1317.38055 364.472712 
L 1321.312896 356.456826 
L 1325.245243 356.600491 
L 1329.17759 359.491285 
L 1333.109937 365.682999 
L 1337.042283 360.877008 
L 1340.97463 370.67922 
L 1344.906977 370.834778 
L 1348.839323 365.658418 
L 1352.77167 361.293988 
L 1356.704017 360.664259 
L 1360.636364 356.855941 
L 1364.56871 354.981277 
L 1368.501057 355.85798 
L 1372.433404 360.664679 
L 1376.365751 355.114146 
L 1380.298097 365.448476 
L 1384.230444 355.824863 
L 1388.162791 358.115541 
L 1392.095137 355.739587 
L 1396.027484 354.992282 
L 1399.959831 351.619264 
L 1403.892178 358.303981 
L 1407.824524 368.153342 
L 1411.756871 358.902555 
L 1415.689218 355.75727 
L 1419.621564 352.260855 
L 1423.553911 351.394118 
L 1427.486258 359.202222 
L 1431.418605 348.363541 
L 1435.350951 355.829613 
L 1439.283298 355.005681 
L 1443.215645 348.920647 
L 1447.147992 351.923368 
L 1451.080338 350.759316 
L 1455.012685 353.268074 
L 1458.945032 352.086098 
L 1462.877378 356.28278 
L 1466.809725 352.006134 
L 1470.742072 359.72224 
L 1474.674419 361.717237 
L 1478.606765 351.559677 
L 1486.471459 365.211477 
L 1490.403805 365.053806 
L 1494.336152 367.654998 
L 1498.268499 369.379433 
L 1502.200846 359.907323 
L 1506.133192 362.162769 
L 1510.065539 359.284676 
L 1513.997886 354.217834 
L 1517.930233 354.978549 
L 1521.862579 353.025551 
L 1525.794926 356.724572 
L 1529.727273 360.670371 
L 1533.659619 350.061763 
L 1537.591966 351.245606 
L 1541.524313 356.6526 
L 1545.45666 361.329084 
L 1549.389006 365.55476 
L 1553.321353 356.192968 
L 1557.2537 358.583181 
L 1561.186047 352.091773 
L 1565.118393 349.119072 
L 1569.05074 353.880347 
L 1572.983087 356.564823 
L 1576.915433 352.044268 
L 1580.84778 353.147575 
L 1584.780127 349.640087 
L 1588.712474 352.038536 
L 1592.64482 354.733458 
L 1596.577167 355.202958 
L 1600.509514 356.327197 
L 1604.44186 354.116236 
L 1608.374207 355.930212 
L 1612.306554 358.92233 
L 1616.238901 358.252452 
L 1620.171247 355.912032 
L 1624.103594 355.394591 
L 1628.035941 356.118652 
L 1631.968288 353.82804 
L 1635.900634 353.596863 
L 1639.832981 355.589065 
L 1643.765328 357.447186 
L 1647.697674 355.788974 
L 1651.630021 352.841741 
L 1655.562368 351.669159 
L 1659.494715 358.431064 
L 1663.427061 352.385221 
L 1667.359408 350.433116 
L 1671.291755 351.619638 
L 1675.224101 348.390047 
L 1679.156448 355.867796 
L 1683.088795 359.359718 
L 1687.021142 353.181754 
L 1690.953488 348.118721 
L 1694.885835 352.356183 
L 1698.818182 345.595224 
L 1702.750529 354.600684 
L 1706.682875 349.983185 
L 1710.615222 350.912621 
L 1714.547569 353.708927 
L 1718.479915 360.861653 
L 1722.412262 361.194762 
L 1726.344609 353.646407 
L 1730.276956 352.749306 
L 1734.209302 355.083004 
L 1738.141649 348.098344 
L 1742.073996 346.274884 
L 1746.006342 351.251679 
L 1749.938689 351.915114 
L 1753.871036 348.239789 
L 1757.803383 347.895862 
L 1761.735729 348.316471 
L 1765.668076 346.844185 
L 1769.600423 346.091106 
L 1773.53277 348.638418 
L 1777.465116 350.223768 
L 1781.397463 353.494355 
L 1785.32981 351.613518 
L 1789.262156 346.305286 
L 1793.194503 345.875745 
L 1797.12685 350.107782 
L 1801.059197 352.308091 
L 1804.991543 348.961601 
L 1808.92389 348.534757 
L 1812.856237 349.677433 
L 1816.788584 356.605002 
L 1820.72093 346.648716 
L 1824.653277 348.610671 
L 1828.585624 349.669424 
L 1832.51797 352.807855 
L 1836.450317 351.916821 
L 1840.382664 355.40295 
L 1844.315011 354.051975 
L 1848.247357 355.414584 
L 1852.179704 351.772541 
L 1856.112051 352.298305 
L 1860.044397 352.488775 
L 1863.976744 353.439683 
L 1867.909091 349.604418 
L 1867.909091 349.604418 
" style="fill:none;stroke:#ff0000;stroke-linecap:square;stroke-width:1.5;"/>
   </g>
   <g id="line2d_19">
    <path clip-path="url(#p004eb64c91)" d="M 359.940588 2161 
L 361.820296 1676.51537 
L 365.752643 1506.315739 
L 369.684989 1389.993412 
L 373.617336 1359.394058 
L 377.549683 1410.793604 
L 381.48203 1468.294211 
L 385.414376 1351.492378 
L 389.346723 1219.810712 
L 393.27907 1227.789208 
L 397.211416 1189.513005 
L 401.143763 1137.249857 
L 405.07611 1100.43512 
L 409.008457 1059.983869 
L 412.940803 1070.995587 
L 416.87315 1090.06723 
L 420.805497 1016.920714 
L 424.737844 994.59418 
L 428.67019 962.220862 
L 432.602537 1057.611491 
L 436.534884 969.133362 
L 440.46723 951.297046 
L 444.399577 944.531838 
L 448.331924 943.399045 
L 452.264271 936.801668 
L 456.196617 939.586824 
L 460.128964 904.334988 
L 464.061311 888.668505 
L 467.993658 877.537475 
L 471.926004 867.729146 
L 475.858351 837.283716 
L 479.790698 831.169202 
L 483.723044 804.106857 
L 487.655391 787.169441 
L 491.587738 783.982303 
L 495.520085 778.964664 
L 499.452431 752.467638 
L 503.384778 740.742479 
L 507.317125 714.082516 
L 511.249471 710.554324 
L 515.181818 710.810149 
L 519.114165 690.879352 
L 523.046512 670.003438 
L 526.978858 651.664369 
L 530.911205 653.403248 
L 534.843552 633.730702 
L 538.775899 634.161954 
L 542.708245 645.052137 
L 546.640592 628.204701 
L 550.572939 624.682344 
L 554.505285 628.306214 
L 558.437632 621.15922 
L 562.369979 625.763331 
L 566.302326 598.506284 
L 570.234672 590.947178 
L 574.167019 600.188596 
L 578.099366 600.091699 
L 582.031712 594.329377 
L 585.964059 590.442153 
L 589.896406 589.36522 
L 597.761099 575.383376 
L 601.693446 583.54747 
L 605.625793 577.986498 
L 609.55814 575.140082 
L 613.490486 603.531394 
L 617.422833 600.146483 
L 621.35518 582.898517 
L 625.287526 567.642289 
L 629.219873 574.875394 
L 633.15222 579.018244 
L 637.084567 572.065624 
L 641.016913 591.714332 
L 644.94926 572.660823 
L 648.881607 566.103607 
L 652.813953 566.333999 
L 656.7463 565.258339 
L 660.678647 567.568282 
L 664.610994 575.656321 
L 668.54334 569.334935 
L 672.475687 564.744852 
L 676.408034 562.686668 
L 680.340381 556.91981 
L 684.272727 558.721018 
L 688.205074 558.492385 
L 692.137421 556.746005 
L 696.069767 562.638866 
L 700.002114 559.742221 
L 703.934461 556.278704 
L 707.866808 563.963143 
L 711.799154 576.560062 
L 715.731501 560.849513 
L 719.663848 550.463702 
L 723.596195 547.050416 
L 727.528541 545.081318 
L 731.460888 549.278134 
L 735.393235 542.413663 
L 739.325581 539.108811 
L 743.257928 544.771889 
L 747.190275 534.601946 
L 751.122622 548.810984 
L 755.054968 537.477917 
L 758.987315 534.550199 
L 762.919662 548.611253 
L 766.852008 548.79175 
L 770.784355 535.341344 
L 774.716702 538.767571 
L 778.649049 557.245975 
L 782.581395 544.367844 
L 786.513742 538.452232 
L 790.446089 533.47026 
L 794.378436 542.760035 
L 798.310782 540.252151 
L 802.243129 536.995241 
L 806.175476 544.680498 
L 810.107822 546.701159 
L 814.040169 535.837626 
L 817.972516 537.253396 
L 821.904863 536.365691 
L 825.837209 541.337481 
L 829.769556 537.857338 
L 833.701903 545.081443 
L 837.634249 535.728126 
L 841.566596 534.047906 
L 845.498943 529.237692 
L 849.43129 542.034127 
L 853.363636 546.305095 
L 857.295983 528.413857 
L 861.22833 534.887824 
L 865.160677 539.423538 
L 869.093023 534.627132 
L 873.02537 535.567484 
L 876.957717 539.007197 
L 880.890063 531.403765 
L 884.82241 528.445952 
L 888.754757 535.63644 
L 892.687104 532.599729 
L 896.61945 537.570129 
L 900.551797 554.267901 
L 904.484144 540.021164 
L 908.41649 539.210325 
L 912.348837 536.446314 
L 916.281184 542.359779 
L 920.213531 540.917113 
L 924.145877 526.836269 
L 928.078224 528.346768 
L 932.010571 531.252317 
L 935.942918 529.694508 
L 939.875264 527.472979 
L 943.807611 531.686387 
L 947.739958 530.315724 
L 951.672304 536.392196 
L 955.604651 536.652606 
L 959.536998 535.294769 
L 963.469345 538.453628 
L 967.401691 525.655057 
L 971.334038 531.074383 
L 975.266385 530.788657 
L 979.198732 523.262549 
L 983.131078 517.001123 
L 987.063425 527.669733 
L 990.995772 521.221495 
L 994.928118 521.628074 
L 998.860465 526.371757 
L 1002.792812 534.897369 
L 1006.725159 528.369045 
L 1010.657505 525.492596 
L 1014.589852 525.086435 
L 1018.522199 522.318764 
L 1022.454545 523.079941 
L 1026.386892 516.171375 
L 1030.319239 532.205823 
L 1034.251586 527.552409 
L 1038.183932 521.723602 
L 1042.116279 529.399645 
L 1046.048626 532.039062 
L 1049.980973 529.041757 
L 1053.913319 524.002034 
L 1057.845666 520.437071 
L 1061.778013 522.398453 
L 1065.710359 526.674124 
L 1069.642706 516.509144 
L 1073.575053 516.167592 
L 1077.5074 523.849918 
L 1081.439746 513.895687 
L 1085.372093 512.622115 
L 1089.30444 522.691927 
L 1093.236786 519.780009 
L 1097.169133 517.369095 
L 1101.10148 517.620718 
L 1105.033827 526.075118 
L 1108.966173 524.594836 
L 1112.89852 521.902402 
L 1116.830867 520.791373 
L 1120.763214 516.070499 
L 1124.69556 516.327885 
L 1128.627907 519.882952 
L 1132.560254 514.004302 
L 1140.424947 514.927682 
L 1144.357294 516.729696 
L 1148.289641 523.693331 
L 1152.221987 515.280447 
L 1156.154334 529.668037 
L 1160.086681 528.15288 
L 1164.019027 519.77278 
L 1167.951374 531.298065 
L 1171.883721 527.395355 
L 1175.816068 522.181657 
L 1179.748414 510.849442 
L 1183.680761 520.880522 
L 1187.613108 517.307124 
L 1191.545455 517.208918 
L 1195.477801 514.156243 
L 1199.410148 511.881707 
L 1203.342495 511.715849 
L 1207.274841 505.684768 
L 1211.207188 509.801179 
L 1215.139535 512.759204 
L 1219.071882 517.596304 
L 1223.004228 514.992204 
L 1226.936575 516.98713 
L 1230.868922 516.105872 
L 1234.801268 519.770396 
L 1238.733615 520.645632 
L 1242.665962 517.433407 
L 1246.598309 517.325329 
L 1250.530655 516.28962 
L 1254.463002 517.447871 
L 1258.395349 511.25201 
L 1262.327696 514.623812 
L 1266.260042 509.703282 
L 1270.192389 523.492293 
L 1274.124736 513.931412 
L 1278.057082 505.858217 
L 1281.989429 507.643505 
L 1285.921776 506.95017 
L 1289.854123 506.930331 
L 1297.718816 525.945557 
L 1301.651163 512.913282 
L 1305.58351 514.232978 
L 1309.515856 510.878273 
L 1313.448203 520.962015 
L 1317.38055 520.727422 
L 1321.312896 510.008989 
L 1325.245243 510.851443 
L 1329.17759 514.683023 
L 1333.109937 517.559773 
L 1337.042283 514.446955 
L 1340.97463 525.258369 
L 1344.906977 525.116817 
L 1348.839323 520.397704 
L 1356.704017 515.067336 
L 1360.636364 509.50263 
L 1364.56871 510.488837 
L 1368.501057 508.020756 
L 1372.433404 514.486654 
L 1376.365751 506.516619 
L 1380.298097 518.724154 
L 1384.230444 509.542555 
L 1388.162791 511.585633 
L 1392.095137 507.124871 
L 1396.027484 508.186195 
L 1399.959831 506.195529 
L 1403.892178 512.981379 
L 1407.824524 523.872229 
L 1411.756871 513.374667 
L 1415.689218 511.813187 
L 1419.621564 507.367937 
L 1423.553911 507.408898 
L 1427.486258 512.790103 
L 1431.418605 504.237667 
L 1435.350951 509.829931 
L 1439.283298 509.582549 
L 1443.215645 505.218948 
L 1447.147992 506.926315 
L 1451.080338 506.671325 
L 1455.012685 509.666989 
L 1458.945032 507.718497 
L 1462.877378 511.053865 
L 1466.809725 510.648759 
L 1470.742072 514.583704 
L 1474.674419 518.11912 
L 1478.606765 505.923258 
L 1482.539112 511.334182 
L 1486.471459 519.055061 
L 1490.403805 519.202759 
L 1494.336152 522.674883 
L 1498.268499 523.519062 
L 1502.200846 514.464475 
L 1506.133192 517.303358 
L 1510.065539 513.953613 
L 1513.997886 508.704879 
L 1517.930233 511.490824 
L 1521.862579 506.690192 
L 1525.794926 513.129377 
L 1529.727273 515.098593 
L 1533.659619 502.127053 
L 1537.591966 506.07205 
L 1541.524313 512.554528 
L 1545.45666 516.73608 
L 1549.389006 520.631984 
L 1553.321353 511.893524 
L 1557.2537 515.518995 
L 1561.186047 507.835301 
L 1565.118393 505.736085 
L 1569.05074 505.915794 
L 1572.983087 510.557774 
L 1576.915433 508.58676 
L 1580.84778 507.00416 
L 1584.780127 505.894135 
L 1588.712474 505.240969 
L 1592.64482 509.81083 
L 1596.577167 509.941682 
L 1600.509514 509.813951 
L 1604.44186 506.674762 
L 1608.374207 510.007066 
L 1616.238901 513.106238 
L 1620.171247 511.31607 
L 1624.103594 510.289298 
L 1628.035941 510.352004 
L 1631.968288 505.523615 
L 1635.900634 507.485397 
L 1639.832981 508.868651 
L 1643.765328 516.811453 
L 1647.697674 510.862645 
L 1651.630021 508.448848 
L 1655.562368 509.658039 
L 1659.494715 513.387266 
L 1663.427061 506.085989 
L 1667.359408 503.922783 
L 1671.291755 503.96494 
L 1675.224101 502.306613 
L 1679.156448 512.487543 
L 1683.088795 513.6363 
L 1687.021142 508.12515 
L 1690.953488 503.486348 
L 1694.885835 509.639394 
L 1698.818182 498.480754 
L 1702.750529 510.456289 
L 1706.682875 505.615809 
L 1710.615222 503.452478 
L 1714.547569 507.254589 
L 1718.479915 512.168073 
L 1722.412262 516.645781 
L 1726.344609 508.38474 
L 1730.276956 507.563412 
L 1734.209302 507.504896 
L 1738.141649 499.984952 
L 1742.073996 502.386982 
L 1746.006342 504.937899 
L 1749.938689 506.219282 
L 1753.871036 503.87056 
L 1757.803383 502.491414 
L 1761.735729 502.321807 
L 1765.668076 500.520182 
L 1769.600423 502.583375 
L 1773.53277 501.497503 
L 1777.465116 503.346977 
L 1781.397463 504.630516 
L 1785.32981 504.00016 
L 1789.262156 502.198735 
L 1793.194503 501.144893 
L 1797.12685 505.013491 
L 1801.059197 507.627119 
L 1804.991543 505.253092 
L 1808.92389 505.726483 
L 1812.856237 504.282526 
L 1816.788584 510.321186 
L 1820.72093 502.20558 
L 1824.653277 504.876761 
L 1828.585624 504.338915 
L 1832.51797 508.342919 
L 1836.450317 505.194681 
L 1840.382664 510.075602 
L 1844.315011 510.04989 
L 1848.247357 509.10968 
L 1852.179704 507.830004 
L 1856.112051 508.10457 
L 1860.044397 506.132104 
L 1863.976744 506.206995 
L 1867.909091 504.66392 
L 1867.909091 504.66392 
" style="fill:none;stroke:#0000ff;stroke-linecap:square;stroke-width:1.5;"/>
   </g>
   <g id="patch_3">
    <path d="M 270 1000.472727 
L 270 259.2 
" style="fill:none;stroke:#000000;stroke-linecap:square;stroke-linejoin:miter;stroke-width:0.8;"/>
   </g>
   <g id="patch_4">
    <path d="M 1944 1000.472727 
L 1944 259.2 
" style="fill:none;stroke:#000000;stroke-linecap:square;stroke-linejoin:miter;stroke-width:0.8;"/>
   </g>
   <g id="patch_5">
    <path d="M 270 1000.472727 
L 1944 1000.472727 
" style="fill:none;stroke:#000000;stroke-linecap:square;stroke-linejoin:miter;stroke-width:0.8;"/>
   </g>
   <g id="patch_6">
    <path d="M 270 259.2 
L 1944 259.2 
" style="fill:none;stroke:#000000;stroke-linecap:square;stroke-linejoin:miter;stroke-width:0.8;"/>
   </g>
   <g id="text_18">
    <!-- epoch=10000, batch_size=10, lr=1.0E-04, samples=10 -->
    <defs>
     <path d="M 56.203125 29.59375 
L 56.203125 25.203125 
L 14.890625 25.203125 
Q 15.484375 15.921875 20.484375 11.0625 
Q 25.484375 6.203125 34.421875 6.203125 
Q 39.59375 6.203125 44.453125 7.46875 
Q 49.3125 8.734375 54.109375 11.28125 
L 54.109375 2.78125 
Q 49.265625 0.734375 44.1875 -0.34375 
Q 39.109375 -1.421875 33.890625 -1.421875 
Q 20.796875 -1.421875 13.15625 6.1875 
Q 5.515625 13.8125 5.515625 26.8125 
Q 5.515625 40.234375 12.765625 48.109375 
Q 20.015625 56 32.328125 56 
Q 43.359375 56 49.78125 48.890625 
Q 56.203125 41.796875 56.203125 29.59375 
z
M 47.21875 32.234375 
Q 47.125 39.59375 43.09375 43.984375 
Q 39.0625 48.390625 32.421875 48.390625 
Q 24.90625 48.390625 20.390625 44.140625 
Q 15.875 39.890625 15.1875 32.171875 
z
" id="DejaVuSans-101"/>
     <path d="M 18.109375 8.203125 
L 18.109375 -20.796875 
L 9.078125 -20.796875 
L 9.078125 54.6875 
L 18.109375 54.6875 
L 18.109375 46.390625 
Q 20.953125 51.265625 25.265625 53.625 
Q 29.59375 56 35.59375 56 
Q 45.5625 56 51.78125 48.09375 
Q 58.015625 40.1875 58.015625 27.296875 
Q 58.015625 14.40625 51.78125 6.484375 
Q 45.5625 -1.421875 35.59375 -1.421875 
Q 29.59375 -1.421875 25.265625 0.953125 
Q 20.953125 3.328125 18.109375 8.203125 
z
M 48.6875 27.296875 
Q 48.6875 37.203125 44.609375 42.84375 
Q 40.53125 48.484375 33.40625 48.484375 
Q 26.265625 48.484375 22.1875 42.84375 
Q 18.109375 37.203125 18.109375 27.296875 
Q 18.109375 17.390625 22.1875 11.75 
Q 26.265625 6.109375 33.40625 6.109375 
Q 40.53125 6.109375 44.609375 11.75 
Q 48.6875 17.390625 48.6875 27.296875 
z
" id="DejaVuSans-112"/>
     <path d="M 30.609375 48.390625 
Q 23.390625 48.390625 19.1875 42.75 
Q 14.984375 37.109375 14.984375 27.296875 
Q 14.984375 17.484375 19.15625 11.84375 
Q 23.34375 6.203125 30.609375 6.203125 
Q 37.796875 6.203125 41.984375 11.859375 
Q 46.1875 17.53125 46.1875 27.296875 
Q 46.1875 37.015625 41.984375 42.703125 
Q 37.796875 48.390625 30.609375 48.390625 
z
M 30.609375 56 
Q 42.328125 56 49.015625 48.375 
Q 55.71875 40.765625 55.71875 27.296875 
Q 55.71875 13.875 49.015625 6.21875 
Q 42.328125 -1.421875 30.609375 -1.421875 
Q 18.84375 -1.421875 12.171875 6.21875 
Q 5.515625 13.875 5.515625 27.296875 
Q 5.515625 40.765625 12.171875 48.375 
Q 18.84375 56 30.609375 56 
z
" id="DejaVuSans-111"/>
     <path d="M 48.78125 52.59375 
L 48.78125 44.1875 
Q 44.96875 46.296875 41.140625 47.34375 
Q 37.3125 48.390625 33.40625 48.390625 
Q 24.65625 48.390625 19.8125 42.84375 
Q 14.984375 37.3125 14.984375 27.296875 
Q 14.984375 17.28125 19.8125 11.734375 
Q 24.65625 6.203125 33.40625 6.203125 
Q 37.3125 6.203125 41.140625 7.25 
Q 44.96875 8.296875 48.78125 10.40625 
L 48.78125 2.09375 
Q 45.015625 0.34375 40.984375 -0.53125 
Q 36.96875 -1.421875 32.421875 -1.421875 
Q 20.0625 -1.421875 12.78125 6.34375 
Q 5.515625 14.109375 5.515625 27.296875 
Q 5.515625 40.671875 12.859375 48.328125 
Q 20.21875 56 33.015625 56 
Q 37.15625 56 41.109375 55.140625 
Q 45.0625 54.296875 48.78125 52.59375 
z
" id="DejaVuSans-99"/>
     <path d="M 54.890625 33.015625 
L 54.890625 0 
L 45.90625 0 
L 45.90625 32.71875 
Q 45.90625 40.484375 42.875 44.328125 
Q 39.84375 48.1875 33.796875 48.1875 
Q 26.515625 48.1875 22.3125 43.546875 
Q 18.109375 38.921875 18.109375 30.90625 
L 18.109375 0 
L 9.078125 0 
L 9.078125 75.984375 
L 18.109375 75.984375 
L 18.109375 46.1875 
Q 21.34375 51.125 25.703125 53.5625 
Q 30.078125 56 35.796875 56 
Q 45.21875 56 50.046875 50.171875 
Q 54.890625 44.34375 54.890625 33.015625 
z
" id="DejaVuSans-104"/>
     <path d="M 10.59375 45.40625 
L 73.1875 45.40625 
L 73.1875 37.203125 
L 10.59375 37.203125 
z
M 10.59375 25.484375 
L 73.1875 25.484375 
L 73.1875 17.1875 
L 10.59375 17.1875 
z
" id="DejaVuSans-61"/>
     <path d="M 11.71875 12.40625 
L 22.015625 12.40625 
L 22.015625 4 
L 14.015625 -11.625 
L 7.71875 -11.625 
L 11.71875 4 
z
" id="DejaVuSans-44"/>
     <path id="DejaVuSans-32"/>
     <path d="M 48.6875 27.296875 
Q 48.6875 37.203125 44.609375 42.84375 
Q 40.53125 48.484375 33.40625 48.484375 
Q 26.265625 48.484375 22.1875 42.84375 
Q 18.109375 37.203125 18.109375 27.296875 
Q 18.109375 17.390625 22.1875 11.75 
Q 26.265625 6.109375 33.40625 6.109375 
Q 40.53125 6.109375 44.609375 11.75 
Q 48.6875 17.390625 48.6875 27.296875 
z
M 18.109375 46.390625 
Q 20.953125 51.265625 25.265625 53.625 
Q 29.59375 56 35.59375 56 
Q 45.5625 56 51.78125 48.09375 
Q 58.015625 40.1875 58.015625 27.296875 
Q 58.015625 14.40625 51.78125 6.484375 
Q 45.5625 -1.421875 35.59375 -1.421875 
Q 29.59375 -1.421875 25.265625 0.953125 
Q 20.953125 3.328125 18.109375 8.203125 
L 18.109375 0 
L 9.078125 0 
L 9.078125 75.984375 
L 18.109375 75.984375 
z
" id="DejaVuSans-98"/>
     <path d="M 34.28125 27.484375 
Q 23.390625 27.484375 19.1875 25 
Q 14.984375 22.515625 14.984375 16.5 
Q 14.984375 11.71875 18.140625 8.90625 
Q 21.296875 6.109375 26.703125 6.109375 
Q 34.1875 6.109375 38.703125 11.40625 
Q 43.21875 16.703125 43.21875 25.484375 
L 43.21875 27.484375 
z
M 52.203125 31.203125 
L 52.203125 0 
L 43.21875 0 
L 43.21875 8.296875 
Q 40.140625 3.328125 35.546875 0.953125 
Q 30.953125 -1.421875 24.3125 -1.421875 
Q 15.921875 -1.421875 10.953125 3.296875 
Q 6 8.015625 6 15.921875 
Q 6 25.140625 12.171875 29.828125 
Q 18.359375 34.515625 30.609375 34.515625 
L 43.21875 34.515625 
L 43.21875 35.40625 
Q 43.21875 41.609375 39.140625 45 
Q 35.0625 48.390625 27.6875 48.390625 
Q 23 48.390625 18.546875 47.265625 
Q 14.109375 46.140625 10.015625 43.890625 
L 10.015625 52.203125 
Q 14.9375 54.109375 19.578125 55.046875 
Q 24.21875 56 28.609375 56 
Q 40.484375 56 46.34375 49.84375 
Q 52.203125 43.703125 52.203125 31.203125 
z
" id="DejaVuSans-97"/>
     <path d="M 18.3125 70.21875 
L 18.3125 54.6875 
L 36.8125 54.6875 
L 36.8125 47.703125 
L 18.3125 47.703125 
L 18.3125 18.015625 
Q 18.3125 11.328125 20.140625 9.421875 
Q 21.96875 7.515625 27.59375 7.515625 
L 36.8125 7.515625 
L 36.8125 0 
L 27.59375 0 
Q 17.1875 0 13.234375 3.875 
Q 9.28125 7.765625 9.28125 18.015625 
L 9.28125 47.703125 
L 2.6875 47.703125 
L 2.6875 54.6875 
L 9.28125 54.6875 
L 9.28125 70.21875 
z
" id="DejaVuSans-116"/>
     <path d="M 50.984375 -16.609375 
L 50.984375 -23.578125 
L -0.984375 -23.578125 
L -0.984375 -16.609375 
z
" id="DejaVuSans-95"/>
     <path d="M 44.28125 53.078125 
L 44.28125 44.578125 
Q 40.484375 46.53125 36.375 47.5 
Q 32.28125 48.484375 27.875 48.484375 
Q 21.1875 48.484375 17.84375 46.4375 
Q 14.5 44.390625 14.5 40.28125 
Q 14.5 37.15625 16.890625 35.375 
Q 19.28125 33.59375 26.515625 31.984375 
L 29.59375 31.296875 
Q 39.15625 29.25 43.1875 25.515625 
Q 47.21875 21.78125 47.21875 15.09375 
Q 47.21875 7.46875 41.1875 3.015625 
Q 35.15625 -1.421875 24.609375 -1.421875 
Q 20.21875 -1.421875 15.453125 -0.5625 
Q 10.6875 0.296875 5.421875 2 
L 5.421875 11.28125 
Q 10.40625 8.6875 15.234375 7.390625 
Q 20.0625 6.109375 24.8125 6.109375 
Q 31.15625 6.109375 34.5625 8.28125 
Q 37.984375 10.453125 37.984375 14.40625 
Q 37.984375 18.0625 35.515625 20.015625 
Q 33.0625 21.96875 24.703125 23.78125 
L 21.578125 24.515625 
Q 13.234375 26.265625 9.515625 29.90625 
Q 5.8125 33.546875 5.8125 39.890625 
Q 5.8125 47.609375 11.28125 51.796875 
Q 16.75 56 26.8125 56 
Q 31.78125 56 36.171875 55.265625 
Q 40.578125 54.546875 44.28125 53.078125 
z
" id="DejaVuSans-115"/>
     <path d="M 9.421875 54.6875 
L 18.40625 54.6875 
L 18.40625 0 
L 9.421875 0 
z
M 9.421875 75.984375 
L 18.40625 75.984375 
L 18.40625 64.59375 
L 9.421875 64.59375 
z
" id="DejaVuSans-105"/>
     <path d="M 5.515625 54.6875 
L 48.1875 54.6875 
L 48.1875 46.484375 
L 14.40625 7.171875 
L 48.1875 7.171875 
L 48.1875 0 
L 4.296875 0 
L 4.296875 8.203125 
L 38.09375 47.515625 
L 5.515625 47.515625 
z
" id="DejaVuSans-122"/>
     <path d="M 9.421875 75.984375 
L 18.40625 75.984375 
L 18.40625 0 
L 9.421875 0 
z
" id="DejaVuSans-108"/>
     <path d="M 41.109375 46.296875 
Q 39.59375 47.171875 37.8125 47.578125 
Q 36.03125 48 33.890625 48 
Q 26.265625 48 22.1875 43.046875 
Q 18.109375 38.09375 18.109375 28.8125 
L 18.109375 0 
L 9.078125 0 
L 9.078125 54.6875 
L 18.109375 54.6875 
L 18.109375 46.1875 
Q 20.953125 51.171875 25.484375 53.578125 
Q 30.03125 56 36.53125 56 
Q 37.453125 56 38.578125 55.875 
Q 39.703125 55.765625 41.0625 55.515625 
z
" id="DejaVuSans-114"/>
     <path d="M 10.6875 12.40625 
L 21 12.40625 
L 21 0 
L 10.6875 0 
z
" id="DejaVuSans-46"/>
     <path d="M 9.8125 72.90625 
L 55.90625 72.90625 
L 55.90625 64.59375 
L 19.671875 64.59375 
L 19.671875 43.015625 
L 54.390625 43.015625 
L 54.390625 34.71875 
L 19.671875 34.71875 
L 19.671875 8.296875 
L 56.78125 8.296875 
L 56.78125 0 
L 9.8125 0 
z
" id="DejaVuSans-69"/>
     <path d="M 4.890625 31.390625 
L 31.203125 31.390625 
L 31.203125 23.390625 
L 4.890625 23.390625 
z
" id="DejaVuSans-45"/>
     <path d="M 52 44.1875 
Q 55.375 50.25 60.0625 53.125 
Q 64.75 56 71.09375 56 
Q 79.640625 56 84.28125 50.015625 
Q 88.921875 44.046875 88.921875 33.015625 
L 88.921875 0 
L 79.890625 0 
L 79.890625 32.71875 
Q 79.890625 40.578125 77.09375 44.375 
Q 74.3125 48.1875 68.609375 48.1875 
Q 61.625 48.1875 57.5625 43.546875 
Q 53.515625 38.921875 53.515625 30.90625 
L 53.515625 0 
L 44.484375 0 
L 44.484375 32.71875 
Q 44.484375 40.625 41.703125 44.40625 
Q 38.921875 48.1875 33.109375 48.1875 
Q 26.21875 48.1875 22.15625 43.53125 
Q 18.109375 38.875 18.109375 30.90625 
L 18.109375 0 
L 9.078125 0 
L 9.078125 54.6875 
L 18.109375 54.6875 
L 18.109375 46.1875 
Q 21.1875 51.21875 25.484375 53.609375 
Q 29.78125 56 35.6875 56 
Q 41.65625 56 45.828125 52.96875 
Q 50 49.953125 52 44.1875 
z
" id="DejaVuSans-109"/>
    </defs>
    <g transform="translate(855.054844 253.2)scale(0.18 -0.18)">
     <use xlink:href="#DejaVuSans-101"/>
     <use x="61.523438" xlink:href="#DejaVuSans-112"/>
     <use x="125" xlink:href="#DejaVuSans-111"/>
     <use x="186.181641" xlink:href="#DejaVuSans-99"/>
     <use x="241.162109" xlink:href="#DejaVuSans-104"/>
     <use x="304.541016" xlink:href="#DejaVuSans-61"/>
     <use x="388.330078" xlink:href="#DejaVuSans-49"/>
     <use x="451.953125" xlink:href="#DejaVuSans-48"/>
     <use x="515.576172" xlink:href="#DejaVuSans-48"/>
     <use x="579.199219" xlink:href="#DejaVuSans-48"/>
     <use x="642.822266" xlink:href="#DejaVuSans-48"/>
     <use x="706.445312" xlink:href="#DejaVuSans-44"/>
     <use x="738.232422" xlink:href="#DejaVuSans-32"/>
     <use x="770.019531" xlink:href="#DejaVuSans-98"/>
     <use x="833.496094" xlink:href="#DejaVuSans-97"/>
     <use x="894.775391" xlink:href="#DejaVuSans-116"/>
     <use x="933.984375" xlink:href="#DejaVuSans-99"/>
     <use x="988.964844" xlink:href="#DejaVuSans-104"/>
     <use x="1052.34375" xlink:href="#DejaVuSans-95"/>
     <use x="1102.34375" xlink:href="#DejaVuSans-115"/>
     <use x="1154.443359" xlink:href="#DejaVuSans-105"/>
     <use x="1182.226562" xlink:href="#DejaVuSans-122"/>
     <use x="1234.716797" xlink:href="#DejaVuSans-101"/>
     <use x="1296.240234" xlink:href="#DejaVuSans-61"/>
     <use x="1380.029297" xlink:href="#DejaVuSans-49"/>
     <use x="1443.652344" xlink:href="#DejaVuSans-48"/>
     <use x="1507.275391" xlink:href="#DejaVuSans-44"/>
     <use x="1539.0625" xlink:href="#DejaVuSans-32"/>
     <use x="1570.849609" xlink:href="#DejaVuSans-108"/>
     <use x="1598.632812" xlink:href="#DejaVuSans-114"/>
     <use x="1639.746094" xlink:href="#DejaVuSans-61"/>
     <use x="1723.535156" xlink:href="#DejaVuSans-49"/>
     <use x="1787.158203" xlink:href="#DejaVuSans-46"/>
     <use x="1818.945312" xlink:href="#DejaVuSans-48"/>
     <use x="1882.568359" xlink:href="#DejaVuSans-69"/>
     <use x="1945.751953" xlink:href="#DejaVuSans-45"/>
     <use x="1981.835938" xlink:href="#DejaVuSans-48"/>
     <use x="2045.458984" xlink:href="#DejaVuSans-52"/>
     <use x="2109.082031" xlink:href="#DejaVuSans-44"/>
     <use x="2140.869141" xlink:href="#DejaVuSans-32"/>
     <use x="2172.65625" xlink:href="#DejaVuSans-115"/>
     <use x="2224.755859" xlink:href="#DejaVuSans-97"/>
     <use x="2286.035156" xlink:href="#DejaVuSans-109"/>
     <use x="2383.447266" xlink:href="#DejaVuSans-112"/>
     <use x="2446.923828" xlink:href="#DejaVuSans-108"/>
     <use x="2474.707031" xlink:href="#DejaVuSans-101"/>
     <use x="2536.230469" xlink:href="#DejaVuSans-115"/>
     <use x="2588.330078" xlink:href="#DejaVuSans-61"/>
     <use x="2672.119141" xlink:href="#DejaVuSans-49"/>
     <use x="2735.742188" xlink:href="#DejaVuSans-48"/>
    </g>
   </g>
   <g id="legend_1">
    <g id="patch_7">
     <path d="M 1871.421875 296.55625 
L 1937 296.55625 
Q 1939 296.55625 1939 294.55625 
L 1939 266.2 
Q 1939 264.2 1937 264.2 
L 1871.421875 264.2 
Q 1869.421875 264.2 1869.421875 266.2 
L 1869.421875 294.55625 
Q 1869.421875 296.55625 1871.421875 296.55625 
z
" style="fill:#ffffff;opacity:0.8;stroke:#cccccc;stroke-linejoin:miter;"/>
    </g>
    <g id="line2d_20">
     <path d="M 1873.421875 272.298438 
L 1893.421875 272.298438 
" style="fill:none;stroke:#ff0000;stroke-linecap:square;stroke-width:1.5;"/>
    </g>
    <g id="line2d_21"/>
    <g id="text_19">
     <!-- EUBOs -->
     <defs>
      <path d="M 8.6875 72.90625 
L 18.609375 72.90625 
L 18.609375 28.609375 
Q 18.609375 16.890625 22.84375 11.734375 
Q 27.09375 6.59375 36.625 6.59375 
Q 46.09375 6.59375 50.34375 11.734375 
Q 54.59375 16.890625 54.59375 28.609375 
L 54.59375 72.90625 
L 64.5 72.90625 
L 64.5 27.390625 
Q 64.5 13.140625 57.4375 5.859375 
Q 50.390625 -1.421875 36.625 -1.421875 
Q 22.796875 -1.421875 15.734375 5.859375 
Q 8.6875 13.140625 8.6875 27.390625 
z
" id="DejaVuSans-85"/>
      <path d="M 19.671875 34.8125 
L 19.671875 8.109375 
L 35.5 8.109375 
Q 43.453125 8.109375 47.28125 11.40625 
Q 51.125 14.703125 51.125 21.484375 
Q 51.125 28.328125 47.28125 31.5625 
Q 43.453125 34.8125 35.5 34.8125 
z
M 19.671875 64.796875 
L 19.671875 42.828125 
L 34.28125 42.828125 
Q 41.5 42.828125 45.03125 45.53125 
Q 48.578125 48.25 48.578125 53.8125 
Q 48.578125 59.328125 45.03125 62.0625 
Q 41.5 64.796875 34.28125 64.796875 
z
M 9.8125 72.90625 
L 35.015625 72.90625 
Q 46.296875 72.90625 52.390625 68.21875 
Q 58.5 63.53125 58.5 54.890625 
Q 58.5 48.1875 55.375 44.234375 
Q 52.25 40.28125 46.1875 39.3125 
Q 53.46875 37.75 57.5 32.78125 
Q 61.53125 27.828125 61.53125 20.40625 
Q 61.53125 10.640625 54.890625 5.3125 
Q 48.25 0 35.984375 0 
L 9.8125 0 
z
" id="DejaVuSans-66"/>
      <path d="M 39.40625 66.21875 
Q 28.65625 66.21875 22.328125 58.203125 
Q 16.015625 50.203125 16.015625 36.375 
Q 16.015625 22.609375 22.328125 14.59375 
Q 28.65625 6.59375 39.40625 6.59375 
Q 50.140625 6.59375 56.421875 14.59375 
Q 62.703125 22.609375 62.703125 36.375 
Q 62.703125 50.203125 56.421875 58.203125 
Q 50.140625 66.21875 39.40625 66.21875 
z
M 39.40625 74.21875 
Q 54.734375 74.21875 63.90625 63.9375 
Q 73.09375 53.65625 73.09375 36.375 
Q 73.09375 19.140625 63.90625 8.859375 
Q 54.734375 -1.421875 39.40625 -1.421875 
Q 24.03125 -1.421875 14.8125 8.828125 
Q 5.609375 19.09375 5.609375 36.375 
Q 5.609375 53.65625 14.8125 63.9375 
Q 24.03125 74.21875 39.40625 74.21875 
z
" id="DejaVuSans-79"/>
     </defs>
     <g transform="translate(1901.421875 275.798438)scale(0.1 -0.1)">
      <use xlink:href="#DejaVuSans-69"/>
      <use x="63.183594" xlink:href="#DejaVuSans-85"/>
      <use x="136.376953" xlink:href="#DejaVuSans-66"/>
      <use x="204.964844" xlink:href="#DejaVuSans-79"/>
      <use x="283.675781" xlink:href="#DejaVuSans-115"/>
     </g>
    </g>
    <g id="line2d_22">
     <path d="M 1873.421875 286.976562 
L 1893.421875 286.976562 
" style="fill:none;stroke:#0000ff;stroke-linecap:square;stroke-width:1.5;"/>
    </g>
    <g id="line2d_23"/>
    <g id="text_20">
     <!-- ELBOs -->
     <defs>
      <path d="M 9.8125 72.90625 
L 19.671875 72.90625 
L 19.671875 8.296875 
L 55.171875 8.296875 
L 55.171875 0 
L 9.8125 0 
z
" id="DejaVuSans-76"/>
     </defs>
     <g transform="translate(1901.421875 290.476562)scale(0.1 -0.1)">
      <use xlink:href="#DejaVuSans-69"/>
      <use x="63.183594" xlink:href="#DejaVuSans-76"/>
      <use x="118.896484" xlink:href="#DejaVuSans-66"/>
      <use x="187.484375" xlink:href="#DejaVuSans-79"/>
      <use x="266.195312" xlink:href="#DejaVuSans-115"/>
     </g>
    </g>
   </g>
  </g>
  <g id="axes_2">
   <g id="patch_8">
    <path d="M 270 1890 
L 1944 1890 
L 1944 1148.727273 
L 270 1148.727273 
z
" style="fill:#ffffff;"/>
   </g>
   <g id="matplotlib.axis_3">
    <g id="xtick_10">
     <g id="line2d_24">
      <g>
       <use style="stroke:#000000;stroke-width:0.8;" x="346.090909" xlink:href="#m69cab5a63a" y="1890"/>
      </g>
     </g>
     <g id="text_21">
      <!-- 0 -->
      <g transform="translate(340.364659 1910.677187)scale(0.18 -0.18)">
       <use xlink:href="#DejaVuSans-48"/>
      </g>
     </g>
    </g>
    <g id="xtick_11">
     <g id="line2d_25">
      <g>
       <use style="stroke:#000000;stroke-width:0.8;" x="542.708245" xlink:href="#m69cab5a63a" y="1890"/>
      </g>
     </g>
     <g id="text_22">
      <!-- 50 -->
      <g transform="translate(531.255745 1910.677187)scale(0.18 -0.18)">
       <use xlink:href="#DejaVuSans-53"/>
       <use x="63.623047" xlink:href="#DejaVuSans-48"/>
      </g>
     </g>
    </g>
    <g id="xtick_12">
     <g id="line2d_26">
      <g>
       <use style="stroke:#000000;stroke-width:0.8;" x="739.325581" xlink:href="#m69cab5a63a" y="1890"/>
      </g>
     </g>
     <g id="text_23">
      <!-- 100 -->
      <g transform="translate(722.146831 1910.677187)scale(0.18 -0.18)">
       <use xlink:href="#DejaVuSans-49"/>
       <use x="63.623047" xlink:href="#DejaVuSans-48"/>
       <use x="127.246094" xlink:href="#DejaVuSans-48"/>
      </g>
     </g>
    </g>
    <g id="xtick_13">
     <g id="line2d_27">
      <g>
       <use style="stroke:#000000;stroke-width:0.8;" x="935.942918" xlink:href="#m69cab5a63a" y="1890"/>
      </g>
     </g>
     <g id="text_24">
      <!-- 150 -->
      <g transform="translate(918.764168 1910.677187)scale(0.18 -0.18)">
       <use xlink:href="#DejaVuSans-49"/>
       <use x="63.623047" xlink:href="#DejaVuSans-53"/>
       <use x="127.246094" xlink:href="#DejaVuSans-48"/>
      </g>
     </g>
    </g>
    <g id="xtick_14">
     <g id="line2d_28">
      <g>
       <use style="stroke:#000000;stroke-width:0.8;" x="1132.560254" xlink:href="#m69cab5a63a" y="1890"/>
      </g>
     </g>
     <g id="text_25">
      <!-- 200 -->
      <g transform="translate(1115.381504 1910.677187)scale(0.18 -0.18)">
       <use xlink:href="#DejaVuSans-50"/>
       <use x="63.623047" xlink:href="#DejaVuSans-48"/>
       <use x="127.246094" xlink:href="#DejaVuSans-48"/>
      </g>
     </g>
    </g>
    <g id="xtick_15">
     <g id="line2d_29">
      <g>
       <use style="stroke:#000000;stroke-width:0.8;" x="1329.17759" xlink:href="#m69cab5a63a" y="1890"/>
      </g>
     </g>
     <g id="text_26">
      <!-- 250 -->
      <g transform="translate(1311.99884 1910.677187)scale(0.18 -0.18)">
       <use xlink:href="#DejaVuSans-50"/>
       <use x="63.623047" xlink:href="#DejaVuSans-53"/>
       <use x="127.246094" xlink:href="#DejaVuSans-48"/>
      </g>
     </g>
    </g>
    <g id="xtick_16">
     <g id="line2d_30">
      <g>
       <use style="stroke:#000000;stroke-width:0.8;" x="1525.794926" xlink:href="#m69cab5a63a" y="1890"/>
      </g>
     </g>
     <g id="text_27">
      <!-- 300 -->
      <g transform="translate(1508.616176 1910.677187)scale(0.18 -0.18)">
       <use xlink:href="#DejaVuSans-51"/>
       <use x="63.623047" xlink:href="#DejaVuSans-48"/>
       <use x="127.246094" xlink:href="#DejaVuSans-48"/>
      </g>
     </g>
    </g>
    <g id="xtick_17">
     <g id="line2d_31">
      <g>
       <use style="stroke:#000000;stroke-width:0.8;" x="1722.412262" xlink:href="#m69cab5a63a" y="1890"/>
      </g>
     </g>
     <g id="text_28">
      <!-- 350 -->
      <g transform="translate(1705.233512 1910.677187)scale(0.18 -0.18)">
       <use xlink:href="#DejaVuSans-51"/>
       <use x="63.623047" xlink:href="#DejaVuSans-53"/>
       <use x="127.246094" xlink:href="#DejaVuSans-48"/>
      </g>
     </g>
    </g>
    <g id="xtick_18">
     <g id="line2d_32">
      <g>
       <use style="stroke:#000000;stroke-width:0.8;" x="1919.029598" xlink:href="#m69cab5a63a" y="1890"/>
      </g>
     </g>
     <g id="text_29">
      <!-- 400 -->
      <g transform="translate(1901.850848 1910.677187)scale(0.18 -0.18)">
       <use xlink:href="#DejaVuSans-52"/>
       <use x="63.623047" xlink:href="#DejaVuSans-48"/>
       <use x="127.246094" xlink:href="#DejaVuSans-48"/>
      </g>
     </g>
    </g>
   </g>
   <g id="matplotlib.axis_4">
    <g id="ytick_9">
     <g id="line2d_33">
      <g>
       <use style="stroke:#000000;stroke-width:0.8;" x="270" xlink:href="#md8b38a3bd3" y="1764.701476"/>
      </g>
     </g>
     <g id="text_30">
      <!-- 0.101 -->
      <g transform="translate(211.469375 1771.540069)scale(0.18 -0.18)">
       <use xlink:href="#DejaVuSans-48"/>
       <use x="63.623047" xlink:href="#DejaVuSans-46"/>
       <use x="95.410156" xlink:href="#DejaVuSans-49"/>
       <use x="159.033203" xlink:href="#DejaVuSans-48"/>
       <use x="222.65625" xlink:href="#DejaVuSans-49"/>
      </g>
     </g>
    </g>
    <g id="ytick_10">
     <g id="line2d_34">
      <g>
       <use style="stroke:#000000;stroke-width:0.8;" x="270" xlink:href="#md8b38a3bd3" y="1637.680173"/>
      </g>
     </g>
     <g id="text_31">
      <!-- 0.102 -->
      <g transform="translate(211.469375 1644.518767)scale(0.18 -0.18)">
       <use xlink:href="#DejaVuSans-48"/>
       <use x="63.623047" xlink:href="#DejaVuSans-46"/>
       <use x="95.410156" xlink:href="#DejaVuSans-49"/>
       <use x="159.033203" xlink:href="#DejaVuSans-48"/>
       <use x="222.65625" xlink:href="#DejaVuSans-50"/>
      </g>
     </g>
    </g>
    <g id="ytick_11">
     <g id="line2d_35">
      <g>
       <use style="stroke:#000000;stroke-width:0.8;" x="270" xlink:href="#md8b38a3bd3" y="1510.658871"/>
      </g>
     </g>
     <g id="text_32">
      <!-- 0.103 -->
      <g transform="translate(211.469375 1517.497465)scale(0.18 -0.18)">
       <use xlink:href="#DejaVuSans-48"/>
       <use x="63.623047" xlink:href="#DejaVuSans-46"/>
       <use x="95.410156" xlink:href="#DejaVuSans-49"/>
       <use x="159.033203" xlink:href="#DejaVuSans-48"/>
       <use x="222.65625" xlink:href="#DejaVuSans-51"/>
      </g>
     </g>
    </g>
    <g id="ytick_12">
     <g id="line2d_36">
      <g>
       <use style="stroke:#000000;stroke-width:0.8;" x="270" xlink:href="#md8b38a3bd3" y="1383.637569"/>
      </g>
     </g>
     <g id="text_33">
      <!-- 0.104 -->
      <g transform="translate(211.469375 1390.476163)scale(0.18 -0.18)">
       <use xlink:href="#DejaVuSans-48"/>
       <use x="63.623047" xlink:href="#DejaVuSans-46"/>
       <use x="95.410156" xlink:href="#DejaVuSans-49"/>
       <use x="159.033203" xlink:href="#DejaVuSans-48"/>
       <use x="222.65625" xlink:href="#DejaVuSans-52"/>
      </g>
     </g>
    </g>
    <g id="ytick_13">
     <g id="line2d_37">
      <g>
       <use style="stroke:#000000;stroke-width:0.8;" x="270" xlink:href="#md8b38a3bd3" y="1256.616267"/>
      </g>
     </g>
     <g id="text_34">
      <!-- 0.105 -->
      <g transform="translate(211.469375 1263.45486)scale(0.18 -0.18)">
       <use xlink:href="#DejaVuSans-48"/>
       <use x="63.623047" xlink:href="#DejaVuSans-46"/>
       <use x="95.410156" xlink:href="#DejaVuSans-49"/>
       <use x="159.033203" xlink:href="#DejaVuSans-48"/>
       <use x="222.65625" xlink:href="#DejaVuSans-53"/>
      </g>
     </g>
    </g>
   </g>
   <g id="line2d_38">
    <path clip-path="url(#pa0538fbb32)" d="M 346.090909 1856.305785 
L 353.955603 1686.156442 
L 357.887949 1668.595429 
L 361.820296 1641.220734 
L 365.752643 1621.464993 
L 369.684989 1573.419972 
L 373.617336 1454.939537 
L 377.549683 1609.157917 
L 381.48203 1460.122381 
L 385.414376 1510.352183 
L 389.346723 1570.860833 
L 393.27907 1481.047897 
L 397.211416 1476.805469 
L 401.143763 1318.558497 
L 405.07611 1587.058979 
L 409.008457 1616.068887 
L 412.940803 1516.341512 
L 416.87315 1530.575982 
L 420.805497 1465.076353 
L 424.737844 1549.714061 
L 428.67019 1501.793463 
L 432.602537 1504.164174 
L 436.534884 1421.294323 
L 440.46723 1542.784134 
L 444.399577 1450.675001 
L 448.331924 1479.459125 
L 452.264271 1408.679394 
L 456.196617 1433.478006 
L 460.128964 1292.126262 
L 467.993658 1448.695487 
L 471.926004 1388.220664 
L 475.858351 1441.517956 
L 479.790698 1405.975935 
L 483.723044 1491.843986 
L 487.655391 1498.456837 
L 491.587738 1533.213724 
L 495.520085 1451.017561 
L 499.452431 1344.551535 
L 503.384778 1451.273191 
L 507.317125 1348.731971 
L 511.249471 1412.280977 
L 515.181818 1513.310029 
L 519.114165 1396.681884 
L 523.046512 1388.397388 
L 526.978858 1485.484477 
L 530.911205 1354.527178 
L 534.843552 1421.962409 
L 538.775899 1437.666846 
L 542.708245 1443.267643 
L 546.640592 1391.523857 
L 550.572939 1404.325111 
L 554.505285 1334.021205 
L 558.437632 1386.331397 
L 562.369979 1461.069566 
L 566.302326 1351.941797 
L 570.234672 1321.398432 
L 574.167019 1484.778249 
L 578.099366 1501.178284 
L 582.031712 1363.504289 
L 585.964059 1353.066418 
L 589.896406 1314.432224 
L 593.828753 1479.368848 
L 597.761099 1349.113643 
L 601.693446 1548.796191 
L 605.625793 1281.443406 
L 609.55814 1356.805719 
L 613.490486 1381.894014 
L 617.422833 1306.562895 
L 621.35518 1379.016088 
L 625.287526 1463.456918 
L 629.219873 1307.699341 
L 633.15222 1242.726068 
L 637.084567 1399.309995 
L 641.016913 1385.099768 
L 644.94926 1393.348558 
L 648.881607 1488.061681 
L 652.813953 1458.468302 
L 656.7463 1526.203286 
L 660.678647 1410.067608 
L 664.610994 1488.204759 
L 668.54334 1443.859867 
L 672.475687 1410.82114 
L 676.408034 1341.215968 
L 680.340381 1384.507862 
L 684.272727 1441.544864 
L 688.205074 1361.865231 
L 692.137421 1420.30633 
L 696.069767 1364.778499 
L 700.002114 1418.089252 
L 703.934461 1299.717794 
L 707.866808 1513.467159 
L 711.799154 1415.585744 
L 715.731501 1291.801176 
L 719.663848 1375.750281 
L 723.596195 1367.871019 
L 727.528541 1459.521042 
L 731.460888 1518.882284 
L 735.393235 1381.090407 
L 739.325581 1311.691607 
L 743.257928 1502.72219 
L 747.190275 1373.232737 
L 751.122622 1269.678555 
L 755.054968 1291.341098 
L 758.987315 1306.458657 
L 762.919662 1410.877287 
L 766.852008 1307.063236 
L 770.784355 1345.165396 
L 774.716702 1380.608176 
L 778.649049 1404.032792 
L 782.581395 1325.269863 
L 786.513742 1433.222028 
L 790.446089 1502.395272 
L 794.378436 1293.373186 
L 798.310782 1287.824977 
L 802.243129 1284.366502 
L 806.175476 1324.717175 
L 810.107822 1407.663766 
L 814.040169 1301.154388 
L 817.972516 1344.71781 
L 821.904863 1479.817463 
L 825.837209 1344.543767 
L 829.769556 1327.731351 
L 833.701903 1269.117525 
L 837.634249 1394.115355 
L 841.566596 1286.977321 
L 845.498943 1379.266054 
L 849.43129 1420.112284 
L 853.363636 1359.816699 
L 857.295983 1292.054564 
L 861.22833 1294.117178 
L 865.160677 1332.071703 
L 869.093023 1302.469238 
L 873.02537 1375.625117 
L 876.957717 1366.807225 
L 880.890063 1388.643796 
L 884.82241 1309.204589 
L 888.754757 1386.014942 
L 892.687104 1220.381357 
L 896.61945 1333.133241 
L 900.551797 1365.098512 
L 904.484144 1390.857922 
L 912.348837 1363.807056 
L 916.281184 1344.795111 
L 920.213531 1428.084171 
L 924.145877 1439.092976 
L 928.078224 1373.136464 
L 932.010571 1312.978581 
L 935.942918 1454.555184 
L 939.875264 1362.809841 
L 943.807611 1321.677001 
L 947.739958 1449.902768 
L 951.672304 1383.797591 
L 955.604651 1358.986365 
L 959.536998 1478.204434 
L 963.469345 1348.55452 
L 967.401691 1344.366346 
L 971.334038 1305.050107 
L 975.266385 1373.517016 
L 979.198732 1347.734575 
L 983.131078 1353.532113 
L 987.063425 1376.705098 
L 990.995772 1361.794441 
L 994.928118 1479.317516 
L 998.860465 1319.666052 
L 1002.792812 1369.415818 
L 1006.725159 1379.227548 
L 1010.657505 1404.968212 
L 1014.589852 1373.324499 
L 1018.522199 1494.916655 
L 1022.454545 1513.961337 
L 1026.386892 1251.273324 
L 1030.319239 1361.058973 
L 1034.251586 1367.324616 
L 1038.183932 1292.37697 
L 1042.116279 1323.972456 
L 1046.048626 1323.49716 
L 1049.980973 1265.803626 
L 1053.913319 1423.408421 
L 1057.845666 1380.14884 
L 1061.778013 1392.66418 
L 1065.710359 1331.79277 
L 1069.642706 1436.7739 
L 1073.575053 1346.556775 
L 1077.5074 1376.440262 
L 1081.439746 1287.186313 
L 1085.372093 1416.732215 
L 1089.30444 1468.283181 
L 1093.236786 1451.065895 
L 1097.169133 1354.626419 
L 1101.10148 1367.227418 
L 1105.033827 1402.683357 
L 1108.966173 1387.230885 
L 1112.89852 1451.844533 
L 1116.830867 1351.002304 
L 1120.763214 1512.917137 
L 1124.69556 1353.863786 
L 1128.627907 1351.286901 
L 1132.560254 1276.748456 
L 1136.4926 1526.883485 
L 1140.424947 1398.545091 
L 1144.357294 1322.789735 
L 1148.289641 1417.132512 
L 1152.221987 1345.084401 
L 1156.154334 1234.934508 
L 1160.086681 1379.556132 
L 1164.019027 1342.696837 
L 1167.951374 1391.464197 
L 1171.883721 1265.969932 
L 1175.816068 1469.692201 
L 1179.748414 1329.453585 
L 1183.680761 1211.713599 
L 1187.613108 1353.171898 
L 1191.545455 1361.554953 
L 1195.477801 1415.580642 
L 1199.410148 1366.413499 
L 1203.342495 1379.579617 
L 1207.274841 1249.764867 
L 1211.207188 1355.677464 
L 1215.139535 1477.679654 
L 1219.071882 1373.425966 
L 1223.004228 1386.214697 
L 1226.936575 1526.56385 
L 1230.868922 1450.058535 
L 1234.801268 1435.489091 
L 1238.733615 1301.504716 
L 1242.665962 1412.566921 
L 1246.598309 1334.778871 
L 1250.530655 1341.107187 
L 1254.463002 1297.472657 
L 1258.395349 1459.938299 
L 1262.327696 1331.308464 
L 1266.260042 1467.756372 
L 1270.192389 1315.50474 
L 1274.124736 1434.047985 
L 1278.057082 1228.117723 
L 1281.989429 1369.235702 
L 1285.921776 1384.232684 
L 1289.854123 1458.313095 
L 1293.786469 1346.878757 
L 1297.718816 1355.713184 
L 1301.651163 1417.321773 
L 1305.58351 1296.256669 
L 1309.515856 1401.52609 
L 1313.448203 1332.581281 
L 1317.38055 1378.905051 
L 1321.312896 1418.588987 
L 1325.245243 1346.983949 
L 1329.17759 1329.056634 
L 1333.109937 1262.80214 
L 1337.042283 1276.640417 
L 1340.97463 1372.148032 
L 1344.906977 1395.449376 
L 1348.839323 1277.147481 
L 1352.77167 1411.980164 
L 1356.704017 1386.623792 
L 1360.636364 1407.119089 
L 1364.56871 1293.218085 
L 1368.501057 1434.145591 
L 1372.433404 1385.720155 
L 1376.365751 1420.871586 
L 1380.298097 1420.760927 
L 1384.230444 1317.454319 
L 1388.162791 1412.938614 
L 1392.095137 1403.588386 
L 1396.027484 1439.758018 
L 1399.959831 1286.895811 
L 1403.892178 1370.174741 
L 1407.824524 1367.96431 
L 1411.756871 1504.80146 
L 1415.689218 1422.487689 
L 1419.621564 1350.866798 
L 1423.553911 1385.328868 
L 1427.486258 1362.348416 
L 1431.418605 1387.00669 
L 1435.350951 1361.616128 
L 1439.283298 1439.05615 
L 1443.215645 1328.895568 
L 1447.147992 1301.248223 
L 1451.080338 1240.420059 
L 1455.012685 1394.582505 
L 1458.945032 1401.123158 
L 1462.877378 1434.655245 
L 1466.809725 1415.328919 
L 1470.742072 1363.019651 
L 1474.674419 1432.690161 
L 1478.606765 1343.864415 
L 1482.539112 1372.955773 
L 1490.403805 1374.386643 
L 1494.336152 1369.819219 
L 1498.268499 1182.421488 
L 1502.200846 1440.097247 
L 1506.133192 1319.375324 
L 1510.065539 1268.192508 
L 1513.997886 1249.31881 
L 1517.930233 1426.66814 
L 1521.862579 1287.85037 
L 1525.794926 1414.095472 
L 1529.727273 1395.586594 
L 1533.659619 1399.034409 
L 1537.591966 1364.192544 
L 1541.524313 1411.958132 
L 1545.45666 1440.926959 
L 1549.389006 1332.907093 
L 1553.321353 1347.234446 
L 1557.2537 1350.605975 
L 1561.186047 1408.492282 
L 1565.118393 1291.057622 
L 1569.05074 1390.564649 
L 1572.983087 1229.14554 
L 1576.915433 1416.96931 
L 1580.84778 1334.215373 
L 1584.780127 1259.822807 
L 1588.712474 1427.598775 
L 1592.64482 1375.57168 
L 1596.577167 1406.758752 
L 1600.509514 1325.235415 
L 1604.44186 1428.161229 
L 1608.374207 1386.124677 
L 1612.306554 1331.522589 
L 1616.238901 1408.862371 
L 1620.171247 1258.61486 
L 1624.103594 1439.512534 
L 1628.035941 1342.617023 
L 1631.968288 1378.805325 
L 1635.900634 1377.561491 
L 1639.832981 1349.289655 
L 1643.765328 1455.562151 
L 1647.697674 1417.047534 
L 1651.630021 1323.201268 
L 1655.562368 1299.487028 
L 1659.494715 1297.673017 
L 1663.427061 1356.643047 
L 1667.359408 1421.211859 
L 1671.291755 1296.916411 
L 1675.224101 1294.297052 
L 1679.156448 1337.167102 
L 1683.088795 1312.19431 
L 1687.021142 1398.064102 
L 1690.953488 1440.741635 
L 1694.885835 1320.991563 
L 1698.818182 1459.372377 
L 1702.750529 1319.850332 
L 1706.682875 1315.73269 
L 1710.615222 1337.66287 
L 1714.547569 1383.339118 
L 1718.479915 1349.344651 
L 1722.412262 1310.947205 
L 1726.344609 1288.793724 
L 1730.276956 1326.38134 
L 1734.209302 1295.477501 
L 1738.141649 1348.658092 
L 1742.073996 1322.501399 
L 1746.006342 1300.258928 
L 1749.938689 1389.795278 
L 1753.871036 1250.927145 
L 1757.803383 1370.451478 
L 1761.735729 1314.45359 
L 1765.668076 1291.230227 
L 1769.600423 1310.556356 
L 1773.53277 1367.115155 
L 1777.465116 1277.138426 
L 1781.397463 1398.246988 
L 1785.32981 1347.119683 
L 1789.262156 1272.746757 
L 1793.194503 1424.231789 
L 1797.12685 1297.983128 
L 1801.059197 1320.47873 
L 1804.991543 1398.223306 
L 1808.92389 1286.195412 
L 1812.856237 1315.012606 
L 1816.788584 1342.003404 
L 1820.72093 1388.260231 
L 1824.653277 1329.632338 
L 1828.585624 1312.375182 
L 1832.51797 1359.834415 
L 1836.450317 1443.883443 
L 1840.382664 1317.671169 
L 1844.315011 1501.891539 
L 1848.247357 1304.746416 
L 1852.179704 1244.379057 
L 1856.112051 1485.944419 
L 1860.044397 1440.059346 
L 1863.976744 1431.694794 
L 1867.909091 1431.041926 
L 1867.909091 1431.041926 
" style="fill:none;stroke:#bf00bf;stroke-linecap:square;stroke-width:1.5;"/>
   </g>
   <g id="patch_9">
    <path d="M 270 1890 
L 270 1148.727273 
" style="fill:none;stroke:#000000;stroke-linecap:square;stroke-linejoin:miter;stroke-width:0.8;"/>
   </g>
   <g id="patch_10">
    <path d="M 1944 1890 
L 1944 1148.727273 
" style="fill:none;stroke:#000000;stroke-linecap:square;stroke-linejoin:miter;stroke-width:0.8;"/>
   </g>
   <g id="patch_11">
    <path d="M 270 1890 
L 1944 1890 
" style="fill:none;stroke:#000000;stroke-linecap:square;stroke-linejoin:miter;stroke-width:0.8;"/>
   </g>
   <g id="patch_12">
    <path d="M 270 1148.727273 
L 1944 1148.727273 
" style="fill:none;stroke:#000000;stroke-linecap:square;stroke-linejoin:miter;stroke-width:0.8;"/>
   </g>
   <g id="legend_2">
    <g id="patch_13">
     <path d="M 1885.984375 1171.405398 
L 1937 1171.405398 
Q 1939 1171.405398 1939 1169.405398 
L 1939 1155.727273 
Q 1939 1153.727273 1937 1153.727273 
L 1885.984375 1153.727273 
Q 1883.984375 1153.727273 1883.984375 1155.727273 
L 1883.984375 1169.405398 
Q 1883.984375 1171.405398 1885.984375 1171.405398 
z
" style="fill:#ffffff;opacity:0.8;stroke:#cccccc;stroke-linejoin:miter;"/>
    </g>
    <g id="line2d_39">
     <path d="M 1887.984375 1161.82571 
L 1907.984375 1161.82571 
" style="fill:none;stroke:#bf00bf;stroke-linecap:square;stroke-width:1.5;"/>
    </g>
    <g id="line2d_40"/>
    <g id="text_35">
     <!-- ESS -->
     <defs>
      <path d="M 53.515625 70.515625 
L 53.515625 60.890625 
Q 47.90625 63.578125 42.921875 64.890625 
Q 37.9375 66.21875 33.296875 66.21875 
Q 25.25 66.21875 20.875 63.09375 
Q 16.5 59.96875 16.5 54.203125 
Q 16.5 49.359375 19.40625 46.890625 
Q 22.3125 44.4375 30.421875 42.921875 
L 36.375 41.703125 
Q 47.40625 39.59375 52.65625 34.296875 
Q 57.90625 29 57.90625 20.125 
Q 57.90625 9.515625 50.796875 4.046875 
Q 43.703125 -1.421875 29.984375 -1.421875 
Q 24.8125 -1.421875 18.96875 -0.25 
Q 13.140625 0.921875 6.890625 3.21875 
L 6.890625 13.375 
Q 12.890625 10.015625 18.65625 8.296875 
Q 24.421875 6.59375 29.984375 6.59375 
Q 38.421875 6.59375 43.015625 9.90625 
Q 47.609375 13.234375 47.609375 19.390625 
Q 47.609375 24.75 44.3125 27.78125 
Q 41.015625 30.8125 33.5 32.328125 
L 27.484375 33.5 
Q 16.453125 35.6875 11.515625 40.375 
Q 6.59375 45.0625 6.59375 53.421875 
Q 6.59375 63.09375 13.40625 68.65625 
Q 20.21875 74.21875 32.171875 74.21875 
Q 37.3125 74.21875 42.625 73.28125 
Q 47.953125 72.359375 53.515625 70.515625 
z
" id="DejaVuSans-83"/>
     </defs>
     <g transform="translate(1915.984375 1165.32571)scale(0.1 -0.1)">
      <use xlink:href="#DejaVuSans-69"/>
      <use x="63.183594" xlink:href="#DejaVuSans-83"/>
      <use x="126.660156" xlink:href="#DejaVuSans-83"/>
     </g>
    </g>
   </g>
  </g>
 </g>
 <defs>
  <clipPath id="p004eb64c91">
   <rect height="741.272727" width="1674" x="270" y="259.2"/>
  </clipPath>
  <clipPath id="pa0538fbb32">
   <rect height="741.272727" width="1674" x="270" y="1148.727273"/>
  </clipPath>
 </defs>
</svg>
