<?xml version="1.0" encoding="utf-8" standalone="no"?>
<!DOCTYPE svg PUBLIC "-//W3C//DTD SVG 1.1//EN"
  "http://www.w3.org/Graphics/SVG/1.1/DTD/svg11.dtd">
<!-- Created with matplotlib (https://matplotlib.org/) -->
<svg height="720pt" version="1.1" viewBox="0 0 720 720" width="720pt" xmlns="http://www.w3.org/2000/svg" xmlns:xlink="http://www.w3.org/1999/xlink">
 <defs>
  <style type="text/css">
*{stroke-linecap:butt;stroke-linejoin:round;}
  </style>
 </defs>
 <g id="figure_1">
  <g id="patch_1">
   <path d="M 0 720 
L 720 720 
L 720 0 
L 0 0 
z
" style="fill:#ffffff;"/>
  </g>
  <g id="axes_1">
   <g id="patch_2">
    <path d="M 90 246.282353 
L 648 246.282353 
L 648 86.4 
L 90 86.4 
z
" style="fill:#ffffff;"/>
   </g>
   <g id="matplotlib.axis_1">
    <g id="xtick_1">
     <g id="line2d_1">
      <defs>
       <path d="M 0 0 
L 0 3.5 
" id="mf74383a192" style="stroke:#000000;stroke-width:0.8;"/>
      </defs>
      <g>
       <use style="stroke:#000000;stroke-width:0.8;" x="115.363636" xlink:href="#mf74383a192" y="246.282353"/>
      </g>
     </g>
     <g id="text_1">
      <!-- 0 -->
      <defs>
       <path d="M 31.78125 66.40625 
Q 24.171875 66.40625 20.328125 58.90625 
Q 16.5 51.421875 16.5 36.375 
Q 16.5 21.390625 20.328125 13.890625 
Q 24.171875 6.390625 31.78125 6.390625 
Q 39.453125 6.390625 43.28125 13.890625 
Q 47.125 21.390625 47.125 36.375 
Q 47.125 51.421875 43.28125 58.90625 
Q 39.453125 66.40625 31.78125 66.40625 
z
M 31.78125 74.21875 
Q 44.046875 74.21875 50.515625 64.515625 
Q 56.984375 54.828125 56.984375 36.375 
Q 56.984375 17.96875 50.515625 8.265625 
Q 44.046875 -1.421875 31.78125 -1.421875 
Q 19.53125 -1.421875 13.0625 8.265625 
Q 6.59375 17.96875 6.59375 36.375 
Q 6.59375 54.828125 13.0625 64.515625 
Q 19.53125 74.21875 31.78125 74.21875 
z
" id="DejaVuSans-48"/>
      </defs>
      <g transform="translate(109.637386 266.95954)scale(0.18 -0.18)">
       <use xlink:href="#DejaVuSans-48"/>
      </g>
     </g>
    </g>
    <g id="xtick_2">
     <g id="line2d_2">
      <g>
       <use style="stroke:#000000;stroke-width:0.8;" x="237.893281" xlink:href="#mf74383a192" y="246.282353"/>
      </g>
     </g>
     <g id="text_2">
      <!-- 50 -->
      <defs>
       <path d="M 10.796875 72.90625 
L 49.515625 72.90625 
L 49.515625 64.59375 
L 19.828125 64.59375 
L 19.828125 46.734375 
Q 21.96875 47.46875 24.109375 47.828125 
Q 26.265625 48.1875 28.421875 48.1875 
Q 40.625 48.1875 47.75 41.5 
Q 54.890625 34.8125 54.890625 23.390625 
Q 54.890625 11.625 47.5625 5.09375 
Q 40.234375 -1.421875 26.90625 -1.421875 
Q 22.3125 -1.421875 17.546875 -0.640625 
Q 12.796875 0.140625 7.71875 1.703125 
L 7.71875 11.625 
Q 12.109375 9.234375 16.796875 8.0625 
Q 21.484375 6.890625 26.703125 6.890625 
Q 35.15625 6.890625 40.078125 11.328125 
Q 45.015625 15.765625 45.015625 23.390625 
Q 45.015625 31 40.078125 35.4375 
Q 35.15625 39.890625 26.703125 39.890625 
Q 22.75 39.890625 18.8125 39.015625 
Q 14.890625 38.140625 10.796875 36.28125 
z
" id="DejaVuSans-53"/>
      </defs>
      <g transform="translate(226.440781 266.95954)scale(0.18 -0.18)">
       <use xlink:href="#DejaVuSans-53"/>
       <use x="63.623047" xlink:href="#DejaVuSans-48"/>
      </g>
     </g>
    </g>
    <g id="xtick_3">
     <g id="line2d_3">
      <g>
       <use style="stroke:#000000;stroke-width:0.8;" x="360.422925" xlink:href="#mf74383a192" y="246.282353"/>
      </g>
     </g>
     <g id="text_3">
      <!-- 100 -->
      <defs>
       <path d="M 12.40625 8.296875 
L 28.515625 8.296875 
L 28.515625 63.921875 
L 10.984375 60.40625 
L 10.984375 69.390625 
L 28.421875 72.90625 
L 38.28125 72.90625 
L 38.28125 8.296875 
L 54.390625 8.296875 
L 54.390625 0 
L 12.40625 0 
z
" id="DejaVuSans-49"/>
      </defs>
      <g transform="translate(343.244175 266.95954)scale(0.18 -0.18)">
       <use xlink:href="#DejaVuSans-49"/>
       <use x="63.623047" xlink:href="#DejaVuSans-48"/>
       <use x="127.246094" xlink:href="#DejaVuSans-48"/>
      </g>
     </g>
    </g>
    <g id="xtick_4">
     <g id="line2d_4">
      <g>
       <use style="stroke:#000000;stroke-width:0.8;" x="482.952569" xlink:href="#mf74383a192" y="246.282353"/>
      </g>
     </g>
     <g id="text_4">
      <!-- 150 -->
      <g transform="translate(465.773819 266.95954)scale(0.18 -0.18)">
       <use xlink:href="#DejaVuSans-49"/>
       <use x="63.623047" xlink:href="#DejaVuSans-53"/>
       <use x="127.246094" xlink:href="#DejaVuSans-48"/>
      </g>
     </g>
    </g>
    <g id="xtick_5">
     <g id="line2d_5">
      <g>
       <use style="stroke:#000000;stroke-width:0.8;" x="605.482213" xlink:href="#mf74383a192" y="246.282353"/>
      </g>
     </g>
     <g id="text_5">
      <!-- 200 -->
      <defs>
       <path d="M 19.1875 8.296875 
L 53.609375 8.296875 
L 53.609375 0 
L 7.328125 0 
L 7.328125 8.296875 
Q 12.9375 14.109375 22.625 23.890625 
Q 32.328125 33.6875 34.8125 36.53125 
Q 39.546875 41.84375 41.421875 45.53125 
Q 43.3125 49.21875 43.3125 52.78125 
Q 43.3125 58.59375 39.234375 62.25 
Q 35.15625 65.921875 28.609375 65.921875 
Q 23.96875 65.921875 18.8125 64.3125 
Q 13.671875 62.703125 7.8125 59.421875 
L 7.8125 69.390625 
Q 13.765625 71.78125 18.9375 73 
Q 24.125 74.21875 28.421875 74.21875 
Q 39.75 74.21875 46.484375 68.546875 
Q 53.21875 62.890625 53.21875 53.421875 
Q 53.21875 48.921875 51.53125 44.890625 
Q 49.859375 40.875 45.40625 35.40625 
Q 44.1875 33.984375 37.640625 27.21875 
Q 31.109375 20.453125 19.1875 8.296875 
z
" id="DejaVuSans-50"/>
      </defs>
      <g transform="translate(588.303463 266.95954)scale(0.18 -0.18)">
       <use xlink:href="#DejaVuSans-50"/>
       <use x="63.623047" xlink:href="#DejaVuSans-48"/>
       <use x="127.246094" xlink:href="#DejaVuSans-48"/>
      </g>
     </g>
    </g>
   </g>
   <g id="matplotlib.axis_2">
    <g id="ytick_1">
     <g id="line2d_6">
      <defs>
       <path d="M 0 0 
L -3.5 0 
" id="m773d683906" style="stroke:#000000;stroke-width:0.8;"/>
      </defs>
      <g>
       <use style="stroke:#000000;stroke-width:0.8;" x="90" xlink:href="#m773d683906" y="246.282353"/>
      </g>
     </g>
     <g id="text_6">
      <!-- −400 -->
      <defs>
       <path d="M 10.59375 35.5 
L 73.1875 35.5 
L 73.1875 27.203125 
L 10.59375 27.203125 
z
" id="DejaVuSans-8722"/>
       <path d="M 37.796875 64.3125 
L 12.890625 25.390625 
L 37.796875 25.390625 
z
M 35.203125 72.90625 
L 47.609375 72.90625 
L 47.609375 25.390625 
L 58.015625 25.390625 
L 58.015625 17.1875 
L 47.609375 17.1875 
L 47.609375 0 
L 37.796875 0 
L 37.796875 17.1875 
L 4.890625 17.1875 
L 4.890625 26.703125 
z
" id="DejaVuSans-52"/>
      </defs>
      <g transform="translate(33.559063 253.120947)scale(0.18 -0.18)">
       <use xlink:href="#DejaVuSans-8722"/>
       <use x="83.789062" xlink:href="#DejaVuSans-52"/>
       <use x="147.412109" xlink:href="#DejaVuSans-48"/>
       <use x="211.035156" xlink:href="#DejaVuSans-48"/>
      </g>
     </g>
    </g>
    <g id="ytick_2">
     <g id="line2d_7">
      <g>
       <use style="stroke:#000000;stroke-width:0.8;" x="90" xlink:href="#m773d683906" y="196.319118"/>
      </g>
     </g>
     <g id="text_7">
      <!-- −350 -->
      <defs>
       <path d="M 40.578125 39.3125 
Q 47.65625 37.796875 51.625 33 
Q 55.609375 28.21875 55.609375 21.1875 
Q 55.609375 10.40625 48.1875 4.484375 
Q 40.765625 -1.421875 27.09375 -1.421875 
Q 22.515625 -1.421875 17.65625 -0.515625 
Q 12.796875 0.390625 7.625 2.203125 
L 7.625 11.71875 
Q 11.71875 9.328125 16.59375 8.109375 
Q 21.484375 6.890625 26.8125 6.890625 
Q 36.078125 6.890625 40.9375 10.546875 
Q 45.796875 14.203125 45.796875 21.1875 
Q 45.796875 27.640625 41.28125 31.265625 
Q 36.765625 34.90625 28.71875 34.90625 
L 20.21875 34.90625 
L 20.21875 43.015625 
L 29.109375 43.015625 
Q 36.375 43.015625 40.234375 45.921875 
Q 44.09375 48.828125 44.09375 54.296875 
Q 44.09375 59.90625 40.109375 62.90625 
Q 36.140625 65.921875 28.71875 65.921875 
Q 24.65625 65.921875 20.015625 65.03125 
Q 15.375 64.15625 9.8125 62.3125 
L 9.8125 71.09375 
Q 15.4375 72.65625 20.34375 73.4375 
Q 25.25 74.21875 29.59375 74.21875 
Q 40.828125 74.21875 47.359375 69.109375 
Q 53.90625 64.015625 53.90625 55.328125 
Q 53.90625 49.265625 50.4375 45.09375 
Q 46.96875 40.921875 40.578125 39.3125 
z
" id="DejaVuSans-51"/>
      </defs>
      <g transform="translate(33.559063 203.157711)scale(0.18 -0.18)">
       <use xlink:href="#DejaVuSans-8722"/>
       <use x="83.789062" xlink:href="#DejaVuSans-51"/>
       <use x="147.412109" xlink:href="#DejaVuSans-53"/>
       <use x="211.035156" xlink:href="#DejaVuSans-48"/>
      </g>
     </g>
    </g>
    <g id="ytick_3">
     <g id="line2d_8">
      <g>
       <use style="stroke:#000000;stroke-width:0.8;" x="90" xlink:href="#m773d683906" y="146.355882"/>
      </g>
     </g>
     <g id="text_8">
      <!-- −300 -->
      <g transform="translate(33.559063 153.194476)scale(0.18 -0.18)">
       <use xlink:href="#DejaVuSans-8722"/>
       <use x="83.789062" xlink:href="#DejaVuSans-51"/>
       <use x="147.412109" xlink:href="#DejaVuSans-48"/>
       <use x="211.035156" xlink:href="#DejaVuSans-48"/>
      </g>
     </g>
    </g>
    <g id="ytick_4">
     <g id="line2d_9">
      <g>
       <use style="stroke:#000000;stroke-width:0.8;" x="90" xlink:href="#m773d683906" y="96.392647"/>
      </g>
     </g>
     <g id="text_9">
      <!-- −250 -->
      <g transform="translate(33.559063 103.231241)scale(0.18 -0.18)">
       <use xlink:href="#DejaVuSans-8722"/>
       <use x="83.789062" xlink:href="#DejaVuSans-50"/>
       <use x="147.412109" xlink:href="#DejaVuSans-53"/>
       <use x="211.035156" xlink:href="#DejaVuSans-48"/>
      </g>
     </g>
    </g>
   </g>
   <g id="line2d_10">
    <path clip-path="url(#p4c0a098967)" d="M 115.363636 316.624593 
L 117.814229 259.102919 
L 120.264822 231.79901 
L 122.715415 222.00122 
L 125.166008 213.609395 
L 127.616601 199.64567 
L 130.067194 187.568557 
L 132.517787 181.606943 
L 134.968379 172.23484 
L 137.418972 161.963398 
L 139.869565 152.340479 
L 142.320158 142.24191 
L 144.770751 134.530584 
L 147.221344 124.847709 
L 149.671937 115.786376 
L 152.12253 108.777534 
L 154.573123 102.312291 
L 157.023715 97.53081 
L 159.474308 95.131575 
L 161.924901 91.116529 
L 164.375494 90.068301 
L 166.826087 88.840204 
L 169.27668 89.482732 
L 174.177866 89.938396 
L 176.628458 90.980629 
L 181.529644 94.378129 
L 183.980237 95.90001 
L 186.43083 98.69895 
L 188.881423 100.361726 
L 191.332016 102.864885 
L 193.782609 104.559637 
L 196.233202 106.874934 
L 198.683794 108.164985 
L 201.134387 109.984646 
L 203.58498 110.497268 
L 206.035573 112.217003 
L 208.486166 113.568009 
L 210.936759 115.27875 
L 213.387352 113.997693 
L 215.837945 114.353431 
L 218.288538 116.111137 
L 220.73913 114.636223 
L 223.189723 116.428904 
L 225.640316 117.321247 
L 228.090909 115.956251 
L 230.541502 116.852592 
L 232.992095 116.802629 
L 235.442688 117.22232 
L 237.893281 117.355222 
L 240.343874 118.819145 
L 242.794466 116.9775 
L 245.245059 117.472136 
L 247.695652 116.948521 
L 250.146245 116.984495 
L 252.596838 117.916809 
L 255.047431 117.390196 
L 257.498024 117.050446 
L 259.948617 117.958778 
L 262.399209 118.353487 
L 264.849802 116.780645 
L 267.300395 116.626758 
L 269.750988 117.224318 
L 272.201581 116.62376 
L 274.652174 116.730682 
L 277.102767 117.469138 
L 279.55336 117.788903 
L 282.003953 119.081951 
L 284.454545 117.515104 
L 286.905138 117.64301 
L 289.355731 116.396927 
L 291.806324 116.335972 
L 294.256917 118.138646 
L 296.70751 115.639485 
L 299.158103 117.33124 
L 301.608696 116.711696 
L 304.059289 117.945787 
L 306.509881 115.213798 
L 308.960474 117.312254 
L 311.411067 117.658999 
L 313.86166 117.00448 
L 318.762846 116.282012 
L 321.213439 118.083686 
L 323.664032 116.712695 
L 326.114625 116.40692 
L 328.565217 116.364951 
L 333.466403 116.955516 
L 335.916996 114.70817 
L 338.367589 116.941526 
L 340.818182 116.377941 
L 343.268775 117.518102 
L 345.719368 115.735414 
L 348.16996 116.238044 
L 353.071146 116.347963 
L 355.521739 117.708962 
L 357.972332 116.09415 
L 360.422925 116.619763 
L 362.873518 116.994487 
L 365.324111 115.714429 
L 367.774704 116.159102 
L 370.225296 115.914282 
L 372.675889 116.328977 
L 375.126482 115.233783 
L 377.577075 115.637486 
L 380.027668 116.52883 
L 382.478261 115.80936 
L 384.928854 114.847068 
L 387.379447 115.831343 
L 389.83004 116.118132 
L 392.280632 114.72116 
L 394.731225 115.064907 
L 397.181818 114.196546 
L 399.632411 116.906552 
L 402.083004 113.694915 
L 404.533597 115.932269 
L 406.98419 116.372945 
L 409.434783 115.647479 
L 411.885375 115.721424 
L 414.335968 115.418647 
L 416.786561 116.785641 
L 419.237154 114.324452 
L 421.687747 115.478603 
L 424.13834 114.296473 
L 426.588933 115.543555 
L 429.039526 115.867317 
L 431.490119 115.324716 
L 433.940711 115.406656 
L 436.391304 116.294003 
L 443.743083 114.856061 
L 446.193676 115.18382 
L 448.644269 115.102879 
L 451.094862 113.972711 
L 453.545455 114.496326 
L 455.996047 117.225318 
L 458.44664 115.240778 
L 460.897233 114.190551 
L 463.347826 114.938001 
L 465.798419 114.592255 
L 468.249012 116.115135 
L 470.699605 115.635487 
L 475.600791 115.12886 
L 478.051383 115.010947 
L 480.501976 115.381674 
L 482.952569 114.677193 
L 485.403162 115.760396 
L 487.853755 114.999955 
L 490.304348 114.502321 
L 492.754941 114.796105 
L 495.205534 114.487332 
L 497.656126 115.262762 
L 500.106719 114.81609 
L 502.557312 113.449096 
L 507.458498 117.036457 
L 509.909091 114.467347 
L 512.359684 114.357428 
L 514.810277 114.560279 
L 517.26087 115.208801 
L 519.711462 115.121865 
L 522.162055 114.165569 
L 524.612648 114.277487 
L 527.063241 114.764129 
L 529.513834 114.595253 
L 531.964427 114.630227 
L 534.41502 113.894768 
L 536.865613 114.215532 
L 539.316206 113.194284 
L 541.766798 113.955724 
L 544.217391 114.151579 
L 546.667984 115.113871 
L 549.118577 114.075635 
L 551.56917 113.719897 
L 554.019763 113.601984 
L 556.470356 113.323189 
L 558.920949 112.57474 
L 561.371542 114.796105 
L 563.822134 112.561749 
L 566.272727 114.472343 
L 568.72332 113.521043 
L 571.173913 113.007421 
L 573.624506 113.407127 
L 576.075099 115.181821 
L 578.525692 113.066378 
L 580.976285 113.447098 
L 583.426877 114.285481 
L 585.87747 114.54429 
L 588.328063 112.362896 
L 590.778656 113.580999 
L 593.229249 112.192021 
L 595.679842 113.790845 
L 598.130435 113.516047 
L 600.581028 113.956723 
L 603.031621 112.537767 
L 605.482213 111.841279 
L 607.932806 112.841543 
L 610.383399 112.249979 
L 612.833992 113.273226 
L 615.284585 112.029141 
L 617.735178 111.9492 
L 620.185771 113.210272 
L 622.636364 111.876254 
L 622.636364 111.876254 
" style="fill:none;stroke:#ff0000;stroke-linecap:square;stroke-width:1.5;"/>
   </g>
   <g id="line2d_11">
    <path clip-path="url(#p4c0a098967)" d="M 115.363636 402.158654 
L 117.814229 323.691393 
L 120.264822 289.134821 
L 122.715415 280.297324 
L 125.166008 276.309258 
L 130.067194 254.701158 
L 132.517787 250.807024 
L 137.418972 227.696029 
L 139.869565 214.891451 
L 142.320158 200.84079 
L 144.770751 189.94281 
L 147.221344 176.240892 
L 149.671937 164.672404 
L 152.12253 153.910324 
L 154.573123 144.966904 
L 157.023715 137.231596 
L 159.474308 133.930026 
L 161.924901 128.301168 
L 164.375494 126.820257 
L 166.826087 126.149751 
L 169.27668 128.505018 
L 171.727273 129.784076 
L 174.177866 131.965471 
L 176.628458 135.324 
L 183.980237 149.367666 
L 186.43083 155.834907 
L 188.881423 161.97439 
L 191.332016 167.499324 
L 193.782609 173.857646 
L 196.233202 179.788282 
L 198.683794 185.392158 
L 201.134387 189.782927 
L 203.58498 193.274358 
L 208.486166 201.831062 
L 210.936759 206.039965 
L 213.387352 205.873087 
L 215.837945 207.773689 
L 218.288538 210.312821 
L 220.73913 209.398493 
L 223.189723 211.667824 
L 225.640316 213.423532 
L 228.090909 211.68581 
L 230.541502 213.675346 
L 232.992095 213.150732 
L 235.442688 215.389085 
L 237.893281 215.059328 
L 240.343874 217.917225 
L 242.794466 214.102032 
L 245.245059 215.852744 
L 247.695652 214.265912 
L 250.146245 215.361106 
L 252.596838 215.80378 
L 257.498024 215.052333 
L 259.948617 215.961664 
L 262.399209 216.541237 
L 264.849802 214.004104 
L 267.300395 214.502737 
L 269.750988 215.628909 
L 272.201581 215.840753 
L 274.652174 214.691599 
L 277.102767 216.12954 
L 279.55336 215.576947 
L 282.003953 217.823294 
L 284.454545 214.246926 
L 286.905138 216.459298 
L 289.355731 214.02409 
L 291.806324 214.718579 
L 294.256917 216.343383 
L 296.70751 212.984854 
L 299.158103 215.607924 
L 301.608696 215.116286 
L 304.059289 216.00763 
L 306.509881 213.409542 
L 308.960474 215.129276 
L 311.411067 215.366102 
L 313.86166 214.748557 
L 316.312253 214.405809 
L 318.762846 213.640372 
L 321.213439 215.638901 
L 323.664032 215.122282 
L 326.114625 214.842487 
L 328.565217 213.917168 
L 331.01581 212.604135 
L 333.466403 215.130276 
L 335.916996 211.024297 
L 338.367589 215.347116 
L 340.818182 213.619387 
L 343.268775 215.17824 
L 345.719368 212.555171 
L 348.16996 214.187969 
L 350.620553 214.153994 
L 353.071146 213.45251 
L 355.521739 215.147263 
L 357.972332 211.433996 
L 360.422925 214.044075 
L 362.873518 215.574949 
L 365.324111 213.125751 
L 367.774704 212.513201 
L 370.225296 212.057537 
L 372.675889 212.856949 
L 375.126482 211.539918 
L 377.577075 212.009572 
L 380.027668 214.911437 
L 382.478261 211.778742 
L 384.928854 211.390028 
L 387.379447 211.673819 
L 389.83004 213.455508 
L 392.280632 210.741505 
L 394.731225 209.434467 
L 397.181818 209.468442 
L 399.632411 213.030821 
L 402.083004 209.912115 
L 404.533597 211.886662 
L 406.98419 213.046809 
L 409.434783 211.271115 
L 411.885375 210.80246 
L 414.335968 210.81645 
L 416.786561 213.00384 
L 419.237154 209.107707 
L 421.687747 210.583621 
L 424.13834 210.051013 
L 426.588933 210.70753 
L 429.039526 210.511674 
L 431.490119 210.594613 
L 433.940711 210.283842 
L 436.391304 212.945883 
L 438.841897 209.58036 
L 441.29249 210.404753 
L 443.743083 210.55764 
L 446.193676 211.458977 
L 448.644269 211.044282 
L 451.094862 209.180654 
L 453.545455 209.628324 
L 455.996047 212.380299 
L 460.897233 207.279053 
L 463.347826 209.85216 
L 465.798419 208.838905 
L 468.249012 210.38177 
L 470.699605 210.359786 
L 475.600791 209.500418 
L 478.051383 208.719993 
L 480.501976 210.083989 
L 482.952569 209.941094 
L 485.403162 208.85989 
L 487.853755 208.982799 
L 490.304348 207.678759 
L 492.754941 208.100449 
L 495.205534 210.154937 
L 497.656126 208.241345 
L 500.106719 208.771954 
L 502.557312 206.905328 
L 505.007905 210.375774 
L 507.458498 212.171453 
L 509.909091 206.397701 
L 512.359684 208.759963 
L 514.810277 208.11144 
L 517.26087 208.892865 
L 519.711462 209.51141 
L 522.162055 208.239346 
L 524.612648 206.417687 
L 529.513834 209.330543 
L 531.964427 208.382241 
L 534.41502 207.314027 
L 536.865613 206.646518 
L 539.316206 206.326754 
L 541.766798 205.752176 
L 544.217391 206.48064 
L 546.667984 208.459185 
L 549.118577 208.320287 
L 551.56917 205.499362 
L 554.019763 207.302036 
L 556.470356 205.756174 
L 558.920949 204.038437 
L 561.371542 206.402698 
L 563.822134 204.317232 
L 566.272727 207.426944 
L 568.72332 206.001993 
L 571.173913 204.224301 
L 573.624506 204.049429 
L 576.075099 208.501154 
L 578.525692 203.746652 
L 580.976285 206.096923 
L 583.426877 208.024504 
L 585.87747 206.524608 
L 588.328063 204.304242 
L 590.778656 205.099657 
L 593.229249 204.094396 
L 595.679842 204.91879 
L 598.130435 206.189854 
L 600.581028 206.077937 
L 603.031621 204.110385 
L 605.482213 202.841318 
L 607.932806 202.569518 
L 610.383399 202.952237 
L 612.833992 204.99973 
L 615.284585 202.40464 
L 617.735178 203.370929 
L 620.185771 203.294985 
L 622.636364 203.065154 
L 622.636364 203.065154 
" style="fill:none;stroke:#0000ff;stroke-linecap:square;stroke-width:1.5;"/>
   </g>
   <g id="patch_3">
    <path d="M 90 246.282353 
L 90 86.4 
" style="fill:none;stroke:#000000;stroke-linecap:square;stroke-linejoin:miter;stroke-width:0.8;"/>
   </g>
   <g id="patch_4">
    <path d="M 648 246.282353 
L 648 86.4 
" style="fill:none;stroke:#000000;stroke-linecap:square;stroke-linejoin:miter;stroke-width:0.8;"/>
   </g>
   <g id="patch_5">
    <path d="M 90 246.282353 
L 648 246.282353 
" style="fill:none;stroke:#000000;stroke-linecap:square;stroke-linejoin:miter;stroke-width:0.8;"/>
   </g>
   <g id="patch_6">
    <path d="M 90 86.4 
L 648 86.4 
" style="fill:none;stroke:#000000;stroke-linecap:square;stroke-linejoin:miter;stroke-width:0.8;"/>
   </g>
   <g id="legend_1">
    <g id="patch_7">
     <path d="M 575.421875 241.282353 
L 641 241.282353 
Q 643 241.282353 643 239.282353 
L 643 210.926103 
Q 643 208.926103 641 208.926103 
L 575.421875 208.926103 
Q 573.421875 208.926103 573.421875 210.926103 
L 573.421875 239.282353 
Q 573.421875 241.282353 575.421875 241.282353 
z
" style="fill:#ffffff;opacity:0.8;stroke:#cccccc;stroke-linejoin:miter;"/>
    </g>
    <g id="line2d_12">
     <path d="M 577.421875 217.02454 
L 597.421875 217.02454 
" style="fill:none;stroke:#ff0000;stroke-linecap:square;stroke-width:1.5;"/>
    </g>
    <g id="line2d_13"/>
    <g id="text_10">
     <!-- EUBOs -->
     <defs>
      <path d="M 9.8125 72.90625 
L 55.90625 72.90625 
L 55.90625 64.59375 
L 19.671875 64.59375 
L 19.671875 43.015625 
L 54.390625 43.015625 
L 54.390625 34.71875 
L 19.671875 34.71875 
L 19.671875 8.296875 
L 56.78125 8.296875 
L 56.78125 0 
L 9.8125 0 
z
" id="DejaVuSans-69"/>
      <path d="M 8.6875 72.90625 
L 18.609375 72.90625 
L 18.609375 28.609375 
Q 18.609375 16.890625 22.84375 11.734375 
Q 27.09375 6.59375 36.625 6.59375 
Q 46.09375 6.59375 50.34375 11.734375 
Q 54.59375 16.890625 54.59375 28.609375 
L 54.59375 72.90625 
L 64.5 72.90625 
L 64.5 27.390625 
Q 64.5 13.140625 57.4375 5.859375 
Q 50.390625 -1.421875 36.625 -1.421875 
Q 22.796875 -1.421875 15.734375 5.859375 
Q 8.6875 13.140625 8.6875 27.390625 
z
" id="DejaVuSans-85"/>
      <path d="M 19.671875 34.8125 
L 19.671875 8.109375 
L 35.5 8.109375 
Q 43.453125 8.109375 47.28125 11.40625 
Q 51.125 14.703125 51.125 21.484375 
Q 51.125 28.328125 47.28125 31.5625 
Q 43.453125 34.8125 35.5 34.8125 
z
M 19.671875 64.796875 
L 19.671875 42.828125 
L 34.28125 42.828125 
Q 41.5 42.828125 45.03125 45.53125 
Q 48.578125 48.25 48.578125 53.8125 
Q 48.578125 59.328125 45.03125 62.0625 
Q 41.5 64.796875 34.28125 64.796875 
z
M 9.8125 72.90625 
L 35.015625 72.90625 
Q 46.296875 72.90625 52.390625 68.21875 
Q 58.5 63.53125 58.5 54.890625 
Q 58.5 48.1875 55.375 44.234375 
Q 52.25 40.28125 46.1875 39.3125 
Q 53.46875 37.75 57.5 32.78125 
Q 61.53125 27.828125 61.53125 20.40625 
Q 61.53125 10.640625 54.890625 5.3125 
Q 48.25 0 35.984375 0 
L 9.8125 0 
z
" id="DejaVuSans-66"/>
      <path d="M 39.40625 66.21875 
Q 28.65625 66.21875 22.328125 58.203125 
Q 16.015625 50.203125 16.015625 36.375 
Q 16.015625 22.609375 22.328125 14.59375 
Q 28.65625 6.59375 39.40625 6.59375 
Q 50.140625 6.59375 56.421875 14.59375 
Q 62.703125 22.609375 62.703125 36.375 
Q 62.703125 50.203125 56.421875 58.203125 
Q 50.140625 66.21875 39.40625 66.21875 
z
M 39.40625 74.21875 
Q 54.734375 74.21875 63.90625 63.9375 
Q 73.09375 53.65625 73.09375 36.375 
Q 73.09375 19.140625 63.90625 8.859375 
Q 54.734375 -1.421875 39.40625 -1.421875 
Q 24.03125 -1.421875 14.8125 8.828125 
Q 5.609375 19.09375 5.609375 36.375 
Q 5.609375 53.65625 14.8125 63.9375 
Q 24.03125 74.21875 39.40625 74.21875 
z
" id="DejaVuSans-79"/>
      <path d="M 44.28125 53.078125 
L 44.28125 44.578125 
Q 40.484375 46.53125 36.375 47.5 
Q 32.28125 48.484375 27.875 48.484375 
Q 21.1875 48.484375 17.84375 46.4375 
Q 14.5 44.390625 14.5 40.28125 
Q 14.5 37.15625 16.890625 35.375 
Q 19.28125 33.59375 26.515625 31.984375 
L 29.59375 31.296875 
Q 39.15625 29.25 43.1875 25.515625 
Q 47.21875 21.78125 47.21875 15.09375 
Q 47.21875 7.46875 41.1875 3.015625 
Q 35.15625 -1.421875 24.609375 -1.421875 
Q 20.21875 -1.421875 15.453125 -0.5625 
Q 10.6875 0.296875 5.421875 2 
L 5.421875 11.28125 
Q 10.40625 8.6875 15.234375 7.390625 
Q 20.0625 6.109375 24.8125 6.109375 
Q 31.15625 6.109375 34.5625 8.28125 
Q 37.984375 10.453125 37.984375 14.40625 
Q 37.984375 18.0625 35.515625 20.015625 
Q 33.0625 21.96875 24.703125 23.78125 
L 21.578125 24.515625 
Q 13.234375 26.265625 9.515625 29.90625 
Q 5.8125 33.546875 5.8125 39.890625 
Q 5.8125 47.609375 11.28125 51.796875 
Q 16.75 56 26.8125 56 
Q 31.78125 56 36.171875 55.265625 
Q 40.578125 54.546875 44.28125 53.078125 
z
" id="DejaVuSans-115"/>
     </defs>
     <g transform="translate(605.421875 220.52454)scale(0.1 -0.1)">
      <use xlink:href="#DejaVuSans-69"/>
      <use x="63.183594" xlink:href="#DejaVuSans-85"/>
      <use x="136.376953" xlink:href="#DejaVuSans-66"/>
      <use x="204.964844" xlink:href="#DejaVuSans-79"/>
      <use x="283.675781" xlink:href="#DejaVuSans-115"/>
     </g>
    </g>
    <g id="line2d_14">
     <path d="M 577.421875 231.702665 
L 597.421875 231.702665 
" style="fill:none;stroke:#0000ff;stroke-linecap:square;stroke-width:1.5;"/>
    </g>
    <g id="line2d_15"/>
    <g id="text_11">
     <!-- ELBOs -->
     <defs>
      <path d="M 9.8125 72.90625 
L 19.671875 72.90625 
L 19.671875 8.296875 
L 55.171875 8.296875 
L 55.171875 0 
L 9.8125 0 
z
" id="DejaVuSans-76"/>
     </defs>
     <g transform="translate(605.421875 235.202665)scale(0.1 -0.1)">
      <use xlink:href="#DejaVuSans-69"/>
      <use x="63.183594" xlink:href="#DejaVuSans-76"/>
      <use x="118.896484" xlink:href="#DejaVuSans-66"/>
      <use x="187.484375" xlink:href="#DejaVuSans-79"/>
      <use x="266.195312" xlink:href="#DejaVuSans-115"/>
     </g>
    </g>
   </g>
  </g>
  <g id="axes_2">
   <g id="patch_8">
    <path d="M 90 438.141176 
L 648 438.141176 
L 648 278.258824 
L 90 278.258824 
z
" style="fill:#ffffff;"/>
   </g>
   <g id="matplotlib.axis_3">
    <g id="xtick_6">
     <g id="line2d_16">
      <g>
       <use style="stroke:#000000;stroke-width:0.8;" x="115.363636" xlink:href="#mf74383a192" y="438.141176"/>
      </g>
     </g>
     <g id="text_12">
      <!-- 0 -->
      <g transform="translate(109.637386 458.818364)scale(0.18 -0.18)">
       <use xlink:href="#DejaVuSans-48"/>
      </g>
     </g>
    </g>
    <g id="xtick_7">
     <g id="line2d_17">
      <g>
       <use style="stroke:#000000;stroke-width:0.8;" x="237.893281" xlink:href="#mf74383a192" y="438.141176"/>
      </g>
     </g>
     <g id="text_13">
      <!-- 50 -->
      <g transform="translate(226.440781 458.818364)scale(0.18 -0.18)">
       <use xlink:href="#DejaVuSans-53"/>
       <use x="63.623047" xlink:href="#DejaVuSans-48"/>
      </g>
     </g>
    </g>
    <g id="xtick_8">
     <g id="line2d_18">
      <g>
       <use style="stroke:#000000;stroke-width:0.8;" x="360.422925" xlink:href="#mf74383a192" y="438.141176"/>
      </g>
     </g>
     <g id="text_14">
      <!-- 100 -->
      <g transform="translate(343.244175 458.818364)scale(0.18 -0.18)">
       <use xlink:href="#DejaVuSans-49"/>
       <use x="63.623047" xlink:href="#DejaVuSans-48"/>
       <use x="127.246094" xlink:href="#DejaVuSans-48"/>
      </g>
     </g>
    </g>
    <g id="xtick_9">
     <g id="line2d_19">
      <g>
       <use style="stroke:#000000;stroke-width:0.8;" x="482.952569" xlink:href="#mf74383a192" y="438.141176"/>
      </g>
     </g>
     <g id="text_15">
      <!-- 150 -->
      <g transform="translate(465.773819 458.818364)scale(0.18 -0.18)">
       <use xlink:href="#DejaVuSans-49"/>
       <use x="63.623047" xlink:href="#DejaVuSans-53"/>
       <use x="127.246094" xlink:href="#DejaVuSans-48"/>
      </g>
     </g>
    </g>
    <g id="xtick_10">
     <g id="line2d_20">
      <g>
       <use style="stroke:#000000;stroke-width:0.8;" x="605.482213" xlink:href="#mf74383a192" y="438.141176"/>
      </g>
     </g>
     <g id="text_16">
      <!-- 200 -->
      <g transform="translate(588.303463 458.818364)scale(0.18 -0.18)">
       <use xlink:href="#DejaVuSans-50"/>
       <use x="63.623047" xlink:href="#DejaVuSans-48"/>
       <use x="127.246094" xlink:href="#DejaVuSans-48"/>
      </g>
     </g>
    </g>
   </g>
   <g id="matplotlib.axis_4">
    <g id="ytick_5">
     <g id="line2d_21">
      <g>
       <use style="stroke:#000000;stroke-width:0.8;" x="90" xlink:href="#m773d683906" y="438.141176"/>
      </g>
     </g>
     <g id="text_17">
      <!-- 0 -->
      <g transform="translate(71.5475 444.97977)scale(0.18 -0.18)">
       <use xlink:href="#DejaVuSans-48"/>
      </g>
     </g>
    </g>
    <g id="ytick_6">
     <g id="line2d_22">
      <g>
       <use style="stroke:#000000;stroke-width:0.8;" x="90" xlink:href="#m773d683906" y="398.170588"/>
      </g>
     </g>
     <g id="text_18">
      <!-- 5 -->
      <g transform="translate(71.5475 405.009182)scale(0.18 -0.18)">
       <use xlink:href="#DejaVuSans-53"/>
      </g>
     </g>
    </g>
    <g id="ytick_7">
     <g id="line2d_23">
      <g>
       <use style="stroke:#000000;stroke-width:0.8;" x="90" xlink:href="#m773d683906" y="358.2"/>
      </g>
     </g>
     <g id="text_19">
      <!-- 10 -->
      <g transform="translate(60.095 365.038594)scale(0.18 -0.18)">
       <use xlink:href="#DejaVuSans-49"/>
       <use x="63.623047" xlink:href="#DejaVuSans-48"/>
      </g>
     </g>
    </g>
    <g id="ytick_8">
     <g id="line2d_24">
      <g>
       <use style="stroke:#000000;stroke-width:0.8;" x="90" xlink:href="#m773d683906" y="318.229412"/>
      </g>
     </g>
     <g id="text_20">
      <!-- 15 -->
      <g transform="translate(60.095 325.068006)scale(0.18 -0.18)">
       <use xlink:href="#DejaVuSans-49"/>
       <use x="63.623047" xlink:href="#DejaVuSans-53"/>
      </g>
     </g>
    </g>
    <g id="ytick_9">
     <g id="line2d_25">
      <g>
       <use style="stroke:#000000;stroke-width:0.8;" x="90" xlink:href="#m773d683906" y="278.258824"/>
      </g>
     </g>
     <g id="text_21">
      <!-- 20 -->
      <g transform="translate(60.095 285.097417)scale(0.18 -0.18)">
       <use xlink:href="#DejaVuSans-50"/>
       <use x="63.623047" xlink:href="#DejaVuSans-48"/>
      </g>
     </g>
    </g>
   </g>
   <g id="line2d_26">
    <path clip-path="url(#p63a4599a09)" d="M 0 0 
" style="fill:none;stroke:#bfbf00;stroke-linecap:square;stroke-width:1.5;"/>
   </g>
   <g id="line2d_27">
    <path clip-path="url(#p63a4599a09)" d="M 0 0 
" style="fill:none;stroke:#000000;stroke-linecap:square;stroke-width:1.5;"/>
   </g>
   <g id="line2d_28">
    <path clip-path="url(#p63a4599a09)" d="M 0 0 
" style="fill:none;stroke:#ff0000;stroke-linecap:square;stroke-width:1.5;"/>
   </g>
   <g id="line2d_29">
    <path clip-path="url(#p63a4599a09)" d="M 0 0 
" style="fill:none;stroke:#0000ff;stroke-linecap:square;stroke-width:1.5;"/>
   </g>
   <g id="patch_9">
    <path d="M 90 438.141176 
L 90 278.258824 
" style="fill:none;stroke:#000000;stroke-linecap:square;stroke-linejoin:miter;stroke-width:0.8;"/>
   </g>
   <g id="patch_10">
    <path d="M 648 438.141176 
L 648 278.258824 
" style="fill:none;stroke:#000000;stroke-linecap:square;stroke-linejoin:miter;stroke-width:0.8;"/>
   </g>
   <g id="patch_11">
    <path d="M 90 438.141176 
L 648 438.141176 
" style="fill:none;stroke:#000000;stroke-linecap:square;stroke-linejoin:miter;stroke-width:0.8;"/>
   </g>
   <g id="patch_12">
    <path d="M 90 278.258824 
L 648 278.258824 
" style="fill:none;stroke:#000000;stroke-linecap:square;stroke-linejoin:miter;stroke-width:0.8;"/>
   </g>
   <g id="legend_2">
    <g id="patch_13">
     <path d="M 527.570312 344.971324 
L 641 344.971324 
Q 643 344.971324 643 342.971324 
L 643 285.258824 
Q 643 283.258824 641 283.258824 
L 527.570312 283.258824 
Q 525.570312 283.258824 525.570312 285.258824 
L 525.570312 342.971324 
Q 525.570312 344.971324 527.570312 344.971324 
z
" style="fill:#ffffff;opacity:0.8;stroke:#cccccc;stroke-linejoin:miter;"/>
    </g>
    <g id="line2d_30">
     <path d="M 529.570312 291.357261 
L 549.570312 291.357261 
" style="fill:none;stroke:#bfbf00;stroke-linecap:square;stroke-width:1.5;"/>
    </g>
    <g id="line2d_31"/>
    <g id="text_22">
     <!-- exclusive KL eta -->
     <defs>
      <path d="M 56.203125 29.59375 
L 56.203125 25.203125 
L 14.890625 25.203125 
Q 15.484375 15.921875 20.484375 11.0625 
Q 25.484375 6.203125 34.421875 6.203125 
Q 39.59375 6.203125 44.453125 7.46875 
Q 49.3125 8.734375 54.109375 11.28125 
L 54.109375 2.78125 
Q 49.265625 0.734375 44.1875 -0.34375 
Q 39.109375 -1.421875 33.890625 -1.421875 
Q 20.796875 -1.421875 13.15625 6.1875 
Q 5.515625 13.8125 5.515625 26.8125 
Q 5.515625 40.234375 12.765625 48.109375 
Q 20.015625 56 32.328125 56 
Q 43.359375 56 49.78125 48.890625 
Q 56.203125 41.796875 56.203125 29.59375 
z
M 47.21875 32.234375 
Q 47.125 39.59375 43.09375 43.984375 
Q 39.0625 48.390625 32.421875 48.390625 
Q 24.90625 48.390625 20.390625 44.140625 
Q 15.875 39.890625 15.1875 32.171875 
z
" id="DejaVuSans-101"/>
      <path d="M 54.890625 54.6875 
L 35.109375 28.078125 
L 55.90625 0 
L 45.3125 0 
L 29.390625 21.484375 
L 13.484375 0 
L 2.875 0 
L 24.125 28.609375 
L 4.6875 54.6875 
L 15.28125 54.6875 
L 29.78125 35.203125 
L 44.28125 54.6875 
z
" id="DejaVuSans-120"/>
      <path d="M 48.78125 52.59375 
L 48.78125 44.1875 
Q 44.96875 46.296875 41.140625 47.34375 
Q 37.3125 48.390625 33.40625 48.390625 
Q 24.65625 48.390625 19.8125 42.84375 
Q 14.984375 37.3125 14.984375 27.296875 
Q 14.984375 17.28125 19.8125 11.734375 
Q 24.65625 6.203125 33.40625 6.203125 
Q 37.3125 6.203125 41.140625 7.25 
Q 44.96875 8.296875 48.78125 10.40625 
L 48.78125 2.09375 
Q 45.015625 0.34375 40.984375 -0.53125 
Q 36.96875 -1.421875 32.421875 -1.421875 
Q 20.0625 -1.421875 12.78125 6.34375 
Q 5.515625 14.109375 5.515625 27.296875 
Q 5.515625 40.671875 12.859375 48.328125 
Q 20.21875 56 33.015625 56 
Q 37.15625 56 41.109375 55.140625 
Q 45.0625 54.296875 48.78125 52.59375 
z
" id="DejaVuSans-99"/>
      <path d="M 9.421875 75.984375 
L 18.40625 75.984375 
L 18.40625 0 
L 9.421875 0 
z
" id="DejaVuSans-108"/>
      <path d="M 8.5 21.578125 
L 8.5 54.6875 
L 17.484375 54.6875 
L 17.484375 21.921875 
Q 17.484375 14.15625 20.5 10.265625 
Q 23.53125 6.390625 29.59375 6.390625 
Q 36.859375 6.390625 41.078125 11.03125 
Q 45.3125 15.671875 45.3125 23.6875 
L 45.3125 54.6875 
L 54.296875 54.6875 
L 54.296875 0 
L 45.3125 0 
L 45.3125 8.40625 
Q 42.046875 3.421875 37.71875 1 
Q 33.40625 -1.421875 27.6875 -1.421875 
Q 18.265625 -1.421875 13.375 4.4375 
Q 8.5 10.296875 8.5 21.578125 
z
M 31.109375 56 
z
" id="DejaVuSans-117"/>
      <path d="M 9.421875 54.6875 
L 18.40625 54.6875 
L 18.40625 0 
L 9.421875 0 
z
M 9.421875 75.984375 
L 18.40625 75.984375 
L 18.40625 64.59375 
L 9.421875 64.59375 
z
" id="DejaVuSans-105"/>
      <path d="M 2.984375 54.6875 
L 12.5 54.6875 
L 29.59375 8.796875 
L 46.6875 54.6875 
L 56.203125 54.6875 
L 35.6875 0 
L 23.484375 0 
z
" id="DejaVuSans-118"/>
      <path id="DejaVuSans-32"/>
      <path d="M 9.8125 72.90625 
L 19.671875 72.90625 
L 19.671875 42.09375 
L 52.390625 72.90625 
L 65.09375 72.90625 
L 28.90625 38.921875 
L 67.671875 0 
L 54.6875 0 
L 19.671875 35.109375 
L 19.671875 0 
L 9.8125 0 
z
" id="DejaVuSans-75"/>
      <path d="M 18.3125 70.21875 
L 18.3125 54.6875 
L 36.8125 54.6875 
L 36.8125 47.703125 
L 18.3125 47.703125 
L 18.3125 18.015625 
Q 18.3125 11.328125 20.140625 9.421875 
Q 21.96875 7.515625 27.59375 7.515625 
L 36.8125 7.515625 
L 36.8125 0 
L 27.59375 0 
Q 17.1875 0 13.234375 3.875 
Q 9.28125 7.765625 9.28125 18.015625 
L 9.28125 47.703125 
L 2.6875 47.703125 
L 2.6875 54.6875 
L 9.28125 54.6875 
L 9.28125 70.21875 
z
" id="DejaVuSans-116"/>
      <path d="M 34.28125 27.484375 
Q 23.390625 27.484375 19.1875 25 
Q 14.984375 22.515625 14.984375 16.5 
Q 14.984375 11.71875 18.140625 8.90625 
Q 21.296875 6.109375 26.703125 6.109375 
Q 34.1875 6.109375 38.703125 11.40625 
Q 43.21875 16.703125 43.21875 25.484375 
L 43.21875 27.484375 
z
M 52.203125 31.203125 
L 52.203125 0 
L 43.21875 0 
L 43.21875 8.296875 
Q 40.140625 3.328125 35.546875 0.953125 
Q 30.953125 -1.421875 24.3125 -1.421875 
Q 15.921875 -1.421875 10.953125 3.296875 
Q 6 8.015625 6 15.921875 
Q 6 25.140625 12.171875 29.828125 
Q 18.359375 34.515625 30.609375 34.515625 
L 43.21875 34.515625 
L 43.21875 35.40625 
Q 43.21875 41.609375 39.140625 45 
Q 35.0625 48.390625 27.6875 48.390625 
Q 23 48.390625 18.546875 47.265625 
Q 14.109375 46.140625 10.015625 43.890625 
L 10.015625 52.203125 
Q 14.9375 54.109375 19.578125 55.046875 
Q 24.21875 56 28.609375 56 
Q 40.484375 56 46.34375 49.84375 
Q 52.203125 43.703125 52.203125 31.203125 
z
" id="DejaVuSans-97"/>
     </defs>
     <g transform="translate(557.570312 294.857261)scale(0.1 -0.1)">
      <use xlink:href="#DejaVuSans-101"/>
      <use x="61.507812" xlink:href="#DejaVuSans-120"/>
      <use x="120.671875" xlink:href="#DejaVuSans-99"/>
      <use x="175.652344" xlink:href="#DejaVuSans-108"/>
      <use x="203.435547" xlink:href="#DejaVuSans-117"/>
      <use x="266.814453" xlink:href="#DejaVuSans-115"/>
      <use x="318.914062" xlink:href="#DejaVuSans-105"/>
      <use x="346.697266" xlink:href="#DejaVuSans-118"/>
      <use x="405.876953" xlink:href="#DejaVuSans-101"/>
      <use x="467.400391" xlink:href="#DejaVuSans-32"/>
      <use x="499.1875" xlink:href="#DejaVuSans-75"/>
      <use x="564.763672" xlink:href="#DejaVuSans-76"/>
      <use x="620.476562" xlink:href="#DejaVuSans-32"/>
      <use x="652.263672" xlink:href="#DejaVuSans-101"/>
      <use x="713.787109" xlink:href="#DejaVuSans-116"/>
      <use x="752.996094" xlink:href="#DejaVuSans-97"/>
     </g>
    </g>
    <g id="line2d_32">
     <path d="M 529.570312 306.035386 
L 549.570312 306.035386 
" style="fill:none;stroke:#000000;stroke-linecap:square;stroke-width:1.5;"/>
    </g>
    <g id="line2d_33"/>
    <g id="text_23">
     <!-- inclusive KL eta -->
     <defs>
      <path d="M 54.890625 33.015625 
L 54.890625 0 
L 45.90625 0 
L 45.90625 32.71875 
Q 45.90625 40.484375 42.875 44.328125 
Q 39.84375 48.1875 33.796875 48.1875 
Q 26.515625 48.1875 22.3125 43.546875 
Q 18.109375 38.921875 18.109375 30.90625 
L 18.109375 0 
L 9.078125 0 
L 9.078125 54.6875 
L 18.109375 54.6875 
L 18.109375 46.1875 
Q 21.34375 51.125 25.703125 53.5625 
Q 30.078125 56 35.796875 56 
Q 45.21875 56 50.046875 50.171875 
Q 54.890625 44.34375 54.890625 33.015625 
z
" id="DejaVuSans-110"/>
     </defs>
     <g transform="translate(557.570312 309.535386)scale(0.1 -0.1)">
      <use xlink:href="#DejaVuSans-105"/>
      <use x="27.783203" xlink:href="#DejaVuSans-110"/>
      <use x="91.162109" xlink:href="#DejaVuSans-99"/>
      <use x="146.142578" xlink:href="#DejaVuSans-108"/>
      <use x="173.925781" xlink:href="#DejaVuSans-117"/>
      <use x="237.304688" xlink:href="#DejaVuSans-115"/>
      <use x="289.404297" xlink:href="#DejaVuSans-105"/>
      <use x="317.1875" xlink:href="#DejaVuSans-118"/>
      <use x="376.367188" xlink:href="#DejaVuSans-101"/>
      <use x="437.890625" xlink:href="#DejaVuSans-32"/>
      <use x="469.677734" xlink:href="#DejaVuSans-75"/>
      <use x="535.253906" xlink:href="#DejaVuSans-76"/>
      <use x="590.966797" xlink:href="#DejaVuSans-32"/>
      <use x="622.753906" xlink:href="#DejaVuSans-101"/>
      <use x="684.277344" xlink:href="#DejaVuSans-116"/>
      <use x="723.486328" xlink:href="#DejaVuSans-97"/>
     </g>
    </g>
    <g id="line2d_34">
     <path d="M 529.570312 320.713511 
L 549.570312 320.713511 
" style="fill:none;stroke:#ff0000;stroke-linecap:square;stroke-width:1.5;"/>
    </g>
    <g id="line2d_35"/>
    <g id="text_24">
     <!-- exclusive KL z -->
     <defs>
      <path d="M 5.515625 54.6875 
L 48.1875 54.6875 
L 48.1875 46.484375 
L 14.40625 7.171875 
L 48.1875 7.171875 
L 48.1875 0 
L 4.296875 0 
L 4.296875 8.203125 
L 38.09375 47.515625 
L 5.515625 47.515625 
z
" id="DejaVuSans-122"/>
     </defs>
     <g transform="translate(557.570312 324.213511)scale(0.1 -0.1)">
      <use xlink:href="#DejaVuSans-101"/>
      <use x="61.507812" xlink:href="#DejaVuSans-120"/>
      <use x="120.671875" xlink:href="#DejaVuSans-99"/>
      <use x="175.652344" xlink:href="#DejaVuSans-108"/>
      <use x="203.435547" xlink:href="#DejaVuSans-117"/>
      <use x="266.814453" xlink:href="#DejaVuSans-115"/>
      <use x="318.914062" xlink:href="#DejaVuSans-105"/>
      <use x="346.697266" xlink:href="#DejaVuSans-118"/>
      <use x="405.876953" xlink:href="#DejaVuSans-101"/>
      <use x="467.400391" xlink:href="#DejaVuSans-32"/>
      <use x="499.1875" xlink:href="#DejaVuSans-75"/>
      <use x="564.763672" xlink:href="#DejaVuSans-76"/>
      <use x="620.476562" xlink:href="#DejaVuSans-32"/>
      <use x="652.263672" xlink:href="#DejaVuSans-122"/>
     </g>
    </g>
    <g id="line2d_36">
     <path d="M 529.570312 335.391636 
L 549.570312 335.391636 
" style="fill:none;stroke:#0000ff;stroke-linecap:square;stroke-width:1.5;"/>
    </g>
    <g id="line2d_37"/>
    <g id="text_25">
     <!-- inclusive KL z -->
     <g transform="translate(557.570312 338.891636)scale(0.1 -0.1)">
      <use xlink:href="#DejaVuSans-105"/>
      <use x="27.783203" xlink:href="#DejaVuSans-110"/>
      <use x="91.162109" xlink:href="#DejaVuSans-99"/>
      <use x="146.142578" xlink:href="#DejaVuSans-108"/>
      <use x="173.925781" xlink:href="#DejaVuSans-117"/>
      <use x="237.304688" xlink:href="#DejaVuSans-115"/>
      <use x="289.404297" xlink:href="#DejaVuSans-105"/>
      <use x="317.1875" xlink:href="#DejaVuSans-118"/>
      <use x="376.367188" xlink:href="#DejaVuSans-101"/>
      <use x="437.890625" xlink:href="#DejaVuSans-32"/>
      <use x="469.677734" xlink:href="#DejaVuSans-75"/>
      <use x="535.253906" xlink:href="#DejaVuSans-76"/>
      <use x="590.966797" xlink:href="#DejaVuSans-32"/>
      <use x="622.753906" xlink:href="#DejaVuSans-122"/>
     </g>
    </g>
   </g>
  </g>
  <g id="axes_3">
   <g id="patch_14">
    <path d="M 90 630 
L 648 630 
L 648 470.117647 
L 90 470.117647 
z
" style="fill:#ffffff;"/>
   </g>
   <g id="matplotlib.axis_5">
    <g id="xtick_11">
     <g id="line2d_38">
      <g>
       <use style="stroke:#000000;stroke-width:0.8;" x="115.363636" xlink:href="#mf74383a192" y="630"/>
      </g>
     </g>
     <g id="text_26">
      <!-- 0 -->
      <g transform="translate(109.637386 650.677187)scale(0.18 -0.18)">
       <use xlink:href="#DejaVuSans-48"/>
      </g>
     </g>
    </g>
    <g id="xtick_12">
     <g id="line2d_39">
      <g>
       <use style="stroke:#000000;stroke-width:0.8;" x="237.893281" xlink:href="#mf74383a192" y="630"/>
      </g>
     </g>
     <g id="text_27">
      <!-- 50 -->
      <g transform="translate(226.440781 650.677187)scale(0.18 -0.18)">
       <use xlink:href="#DejaVuSans-53"/>
       <use x="63.623047" xlink:href="#DejaVuSans-48"/>
      </g>
     </g>
    </g>
    <g id="xtick_13">
     <g id="line2d_40">
      <g>
       <use style="stroke:#000000;stroke-width:0.8;" x="360.422925" xlink:href="#mf74383a192" y="630"/>
      </g>
     </g>
     <g id="text_28">
      <!-- 100 -->
      <g transform="translate(343.244175 650.677187)scale(0.18 -0.18)">
       <use xlink:href="#DejaVuSans-49"/>
       <use x="63.623047" xlink:href="#DejaVuSans-48"/>
       <use x="127.246094" xlink:href="#DejaVuSans-48"/>
      </g>
     </g>
    </g>
    <g id="xtick_14">
     <g id="line2d_41">
      <g>
       <use style="stroke:#000000;stroke-width:0.8;" x="482.952569" xlink:href="#mf74383a192" y="630"/>
      </g>
     </g>
     <g id="text_29">
      <!-- 150 -->
      <g transform="translate(465.773819 650.677187)scale(0.18 -0.18)">
       <use xlink:href="#DejaVuSans-49"/>
       <use x="63.623047" xlink:href="#DejaVuSans-53"/>
       <use x="127.246094" xlink:href="#DejaVuSans-48"/>
      </g>
     </g>
    </g>
    <g id="xtick_15">
     <g id="line2d_42">
      <g>
       <use style="stroke:#000000;stroke-width:0.8;" x="605.482213" xlink:href="#mf74383a192" y="630"/>
      </g>
     </g>
     <g id="text_30">
      <!-- 200 -->
      <g transform="translate(588.303463 650.677187)scale(0.18 -0.18)">
       <use xlink:href="#DejaVuSans-50"/>
       <use x="63.623047" xlink:href="#DejaVuSans-48"/>
       <use x="127.246094" xlink:href="#DejaVuSans-48"/>
      </g>
     </g>
    </g>
   </g>
   <g id="matplotlib.axis_6">
    <g id="ytick_10">
     <g id="line2d_43">
      <g>
       <use style="stroke:#000000;stroke-width:0.8;" x="90" xlink:href="#m773d683906" y="630"/>
      </g>
     </g>
     <g id="text_31">
      <!-- 0.00 -->
      <defs>
       <path d="M 10.6875 12.40625 
L 21 12.40625 
L 21 0 
L 10.6875 0 
z
" id="DejaVuSans-46"/>
      </defs>
      <g transform="translate(42.921875 636.838594)scale(0.18 -0.18)">
       <use xlink:href="#DejaVuSans-48"/>
       <use x="63.623047" xlink:href="#DejaVuSans-46"/>
       <use x="95.410156" xlink:href="#DejaVuSans-48"/>
       <use x="159.033203" xlink:href="#DejaVuSans-48"/>
      </g>
     </g>
    </g>
    <g id="ytick_11">
     <g id="line2d_44">
      <g>
       <use style="stroke:#000000;stroke-width:0.8;" x="90" xlink:href="#m773d683906" y="590.029412"/>
      </g>
     </g>
     <g id="text_32">
      <!-- 0.25 -->
      <g transform="translate(42.921875 596.868006)scale(0.18 -0.18)">
       <use xlink:href="#DejaVuSans-48"/>
       <use x="63.623047" xlink:href="#DejaVuSans-46"/>
       <use x="95.410156" xlink:href="#DejaVuSans-50"/>
       <use x="159.033203" xlink:href="#DejaVuSans-53"/>
      </g>
     </g>
    </g>
    <g id="ytick_12">
     <g id="line2d_45">
      <g>
       <use style="stroke:#000000;stroke-width:0.8;" x="90" xlink:href="#m773d683906" y="550.058824"/>
      </g>
     </g>
     <g id="text_33">
      <!-- 0.50 -->
      <g transform="translate(42.921875 556.897417)scale(0.18 -0.18)">
       <use xlink:href="#DejaVuSans-48"/>
       <use x="63.623047" xlink:href="#DejaVuSans-46"/>
       <use x="95.410156" xlink:href="#DejaVuSans-53"/>
       <use x="159.033203" xlink:href="#DejaVuSans-48"/>
      </g>
     </g>
    </g>
    <g id="ytick_13">
     <g id="line2d_46">
      <g>
       <use style="stroke:#000000;stroke-width:0.8;" x="90" xlink:href="#m773d683906" y="510.088235"/>
      </g>
     </g>
     <g id="text_34">
      <!-- 0.75 -->
      <defs>
       <path d="M 8.203125 72.90625 
L 55.078125 72.90625 
L 55.078125 68.703125 
L 28.609375 0 
L 18.3125 0 
L 43.21875 64.59375 
L 8.203125 64.59375 
z
" id="DejaVuSans-55"/>
      </defs>
      <g transform="translate(42.921875 516.926829)scale(0.18 -0.18)">
       <use xlink:href="#DejaVuSans-48"/>
       <use x="63.623047" xlink:href="#DejaVuSans-46"/>
       <use x="95.410156" xlink:href="#DejaVuSans-55"/>
       <use x="159.033203" xlink:href="#DejaVuSans-53"/>
      </g>
     </g>
    </g>
    <g id="ytick_14">
     <g id="line2d_47">
      <g>
       <use style="stroke:#000000;stroke-width:0.8;" x="90" xlink:href="#m773d683906" y="470.117647"/>
      </g>
     </g>
     <g id="text_35">
      <!-- 1.00 -->
      <g transform="translate(42.921875 476.956241)scale(0.18 -0.18)">
       <use xlink:href="#DejaVuSans-49"/>
       <use x="63.623047" xlink:href="#DejaVuSans-46"/>
       <use x="95.410156" xlink:href="#DejaVuSans-48"/>
       <use x="159.033203" xlink:href="#DejaVuSans-48"/>
      </g>
     </g>
    </g>
   </g>
   <g id="line2d_48">
    <path clip-path="url(#p539aa039db)" d="M 115.363636 559.252059 
L 120.264822 554.967212 
L 122.715415 553.240482 
L 125.166008 551.929447 
L 127.616601 550.746318 
L 130.067194 549.882953 
L 139.869565 547.820471 
L 144.770751 547.436753 
L 147.221344 547.260882 
L 149.671937 547.228906 
L 161.924901 547.564659 
L 164.375494 547.596635 
L 174.177866 546.925129 
L 176.628458 546.637341 
L 179.079051 546.189671 
L 181.529644 545.901882 
L 193.782609 542.928071 
L 198.683794 541.569071 
L 201.134387 541.105412 
L 203.58498 540.513847 
L 206.035573 540.066176 
L 208.486166 539.890306 
L 213.387352 539.106882 
L 230.541502 538.419388 
L 237.893281 538.579271 
L 242.794466 538.515318 
L 245.245059 538.579271 
L 247.695652 538.419388 
L 250.146245 538.579271 
L 267.300395 538.499329 
L 272.201581 538.659212 
L 279.55336 538.483341 
L 282.003953 538.659212 
L 286.905138 538.547294 
L 299.158103 538.627235 
L 301.608696 538.499329 
L 311.411067 538.531306 
L 313.86166 538.499329 
L 316.312253 538.595259 
L 321.213439 538.531306 
L 323.664032 538.595259 
L 331.01581 538.339447 
L 333.466403 538.515318 
L 335.916996 538.371424 
L 338.367589 538.499329 
L 340.818182 538.307471 
L 345.719368 538.339447 
L 357.972332 538.147588 
L 360.422925 538.339447 
L 362.873518 538.195553 
L 375.126482 538.099624 
L 380.027668 538.147588 
L 382.478261 537.987706 
L 384.928854 538.067647 
L 387.379447 538.003694 
L 389.83004 538.1316 
L 392.280632 537.971718 
L 399.632411 537.891776 
L 402.083004 537.843812 
L 404.533597 537.683929 
L 406.98419 537.843812 
L 411.885375 537.683929 
L 414.335968 537.763871 
L 438.841897 537.540035 
L 451.094862 537.476082 
L 453.545455 537.3162 
L 455.996047 537.492071 
L 460.897233 537.284224 
L 463.347826 537.380153 
L 465.798419 537.140329 
L 468.249012 537.252247 
L 475.600791 537.172306 
L 480.501976 537.108353 
L 482.952569 537.188294 
L 490.304348 537.076376 
L 519.711462 536.916494 
L 522.162055 536.692659 
L 544.217391 536.612718 
L 549.118577 536.612718 
L 554.019763 536.420859 
L 556.470356 536.484812 
L 558.920949 536.356906 
L 561.371542 536.516788 
L 563.822134 536.372894 
L 566.272727 536.404871 
L 568.72332 536.276965 
L 585.87747 536.244988 
L 588.328063 535.973188 
L 593.229249 536.037141 
L 603.031621 535.989176 
L 607.932806 535.717376 
L 612.833992 535.813306 
L 622.636364 535.717376 
L 622.636364 535.717376 
" style="fill:none;stroke:#bf00bf;stroke-linecap:square;stroke-width:1.5;"/>
   </g>
   <g id="patch_15">
    <path d="M 90 630 
L 90 470.117647 
" style="fill:none;stroke:#000000;stroke-linecap:square;stroke-linejoin:miter;stroke-width:0.8;"/>
   </g>
   <g id="patch_16">
    <path d="M 648 630 
L 648 470.117647 
" style="fill:none;stroke:#000000;stroke-linecap:square;stroke-linejoin:miter;stroke-width:0.8;"/>
   </g>
   <g id="patch_17">
    <path d="M 90 630 
L 648 630 
" style="fill:none;stroke:#000000;stroke-linecap:square;stroke-linejoin:miter;stroke-width:0.8;"/>
   </g>
   <g id="patch_18">
    <path d="M 90 470.117647 
L 648 470.117647 
" style="fill:none;stroke:#000000;stroke-linecap:square;stroke-linejoin:miter;stroke-width:0.8;"/>
   </g>
   <g id="legend_3">
    <g id="patch_19">
     <path d="M 589.984375 492.795772 
L 641 492.795772 
Q 643 492.795772 643 490.795772 
L 643 477.117647 
Q 643 475.117647 641 475.117647 
L 589.984375 475.117647 
Q 587.984375 475.117647 587.984375 477.117647 
L 587.984375 490.795772 
Q 587.984375 492.795772 589.984375 492.795772 
z
" style="fill:#ffffff;opacity:0.8;stroke:#cccccc;stroke-linejoin:miter;"/>
    </g>
    <g id="line2d_49">
     <path d="M 591.984375 483.216085 
L 611.984375 483.216085 
" style="fill:none;stroke:#bf00bf;stroke-linecap:square;stroke-width:1.5;"/>
    </g>
    <g id="line2d_50"/>
    <g id="text_36">
     <!-- ESS -->
     <defs>
      <path d="M 53.515625 70.515625 
L 53.515625 60.890625 
Q 47.90625 63.578125 42.921875 64.890625 
Q 37.9375 66.21875 33.296875 66.21875 
Q 25.25 66.21875 20.875 63.09375 
Q 16.5 59.96875 16.5 54.203125 
Q 16.5 49.359375 19.40625 46.890625 
Q 22.3125 44.4375 30.421875 42.921875 
L 36.375 41.703125 
Q 47.40625 39.59375 52.65625 34.296875 
Q 57.90625 29 57.90625 20.125 
Q 57.90625 9.515625 50.796875 4.046875 
Q 43.703125 -1.421875 29.984375 -1.421875 
Q 24.8125 -1.421875 18.96875 -0.25 
Q 13.140625 0.921875 6.890625 3.21875 
L 6.890625 13.375 
Q 12.890625 10.015625 18.65625 8.296875 
Q 24.421875 6.59375 29.984375 6.59375 
Q 38.421875 6.59375 43.015625 9.90625 
Q 47.609375 13.234375 47.609375 19.390625 
Q 47.609375 24.75 44.3125 27.78125 
Q 41.015625 30.8125 33.5 32.328125 
L 27.484375 33.5 
Q 16.453125 35.6875 11.515625 40.375 
Q 6.59375 45.0625 6.59375 53.421875 
Q 6.59375 63.09375 13.40625 68.65625 
Q 20.21875 74.21875 32.171875 74.21875 
Q 37.3125 74.21875 42.625 73.28125 
Q 47.953125 72.359375 53.515625 70.515625 
z
" id="DejaVuSans-83"/>
     </defs>
     <g transform="translate(619.984375 486.716085)scale(0.1 -0.1)">
      <use xlink:href="#DejaVuSans-69"/>
      <use x="63.183594" xlink:href="#DejaVuSans-83"/>
      <use x="126.660156" xlink:href="#DejaVuSans-83"/>
     </g>
    </g>
   </g>
  </g>
 </g>
 <defs>
  <clipPath id="p4c0a098967">
   <rect height="159.882353" width="558" x="90" y="86.4"/>
  </clipPath>
  <clipPath id="p63a4599a09">
   <rect height="159.882353" width="558" x="90" y="278.258824"/>
  </clipPath>
  <clipPath id="p539aa039db">
   <rect height="159.882353" width="558" x="90" y="470.117647"/>
  </clipPath>
 </defs>
</svg>
