<?xml version="1.0" encoding="utf-8" standalone="no"?>
<!DOCTYPE svg PUBLIC "-//W3C//DTD SVG 1.1//EN"
  "http://www.w3.org/Graphics/SVG/1.1/DTD/svg11.dtd">
<!-- Created with matplotlib (https://matplotlib.org/) -->
<svg height="720pt" version="1.1" viewBox="0 0 720 720" width="720pt" xmlns="http://www.w3.org/2000/svg" xmlns:xlink="http://www.w3.org/1999/xlink">
 <defs>
  <style type="text/css">
*{stroke-linecap:butt;stroke-linejoin:round;}
  </style>
 </defs>
 <g id="figure_1">
  <g id="patch_1">
   <path d="M 0 720 
L 720 720 
L 720 0 
L 0 0 
z
" style="fill:#ffffff;"/>
  </g>
  <g id="axes_1">
   <g id="patch_2">
    <path d="M 90 246.282353 
L 648 246.282353 
L 648 86.4 
L 90 86.4 
z
" style="fill:#ffffff;"/>
   </g>
   <g id="matplotlib.axis_1">
    <g id="xtick_1">
     <g id="line2d_1">
      <defs>
       <path d="M 0 0 
L 0 3.5 
" id="mc1ea9b0228" style="stroke:#000000;stroke-width:0.8;"/>
      </defs>
      <g>
       <use style="stroke:#000000;stroke-width:0.8;" x="115.363636" xlink:href="#mc1ea9b0228" y="246.282353"/>
      </g>
     </g>
     <g id="text_1">
      <!-- 0 -->
      <defs>
       <path d="M 31.78125 66.40625 
Q 24.171875 66.40625 20.328125 58.90625 
Q 16.5 51.421875 16.5 36.375 
Q 16.5 21.390625 20.328125 13.890625 
Q 24.171875 6.390625 31.78125 6.390625 
Q 39.453125 6.390625 43.28125 13.890625 
Q 47.125 21.390625 47.125 36.375 
Q 47.125 51.421875 43.28125 58.90625 
Q 39.453125 66.40625 31.78125 66.40625 
z
M 31.78125 74.21875 
Q 44.046875 74.21875 50.515625 64.515625 
Q 56.984375 54.828125 56.984375 36.375 
Q 56.984375 17.96875 50.515625 8.265625 
Q 44.046875 -1.421875 31.78125 -1.421875 
Q 19.53125 -1.421875 13.0625 8.265625 
Q 6.59375 17.96875 6.59375 36.375 
Q 6.59375 54.828125 13.0625 64.515625 
Q 19.53125 74.21875 31.78125 74.21875 
z
" id="DejaVuSans-48"/>
      </defs>
      <g transform="translate(109.637386 266.95954)scale(0.18 -0.18)">
       <use xlink:href="#DejaVuSans-48"/>
      </g>
     </g>
    </g>
    <g id="xtick_2">
     <g id="line2d_2">
      <g>
       <use style="stroke:#000000;stroke-width:0.8;" x="179.575374" xlink:href="#mc1ea9b0228" y="246.282353"/>
      </g>
     </g>
     <g id="text_2">
      <!-- 20 -->
      <defs>
       <path d="M 19.1875 8.296875 
L 53.609375 8.296875 
L 53.609375 0 
L 7.328125 0 
L 7.328125 8.296875 
Q 12.9375 14.109375 22.625 23.890625 
Q 32.328125 33.6875 34.8125 36.53125 
Q 39.546875 41.84375 41.421875 45.53125 
Q 43.3125 49.21875 43.3125 52.78125 
Q 43.3125 58.59375 39.234375 62.25 
Q 35.15625 65.921875 28.609375 65.921875 
Q 23.96875 65.921875 18.8125 64.3125 
Q 13.671875 62.703125 7.8125 59.421875 
L 7.8125 69.390625 
Q 13.765625 71.78125 18.9375 73 
Q 24.125 74.21875 28.421875 74.21875 
Q 39.75 74.21875 46.484375 68.546875 
Q 53.21875 62.890625 53.21875 53.421875 
Q 53.21875 48.921875 51.53125 44.890625 
Q 49.859375 40.875 45.40625 35.40625 
Q 44.1875 33.984375 37.640625 27.21875 
Q 31.109375 20.453125 19.1875 8.296875 
z
" id="DejaVuSans-50"/>
      </defs>
      <g transform="translate(168.122874 266.95954)scale(0.18 -0.18)">
       <use xlink:href="#DejaVuSans-50"/>
       <use x="63.623047" xlink:href="#DejaVuSans-48"/>
      </g>
     </g>
    </g>
    <g id="xtick_3">
     <g id="line2d_3">
      <g>
       <use style="stroke:#000000;stroke-width:0.8;" x="243.787112" xlink:href="#mc1ea9b0228" y="246.282353"/>
      </g>
     </g>
     <g id="text_3">
      <!-- 40 -->
      <defs>
       <path d="M 37.796875 64.3125 
L 12.890625 25.390625 
L 37.796875 25.390625 
z
M 35.203125 72.90625 
L 47.609375 72.90625 
L 47.609375 25.390625 
L 58.015625 25.390625 
L 58.015625 17.1875 
L 47.609375 17.1875 
L 47.609375 0 
L 37.796875 0 
L 37.796875 17.1875 
L 4.890625 17.1875 
L 4.890625 26.703125 
z
" id="DejaVuSans-52"/>
      </defs>
      <g transform="translate(232.334612 266.95954)scale(0.18 -0.18)">
       <use xlink:href="#DejaVuSans-52"/>
       <use x="63.623047" xlink:href="#DejaVuSans-48"/>
      </g>
     </g>
    </g>
    <g id="xtick_4">
     <g id="line2d_4">
      <g>
       <use style="stroke:#000000;stroke-width:0.8;" x="307.998849" xlink:href="#mc1ea9b0228" y="246.282353"/>
      </g>
     </g>
     <g id="text_4">
      <!-- 60 -->
      <defs>
       <path d="M 33.015625 40.375 
Q 26.375 40.375 22.484375 35.828125 
Q 18.609375 31.296875 18.609375 23.390625 
Q 18.609375 15.53125 22.484375 10.953125 
Q 26.375 6.390625 33.015625 6.390625 
Q 39.65625 6.390625 43.53125 10.953125 
Q 47.40625 15.53125 47.40625 23.390625 
Q 47.40625 31.296875 43.53125 35.828125 
Q 39.65625 40.375 33.015625 40.375 
z
M 52.59375 71.296875 
L 52.59375 62.3125 
Q 48.875 64.0625 45.09375 64.984375 
Q 41.3125 65.921875 37.59375 65.921875 
Q 27.828125 65.921875 22.671875 59.328125 
Q 17.53125 52.734375 16.796875 39.40625 
Q 19.671875 43.65625 24.015625 45.921875 
Q 28.375 48.1875 33.59375 48.1875 
Q 44.578125 48.1875 50.953125 41.515625 
Q 57.328125 34.859375 57.328125 23.390625 
Q 57.328125 12.15625 50.6875 5.359375 
Q 44.046875 -1.421875 33.015625 -1.421875 
Q 20.359375 -1.421875 13.671875 8.265625 
Q 6.984375 17.96875 6.984375 36.375 
Q 6.984375 53.65625 15.1875 63.9375 
Q 23.390625 74.21875 37.203125 74.21875 
Q 40.921875 74.21875 44.703125 73.484375 
Q 48.484375 72.75 52.59375 71.296875 
z
" id="DejaVuSans-54"/>
      </defs>
      <g transform="translate(296.546349 266.95954)scale(0.18 -0.18)">
       <use xlink:href="#DejaVuSans-54"/>
       <use x="63.623047" xlink:href="#DejaVuSans-48"/>
      </g>
     </g>
    </g>
    <g id="xtick_5">
     <g id="line2d_5">
      <g>
       <use style="stroke:#000000;stroke-width:0.8;" x="372.210587" xlink:href="#mc1ea9b0228" y="246.282353"/>
      </g>
     </g>
     <g id="text_5">
      <!-- 80 -->
      <defs>
       <path d="M 31.78125 34.625 
Q 24.75 34.625 20.71875 30.859375 
Q 16.703125 27.09375 16.703125 20.515625 
Q 16.703125 13.921875 20.71875 10.15625 
Q 24.75 6.390625 31.78125 6.390625 
Q 38.8125 6.390625 42.859375 10.171875 
Q 46.921875 13.96875 46.921875 20.515625 
Q 46.921875 27.09375 42.890625 30.859375 
Q 38.875 34.625 31.78125 34.625 
z
M 21.921875 38.8125 
Q 15.578125 40.375 12.03125 44.71875 
Q 8.5 49.078125 8.5 55.328125 
Q 8.5 64.0625 14.71875 69.140625 
Q 20.953125 74.21875 31.78125 74.21875 
Q 42.671875 74.21875 48.875 69.140625 
Q 55.078125 64.0625 55.078125 55.328125 
Q 55.078125 49.078125 51.53125 44.71875 
Q 48 40.375 41.703125 38.8125 
Q 48.828125 37.15625 52.796875 32.3125 
Q 56.78125 27.484375 56.78125 20.515625 
Q 56.78125 9.90625 50.3125 4.234375 
Q 43.84375 -1.421875 31.78125 -1.421875 
Q 19.734375 -1.421875 13.25 4.234375 
Q 6.78125 9.90625 6.78125 20.515625 
Q 6.78125 27.484375 10.78125 32.3125 
Q 14.796875 37.15625 21.921875 38.8125 
z
M 18.3125 54.390625 
Q 18.3125 48.734375 21.84375 45.5625 
Q 25.390625 42.390625 31.78125 42.390625 
Q 38.140625 42.390625 41.71875 45.5625 
Q 45.3125 48.734375 45.3125 54.390625 
Q 45.3125 60.0625 41.71875 63.234375 
Q 38.140625 66.40625 31.78125 66.40625 
Q 25.390625 66.40625 21.84375 63.234375 
Q 18.3125 60.0625 18.3125 54.390625 
z
" id="DejaVuSans-56"/>
      </defs>
      <g transform="translate(360.758087 266.95954)scale(0.18 -0.18)">
       <use xlink:href="#DejaVuSans-56"/>
       <use x="63.623047" xlink:href="#DejaVuSans-48"/>
      </g>
     </g>
    </g>
    <g id="xtick_6">
     <g id="line2d_6">
      <g>
       <use style="stroke:#000000;stroke-width:0.8;" x="436.422325" xlink:href="#mc1ea9b0228" y="246.282353"/>
      </g>
     </g>
     <g id="text_6">
      <!-- 100 -->
      <defs>
       <path d="M 12.40625 8.296875 
L 28.515625 8.296875 
L 28.515625 63.921875 
L 10.984375 60.40625 
L 10.984375 69.390625 
L 28.421875 72.90625 
L 38.28125 72.90625 
L 38.28125 8.296875 
L 54.390625 8.296875 
L 54.390625 0 
L 12.40625 0 
z
" id="DejaVuSans-49"/>
      </defs>
      <g transform="translate(419.243575 266.95954)scale(0.18 -0.18)">
       <use xlink:href="#DejaVuSans-49"/>
       <use x="63.623047" xlink:href="#DejaVuSans-48"/>
       <use x="127.246094" xlink:href="#DejaVuSans-48"/>
      </g>
     </g>
    </g>
    <g id="xtick_7">
     <g id="line2d_7">
      <g>
       <use style="stroke:#000000;stroke-width:0.8;" x="500.634062" xlink:href="#mc1ea9b0228" y="246.282353"/>
      </g>
     </g>
     <g id="text_7">
      <!-- 120 -->
      <g transform="translate(483.455312 266.95954)scale(0.18 -0.18)">
       <use xlink:href="#DejaVuSans-49"/>
       <use x="63.623047" xlink:href="#DejaVuSans-50"/>
       <use x="127.246094" xlink:href="#DejaVuSans-48"/>
      </g>
     </g>
    </g>
    <g id="xtick_8">
     <g id="line2d_8">
      <g>
       <use style="stroke:#000000;stroke-width:0.8;" x="564.8458" xlink:href="#mc1ea9b0228" y="246.282353"/>
      </g>
     </g>
     <g id="text_8">
      <!-- 140 -->
      <g transform="translate(547.66705 266.95954)scale(0.18 -0.18)">
       <use xlink:href="#DejaVuSans-49"/>
       <use x="63.623047" xlink:href="#DejaVuSans-52"/>
       <use x="127.246094" xlink:href="#DejaVuSans-48"/>
      </g>
     </g>
    </g>
    <g id="xtick_9">
     <g id="line2d_9">
      <g>
       <use style="stroke:#000000;stroke-width:0.8;" x="629.057537" xlink:href="#mc1ea9b0228" y="246.282353"/>
      </g>
     </g>
     <g id="text_9">
      <!-- 160 -->
      <g transform="translate(611.878787 266.95954)scale(0.18 -0.18)">
       <use xlink:href="#DejaVuSans-49"/>
       <use x="63.623047" xlink:href="#DejaVuSans-54"/>
       <use x="127.246094" xlink:href="#DejaVuSans-48"/>
      </g>
     </g>
    </g>
   </g>
   <g id="matplotlib.axis_2">
    <g id="ytick_1">
     <g id="line2d_10">
      <defs>
       <path d="M 0 0 
L -3.5 0 
" id="m92164da3ab" style="stroke:#000000;stroke-width:0.8;"/>
      </defs>
      <g>
       <use style="stroke:#000000;stroke-width:0.8;" x="90" xlink:href="#m92164da3ab" y="246.282353"/>
      </g>
     </g>
     <g id="text_10">
      <!-- −400 -->
      <defs>
       <path d="M 10.59375 35.5 
L 73.1875 35.5 
L 73.1875 27.203125 
L 10.59375 27.203125 
z
" id="DejaVuSans-8722"/>
      </defs>
      <g transform="translate(33.559063 253.120947)scale(0.18 -0.18)">
       <use xlink:href="#DejaVuSans-8722"/>
       <use x="83.789062" xlink:href="#DejaVuSans-52"/>
       <use x="147.412109" xlink:href="#DejaVuSans-48"/>
       <use x="211.035156" xlink:href="#DejaVuSans-48"/>
      </g>
     </g>
    </g>
    <g id="ytick_2">
     <g id="line2d_11">
      <g>
       <use style="stroke:#000000;stroke-width:0.8;" x="90" xlink:href="#m92164da3ab" y="196.319118"/>
      </g>
     </g>
     <g id="text_11">
      <!-- −350 -->
      <defs>
       <path d="M 40.578125 39.3125 
Q 47.65625 37.796875 51.625 33 
Q 55.609375 28.21875 55.609375 21.1875 
Q 55.609375 10.40625 48.1875 4.484375 
Q 40.765625 -1.421875 27.09375 -1.421875 
Q 22.515625 -1.421875 17.65625 -0.515625 
Q 12.796875 0.390625 7.625 2.203125 
L 7.625 11.71875 
Q 11.71875 9.328125 16.59375 8.109375 
Q 21.484375 6.890625 26.8125 6.890625 
Q 36.078125 6.890625 40.9375 10.546875 
Q 45.796875 14.203125 45.796875 21.1875 
Q 45.796875 27.640625 41.28125 31.265625 
Q 36.765625 34.90625 28.71875 34.90625 
L 20.21875 34.90625 
L 20.21875 43.015625 
L 29.109375 43.015625 
Q 36.375 43.015625 40.234375 45.921875 
Q 44.09375 48.828125 44.09375 54.296875 
Q 44.09375 59.90625 40.109375 62.90625 
Q 36.140625 65.921875 28.71875 65.921875 
Q 24.65625 65.921875 20.015625 65.03125 
Q 15.375 64.15625 9.8125 62.3125 
L 9.8125 71.09375 
Q 15.4375 72.65625 20.34375 73.4375 
Q 25.25 74.21875 29.59375 74.21875 
Q 40.828125 74.21875 47.359375 69.109375 
Q 53.90625 64.015625 53.90625 55.328125 
Q 53.90625 49.265625 50.4375 45.09375 
Q 46.96875 40.921875 40.578125 39.3125 
z
" id="DejaVuSans-51"/>
       <path d="M 10.796875 72.90625 
L 49.515625 72.90625 
L 49.515625 64.59375 
L 19.828125 64.59375 
L 19.828125 46.734375 
Q 21.96875 47.46875 24.109375 47.828125 
Q 26.265625 48.1875 28.421875 48.1875 
Q 40.625 48.1875 47.75 41.5 
Q 54.890625 34.8125 54.890625 23.390625 
Q 54.890625 11.625 47.5625 5.09375 
Q 40.234375 -1.421875 26.90625 -1.421875 
Q 22.3125 -1.421875 17.546875 -0.640625 
Q 12.796875 0.140625 7.71875 1.703125 
L 7.71875 11.625 
Q 12.109375 9.234375 16.796875 8.0625 
Q 21.484375 6.890625 26.703125 6.890625 
Q 35.15625 6.890625 40.078125 11.328125 
Q 45.015625 15.765625 45.015625 23.390625 
Q 45.015625 31 40.078125 35.4375 
Q 35.15625 39.890625 26.703125 39.890625 
Q 22.75 39.890625 18.8125 39.015625 
Q 14.890625 38.140625 10.796875 36.28125 
z
" id="DejaVuSans-53"/>
      </defs>
      <g transform="translate(33.559063 203.157711)scale(0.18 -0.18)">
       <use xlink:href="#DejaVuSans-8722"/>
       <use x="83.789062" xlink:href="#DejaVuSans-51"/>
       <use x="147.412109" xlink:href="#DejaVuSans-53"/>
       <use x="211.035156" xlink:href="#DejaVuSans-48"/>
      </g>
     </g>
    </g>
    <g id="ytick_3">
     <g id="line2d_12">
      <g>
       <use style="stroke:#000000;stroke-width:0.8;" x="90" xlink:href="#m92164da3ab" y="146.355882"/>
      </g>
     </g>
     <g id="text_12">
      <!-- −300 -->
      <g transform="translate(33.559063 153.194476)scale(0.18 -0.18)">
       <use xlink:href="#DejaVuSans-8722"/>
       <use x="83.789062" xlink:href="#DejaVuSans-51"/>
       <use x="147.412109" xlink:href="#DejaVuSans-48"/>
       <use x="211.035156" xlink:href="#DejaVuSans-48"/>
      </g>
     </g>
    </g>
    <g id="ytick_4">
     <g id="line2d_13">
      <g>
       <use style="stroke:#000000;stroke-width:0.8;" x="90" xlink:href="#m92164da3ab" y="96.392647"/>
      </g>
     </g>
     <g id="text_13">
      <!-- −250 -->
      <g transform="translate(33.559063 103.231241)scale(0.18 -0.18)">
       <use xlink:href="#DejaVuSans-8722"/>
       <use x="83.789062" xlink:href="#DejaVuSans-50"/>
       <use x="147.412109" xlink:href="#DejaVuSans-53"/>
       <use x="211.035156" xlink:href="#DejaVuSans-48"/>
      </g>
     </g>
    </g>
   </g>
   <g id="line2d_14">
    <path clip-path="url(#p54a1e13796)" d="M 115.363636 330.76119 
L 118.574223 225.610564 
L 121.78481 175.887152 
L 124.995397 146.456808 
L 128.205984 124.999597 
L 131.416571 106.917902 
L 134.627158 91.999879 
L 137.837745 81.87433 
L 141.048331 76.43833 
L 144.258918 73.880212 
L 147.469505 71.95363 
L 150.680092 70.26887 
L 157.101266 67.382993 
L 160.311853 66.225845 
L 163.52244 65.486389 
L 166.733026 64.962774 
L 169.943613 64.965772 
L 173.1542 67.789694 
L 176.364787 67.646799 
L 179.575374 64.556074 
L 182.785961 62.523569 
L 185.996548 60.83681 
L 189.207135 59.74961 
L 192.417722 58.841279 
L 195.628308 58.088832 
L 202.049482 57.23646 
L 208.470656 56.666879 
L 230.944764 56.818767 
L 237.365938 57.006629 
L 240.576525 57.203484 
L 246.997699 57.44031 
L 253.418872 57.824027 
L 256.629459 58.151786 
L 263.050633 58.094828 
L 269.471807 57.754079 
L 282.314154 57.546232 
L 285.524741 57.611184 
L 291.945915 57.528245 
L 295.156502 57.620177 
L 298.367089 57.510258 
L 301.577675 57.622176 
L 311.209436 57.457297 
L 320.841197 57.635166 
L 340.104718 57.560221 
L 343.315305 57.688127 
L 349.736479 57.639163 
L 356.157652 57.663146 
L 401.105869 57.707113 
L 404.316456 57.64416 
L 407.527043 57.764071 
L 413.948216 57.728098 
L 420.36939 57.731096 
L 426.790564 57.623175 
L 433.211738 57.812036 
L 439.632911 57.755078 
L 529.529344 57.720104 
L 532.739931 57.826026 
L 539.161105 57.67014 
L 545.582278 57.831022 
L 552.003452 57.747084 
L 555.214039 57.856004 
L 571.266974 57.75208 
L 580.898734 57.758076 
L 593.741082 57.742087 
L 622.636364 57.748083 
L 622.636364 57.748083 
" style="fill:none;stroke:#ff0000;stroke-linecap:square;stroke-width:1.5;"/>
   </g>
   <g id="line2d_15">
    <path clip-path="url(#p54a1e13796)" d="M 115.363636 583.880936 
L 118.574223 356.677121 
L 121.78481 262.068737 
L 124.995397 213.047808 
L 128.205984 178.828987 
L 131.416571 150.767636 
L 134.627158 127.857494 
L 137.837745 111.767334 
L 141.048331 102.752967 
L 144.258918 97.759641 
L 147.469505 94.250224 
L 150.680092 91.14251 
L 153.890679 88.545421 
L 157.101266 86.410992 
L 160.311853 84.771199 
L 163.52244 83.656019 
L 166.733026 83.158385 
L 169.943613 83.39621 
L 173.1542 87.521175 
L 176.364787 86.418986 
L 179.575374 81.560561 
L 182.785961 78.283972 
L 185.996548 75.623929 
L 189.207135 73.74831 
L 192.417722 72.160478 
L 195.628308 70.855438 
L 202.049482 69.08674 
L 208.470656 67.915601 
L 218.102417 67.215117 
L 224.52359 67.060231 
L 227.734177 66.944316 
L 237.365938 66.99328 
L 256.629459 68.044507 
L 282.314154 67.095205 
L 285.524741 67.22411 
L 288.735328 67.049239 
L 317.63061 67.046241 
L 320.841197 67.154162 
L 340.104718 67.04724 
L 343.315305 67.192134 
L 349.736479 67.101201 
L 359.368239 67.112193 
L 375.421174 67.17015 
L 378.631761 67.1022 
L 388.263521 67.229107 
L 391.474108 67.122185 
L 397.895282 67.198129 
L 410.737629 67.168151 
L 423.579977 67.146168 
L 426.790564 67.042244 
L 433.211738 67.288063 
L 436.422325 67.154162 
L 442.843498 67.204125 
L 452.475259 67.120187 
L 458.896433 67.172149 
L 465.317606 67.094206 
L 478.159954 67.290062 
L 484.581128 67.146168 
L 497.423475 67.145168 
L 507.055236 67.2381 
L 529.529344 67.142171 
L 532.739931 67.235102 
L 552.003452 67.17015 
L 555.214039 67.277071 
L 600.162255 67.114191 
L 606.583429 67.142171 
L 616.21519 67.153162 
L 622.636364 67.180143 
L 622.636364 67.180143 
" style="fill:none;stroke:#0000ff;stroke-linecap:square;stroke-width:1.5;"/>
   </g>
   <g id="patch_3">
    <path d="M 90 246.282353 
L 90 86.4 
" style="fill:none;stroke:#000000;stroke-linecap:square;stroke-linejoin:miter;stroke-width:0.8;"/>
   </g>
   <g id="patch_4">
    <path d="M 648 246.282353 
L 648 86.4 
" style="fill:none;stroke:#000000;stroke-linecap:square;stroke-linejoin:miter;stroke-width:0.8;"/>
   </g>
   <g id="patch_5">
    <path d="M 90 246.282353 
L 648 246.282353 
" style="fill:none;stroke:#000000;stroke-linecap:square;stroke-linejoin:miter;stroke-width:0.8;"/>
   </g>
   <g id="patch_6">
    <path d="M 90 86.4 
L 648 86.4 
" style="fill:none;stroke:#000000;stroke-linecap:square;stroke-linejoin:miter;stroke-width:0.8;"/>
   </g>
   <g id="legend_1">
    <g id="patch_7">
     <path d="M 575.421875 123.75625 
L 641 123.75625 
Q 643 123.75625 643 121.75625 
L 643 93.4 
Q 643 91.4 641 91.4 
L 575.421875 91.4 
Q 573.421875 91.4 573.421875 93.4 
L 573.421875 121.75625 
Q 573.421875 123.75625 575.421875 123.75625 
z
" style="fill:#ffffff;opacity:0.8;stroke:#cccccc;stroke-linejoin:miter;"/>
    </g>
    <g id="line2d_16">
     <path d="M 577.421875 99.498438 
L 597.421875 99.498438 
" style="fill:none;stroke:#ff0000;stroke-linecap:square;stroke-width:1.5;"/>
    </g>
    <g id="line2d_17"/>
    <g id="text_14">
     <!-- EUBOs -->
     <defs>
      <path d="M 9.8125 72.90625 
L 55.90625 72.90625 
L 55.90625 64.59375 
L 19.671875 64.59375 
L 19.671875 43.015625 
L 54.390625 43.015625 
L 54.390625 34.71875 
L 19.671875 34.71875 
L 19.671875 8.296875 
L 56.78125 8.296875 
L 56.78125 0 
L 9.8125 0 
z
" id="DejaVuSans-69"/>
      <path d="M 8.6875 72.90625 
L 18.609375 72.90625 
L 18.609375 28.609375 
Q 18.609375 16.890625 22.84375 11.734375 
Q 27.09375 6.59375 36.625 6.59375 
Q 46.09375 6.59375 50.34375 11.734375 
Q 54.59375 16.890625 54.59375 28.609375 
L 54.59375 72.90625 
L 64.5 72.90625 
L 64.5 27.390625 
Q 64.5 13.140625 57.4375 5.859375 
Q 50.390625 -1.421875 36.625 -1.421875 
Q 22.796875 -1.421875 15.734375 5.859375 
Q 8.6875 13.140625 8.6875 27.390625 
z
" id="DejaVuSans-85"/>
      <path d="M 19.671875 34.8125 
L 19.671875 8.109375 
L 35.5 8.109375 
Q 43.453125 8.109375 47.28125 11.40625 
Q 51.125 14.703125 51.125 21.484375 
Q 51.125 28.328125 47.28125 31.5625 
Q 43.453125 34.8125 35.5 34.8125 
z
M 19.671875 64.796875 
L 19.671875 42.828125 
L 34.28125 42.828125 
Q 41.5 42.828125 45.03125 45.53125 
Q 48.578125 48.25 48.578125 53.8125 
Q 48.578125 59.328125 45.03125 62.0625 
Q 41.5 64.796875 34.28125 64.796875 
z
M 9.8125 72.90625 
L 35.015625 72.90625 
Q 46.296875 72.90625 52.390625 68.21875 
Q 58.5 63.53125 58.5 54.890625 
Q 58.5 48.1875 55.375 44.234375 
Q 52.25 40.28125 46.1875 39.3125 
Q 53.46875 37.75 57.5 32.78125 
Q 61.53125 27.828125 61.53125 20.40625 
Q 61.53125 10.640625 54.890625 5.3125 
Q 48.25 0 35.984375 0 
L 9.8125 0 
z
" id="DejaVuSans-66"/>
      <path d="M 39.40625 66.21875 
Q 28.65625 66.21875 22.328125 58.203125 
Q 16.015625 50.203125 16.015625 36.375 
Q 16.015625 22.609375 22.328125 14.59375 
Q 28.65625 6.59375 39.40625 6.59375 
Q 50.140625 6.59375 56.421875 14.59375 
Q 62.703125 22.609375 62.703125 36.375 
Q 62.703125 50.203125 56.421875 58.203125 
Q 50.140625 66.21875 39.40625 66.21875 
z
M 39.40625 74.21875 
Q 54.734375 74.21875 63.90625 63.9375 
Q 73.09375 53.65625 73.09375 36.375 
Q 73.09375 19.140625 63.90625 8.859375 
Q 54.734375 -1.421875 39.40625 -1.421875 
Q 24.03125 -1.421875 14.8125 8.828125 
Q 5.609375 19.09375 5.609375 36.375 
Q 5.609375 53.65625 14.8125 63.9375 
Q 24.03125 74.21875 39.40625 74.21875 
z
" id="DejaVuSans-79"/>
      <path d="M 44.28125 53.078125 
L 44.28125 44.578125 
Q 40.484375 46.53125 36.375 47.5 
Q 32.28125 48.484375 27.875 48.484375 
Q 21.1875 48.484375 17.84375 46.4375 
Q 14.5 44.390625 14.5 40.28125 
Q 14.5 37.15625 16.890625 35.375 
Q 19.28125 33.59375 26.515625 31.984375 
L 29.59375 31.296875 
Q 39.15625 29.25 43.1875 25.515625 
Q 47.21875 21.78125 47.21875 15.09375 
Q 47.21875 7.46875 41.1875 3.015625 
Q 35.15625 -1.421875 24.609375 -1.421875 
Q 20.21875 -1.421875 15.453125 -0.5625 
Q 10.6875 0.296875 5.421875 2 
L 5.421875 11.28125 
Q 10.40625 8.6875 15.234375 7.390625 
Q 20.0625 6.109375 24.8125 6.109375 
Q 31.15625 6.109375 34.5625 8.28125 
Q 37.984375 10.453125 37.984375 14.40625 
Q 37.984375 18.0625 35.515625 20.015625 
Q 33.0625 21.96875 24.703125 23.78125 
L 21.578125 24.515625 
Q 13.234375 26.265625 9.515625 29.90625 
Q 5.8125 33.546875 5.8125 39.890625 
Q 5.8125 47.609375 11.28125 51.796875 
Q 16.75 56 26.8125 56 
Q 31.78125 56 36.171875 55.265625 
Q 40.578125 54.546875 44.28125 53.078125 
z
" id="DejaVuSans-115"/>
     </defs>
     <g transform="translate(605.421875 102.998438)scale(0.1 -0.1)">
      <use xlink:href="#DejaVuSans-69"/>
      <use x="63.183594" xlink:href="#DejaVuSans-85"/>
      <use x="136.376953" xlink:href="#DejaVuSans-66"/>
      <use x="204.964844" xlink:href="#DejaVuSans-79"/>
      <use x="283.675781" xlink:href="#DejaVuSans-115"/>
     </g>
    </g>
    <g id="line2d_18">
     <path d="M 577.421875 114.176563 
L 597.421875 114.176563 
" style="fill:none;stroke:#0000ff;stroke-linecap:square;stroke-width:1.5;"/>
    </g>
    <g id="line2d_19"/>
    <g id="text_15">
     <!-- ELBOs -->
     <defs>
      <path d="M 9.8125 72.90625 
L 19.671875 72.90625 
L 19.671875 8.296875 
L 55.171875 8.296875 
L 55.171875 0 
L 9.8125 0 
z
" id="DejaVuSans-76"/>
     </defs>
     <g transform="translate(605.421875 117.676563)scale(0.1 -0.1)">
      <use xlink:href="#DejaVuSans-69"/>
      <use x="63.183594" xlink:href="#DejaVuSans-76"/>
      <use x="118.896484" xlink:href="#DejaVuSans-66"/>
      <use x="187.484375" xlink:href="#DejaVuSans-79"/>
      <use x="266.195312" xlink:href="#DejaVuSans-115"/>
     </g>
    </g>
   </g>
  </g>
  <g id="axes_2">
   <g id="patch_8">
    <path d="M 90 438.141176 
L 648 438.141176 
L 648 278.258824 
L 90 278.258824 
z
" style="fill:#ffffff;"/>
   </g>
   <g id="matplotlib.axis_3">
    <g id="xtick_10">
     <g id="line2d_20">
      <g>
       <use style="stroke:#000000;stroke-width:0.8;" x="115.363636" xlink:href="#mc1ea9b0228" y="438.141176"/>
      </g>
     </g>
     <g id="text_16">
      <!-- 0 -->
      <g transform="translate(109.637386 458.818364)scale(0.18 -0.18)">
       <use xlink:href="#DejaVuSans-48"/>
      </g>
     </g>
    </g>
    <g id="xtick_11">
     <g id="line2d_21">
      <g>
       <use style="stroke:#000000;stroke-width:0.8;" x="179.575374" xlink:href="#mc1ea9b0228" y="438.141176"/>
      </g>
     </g>
     <g id="text_17">
      <!-- 20 -->
      <g transform="translate(168.122874 458.818364)scale(0.18 -0.18)">
       <use xlink:href="#DejaVuSans-50"/>
       <use x="63.623047" xlink:href="#DejaVuSans-48"/>
      </g>
     </g>
    </g>
    <g id="xtick_12">
     <g id="line2d_22">
      <g>
       <use style="stroke:#000000;stroke-width:0.8;" x="243.787112" xlink:href="#mc1ea9b0228" y="438.141176"/>
      </g>
     </g>
     <g id="text_18">
      <!-- 40 -->
      <g transform="translate(232.334612 458.818364)scale(0.18 -0.18)">
       <use xlink:href="#DejaVuSans-52"/>
       <use x="63.623047" xlink:href="#DejaVuSans-48"/>
      </g>
     </g>
    </g>
    <g id="xtick_13">
     <g id="line2d_23">
      <g>
       <use style="stroke:#000000;stroke-width:0.8;" x="307.998849" xlink:href="#mc1ea9b0228" y="438.141176"/>
      </g>
     </g>
     <g id="text_19">
      <!-- 60 -->
      <g transform="translate(296.546349 458.818364)scale(0.18 -0.18)">
       <use xlink:href="#DejaVuSans-54"/>
       <use x="63.623047" xlink:href="#DejaVuSans-48"/>
      </g>
     </g>
    </g>
    <g id="xtick_14">
     <g id="line2d_24">
      <g>
       <use style="stroke:#000000;stroke-width:0.8;" x="372.210587" xlink:href="#mc1ea9b0228" y="438.141176"/>
      </g>
     </g>
     <g id="text_20">
      <!-- 80 -->
      <g transform="translate(360.758087 458.818364)scale(0.18 -0.18)">
       <use xlink:href="#DejaVuSans-56"/>
       <use x="63.623047" xlink:href="#DejaVuSans-48"/>
      </g>
     </g>
    </g>
    <g id="xtick_15">
     <g id="line2d_25">
      <g>
       <use style="stroke:#000000;stroke-width:0.8;" x="436.422325" xlink:href="#mc1ea9b0228" y="438.141176"/>
      </g>
     </g>
     <g id="text_21">
      <!-- 100 -->
      <g transform="translate(419.243575 458.818364)scale(0.18 -0.18)">
       <use xlink:href="#DejaVuSans-49"/>
       <use x="63.623047" xlink:href="#DejaVuSans-48"/>
       <use x="127.246094" xlink:href="#DejaVuSans-48"/>
      </g>
     </g>
    </g>
    <g id="xtick_16">
     <g id="line2d_26">
      <g>
       <use style="stroke:#000000;stroke-width:0.8;" x="500.634062" xlink:href="#mc1ea9b0228" y="438.141176"/>
      </g>
     </g>
     <g id="text_22">
      <!-- 120 -->
      <g transform="translate(483.455312 458.818364)scale(0.18 -0.18)">
       <use xlink:href="#DejaVuSans-49"/>
       <use x="63.623047" xlink:href="#DejaVuSans-50"/>
       <use x="127.246094" xlink:href="#DejaVuSans-48"/>
      </g>
     </g>
    </g>
    <g id="xtick_17">
     <g id="line2d_27">
      <g>
       <use style="stroke:#000000;stroke-width:0.8;" x="564.8458" xlink:href="#mc1ea9b0228" y="438.141176"/>
      </g>
     </g>
     <g id="text_23">
      <!-- 140 -->
      <g transform="translate(547.66705 458.818364)scale(0.18 -0.18)">
       <use xlink:href="#DejaVuSans-49"/>
       <use x="63.623047" xlink:href="#DejaVuSans-52"/>
       <use x="127.246094" xlink:href="#DejaVuSans-48"/>
      </g>
     </g>
    </g>
    <g id="xtick_18">
     <g id="line2d_28">
      <g>
       <use style="stroke:#000000;stroke-width:0.8;" x="629.057537" xlink:href="#mc1ea9b0228" y="438.141176"/>
      </g>
     </g>
     <g id="text_24">
      <!-- 160 -->
      <g transform="translate(611.878787 458.818364)scale(0.18 -0.18)">
       <use xlink:href="#DejaVuSans-49"/>
       <use x="63.623047" xlink:href="#DejaVuSans-54"/>
       <use x="127.246094" xlink:href="#DejaVuSans-48"/>
      </g>
     </g>
    </g>
   </g>
   <g id="matplotlib.axis_4">
    <g id="ytick_5">
     <g id="line2d_29">
      <g>
       <use style="stroke:#000000;stroke-width:0.8;" x="90" xlink:href="#m92164da3ab" y="438.141176"/>
      </g>
     </g>
     <g id="text_25">
      <!-- 0 -->
      <g transform="translate(71.5475 444.97977)scale(0.18 -0.18)">
       <use xlink:href="#DejaVuSans-48"/>
      </g>
     </g>
    </g>
    <g id="ytick_6">
     <g id="line2d_30">
      <g>
       <use style="stroke:#000000;stroke-width:0.8;" x="90" xlink:href="#m92164da3ab" y="398.170588"/>
      </g>
     </g>
     <g id="text_26">
      <!-- 5 -->
      <g transform="translate(71.5475 405.009182)scale(0.18 -0.18)">
       <use xlink:href="#DejaVuSans-53"/>
      </g>
     </g>
    </g>
    <g id="ytick_7">
     <g id="line2d_31">
      <g>
       <use style="stroke:#000000;stroke-width:0.8;" x="90" xlink:href="#m92164da3ab" y="358.2"/>
      </g>
     </g>
     <g id="text_27">
      <!-- 10 -->
      <g transform="translate(60.095 365.038594)scale(0.18 -0.18)">
       <use xlink:href="#DejaVuSans-49"/>
       <use x="63.623047" xlink:href="#DejaVuSans-48"/>
      </g>
     </g>
    </g>
    <g id="ytick_8">
     <g id="line2d_32">
      <g>
       <use style="stroke:#000000;stroke-width:0.8;" x="90" xlink:href="#m92164da3ab" y="318.229412"/>
      </g>
     </g>
     <g id="text_28">
      <!-- 15 -->
      <g transform="translate(60.095 325.068006)scale(0.18 -0.18)">
       <use xlink:href="#DejaVuSans-49"/>
       <use x="63.623047" xlink:href="#DejaVuSans-53"/>
      </g>
     </g>
    </g>
    <g id="ytick_9">
     <g id="line2d_33">
      <g>
       <use style="stroke:#000000;stroke-width:0.8;" x="90" xlink:href="#m92164da3ab" y="278.258824"/>
      </g>
     </g>
     <g id="text_29">
      <!-- 20 -->
      <g transform="translate(60.095 285.097417)scale(0.18 -0.18)">
       <use xlink:href="#DejaVuSans-50"/>
       <use x="63.623047" xlink:href="#DejaVuSans-48"/>
      </g>
     </g>
    </g>
   </g>
   <g id="line2d_34">
    <path clip-path="url(#pb0c02ece72)" d="M 130.384419 -1 
L 131.416571 42.224506 
L 134.627158 135.627776 
L 137.837745 204.625006 
L 141.048331 243.012759 
L 144.258918 262.830176 
L 147.469505 278.586582 
L 150.680092 296.005765 
L 153.890679 311.418424 
L 157.101266 321.970659 
L 160.311853 330.252565 
L 163.52244 337.375324 
L 166.733026 337.815 
L 169.943613 337.1355 
L 173.1542 319.812247 
L 176.364787 310.443141 
L 179.575374 330.532359 
L 182.785961 349.2306 
L 185.996548 363.683965 
L 189.207135 373.220947 
L 192.417722 381.534829 
L 195.628308 387.946112 
L 198.838895 393.3981 
L 202.049482 398.546312 
L 205.260069 402.575347 
L 211.681243 408.155241 
L 214.89183 409.937929 
L 218.102417 411.8805 
L 221.313003 412.871771 
L 224.52359 413.567259 
L 227.734177 414.542541 
L 230.944764 414.918265 
L 234.155351 415.725671 
L 237.365938 415.885553 
L 243.787112 415.861571 
L 246.997699 416.117382 
L 250.208285 415.909535 
L 256.629459 415.781629 
L 259.840046 416.221306 
L 263.050633 416.157353 
L 266.26122 416.668976 
L 269.471807 417.364465 
L 275.89298 417.476382 
L 282.314154 418.027976 
L 285.524741 417.828124 
L 288.735328 417.868094 
L 298.367089 418.235824 
L 301.577675 418.091929 
L 304.788262 417.764171 
L 307.998849 418.355735 
L 311.209436 418.259806 
L 314.420023 418.443671 
L 317.63061 418.2678 
L 320.841197 417.972018 
L 330.472957 418.635529 
L 333.683544 418.427682 
L 336.894131 418.099924 
L 340.104718 418.355735 
L 343.315305 418.139894 
L 346.525892 418.371724 
L 356.157652 418.5396 
L 359.368239 418.427682 
L 362.578826 418.659512 
L 365.789413 418.211841 
L 369 418.611547 
L 372.210587 418.571576 
L 375.421174 418.715471 
L 378.631761 418.515618 
L 381.842348 418.691488 
L 385.052934 418.523612 
L 388.263521 418.5396 
L 391.474108 418.875353 
L 394.684695 418.531606 
L 401.105869 418.603553 
L 404.316456 418.179865 
L 407.527043 418.547594 
L 410.737629 418.451665 
L 413.948216 418.827388 
L 417.158803 418.771429 
L 426.790564 419.027241 
L 433.211738 418.731459 
L 439.632911 418.907329 
L 442.843498 418.763435 
L 446.054085 418.883347 
L 449.264672 418.827388 
L 452.475259 419.027241 
L 455.685846 418.787418 
L 462.10702 419.203112 
L 465.317606 419.051224 
L 468.528193 419.131165 
L 471.73878 418.971282 
L 474.949367 418.659512 
L 478.159954 418.611547 
L 481.370541 418.835382 
L 484.581128 419.315029 
L 491.002301 419.011253 
L 494.212888 419.203112 
L 503.844649 419.211106 
L 507.055236 419.059218 
L 510.265823 418.659512 
L 513.47641 419.163141 
L 516.686997 419.019247 
L 523.10817 419.155147 
L 526.318757 419.051224 
L 539.161105 419.211106 
L 542.371692 418.955294 
L 545.582278 418.835382 
L 552.003452 418.891341 
L 555.214039 419.059218 
L 561.635213 418.763435 
L 568.056387 419.195118 
L 571.266974 419.323024 
L 574.47756 418.9473 
L 577.688147 419.339012 
L 580.898734 419.139159 
L 584.109321 419.323024 
L 587.319908 419.115176 
L 590.530495 419.131165 
L 593.741082 419.370988 
L 600.162255 418.963288 
L 603.372842 419.251076 
L 609.794016 419.283053 
L 613.004603 419.442935 
L 616.21519 418.819394 
L 619.425777 419.323024 
L 622.636364 419.155147 
L 622.636364 419.155147 
" style="fill:none;stroke:#bfbf00;stroke-linecap:square;stroke-width:1.5;"/>
   </g>
   <g id="line2d_35">
    <path clip-path="url(#pb0c02ece72)" d="M 126.276955 -1 
L 128.205984 28.034947 
L 131.416571 45.350206 
L 134.627158 81.875329 
L 137.837745 131.942488 
L 141.048331 173.080218 
L 144.258918 194.808229 
L 147.469505 209.597347 
L 150.680092 220.549288 
L 153.890679 229.222906 
L 157.101266 237.312953 
L 160.311853 244.899371 
L 163.52244 254.132576 
L 166.733026 251.166759 
L 169.943613 244.7235 
L 173.1542 171.081688 
L 176.364787 143.246171 
L 179.575374 214.745559 
L 182.785961 264.069265 
L 185.996548 303.120529 
L 189.207135 328.302 
L 192.417722 349.470424 
L 195.628308 363.723935 
L 198.838895 376.058859 
L 202.049482 386.299324 
L 205.260069 394.445329 
L 208.470656 400.209088 
L 211.681243 404.821694 
L 214.89183 408.251171 
L 221.313003 412.743865 
L 224.52359 413.527288 
L 227.734177 414.766376 
L 230.944764 415.677706 
L 234.155351 416.293253 
L 240.576525 416.916794 
L 243.787112 416.700953 
L 246.997699 417.164612 
L 253.418872 416.820865 
L 256.629459 416.605024 
L 259.840046 417.004729 
L 263.050633 417.0447 
L 266.26122 417.932047 
L 269.471807 418.339747 
L 279.103567 418.6755 
L 282.314154 418.819394 
L 288.735328 418.747447 
L 291.945915 419.107182 
L 295.156502 418.859365 
L 298.367089 419.035235 
L 307.998849 419.067212 
L 311.209436 419.251076 
L 314.420023 419.131165 
L 317.63061 419.227094 
L 320.841197 418.715471 
L 324.051784 419.147153 
L 327.262371 419.355 
L 330.472957 419.426947 
L 336.894131 419.243082 
L 340.104718 419.027241 
L 343.315305 419.147153 
L 349.736479 419.043229 
L 352.947066 419.498894 
L 356.157652 419.362994 
L 359.368239 419.466918 
L 369 419.315029 
L 372.210587 418.971282 
L 375.421174 419.339012 
L 378.631761 419.0832 
L 381.842348 419.482906 
L 385.052934 418.939306 
L 388.263521 418.963288 
L 391.474108 419.642788 
L 394.684695 419.235088 
L 397.895282 419.570841 
L 404.316456 419.003259 
L 407.527043 419.474912 
L 410.737629 419.211106 
L 417.158803 419.315029 
L 420.36939 419.362994 
L 423.579977 419.291047 
L 426.790564 419.466918 
L 433.211738 419.259071 
L 442.843498 419.211106 
L 446.054085 419.410959 
L 449.264672 419.259071 
L 452.475259 419.570841 
L 458.896433 419.522876 
L 462.10702 419.802671 
L 465.317606 419.259071 
L 468.528193 419.578835 
L 471.73878 419.323024 
L 474.949367 419.458924 
L 478.159954 419.442935 
L 481.370541 418.891341 
L 484.581128 419.730724 
L 487.791715 419.562847 
L 491.002301 419.514882 
L 494.212888 419.602818 
L 497.423475 419.299041 
L 500.634062 419.634794 
L 503.844649 419.482906 
L 507.055236 419.530871 
L 510.265823 419.235088 
L 513.47641 419.498894 
L 516.686997 419.331018 
L 519.897583 419.602818 
L 523.10817 419.466918 
L 529.529344 419.482906 
L 532.739931 419.738718 
L 535.950518 419.251076 
L 539.161105 419.482906 
L 542.371692 419.267065 
L 545.582278 419.251076 
L 548.792865 419.043229 
L 555.214039 419.530871 
L 564.8458 419.331018 
L 568.056387 419.586829 
L 571.266974 419.682759 
L 574.47756 419.2191 
L 577.688147 419.770694 
L 580.898734 419.618806 
L 584.109321 419.227094 
L 587.319908 419.283053 
L 590.530495 419.610812 
L 596.951669 419.610812 
L 606.583429 419.714735 
L 609.794016 419.530871 
L 613.004603 419.642788 
L 616.21519 419.474912 
L 619.425777 419.610812 
L 622.636364 419.554853 
L 622.636364 419.554853 
" style="fill:none;stroke:#000000;stroke-linecap:square;stroke-width:1.5;"/>
   </g>
   <g id="line2d_36">
    <path clip-path="url(#pb0c02ece72)" d="M 121.814521 -1 
L 124.995397 129.056612 
L 128.205984 197.1585 
L 131.416571 241.357976 
L 134.627158 274.021941 
L 137.837745 304.439559 
L 141.048331 322.314406 
L 144.258918 335.672576 
L 147.469505 347.487882 
L 150.680092 357.992153 
L 153.890679 367.153412 
L 157.101266 373.868471 
L 160.311853 379.240518 
L 163.52244 382.997753 
L 166.733026 384.620559 
L 169.943613 384.916341 
L 173.1542 383.165629 
L 176.364787 390.520218 
L 179.575374 396.044153 
L 182.785961 399.217818 
L 185.996548 402.015759 
L 192.417722 406.356565 
L 195.628308 408.027335 
L 198.838895 409.514241 
L 205.260069 411.904482 
L 211.681243 413.559265 
L 214.89183 413.839059 
L 218.102417 414.694429 
L 221.313003 415.158088 
L 224.52359 415.174076 
L 227.734177 415.853576 
L 230.944764 415.933518 
L 234.155351 416.349212 
L 237.365938 416.597029 
L 240.576525 416.413165 
L 243.787112 416.541071 
L 246.997699 416.309241 
L 250.208285 416.253282 
L 253.418872 416.357206 
L 256.629459 416.213312 
L 259.840046 416.828859 
L 263.050633 416.884818 
L 269.471807 417.796147 
L 272.682394 417.756176 
L 282.314154 418.363729 
L 288.735328 418.347741 
L 295.156502 418.563582 
L 298.367089 418.635529 
L 304.788262 418.411694 
L 307.998849 418.819394 
L 311.209436 418.715471 
L 317.63061 418.971282 
L 320.841197 418.779424 
L 324.051784 418.707476 
L 327.262371 418.9473 
L 330.472957 419.027241 
L 336.894131 418.827388 
L 340.104718 418.939306 
L 343.315305 418.795412 
L 346.525892 418.8114 
L 349.736479 419.091194 
L 352.947066 418.987271 
L 362.578826 419.051224 
L 365.789413 418.787418 
L 372.210587 419.027241 
L 378.631761 419.0832 
L 388.263521 418.907329 
L 391.474108 419.275059 
L 394.684695 419.115176 
L 397.895282 419.0832 
L 401.105869 419.275059 
L 404.316456 418.987271 
L 407.527043 419.115176 
L 410.737629 419.107182 
L 413.948216 419.227094 
L 417.158803 419.123171 
L 420.36939 419.235088 
L 423.579977 419.235088 
L 426.790564 419.378982 
L 430.001151 419.243082 
L 433.211738 418.995265 
L 436.422325 419.299041 
L 439.632911 419.355 
L 442.843498 419.131165 
L 449.264672 419.163141 
L 452.475259 419.378982 
L 455.685846 419.251076 
L 462.10702 419.546859 
L 468.528193 419.458924 
L 471.73878 419.378982 
L 474.949367 419.0832 
L 478.159954 419.211106 
L 481.370541 419.195118 
L 484.581128 419.618806 
L 487.791715 419.442935 
L 494.212888 419.418953 
L 497.423475 419.514882 
L 510.265823 419.283053 
L 513.47641 419.570841 
L 516.686997 419.426947 
L 519.897583 419.522876 
L 529.529344 419.458924 
L 532.739931 419.570841 
L 542.371692 419.418953 
L 545.582278 419.171135 
L 548.792865 419.2191 
L 552.003452 419.458924 
L 561.635213 419.418953 
L 571.266974 419.522876 
L 574.47756 419.370988 
L 577.688147 419.6268 
L 580.898734 419.482906 
L 584.109321 419.642788 
L 590.530495 419.466918 
L 593.741082 419.6268 
L 596.951669 419.498894 
L 600.162255 419.578835 
L 603.372842 419.538865 
L 609.794016 419.794676 
L 613.004603 419.634794 
L 616.21519 419.299041 
L 619.425777 419.594824 
L 622.636364 419.698747 
L 622.636364 419.698747 
" style="fill:none;stroke:#ff0000;stroke-linecap:square;stroke-width:1.5;"/>
   </g>
   <g id="line2d_37">
    <path clip-path="url(#pb0c02ece72)" d="M 115.363636 156.756229 
L 118.574223 247.0338 
L 121.78481 300.466482 
L 124.995397 330.420441 
L 128.205984 350.9973 
L 131.416571 369.623594 
L 134.627158 384.164894 
L 137.837745 392.734588 
L 141.048331 396.907518 
L 150.680092 404.158182 
L 153.890679 405.908894 
L 157.101266 407.811494 
L 160.311853 409.170494 
L 163.52244 410.673388 
L 166.733026 411.680647 
L 169.943613 411.616694 
L 173.1542 407.947394 
L 176.364787 410.721353 
L 179.575374 414.230771 
L 182.785961 416.293253 
L 185.996548 417.748182 
L 189.207135 418.635529 
L 192.417722 419.235088 
L 198.838895 419.938571 
L 202.049482 420.018512 
L 205.260069 420.298306 
L 208.470656 420.314294 
L 211.681243 420.538129 
L 218.102417 420.514147 
L 221.313003 420.690018 
L 224.52359 420.530135 
L 227.734177 420.602082 
L 234.155351 420.298306 
L 237.365938 420.458188 
L 246.997699 419.914588 
L 250.208285 419.642788 
L 263.050633 419.378982 
L 269.471807 419.714735 
L 275.89298 419.402965 
L 279.103567 419.570841 
L 282.314154 419.426947 
L 285.524741 419.538865 
L 288.735328 419.331018 
L 291.945915 419.474912 
L 295.156502 419.331018 
L 298.367089 419.466918 
L 301.577675 419.211106 
L 304.788262 419.227094 
L 307.998849 419.355 
L 311.209436 419.323024 
L 314.420023 419.131165 
L 317.63061 419.235088 
L 327.262371 419.011253 
L 330.472957 419.115176 
L 333.683544 418.923318 
L 340.104718 418.979276 
L 346.525892 418.723465 
L 349.736479 419.075206 
L 352.947066 419.051224 
L 356.157652 418.891341 
L 359.368239 419.091194 
L 369 418.739453 
L 372.210587 418.819394 
L 375.421174 418.619541 
L 378.631761 418.755441 
L 385.052934 418.611547 
L 388.263521 418.395706 
L 391.474108 418.915324 
L 394.684695 418.635529 
L 397.895282 418.739453 
L 401.105869 418.619541 
L 407.527043 418.771429 
L 410.737629 418.5396 
L 417.158803 418.395706 
L 426.790564 418.571576 
L 433.211738 418.355735 
L 436.422325 418.299776 
L 439.632911 418.355735 
L 442.843498 418.195853 
L 446.054085 418.419688 
L 449.264672 418.195853 
L 452.475259 418.587565 
L 458.896433 418.5396 
L 462.10702 418.683494 
L 465.317606 418.371724 
L 471.73878 418.139894 
L 474.949367 418.275794 
L 481.370541 418.123906 
L 484.581128 418.459659 
L 487.791715 418.307771 
L 491.002301 418.395706 
L 494.212888 418.163876 
L 507.055236 418.347741 
L 510.265823 418.115912 
L 513.47641 418.2678 
L 516.686997 418.091929 
L 519.897583 418.251812 
L 526.318757 418.171871 
L 529.529344 418.059953 
L 532.739931 418.227829 
L 535.950518 418.179865 
L 539.161105 418.275794 
L 542.371692 417.996 
L 548.792865 417.908065 
L 552.003452 418.035971 
L 555.214039 417.932047 
L 558.424626 418.027976 
L 564.8458 417.884082 
L 568.056387 418.179865 
L 574.47756 417.924053 
L 577.688147 418.187859 
L 580.898734 418.043965 
L 584.109321 418.107918 
L 587.319908 417.924053 
L 593.741082 418.019982 
L 596.951669 417.900071 
L 600.162255 418.171871 
L 603.372842 418.019982 
L 606.583429 418.147888 
L 613.004603 418.027976 
L 616.21519 417.868094 
L 622.636364 418.043965 
L 622.636364 418.043965 
" style="fill:none;stroke:#0000ff;stroke-linecap:square;stroke-width:1.5;"/>
   </g>
   <g id="patch_9">
    <path d="M 90 438.141176 
L 90 278.258824 
" style="fill:none;stroke:#000000;stroke-linecap:square;stroke-linejoin:miter;stroke-width:0.8;"/>
   </g>
   <g id="patch_10">
    <path d="M 648 438.141176 
L 648 278.258824 
" style="fill:none;stroke:#000000;stroke-linecap:square;stroke-linejoin:miter;stroke-width:0.8;"/>
   </g>
   <g id="patch_11">
    <path d="M 90 438.141176 
L 648 438.141176 
" style="fill:none;stroke:#000000;stroke-linecap:square;stroke-linejoin:miter;stroke-width:0.8;"/>
   </g>
   <g id="patch_12">
    <path d="M 90 278.258824 
L 648 278.258824 
" style="fill:none;stroke:#000000;stroke-linecap:square;stroke-linejoin:miter;stroke-width:0.8;"/>
   </g>
   <g id="legend_2">
    <g id="patch_13">
     <path d="M 527.570312 344.971324 
L 641 344.971324 
Q 643 344.971324 643 342.971324 
L 643 285.258824 
Q 643 283.258824 641 283.258824 
L 527.570312 283.258824 
Q 525.570312 283.258824 525.570312 285.258824 
L 525.570312 342.971324 
Q 525.570312 344.971324 527.570312 344.971324 
z
" style="fill:#ffffff;opacity:0.8;stroke:#cccccc;stroke-linejoin:miter;"/>
    </g>
    <g id="line2d_38">
     <path d="M 529.570312 291.357261 
L 549.570312 291.357261 
" style="fill:none;stroke:#bfbf00;stroke-linecap:square;stroke-width:1.5;"/>
    </g>
    <g id="line2d_39"/>
    <g id="text_30">
     <!-- exclusive KL eta -->
     <defs>
      <path d="M 56.203125 29.59375 
L 56.203125 25.203125 
L 14.890625 25.203125 
Q 15.484375 15.921875 20.484375 11.0625 
Q 25.484375 6.203125 34.421875 6.203125 
Q 39.59375 6.203125 44.453125 7.46875 
Q 49.3125 8.734375 54.109375 11.28125 
L 54.109375 2.78125 
Q 49.265625 0.734375 44.1875 -0.34375 
Q 39.109375 -1.421875 33.890625 -1.421875 
Q 20.796875 -1.421875 13.15625 6.1875 
Q 5.515625 13.8125 5.515625 26.8125 
Q 5.515625 40.234375 12.765625 48.109375 
Q 20.015625 56 32.328125 56 
Q 43.359375 56 49.78125 48.890625 
Q 56.203125 41.796875 56.203125 29.59375 
z
M 47.21875 32.234375 
Q 47.125 39.59375 43.09375 43.984375 
Q 39.0625 48.390625 32.421875 48.390625 
Q 24.90625 48.390625 20.390625 44.140625 
Q 15.875 39.890625 15.1875 32.171875 
z
" id="DejaVuSans-101"/>
      <path d="M 54.890625 54.6875 
L 35.109375 28.078125 
L 55.90625 0 
L 45.3125 0 
L 29.390625 21.484375 
L 13.484375 0 
L 2.875 0 
L 24.125 28.609375 
L 4.6875 54.6875 
L 15.28125 54.6875 
L 29.78125 35.203125 
L 44.28125 54.6875 
z
" id="DejaVuSans-120"/>
      <path d="M 48.78125 52.59375 
L 48.78125 44.1875 
Q 44.96875 46.296875 41.140625 47.34375 
Q 37.3125 48.390625 33.40625 48.390625 
Q 24.65625 48.390625 19.8125 42.84375 
Q 14.984375 37.3125 14.984375 27.296875 
Q 14.984375 17.28125 19.8125 11.734375 
Q 24.65625 6.203125 33.40625 6.203125 
Q 37.3125 6.203125 41.140625 7.25 
Q 44.96875 8.296875 48.78125 10.40625 
L 48.78125 2.09375 
Q 45.015625 0.34375 40.984375 -0.53125 
Q 36.96875 -1.421875 32.421875 -1.421875 
Q 20.0625 -1.421875 12.78125 6.34375 
Q 5.515625 14.109375 5.515625 27.296875 
Q 5.515625 40.671875 12.859375 48.328125 
Q 20.21875 56 33.015625 56 
Q 37.15625 56 41.109375 55.140625 
Q 45.0625 54.296875 48.78125 52.59375 
z
" id="DejaVuSans-99"/>
      <path d="M 9.421875 75.984375 
L 18.40625 75.984375 
L 18.40625 0 
L 9.421875 0 
z
" id="DejaVuSans-108"/>
      <path d="M 8.5 21.578125 
L 8.5 54.6875 
L 17.484375 54.6875 
L 17.484375 21.921875 
Q 17.484375 14.15625 20.5 10.265625 
Q 23.53125 6.390625 29.59375 6.390625 
Q 36.859375 6.390625 41.078125 11.03125 
Q 45.3125 15.671875 45.3125 23.6875 
L 45.3125 54.6875 
L 54.296875 54.6875 
L 54.296875 0 
L 45.3125 0 
L 45.3125 8.40625 
Q 42.046875 3.421875 37.71875 1 
Q 33.40625 -1.421875 27.6875 -1.421875 
Q 18.265625 -1.421875 13.375 4.4375 
Q 8.5 10.296875 8.5 21.578125 
z
M 31.109375 56 
z
" id="DejaVuSans-117"/>
      <path d="M 9.421875 54.6875 
L 18.40625 54.6875 
L 18.40625 0 
L 9.421875 0 
z
M 9.421875 75.984375 
L 18.40625 75.984375 
L 18.40625 64.59375 
L 9.421875 64.59375 
z
" id="DejaVuSans-105"/>
      <path d="M 2.984375 54.6875 
L 12.5 54.6875 
L 29.59375 8.796875 
L 46.6875 54.6875 
L 56.203125 54.6875 
L 35.6875 0 
L 23.484375 0 
z
" id="DejaVuSans-118"/>
      <path id="DejaVuSans-32"/>
      <path d="M 9.8125 72.90625 
L 19.671875 72.90625 
L 19.671875 42.09375 
L 52.390625 72.90625 
L 65.09375 72.90625 
L 28.90625 38.921875 
L 67.671875 0 
L 54.6875 0 
L 19.671875 35.109375 
L 19.671875 0 
L 9.8125 0 
z
" id="DejaVuSans-75"/>
      <path d="M 18.3125 70.21875 
L 18.3125 54.6875 
L 36.8125 54.6875 
L 36.8125 47.703125 
L 18.3125 47.703125 
L 18.3125 18.015625 
Q 18.3125 11.328125 20.140625 9.421875 
Q 21.96875 7.515625 27.59375 7.515625 
L 36.8125 7.515625 
L 36.8125 0 
L 27.59375 0 
Q 17.1875 0 13.234375 3.875 
Q 9.28125 7.765625 9.28125 18.015625 
L 9.28125 47.703125 
L 2.6875 47.703125 
L 2.6875 54.6875 
L 9.28125 54.6875 
L 9.28125 70.21875 
z
" id="DejaVuSans-116"/>
      <path d="M 34.28125 27.484375 
Q 23.390625 27.484375 19.1875 25 
Q 14.984375 22.515625 14.984375 16.5 
Q 14.984375 11.71875 18.140625 8.90625 
Q 21.296875 6.109375 26.703125 6.109375 
Q 34.1875 6.109375 38.703125 11.40625 
Q 43.21875 16.703125 43.21875 25.484375 
L 43.21875 27.484375 
z
M 52.203125 31.203125 
L 52.203125 0 
L 43.21875 0 
L 43.21875 8.296875 
Q 40.140625 3.328125 35.546875 0.953125 
Q 30.953125 -1.421875 24.3125 -1.421875 
Q 15.921875 -1.421875 10.953125 3.296875 
Q 6 8.015625 6 15.921875 
Q 6 25.140625 12.171875 29.828125 
Q 18.359375 34.515625 30.609375 34.515625 
L 43.21875 34.515625 
L 43.21875 35.40625 
Q 43.21875 41.609375 39.140625 45 
Q 35.0625 48.390625 27.6875 48.390625 
Q 23 48.390625 18.546875 47.265625 
Q 14.109375 46.140625 10.015625 43.890625 
L 10.015625 52.203125 
Q 14.9375 54.109375 19.578125 55.046875 
Q 24.21875 56 28.609375 56 
Q 40.484375 56 46.34375 49.84375 
Q 52.203125 43.703125 52.203125 31.203125 
z
" id="DejaVuSans-97"/>
     </defs>
     <g transform="translate(557.570312 294.857261)scale(0.1 -0.1)">
      <use xlink:href="#DejaVuSans-101"/>
      <use x="61.507812" xlink:href="#DejaVuSans-120"/>
      <use x="120.671875" xlink:href="#DejaVuSans-99"/>
      <use x="175.652344" xlink:href="#DejaVuSans-108"/>
      <use x="203.435547" xlink:href="#DejaVuSans-117"/>
      <use x="266.814453" xlink:href="#DejaVuSans-115"/>
      <use x="318.914062" xlink:href="#DejaVuSans-105"/>
      <use x="346.697266" xlink:href="#DejaVuSans-118"/>
      <use x="405.876953" xlink:href="#DejaVuSans-101"/>
      <use x="467.400391" xlink:href="#DejaVuSans-32"/>
      <use x="499.1875" xlink:href="#DejaVuSans-75"/>
      <use x="564.763672" xlink:href="#DejaVuSans-76"/>
      <use x="620.476562" xlink:href="#DejaVuSans-32"/>
      <use x="652.263672" xlink:href="#DejaVuSans-101"/>
      <use x="713.787109" xlink:href="#DejaVuSans-116"/>
      <use x="752.996094" xlink:href="#DejaVuSans-97"/>
     </g>
    </g>
    <g id="line2d_40">
     <path d="M 529.570312 306.035386 
L 549.570312 306.035386 
" style="fill:none;stroke:#000000;stroke-linecap:square;stroke-width:1.5;"/>
    </g>
    <g id="line2d_41"/>
    <g id="text_31">
     <!-- inclusive KL eta -->
     <defs>
      <path d="M 54.890625 33.015625 
L 54.890625 0 
L 45.90625 0 
L 45.90625 32.71875 
Q 45.90625 40.484375 42.875 44.328125 
Q 39.84375 48.1875 33.796875 48.1875 
Q 26.515625 48.1875 22.3125 43.546875 
Q 18.109375 38.921875 18.109375 30.90625 
L 18.109375 0 
L 9.078125 0 
L 9.078125 54.6875 
L 18.109375 54.6875 
L 18.109375 46.1875 
Q 21.34375 51.125 25.703125 53.5625 
Q 30.078125 56 35.796875 56 
Q 45.21875 56 50.046875 50.171875 
Q 54.890625 44.34375 54.890625 33.015625 
z
" id="DejaVuSans-110"/>
     </defs>
     <g transform="translate(557.570312 309.535386)scale(0.1 -0.1)">
      <use xlink:href="#DejaVuSans-105"/>
      <use x="27.783203" xlink:href="#DejaVuSans-110"/>
      <use x="91.162109" xlink:href="#DejaVuSans-99"/>
      <use x="146.142578" xlink:href="#DejaVuSans-108"/>
      <use x="173.925781" xlink:href="#DejaVuSans-117"/>
      <use x="237.304688" xlink:href="#DejaVuSans-115"/>
      <use x="289.404297" xlink:href="#DejaVuSans-105"/>
      <use x="317.1875" xlink:href="#DejaVuSans-118"/>
      <use x="376.367188" xlink:href="#DejaVuSans-101"/>
      <use x="437.890625" xlink:href="#DejaVuSans-32"/>
      <use x="469.677734" xlink:href="#DejaVuSans-75"/>
      <use x="535.253906" xlink:href="#DejaVuSans-76"/>
      <use x="590.966797" xlink:href="#DejaVuSans-32"/>
      <use x="622.753906" xlink:href="#DejaVuSans-101"/>
      <use x="684.277344" xlink:href="#DejaVuSans-116"/>
      <use x="723.486328" xlink:href="#DejaVuSans-97"/>
     </g>
    </g>
    <g id="line2d_42">
     <path d="M 529.570312 320.713511 
L 549.570312 320.713511 
" style="fill:none;stroke:#ff0000;stroke-linecap:square;stroke-width:1.5;"/>
    </g>
    <g id="line2d_43"/>
    <g id="text_32">
     <!-- exclusive KL z -->
     <defs>
      <path d="M 5.515625 54.6875 
L 48.1875 54.6875 
L 48.1875 46.484375 
L 14.40625 7.171875 
L 48.1875 7.171875 
L 48.1875 0 
L 4.296875 0 
L 4.296875 8.203125 
L 38.09375 47.515625 
L 5.515625 47.515625 
z
" id="DejaVuSans-122"/>
     </defs>
     <g transform="translate(557.570312 324.213511)scale(0.1 -0.1)">
      <use xlink:href="#DejaVuSans-101"/>
      <use x="61.507812" xlink:href="#DejaVuSans-120"/>
      <use x="120.671875" xlink:href="#DejaVuSans-99"/>
      <use x="175.652344" xlink:href="#DejaVuSans-108"/>
      <use x="203.435547" xlink:href="#DejaVuSans-117"/>
      <use x="266.814453" xlink:href="#DejaVuSans-115"/>
      <use x="318.914062" xlink:href="#DejaVuSans-105"/>
      <use x="346.697266" xlink:href="#DejaVuSans-118"/>
      <use x="405.876953" xlink:href="#DejaVuSans-101"/>
      <use x="467.400391" xlink:href="#DejaVuSans-32"/>
      <use x="499.1875" xlink:href="#DejaVuSans-75"/>
      <use x="564.763672" xlink:href="#DejaVuSans-76"/>
      <use x="620.476562" xlink:href="#DejaVuSans-32"/>
      <use x="652.263672" xlink:href="#DejaVuSans-122"/>
     </g>
    </g>
    <g id="line2d_44">
     <path d="M 529.570312 335.391636 
L 549.570312 335.391636 
" style="fill:none;stroke:#0000ff;stroke-linecap:square;stroke-width:1.5;"/>
    </g>
    <g id="line2d_45"/>
    <g id="text_33">
     <!-- inclusive KL z -->
     <g transform="translate(557.570312 338.891636)scale(0.1 -0.1)">
      <use xlink:href="#DejaVuSans-105"/>
      <use x="27.783203" xlink:href="#DejaVuSans-110"/>
      <use x="91.162109" xlink:href="#DejaVuSans-99"/>
      <use x="146.142578" xlink:href="#DejaVuSans-108"/>
      <use x="173.925781" xlink:href="#DejaVuSans-117"/>
      <use x="237.304688" xlink:href="#DejaVuSans-115"/>
      <use x="289.404297" xlink:href="#DejaVuSans-105"/>
      <use x="317.1875" xlink:href="#DejaVuSans-118"/>
      <use x="376.367188" xlink:href="#DejaVuSans-101"/>
      <use x="437.890625" xlink:href="#DejaVuSans-32"/>
      <use x="469.677734" xlink:href="#DejaVuSans-75"/>
      <use x="535.253906" xlink:href="#DejaVuSans-76"/>
      <use x="590.966797" xlink:href="#DejaVuSans-32"/>
      <use x="622.753906" xlink:href="#DejaVuSans-122"/>
     </g>
    </g>
   </g>
  </g>
  <g id="axes_3">
   <g id="patch_14">
    <path d="M 90 630 
L 648 630 
L 648 470.117647 
L 90 470.117647 
z
" style="fill:#ffffff;"/>
   </g>
   <g id="matplotlib.axis_5">
    <g id="xtick_19">
     <g id="line2d_46">
      <g>
       <use style="stroke:#000000;stroke-width:0.8;" x="115.363636" xlink:href="#mc1ea9b0228" y="630"/>
      </g>
     </g>
     <g id="text_34">
      <!-- 0 -->
      <g transform="translate(109.637386 650.677187)scale(0.18 -0.18)">
       <use xlink:href="#DejaVuSans-48"/>
      </g>
     </g>
    </g>
    <g id="xtick_20">
     <g id="line2d_47">
      <g>
       <use style="stroke:#000000;stroke-width:0.8;" x="179.575374" xlink:href="#mc1ea9b0228" y="630"/>
      </g>
     </g>
     <g id="text_35">
      <!-- 20 -->
      <g transform="translate(168.122874 650.677187)scale(0.18 -0.18)">
       <use xlink:href="#DejaVuSans-50"/>
       <use x="63.623047" xlink:href="#DejaVuSans-48"/>
      </g>
     </g>
    </g>
    <g id="xtick_21">
     <g id="line2d_48">
      <g>
       <use style="stroke:#000000;stroke-width:0.8;" x="243.787112" xlink:href="#mc1ea9b0228" y="630"/>
      </g>
     </g>
     <g id="text_36">
      <!-- 40 -->
      <g transform="translate(232.334612 650.677187)scale(0.18 -0.18)">
       <use xlink:href="#DejaVuSans-52"/>
       <use x="63.623047" xlink:href="#DejaVuSans-48"/>
      </g>
     </g>
    </g>
    <g id="xtick_22">
     <g id="line2d_49">
      <g>
       <use style="stroke:#000000;stroke-width:0.8;" x="307.998849" xlink:href="#mc1ea9b0228" y="630"/>
      </g>
     </g>
     <g id="text_37">
      <!-- 60 -->
      <g transform="translate(296.546349 650.677187)scale(0.18 -0.18)">
       <use xlink:href="#DejaVuSans-54"/>
       <use x="63.623047" xlink:href="#DejaVuSans-48"/>
      </g>
     </g>
    </g>
    <g id="xtick_23">
     <g id="line2d_50">
      <g>
       <use style="stroke:#000000;stroke-width:0.8;" x="372.210587" xlink:href="#mc1ea9b0228" y="630"/>
      </g>
     </g>
     <g id="text_38">
      <!-- 80 -->
      <g transform="translate(360.758087 650.677187)scale(0.18 -0.18)">
       <use xlink:href="#DejaVuSans-56"/>
       <use x="63.623047" xlink:href="#DejaVuSans-48"/>
      </g>
     </g>
    </g>
    <g id="xtick_24">
     <g id="line2d_51">
      <g>
       <use style="stroke:#000000;stroke-width:0.8;" x="436.422325" xlink:href="#mc1ea9b0228" y="630"/>
      </g>
     </g>
     <g id="text_39">
      <!-- 100 -->
      <g transform="translate(419.243575 650.677187)scale(0.18 -0.18)">
       <use xlink:href="#DejaVuSans-49"/>
       <use x="63.623047" xlink:href="#DejaVuSans-48"/>
       <use x="127.246094" xlink:href="#DejaVuSans-48"/>
      </g>
     </g>
    </g>
    <g id="xtick_25">
     <g id="line2d_52">
      <g>
       <use style="stroke:#000000;stroke-width:0.8;" x="500.634062" xlink:href="#mc1ea9b0228" y="630"/>
      </g>
     </g>
     <g id="text_40">
      <!-- 120 -->
      <g transform="translate(483.455312 650.677187)scale(0.18 -0.18)">
       <use xlink:href="#DejaVuSans-49"/>
       <use x="63.623047" xlink:href="#DejaVuSans-50"/>
       <use x="127.246094" xlink:href="#DejaVuSans-48"/>
      </g>
     </g>
    </g>
    <g id="xtick_26">
     <g id="line2d_53">
      <g>
       <use style="stroke:#000000;stroke-width:0.8;" x="564.8458" xlink:href="#mc1ea9b0228" y="630"/>
      </g>
     </g>
     <g id="text_41">
      <!-- 140 -->
      <g transform="translate(547.66705 650.677187)scale(0.18 -0.18)">
       <use xlink:href="#DejaVuSans-49"/>
       <use x="63.623047" xlink:href="#DejaVuSans-52"/>
       <use x="127.246094" xlink:href="#DejaVuSans-48"/>
      </g>
     </g>
    </g>
    <g id="xtick_27">
     <g id="line2d_54">
      <g>
       <use style="stroke:#000000;stroke-width:0.8;" x="629.057537" xlink:href="#mc1ea9b0228" y="630"/>
      </g>
     </g>
     <g id="text_42">
      <!-- 160 -->
      <g transform="translate(611.878787 650.677187)scale(0.18 -0.18)">
       <use xlink:href="#DejaVuSans-49"/>
       <use x="63.623047" xlink:href="#DejaVuSans-54"/>
       <use x="127.246094" xlink:href="#DejaVuSans-48"/>
      </g>
     </g>
    </g>
   </g>
   <g id="matplotlib.axis_6">
    <g id="ytick_10">
     <g id="line2d_55">
      <g>
       <use style="stroke:#000000;stroke-width:0.8;" x="90" xlink:href="#m92164da3ab" y="630"/>
      </g>
     </g>
     <g id="text_43">
      <!-- 0.00 -->
      <defs>
       <path d="M 10.6875 12.40625 
L 21 12.40625 
L 21 0 
L 10.6875 0 
z
" id="DejaVuSans-46"/>
      </defs>
      <g transform="translate(42.921875 636.838594)scale(0.18 -0.18)">
       <use xlink:href="#DejaVuSans-48"/>
       <use x="63.623047" xlink:href="#DejaVuSans-46"/>
       <use x="95.410156" xlink:href="#DejaVuSans-48"/>
       <use x="159.033203" xlink:href="#DejaVuSans-48"/>
      </g>
     </g>
    </g>
    <g id="ytick_11">
     <g id="line2d_56">
      <g>
       <use style="stroke:#000000;stroke-width:0.8;" x="90" xlink:href="#m92164da3ab" y="590.029412"/>
      </g>
     </g>
     <g id="text_44">
      <!-- 0.25 -->
      <g transform="translate(42.921875 596.868006)scale(0.18 -0.18)">
       <use xlink:href="#DejaVuSans-48"/>
       <use x="63.623047" xlink:href="#DejaVuSans-46"/>
       <use x="95.410156" xlink:href="#DejaVuSans-50"/>
       <use x="159.033203" xlink:href="#DejaVuSans-53"/>
      </g>
     </g>
    </g>
    <g id="ytick_12">
     <g id="line2d_57">
      <g>
       <use style="stroke:#000000;stroke-width:0.8;" x="90" xlink:href="#m92164da3ab" y="550.058824"/>
      </g>
     </g>
     <g id="text_45">
      <!-- 0.50 -->
      <g transform="translate(42.921875 556.897417)scale(0.18 -0.18)">
       <use xlink:href="#DejaVuSans-48"/>
       <use x="63.623047" xlink:href="#DejaVuSans-46"/>
       <use x="95.410156" xlink:href="#DejaVuSans-53"/>
       <use x="159.033203" xlink:href="#DejaVuSans-48"/>
      </g>
     </g>
    </g>
    <g id="ytick_13">
     <g id="line2d_58">
      <g>
       <use style="stroke:#000000;stroke-width:0.8;" x="90" xlink:href="#m92164da3ab" y="510.088235"/>
      </g>
     </g>
     <g id="text_46">
      <!-- 0.75 -->
      <defs>
       <path d="M 8.203125 72.90625 
L 55.078125 72.90625 
L 55.078125 68.703125 
L 28.609375 0 
L 18.3125 0 
L 43.21875 64.59375 
L 8.203125 64.59375 
z
" id="DejaVuSans-55"/>
      </defs>
      <g transform="translate(42.921875 516.926829)scale(0.18 -0.18)">
       <use xlink:href="#DejaVuSans-48"/>
       <use x="63.623047" xlink:href="#DejaVuSans-46"/>
       <use x="95.410156" xlink:href="#DejaVuSans-55"/>
       <use x="159.033203" xlink:href="#DejaVuSans-53"/>
      </g>
     </g>
    </g>
    <g id="ytick_14">
     <g id="line2d_59">
      <g>
       <use style="stroke:#000000;stroke-width:0.8;" x="90" xlink:href="#m92164da3ab" y="470.117647"/>
      </g>
     </g>
     <g id="text_47">
      <!-- 1.00 -->
      <g transform="translate(42.921875 476.956241)scale(0.18 -0.18)">
       <use xlink:href="#DejaVuSans-49"/>
       <use x="63.623047" xlink:href="#DejaVuSans-46"/>
       <use x="95.410156" xlink:href="#DejaVuSans-48"/>
       <use x="159.033203" xlink:href="#DejaVuSans-48"/>
      </g>
     </g>
    </g>
   </g>
   <g id="line2d_60">
    <path clip-path="url(#p93e24071a7)" d="M 115.363636 579.013518 
L 118.574223 571.003412 
L 121.78481 565.199682 
L 124.995397 561.282565 
L 128.205984 558.180847 
L 131.416571 555.398894 
L 134.627158 552.952694 
L 137.837745 551.193988 
L 141.048331 549.946906 
L 144.258918 549.019588 
L 147.469505 548.316106 
L 150.680092 547.756518 
L 153.890679 547.404776 
L 157.101266 547.228906 
L 163.52244 547.388788 
L 166.733026 547.596635 
L 173.1542 548.220176 
L 176.364787 547.037047 
L 182.785961 543.903353 
L 185.996548 542.624294 
L 192.417722 540.465882 
L 214.89183 533.111294 
L 221.313003 531.224682 
L 227.734177 529.609871 
L 230.944764 528.986329 
L 237.365938 528.027035 
L 243.787112 527.547388 
L 253.418872 527.035765 
L 256.629459 526.907859 
L 259.840046 526.572106 
L 272.682394 525.772694 
L 275.89298 525.596824 
L 291.945915 525.341012 
L 340.104718 525.149153 
L 346.525892 525.165141 
L 352.947066 525.0852 
L 359.368239 525.117176 
L 484.581128 525.069212 
L 487.791715 525.005259 
L 494.212888 525.069212 
L 500.634062 525.037235 
L 507.055236 525.053224 
L 526.318757 525.037235 
L 532.739931 525.021247 
L 622.636364 525.005259 
L 622.636364 525.005259 
" style="fill:none;stroke:#bf00bf;stroke-linecap:square;stroke-width:1.5;"/>
   </g>
   <g id="patch_15">
    <path d="M 90 630 
L 90 470.117647 
" style="fill:none;stroke:#000000;stroke-linecap:square;stroke-linejoin:miter;stroke-width:0.8;"/>
   </g>
   <g id="patch_16">
    <path d="M 648 630 
L 648 470.117647 
" style="fill:none;stroke:#000000;stroke-linecap:square;stroke-linejoin:miter;stroke-width:0.8;"/>
   </g>
   <g id="patch_17">
    <path d="M 90 630 
L 648 630 
" style="fill:none;stroke:#000000;stroke-linecap:square;stroke-linejoin:miter;stroke-width:0.8;"/>
   </g>
   <g id="patch_18">
    <path d="M 90 470.117647 
L 648 470.117647 
" style="fill:none;stroke:#000000;stroke-linecap:square;stroke-linejoin:miter;stroke-width:0.8;"/>
   </g>
   <g id="legend_3">
    <g id="patch_19">
     <path d="M 589.984375 492.795772 
L 641 492.795772 
Q 643 492.795772 643 490.795772 
L 643 477.117647 
Q 643 475.117647 641 475.117647 
L 589.984375 475.117647 
Q 587.984375 475.117647 587.984375 477.117647 
L 587.984375 490.795772 
Q 587.984375 492.795772 589.984375 492.795772 
z
" style="fill:#ffffff;opacity:0.8;stroke:#cccccc;stroke-linejoin:miter;"/>
    </g>
    <g id="line2d_61">
     <path d="M 591.984375 483.216085 
L 611.984375 483.216085 
" style="fill:none;stroke:#bf00bf;stroke-linecap:square;stroke-width:1.5;"/>
    </g>
    <g id="line2d_62"/>
    <g id="text_48">
     <!-- ESS -->
     <defs>
      <path d="M 53.515625 70.515625 
L 53.515625 60.890625 
Q 47.90625 63.578125 42.921875 64.890625 
Q 37.9375 66.21875 33.296875 66.21875 
Q 25.25 66.21875 20.875 63.09375 
Q 16.5 59.96875 16.5 54.203125 
Q 16.5 49.359375 19.40625 46.890625 
Q 22.3125 44.4375 30.421875 42.921875 
L 36.375 41.703125 
Q 47.40625 39.59375 52.65625 34.296875 
Q 57.90625 29 57.90625 20.125 
Q 57.90625 9.515625 50.796875 4.046875 
Q 43.703125 -1.421875 29.984375 -1.421875 
Q 24.8125 -1.421875 18.96875 -0.25 
Q 13.140625 0.921875 6.890625 3.21875 
L 6.890625 13.375 
Q 12.890625 10.015625 18.65625 8.296875 
Q 24.421875 6.59375 29.984375 6.59375 
Q 38.421875 6.59375 43.015625 9.90625 
Q 47.609375 13.234375 47.609375 19.390625 
Q 47.609375 24.75 44.3125 27.78125 
Q 41.015625 30.8125 33.5 32.328125 
L 27.484375 33.5 
Q 16.453125 35.6875 11.515625 40.375 
Q 6.59375 45.0625 6.59375 53.421875 
Q 6.59375 63.09375 13.40625 68.65625 
Q 20.21875 74.21875 32.171875 74.21875 
Q 37.3125 74.21875 42.625 73.28125 
Q 47.953125 72.359375 53.515625 70.515625 
z
" id="DejaVuSans-83"/>
     </defs>
     <g transform="translate(619.984375 486.716085)scale(0.1 -0.1)">
      <use xlink:href="#DejaVuSans-69"/>
      <use x="63.183594" xlink:href="#DejaVuSans-83"/>
      <use x="126.660156" xlink:href="#DejaVuSans-83"/>
     </g>
    </g>
   </g>
  </g>
 </g>
 <defs>
  <clipPath id="p54a1e13796">
   <rect height="159.882353" width="558" x="90" y="86.4"/>
  </clipPath>
  <clipPath id="pb0c02ece72">
   <rect height="159.882353" width="558" x="90" y="278.258824"/>
  </clipPath>
  <clipPath id="p93e24071a7">
   <rect height="159.882353" width="558" x="90" y="470.117647"/>
  </clipPath>
 </defs>
</svg>
